<svg width="244" height="106" viewBox="0 0 244 106" fill="none" xmlns="http://www.w3.org/2000/svg">
<path d="M22.25 12.46C22.082 13.398 21.872 14.392 21.662 15.05L22.488 15.288C22.824 14.392 23.146 12.936 23.37 11.69L22.684 11.48L22.516 11.522H19.38C19.548 10.864 19.688 10.164 19.814 9.45L18.82 9.282C18.512 11.354 17.924 13.37 17.014 14.658C17.252 14.784 17.686 15.036 17.882 15.176C18.372 14.448 18.778 13.51 19.114 12.46H22.25ZM13.948 18.046V19.488H12.226V18.046H13.948ZM14.788 20.258V17.276H11.344V20.86H12.226V20.258H14.788ZM17.98 16.394V15.47H16.636V10.878H17.672V9.982H10.77V10.878H15.698V15.47H10.616V16.394H15.782V21.014C15.782 21.168 15.74 21.224 15.558 21.224C15.376 21.238 14.788 21.238 14.158 21.224C14.284 21.448 14.396 21.77 14.452 22.008C15.334 22.008 15.908 21.994 16.258 21.854C16.608 21.728 16.72 21.532 16.72 21.028V16.394H17.98ZM13.906 13.832H12.268V12.446H13.906V13.832ZM11.484 11.704V14.574H14.746V11.704H11.484ZM20.696 13.3H19.744V14.252C19.744 16.226 19.52 19.166 16.874 21.392C17.084 21.574 17.42 21.91 17.574 22.134C19.114 20.804 19.912 19.25 20.304 17.738C20.864 19.544 21.676 20.874 23.02 22.092C23.146 21.812 23.44 21.504 23.706 21.308C21.984 19.866 21.172 18.186 20.668 15.386C20.682 14.994 20.696 14.616 20.696 14.252V13.3ZM37.286 16.492H31.546V14.224H36.502V13.23H31.546V10.962C33.198 10.766 34.724 10.5 35.914 10.136L35.13 9.31C33.03 9.968 28.97 10.332 25.666 10.486C25.764 10.724 25.89 11.13 25.932 11.41C27.374 11.34 28.956 11.242 30.496 11.074V13.23H25.68V14.224H30.496V16.492H24.742V17.514H30.496V20.608C30.496 20.902 30.37 21 30.062 21C29.74 21.014 28.648 21.028 27.472 20.986C27.64 21.266 27.836 21.728 27.92 22.022C29.39 22.036 30.286 22.008 30.804 21.84C31.322 21.672 31.546 21.364 31.546 20.622V17.514H37.286V16.492ZM41.2849 23.506H42.2229L46.4089 9.898H45.4849L41.2849 23.506Z" fill="#00FF63"/>
<path d="M64.2859 13.116H65.6179V10.164C67.9939 11.118 70.7839 12.378 72.2599 13.224L72.9799 12.18C71.3059 11.262 68.0839 9.912 65.6179 9.012V8.976H72.7459V7.806H65.6179V5.934H64.2859V7.806H57.3019V8.976H63.3859C61.7119 10.344 59.1019 11.55 56.7979 12.144C57.0499 12.396 57.4459 12.9 57.6439 13.206C59.9119 12.54 62.5039 11.226 64.2859 9.696V13.116ZM65.5999 16.59C67.1839 15.96 68.8039 15.06 69.9919 14.16L69.1459 13.422L68.8399 13.494H60.1639V14.682H67.2199C66.3379 15.204 65.2759 15.708 64.2859 16.05V16.968H57.0499V18.21H64.2859V20.802C64.2859 21.036 64.2139 21.09 63.8899 21.108C63.5839 21.126 62.4499 21.126 61.2259 21.09C61.4599 21.432 61.7479 21.972 61.8559 22.332C63.3139 22.332 64.1959 22.314 64.8079 22.116C65.4019 21.9 65.5999 21.558 65.5999 20.82V18.21H72.9799V16.968H65.5999V16.59ZM91.1059 13.908H83.7619V12C85.8139 10.956 88.1179 9.354 89.6479 7.842L88.6399 7.086L88.3519 7.158H76.7599V8.472H86.8939C85.6339 9.516 83.8879 10.632 82.3939 11.316V13.908H74.9779V15.24H82.3939V20.586C82.3939 20.91 82.2679 21 81.9079 21.018C81.5119 21.036 80.1979 21.054 78.7399 21C78.9739 21.378 79.2259 21.972 79.3159 22.368C81.0439 22.368 82.1779 22.35 82.8439 22.116C83.5279 21.918 83.7619 21.504 83.7619 20.604V15.24H91.1059V13.908ZM100.304 13.782H101.636V9.534C103.472 10.524 106.946 12.63 108.206 13.458L108.656 12.198C107.81 11.694 104.624 10.002 102.716 9.03H108.404V7.824H101.636V5.916H100.304V7.824H93.5539V9.03H99.1159C97.5499 10.596 95.1019 11.964 92.7799 12.612C93.0679 12.864 93.4279 13.332 93.6259 13.674C96.0559 12.846 98.6299 11.298 100.304 9.444V13.782ZM100.628 18.516C100.16 18.156 98.3419 16.788 97.6219 16.302V16.158H100.52V14.97H97.6219V13.062H96.3439V14.97H93.3379V16.158H96.1999C95.3539 17.598 93.9859 19.038 92.6899 19.794C92.8879 20.118 93.1579 20.64 93.2659 20.982C94.3639 20.28 95.4799 19.092 96.3439 17.796V22.242H97.6219V17.544C98.3779 18.156 99.2419 18.894 99.6379 19.272L100.628 18.516ZM108.728 16.194V15.006H105.308V13.062H104.048V15.006H101.114V16.194H103.832C102.842 17.76 101.15 19.29 99.5839 20.082C99.8539 20.298 100.232 20.73 100.412 21.036C101.672 20.298 103.004 19.092 104.048 17.706V22.404H105.308V17.616C106.244 18.948 107.468 20.208 108.476 20.982C108.71 20.64 109.124 20.172 109.412 19.938C108.08 19.164 106.514 17.652 105.506 16.194H108.728Z" fill="white"/>
<path d="M10.638 64.16L14.508 56.096L13.536 55.772L9.54 64.16L13.536 72.548L14.508 72.224L10.638 64.16ZM13.482 64.16L17.352 56.096L16.38 55.772L12.384 64.16L16.38 72.548L17.352 72.224L13.482 64.16ZM22.59 69.686V64.664H31.518V69.686H22.59ZM31.518 58.49V63.35H22.59V58.49H31.518ZM21.24 57.176V72.17H22.59V71H31.518V72.098H32.922V57.176H21.24ZM41.49 58.004C41.202 57.41 40.572 56.492 39.942 55.844L38.916 56.402C39.492 57.068 40.122 58.022 40.392 58.634L41.49 58.004ZM41.922 67.292V70.298H38.772V67.292H41.922ZM43.128 66.194H37.584V72.242H38.772V71.414H43.128V66.194ZM37.35 64.826H43.416V63.746H37.35V64.826ZM37.692 61.244V62.288H43.074V61.244H37.692ZM36.828 59.84H43.992V58.742H36.828V59.84ZM47.448 70.748C46.476 70.748 46.278 70.604 46.278 69.902V64.052H50.796V65.006H52.11V56.924H44.73V58.202H50.796V62.774H44.964V69.902C44.964 71.594 45.504 72.008 47.34 72.008H50.868C52.632 72.008 53.046 71.234 53.244 68.318C52.848 68.246 52.308 68.012 51.984 67.778C51.876 70.28 51.714 70.748 50.778 70.748H47.448ZM70.812 61.046V59.714H63.684V55.952H62.298V59.714H55.224V61.046H60.66C59.346 64.088 57.132 67.004 54.756 68.462C55.062 68.714 55.494 69.2 55.71 69.524C58.302 67.76 60.624 64.556 62.01 61.046H62.298V67.688H58.122V69.02H62.298V72.368H63.684V69.02H67.86V67.688H63.684V61.046H63.936C65.286 64.556 67.608 67.796 70.272 69.47C70.488 69.11 70.956 68.624 71.298 68.336C68.814 66.932 66.546 64.088 65.25 61.046H70.812ZM76.464 72.548L80.46 64.16L76.464 55.772L75.492 56.096L79.362 64.16L75.492 72.224L76.464 72.548ZM73.62 72.548L77.616 64.16L73.62 55.772L72.648 56.096L76.518 64.16L72.648 72.224L73.62 72.548Z" fill="#00FF63"/>
<path opacity="0.8" d="M13.32 88.64C13.08 88.064 12.6 87.248 12.136 86.608L11.576 86.944C12.008 87.568 12.504 88.448 12.728 89.024L13.32 88.64ZM14.136 96.304V99.472H11.16V96.304H14.136ZM14.84 95.616H10.472V100.96H11.16V100.16H14.84V95.616ZM10.504 94.208H14.808V93.536H10.504V94.208ZM14.808 91.472H10.504V92.128H14.808V91.472ZM9.88 90.112H15.416V89.424H9.88V90.112ZM20.344 93.04V96.656H17.272V93.04H20.344ZM21.048 97.344V92.336H16.584V98.48H17.272V97.344H21.048ZM21.96 90.016H15.88V90.704H21.96V90.016ZM23.672 87.536H15.48V88.256H22.952V100C22.952 100.288 22.856 100.368 22.6 100.384C22.312 100.4 21.368 100.416 20.328 100.384C20.456 100.608 20.568 100.96 20.616 101.168C21.88 101.168 22.68 101.168 23.112 101.024C23.512 100.88 23.672 100.624 23.672 100.016V87.536ZM35.256 99.36V95.312H38.6V99.36H35.256ZM27.448 95.312H30.6V99.36H27.448V95.312ZM30.6 90.64V94.576H27.448V90.64H30.6ZM34.504 95.312V99.36H31.352V95.312H34.504ZM34.504 90.64V94.576H31.352V90.64H34.504ZM38.6 90.64V94.576H35.256V90.64H38.6ZM35.256 89.888V86.848H34.504V89.888H31.352V86.848H30.6V89.888H26.712V101.2H27.448V100.112H38.6V101.104H39.352V89.888H35.256ZM48.6 92.208V93.456H43.864V92.208H48.6ZM43.8 95.408C43.848 94.928 43.864 94.464 43.864 94.048H48.6V95.408H43.8ZM49.32 96.048V91.568H43.144V93.904C43.144 95.696 42.936 98.176 41.688 100.048C41.864 100.128 42.184 100.32 42.312 100.448C43.176 99.168 43.56 97.552 43.752 96.048H49.32ZM44.648 90V90.592H48.088V90H44.648ZM48.984 97.584V99.616H44.584V97.584H48.984ZM43.88 101.04H44.584V100.272H48.984V101.024H49.704V96.944H43.88V101.04ZM46.056 86.88C45.128 88.544 43.448 89.92 41.704 90.8C41.864 90.976 42.088 91.312 42.168 91.472C43.624 90.64 45.112 89.456 46.152 88.032C47.448 88.848 49 89.936 49.8 90.624L50.216 90.032C49.4 89.344 47.832 88.288 46.52 87.504C46.6 87.376 46.68 87.232 46.76 87.12L46.056 86.88ZM52.2 88.528H51.464V97.248H52.2V88.528ZM54.552 86.768V100.016C54.552 100.304 54.44 100.384 54.168 100.4C53.912 100.416 53.016 100.416 51.976 100.4C52.088 100.624 52.2 100.944 52.248 101.152C53.576 101.152 54.312 101.152 54.728 101.008C55.112 100.864 55.304 100.624 55.304 100.016V86.768H54.552ZM61.896 86.736C60.936 89.248 59.384 91.728 57.736 93.312C57.896 93.472 58.136 93.856 58.216 94.016C58.888 93.344 59.528 92.544 60.136 91.68V101.152H60.92V90.448C61.576 89.344 62.152 88.16 62.632 86.96L61.896 86.736ZM72.248 90.128V89.392H65.256C65.624 88.656 65.944 87.872 66.232 87.088L65.512 86.896C64.68 89.264 63.368 91.6 61.912 93.12C62.072 93.232 62.392 93.504 62.52 93.616C63.368 92.672 64.184 91.472 64.904 90.128H66.296V101.168H67.064V97.072H72.152V96.336H67.064V93.536H71.928V92.816H67.064V90.128H72.248Z" fill="white"/>
<path d="M240.5 38.13L9.23999 38.13V39.02L240.5 39.02V38.13Z" fill="white"/>
<path d="M244 35H229V42H244V35Z" fill="#00FF63"/>
</svg>
