<svg width="244" height="106" viewBox="0 0 244 106" fill="none" xmlns="http://www.w3.org/2000/svg">
<path d="M21.25 12.46C21.082 13.398 20.872 14.392 20.662 15.05L21.488 15.288C21.824 14.392 22.146 12.936 22.37 11.69L21.684 11.48L21.516 11.522H18.38C18.548 10.864 18.688 10.164 18.814 9.45L17.82 9.282C17.512 11.354 16.924 13.37 16.014 14.658C16.252 14.784 16.686 15.036 16.882 15.176C17.372 14.448 17.778 13.51 18.114 12.46H21.25ZM12.948 18.046V19.488H11.226V18.046H12.948ZM13.788 20.258V17.276H10.344V20.86H11.226V20.258H13.788ZM16.98 16.394V15.47H15.636V10.878H16.672V9.982H9.77V10.878H14.698V15.47H9.616V16.394H14.782V21.014C14.782 21.168 14.74 21.224 14.558 21.224C14.376 21.238 13.788 21.238 13.158 21.224C13.284 21.448 13.396 21.77 13.452 22.008C14.334 22.008 14.908 21.994 15.258 21.854C15.608 21.728 15.72 21.532 15.72 21.028V16.394H16.98ZM12.906 13.832H11.268V12.446H12.906V13.832ZM10.484 11.704V14.574H13.746V11.704H10.484ZM19.696 13.3H18.744V14.252C18.744 16.226 18.52 19.166 15.874 21.392C16.084 21.574 16.42 21.91 16.574 22.134C18.114 20.804 18.912 19.25 19.304 17.738C19.864 19.544 20.676 20.874 22.02 22.092C22.146 21.812 22.44 21.504 22.706 21.308C20.984 19.866 20.172 18.186 19.668 15.386C19.682 14.994 19.696 14.616 19.696 14.252V13.3ZM36.286 16.492H30.546V14.224H35.502V13.23H30.546V10.962C32.198 10.766 33.724 10.5 34.914 10.136L34.13 9.31C32.03 9.968 27.97 10.332 24.666 10.486C24.764 10.724 24.89 11.13 24.932 11.41C26.374 11.34 27.956 11.242 29.496 11.074V13.23H24.68V14.224H29.496V16.492H23.742V17.514H29.496V20.608C29.496 20.902 29.37 21 29.062 21C28.74 21.014 27.648 21.028 26.472 20.986C26.64 21.266 26.836 21.728 26.92 22.022C28.39 22.036 29.286 22.008 29.804 21.84C30.322 21.672 30.546 21.364 30.546 20.622V17.514H36.286V16.492ZM40.2849 23.506H41.2229L45.4089 9.898H44.4849L40.2849 23.506Z" fill="#00FF63"/>
<path d="M58.139 17.31C59.183 16.77 60.335 16.05 61.217 15.33L60.407 14.628L60.119 14.7H53.639V15.78H58.751C58.157 16.23 57.455 16.644 56.843 16.968V17.778C55.295 17.832 53.855 17.886 52.721 17.922L52.811 19.092L56.843 18.912V20.964C56.843 21.144 56.789 21.198 56.555 21.198C56.339 21.216 55.529 21.216 54.701 21.198C54.863 21.522 55.061 21.972 55.115 22.332C56.285 22.332 57.023 22.314 57.509 22.134C58.013 21.954 58.139 21.63 58.139 20.982V18.84C59.417 18.786 60.731 18.714 62.045 18.642L62.081 17.544C60.749 17.598 59.417 17.67 58.139 17.724V17.31ZM59.849 12.72H55.097V10.92H59.849V12.72ZM61.073 9.912H53.945V13.728H61.073V9.912ZM56.339 6.294C56.573 6.69 56.807 7.194 57.005 7.644H52.865V8.796H62.099V7.644H58.337C58.121 7.104 57.779 6.42 57.455 5.898L56.339 6.294ZM68.093 6.87L67.895 6.924H62.675V22.386H63.989V8.184H67.283C66.725 9.606 65.951 11.55 65.195 13.08C67.013 14.646 67.535 15.996 67.535 17.13C67.535 17.778 67.409 18.318 67.031 18.552C66.815 18.678 66.545 18.75 66.257 18.75C65.897 18.786 65.393 18.786 64.871 18.732C65.087 19.11 65.213 19.65 65.231 20.028C65.753 20.064 66.329 20.064 66.779 20.01C67.211 19.956 67.625 19.83 67.931 19.614C68.561 19.2 68.813 18.354 68.813 17.274C68.795 15.996 68.345 14.556 66.545 12.918C67.373 11.262 68.309 9.192 69.047 7.5L68.093 6.87ZM85.661 6.15C83.969 6.69 80.909 7.14 78.317 7.428C78.461 7.68 78.623 8.112 78.677 8.382C81.341 8.148 84.527 7.698 86.597 7.068L85.661 6.15ZM85.013 11.118C85.445 10.398 85.967 9.354 86.417 8.4L85.283 8.058C84.995 8.868 84.455 10.056 84.005 10.776L85.013 11.118ZM83.141 10.848C83.033 10.182 82.709 9.156 82.349 8.4L81.323 8.616C81.647 9.408 81.971 10.452 82.061 11.136L83.141 10.848ZM80.891 11.028C80.711 10.38 80.261 9.408 79.793 8.706L78.821 9.084C79.271 9.822 79.703 10.794 79.865 11.46L80.891 11.028ZM72.809 18.336C72.827 18.12 72.827 17.94 72.827 17.742V17.058H76.319V18.336H72.809ZM76.319 14.826V16.086H72.827V14.826H76.319ZM77.471 13.8H71.657V17.724C71.657 18.984 71.567 20.478 70.757 21.594C71.009 21.756 71.441 22.224 71.603 22.476C72.287 21.594 72.611 20.424 72.737 19.29H76.319V21.036C76.319 21.234 76.247 21.306 76.013 21.306C75.797 21.306 75.077 21.324 74.249 21.288C74.411 21.594 74.591 22.026 74.645 22.35C75.779 22.35 76.463 22.332 76.895 22.134C77.345 21.954 77.471 21.648 77.471 21.036V13.8ZM75.257 10.596H77.561V9.624H75.257V8.544H78.011V7.536H75.257V5.934H73.997V7.536H71.099V8.544H73.997V9.624H71.585V10.596H73.997V11.766H70.811V12.792H78.263V11.766H75.257V10.596ZM84.869 17.058H82.925V15.384H84.869V17.058ZM82.925 12.648H84.869V14.196H82.925V12.648ZM87.191 14.196H86.021V11.532H79.109V12.648H81.683V14.196H78.281V15.384H81.683V17.058H79.055V18.174H81.683V20.892C81.683 21.09 81.629 21.162 81.413 21.162C81.197 21.162 80.477 21.162 79.739 21.144C79.901 21.486 80.081 21.972 80.135 22.332C81.179 22.332 81.881 22.296 82.331 22.116C82.799 21.918 82.925 21.594 82.925 20.892V18.174H86.021V15.384H87.191V14.196Z" fill="white"/>
<path d="M10.638 64.16L14.508 56.096L13.536 55.772L9.54 64.16L13.536 72.548L14.508 72.224L10.638 64.16ZM13.482 64.16L17.352 56.096L16.38 55.772L12.384 64.16L16.38 72.548L17.352 72.224L13.482 64.16ZM22.446 63.17V64.124H23.58C23.292 66.248 22.68 68.03 21.474 69.182C21.708 69.308 22.086 69.596 22.23 69.758C23.04 68.912 23.616 67.814 24.03 66.482C24.264 67.634 24.714 68.768 25.506 69.722C25.668 69.542 26.028 69.236 26.244 69.128C24.696 67.328 24.57 65.042 24.57 63.17H22.446ZM28.674 63.17V64.124H29.844C29.556 66.158 28.944 67.904 27.792 69.038C28.026 69.182 28.404 69.47 28.548 69.632C29.322 68.786 29.898 67.688 30.312 66.392C30.546 67.562 31.014 68.714 31.878 69.668C32.04 69.506 32.454 69.218 32.688 69.11C30.996 67.346 30.87 65.06 30.87 63.17H28.674ZM34.776 58.328V57.014H19.314V58.328H26.28V60.578H19.944V72.332H21.222V61.82H26.28V72.278H27.54V61.82H32.85V70.802C32.85 71.072 32.778 71.144 32.508 71.162C32.22 71.18 31.284 71.18 30.312 71.144C30.492 71.468 30.69 71.99 30.762 72.332C32.04 72.332 32.922 72.314 33.48 72.116C34.002 71.9 34.164 71.54 34.164 70.802V60.578H27.54V58.328H34.776ZM40.32 56.024C39.42 58.742 37.98 61.442 36.378 63.188C36.612 63.512 36.972 64.25 37.08 64.538C37.692 63.854 38.268 63.044 38.826 62.162V72.386H40.104V59.858C40.662 58.742 41.148 57.554 41.544 56.366L40.32 56.024ZM48.96 67.616H45.918V64.826H48.96V67.616ZM50.724 61.838V60.812H47.952V58.778H46.854V60.812H44.154V61.838H46.854V63.818H44.892V68.606H50.022V63.818H47.952V61.838H50.724ZM43.416 70.1V58.202H51.336V70.1H43.416ZM42.174 57.032V72.35H43.416V71.288H51.336V72.206H52.614V57.032H42.174ZM62.244 56.006C62.19 58.742 62.298 67.49 54.828 71.27C55.242 71.558 55.674 71.954 55.908 72.314C60.3 69.974 62.208 65.942 63.036 62.342C63.9 65.69 65.826 70.136 70.326 72.242C70.524 71.864 70.92 71.414 71.298 71.108C64.944 68.282 63.864 60.758 63.594 58.616C63.684 57.554 63.702 56.654 63.72 56.006H62.244ZM78.624 63.782H74.844V60.02H78.624V63.782ZM74.844 69.29V64.97H78.624V69.29H74.844ZM76.356 55.898C76.23 56.744 75.906 57.95 75.636 58.814H73.62V71.918H74.844V70.496H79.848V58.814H76.86C77.166 58.04 77.49 57.05 77.796 56.168L76.356 55.898ZM88.65 58.76H83.268C83.574 57.914 83.826 57.05 84.042 56.168L82.764 55.862C82.188 58.328 81.216 60.812 80.01 62.396C80.298 62.576 80.874 62.936 81.108 63.152C81.738 62.306 82.296 61.208 82.8 60.002H87.372C87.138 67.166 86.868 69.902 86.274 70.532C86.094 70.766 85.896 70.802 85.536 70.802C85.122 70.802 84.042 70.802 82.872 70.694C83.124 71.072 83.286 71.612 83.322 72.008C84.33 72.062 85.356 72.098 85.986 72.026C86.598 71.972 87.012 71.81 87.408 71.306C88.128 70.424 88.362 67.652 88.65 59.444V58.76ZM85.806 66.86C85.23 65.798 83.988 64.07 82.98 62.792L81.936 63.404C82.926 64.7 84.132 66.482 84.672 67.562L85.806 66.86ZM103.608 58.526C102.87 57.752 101.34 56.654 100.134 55.934L99.324 56.816C100.53 57.59 102.042 58.76 102.762 59.534L103.608 58.526ZM97.47 67.598C98.172 66.176 98.55 63.728 98.766 61.892L97.74 61.658C97.56 63.476 97.146 65.798 96.426 67.202L97.47 67.598ZM96.84 65.69C96.552 65.204 95.238 63.314 94.788 62.72V62.324H96.858V61.064H94.788V57.878C95.544 57.662 96.264 57.428 96.858 57.158L96.03 56.078C94.896 56.636 92.934 57.158 91.26 57.482C91.404 57.788 91.584 58.238 91.656 58.544C92.25 58.436 92.898 58.31 93.528 58.166V61.064H91.062V62.324H93.384C92.772 64.358 91.674 66.68 90.666 67.976C90.9 68.3 91.242 68.876 91.368 69.254C92.142 68.228 92.916 66.608 93.528 64.934V72.404H94.788V64.376C95.256 65.222 95.778 66.23 96.012 66.77L96.84 65.69ZM107.262 67.472C107.028 66.032 106.308 63.836 105.516 62.144L104.382 62.486C105.066 60.866 105.642 59.138 106.164 57.302L104.886 57.05C103.95 60.506 102.708 63.62 101.016 66.212V59.804H99.738V67.958C98.73 69.164 97.614 70.244 96.336 71.144C96.642 71.36 97.2 71.81 97.416 72.062C98.244 71.432 99.018 70.712 99.738 69.938V70.172C99.738 71.774 100.134 72.206 101.628 72.206H104.022C105.372 72.206 105.714 71.45 105.858 68.876C105.516 68.822 104.994 68.606 104.706 68.354C104.634 70.568 104.526 71.036 103.914 71.036H101.79C101.124 71.036 101.016 70.91 101.016 70.19V68.426C102.33 66.698 103.446 64.718 104.364 62.504C105.138 64.178 105.84 66.374 106.056 67.832L107.262 67.472ZM110.754 58.688H123.246V60.974H124.596V57.482H117.81C117.684 56.96 117.468 56.294 117.234 55.754L115.974 55.97C116.154 56.42 116.316 56.996 116.424 57.482H109.44V60.974H110.754V58.688ZM118.152 60.848C117.486 60.218 116.136 59.426 115.056 58.958L114.354 59.732C115.47 60.236 116.802 61.064 117.45 61.712L118.152 60.848ZM111.312 61.064C110.826 62.144 109.962 63.476 108.918 64.268L109.998 64.916C111.042 64.052 111.834 62.684 112.41 61.568L111.312 61.064ZM119.664 65.906C121.23 65.906 121.608 65.384 121.788 63.278C121.446 63.206 120.96 63.026 120.672 62.81C120.582 64.556 120.438 64.808 119.574 64.808H115.938C115.65 64.808 115.416 64.808 115.236 64.772C117.702 63.566 119.934 62.018 121.5 60.11L120.348 59.552C118.998 61.244 116.982 62.63 114.678 63.746V60.794H113.472V64.232V64.286C111.978 64.916 110.358 65.42 108.738 65.834C108.99 66.104 109.368 66.662 109.53 66.95C110.97 66.536 112.41 66.032 113.814 65.438C114.138 65.798 114.768 65.906 115.866 65.906H119.664ZM121.86 70.298H117.63V66.482H116.298V70.298H112.266V67.436H110.952V71.576H121.86V72.35H123.174V67.292H121.86V70.298ZM121.122 61.82C122.238 62.81 123.552 64.232 124.11 65.186L125.136 64.448C124.524 63.494 123.192 62.126 122.076 61.154L121.122 61.82ZM130.464 72.548L134.46 64.16L130.464 55.772L129.492 56.096L133.362 64.16L129.492 72.224L130.464 72.548ZM127.62 72.548L131.616 64.16L127.62 55.772L126.648 56.096L130.518 64.16L126.648 72.224L127.62 72.548Z" fill="#00FF63"/>
<path opacity="0.8" d="M23.256 88.224H17.72C17.544 87.728 17.24 87.056 16.888 86.576L16.152 86.768C16.44 87.184 16.696 87.76 16.872 88.224H10.856V88.944H23.256V88.224ZM15 91.744C14.856 91.04 14.392 89.936 13.848 89.136L13.144 89.328C13.656 90.128 14.104 91.232 14.248 91.984L15 91.744ZM21.096 95.072V97.088H13.032V95.072H21.096ZM13.032 99.856V97.76H21.096V99.856H13.032ZM12.264 101.184H13.032V100.544H21.096V101.136H21.88V94.384H12.264V101.184ZM19.656 92.016C20.104 91.232 20.632 90.192 21.032 89.328L20.232 89.088C19.912 89.952 19.32 91.2 18.84 92.016H9.944V92.736H24.072V92.016H19.656ZM39.96 94.496C39.816 93.872 39.464 92.928 39.176 92.16L38.584 92.384C38.712 92.704 38.856 93.056 38.984 93.44L36.696 93.712C37.752 92.448 38.824 90.768 39.736 89.104L39.112 88.784C38.872 89.312 38.568 89.84 38.28 90.352L36.376 90.576C37 89.584 37.656 88.256 38.136 86.976L37.464 86.72C37.032 88.112 36.216 89.632 35.992 90.016C35.768 90.4 35.56 90.672 35.368 90.72C35.432 90.896 35.544 91.248 35.576 91.392C35.768 91.312 36.088 91.232 37.912 90.976C37.32 91.92 36.76 92.704 36.52 92.992C36.136 93.488 35.832 93.84 35.56 93.888C35.656 94.064 35.768 94.416 35.8 94.576C36.024 94.448 36.408 94.368 39.16 93.984C39.256 94.256 39.304 94.512 39.352 94.72L39.96 94.496ZM34.28 90.928H31.72V88.928H34.28V90.928ZM34.28 93.568H31.72V91.552H34.28V93.568ZM35 88.288H32.968C33.112 87.84 33.272 87.28 33.448 86.784L32.696 86.624C32.632 87.104 32.472 87.76 32.312 88.288H31.016V94.224H35V88.288ZM30.6 94.416C30.504 93.728 30.248 92.672 29.992 91.856L29.416 92C29.512 92.384 29.608 92.784 29.704 93.2L27.368 93.504C28.456 92.24 29.528 90.576 30.424 88.912L29.816 88.592C29.56 89.152 29.256 89.696 28.92 90.224L27.256 90.4C27.88 89.472 28.488 88.224 28.968 87.008L28.312 86.752C27.912 88.064 27.112 89.504 26.872 89.872C26.648 90.224 26.456 90.496 26.264 90.528C26.344 90.704 26.44 91.056 26.472 91.2C26.648 91.12 26.968 91.04 28.568 90.832C27.976 91.744 27.416 92.496 27.208 92.784C26.808 93.28 26.504 93.632 26.248 93.696C26.344 93.872 26.456 94.208 26.456 94.352C26.696 94.24 27.08 94.144 29.832 93.76C29.896 94.048 29.944 94.352 29.976 94.592L30.6 94.416ZM30.952 96.992C29.8 98.272 27.56 99.424 25.672 99.952C25.864 100.096 26.088 100.384 26.216 100.592C28.088 99.968 30.376 98.688 31.608 97.296L30.952 96.992ZM34.52 97.456C36.296 98.384 38.472 99.744 39.56 100.688L40.024 100.048C38.92 99.152 36.728 97.808 34.968 96.912L34.52 97.456ZM33.352 95.744V94.656H32.584V95.744H25.912V96.432H32.584V101.168H33.352V96.432H40.072V95.744H33.352ZM41.88 92.416C42.072 92.336 42.408 92.256 44.328 92C43.672 93.024 43.096 93.84 42.824 94.16C42.376 94.752 42.008 95.184 41.72 95.232C41.816 95.424 41.928 95.808 41.976 95.968C42.248 95.84 42.68 95.728 46.488 95.136C46.584 95.424 46.664 95.712 46.712 95.952L47.368 95.712C47.192 94.928 46.712 93.6 46.264 92.592L45.64 92.784C45.88 93.328 46.12 93.936 46.312 94.528L42.984 95.008C44.264 93.472 45.528 91.472 46.616 89.488L45.96 89.136C45.592 89.888 45.176 90.64 44.76 91.328L42.744 91.536C43.672 90.272 44.6 88.608 45.336 86.992L44.648 86.688C43.976 88.448 42.824 90.32 42.472 90.8C42.152 91.28 41.88 91.648 41.64 91.696C41.72 91.888 41.832 92.256 41.864 92.432C41.864 92.416 41.864 92.4 41.88 92.368V92.416ZM42.456 96.768C42.264 98.08 41.992 99.504 41.624 100.512C41.784 100.576 42.12 100.704 42.264 100.752C42.584 99.776 42.904 98.256 43.112 96.896L42.456 96.768ZM44.072 96.848C44.264 97.888 44.424 99.264 44.472 100.176L45.096 100.032C45.048 99.136 44.872 97.776 44.696 96.72L44.072 96.848ZM45.8 96.56C46.088 97.344 46.408 98.368 46.536 99.072L47.16 98.816C47.016 98.16 46.68 97.136 46.392 96.336L45.8 96.56ZM54.52 90.32V92.208H48.552V90.32H54.52ZM55.224 92.88V89.664H48.552V88.416C50.872 88.16 53.48 87.776 55.16 87.264L54.504 86.72C53.032 87.2 50.2 87.616 47.832 87.872V92.592C47.832 94.992 47.736 98.384 46.744 100.832C46.936 100.896 47.256 101.088 47.4 101.2C48.376 98.784 48.536 95.328 48.552 92.88H55.224ZM53.496 97.056V94.864H54.904V97.056H53.496ZM51.528 97.056V94.864H52.92V97.056H51.528ZM49.592 97.056V94.864H50.952V97.056H49.592ZM55.56 94.192H48.936V101.184H49.592V97.728H50.952V100.944H51.528V97.728H52.92V100.864H53.496V97.728H54.904V100.288C54.904 100.416 54.872 100.448 54.744 100.448C54.632 100.464 54.296 100.464 53.912 100.448C53.992 100.624 54.104 100.88 54.12 101.04C54.68 101.04 55.032 101.04 55.272 100.928C55.496 100.8 55.56 100.656 55.56 100.304V94.192ZM67.256 99.36V95.312H70.6V99.36H67.256ZM59.448 95.312H62.6V99.36H59.448V95.312ZM62.6 90.64V94.576H59.448V90.64H62.6ZM66.504 95.312V99.36H63.352V95.312H66.504ZM66.504 90.64V94.576H63.352V90.64H66.504ZM70.6 90.64V94.576H67.256V90.64H70.6ZM67.256 89.888V86.848H66.504V89.888H63.352V86.848H62.6V89.888H58.712V101.2H59.448V100.112H70.6V101.104H71.352V89.888H67.256ZM73.16 102.832H73.912L79.192 87.424H78.424L73.16 102.832ZM81.8889 97.296H85.7289V96.64H81.8889V97.296ZM84.5289 90.448H83.1529V88.096H84.5289V90.448ZM86.5129 94.08C86.4809 94.096 86.4169 94.096 86.2569 94.096H85.4089C85.1689 94.096 85.1369 94.064 85.1369 93.872V91.152H86.5129V94.08ZM81.1209 99.248V91.152H82.5769V92.368C82.5769 93.248 82.3369 94.352 81.1209 95.184C81.2649 95.264 81.4729 95.456 81.5689 95.584C82.8649 94.672 83.1689 93.392 83.1689 92.368V91.152H84.5449V93.872C84.5449 94.576 84.7369 94.688 85.3929 94.688H86.3689H86.5129V99.248H81.1209ZM80.1129 88.096H82.4809V90.448H80.4489V101.12H81.1209V99.92H86.5129V100.912H87.1849V90.448H85.2009V88.096H87.6009V87.408H80.1129V88.096ZM90.1129 100.304C89.3289 100.304 89.1689 100.176 89.1689 99.632V93.456H94.1129V87.392H88.3529V88.128H93.3769V92.704H88.4169V99.616C88.4169 100.768 88.8009 101.024 90.0809 101.024H93.0089C94.3209 101.024 94.5769 100.352 94.6889 97.808C94.4649 97.76 94.1609 97.616 93.9529 97.488C93.8889 99.872 93.7609 100.304 92.9609 100.304H90.1129ZM108.577 89.888H102.849V88.048H108.577V89.888ZM108.577 92.384H102.849V90.528H108.577V92.384ZM109.345 87.392H102.113V93.056H109.345V87.392ZM99.7609 88.992V96.16H97.4249V88.992H99.7609ZM100.497 88.272H96.7049V98.496H97.4249V96.896H100.497V88.272ZM102.305 99.792V97.696H109.185V99.792H102.305ZM109.185 95.04V97.008H102.305V95.04H109.185ZM101.553 94.352V101.152H102.305V100.48H109.185V101.088H109.953V94.352H101.553ZM125.377 86.848H124.673V93.6C124.673 93.808 124.609 93.872 124.369 93.872C124.129 93.888 123.361 93.904 122.385 93.872C122.513 94.096 122.625 94.352 122.673 94.56C123.793 94.56 124.497 94.544 124.881 94.432C125.249 94.304 125.377 94.112 125.377 93.6V86.848ZM122.401 87.504H121.681V92.72H122.401V87.504ZM115.985 91.328H113.121V94.224H113.793V91.936H115.985V94.688H116.689V91.936H119.057V93.376C119.057 93.504 119.025 93.552 118.865 93.568C118.705 93.568 118.289 93.568 117.681 93.552C117.777 93.744 117.873 93.936 117.905 94.128C118.641 94.128 119.105 94.128 119.393 94.016C119.681 93.904 119.729 93.728 119.729 93.376V91.328H116.689V90.32H120.257V89.696H116.689V88.496H119.617V87.888H116.689V86.688H115.985V87.888H114.145C114.273 87.552 114.417 87.232 114.529 86.896L113.857 86.736C113.569 87.648 113.137 88.576 112.561 89.264C112.737 89.328 113.057 89.472 113.185 89.584C113.425 89.264 113.633 88.912 113.841 88.496H115.985V89.696H112.193V90.32H115.985V91.328ZM124.817 96.448C124.065 96.992 122.769 97.712 121.729 98.208C121.025 97.616 120.449 96.912 120.033 96.112H126.353V95.44H120.081C119.905 95.056 119.617 94.528 119.361 94.144L118.641 94.336C118.849 94.672 119.073 95.088 119.233 95.44H112.273V96.112H118.305C116.689 97.216 114.129 98.16 112.001 98.608C112.161 98.752 112.369 99.024 112.481 99.2C113.409 98.976 114.417 98.656 115.425 98.256V99.424C115.425 100.08 115.009 100.352 114.769 100.48C114.881 100.624 115.057 100.944 115.105 101.136C115.393 100.96 115.841 100.832 120.289 99.744C120.289 99.616 120.273 99.36 120.289 99.152L116.177 100.048V97.952C117.361 97.424 118.481 96.816 119.313 96.16C120.513 98.688 122.881 100.304 126.049 100.96C126.161 100.752 126.353 100.464 126.513 100.32C124.849 100.016 123.409 99.44 122.241 98.624C123.297 98.128 124.497 97.488 125.425 96.848L124.817 96.448ZM132.193 86.736C131.233 89.248 129.681 91.728 128.033 93.312C128.193 93.472 128.433 93.856 128.513 94.016C129.185 93.344 129.825 92.544 130.433 91.68V101.152H131.217V90.448C131.873 89.344 132.449 88.16 132.929 86.96L132.193 86.736ZM142.545 90.128V89.392H135.553C135.921 88.656 136.241 87.872 136.529 87.088L135.809 86.896C134.977 89.264 133.665 91.6 132.209 93.12C132.369 93.232 132.689 93.504 132.817 93.616C133.665 92.672 134.481 91.472 135.201 90.128H136.593V101.168H137.361V97.072H142.449V96.336H137.361V93.536H142.225V92.816H137.361V90.128H142.545ZM150.945 86.752C150.913 89.04 150.881 97.232 144.145 100.528C144.337 100.672 144.593 100.896 144.737 101.088C149.073 98.896 150.721 94.736 151.345 91.328C152.017 94.32 153.633 99.024 158.033 101.04C158.161 100.832 158.385 100.576 158.593 100.416C152.833 97.856 151.889 90.544 151.665 88.944C151.745 88.032 151.745 87.264 151.761 86.752H150.945Z" fill="white"/>
<path d="M240.5 38.1299L9.23999 38.1299V39.0199L240.5 39.0199V38.1299Z" fill="white"/>
<path d="M244 35H229V42H244V35Z" fill="#00FF63"/>
</svg>
