<svg width="244" height="106" viewBox="0 0 244 106" fill="none" xmlns="http://www.w3.org/2000/svg">
<path d="M15.454 15.4H16.462V12.222H20.886V14.476H21.908V11.48H16.462V10.584H21.264V9.842H10.708V10.584H15.454V11.48H10.106V14.476H11.1V12.222H15.454V15.4ZM20.55 14.77C19.794 14.504 18.366 14.21 17.302 14.084L17.05 14.714C18.142 14.882 19.556 15.218 20.312 15.484L20.55 14.77ZM19.878 12.432C19.206 12.67 18.03 13.104 17.232 13.272L17.596 13.818C18.394 13.65 19.528 13.356 20.326 13.02L19.878 12.432ZM11.702 13.062C12.626 13.244 13.788 13.58 14.404 13.874L14.712 13.23C14.082 12.964 12.92 12.642 12.024 12.502L11.702 13.062ZM11.66 15.442C12.57 15.274 13.634 15.05 14.712 14.826L14.67 14.168C13.438 14.364 12.234 14.546 11.352 14.63L11.66 15.442ZM12.318 19.292V18.326H15.412V19.292H12.318ZM15.412 16.674V17.626H12.318V16.674H15.412ZM19.724 17.626H16.42V16.674H19.724V17.626ZM16.42 19.292V18.326H19.724V19.292H16.42ZM17.456 21.042C16.588 21.042 16.42 20.958 16.42 20.482V20.048H20.746V15.918H11.31V20.776H12.318V20.048H15.412V20.482C15.412 21.602 15.86 21.882 17.414 21.882H20.634C21.964 21.882 22.272 21.448 22.426 19.754C22.132 19.698 21.754 19.572 21.516 19.418C21.446 20.804 21.306 21.042 20.564 21.042H17.456ZM34.732 9.576C33.934 10.696 32.506 11.858 31.274 12.544C31.54 12.726 31.848 13.048 32.03 13.258C33.318 12.474 34.76 11.228 35.698 9.982L34.732 9.576ZM35.194 13.328C34.312 14.532 32.688 15.764 31.288 16.45C31.554 16.646 31.848 16.968 32.016 17.192C33.486 16.38 35.124 15.078 36.132 13.72L35.194 13.328ZM29.79 11.326H25.548V10.5H29.79V11.326ZM29.79 12.866H25.548V12.012H29.79V12.866ZM30.812 9.786H24.554V13.566H30.812V9.786ZM31.288 14.462H28.236C28.11 14.168 27.928 13.846 27.76 13.594L26.808 13.832C26.906 14.014 27.018 14.238 27.13 14.462H23.868V15.302H31.288V14.462ZM25.198 18.97C24.89 19.698 24.386 20.44 23.826 20.958C24.05 21.098 24.4 21.392 24.568 21.532C25.128 20.958 25.73 20.062 26.08 19.236L25.198 18.97ZM25.646 16.744H29.636V17.92H25.646V16.744ZM30.658 18.662V16.002H24.68V18.662H27.116V20.958C27.116 21.084 27.088 21.14 26.92 21.14C26.78 21.154 26.304 21.154 25.73 21.14C25.87 21.392 25.996 21.728 26.052 21.994C26.822 21.994 27.354 21.994 27.69 21.84C28.04 21.7 28.138 21.476 28.138 20.972V18.662H30.658ZM28.852 19.306C29.328 19.95 29.86 20.832 30.112 21.378L30.896 20.972C30.644 20.426 30.084 19.586 29.58 18.956L28.852 19.306ZM35.474 17.332C34.508 18.942 32.702 20.384 30.868 21.196C31.12 21.406 31.428 21.742 31.596 21.994C33.514 21.042 35.348 19.488 36.426 17.71L35.474 17.332ZM40.2849 23.506H41.2229L45.4089 9.898H44.4849L40.2849 23.506Z" fill="#00FF63"/>
<path d="M57.6295 6.006C56.6215 8.742 54.9475 11.424 53.1835 13.17C53.4355 13.458 53.8135 14.142 53.9575 14.466C54.5515 13.836 55.1635 13.116 55.7215 12.306V22.35H57.0175V10.29C57.7375 9.048 58.3675 7.716 58.8895 6.384L57.6295 6.006ZM63.4255 11.676H58.9975V12.918H69.0235V11.676H64.7755V9.516H69.8515V8.274H64.7755V6.024H63.4255V8.274H58.1875V9.516H63.4255V11.676ZM59.8975 17.364C60.7075 18.318 61.6795 19.65 62.1295 20.496L63.2815 19.812C62.8315 18.984 61.8055 17.688 60.9955 16.77L59.8975 17.364ZM69.8695 14.988H67.3675V13.422H66.0175V14.988H58.4755V16.212H66.0175V20.802C66.0175 21.072 65.9455 21.144 65.6395 21.162C65.3335 21.18 64.3075 21.18 63.1915 21.144C63.3715 21.522 63.5875 22.044 63.6415 22.404C65.0995 22.404 66.0355 22.404 66.6115 22.206C67.1875 21.99 67.3675 21.63 67.3675 20.838V16.212H69.8695V14.988ZM76.3315 8.238C75.9895 7.626 75.2875 6.672 74.6575 5.952L73.6315 6.564C74.2255 7.284 74.9275 8.292 75.2515 8.922L76.3315 8.238ZM77.2135 8.976L76.9795 9.03H71.7775V10.254H76.3135C75.2155 12.468 73.2715 14.628 71.3995 15.816C71.5975 16.05 71.8855 16.716 71.9935 17.094C72.7315 16.572 73.5055 15.888 74.2435 15.132V22.35H75.4675V14.628C76.1335 15.366 76.9435 16.356 77.3215 16.878L78.0955 15.798C77.7535 15.402 76.4395 14.034 75.7375 13.368C76.6015 12.162 77.3575 10.848 77.8975 9.48L77.2135 8.976ZM83.5315 16.194V13.674H86.0875V16.194H83.5315ZM79.6975 16.194V13.674H82.2175V16.194H79.6975ZM82.2175 9.984V12.468H79.6975V9.984H82.2175ZM86.0875 9.984V12.468H83.5315V9.984H86.0875ZM83.5315 8.778V5.934H82.2175V8.778H78.4735V18.246H79.6975V17.4H82.2175V22.35H83.5315V17.4H86.0875V18.12H87.3655V8.778H83.5315ZM103.062 13.692L102.846 13.764H91.9555V15.06H101.514C100.416 16.194 98.9935 17.598 97.6975 18.822C96.8155 18.174 95.8795 17.562 95.0695 17.058L94.1515 18.012C96.0595 19.254 98.5435 21.126 99.6775 22.332L100.668 21.216C100.218 20.766 99.5515 20.226 98.8135 19.668C100.614 17.904 102.666 15.816 104.07 14.304L103.062 13.692ZM94.2595 11.064V12.306H100.992V11.064H94.2595ZM97.5355 5.826C95.7715 8.22 92.5855 10.596 89.5795 11.928C89.9395 12.27 90.3355 12.72 90.5515 13.062C93.0715 11.82 95.6815 9.912 97.6255 7.824C99.5875 9.858 102.54 11.928 104.934 13.008C105.168 12.648 105.618 12.072 105.942 11.766C103.404 10.794 100.272 8.796 98.4535 6.87C98.5615 6.744 98.6335 6.6 98.7415 6.474L97.5355 5.826Z" fill="white"/>
<path d="M10.638 64.16L14.508 56.096L13.536 55.772L9.54 64.16L13.536 72.548L14.508 72.224L10.638 64.16ZM13.482 64.16L17.352 56.096L16.38 55.772L12.384 64.16L16.38 72.548L17.352 72.224L13.482 64.16ZM29.358 64.196V67.598H24.642V64.196H29.358ZM30.618 68.75V63.062H23.4V70.046H24.642V68.75H30.618ZM31.572 60.02H22.5V61.19H31.572V60.02ZM34.398 56.87H19.638V72.422H20.934V58.148H33.084V70.694C33.084 70.982 32.976 71.09 32.652 71.108C32.346 71.126 31.302 71.126 30.168 71.09C30.384 71.45 30.6 72.026 30.654 72.404C32.202 72.404 33.102 72.368 33.66 72.152C34.2 71.918 34.398 71.522 34.398 70.694V56.87ZM41.436 58.058C40.788 57.428 39.492 56.654 38.448 56.186L37.692 57.158C38.754 57.68 40.032 58.508 40.644 59.138L41.436 58.058ZM40.644 62.684C39.96 62.108 38.592 61.352 37.476 60.902L36.738 61.892C37.872 62.378 39.222 63.188 39.87 63.8L40.644 62.684ZM39.816 65.546C38.952 67.598 37.818 69.956 36.99 71.36L38.178 72.134C39.06 70.46 40.104 68.228 40.878 66.32L39.816 65.546ZM43.308 58.904H53.046V57.752H48.654C48.492 57.194 48.168 56.438 47.826 55.88L46.62 56.168C46.872 56.636 47.106 57.23 47.268 57.752H42.03V62.594C42.03 65.276 41.85 69.038 40.05 71.684C40.392 71.81 40.932 72.116 41.184 72.35C43.038 69.578 43.308 65.456 43.308 62.594V58.904ZM49.806 61.946V63.638H46.494V61.946H49.806ZM51.048 64.7V61.946H52.866V60.848H51.048V59.39H49.806V60.848H46.494V59.39H45.306V60.848H43.452V61.946H45.306V64.7H51.048ZM50.49 66.824C49.932 67.76 49.158 68.534 48.24 69.164C47.34 68.516 46.638 67.724 46.098 66.824H50.49ZM51.426 65.672L51.192 65.726H43.776V66.824H44.802C45.36 68.012 46.152 69.02 47.142 69.848C45.864 70.514 44.37 70.982 42.876 71.252C43.11 71.522 43.398 72.026 43.524 72.35C45.162 71.972 46.8 71.432 48.186 70.604C49.41 71.378 50.868 71.936 52.506 72.296C52.686 71.954 53.046 71.468 53.316 71.18C51.804 70.928 50.454 70.478 49.32 69.866C50.58 68.894 51.606 67.634 52.236 66.05L51.426 65.672ZM58.464 72.548L62.46 64.16L58.464 55.772L57.492 56.096L61.362 64.16L57.492 72.224L58.464 72.548ZM55.62 72.548L59.616 64.16L55.62 55.772L54.648 56.096L58.518 64.16L54.648 72.224L55.62 72.548Z" fill="#00FF63"/>
<path opacity="0.8" d="M13.32 88.64C13.08 88.064 12.6 87.248 12.136 86.608L11.576 86.944C12.008 87.568 12.504 88.448 12.728 89.024L13.32 88.64ZM14.136 96.304V99.472H11.16V96.304H14.136ZM14.84 95.616H10.472V100.96H11.16V100.16H14.84V95.616ZM10.504 94.208H14.808V93.536H10.504V94.208ZM14.808 91.472H10.504V92.128H14.808V91.472ZM9.88 90.112H15.416V89.424H9.88V90.112ZM20.344 93.04V96.656H17.272V93.04H20.344ZM21.048 97.344V92.336H16.584V98.48H17.272V97.344H21.048ZM21.96 90.016H15.88V90.704H21.96V90.016ZM23.672 87.536H15.48V88.256H22.952V100C22.952 100.288 22.856 100.368 22.6 100.384C22.312 100.4 21.368 100.416 20.328 100.384C20.456 100.608 20.568 100.96 20.616 101.168C21.88 101.168 22.68 101.168 23.112 101.024C23.512 100.88 23.672 100.624 23.672 100.016V87.536ZM35.256 99.36V95.312H38.6V99.36H35.256ZM27.448 95.312H30.6V99.36H27.448V95.312ZM30.6 90.64V94.576H27.448V90.64H30.6ZM34.504 95.312V99.36H31.352V95.312H34.504ZM34.504 90.64V94.576H31.352V90.64H34.504ZM38.6 90.64V94.576H35.256V90.64H38.6ZM35.256 89.888V86.848H34.504V89.888H31.352V86.848H30.6V89.888H26.712V101.2H27.448V100.112H38.6V101.104H39.352V89.888H35.256ZM48.6 92.208V93.456H43.864V92.208H48.6ZM43.8 95.408C43.848 94.928 43.864 94.464 43.864 94.048H48.6V95.408H43.8ZM49.32 96.048V91.568H43.144V93.904C43.144 95.696 42.936 98.176 41.688 100.048C41.864 100.128 42.184 100.32 42.312 100.448C43.176 99.168 43.56 97.552 43.752 96.048H49.32ZM44.648 90V90.592H48.088V90H44.648ZM48.984 97.584V99.616H44.584V97.584H48.984ZM43.88 101.04H44.584V100.272H48.984V101.024H49.704V96.944H43.88V101.04ZM46.056 86.88C45.128 88.544 43.448 89.92 41.704 90.8C41.864 90.976 42.088 91.312 42.168 91.472C43.624 90.64 45.112 89.456 46.152 88.032C47.448 88.848 49 89.936 49.8 90.624L50.216 90.032C49.4 89.344 47.832 88.288 46.52 87.504C46.6 87.376 46.68 87.232 46.76 87.12L46.056 86.88ZM52.2 88.528H51.464V97.248H52.2V88.528ZM54.552 86.768V100.016C54.552 100.304 54.44 100.384 54.168 100.4C53.912 100.416 53.016 100.416 51.976 100.4C52.088 100.624 52.2 100.944 52.248 101.152C53.576 101.152 54.312 101.152 54.728 101.008C55.112 100.864 55.304 100.624 55.304 100.016V86.768H54.552ZM61.896 86.736C60.936 89.248 59.384 91.728 57.736 93.312C57.896 93.472 58.136 93.856 58.216 94.016C58.888 93.344 59.528 92.544 60.136 91.68V101.152H60.92V90.448C61.576 89.344 62.152 88.16 62.632 86.96L61.896 86.736ZM72.248 90.128V89.392H65.256C65.624 88.656 65.944 87.872 66.232 87.088L65.512 86.896C64.68 89.264 63.368 91.6 61.912 93.12C62.072 93.232 62.392 93.504 62.52 93.616C63.368 92.672 64.184 91.472 64.904 90.128H66.296V101.168H67.064V97.072H72.152V96.336H67.064V93.536H71.928V92.816H67.064V90.128H72.248Z" fill="white"/>
<path d="M240.5 38.1299L9.24023 38.1299V39.0199L240.5 39.0199V38.1299Z" fill="white"/>
<path d="M244 35H229V42H244V35Z" fill="#00FF63"/>
</svg>
