<svg width="32" height="35" viewBox="0 0 32 35" fill="none" xmlns="http://www.w3.org/2000/svg">
<path d="M28.9039 12.1357L9.28835 0.828286C8.34704 0.285681 7.27927 1.93893e-05 6.19234 9.87014e-10C5.10542 -1.93873e-05 4.03764 0.285606 3.09631 0.828177C2.15499 1.37075 1.37328 2.15115 0.829767 3.09094C0.286254 4.03073 7.76663e-05 5.09679 0 6.182V28.7968C7.76663e-05 29.882 0.286254 30.948 0.829767 31.8878C1.37328 32.8276 2.15499 33.608 3.09631 34.1506C4.03764 34.6932 5.10542 34.9788 6.19234 34.9788C7.27927 34.9788 8.34704 34.6931 9.28835 34.1505L28.9039 22.8431C29.845 22.3004 30.6265 21.52 31.1698 20.5802C31.7132 19.6405 31.9992 18.5745 31.9992 17.4894C31.9992 16.4043 31.7132 15.3383 31.1698 14.3985C30.6265 13.4588 29.845 12.6784 28.9039 12.1357Z" fill="white"/>
</svg>
