<svg width="244" height="106" viewBox="0 0 244 106" fill="none" xmlns="http://www.w3.org/2000/svg">
<path d="M22.25 12.46C22.082 13.398 21.872 14.392 21.662 15.05L22.488 15.288C22.824 14.392 23.146 12.936 23.37 11.69L22.684 11.48L22.516 11.522H19.38C19.548 10.864 19.688 10.164 19.814 9.45L18.82 9.282C18.512 11.354 17.924 13.37 17.014 14.658C17.252 14.784 17.686 15.036 17.882 15.176C18.372 14.448 18.778 13.51 19.114 12.46H22.25ZM13.948 18.046V19.488H12.226V18.046H13.948ZM14.788 20.258V17.276H11.344V20.86H12.226V20.258H14.788ZM17.98 16.394V15.47H16.636V10.878H17.672V9.982H10.77V10.878H15.698V15.47H10.616V16.394H15.782V21.014C15.782 21.168 15.74 21.224 15.558 21.224C15.376 21.238 14.788 21.238 14.158 21.224C14.284 21.448 14.396 21.77 14.452 22.008C15.334 22.008 15.908 21.994 16.258 21.854C16.608 21.728 16.72 21.532 16.72 21.028V16.394H17.98ZM13.906 13.832H12.268V12.446H13.906V13.832ZM11.484 11.704V14.574H14.746V11.704H11.484ZM20.696 13.3H19.744V14.252C19.744 16.226 19.52 19.166 16.874 21.392C17.084 21.574 17.42 21.91 17.574 22.134C19.114 20.804 19.912 19.25 20.304 17.738C20.864 19.544 21.676 20.874 23.02 22.092C23.146 21.812 23.44 21.504 23.706 21.308C21.984 19.866 21.172 18.186 20.668 15.386C20.682 14.994 20.696 14.616 20.696 14.252V13.3ZM37.286 16.492H31.546V14.224H36.502V13.23H31.546V10.962C33.198 10.766 34.724 10.5 35.914 10.136L35.13 9.31C33.03 9.968 28.97 10.332 25.666 10.486C25.764 10.724 25.89 11.13 25.932 11.41C27.374 11.34 28.956 11.242 30.496 11.074V13.23H25.68V14.224H30.496V16.492H24.742V17.514H30.496V20.608C30.496 20.902 30.37 21 30.062 21C29.74 21.014 28.648 21.028 27.472 20.986C27.64 21.266 27.836 21.728 27.92 22.022C29.39 22.036 30.286 22.008 30.804 21.84C31.322 21.672 31.546 21.364 31.546 20.622V17.514H37.286V16.492ZM41.2849 23.506H42.2229L46.4089 9.898H45.4849L41.2849 23.506Z" fill="#00FF63"/>
<path d="M56.313 15.636L56.961 13.62C57.429 12.126 57.861 10.704 58.275 9.156H58.347C58.779 10.686 59.193 12.126 59.679 13.62L60.309 15.636H56.313ZM61.983 21H63.747L59.265 7.806H57.411L52.929 21H54.621L55.899 16.968H60.723L61.983 21ZM65.4646 21H67.1026V13.908C68.0926 12.918 68.7766 12.414 69.7846 12.414C71.0806 12.414 71.6386 13.188 71.6386 15.024V21H73.2766V14.808C73.2766 12.306 72.3406 10.974 70.2886 10.974C68.9566 10.974 67.9486 11.712 67.0126 12.63H66.9586L66.8146 11.226H65.4646V21ZM76.4685 21H78.1065V11.226H76.4685V21ZM77.2965 9.21C77.9445 9.21 78.4305 8.76 78.4305 8.148C78.4305 7.482 77.9445 7.086 77.2965 7.086C76.6485 7.086 76.1625 7.482 76.1625 8.148C76.1625 8.76 76.6485 9.21 77.2965 9.21ZM84.5035 21.234C85.0975 21.234 85.7455 21.054 86.3035 20.874L85.9795 19.65C85.6555 19.776 85.2055 19.902 84.8635 19.902C83.7295 19.902 83.3515 19.218 83.3515 18.012V12.558H85.9975V11.226H83.3515V8.49H81.9835L81.7855 11.226L80.2555 11.316V12.558H81.7135V17.976C81.7135 19.938 82.4155 21.234 84.5035 21.234ZM90.0212 21.234C91.2272 21.234 92.3252 20.604 93.2612 19.83H93.3152L93.4592 21H94.8092V14.988C94.8092 12.576 93.8012 10.974 91.4252 10.974C89.8592 10.974 88.4732 11.676 87.5732 12.252L88.2212 13.386C88.9952 12.864 90.0212 12.342 91.1552 12.342C92.7572 12.342 93.1712 13.548 93.1712 14.808C89.0132 15.276 87.1592 16.338 87.1592 18.462C87.1592 20.226 88.3832 21.234 90.0212 21.234ZM90.4892 19.92C89.5172 19.92 88.7612 19.47 88.7612 18.354C88.7612 17.094 89.8772 16.284 93.1712 15.888V18.624C92.2172 19.47 91.4432 19.92 90.4892 19.92Z" fill="white"/>
<path d="M10.638 64.16L14.508 56.096L13.536 55.772L9.54 64.16L13.536 72.548L14.508 72.224L10.638 64.16ZM13.482 64.16L17.352 56.096L16.38 55.772L12.384 64.16L16.38 72.548L17.352 72.224L13.482 64.16ZM23.886 70.208V66.122H31.878V70.208H23.886ZM31.176 58.958C30.15 60.47 28.656 61.802 26.928 62.882C26.046 62.036 24.534 60.902 23.31 60.038C23.724 59.678 24.138 59.336 24.516 58.958H31.176ZM33.246 64.88H26.1C29.088 63.296 31.68 61.082 33.156 58.22L32.256 57.662L32.04 57.734H25.668C26.118 57.23 26.496 56.708 26.838 56.204L25.344 55.88C24.264 57.59 22.23 59.588 19.332 60.992C19.62 61.19 20.052 61.694 20.25 62C20.97 61.64 21.636 61.226 22.266 60.794C23.454 61.676 24.822 62.756 25.686 63.62C23.562 64.772 21.186 65.618 18.9 66.086C19.17 66.374 19.476 66.95 19.584 67.31C20.574 67.076 21.582 66.788 22.572 66.446V72.368H23.886V71.432H31.878V72.368H33.246V64.88ZM38.574 72.188C39.78 71.252 40.374 69.65 40.752 68.156L39.618 67.796C39.294 69.2 38.628 70.676 37.53 71.504L38.574 72.188ZM41.94 68.318C42.246 69.38 42.426 70.73 42.372 71.612L43.56 71.45C43.56 70.586 43.38 69.218 43.038 68.174L41.94 68.318ZM44.676 68.12C45.108 69.056 45.486 70.28 45.612 71.054L46.728 70.766C46.566 69.974 46.188 68.768 45.72 67.868L44.676 68.12ZM50.076 63.476C49.95 64.214 49.824 64.952 49.698 65.564H41.868C42.534 64.916 43.128 64.214 43.704 63.476H50.076ZM48.618 60.272C48.492 60.992 48.348 61.73 48.186 62.324H44.514C44.964 61.658 45.378 60.974 45.756 60.272H48.618ZM52.74 65.564H50.922C51.12 64.61 51.318 63.368 51.498 62.324H49.428C49.644 61.388 49.86 60.146 50.04 59.084H46.35C46.782 58.184 47.16 57.248 47.502 56.312L46.188 55.934C45.846 56.996 45.414 58.058 44.91 59.084H41.688L42.678 58.652C42.444 57.932 41.796 56.834 41.202 56.024L40.068 56.474C40.626 57.284 41.202 58.364 41.454 59.084H37.89V60.272H44.28C42.534 63.332 40.032 66.032 36.702 67.76C36.936 68.03 37.26 68.552 37.422 68.876C38.574 68.264 39.618 67.544 40.572 66.752H51.354C51.066 69.56 50.778 70.694 50.4 71.054C50.238 71.216 50.058 71.234 49.77 71.234C49.428 71.234 48.618 71.234 47.754 71.144C47.952 71.468 48.078 71.99 48.096 72.332C48.996 72.386 49.86 72.404 50.31 72.35C50.814 72.314 51.156 72.206 51.462 71.882C52.02 71.306 52.362 69.848 52.686 66.14L52.74 65.564ZM49.608 69.794C49.374 69.164 48.816 68.156 48.24 67.436L47.304 67.778C47.862 68.534 48.402 69.542 48.636 70.226L49.608 69.794ZM58.806 56.006C57.78 58.742 56.124 61.424 54.36 63.152C54.612 63.458 54.972 64.142 55.116 64.466C55.728 63.8 56.358 63.062 56.934 62.234V72.332H58.212V60.236C58.914 59.012 59.544 57.716 60.066 56.384L58.806 56.006ZM62.082 63.602C61.596 65.726 60.75 67.868 59.616 69.236C59.94 69.416 60.516 69.758 60.768 69.974C61.866 68.48 62.82 66.212 63.396 63.854L62.082 63.602ZM69.696 60.632C69.552 61.55 69.39 62.504 69.282 63.152L70.398 63.368C70.632 62.414 70.956 60.866 71.19 59.552L70.272 59.336L70.056 59.39H62.766C63.126 58.4 63.45 57.356 63.72 56.312L62.406 56.024C61.812 58.652 60.768 61.226 59.454 62.882C59.742 63.08 60.3 63.53 60.516 63.728C61.164 62.882 61.758 61.82 62.262 60.632H64.998V70.748C64.998 70.982 64.926 71.054 64.692 71.054C64.458 71.054 63.684 71.072 62.838 71.036C63.018 71.414 63.234 72.008 63.306 72.386C64.44 72.386 65.196 72.35 65.682 72.116C66.15 71.9 66.312 71.504 66.312 70.748V60.632H69.696ZM67.626 63.854C68.58 65.744 69.48 68.264 69.768 69.902L71.046 69.47C70.74 67.832 69.822 65.366 68.796 63.458L67.626 63.854ZM78.624 63.782H74.844V60.02H78.624V63.782ZM74.844 69.29V64.97H78.624V69.29H74.844ZM76.356 55.898C76.23 56.744 75.906 57.95 75.636 58.814H73.62V71.918H74.844V70.496H79.848V58.814H76.86C77.166 58.04 77.49 57.05 77.796 56.168L76.356 55.898ZM88.65 58.76H83.268C83.574 57.914 83.826 57.05 84.042 56.168L82.764 55.862C82.188 58.328 81.216 60.812 80.01 62.396C80.298 62.576 80.874 62.936 81.108 63.152C81.738 62.306 82.296 61.208 82.8 60.002H87.372C87.138 67.166 86.868 69.902 86.274 70.532C86.094 70.766 85.896 70.802 85.536 70.802C85.122 70.802 84.042 70.802 82.872 70.694C83.124 71.072 83.286 71.612 83.322 72.008C84.33 72.062 85.356 72.098 85.986 72.026C86.598 71.972 87.012 71.81 87.408 71.306C88.128 70.424 88.362 67.652 88.65 59.444V58.76ZM85.806 66.86C85.23 65.798 83.988 64.07 82.98 62.792L81.936 63.404C82.926 64.7 84.132 66.482 84.672 67.562L85.806 66.86ZM95.238 58.184C94.968 57.554 94.374 56.618 93.852 55.88L92.826 56.402C93.312 57.14 93.888 58.148 94.158 58.796L95.238 58.184ZM95.706 67.202V70.172H92.7V67.202H95.706ZM96.894 66.086H91.53V72.134H92.7V71.288H96.894V66.086ZM91.53 64.754H96.75V63.692H91.53V64.754ZM96.75 61.352H91.53V62.414H96.75V61.352ZM90.792 60.092H97.362V58.994H90.792V60.092ZM98.532 67.454C99.288 68.282 100.206 69.452 100.62 70.172L101.664 69.542C101.25 68.822 100.296 67.706 99.54 66.914L98.532 67.454ZM105.048 63.224H103.734V64.988H97.47V66.212H103.734V70.802C103.734 71.036 103.644 71.09 103.392 71.108C103.158 71.108 102.348 71.108 101.466 71.09C101.646 71.45 101.844 71.954 101.916 72.332C103.086 72.332 103.878 72.314 104.382 72.098C104.886 71.9 105.048 71.558 105.048 70.82V66.212H107.19V64.988H105.048V63.224ZM102.906 58.076V55.952H101.592V58.076H97.452V59.318H101.592V61.622H98.028V62.828H106.632V61.622H102.906V59.318H107.244V58.076H102.906ZM112.464 72.548L116.46 64.16L112.464 55.772L111.492 56.096L115.362 64.16L111.492 72.224L112.464 72.548ZM109.62 72.548L113.616 64.16L109.62 55.772L108.648 56.096L112.518 64.16L108.648 72.224L109.62 72.548ZM132.714 67.4C131.904 68.606 130.716 69.956 129.654 70.856C129.978 71.054 130.518 71.414 130.788 71.612C131.796 70.64 133.038 69.128 133.956 67.832L132.714 67.4ZM132.66 63.782H140.13V65.456H132.66V63.782ZM132.66 61.1H140.13V62.774H132.66V61.1ZM141.48 66.518V60.038H136.296C136.548 59.588 136.818 59.102 137.088 58.616L135.54 58.382C135.378 58.85 135.126 59.498 134.856 60.038H131.346V66.518H135.738V70.892C135.738 71.108 135.666 71.18 135.378 71.198C135.108 71.198 134.19 71.198 133.146 71.18C133.308 71.522 133.506 72.008 133.56 72.368C134.928 72.368 135.81 72.368 136.35 72.152C136.89 71.954 137.034 71.612 137.034 70.91V66.518H141.48ZM138.546 67.994C139.626 69.164 141.048 70.748 141.714 71.72L142.83 71C142.11 70.082 140.67 68.552 139.608 67.436L138.546 67.994ZM142.902 56.942H128.412V62.018C128.412 64.754 128.25 68.606 126.684 71.342C127.026 71.468 127.584 71.792 127.836 72.008C129.492 69.146 129.726 64.898 129.726 62.018V58.166H142.902V56.942ZM158.562 59.426H152.928V57.752H158.562V59.426ZM158.562 62.162H152.928V60.452H158.562V62.162ZM159.894 56.672H151.632V63.242H159.894V56.672ZM148.824 58.886V66.392H146.718V58.886H148.824ZM150.066 57.644H145.476V69.344H146.718V67.634H150.066V57.644ZM152.388 70.496V68.588H159.174V70.496H152.388ZM159.174 65.654V67.454H152.388V65.654H159.174ZM151.074 64.502V72.368H152.388V71.666H159.174V72.278H160.524V64.502H151.074ZM162.198 74.222H163.404L168.786 56.726H167.598L162.198 74.222ZM180.551 59.768H181.847V58.31H185.897V57.104H181.847V55.952H180.551V57.104H178.373V58.31H180.551V59.768ZM174.197 59.75H175.511V58.31H177.761V57.104H175.511V55.952H174.197V57.104H170.219V58.31H174.197V59.75ZM173.405 63.494H182.783V64.97H173.405V63.494ZM173.405 61.064H182.783V62.522H173.405V61.064ZM185.987 68.606V67.4H178.427C178.553 66.968 178.643 66.482 178.733 65.978H184.097V60.056H172.127V65.978H177.419C177.329 66.482 177.221 66.968 177.077 67.4H170.129V68.606H176.465C175.493 69.974 173.621 70.802 169.769 71.216C169.985 71.504 170.291 72.062 170.381 72.404C174.917 71.774 176.969 70.604 177.977 68.606H185.987ZM178.445 69.614C180.803 70.388 183.953 71.63 185.573 72.386L186.221 71.324C184.547 70.586 181.379 69.416 179.075 68.696L178.445 69.614ZM197.453 58.598C197.201 57.842 196.589 56.69 196.049 55.844L194.663 56.24C195.203 57.122 195.779 58.328 195.995 59.066L197.453 58.598ZM199.811 60.416C198.911 62.846 197.705 64.826 196.103 66.446C194.411 64.754 193.115 62.702 192.179 60.416H199.811ZM204.149 60.416V59.102H188.021V60.416H190.793C191.837 63.134 193.259 65.474 195.113 67.382C193.151 69.038 190.739 70.262 187.769 71.108C188.039 71.414 188.435 72.026 188.597 72.35C191.585 71.396 194.069 70.1 196.085 68.336C198.083 70.136 200.531 71.45 203.465 72.278C203.681 71.9 204.059 71.342 204.383 71.036C201.521 70.334 199.091 69.056 197.111 67.382C198.911 65.528 200.297 63.26 201.323 60.416H204.149ZM216.659 59.678H217.973V58.418H221.933V57.248H217.973V55.952H216.659V57.248H214.373V58.418H216.659V59.678ZM210.125 59.678H211.439V58.418H213.707V57.248H211.439V55.952H210.125V57.248H206.183V58.418H210.125V59.678ZM213.239 61.226V62.756H208.235V61.226H213.239ZM208.235 63.782H214.481V60.2H207.047V64.088C207.047 66.266 206.903 69.308 205.697 71.504C205.967 71.63 206.525 71.936 206.723 72.134C208.019 69.83 208.235 66.446 208.235 64.106V63.782ZM214.175 65.69V64.736H208.973V65.69H214.175ZM209.117 68.372C208.829 69.362 208.379 70.334 207.767 71.054C208.019 71.18 208.451 71.45 208.667 71.594C209.243 70.838 209.783 69.686 210.107 68.606L209.117 68.372ZM214.859 67.724V66.752H208.253V67.724H211.007V72.278H212.177V67.724H214.859ZM212.843 68.714C213.419 69.542 213.941 70.658 214.139 71.396L215.111 70.946C214.877 70.226 214.337 69.128 213.743 68.336L212.843 68.714ZM222.275 62.558H220.367V59.696H219.071V62.558H214.877V63.746H219.071V70.784C219.071 71.054 218.981 71.126 218.711 71.144C218.459 71.144 217.559 71.162 216.569 71.126C216.749 71.504 216.929 72.044 216.965 72.386C218.315 72.386 219.161 72.368 219.683 72.152C220.187 71.936 220.367 71.576 220.367 70.784V63.746H222.275V62.558ZM218.063 68.444C217.811 67.454 217.181 66.014 216.461 64.916L215.453 65.276C216.137 66.374 216.803 67.868 216.983 68.858L218.063 68.444Z" fill="#00FF63"/>
<path opacity="0.8" d="M23.24 90.096C23.064 91.2 22.776 92.416 22.456 93.216L23.112 93.408C23.512 92.448 23.88 90.848 24.136 89.52L23.624 89.344L23.48 89.392H19.48C19.704 88.56 19.912 87.68 20.056 86.784L19.288 86.656C18.904 89.072 18.216 91.392 17.128 92.896C17.32 92.976 17.656 93.184 17.8 93.296C18.392 92.432 18.872 91.344 19.256 90.096H23.24ZM13.768 96.416V98.416H11.4V96.416H13.768ZM14.44 99.056V95.776H10.712V99.824H11.4V99.056H14.44ZM17.912 94.56V93.856H16.376V88.272H17.72V87.568H9.944V88.272H15.656V93.856H9.784V94.56H15.752V100.288C15.752 100.464 15.704 100.512 15.496 100.528C15.288 100.528 14.632 100.528 13.832 100.512C13.928 100.704 14.04 100.96 14.088 101.152C15.096 101.152 15.688 101.152 16.024 101.024C16.36 100.912 16.472 100.736 16.472 100.272V94.56H17.912ZM13.816 91.968H11.544V90.048H13.816V91.968ZM10.904 89.424V92.576H14.488V89.424H10.904ZM21.096 91.184H20.36V92.224C20.36 94.592 20.136 98.032 16.952 100.72C17.128 100.848 17.4 101.088 17.528 101.264C19.512 99.552 20.408 97.552 20.792 95.68C21.4 98.064 22.328 99.728 24.008 101.232C24.12 101.008 24.344 100.768 24.552 100.624C22.504 98.88 21.592 96.912 21.064 93.536C21.096 93.072 21.096 92.64 21.096 92.224V91.184ZM38.28 89.888H32.552V88.048H38.28V89.888ZM38.28 92.384H32.552V90.528H38.28V92.384ZM39.048 87.392H31.816V93.056H39.048V87.392ZM29.464 88.992V96.16H27.128V88.992H29.464ZM30.2 88.272H26.408V98.496H27.128V96.896H30.2V88.272ZM32.008 99.792V97.696H38.888V99.792H32.008ZM38.888 95.04V97.008H32.008V95.04H38.888ZM31.256 94.352V101.152H32.008V100.48H38.888V101.088H39.656V94.352H31.256ZM54.44 92.752C55.16 92.752 55.864 92.736 56.12 92.672C56.072 92.512 56.04 92.208 56.008 91.984C55.672 92.048 54.872 92.064 54.408 92.064H49.848C49.144 92.064 48.952 91.856 48.952 91.248V89.504H55.56V88.816H48.952V86.768H48.184V91.232C48.184 92.368 48.584 92.752 49.864 92.752H54.44ZM47 93.632C46.328 93.856 45.64 94.064 44.984 94.272V90.784H46.968V90.032H44.984V86.688H44.232V90.032H41.8V90.784H44.232V94.528C43.208 94.832 42.264 95.12 41.544 95.328L41.816 96.08C42.52 95.856 43.352 95.584 44.232 95.312V100.144C44.232 100.384 44.136 100.448 43.928 100.448C43.736 100.464 43.048 100.464 42.264 100.448C42.376 100.656 42.504 100.976 42.552 101.168C43.576 101.168 44.152 101.152 44.504 101.024C44.84 100.896 44.984 100.672 44.984 100.128V95.056L47.112 94.368L47 93.632ZM54.76 95.04V96.992H48.872V95.04H54.76ZM48.872 99.712V97.664H54.76V99.712H48.872ZM48.136 101.168H48.872V100.4H54.76V101.088H55.512V94.352H48.136V101.168ZM69.768 91.232H63.736V90.368H69.768V91.232ZM69.768 92.64H63.736V91.76H69.768V92.64ZM69.768 94.064H63.736V93.168H69.768V94.064ZM63.016 89.824V94.608H70.52V89.824H66.488C66.664 89.536 66.824 89.2 66.968 88.864H71.784V88.224H68.968C69.256 87.824 69.56 87.376 69.848 86.928L69.112 86.704C68.904 87.136 68.504 87.776 68.184 88.224H65.128L65.512 88.064C65.384 87.664 64.984 87.072 64.616 86.688L63.992 86.928C64.312 87.312 64.664 87.824 64.808 88.224H61.944V88.864H66.216C66.088 89.184 65.928 89.52 65.784 89.824H63.016ZM60.088 88.256C59.928 87.84 59.592 87.184 59.352 86.672L58.712 86.864C58.936 87.392 59.24 88.08 59.416 88.512L60.088 88.256ZM60.568 98.544C61.48 99.072 62.552 99.888 63.032 100.48L63.592 99.952C63.08 99.36 61.992 98.576 61.08 98.08L60.568 98.544ZM68.728 96.192H67.992V97.232H57.992V97.888H67.992V100.144C67.992 100.368 67.928 100.432 67.64 100.432C67.384 100.448 66.472 100.464 65.32 100.432C65.432 100.64 65.544 100.896 65.592 101.104C66.968 101.104 67.768 101.104 68.2 100.976C68.632 100.848 68.728 100.64 68.728 100.144V97.888H71.928V97.232H68.728V96.192ZM61.128 91.04L61.016 91.088H59.64C60.088 90.368 60.6 89.472 61.048 88.688H57.864V89.344H59.928C59.48 90.176 58.936 91.072 58.504 91.728H60.664C60.328 92.64 59.816 93.632 59.24 94.288C58.808 94.592 58.36 95.056 57.912 95.568L58.392 96.16C59.016 95.312 59.64 94.592 60.056 94.592C60.376 94.592 60.84 94.992 61.416 95.344C62.456 95.92 63.896 96.016 65.752 96.016C67.4 96.016 70.52 95.936 72.04 95.84C72.056 95.648 72.168 95.28 72.264 95.088C70.568 95.248 67.944 95.36 65.768 95.36C63.992 95.36 62.6 95.296 61.624 94.768C60.968 94.384 60.632 94.064 60.264 93.984C60.792 93.2 61.256 92.16 61.576 91.232L61.128 91.04Z" fill="white"/>
<path d="M240.5 38.1299L9.23999 38.1299V39.0199L240.5 39.0199V38.1299Z" fill="white"/>
<path d="M244 35H229V42H244V35Z" fill="#00FF63"/>
</svg>
