<svg width="244" height="106" viewBox="0 0 244 106" fill="none" xmlns="http://www.w3.org/2000/svg">
<path d="M12.142 11.508H21.816V13.174H22.866V10.542H17.882C17.658 10.108 17.35 9.576 17.07 9.17L16.062 9.422C16.272 9.758 16.496 10.178 16.692 10.542H11.12V13.174H12.142V11.508ZM13.892 17.794C14.984 17.444 16.034 16.996 17.014 16.464C18.022 17.01 19.128 17.444 20.318 17.794H13.892ZM14.27 20.706V18.676H19.8V20.706H14.27ZM14.998 13.608H19.226C18.652 14.252 17.896 14.826 17.028 15.358C16.202 14.854 15.488 14.294 14.942 13.664L14.998 13.608ZM20.122 12.74L19.94 12.782H15.782C16.006 12.502 16.23 12.236 16.426 11.956L15.306 11.76C14.606 12.824 13.248 14.042 11.33 14.896C11.568 15.064 11.876 15.4 12.03 15.638C12.856 15.232 13.584 14.77 14.214 14.28C14.732 14.868 15.348 15.4 16.048 15.89C14.368 16.716 12.408 17.318 10.546 17.64C10.728 17.864 10.952 18.284 11.05 18.55C11.778 18.396 12.52 18.228 13.262 18.004V22.064H14.27V21.602H19.8V22.05H20.85V17.934C21.48 18.102 22.138 18.242 22.796 18.326C22.95 18.032 23.216 17.584 23.454 17.346C21.466 17.094 19.59 16.59 18.036 15.862C19.17 15.12 20.136 14.224 20.822 13.188L20.122 12.74ZM27.486 16.66C27.542 16.072 27.556 15.526 27.556 15.008V13.874H34.654V16.66H27.486ZM27.556 12.908V11.536C30.258 11.2 33.24 10.724 35.27 10.108L34.416 9.324C32.61 9.912 29.334 10.458 26.52 10.766V15.008C26.52 16.996 26.338 19.6 24.56 21.406C24.798 21.532 25.19 21.91 25.358 22.106C26.576 20.888 27.122 19.236 27.374 17.64H34.654V18.382H35.69V12.908H27.556ZM41.2849 23.506H42.2229L46.4089 9.898H45.4849L41.2849 23.506Z" fill="#00FF63"/>
<path d="M59.3261 6.006C58.4441 8.724 56.9681 11.406 55.3841 13.152C55.6181 13.458 56.0141 14.142 56.1581 14.466C56.6441 13.89 57.1481 13.242 57.5981 12.54V22.35H58.8761V10.362C59.5421 9.102 60.1181 7.734 60.5861 6.384L59.3261 6.006ZM62.3321 15.42V13.566H65.4641V14.466C65.4641 14.772 65.4641 15.114 65.4461 15.42H62.3321ZM62.3321 10.722H65.4641V12.576H62.3321V10.722ZM69.7121 10.722V12.576H66.7781V10.722H69.7121ZM69.7121 15.42H66.7421C66.7781 15.114 66.7781 14.772 66.7781 14.466V13.566H69.7121V15.42ZM71.0261 16.464V9.678H66.7781V8.184H71.6381V6.978H60.6041V8.184H65.4641V9.678H61.0721V16.464H65.3381C65.1761 17.4 64.8521 18.282 64.1321 19.074C63.1241 18.498 62.3141 17.796 61.7201 16.914L60.5861 17.346C61.2341 18.372 62.1161 19.218 63.1601 19.884C62.3141 20.478 61.1261 20.964 59.5241 21.342C59.7941 21.612 60.1541 22.134 60.3341 22.44C62.0981 21.936 63.3941 21.306 64.3301 20.568C66.2201 21.486 68.5601 22.026 71.2601 22.278C71.4401 21.882 71.7641 21.342 72.0521 21.036C69.4241 20.856 67.1201 20.424 65.2841 19.65C66.0761 18.678 66.4541 17.598 66.6341 16.464H71.0261ZM78.8021 8.022C80.0081 7.734 81.1421 7.41 82.0241 7.068L81.0341 6.042C79.3421 6.78 76.2461 7.392 73.6001 7.788C73.7621 8.076 73.9601 8.526 74.0141 8.85C75.1301 8.688 76.3001 8.508 77.4701 8.274V11.334H73.6901V12.576H77.2001C76.3361 14.826 74.7701 17.292 73.3301 18.642C73.5641 18.984 73.9061 19.542 74.0681 19.902C75.2741 18.678 76.5341 16.68 77.4701 14.628V22.35H78.8021V14.574C79.7381 15.582 80.9441 16.896 81.4841 17.58L82.2761 16.482C81.7361 15.942 79.6661 13.872 78.8021 13.062V12.576H82.4921V11.334H78.8021V8.022ZM85.2101 8.076H83.8961V17.94H85.2101V8.076ZM87.7121 6.15V20.514C87.7121 20.874 87.5681 20.964 87.2441 20.982C86.9021 20.982 85.7681 21 84.5261 20.964C84.7241 21.324 84.9221 21.954 85.0121 22.314C86.6501 22.314 87.6401 22.278 88.2161 22.044C88.7741 21.828 89.0261 21.432 89.0261 20.514V6.15H87.7121ZM101.788 17.004V19.092H97.5041V17.004H101.788ZM102.904 20.082V15.996H96.3341V20.91H97.5041V20.082H102.904ZM106.54 11.622H102.454C102.922 10.992 103.408 10.2 103.84 9.48L102.49 9.174C102.202 9.894 101.644 10.902 101.176 11.622H92.8601V22.35H94.1381V12.738H97.2341C96.9821 14.124 96.2801 14.844 94.1741 15.222C94.4261 15.438 94.7141 15.87 94.8221 16.158C97.3061 15.6 98.1521 14.61 98.4221 12.738H100.456V13.89C100.456 14.952 100.672 15.42 101.77 15.42H103.66C104.056 15.42 104.488 15.42 104.704 15.33C104.668 15.042 104.632 14.682 104.614 14.376C104.362 14.43 103.894 14.448 103.624 14.448H102.004C101.716 14.448 101.662 14.304 101.662 13.908V12.738H105.298V20.874C105.298 21.162 105.19 21.234 104.902 21.252C104.614 21.27 103.57 21.288 102.454 21.252C102.634 21.54 102.796 21.954 102.868 22.278C104.398 22.278 105.298 22.26 105.838 22.098C106.36 21.9 106.54 21.594 106.54 20.892V11.622ZM95.6501 9.462C96.0281 10.128 96.5141 11.028 96.7661 11.55L97.9181 11.082C97.6841 10.56 97.1801 9.714 96.7841 9.084L95.6501 9.462ZM100.654 7.878C100.456 7.284 100.132 6.492 99.8801 5.862L98.6381 6.186C98.8541 6.69 99.0881 7.338 99.2681 7.878H91.8341V9.03H107.53V7.878H100.654ZM122.83 20.244H115.234V17.022H122.83V20.244ZM119.212 10.02H117.862V15.78H113.938V22.152H115.234V21.432H122.83V22.116H124.162V15.78H119.212V13.368H125.026V12.144H119.212V10.02ZM119.5 8.13C119.248 7.482 118.816 6.636 118.348 5.988L117.07 6.312C117.43 6.852 117.754 7.536 118.006 8.13H110.986V12.792C110.986 15.384 110.824 19.038 109.294 21.63C109.618 21.774 110.212 22.17 110.464 22.386C112.066 19.668 112.336 15.564 112.336 12.792V9.426H125.584V8.13H119.5ZM138.832 9.984H140.146V8.562H143.602V7.356H140.146V5.952H138.832V7.356H136.024V8.562H138.832V9.984ZM131.128 9.966H132.442V8.562H135.286V7.356H132.442V5.952H131.128V7.356H127.816V8.562H131.128V9.966ZM136.294 12.108H143.422V10.92H136.294V9.318H134.98V10.92H127.942V12.108H134.98V14.736C133.522 17.472 130.588 19.812 127.348 20.838C127.672 21.144 128.05 21.63 128.248 21.99C130.876 21.018 133.288 19.182 134.98 16.896V22.368H136.294V16.95C137.968 19.236 140.38 20.982 143.098 21.9C143.278 21.522 143.692 21 143.998 20.73C140.668 19.794 137.788 17.616 136.294 14.934V12.108ZM130.84 12.522C130.39 14.358 129.382 15.942 128.032 16.95C128.32 17.112 128.842 17.508 129.04 17.706C129.832 17.04 130.534 16.176 131.092 15.186C131.704 15.798 132.298 16.482 132.622 16.95L133.594 16.284C133.18 15.708 132.334 14.844 131.596 14.178C131.776 13.71 131.938 13.242 132.082 12.738L130.84 12.522ZM139.642 12.522C139.282 14.106 138.562 15.51 137.518 16.446C137.824 16.572 138.4 16.86 138.652 17.022C139.156 16.536 139.606 15.924 139.966 15.186C140.848 15.978 141.784 16.878 142.288 17.49L143.242 16.68C142.63 15.996 141.442 14.916 140.47 14.124C140.614 13.674 140.758 13.206 140.866 12.72L139.642 12.522ZM151.36 16.338C151.18 16.824 150.946 17.292 150.676 17.742C150.28 17.454 149.848 17.184 149.452 16.95L148.912 17.616C149.344 17.85 149.794 18.156 150.226 18.48C149.74 19.2 149.164 19.83 148.552 20.352C148.768 20.46 149.128 20.748 149.29 20.892C149.866 20.388 150.424 19.74 150.928 19.02C151.342 19.38 151.72 19.722 151.972 20.01L152.53 19.29C152.26 19.002 151.846 18.642 151.396 18.282C151.72 17.742 152.026 17.148 152.26 16.554L151.36 16.338ZM152.44 14.826C152.17 14.556 151.792 14.25 151.342 13.926C151.666 13.44 151.954 12.918 152.206 12.396L151.36 12.18C151.162 12.612 150.91 13.044 150.64 13.458C150.262 13.206 149.866 12.99 149.488 12.81L148.948 13.44C149.326 13.638 149.74 13.89 150.154 14.142C149.686 14.736 149.182 15.276 148.642 15.726C148.858 15.834 149.218 16.086 149.38 16.23C149.884 15.798 150.37 15.24 150.838 14.628C151.252 14.952 151.63 15.276 151.882 15.546L152.44 14.826ZM158.596 19.164C158.308 18.876 157.912 18.534 157.444 18.174C157.75 17.652 158.038 17.094 158.272 16.536L157.39 16.32C157.21 16.788 156.976 17.238 156.724 17.67C156.292 17.382 155.842 17.112 155.41 16.896L154.888 17.544C155.32 17.796 155.788 18.084 156.238 18.408C155.734 19.128 155.14 19.776 154.492 20.28C154.726 20.406 155.086 20.676 155.23 20.82C155.842 20.298 156.418 19.65 156.94 18.912C157.39 19.254 157.786 19.596 158.056 19.884L158.596 19.164ZM158.47 14.898C158.182 14.61 157.768 14.268 157.3 13.926C157.624 13.44 157.93 12.918 158.164 12.396L157.318 12.18C157.12 12.612 156.868 13.044 156.598 13.458C156.184 13.206 155.752 12.954 155.356 12.756L154.816 13.368C155.23 13.584 155.68 13.854 156.112 14.142C155.626 14.772 155.104 15.33 154.546 15.78C154.78 15.888 155.122 16.14 155.266 16.284C155.788 15.834 156.31 15.276 156.796 14.646C157.228 14.97 157.624 15.312 157.894 15.6L158.47 14.898ZM154.276 10.668V8.202H157.192L156.292 8.886C157.354 9.354 158.578 10.038 159.604 10.668H154.276ZM161.962 10.758C160.936 10.002 159.01 8.94 157.444 8.202H161.548V7.014H145.87V8.202H152.998V10.668H148.39C149.308 10.074 150.172 9.39 150.838 8.688L149.65 8.256C148.624 9.318 146.914 10.308 145.33 10.938C145.618 11.154 146.122 11.604 146.32 11.82C146.554 11.712 146.806 11.586 147.058 11.46V22.368H148.3V11.766H152.998V22.296H154.276V11.766H159.19V20.892C159.19 21.162 159.1 21.234 158.812 21.252C158.524 21.27 157.624 21.288 156.58 21.252C156.742 21.558 156.922 22.062 156.994 22.368C158.344 22.368 159.244 22.368 159.766 22.17C160.27 21.972 160.432 21.612 160.432 20.892V11.208C160.63 11.352 160.81 11.478 160.972 11.604L161.962 10.758ZM170.944 16.968V18.372H166.642V16.968H170.944ZM176.794 18.372H172.24V16.968H176.794V18.372ZM172.24 20.748V19.308H176.794V20.748H172.24ZM166.642 19.308H170.944V20.748H166.642V19.308ZM165.382 22.404H166.642V21.792H176.794V22.332H178.108V15.942H165.382V22.404ZM176.812 9.66H166.534V10.632H176.812V9.66ZM167.812 12.576H175.408V13.944H167.812V12.576ZM176.704 14.898V11.622H166.588V14.898H176.704ZM172.654 7.392C172.42 6.924 172.06 6.276 171.736 5.772L170.35 6.096C170.584 6.492 170.818 6.96 171.034 7.392H164.194V10.794H165.472V8.562H177.874V10.794H179.188V7.392H172.654Z" fill="white"/>
<path d="M10.638 64.16L14.508 56.096L13.536 55.772L9.54 64.16L13.536 72.548L14.508 72.224L10.638 64.16ZM13.482 64.16L17.352 56.096L16.38 55.772L12.384 64.16L16.38 72.548L17.352 72.224L13.482 64.16ZM30.402 65.528C30.114 66.644 29.448 67.832 29.25 68.138C29.052 68.444 28.872 68.66 28.674 68.696C28.8 68.966 28.98 69.524 29.034 69.74C29.322 69.614 29.754 69.506 32.832 69.02C32.976 69.308 33.102 69.578 33.192 69.776L34.056 69.416C33.768 68.768 33.156 67.634 32.634 66.806L31.824 67.13C32.004 67.454 32.238 67.85 32.436 68.21L30.15 68.516C30.636 67.76 31.158 66.806 31.518 65.852L30.402 65.528ZM22.158 61.964H26.262V64.016H22.158V61.964ZM22.158 58.85H26.262V60.884H22.158V58.85ZM31.59 60.884H27.576V58.85H31.59V60.884ZM31.59 64.016H27.576V61.964H31.59V64.016ZM29.538 70.892C28.476 70.892 28.296 70.766 28.296 70.19V65.168H32.976V57.698H24.984C25.308 57.212 25.65 56.636 25.956 56.096L24.498 55.79C24.282 56.366 23.904 57.104 23.544 57.698H20.826V65.168H24.282C23.868 67.976 22.878 70.226 18.738 71.342C19.026 71.594 19.386 72.116 19.512 72.458C23.976 71.126 25.164 68.498 25.632 65.168H27V70.208C27 71.666 27.504 72.044 29.448 72.044H33.318C34.83 72.044 35.244 71.558 35.406 69.722C35.046 69.668 34.524 69.47 34.218 69.254C34.146 70.64 34.002 70.892 33.21 70.892H29.538ZM40.914 65.492C41.058 64.43 41.112 63.404 41.112 62.468H49.338V65.492H40.914ZM49.338 58.202V61.19H41.112V58.202H49.338ZM50.724 56.888H39.762V62.396C39.762 65.258 39.474 68.912 36.612 71.432C36.882 71.63 37.422 72.116 37.602 72.404C39.348 70.874 40.248 68.84 40.698 66.806H49.338V70.406C49.338 70.802 49.194 70.928 48.78 70.946C48.366 70.946 46.926 70.964 45.414 70.91C45.648 71.288 45.9 71.918 45.99 72.296C47.916 72.296 49.104 72.278 49.788 72.044C50.454 71.828 50.724 71.36 50.724 70.424V56.888ZM58.32 58.364V66.77H56.502V58.364H58.32ZM59.4 67.886V57.266H55.422V69.614H56.502V67.886H59.4ZM62.73 59.552C62.748 58.418 62.766 57.23 62.766 56.006H61.596C61.596 57.248 61.596 58.436 61.578 59.552H60.048V60.758H61.542C61.416 65.492 60.894 69.29 58.626 71.576C58.914 71.756 59.346 72.152 59.562 72.44C62.01 69.884 62.568 65.834 62.712 60.758H64.26C64.062 67.652 63.846 70.046 63.45 70.586C63.288 70.838 63.162 70.874 62.928 70.874C62.658 70.874 62.136 70.874 61.56 70.82C61.74 71.162 61.866 71.666 61.866 72.026C62.46 72.08 63.054 72.062 63.45 72.026C63.882 71.954 64.188 71.81 64.476 71.378C65.016 70.604 65.214 68.102 65.448 60.182C65.466 60.038 65.466 59.552 65.466 59.552H62.73ZM67.266 69.002V59.246H69.498V69.002H67.266ZM66.168 58.04V71.72H67.266V70.208H69.498V71.576H70.65V58.04H66.168ZM76.518 58.886V66.392H74.574V58.886H76.518ZM77.688 57.644H73.386V69.344H74.574V67.634H77.688V57.644ZM81.81 58.958H78.93V60.2H81.81V62.756H79.218V63.962H81.81C81.792 64.61 81.774 65.294 81.702 65.996C80.442 66.23 79.254 66.446 78.372 66.572L78.642 67.922C79.524 67.724 80.532 67.49 81.54 67.238C81.288 68.876 80.748 70.46 79.722 71.738C80.028 71.864 80.568 72.278 80.766 72.53C82.818 70.01 83.106 66.068 83.106 63.17V56.042H81.81V58.958ZM89.154 66.59H85.878V63.962H88.578V62.738H85.878V60.2H88.938V58.958H85.878V56.006H84.564V72.332H85.878V67.814H89.154V66.59ZM92.448 65.582V64.268H94.716V65.582H92.448ZM92.448 62.09H94.716V63.386H92.448V62.09ZM98.28 62.09V63.386H95.922V62.09H98.28ZM98.28 65.582H95.922V64.268H98.28V65.582ZM103.014 60.11C103.05 58.85 103.05 57.518 103.05 56.168H101.79C101.79 57.536 101.79 58.85 101.754 60.11H99.612V61.37H101.718C101.556 64.754 101.088 67.652 99.522 69.776V69.686C98.316 69.83 97.092 69.956 95.922 70.064V68.642H99.45V67.616H95.922V66.518H99.414V61.172H95.922V60.038H99.738V58.994H95.922V57.68C97.236 57.536 98.46 57.374 99.432 57.158L98.766 56.132C96.912 56.546 93.672 56.87 91.008 57.014C91.152 57.284 91.278 57.716 91.332 58.004C92.394 57.968 93.564 57.896 94.716 57.806V58.994H90.828V60.038H94.716V61.172H91.35V66.518H94.716V67.616H91.314V68.642H94.716V70.19C93.24 70.334 91.89 70.46 90.81 70.55L91.008 71.72C93.024 71.504 95.814 71.198 98.55 70.874C98.298 71.09 98.046 71.306 97.758 71.504C98.082 71.72 98.55 72.17 98.748 72.458C101.916 70.082 102.744 66.158 102.96 61.37H105.534C105.354 67.904 105.138 70.28 104.724 70.802C104.544 71.036 104.382 71.09 104.076 71.09C103.734 71.09 102.942 71.072 102.078 71C102.276 71.342 102.42 71.9 102.456 72.26C103.284 72.314 104.13 72.332 104.634 72.26C105.174 72.206 105.534 72.062 105.84 71.594C106.452 70.838 106.614 68.336 106.812 60.794C106.812 60.614 106.83 60.11 106.83 60.11H103.014ZM108.99 71.864H125.046V70.91H108.99V71.864ZM121.734 67.58H117.558V66.662H121.734V67.58ZM121.734 69.29H117.558V68.336H121.734V69.29ZM112.32 68.336H116.316V69.29H112.32V68.336ZM112.32 66.662H116.316V67.58H112.32V66.662ZM111.042 65.888V70.064H123.084V65.888H111.042ZM117.594 59.642H121.716V60.632H117.594V59.642ZM117.594 57.878H121.716V58.796H117.594V57.878ZM117.594 64.16V63.224H123.75V62.378H117.594V61.46H123.048V59.642H124.992V58.796H123.048V57.05H117.594V55.934H116.262V57.05H110.916V57.878H116.262V58.796H109.026V59.642H116.262V60.632H110.808V61.46H116.262V62.378H110.376V63.224H116.262V64.16H108.99V65.096H125.046V64.16H117.594ZM129.078 68.192H133.164V67.076H129.078V68.192ZM131.724 60.164H130.518V57.896H131.724V60.164ZM133.884 64.34C133.848 64.358 133.776 64.358 133.632 64.358H132.93C132.696 64.358 132.66 64.34 132.66 64.088V61.352H133.884V64.34ZM128.358 69.938V65.582C128.574 65.69 128.862 65.978 129.024 66.14C130.266 65.186 130.554 63.8 130.554 62.702V61.352H131.796V64.106C131.796 65.078 132.03 65.276 132.84 65.276H133.758H133.884V69.938H128.358ZM129.672 61.352V62.684C129.672 63.584 129.474 64.682 128.358 65.528V61.352H129.672ZM126.9 57.896H129.384V60.164H127.224V72.332H128.358V71.072H133.884V72.098H135.036V60.164H132.858V57.896H135.36V56.69H126.9V57.896ZM138.438 70.892C137.646 70.892 137.502 70.766 137.502 70.118V63.89H142.668V56.762H136.08V58.076H141.336V62.576H136.134V70.1C136.134 71.774 136.638 72.206 138.276 72.206H141.174C142.794 72.206 143.19 71.378 143.352 68.444C142.956 68.354 142.398 68.12 142.074 67.886C141.984 70.442 141.858 70.892 141.066 70.892H138.438ZM160.992 64.79C160.83 64.034 160.47 62.9 160.164 62L159.264 62.27C159.372 62.63 159.498 63.026 159.624 63.44L157.482 63.674C158.67 62.306 159.858 60.578 160.83 58.85L159.822 58.292C159.552 58.85 159.264 59.408 158.94 59.948L157.158 60.11C157.824 59.084 158.508 57.716 159.048 56.402L157.932 56.042C157.482 57.536 156.618 59.156 156.33 59.552C156.078 59.984 155.862 60.272 155.628 60.308C155.754 60.614 155.916 61.154 155.97 61.388C156.204 61.28 156.582 61.19 158.31 60.956C157.698 61.856 157.158 62.576 156.924 62.864C156.492 63.404 156.132 63.782 155.808 63.854C155.952 64.124 156.132 64.7 156.186 64.916C156.456 64.79 156.924 64.7 159.858 64.322C159.93 64.61 160.002 64.862 160.038 65.096L160.992 64.79ZM154.17 60.542H151.83V58.688H154.17V60.542ZM154.17 63.404H151.83V61.532H154.17V63.404ZM155.358 57.644H153.198C153.378 57.176 153.576 56.6 153.738 56.096L152.496 55.862C152.442 56.366 152.298 57.068 152.136 57.644H150.66V64.448H155.358V57.644ZM150.336 64.682C150.228 63.89 149.958 62.648 149.67 61.712L148.752 61.928C148.86 62.306 148.968 62.756 149.058 63.188L146.862 63.458C148.05 62.09 149.22 60.362 150.192 58.652L149.22 58.112C148.932 58.688 148.608 59.282 148.284 59.84L146.736 60.002C147.402 58.994 148.068 57.698 148.572 56.456L147.51 56.06C147.06 57.5 146.214 59.048 145.944 59.426C145.71 59.84 145.476 60.092 145.242 60.146C145.368 60.434 145.548 60.992 145.602 61.208C145.818 61.082 146.16 61.028 147.672 60.812C147.078 61.712 146.556 62.414 146.322 62.684C145.872 63.242 145.548 63.62 145.224 63.674C145.35 63.962 145.53 64.502 145.584 64.736C145.836 64.592 146.304 64.484 149.238 64.052C149.31 64.376 149.328 64.682 149.364 64.934L150.336 64.682ZM150.264 67.724C149.076 69.002 146.718 70.172 144.648 70.676C144.936 70.946 145.332 71.432 145.53 71.792C147.654 71.108 150.066 69.74 151.38 68.174L150.264 67.724ZM154.818 68.462C156.69 69.434 158.994 70.91 160.146 71.9L160.974 70.892C159.786 69.938 157.446 68.516 155.628 67.58L154.818 68.462ZM153.666 65.996V64.898H152.334V65.996H145.008V67.13H152.334V72.35H153.666V67.13H160.992V65.996H153.666ZM166.464 72.548L170.46 64.16L166.464 55.772L165.492 56.096L169.362 64.16L165.492 72.224L166.464 72.548ZM163.62 72.548L167.616 64.16L163.62 55.772L162.648 56.096L166.518 64.16L162.648 72.224L163.62 72.548Z" fill="#00FF63"/>
<path opacity="0.8" d="M11.592 97.296H15.432V96.64H11.592V97.296ZM14.232 90.448H12.856V88.096H14.232V90.448ZM16.216 94.08C16.184 94.096 16.12 94.096 15.96 94.096H15.112C14.872 94.096 14.84 94.064 14.84 93.872V91.152H16.216V94.08ZM10.824 99.248V91.152H12.28V92.368C12.28 93.248 12.04 94.352 10.824 95.184C10.968 95.264 11.176 95.456 11.272 95.584C12.568 94.672 12.872 93.392 12.872 92.368V91.152H14.248V93.872C14.248 94.576 14.44 94.688 15.096 94.688H16.072H16.216V99.248H10.824ZM9.816 88.096H12.184V90.448H10.152V101.12H10.824V99.92H16.216V100.912H16.888V90.448H14.904V88.096H17.304V87.408H9.816V88.096ZM19.816 100.304C19.032 100.304 18.872 100.176 18.872 99.632V93.456H23.816V87.392H18.056V88.128H23.08V92.704H18.12V99.616C18.12 100.768 18.504 101.024 19.784 101.024H22.712C24.024 101.024 24.28 100.352 24.392 97.808C24.168 97.76 23.864 97.616 23.656 97.488C23.592 99.872 23.464 100.304 22.664 100.304H19.816ZM39.96 94.496C39.816 93.872 39.464 92.928 39.176 92.16L38.584 92.384C38.712 92.704 38.856 93.056 38.984 93.44L36.696 93.712C37.752 92.448 38.824 90.768 39.736 89.104L39.112 88.784C38.872 89.312 38.568 89.84 38.28 90.352L36.376 90.576C37 89.584 37.656 88.256 38.136 86.976L37.464 86.72C37.032 88.112 36.216 89.632 35.992 90.016C35.768 90.4 35.56 90.672 35.368 90.72C35.432 90.896 35.544 91.248 35.576 91.392C35.768 91.312 36.088 91.232 37.912 90.976C37.32 91.92 36.76 92.704 36.52 92.992C36.136 93.488 35.832 93.84 35.56 93.888C35.656 94.064 35.768 94.416 35.8 94.576C36.024 94.448 36.408 94.368 39.16 93.984C39.256 94.256 39.304 94.512 39.352 94.72L39.96 94.496ZM34.28 90.928H31.72V88.928H34.28V90.928ZM34.28 93.568H31.72V91.552H34.28V93.568ZM35 88.288H32.968C33.112 87.84 33.272 87.28 33.448 86.784L32.696 86.624C32.632 87.104 32.472 87.76 32.312 88.288H31.016V94.224H35V88.288ZM30.6 94.416C30.504 93.728 30.248 92.672 29.992 91.856L29.416 92C29.512 92.384 29.608 92.784 29.704 93.2L27.368 93.504C28.456 92.24 29.528 90.576 30.424 88.912L29.816 88.592C29.56 89.152 29.256 89.696 28.92 90.224L27.256 90.4C27.88 89.472 28.488 88.224 28.968 87.008L28.312 86.752C27.912 88.064 27.112 89.504 26.872 89.872C26.648 90.224 26.456 90.496 26.264 90.528C26.344 90.704 26.44 91.056 26.472 91.2C26.648 91.12 26.968 91.04 28.568 90.832C27.976 91.744 27.416 92.496 27.208 92.784C26.808 93.28 26.504 93.632 26.248 93.696C26.344 93.872 26.456 94.208 26.456 94.352C26.696 94.24 27.08 94.144 29.832 93.76C29.896 94.048 29.944 94.352 29.976 94.592L30.6 94.416ZM30.952 96.992C29.8 98.272 27.56 99.424 25.672 99.952C25.864 100.096 26.088 100.384 26.216 100.592C28.088 99.968 30.376 98.688 31.608 97.296L30.952 96.992ZM34.52 97.456C36.296 98.384 38.472 99.744 39.56 100.688L40.024 100.048C38.92 99.152 36.728 97.808 34.968 96.912L34.52 97.456ZM33.352 95.744V94.656H32.584V95.744H25.912V96.432H32.584V101.168H33.352V96.432H40.072V95.744H33.352ZM55.08 86.848H54.376V93.6C54.376 93.808 54.312 93.872 54.072 93.872C53.832 93.888 53.064 93.904 52.088 93.872C52.216 94.096 52.328 94.352 52.376 94.56C53.496 94.56 54.2 94.544 54.584 94.432C54.952 94.304 55.08 94.112 55.08 93.6V86.848ZM52.104 87.504H51.384V92.72H52.104V87.504ZM45.688 91.328H42.824V94.224H43.496V91.936H45.688V94.688H46.392V91.936H48.76V93.376C48.76 93.504 48.728 93.552 48.568 93.568C48.408 93.568 47.992 93.568 47.384 93.552C47.48 93.744 47.576 93.936 47.608 94.128C48.344 94.128 48.808 94.128 49.096 94.016C49.384 93.904 49.432 93.728 49.432 93.376V91.328H46.392V90.32H49.96V89.696H46.392V88.496H49.32V87.888H46.392V86.688H45.688V87.888H43.848C43.976 87.552 44.12 87.232 44.232 86.896L43.56 86.736C43.272 87.648 42.84 88.576 42.264 89.264C42.44 89.328 42.76 89.472 42.888 89.584C43.128 89.264 43.336 88.912 43.544 88.496H45.688V89.696H41.896V90.32H45.688V91.328ZM54.52 96.448C53.768 96.992 52.472 97.712 51.432 98.208C50.728 97.616 50.152 96.912 49.736 96.112H56.056V95.44H49.784C49.608 95.056 49.32 94.528 49.064 94.144L48.344 94.336C48.552 94.672 48.776 95.088 48.936 95.44H41.976V96.112H48.008C46.392 97.216 43.832 98.16 41.704 98.608C41.864 98.752 42.072 99.024 42.184 99.2C43.112 98.976 44.12 98.656 45.128 98.256V99.424C45.128 100.08 44.712 100.352 44.472 100.48C44.584 100.624 44.76 100.944 44.808 101.136C45.096 100.96 45.544 100.832 49.992 99.744C49.992 99.616 49.976 99.36 49.992 99.152L45.88 100.048V97.952C47.064 97.424 48.184 96.816 49.016 96.16C50.216 98.688 52.584 100.304 55.752 100.96C55.864 100.752 56.056 100.464 56.216 100.32C54.552 100.016 53.112 99.44 51.944 98.624C53 98.128 54.2 97.488 55.128 96.848L54.52 96.448ZM61.896 86.736C60.936 89.248 59.384 91.728 57.736 93.312C57.896 93.472 58.136 93.856 58.216 94.016C58.888 93.344 59.528 92.544 60.136 91.68V101.152H60.92V90.448C61.576 89.344 62.152 88.16 62.632 86.96L61.896 86.736ZM72.248 90.128V89.392H65.256C65.624 88.656 65.944 87.872 66.232 87.088L65.512 86.896C64.68 89.264 63.368 91.6 61.912 93.12C62.072 93.232 62.392 93.504 62.52 93.616C63.368 92.672 64.184 91.472 64.904 90.128H66.296V101.168H67.064V97.072H72.152V96.336H67.064V93.536H71.928V92.816H67.064V90.128H72.248Z" fill="white"/>
<path d="M240.5 38.13L9.24023 38.13V39.02L240.5 39.02V38.13Z" fill="white"/>
<path d="M244 35H229V42H244V35Z" fill="#00FF63"/>
</svg>
