<svg width="244" height="106" viewBox="0 0 244 106" fill="none" xmlns="http://www.w3.org/2000/svg">
<path d="M21.25 12.46C21.082 13.398 20.872 14.392 20.662 15.05L21.488 15.288C21.824 14.392 22.146 12.936 22.37 11.69L21.684 11.48L21.516 11.522H18.38C18.548 10.864 18.688 10.164 18.814 9.45L17.82 9.282C17.512 11.354 16.924 13.37 16.014 14.658C16.252 14.784 16.686 15.036 16.882 15.176C17.372 14.448 17.778 13.51 18.114 12.46H21.25ZM12.948 18.046V19.488H11.226V18.046H12.948ZM13.788 20.258V17.276H10.344V20.86H11.226V20.258H13.788ZM16.98 16.394V15.47H15.636V10.878H16.672V9.982H9.77V10.878H14.698V15.47H9.616V16.394H14.782V21.014C14.782 21.168 14.74 21.224 14.558 21.224C14.376 21.238 13.788 21.238 13.158 21.224C13.284 21.448 13.396 21.77 13.452 22.008C14.334 22.008 14.908 21.994 15.258 21.854C15.608 21.728 15.72 21.532 15.72 21.028V16.394H16.98ZM12.906 13.832H11.268V12.446H12.906V13.832ZM10.484 11.704V14.574H13.746V11.704H10.484ZM19.696 13.3H18.744V14.252C18.744 16.226 18.52 19.166 15.874 21.392C16.084 21.574 16.42 21.91 16.574 22.134C18.114 20.804 18.912 19.25 19.304 17.738C19.864 19.544 20.676 20.874 22.02 22.092C22.146 21.812 22.44 21.504 22.706 21.308C20.984 19.866 20.172 18.186 19.668 15.386C19.682 14.994 19.696 14.616 19.696 14.252V13.3ZM36.286 16.492H30.546V14.224H35.502V13.23H30.546V10.962C32.198 10.766 33.724 10.5 34.914 10.136L34.13 9.31C32.03 9.968 27.97 10.332 24.666 10.486C24.764 10.724 24.89 11.13 24.932 11.41C26.374 11.34 27.956 11.242 29.496 11.074V13.23H24.68V14.224H29.496V16.492H23.742V17.514H29.496V20.608C29.496 20.902 29.37 21 29.062 21C28.74 21.014 27.648 21.028 26.472 20.986C26.64 21.266 26.836 21.728 26.92 22.022C28.39 22.036 29.286 22.008 29.804 21.84C30.322 21.672 30.546 21.364 30.546 20.622V17.514H36.286V16.492ZM40.2849 23.506H41.2229L45.4089 9.898H44.4849L40.2849 23.506Z" fill="#00FF63"/>
<path d="M61.5535 6.942L61.2835 7.032H53.8495V8.274H60.2575C59.4655 9.21 58.4035 10.218 57.4495 10.866V14.322C55.9195 14.718 54.5155 15.078 53.4535 15.348L53.7415 16.68L57.4495 15.654V20.694C57.4495 20.964 57.3595 21.036 57.0715 21.054C56.8195 21.054 55.9015 21.054 54.8935 21.018C55.1095 21.414 55.2715 21.99 55.3255 22.368C56.6395 22.386 57.5215 22.35 58.0615 22.134C58.5835 21.9 58.7455 21.522 58.7455 20.712V15.312L62.3995 14.304L62.2195 13.044C61.0675 13.368 59.8975 13.692 58.7455 13.98V11.406C60.0595 10.398 61.5175 8.94 62.4535 7.608L61.5535 6.942ZM65.7655 21C65.0815 21 64.9375 20.838 64.9375 19.92V6.366H63.6235V19.884C63.6235 21.702 64.0375 22.206 65.6035 22.206H68.1235C69.6715 22.206 70.0135 21.198 70.1575 18.228C69.7975 18.138 69.2755 17.904 68.9515 17.634C68.8615 20.334 68.7535 21 68.0335 21H65.7655ZM84.6115 8.742H75.0895V7.626H84.6115V8.742ZM84.6115 10.794H75.0895V9.66H84.6115V10.794ZM85.9255 6.672H73.7935V11.766H85.9255V6.672ZM85.8535 17.76C85.1515 18.228 84.0175 18.858 83.0635 19.29C82.3075 18.822 81.6775 18.246 81.1915 17.616H87.7075V16.59H74.3695C74.3875 16.248 74.4055 15.942 74.4055 15.636H86.1235V14.718H74.4055V13.8H87.4195V12.774H73.0735V15.222C73.0735 17.112 72.9115 19.758 71.5795 21.702C71.8855 21.846 72.4795 22.224 72.7135 22.458C73.6675 21.072 74.0815 19.272 74.2795 17.616H76.1875V19.902C76.1875 20.676 75.6295 21.054 75.2875 21.252C75.4855 21.522 75.7735 22.062 75.8635 22.386C76.1695 22.17 76.7275 22.026 80.9575 20.964C80.9395 20.712 80.9575 20.208 81.0115 19.884L77.4475 20.694V17.616H79.8955C81.3535 19.974 83.9635 21.504 87.2935 22.098C87.4735 21.738 87.7975 21.252 88.0855 20.982C86.5555 20.766 85.2055 20.388 84.0535 19.83C84.9355 19.434 85.9615 18.93 86.7535 18.39L85.8535 17.76ZM96.9235 6.87H89.9755V8.166H95.6095V14.772C93.3595 15.996 90.9835 17.256 89.4715 18.012L90.0115 19.2C91.6135 18.372 93.6295 17.202 95.6095 16.05V20.46C95.6095 20.802 95.5015 20.892 95.1595 20.91C94.8355 20.928 93.6475 20.928 92.4775 20.874C92.6755 21.234 92.8915 21.882 92.9635 22.242C94.4575 22.242 95.5195 22.224 96.1315 21.99C96.7255 21.774 96.9235 21.36 96.9235 20.46V6.87ZM90.2455 10.524C91.1815 11.55 92.3515 12.99 92.9095 13.854L94.0075 13.116C93.4135 12.27 92.2795 10.92 91.3075 9.912L90.2455 10.524ZM105.06 6.87H97.9855V8.166H103.728V14.358C101.46 15.618 99.0655 16.914 97.5535 17.67L98.2195 18.858C99.7855 17.994 101.784 16.824 103.728 15.69V20.424C103.728 20.784 103.602 20.892 103.26 20.91C102.882 20.928 101.604 20.946 100.326 20.874C100.542 21.252 100.758 21.9 100.812 22.26C102.432 22.26 103.584 22.242 104.214 22.008C104.844 21.81 105.06 21.36 105.06 20.442V6.87ZM98.1835 10.434C99.1375 11.424 100.326 12.864 100.902 13.728L101.982 12.936C101.406 12.126 100.2 10.776 99.2095 9.768L98.1835 10.434Z" fill="white"/>
<path d="M10.638 64.16L14.508 56.096L13.536 55.772L9.54 64.16L13.536 72.548L14.508 72.224L10.638 64.16ZM13.482 64.16L17.352 56.096L16.38 55.772L12.384 64.16L16.38 72.548L17.352 72.224L13.482 64.16ZM31.842 58.742H22.32V57.626H31.842V58.742ZM31.842 60.794H22.32V59.66H31.842V60.794ZM33.156 56.672H21.024V61.766H33.156V56.672ZM33.084 67.76C32.382 68.228 31.248 68.858 30.294 69.29C29.538 68.822 28.908 68.246 28.422 67.616H34.938V66.59H21.6C21.618 66.248 21.636 65.942 21.636 65.636H33.354V64.718H21.636V63.8H34.65V62.774H20.304V65.222C20.304 67.112 20.142 69.758 18.81 71.702C19.116 71.846 19.71 72.224 19.944 72.458C20.898 71.072 21.312 69.272 21.51 67.616H23.418V69.902C23.418 70.676 22.86 71.054 22.518 71.252C22.716 71.522 23.004 72.062 23.094 72.386C23.4 72.17 23.958 72.026 28.188 70.964C28.17 70.712 28.188 70.208 28.242 69.884L24.678 70.694V67.616H27.126C28.584 69.974 31.194 71.504 34.524 72.098C34.704 71.738 35.028 71.252 35.316 70.982C33.786 70.766 32.436 70.388 31.284 69.83C32.166 69.434 33.192 68.93 33.984 68.39L33.084 67.76ZM53.208 61.496H48.024V60.56H52.2V59.696H48.024V58.76H52.47V57.878H49.986C50.328 57.41 50.724 56.834 51.066 56.312L49.842 55.934C49.572 56.51 49.122 57.284 48.69 57.878H45.324L46.08 57.536C45.864 57.086 45.36 56.402 44.928 55.916L43.92 56.33C44.298 56.78 44.73 57.428 44.946 57.878H42.462V58.76H46.818V59.696H42.966V60.56H46.818V61.496H41.994V62.378H53.208V61.496ZM40.464 58.382V62.378H38.502V58.382H40.464ZM38.502 67.652V63.548H40.464V67.652H38.502ZM41.58 57.194H37.404V70.298H38.502V68.858H41.58V57.194ZM49.752 63.152C50.526 63.53 51.444 64.124 51.912 64.538L52.578 63.8C52.074 63.386 51.138 62.846 50.382 62.504L49.752 63.152ZM51.966 65.744C51.552 66.752 50.904 67.796 50.13 68.714C49.86 67.796 49.626 66.698 49.482 65.402H53.154V64.538H49.41C49.356 63.944 49.338 63.332 49.32 62.684H48.204C48.222 63.332 48.258 63.944 48.312 64.538H45.594V63.692C46.422 63.602 47.16 63.494 47.772 63.386L47.16 62.684C45.99 62.918 43.866 63.08 42.138 63.134C42.264 63.35 42.372 63.638 42.408 63.854C43.092 63.854 43.848 63.818 44.604 63.782V64.538H41.904V65.402H44.046C43.326 65.978 42.39 66.572 41.598 66.878C41.814 67.058 42.102 67.364 42.282 67.598C43.002 67.238 43.902 66.59 44.604 65.96V67.472H45.594V66.158C46.224 66.518 47.016 66.968 47.34 67.238L47.862 66.5C47.502 66.266 46.08 65.636 45.594 65.402H48.402C48.582 67.022 48.888 68.462 49.32 69.596C48.582 70.316 47.772 70.91 46.944 71.324C47.052 70.964 47.124 70.46 47.214 69.722C47.25 69.596 47.268 69.308 47.268 69.308H43.992C44.082 69.038 44.154 68.768 44.226 68.48H47.952V67.634H42.102V68.48H43.254C43.074 69.056 42.894 69.65 42.678 70.136H46.188C46.08 70.892 45.954 71.234 45.828 71.396C45.72 71.486 45.594 71.504 45.36 71.504C45.144 71.504 44.586 71.504 43.992 71.432C44.118 71.666 44.208 72.026 44.226 72.278C44.838 72.332 45.45 72.332 45.756 72.314C46.134 72.278 46.368 72.206 46.602 71.99C46.728 71.864 46.836 71.684 46.926 71.36C47.232 71.576 47.556 71.882 47.736 72.17C48.438 71.792 49.14 71.252 49.788 70.64C50.364 71.738 51.084 72.35 51.912 72.35C52.848 72.35 53.208 71.828 53.388 69.974C53.1 69.884 52.758 69.668 52.506 69.452C52.452 70.748 52.326 71.27 51.984 71.288C51.462 71.288 50.976 70.766 50.562 69.83C51.498 68.75 52.308 67.49 52.83 66.248L51.966 65.744ZM58.464 72.548L62.46 64.16L58.464 55.772L57.492 56.096L61.362 64.16L57.492 72.224L58.464 72.548ZM55.62 72.548L59.616 64.16L55.62 55.772L54.648 56.096L58.518 64.16L54.648 72.224L55.62 72.548Z" fill="#00FF63"/>
<path opacity="0.8" d="M23.256 88.224H17.72C17.544 87.728 17.24 87.056 16.888 86.576L16.152 86.768C16.44 87.184 16.696 87.76 16.872 88.224H10.856V88.944H23.256V88.224ZM15 91.744C14.856 91.04 14.392 89.936 13.848 89.136L13.144 89.328C13.656 90.128 14.104 91.232 14.248 91.984L15 91.744ZM21.096 95.072V97.088H13.032V95.072H21.096ZM13.032 99.856V97.76H21.096V99.856H13.032ZM12.264 101.184H13.032V100.544H21.096V101.136H21.88V94.384H12.264V101.184ZM19.656 92.016C20.104 91.232 20.632 90.192 21.032 89.328L20.232 89.088C19.912 89.952 19.32 91.2 18.84 92.016H9.944V92.736H24.072V92.016H19.656ZM39.96 94.496C39.816 93.872 39.464 92.928 39.176 92.16L38.584 92.384C38.712 92.704 38.856 93.056 38.984 93.44L36.696 93.712C37.752 92.448 38.824 90.768 39.736 89.104L39.112 88.784C38.872 89.312 38.568 89.84 38.28 90.352L36.376 90.576C37 89.584 37.656 88.256 38.136 86.976L37.464 86.72C37.032 88.112 36.216 89.632 35.992 90.016C35.768 90.4 35.56 90.672 35.368 90.72C35.432 90.896 35.544 91.248 35.576 91.392C35.768 91.312 36.088 91.232 37.912 90.976C37.32 91.92 36.76 92.704 36.52 92.992C36.136 93.488 35.832 93.84 35.56 93.888C35.656 94.064 35.768 94.416 35.8 94.576C36.024 94.448 36.408 94.368 39.16 93.984C39.256 94.256 39.304 94.512 39.352 94.72L39.96 94.496ZM34.28 90.928H31.72V88.928H34.28V90.928ZM34.28 93.568H31.72V91.552H34.28V93.568ZM35 88.288H32.968C33.112 87.84 33.272 87.28 33.448 86.784L32.696 86.624C32.632 87.104 32.472 87.76 32.312 88.288H31.016V94.224H35V88.288ZM30.6 94.416C30.504 93.728 30.248 92.672 29.992 91.856L29.416 92C29.512 92.384 29.608 92.784 29.704 93.2L27.368 93.504C28.456 92.24 29.528 90.576 30.424 88.912L29.816 88.592C29.56 89.152 29.256 89.696 28.92 90.224L27.256 90.4C27.88 89.472 28.488 88.224 28.968 87.008L28.312 86.752C27.912 88.064 27.112 89.504 26.872 89.872C26.648 90.224 26.456 90.496 26.264 90.528C26.344 90.704 26.44 91.056 26.472 91.2C26.648 91.12 26.968 91.04 28.568 90.832C27.976 91.744 27.416 92.496 27.208 92.784C26.808 93.28 26.504 93.632 26.248 93.696C26.344 93.872 26.456 94.208 26.456 94.352C26.696 94.24 27.08 94.144 29.832 93.76C29.896 94.048 29.944 94.352 29.976 94.592L30.6 94.416ZM30.952 96.992C29.8 98.272 27.56 99.424 25.672 99.952C25.864 100.096 26.088 100.384 26.216 100.592C28.088 99.968 30.376 98.688 31.608 97.296L30.952 96.992ZM34.52 97.456C36.296 98.384 38.472 99.744 39.56 100.688L40.024 100.048C38.92 99.152 36.728 97.808 34.968 96.912L34.52 97.456ZM33.352 95.744V94.656H32.584V95.744H25.912V96.432H32.584V101.168H33.352V96.432H40.072V95.744H33.352ZM41.88 92.416C42.072 92.336 42.408 92.256 44.328 92C43.672 93.024 43.096 93.84 42.824 94.16C42.376 94.752 42.008 95.184 41.72 95.232C41.816 95.424 41.928 95.808 41.976 95.968C42.248 95.84 42.68 95.728 46.488 95.136C46.584 95.424 46.664 95.712 46.712 95.952L47.368 95.712C47.192 94.928 46.712 93.6 46.264 92.592L45.64 92.784C45.88 93.328 46.12 93.936 46.312 94.528L42.984 95.008C44.264 93.472 45.528 91.472 46.616 89.488L45.96 89.136C45.592 89.888 45.176 90.64 44.76 91.328L42.744 91.536C43.672 90.272 44.6 88.608 45.336 86.992L44.648 86.688C43.976 88.448 42.824 90.32 42.472 90.8C42.152 91.28 41.88 91.648 41.64 91.696C41.72 91.888 41.832 92.256 41.864 92.432C41.864 92.416 41.864 92.4 41.88 92.368V92.416ZM42.456 96.768C42.264 98.08 41.992 99.504 41.624 100.512C41.784 100.576 42.12 100.704 42.264 100.752C42.584 99.776 42.904 98.256 43.112 96.896L42.456 96.768ZM44.072 96.848C44.264 97.888 44.424 99.264 44.472 100.176L45.096 100.032C45.048 99.136 44.872 97.776 44.696 96.72L44.072 96.848ZM45.8 96.56C46.088 97.344 46.408 98.368 46.536 99.072L47.16 98.816C47.016 98.16 46.68 97.136 46.392 96.336L45.8 96.56ZM54.52 90.32V92.208H48.552V90.32H54.52ZM55.224 92.88V89.664H48.552V88.416C50.872 88.16 53.48 87.776 55.16 87.264L54.504 86.72C53.032 87.2 50.2 87.616 47.832 87.872V92.592C47.832 94.992 47.736 98.384 46.744 100.832C46.936 100.896 47.256 101.088 47.4 101.2C48.376 98.784 48.536 95.328 48.552 92.88H55.224ZM53.496 97.056V94.864H54.904V97.056H53.496ZM51.528 97.056V94.864H52.92V97.056H51.528ZM49.592 97.056V94.864H50.952V97.056H49.592ZM55.56 94.192H48.936V101.184H49.592V97.728H50.952V100.944H51.528V97.728H52.92V100.864H53.496V97.728H54.904V100.288C54.904 100.416 54.872 100.448 54.744 100.448C54.632 100.464 54.296 100.464 53.912 100.448C53.992 100.624 54.104 100.88 54.12 101.04C54.68 101.04 55.032 101.04 55.272 100.928C55.496 100.8 55.56 100.656 55.56 100.304V94.192ZM67.256 99.36V95.312H70.6V99.36H67.256ZM59.448 95.312H62.6V99.36H59.448V95.312ZM62.6 90.64V94.576H59.448V90.64H62.6ZM66.504 95.312V99.36H63.352V95.312H66.504ZM66.504 90.64V94.576H63.352V90.64H66.504ZM70.6 90.64V94.576H67.256V90.64H70.6ZM67.256 89.888V86.848H66.504V89.888H63.352V86.848H62.6V89.888H58.712V101.2H59.448V100.112H70.6V101.104H71.352V89.888H67.256Z" fill="white"/>
<path d="M240.5 38.1299L9.24023 38.1299V39.0199L240.5 39.0199V38.1299Z" fill="white"/>
<path d="M244 35H229V42H244V35Z" fill="#00FF63"/>
</svg>
