<svg width="244" height="106" viewBox="0 0 244 106" fill="none" xmlns="http://www.w3.org/2000/svg">
<path d="M21.25 12.46C21.082 13.398 20.872 14.392 20.662 15.05L21.488 15.288C21.824 14.392 22.146 12.936 22.37 11.69L21.684 11.48L21.516 11.522H18.38C18.548 10.864 18.688 10.164 18.814 9.45L17.82 9.282C17.512 11.354 16.924 13.37 16.014 14.658C16.252 14.784 16.686 15.036 16.882 15.176C17.372 14.448 17.778 13.51 18.114 12.46H21.25ZM12.948 18.046V19.488H11.226V18.046H12.948ZM13.788 20.258V17.276H10.344V20.86H11.226V20.258H13.788ZM16.98 16.394V15.47H15.636V10.878H16.672V9.982H9.77V10.878H14.698V15.47H9.616V16.394H14.782V21.014C14.782 21.168 14.74 21.224 14.558 21.224C14.376 21.238 13.788 21.238 13.158 21.224C13.284 21.448 13.396 21.77 13.452 22.008C14.334 22.008 14.908 21.994 15.258 21.854C15.608 21.728 15.72 21.532 15.72 21.028V16.394H16.98ZM12.906 13.832H11.268V12.446H12.906V13.832ZM10.484 11.704V14.574H13.746V11.704H10.484ZM19.696 13.3H18.744V14.252C18.744 16.226 18.52 19.166 15.874 21.392C16.084 21.574 16.42 21.91 16.574 22.134C18.114 20.804 18.912 19.25 19.304 17.738C19.864 19.544 20.676 20.874 22.02 22.092C22.146 21.812 22.44 21.504 22.706 21.308C20.984 19.866 20.172 18.186 19.668 15.386C19.682 14.994 19.696 14.616 19.696 14.252V13.3ZM36.286 16.492H30.546V14.224H35.502V13.23H30.546V10.962C32.198 10.766 33.724 10.5 34.914 10.136L34.13 9.31C32.03 9.968 27.97 10.332 24.666 10.486C24.764 10.724 24.89 11.13 24.932 11.41C26.374 11.34 27.956 11.242 29.496 11.074V13.23H24.68V14.224H29.496V16.492H23.742V17.514H29.496V20.608C29.496 20.902 29.37 21 29.062 21C28.74 21.014 27.648 21.028 26.472 20.986C26.64 21.266 26.836 21.728 26.92 22.022C28.39 22.036 29.286 22.008 29.804 21.84C30.322 21.672 30.546 21.364 30.546 20.622V17.514H36.286V16.492ZM40.2849 23.506H41.2229L45.4089 9.898H44.4849L40.2849 23.506Z" fill="#00FF63"/>
<path d="M59.0379 14.826C59.7759 14.376 60.4419 13.836 61.0539 13.296C61.9719 13.728 62.9799 14.304 63.8259 14.826H59.0379ZM61.2699 6.69V7.77H62.4039V7.824C62.4039 8.688 62.2959 9.858 61.3599 10.83C61.0719 10.074 60.4419 9.102 59.8119 8.346L58.9659 8.778C59.2359 9.12 59.5059 9.552 59.7579 9.966L57.6879 10.794V8.004C58.8219 7.662 60.0459 7.23 60.9819 6.744L60.0279 5.934C59.2179 6.438 57.7959 6.996 56.5359 7.356V10.542C56.5359 11.154 56.2119 11.406 55.9959 11.514C56.1579 11.802 56.3919 12.306 56.4999 12.576V12.612C56.7879 12.36 57.2559 12.108 60.2439 10.848C60.3519 11.082 60.4599 11.316 60.5319 11.514L60.8379 11.352C61.0899 11.514 61.3959 11.766 61.5759 11.964L61.1799 11.802C59.9559 13.224 57.7419 14.556 55.7439 15.312C56.0139 15.564 56.3019 15.942 56.4819 16.23C57.1839 15.924 57.9039 15.528 58.6059 15.114V15.762H60.5679V16.914H56.8419V17.886H60.5679V20.622C58.8579 20.73 57.3279 20.838 56.1399 20.892L56.3379 21.972C58.8219 21.81 62.5479 21.576 66.0579 21.288L66.0759 20.262L63.8979 20.406C64.1679 19.812 64.4559 19.11 64.7079 18.444L63.6279 18.138C63.4299 18.804 63.0879 19.776 62.7999 20.478L61.7559 20.55V17.886H65.4099V16.914H61.7559V15.762H63.9159V14.88C64.4559 15.222 64.9239 15.528 65.2659 15.816L66.0039 14.988C65.0679 14.214 63.2859 13.242 61.7739 12.576C61.8819 12.45 61.9899 12.324 62.0799 12.198L61.6479 12C63.2319 10.794 63.4119 9.138 63.4119 7.878V7.77H65.0679C64.9419 10.074 64.8159 10.938 64.6539 11.19C64.5459 11.334 64.4379 11.352 64.2399 11.352C64.0779 11.352 63.6999 11.352 63.2499 11.298C63.3939 11.586 63.5019 12.036 63.5199 12.378C63.9879 12.414 64.4739 12.396 64.7439 12.36C65.1039 12.324 65.3379 12.216 65.5539 11.946C65.8959 11.532 66.0399 10.344 66.1839 7.194C66.2019 7.014 66.2019 6.69 66.2019 6.69H61.2699ZM57.6159 18.498C57.9939 19.164 58.3359 20.046 58.4619 20.622L59.5059 20.28C59.3619 19.74 58.9839 18.876 58.5879 18.228L57.6159 18.498ZM68.2719 7.968H67.0299V17.742H68.2719V7.968ZM70.2159 6.276V20.694C70.2159 20.982 70.0899 21.072 69.8019 21.09C69.5319 21.09 68.5959 21.09 67.5519 21.072C67.7319 21.45 67.9119 22.008 67.9659 22.386C69.4059 22.386 70.2519 22.35 70.7739 22.134C71.2779 21.9 71.4939 21.522 71.4939 20.694V6.276H70.2159ZM85.2459 10.596H86.5599V8.778H89.9619V7.554H86.5599V5.934H85.2459V7.554H82.3659V8.778H85.2459V10.596ZM77.3799 10.578H78.6939V8.778H81.6279V7.554H78.6939V5.934H77.3799V7.554H74.1759V8.778H77.3799V10.578ZM87.1539 20.298H79.0539V16.914H87.1539V20.298ZM89.9799 13.296V12.036H81.3399C81.5919 11.478 81.8079 10.884 82.0059 10.272L80.6739 9.966C80.4579 10.686 80.1879 11.388 79.8819 12.036H74.0499V13.296H79.2519C77.9199 15.636 76.0299 17.472 73.6539 18.732C73.9419 18.984 74.4639 19.524 74.6439 19.794C75.7779 19.128 76.8219 18.336 77.7399 17.418V22.386H79.0539V21.504H87.1539V22.35H88.5399V15.708H79.2159C79.7739 14.97 80.2959 14.16 80.7279 13.296H89.9799ZM103.12 10.65H104.452V8.904H107.71V7.734H104.452V5.952H103.12V7.734H100.42V8.904H103.12V10.65ZM95.7579 10.686H97.0719V8.922H99.5379V7.752H97.0719V5.952H95.7579V7.752H92.4099V8.922H95.7579V10.686ZM100.258 18.534C102.706 19.596 105.838 21.252 107.404 22.368L108.07 21.252C106.486 20.154 103.3 18.57 100.906 17.598L100.258 18.534ZM100.582 12.666H104.848V15.924H100.51C100.564 15.51 100.582 15.096 100.582 14.7V12.666ZM95.2359 15.924V12.666H99.2499V14.7C99.2499 15.096 99.2319 15.51 99.1779 15.924H95.2359ZM106.18 15.924V11.478H100.582V9.732H99.2499V11.478H93.9399V15.924H91.9239V17.166H98.8539C98.1339 18.804 96.3519 20.28 91.7619 21.306C92.0499 21.594 92.4099 22.116 92.5539 22.404C97.6839 21.162 99.5919 19.29 100.258 17.166H108.088V15.924H106.18Z" fill="white"/>
<path d="M10.638 64.16L14.508 56.096L13.536 55.772L9.54 64.16L13.536 72.548L14.508 72.224L10.638 64.16ZM13.482 64.16L17.352 56.096L16.38 55.772L12.384 64.16L16.38 72.548L17.352 72.224L13.482 64.16ZM23.472 71.234C26.226 71.234 27.954 69.578 27.954 67.49C27.954 65.528 26.766 64.628 25.236 63.962L23.346 63.152C22.32 62.72 21.168 62.234 21.168 60.956C21.168 59.768 22.14 59.012 23.634 59.012C24.858 59.012 25.83 59.498 26.64 60.254L27.522 59.192C26.586 58.22 25.2 57.554 23.634 57.554C21.24 57.554 19.476 59.03 19.476 61.064C19.476 62.99 20.934 63.926 22.158 64.448L24.066 65.276C25.308 65.834 26.262 66.266 26.262 67.616C26.262 68.912 25.218 69.776 23.49 69.776C22.122 69.776 20.79 69.128 19.836 68.138L18.846 69.272C19.998 70.478 21.6 71.234 23.472 71.234ZM30.3962 71H32.0342V63.908C33.0242 62.918 33.7082 62.414 34.7162 62.414C36.0122 62.414 36.5702 63.188 36.5702 65.024V71H38.2082V64.808C38.2082 62.306 37.2722 60.974 35.2202 60.974C33.8882 60.974 32.8802 61.712 31.9802 62.612L32.0342 60.596V56.672H30.3962V71ZM43.5798 71.234C44.7858 71.234 45.8838 70.604 46.8198 69.83H46.8738L47.0178 71H48.3678V64.988C48.3678 62.576 47.3598 60.974 44.9838 60.974C43.4178 60.974 42.0318 61.676 41.1318 62.252L41.7798 63.386C42.5538 62.864 43.5798 62.342 44.7138 62.342C46.3158 62.342 46.7298 63.548 46.7298 64.808C42.5718 65.276 40.7178 66.338 40.7178 68.462C40.7178 70.226 41.9418 71.234 43.5798 71.234ZM44.0478 69.92C43.0758 69.92 42.3198 69.47 42.3198 68.354C42.3198 67.094 43.4358 66.284 46.7298 65.888V68.624C45.7758 69.47 45.0018 69.92 44.0478 69.92ZM53.218 71.234C53.65 71.234 53.938 71.18 54.172 71.09L53.938 69.83C53.758 69.866 53.686 69.866 53.596 69.866C53.344 69.866 53.128 69.668 53.128 69.164V56.672H51.49V69.056C51.49 70.442 51.994 71.234 53.218 71.234ZM58.3508 71.234C58.7828 71.234 59.0708 71.18 59.3048 71.09L59.0708 69.83C58.8908 69.866 58.8188 69.866 58.7288 69.866C58.4768 69.866 58.2608 69.668 58.2608 69.164V56.672H56.6228V69.056C56.6228 70.442 57.1268 71.234 58.3508 71.234ZM67.383 71H69.363L71.325 63.044C71.541 62 71.775 61.046 71.991 60.038H72.063C72.279 61.046 72.477 62 72.711 63.044L74.709 71H76.707L79.443 57.806H77.841L76.455 64.988C76.203 66.392 75.951 67.814 75.699 69.254H75.609C75.303 67.814 74.997 66.392 74.673 64.988L72.819 57.806H71.307L69.489 64.988C69.165 66.41 68.841 67.832 68.535 69.254H68.463C68.211 67.832 67.941 66.41 67.689 64.988L66.303 57.806H64.575L67.383 71ZM85.5257 71.234C86.8577 71.234 87.9017 70.784 88.7657 70.226L88.1717 69.146C87.4517 69.632 86.6777 69.92 85.7237 69.92C83.8697 69.92 82.5917 68.588 82.4837 66.5H89.0717C89.1077 66.266 89.1437 65.924 89.1437 65.564C89.1437 62.774 87.7397 60.974 85.2557 60.974C82.9877 60.974 80.8457 62.954 80.8457 66.122C80.8457 69.344 82.9337 71.234 85.5257 71.234ZM82.4657 65.33C82.6637 63.404 83.8877 62.288 85.2737 62.288C86.8037 62.288 87.7037 63.35 87.7037 65.33H82.4657ZM98.4739 71H100.148V59.21H104.144V57.806H94.4779V59.21H98.4739V71ZM107.142 71.234C108.348 71.234 109.446 70.604 110.382 69.83H110.436L110.58 71H111.93V64.988C111.93 62.576 110.922 60.974 108.546 60.974C106.98 60.974 105.594 61.676 104.694 62.252L105.342 63.386C106.116 62.864 107.142 62.342 108.276 62.342C109.878 62.342 110.292 63.548 110.292 64.808C106.134 65.276 104.28 66.338 104.28 68.462C104.28 70.226 105.504 71.234 107.142 71.234ZM107.61 69.92C106.638 69.92 105.882 69.47 105.882 68.354C105.882 67.094 106.998 66.284 110.292 65.888V68.624C109.338 69.47 108.564 69.92 107.61 69.92ZM116.78 71.234C117.212 71.234 117.5 71.18 117.734 71.09L117.5 69.83C117.32 69.866 117.248 69.866 117.158 69.866C116.906 69.866 116.69 69.668 116.69 69.164V56.672H115.052V69.056C115.052 70.442 115.556 71.234 116.78 71.234ZM120.185 71H121.805V68.426L123.641 66.284L126.503 71H128.285L124.577 65.15L127.853 61.226H126.035L121.841 66.392H121.805V56.672H120.185V71ZM132.925 72.548L136.921 64.16L132.925 55.772L131.953 56.096L135.823 64.16L131.953 72.224L132.925 72.548ZM130.081 72.548L134.077 64.16L130.081 55.772L129.109 56.096L132.979 64.16L129.109 72.224L130.081 72.548Z" fill="#00FF63"/>
<path opacity="0.8" d="M23.256 88.224H17.72C17.544 87.728 17.24 87.056 16.888 86.576L16.152 86.768C16.44 87.184 16.696 87.76 16.872 88.224H10.856V88.944H23.256V88.224ZM15 91.744C14.856 91.04 14.392 89.936 13.848 89.136L13.144 89.328C13.656 90.128 14.104 91.232 14.248 91.984L15 91.744ZM21.096 95.072V97.088H13.032V95.072H21.096ZM13.032 99.856V97.76H21.096V99.856H13.032ZM12.264 101.184H13.032V100.544H21.096V101.136H21.88V94.384H12.264V101.184ZM19.656 92.016C20.104 91.232 20.632 90.192 21.032 89.328L20.232 89.088C19.912 89.952 19.32 91.2 18.84 92.016H9.944V92.736H24.072V92.016H19.656ZM39.96 94.496C39.816 93.872 39.464 92.928 39.176 92.16L38.584 92.384C38.712 92.704 38.856 93.056 38.984 93.44L36.696 93.712C37.752 92.448 38.824 90.768 39.736 89.104L39.112 88.784C38.872 89.312 38.568 89.84 38.28 90.352L36.376 90.576C37 89.584 37.656 88.256 38.136 86.976L37.464 86.72C37.032 88.112 36.216 89.632 35.992 90.016C35.768 90.4 35.56 90.672 35.368 90.72C35.432 90.896 35.544 91.248 35.576 91.392C35.768 91.312 36.088 91.232 37.912 90.976C37.32 91.92 36.76 92.704 36.52 92.992C36.136 93.488 35.832 93.84 35.56 93.888C35.656 94.064 35.768 94.416 35.8 94.576C36.024 94.448 36.408 94.368 39.16 93.984C39.256 94.256 39.304 94.512 39.352 94.72L39.96 94.496ZM34.28 90.928H31.72V88.928H34.28V90.928ZM34.28 93.568H31.72V91.552H34.28V93.568ZM35 88.288H32.968C33.112 87.84 33.272 87.28 33.448 86.784L32.696 86.624C32.632 87.104 32.472 87.76 32.312 88.288H31.016V94.224H35V88.288ZM30.6 94.416C30.504 93.728 30.248 92.672 29.992 91.856L29.416 92C29.512 92.384 29.608 92.784 29.704 93.2L27.368 93.504C28.456 92.24 29.528 90.576 30.424 88.912L29.816 88.592C29.56 89.152 29.256 89.696 28.92 90.224L27.256 90.4C27.88 89.472 28.488 88.224 28.968 87.008L28.312 86.752C27.912 88.064 27.112 89.504 26.872 89.872C26.648 90.224 26.456 90.496 26.264 90.528C26.344 90.704 26.44 91.056 26.472 91.2C26.648 91.12 26.968 91.04 28.568 90.832C27.976 91.744 27.416 92.496 27.208 92.784C26.808 93.28 26.504 93.632 26.248 93.696C26.344 93.872 26.456 94.208 26.456 94.352C26.696 94.24 27.08 94.144 29.832 93.76C29.896 94.048 29.944 94.352 29.976 94.592L30.6 94.416ZM30.952 96.992C29.8 98.272 27.56 99.424 25.672 99.952C25.864 100.096 26.088 100.384 26.216 100.592C28.088 99.968 30.376 98.688 31.608 97.296L30.952 96.992ZM34.52 97.456C36.296 98.384 38.472 99.744 39.56 100.688L40.024 100.048C38.92 99.152 36.728 97.808 34.968 96.912L34.52 97.456ZM33.352 95.744V94.656H32.584V95.744H25.912V96.432H32.584V101.168H33.352V96.432H40.072V95.744H33.352ZM41.88 92.416C42.072 92.336 42.408 92.256 44.328 92C43.672 93.024 43.096 93.84 42.824 94.16C42.376 94.752 42.008 95.184 41.72 95.232C41.816 95.424 41.928 95.808 41.976 95.968C42.248 95.84 42.68 95.728 46.488 95.136C46.584 95.424 46.664 95.712 46.712 95.952L47.368 95.712C47.192 94.928 46.712 93.6 46.264 92.592L45.64 92.784C45.88 93.328 46.12 93.936 46.312 94.528L42.984 95.008C44.264 93.472 45.528 91.472 46.616 89.488L45.96 89.136C45.592 89.888 45.176 90.64 44.76 91.328L42.744 91.536C43.672 90.272 44.6 88.608 45.336 86.992L44.648 86.688C43.976 88.448 42.824 90.32 42.472 90.8C42.152 91.28 41.88 91.648 41.64 91.696C41.72 91.888 41.832 92.256 41.864 92.432C41.864 92.416 41.864 92.4 41.88 92.368V92.416ZM42.456 96.768C42.264 98.08 41.992 99.504 41.624 100.512C41.784 100.576 42.12 100.704 42.264 100.752C42.584 99.776 42.904 98.256 43.112 96.896L42.456 96.768ZM44.072 96.848C44.264 97.888 44.424 99.264 44.472 100.176L45.096 100.032C45.048 99.136 44.872 97.776 44.696 96.72L44.072 96.848ZM45.8 96.56C46.088 97.344 46.408 98.368 46.536 99.072L47.16 98.816C47.016 98.16 46.68 97.136 46.392 96.336L45.8 96.56ZM54.52 90.32V92.208H48.552V90.32H54.52ZM55.224 92.88V89.664H48.552V88.416C50.872 88.16 53.48 87.776 55.16 87.264L54.504 86.72C53.032 87.2 50.2 87.616 47.832 87.872V92.592C47.832 94.992 47.736 98.384 46.744 100.832C46.936 100.896 47.256 101.088 47.4 101.2C48.376 98.784 48.536 95.328 48.552 92.88H55.224ZM53.496 97.056V94.864H54.904V97.056H53.496ZM51.528 97.056V94.864H52.92V97.056H51.528ZM49.592 97.056V94.864H50.952V97.056H49.592ZM55.56 94.192H48.936V101.184H49.592V97.728H50.952V100.944H51.528V97.728H52.92V100.864H53.496V97.728H54.904V100.288C54.904 100.416 54.872 100.448 54.744 100.448C54.632 100.464 54.296 100.464 53.912 100.448C53.992 100.624 54.104 100.88 54.12 101.04C54.68 101.04 55.032 101.04 55.272 100.928C55.496 100.8 55.56 100.656 55.56 100.304V94.192ZM67.256 99.36V95.312H70.6V99.36H67.256ZM59.448 95.312H62.6V99.36H59.448V95.312ZM62.6 90.64V94.576H59.448V90.64H62.6ZM66.504 95.312V99.36H63.352V95.312H66.504ZM66.504 90.64V94.576H63.352V90.64H66.504ZM70.6 90.64V94.576H67.256V90.64H70.6ZM67.256 89.888V86.848H66.504V89.888H63.352V86.848H62.6V89.888H58.712V101.2H59.448V100.112H70.6V101.104H71.352V89.888H67.256Z" fill="white"/>
<path d="M240.5 38.1299L9.23999 38.1299V39.0199L240.5 39.0199V38.1299Z" fill="white"/>
<path d="M244 35H229V42H244V35Z" fill="#00FF63"/>
</svg>
