<svg width="244" height="106" viewBox="0 0 244 106" fill="none" xmlns="http://www.w3.org/2000/svg">
<path d="M22.25 12.46C22.082 13.398 21.872 14.392 21.662 15.05L22.488 15.288C22.824 14.392 23.146 12.936 23.37 11.69L22.684 11.48L22.516 11.522H19.38C19.548 10.864 19.688 10.164 19.814 9.45L18.82 9.282C18.512 11.354 17.924 13.37 17.014 14.658C17.252 14.784 17.686 15.036 17.882 15.176C18.372 14.448 18.778 13.51 19.114 12.46H22.25ZM13.948 18.046V19.488H12.226V18.046H13.948ZM14.788 20.258V17.276H11.344V20.86H12.226V20.258H14.788ZM17.98 16.394V15.47H16.636V10.878H17.672V9.982H10.77V10.878H15.698V15.47H10.616V16.394H15.782V21.014C15.782 21.168 15.74 21.224 15.558 21.224C15.376 21.238 14.788 21.238 14.158 21.224C14.284 21.448 14.396 21.77 14.452 22.008C15.334 22.008 15.908 21.994 16.258 21.854C16.608 21.728 16.72 21.532 16.72 21.028V16.394H17.98ZM13.906 13.832H12.268V12.446H13.906V13.832ZM11.484 11.704V14.574H14.746V11.704H11.484ZM20.696 13.3H19.744V14.252C19.744 16.226 19.52 19.166 16.874 21.392C17.084 21.574 17.42 21.91 17.574 22.134C19.114 20.804 19.912 19.25 20.304 17.738C20.864 19.544 21.676 20.874 23.02 22.092C23.146 21.812 23.44 21.504 23.706 21.308C21.984 19.866 21.172 18.186 20.668 15.386C20.682 14.994 20.696 14.616 20.696 14.252V13.3ZM37.286 16.492H31.546V14.224H36.502V13.23H31.546V10.962C33.198 10.766 34.724 10.5 35.914 10.136L35.13 9.31C33.03 9.968 28.97 10.332 25.666 10.486C25.764 10.724 25.89 11.13 25.932 11.41C27.374 11.34 28.956 11.242 30.496 11.074V13.23H25.68V14.224H30.496V16.492H24.742V17.514H30.496V20.608C30.496 20.902 30.37 21 30.062 21C29.74 21.014 28.648 21.028 27.472 20.986C27.64 21.266 27.836 21.728 27.92 22.022C29.39 22.036 30.286 22.008 30.804 21.84C31.322 21.672 31.546 21.364 31.546 20.622V17.514H37.286V16.492ZM41.2849 23.506H42.2229L46.4089 9.898H45.4849L41.2849 23.506Z" fill="#00FF63"/>
<path d="M58.1795 8.4C58.0535 7.77 57.6395 6.78 57.2255 6.042L56.2355 6.402C56.6315 7.158 57.0095 8.184 57.1355 8.814L58.1795 8.4ZM59.6555 8.994H54.8315V10.092H59.6555V8.994ZM58.1255 17.238V20.262H56.4335V17.238H58.1255ZM59.1515 16.158H55.4075V22.188H56.4335V21.342H59.1515V16.158ZM55.4435 14.808H59.2055V13.728H55.4435V14.808ZM55.4435 12.414H59.2055V11.352H55.4435V12.414ZM61.5635 14.088H63.7955V15.294C63.0215 15.366 62.2655 15.438 61.5635 15.51V14.088ZM63.7955 9.048V10.542H61.5635V9.048H63.7955ZM63.7955 13.08H61.5635V11.55H63.7955V13.08ZM65.3075 14.484C65.1815 14.682 65.0555 14.844 64.9295 15.024V7.95H62.9135C63.1475 7.41 63.3995 6.744 63.5975 6.168L62.3015 5.934C62.1935 6.51 61.9775 7.302 61.7975 7.95H60.4295V15.6L59.6915 15.672L59.8175 16.752C60.9875 16.644 62.3735 16.482 63.7955 16.32V16.392C62.5715 17.67 61.0055 18.804 59.5115 19.596C59.7095 19.866 59.9975 20.406 60.1055 20.658C61.3655 19.92 62.6615 18.966 63.7955 17.868V20.802C63.7955 21.054 63.7235 21.126 63.4895 21.126C63.2555 21.144 62.5175 21.162 61.7075 21.126C61.8875 21.45 62.0315 21.936 62.0855 22.26C63.1835 22.26 63.9215 22.242 64.3535 22.044C64.8035 21.828 64.9295 21.486 64.9295 20.82V16.698C65.4335 16.104 65.9195 15.474 66.2975 14.844L65.3075 14.484ZM68.1875 16.698C68.0075 15.654 67.4315 13.926 66.8195 12.594L65.7755 12.882C66.3695 14.232 66.9275 15.996 67.0895 17.058L68.1875 16.698ZM70.9955 9.894H69.9695V6.078H68.7275V9.894H65.4155V11.136H68.7275V20.676C68.7275 20.946 68.6555 21.018 68.3855 21.036C68.1515 21.036 67.3235 21.054 66.4415 21.018C66.6215 21.36 66.8195 21.918 66.8915 22.26C68.0435 22.26 68.8355 22.206 69.3215 21.99C69.7895 21.792 69.9695 21.45 69.9695 20.676V11.136H70.9955V9.894ZM77.5655 7.986C78.6815 7.752 79.7435 7.464 80.5715 7.158L79.6715 6.114C78.0875 6.744 75.2795 7.284 72.9035 7.608C73.0655 7.914 73.2095 8.346 73.2815 8.67C74.2355 8.544 75.2435 8.4 76.2515 8.238V11.226H72.7415V12.468H75.9095C75.0995 14.718 73.6595 17.184 72.2915 18.552C72.5435 18.876 72.8855 19.416 73.0295 19.776C74.1815 18.534 75.3695 16.5 76.2515 14.412V22.332H77.5655V14.466C78.3395 15.474 79.3475 16.824 79.7615 17.508L80.5715 16.41C80.1215 15.852 78.2495 13.656 77.5655 12.936V12.468H80.6975V11.226H77.5655V7.986ZM82.6235 18.804V8.886H86.6375V18.804H82.6235ZM81.3095 7.608V21.576H82.6235V20.1H86.6375V21.45H87.9695V7.608H81.3095ZM90.8315 7.986H94.6655V10.74H91.1555C91.1555 12.396 91.0835 14.592 90.9755 15.96H94.6655C94.4855 19.218 94.2875 20.496 93.9815 20.82C93.8195 20.982 93.6395 21.018 93.3515 21.018C93.0095 21.018 92.1635 21 91.2815 20.91C91.5155 21.288 91.6595 21.81 91.6955 22.224C92.5595 22.26 93.4235 22.278 93.8735 22.242C94.3775 22.188 94.7195 22.062 95.0255 21.702C95.5115 21.144 95.7275 19.56 95.9435 15.348C95.9615 15.168 95.9615 14.772 95.9615 14.772H92.2355C92.2715 13.908 92.3075 12.9 92.3255 11.946H95.9615V6.78H90.8315V7.986ZM106.96 21.594C106.51 20.262 105.358 18.21 104.278 16.68L103.162 17.13C103.666 17.886 104.206 18.768 104.656 19.632L98.9495 20.1C101.182 17.94 103.486 15.15 105.484 12.162L104.242 11.478C103.684 12.396 103.072 13.314 102.442 14.178L99.0575 14.394C100.084 13.152 101.128 11.622 101.974 10.074H106.888V8.832H101.866L102.82 8.436C102.568 7.77 101.992 6.744 101.47 5.97L100.3 6.384C100.786 7.158 101.308 8.148 101.578 8.832H96.6815V10.074H100.48C99.6335 11.712 98.5355 13.242 98.1575 13.692C97.7435 14.214 97.4015 14.574 97.0955 14.646C97.2395 14.988 97.4375 15.618 97.5095 15.888C97.8515 15.762 98.3555 15.672 101.524 15.42C100.228 17.076 99.0395 18.408 98.4995 18.912C97.6535 19.776 97.0955 20.316 96.6095 20.442C96.7895 20.766 97.0235 21.432 97.0955 21.684C97.6175 21.486 98.3915 21.396 105.214 20.73C105.43 21.252 105.61 21.702 105.736 22.098L106.96 21.594Z" fill="white"/>
<path d="M10.638 64.16L14.508 56.096L13.536 55.772L9.54 64.16L13.536 72.548L14.508 72.224L10.638 64.16ZM13.482 64.16L17.352 56.096L16.38 55.772L12.384 64.16L16.38 72.548L17.352 72.224L13.482 64.16ZM35.226 60.92C34.506 59.57 32.832 57.536 31.428 56.024L30.474 56.636C31.896 58.166 33.498 60.29 34.218 61.64L35.226 60.92ZM22.986 58.4C22.77 57.734 22.284 56.762 21.816 56.024L20.7 56.402C21.132 57.158 21.6 58.166 21.798 58.832L22.986 58.4ZM25.056 58.994H18.792V60.092H25.056V58.994ZM24.408 61.352H19.512V62.414H24.408V61.352ZM19.512 64.754H24.408V63.692H19.512V64.754ZM23.418 67.202V70.172H20.646V67.202H23.418ZM24.57 66.086H19.458V72.134H20.646V71.288H24.57V66.086ZM27.792 62H32.148V64.916H27.792V62ZM32.508 70.892C32.13 70.892 32.076 70.82 32.076 70.388V66.104H33.462V60.794H26.532C27.558 59.606 28.512 58.112 29.178 56.582L27.936 56.204C27.198 57.968 25.956 59.696 24.606 60.83C24.912 61.046 25.398 61.514 25.614 61.748C25.92 61.46 26.208 61.154 26.514 60.812V66.104H28.044C27.81 68.462 27.198 70.388 24.84 71.432C25.11 71.648 25.488 72.134 25.65 72.458C28.332 71.18 29.07 68.93 29.34 66.104H30.762V70.406C30.762 71.72 31.068 72.116 32.292 72.116H33.768C34.794 72.116 35.136 71.54 35.28 69.272C34.902 69.182 34.38 68.966 34.11 68.768C34.056 70.622 33.984 70.892 33.606 70.892H32.508ZM46.35 59.426H43.452V57.914H46.35V59.426ZM50.616 60.524V62.954H47.628V60.524H50.616ZM43.452 60.524H46.35V62.954H43.452V60.524ZM39.474 60.524H42.174V62.954H39.474V60.524ZM42.174 59.426H38.196V64.052H51.93V59.426H47.628V57.914H52.686V56.726H37.314V57.914H42.174V59.426ZM47.718 67.31C47.07 68.192 46.242 68.876 45.234 69.416C43.974 69.182 42.696 68.93 41.4 68.714C41.724 68.3 42.066 67.814 42.408 67.31H47.718ZM52.974 67.31V66.158H49.878C49.986 65.942 50.058 65.708 50.13 65.492L48.852 65.114C48.726 65.492 48.582 65.816 48.402 66.158H43.164C43.506 65.636 43.812 65.096 44.046 64.574L42.75 64.268C42.444 64.862 42.084 65.51 41.67 66.158H37.026V67.31H40.914C40.374 68.084 39.816 68.822 39.294 69.398C40.716 69.632 42.12 69.902 43.47 70.172C41.742 70.748 39.618 71.054 36.972 71.216C37.188 71.522 37.422 72.008 37.512 72.386C40.896 72.116 43.542 71.594 45.54 70.64C47.916 71.18 49.968 71.792 51.462 72.35L52.668 71.396C51.174 70.856 49.176 70.316 46.98 69.812C47.934 69.146 48.708 68.318 49.302 67.31H52.974ZM70.686 58.058H66.78C66.6 57.41 66.276 56.546 65.952 55.844L64.692 56.078C64.962 56.69 65.232 57.446 65.376 58.058H61.128V59.246H70.686V58.058ZM64.368 62.504C64.26 61.676 63.864 60.362 63.432 59.426L62.262 59.66C62.658 60.65 63.018 61.946 63.108 62.774L64.368 62.504ZM59.832 56.636L59.616 56.69H55.458V72.386H56.682V57.914H59.112C58.734 59.12 58.194 60.686 57.69 61.964C58.968 63.386 59.292 64.61 59.292 65.6C59.292 66.14 59.202 66.626 58.914 66.824C58.77 66.932 58.59 66.968 58.356 66.986C58.068 67.004 57.726 66.986 57.312 66.968C57.528 67.31 57.654 67.832 57.672 68.174C58.05 68.21 58.518 68.192 58.86 68.156C59.238 68.102 59.562 67.994 59.814 67.814C60.318 67.454 60.534 66.662 60.534 65.69C60.534 64.61 60.228 63.296 58.914 61.82C59.526 60.398 60.192 58.634 60.714 57.176L59.832 56.636ZM68.634 66.824V70.28H63.054V66.824H68.634ZM61.758 72.404H63.054V71.504H68.634V72.332H69.948V65.636H61.758V72.404ZM68.346 62.9C68.832 61.982 69.336 60.74 69.75 59.714L68.382 59.372C68.094 60.416 67.536 61.892 67.05 62.9H60.66V64.088H71.172V62.9H68.346ZM88.542 59.408C87.948 58.562 86.706 57.302 85.662 56.42L84.636 57.122C85.698 58.04 86.904 59.336 87.462 60.182L88.542 59.408ZM86.922 63.332C86.31 64.484 85.518 65.582 84.564 66.608C84.258 65.42 84.006 64.034 83.826 62.504H88.974V61.226H83.682C83.538 59.624 83.466 57.896 83.466 56.096H82.098C82.116 57.86 82.188 59.588 82.35 61.226H78.228V58.094C79.326 57.86 80.37 57.572 81.234 57.266L80.28 56.168C78.588 56.798 75.69 57.41 73.17 57.788C73.35 58.112 73.53 58.58 73.602 58.904C74.664 58.76 75.798 58.58 76.914 58.364V61.226H73.062V62.504H76.914V65.654C75.348 65.978 73.89 66.284 72.81 66.464L73.188 67.814C74.268 67.58 75.564 67.274 76.914 66.986V70.64C76.914 70.964 76.806 71.054 76.482 71.054C76.176 71.072 75.114 71.09 73.962 71.036C74.16 71.414 74.394 72.026 74.466 72.386C75.924 72.386 76.896 72.35 77.454 72.134C78.012 71.918 78.228 71.522 78.228 70.658V66.662C79.326 66.41 80.442 66.158 81.54 65.888L81.45 64.682C80.388 64.916 79.29 65.15 78.228 65.384V62.504H82.458C82.692 64.448 83.034 66.23 83.466 67.724C82.188 68.912 80.712 69.902 79.2 70.64C79.542 70.928 79.92 71.378 80.118 71.702C81.468 71 82.746 70.1 83.916 69.056C84.744 71.162 85.824 72.422 87.246 72.422C88.596 72.422 89.064 71.558 89.316 68.588C88.938 68.462 88.47 68.156 88.182 67.868C88.074 70.172 87.858 71.09 87.372 71.09C86.472 71.09 85.662 69.938 84.978 68.048C86.238 66.77 87.3 65.348 88.11 63.818L86.922 63.332ZM94.464 72.548L98.46 64.16L94.464 55.772L93.492 56.096L97.362 64.16L93.492 72.224L94.464 72.548ZM91.62 72.548L95.616 64.16L91.62 55.772L90.648 56.096L94.518 64.16L90.648 72.224L91.62 72.548Z" fill="#00FF63"/>
<path opacity="0.8" d="M23.256 88.224H17.72C17.544 87.728 17.24 87.056 16.888 86.576L16.152 86.768C16.44 87.184 16.696 87.76 16.872 88.224H10.856V88.944H23.256V88.224ZM15 91.744C14.856 91.04 14.392 89.936 13.848 89.136L13.144 89.328C13.656 90.128 14.104 91.232 14.248 91.984L15 91.744ZM21.096 95.072V97.088H13.032V95.072H21.096ZM13.032 99.856V97.76H21.096V99.856H13.032ZM12.264 101.184H13.032V100.544H21.096V101.136H21.88V94.384H12.264V101.184ZM19.656 92.016C20.104 91.232 20.632 90.192 21.032 89.328L20.232 89.088C19.912 89.952 19.32 91.2 18.84 92.016H9.944V92.736H24.072V92.016H19.656ZM39.96 94.496C39.816 93.872 39.464 92.928 39.176 92.16L38.584 92.384C38.712 92.704 38.856 93.056 38.984 93.44L36.696 93.712C37.752 92.448 38.824 90.768 39.736 89.104L39.112 88.784C38.872 89.312 38.568 89.84 38.28 90.352L36.376 90.576C37 89.584 37.656 88.256 38.136 86.976L37.464 86.72C37.032 88.112 36.216 89.632 35.992 90.016C35.768 90.4 35.56 90.672 35.368 90.72C35.432 90.896 35.544 91.248 35.576 91.392C35.768 91.312 36.088 91.232 37.912 90.976C37.32 91.92 36.76 92.704 36.52 92.992C36.136 93.488 35.832 93.84 35.56 93.888C35.656 94.064 35.768 94.416 35.8 94.576C36.024 94.448 36.408 94.368 39.16 93.984C39.256 94.256 39.304 94.512 39.352 94.72L39.96 94.496ZM34.28 90.928H31.72V88.928H34.28V90.928ZM34.28 93.568H31.72V91.552H34.28V93.568ZM35 88.288H32.968C33.112 87.84 33.272 87.28 33.448 86.784L32.696 86.624C32.632 87.104 32.472 87.76 32.312 88.288H31.016V94.224H35V88.288ZM30.6 94.416C30.504 93.728 30.248 92.672 29.992 91.856L29.416 92C29.512 92.384 29.608 92.784 29.704 93.2L27.368 93.504C28.456 92.24 29.528 90.576 30.424 88.912L29.816 88.592C29.56 89.152 29.256 89.696 28.92 90.224L27.256 90.4C27.88 89.472 28.488 88.224 28.968 87.008L28.312 86.752C27.912 88.064 27.112 89.504 26.872 89.872C26.648 90.224 26.456 90.496 26.264 90.528C26.344 90.704 26.44 91.056 26.472 91.2C26.648 91.12 26.968 91.04 28.568 90.832C27.976 91.744 27.416 92.496 27.208 92.784C26.808 93.28 26.504 93.632 26.248 93.696C26.344 93.872 26.456 94.208 26.456 94.352C26.696 94.24 27.08 94.144 29.832 93.76C29.896 94.048 29.944 94.352 29.976 94.592L30.6 94.416ZM30.952 96.992C29.8 98.272 27.56 99.424 25.672 99.952C25.864 100.096 26.088 100.384 26.216 100.592C28.088 99.968 30.376 98.688 31.608 97.296L30.952 96.992ZM34.52 97.456C36.296 98.384 38.472 99.744 39.56 100.688L40.024 100.048C38.92 99.152 36.728 97.808 34.968 96.912L34.52 97.456ZM33.352 95.744V94.656H32.584V95.744H25.912V96.432H32.584V101.168H33.352V96.432H40.072V95.744H33.352ZM55.08 86.848H54.376V93.6C54.376 93.808 54.312 93.872 54.072 93.872C53.832 93.888 53.064 93.904 52.088 93.872C52.216 94.096 52.328 94.352 52.376 94.56C53.496 94.56 54.2 94.544 54.584 94.432C54.952 94.304 55.08 94.112 55.08 93.6V86.848ZM52.104 87.504H51.384V92.72H52.104V87.504ZM45.688 91.328H42.824V94.224H43.496V91.936H45.688V94.688H46.392V91.936H48.76V93.376C48.76 93.504 48.728 93.552 48.568 93.568C48.408 93.568 47.992 93.568 47.384 93.552C47.48 93.744 47.576 93.936 47.608 94.128C48.344 94.128 48.808 94.128 49.096 94.016C49.384 93.904 49.432 93.728 49.432 93.376V91.328H46.392V90.32H49.96V89.696H46.392V88.496H49.32V87.888H46.392V86.688H45.688V87.888H43.848C43.976 87.552 44.12 87.232 44.232 86.896L43.56 86.736C43.272 87.648 42.84 88.576 42.264 89.264C42.44 89.328 42.76 89.472 42.888 89.584C43.128 89.264 43.336 88.912 43.544 88.496H45.688V89.696H41.896V90.32H45.688V91.328ZM54.52 96.448C53.768 96.992 52.472 97.712 51.432 98.208C50.728 97.616 50.152 96.912 49.736 96.112H56.056V95.44H49.784C49.608 95.056 49.32 94.528 49.064 94.144L48.344 94.336C48.552 94.672 48.776 95.088 48.936 95.44H41.976V96.112H48.008C46.392 97.216 43.832 98.16 41.704 98.608C41.864 98.752 42.072 99.024 42.184 99.2C43.112 98.976 44.12 98.656 45.128 98.256V99.424C45.128 100.08 44.712 100.352 44.472 100.48C44.584 100.624 44.76 100.944 44.808 101.136C45.096 100.96 45.544 100.832 49.992 99.744C49.992 99.616 49.976 99.36 49.992 99.152L45.88 100.048V97.952C47.064 97.424 48.184 96.816 49.016 96.16C50.216 98.688 52.584 100.304 55.752 100.96C55.864 100.752 56.056 100.464 56.216 100.32C54.552 100.016 53.112 99.44 51.944 98.624C53 98.128 54.2 97.488 55.128 96.848L54.52 96.448ZM61.896 86.736C60.936 89.248 59.384 91.728 57.736 93.312C57.896 93.472 58.136 93.856 58.216 94.016C58.888 93.344 59.528 92.544 60.136 91.68V101.152H60.92V90.448C61.576 89.344 62.152 88.16 62.632 86.96L61.896 86.736ZM72.248 90.128V89.392H65.256C65.624 88.656 65.944 87.872 66.232 87.088L65.512 86.896C64.68 89.264 63.368 91.6 61.912 93.12C62.072 93.232 62.392 93.504 62.52 93.616C63.368 92.672 64.184 91.472 64.904 90.128H66.296V101.168H67.064V97.072H72.152V96.336H67.064V93.536H71.928V92.816H67.064V90.128H72.248ZM80.648 86.752C80.616 89.04 80.584 97.232 73.848 100.528C74.04 100.672 74.296 100.896 74.44 101.088C78.776 98.896 80.424 94.736 81.048 91.328C81.72 94.32 83.336 99.024 87.736 101.04C87.864 100.832 88.088 100.576 88.296 100.416C82.536 97.856 81.592 90.544 81.368 88.944C81.448 88.032 81.448 87.264 81.464 86.752H80.648Z" fill="white"/>
<path d="M240.5 38.1299L9.24023 38.1299V39.0199L240.5 39.0199V38.1299Z" fill="white"/>
<path d="M244 35H229V42H244V35Z" fill="#00FF63"/>
</svg>
