<svg width="244" height="106" viewBox="0 0 244 106" fill="none" xmlns="http://www.w3.org/2000/svg">
<path d="M21.25 12.46C21.082 13.398 20.872 14.392 20.662 15.05L21.488 15.288C21.824 14.392 22.146 12.936 22.37 11.69L21.684 11.48L21.516 11.522H18.38C18.548 10.864 18.688 10.164 18.814 9.45L17.82 9.282C17.512 11.354 16.924 13.37 16.014 14.658C16.252 14.784 16.686 15.036 16.882 15.176C17.372 14.448 17.778 13.51 18.114 12.46H21.25ZM12.948 18.046V19.488H11.226V18.046H12.948ZM13.788 20.258V17.276H10.344V20.86H11.226V20.258H13.788ZM16.98 16.394V15.47H15.636V10.878H16.672V9.982H9.77V10.878H14.698V15.47H9.616V16.394H14.782V21.014C14.782 21.168 14.74 21.224 14.558 21.224C14.376 21.238 13.788 21.238 13.158 21.224C13.284 21.448 13.396 21.77 13.452 22.008C14.334 22.008 14.908 21.994 15.258 21.854C15.608 21.728 15.72 21.532 15.72 21.028V16.394H16.98ZM12.906 13.832H11.268V12.446H12.906V13.832ZM10.484 11.704V14.574H13.746V11.704H10.484ZM19.696 13.3H18.744V14.252C18.744 16.226 18.52 19.166 15.874 21.392C16.084 21.574 16.42 21.91 16.574 22.134C18.114 20.804 18.912 19.25 19.304 17.738C19.864 19.544 20.676 20.874 22.02 22.092C22.146 21.812 22.44 21.504 22.706 21.308C20.984 19.866 20.172 18.186 19.668 15.386C19.682 14.994 19.696 14.616 19.696 14.252V13.3ZM36.286 16.492H30.546V14.224H35.502V13.23H30.546V10.962C32.198 10.766 33.724 10.5 34.914 10.136L34.13 9.31C32.03 9.968 27.97 10.332 24.666 10.486C24.764 10.724 24.89 11.13 24.932 11.41C26.374 11.34 27.956 11.242 29.496 11.074V13.23H24.68V14.224H29.496V16.492H23.742V17.514H29.496V20.608C29.496 20.902 29.37 21 29.062 21C28.74 21.014 27.648 21.028 26.472 20.986C26.64 21.266 26.836 21.728 26.92 22.022C28.39 22.036 29.286 22.008 29.804 21.84C30.322 21.672 30.546 21.364 30.546 20.622V17.514H36.286V16.492ZM40.2849 23.506H41.2229L45.4089 9.898H44.4849L40.2849 23.506Z" fill="#00FF63"/>
<path d="M57.6961 14.826C58.4341 14.376 59.1001 13.836 59.7121 13.296C60.6301 13.728 61.6381 14.304 62.4841 14.826H57.6961ZM59.9281 6.69V7.77H61.0621V7.824C61.0621 8.688 60.9541 9.858 60.0181 10.83C59.7301 10.074 59.1001 9.102 58.4701 8.346L57.6241 8.778C57.8941 9.12 58.1641 9.552 58.4161 9.966L56.3461 10.794V8.004C57.4801 7.662 58.7041 7.23 59.6401 6.744L58.6861 5.934C57.8761 6.438 56.4541 6.996 55.1941 7.356V10.542C55.1941 11.154 54.8701 11.406 54.6541 11.514C54.8161 11.802 55.0501 12.306 55.1581 12.576V12.612C55.4461 12.36 55.9141 12.108 58.9021 10.848C59.0101 11.082 59.1181 11.316 59.1901 11.514L59.4961 11.352C59.7481 11.514 60.0541 11.766 60.2341 11.964L59.8381 11.802C58.6141 13.224 56.4001 14.556 54.4021 15.312C54.6721 15.564 54.9601 15.942 55.1401 16.23C55.8421 15.924 56.5621 15.528 57.2641 15.114V15.762H59.2261V16.914H55.5001V17.886H59.2261V20.622C57.5161 20.73 55.9861 20.838 54.7981 20.892L54.9961 21.972C57.4801 21.81 61.2061 21.576 64.7161 21.288L64.7341 20.262L62.5561 20.406C62.8261 19.812 63.1141 19.11 63.3661 18.444L62.2861 18.138C62.0881 18.804 61.7461 19.776 61.4581 20.478L60.4141 20.55V17.886H64.0681V16.914H60.4141V15.762H62.5741V14.88C63.1141 15.222 63.5821 15.528 63.9241 15.816L64.6621 14.988C63.7261 14.214 61.9441 13.242 60.4321 12.576C60.5401 12.45 60.6481 12.324 60.7381 12.198L60.3061 12C61.8901 10.794 62.0701 9.138 62.0701 7.878V7.77H63.7261C63.6001 10.074 63.4741 10.938 63.3121 11.19C63.2041 11.334 63.0961 11.352 62.8981 11.352C62.7361 11.352 62.3581 11.352 61.9081 11.298C62.0521 11.586 62.1601 12.036 62.1781 12.378C62.6461 12.414 63.1321 12.396 63.4021 12.36C63.7621 12.324 63.9961 12.216 64.2121 11.946C64.5541 11.532 64.6981 10.344 64.8421 7.194C64.8601 7.014 64.8601 6.69 64.8601 6.69H59.9281ZM56.2741 18.498C56.6521 19.164 56.9941 20.046 57.1201 20.622L58.1641 20.28C58.0201 19.74 57.6421 18.876 57.2461 18.228L56.2741 18.498ZM66.9301 7.968H65.6881V17.742H66.9301V7.968ZM68.8741 6.276V20.694C68.8741 20.982 68.7481 21.072 68.4601 21.09C68.1901 21.09 67.2541 21.09 66.2101 21.072C66.3901 21.45 66.5701 22.008 66.6241 22.386C68.0641 22.386 68.9101 22.35 69.4321 22.134C69.9361 21.9 70.1521 21.522 70.1521 20.694V6.276H68.8741ZM76.2181 18.48V13.692H78.3781V12.45H76.2181V8.418H78.5401V7.158H72.6721V8.418H74.8681V12.45H72.8701V13.692H74.8681V18.858C73.9681 19.11 73.1401 19.326 72.4561 19.506L72.7441 20.766C74.4541 20.262 76.7221 19.578 78.9001 18.93L78.7201 17.76L76.2181 18.48ZM83.2021 11.892V16.212H80.5741V11.892H83.2021ZM84.3721 17.4V10.704H79.4221V18.57H80.5741V17.4H84.3721ZM88.8361 7.104H78.8101V8.4H86.1541V20.586C86.1541 20.91 86.0461 21 85.7041 21.018C85.3261 21.036 84.1021 21.036 82.7881 21C83.0041 21.378 83.2021 21.99 83.2921 22.35C84.9301 22.368 86.0281 22.332 86.6401 22.116C87.2521 21.9 87.4861 21.486 87.4861 20.586V8.4H88.8361V7.104Z" fill="white"/>
<path d="M10.638 64.16L14.508 56.096L13.536 55.772L9.54 64.16L13.536 72.548L14.508 72.224L10.638 64.16ZM13.482 64.16L17.352 56.096L16.38 55.772L12.384 64.16L16.38 72.548L17.352 72.224L13.482 64.16ZM22.392 56.06C21.528 58.832 20.088 61.55 18.54 63.35C18.756 63.674 19.116 64.376 19.242 64.7C19.818 63.998 20.412 63.188 20.934 62.306V72.314H22.212V59.93C22.752 58.796 23.22 57.59 23.616 56.402L22.392 56.06ZM30.978 58.634C30.51 59.03 29.916 59.426 29.268 59.786C28.386 59.39 27.468 58.994 26.64 58.706L26.028 59.426C26.712 59.66 27.468 59.984 28.206 60.344C27.378 60.74 26.514 61.1 25.686 61.37C25.92 61.568 26.28 61.982 26.442 62.18C27.324 61.838 28.314 61.352 29.25 60.848C30.168 61.298 30.978 61.784 31.554 62.162L32.202 61.37C31.716 61.028 31.014 60.632 30.24 60.254C30.87 59.858 31.464 59.444 31.95 59.012L30.978 58.634ZM25.218 58.454H32.886V62.324H25.218V58.454ZM30.15 63.242V64.088C30.15 65.24 30.438 65.654 31.644 65.654H33.804C34.236 65.654 34.686 65.636 34.938 65.564C34.902 65.294 34.866 64.844 34.83 64.538C34.56 64.61 34.056 64.628 33.768 64.628H31.698C31.374 64.628 31.32 64.502 31.32 64.106V63.242H34.11V57.518H29.052C29.34 57.14 29.664 56.744 29.934 56.312L28.548 56.024C28.35 56.438 28.026 57.032 27.702 57.518H24.048V63.242H26.694C26.406 64.43 25.578 65.006 23.202 65.33C23.436 65.564 23.742 66.032 23.832 66.302C26.586 65.834 27.558 64.934 27.9 63.242H30.15ZM31.662 67.364C31.086 68.156 30.312 68.822 29.412 69.38C28.44 68.876 27.576 68.318 26.874 67.67C27 67.562 27.108 67.472 27.234 67.364H31.662ZM32.598 66.338L32.382 66.41H28.17C28.512 66.032 28.818 65.69 29.07 65.312L27.846 65.096C27.432 65.654 26.856 66.284 26.136 66.896C25.974 66.698 25.83 66.5 25.686 66.284L24.714 66.698C24.894 66.968 25.11 67.238 25.326 67.508C24.894 67.814 24.426 68.102 23.904 68.372C24.192 68.534 24.57 68.894 24.732 69.164C25.218 68.894 25.65 68.606 26.064 68.3C26.712 68.93 27.468 69.488 28.296 69.974C26.802 70.658 25.056 71.126 23.292 71.36C23.508 71.612 23.742 72.098 23.85 72.386C25.866 72.062 27.828 71.486 29.484 70.586C31.032 71.324 32.796 71.846 34.668 72.17C34.812 71.846 35.136 71.36 35.388 71.144C33.66 70.892 32.04 70.478 30.618 69.902C31.77 69.092 32.742 68.048 33.39 66.734L32.598 66.338ZM40.392 56.06C39.528 58.832 38.088 61.55 36.54 63.35C36.756 63.674 37.116 64.376 37.242 64.7C37.818 63.998 38.412 63.188 38.934 62.306V72.314H40.212V59.93C40.752 58.796 41.22 57.59 41.616 56.402L40.392 56.06ZM48.978 58.634C48.51 59.03 47.916 59.426 47.268 59.786C46.386 59.39 45.468 58.994 44.64 58.706L44.028 59.426C44.712 59.66 45.468 59.984 46.206 60.344C45.378 60.74 44.514 61.1 43.686 61.37C43.92 61.568 44.28 61.982 44.442 62.18C45.324 61.838 46.314 61.352 47.25 60.848C48.168 61.298 48.978 61.784 49.554 62.162L50.202 61.37C49.716 61.028 49.014 60.632 48.24 60.254C48.87 59.858 49.464 59.444 49.95 59.012L48.978 58.634ZM43.218 58.454H50.886V62.324H43.218V58.454ZM48.15 63.242V64.088C48.15 65.24 48.438 65.654 49.644 65.654H51.804C52.236 65.654 52.686 65.636 52.938 65.564C52.902 65.294 52.866 64.844 52.83 64.538C52.56 64.61 52.056 64.628 51.768 64.628H49.698C49.374 64.628 49.32 64.502 49.32 64.106V63.242H52.11V57.518H47.052C47.34 57.14 47.664 56.744 47.934 56.312L46.548 56.024C46.35 56.438 46.026 57.032 45.702 57.518H42.048V63.242H44.694C44.406 64.43 43.578 65.006 41.202 65.33C41.436 65.564 41.742 66.032 41.832 66.302C44.586 65.834 45.558 64.934 45.9 63.242H48.15ZM49.662 67.364C49.086 68.156 48.312 68.822 47.412 69.38C46.44 68.876 45.576 68.318 44.874 67.67C45 67.562 45.108 67.472 45.234 67.364H49.662ZM50.598 66.338L50.382 66.41H46.17C46.512 66.032 46.818 65.69 47.07 65.312L45.846 65.096C45.432 65.654 44.856 66.284 44.136 66.896C43.974 66.698 43.83 66.5 43.686 66.284L42.714 66.698C42.894 66.968 43.11 67.238 43.326 67.508C42.894 67.814 42.426 68.102 41.904 68.372C42.192 68.534 42.57 68.894 42.732 69.164C43.218 68.894 43.65 68.606 44.064 68.3C44.712 68.93 45.468 69.488 46.296 69.974C44.802 70.658 43.056 71.126 41.292 71.36C41.508 71.612 41.742 72.098 41.85 72.386C43.866 72.062 45.828 71.486 47.484 70.586C49.032 71.324 50.796 71.846 52.668 72.17C52.812 71.846 53.136 71.36 53.388 71.144C51.66 70.892 50.04 70.478 48.618 69.902C49.77 69.092 50.742 68.048 51.39 66.734L50.598 66.338ZM60.624 63.782H56.844V60.02H60.624V63.782ZM56.844 69.29V64.97H60.624V69.29H56.844ZM58.356 55.898C58.23 56.744 57.906 57.95 57.636 58.814H55.62V71.918H56.844V70.496H61.848V58.814H58.86C59.166 58.04 59.49 57.05 59.796 56.168L58.356 55.898ZM70.65 58.76H65.268C65.574 57.914 65.826 57.05 66.042 56.168L64.764 55.862C64.188 58.328 63.216 60.812 62.01 62.396C62.298 62.576 62.874 62.936 63.108 63.152C63.738 62.306 64.296 61.208 64.8 60.002H69.372C69.138 67.166 68.868 69.902 68.274 70.532C68.094 70.766 67.896 70.802 67.536 70.802C67.122 70.802 66.042 70.802 64.872 70.694C65.124 71.072 65.286 71.612 65.322 72.008C66.33 72.062 67.356 72.098 67.986 72.026C68.598 71.972 69.012 71.81 69.408 71.306C70.128 70.424 70.362 67.652 70.65 59.444V58.76ZM67.806 66.86C67.23 65.798 65.988 64.07 64.98 62.792L63.936 63.404C64.926 64.7 66.132 66.482 66.672 67.562L67.806 66.86ZM76.464 72.548L80.46 64.16L76.464 55.772L75.492 56.096L79.362 64.16L75.492 72.224L76.464 72.548ZM73.62 72.548L77.616 64.16L73.62 55.772L72.648 56.096L76.518 64.16L72.648 72.224L73.62 72.548Z" fill="#00FF63"/>
<path opacity="0.8" d="M23.256 88.224H17.72C17.544 87.728 17.24 87.056 16.888 86.576L16.152 86.768C16.44 87.184 16.696 87.76 16.872 88.224H10.856V88.944H23.256V88.224ZM15 91.744C14.856 91.04 14.392 89.936 13.848 89.136L13.144 89.328C13.656 90.128 14.104 91.232 14.248 91.984L15 91.744ZM21.096 95.072V97.088H13.032V95.072H21.096ZM13.032 99.856V97.76H21.096V99.856H13.032ZM12.264 101.184H13.032V100.544H21.096V101.136H21.88V94.384H12.264V101.184ZM19.656 92.016C20.104 91.232 20.632 90.192 21.032 89.328L20.232 89.088C19.912 89.952 19.32 91.2 18.84 92.016H9.944V92.736H24.072V92.016H19.656ZM39.96 94.496C39.816 93.872 39.464 92.928 39.176 92.16L38.584 92.384C38.712 92.704 38.856 93.056 38.984 93.44L36.696 93.712C37.752 92.448 38.824 90.768 39.736 89.104L39.112 88.784C38.872 89.312 38.568 89.84 38.28 90.352L36.376 90.576C37 89.584 37.656 88.256 38.136 86.976L37.464 86.72C37.032 88.112 36.216 89.632 35.992 90.016C35.768 90.4 35.56 90.672 35.368 90.72C35.432 90.896 35.544 91.248 35.576 91.392C35.768 91.312 36.088 91.232 37.912 90.976C37.32 91.92 36.76 92.704 36.52 92.992C36.136 93.488 35.832 93.84 35.56 93.888C35.656 94.064 35.768 94.416 35.8 94.576C36.024 94.448 36.408 94.368 39.16 93.984C39.256 94.256 39.304 94.512 39.352 94.72L39.96 94.496ZM34.28 90.928H31.72V88.928H34.28V90.928ZM34.28 93.568H31.72V91.552H34.28V93.568ZM35 88.288H32.968C33.112 87.84 33.272 87.28 33.448 86.784L32.696 86.624C32.632 87.104 32.472 87.76 32.312 88.288H31.016V94.224H35V88.288ZM30.6 94.416C30.504 93.728 30.248 92.672 29.992 91.856L29.416 92C29.512 92.384 29.608 92.784 29.704 93.2L27.368 93.504C28.456 92.24 29.528 90.576 30.424 88.912L29.816 88.592C29.56 89.152 29.256 89.696 28.92 90.224L27.256 90.4C27.88 89.472 28.488 88.224 28.968 87.008L28.312 86.752C27.912 88.064 27.112 89.504 26.872 89.872C26.648 90.224 26.456 90.496 26.264 90.528C26.344 90.704 26.44 91.056 26.472 91.2C26.648 91.12 26.968 91.04 28.568 90.832C27.976 91.744 27.416 92.496 27.208 92.784C26.808 93.28 26.504 93.632 26.248 93.696C26.344 93.872 26.456 94.208 26.456 94.352C26.696 94.24 27.08 94.144 29.832 93.76C29.896 94.048 29.944 94.352 29.976 94.592L30.6 94.416ZM30.952 96.992C29.8 98.272 27.56 99.424 25.672 99.952C25.864 100.096 26.088 100.384 26.216 100.592C28.088 99.968 30.376 98.688 31.608 97.296L30.952 96.992ZM34.52 97.456C36.296 98.384 38.472 99.744 39.56 100.688L40.024 100.048C38.92 99.152 36.728 97.808 34.968 96.912L34.52 97.456ZM33.352 95.744V94.656H32.584V95.744H25.912V96.432H32.584V101.168H33.352V96.432H40.072V95.744H33.352ZM55.08 86.848H54.376V93.6C54.376 93.808 54.312 93.872 54.072 93.872C53.832 93.888 53.064 93.904 52.088 93.872C52.216 94.096 52.328 94.352 52.376 94.56C53.496 94.56 54.2 94.544 54.584 94.432C54.952 94.304 55.08 94.112 55.08 93.6V86.848ZM52.104 87.504H51.384V92.72H52.104V87.504ZM45.688 91.328H42.824V94.224H43.496V91.936H45.688V94.688H46.392V91.936H48.76V93.376C48.76 93.504 48.728 93.552 48.568 93.568C48.408 93.568 47.992 93.568 47.384 93.552C47.48 93.744 47.576 93.936 47.608 94.128C48.344 94.128 48.808 94.128 49.096 94.016C49.384 93.904 49.432 93.728 49.432 93.376V91.328H46.392V90.32H49.96V89.696H46.392V88.496H49.32V87.888H46.392V86.688H45.688V87.888H43.848C43.976 87.552 44.12 87.232 44.232 86.896L43.56 86.736C43.272 87.648 42.84 88.576 42.264 89.264C42.44 89.328 42.76 89.472 42.888 89.584C43.128 89.264 43.336 88.912 43.544 88.496H45.688V89.696H41.896V90.32H45.688V91.328ZM54.52 96.448C53.768 96.992 52.472 97.712 51.432 98.208C50.728 97.616 50.152 96.912 49.736 96.112H56.056V95.44H49.784C49.608 95.056 49.32 94.528 49.064 94.144L48.344 94.336C48.552 94.672 48.776 95.088 48.936 95.44H41.976V96.112H48.008C46.392 97.216 43.832 98.16 41.704 98.608C41.864 98.752 42.072 99.024 42.184 99.2C43.112 98.976 44.12 98.656 45.128 98.256V99.424C45.128 100.08 44.712 100.352 44.472 100.48C44.584 100.624 44.76 100.944 44.808 101.136C45.096 100.96 45.544 100.832 49.992 99.744C49.992 99.616 49.976 99.36 49.992 99.152L45.88 100.048V97.952C47.064 97.424 48.184 96.816 49.016 96.16C50.216 98.688 52.584 100.304 55.752 100.96C55.864 100.752 56.056 100.464 56.216 100.32C54.552 100.016 53.112 99.44 51.944 98.624C53 98.128 54.2 97.488 55.128 96.848L54.52 96.448ZM61.896 86.736C60.936 89.248 59.384 91.728 57.736 93.312C57.896 93.472 58.136 93.856 58.216 94.016C58.888 93.344 59.528 92.544 60.136 91.68V101.152H60.92V90.448C61.576 89.344 62.152 88.16 62.632 86.96L61.896 86.736ZM72.248 90.128V89.392H65.256C65.624 88.656 65.944 87.872 66.232 87.088L65.512 86.896C64.68 89.264 63.368 91.6 61.912 93.12C62.072 93.232 62.392 93.504 62.52 93.616C63.368 92.672 64.184 91.472 64.904 90.128H66.296V101.168H67.064V97.072H72.152V96.336H67.064V93.536H71.928V92.816H67.064V90.128H72.248ZM80.648 86.752C80.616 89.04 80.584 97.232 73.848 100.528C74.04 100.672 74.296 100.896 74.44 101.088C78.776 98.896 80.424 94.736 81.048 91.328C81.72 94.32 83.336 99.024 87.736 101.04C87.864 100.832 88.088 100.576 88.296 100.416C82.536 97.856 81.592 90.544 81.368 88.944C81.448 88.032 81.448 87.264 81.464 86.752H80.648ZM89.16 102.832H89.912L95.192 87.424H94.424L89.16 102.832ZM99.3289 94.256H101.393V93.568H99.3289V91.456H100.881V90.768H96.9289C97.6969 90 98.4329 89.056 99.0249 88.064C99.9369 88.928 100.977 90 101.537 90.656L101.985 90.128C101.425 89.472 100.305 88.368 99.3609 87.504C99.4569 87.312 99.5529 87.136 99.6489 86.944L98.9769 86.736C98.2889 88.224 97.1529 89.664 95.9529 90.624C96.0809 90.784 96.3049 91.136 96.3689 91.296C96.5449 91.136 96.7209 90.976 96.8969 90.8V91.456H98.6409V93.568H96.1129V94.256H98.6409V99.36C97.6169 99.552 96.7049 99.728 95.9849 99.856L96.1929 100.56C97.6489 100.272 99.6809 99.856 101.585 99.456L101.537 98.8C100.785 98.96 100.049 99.104 99.3289 99.248V94.256ZM96.4009 95.376C96.6569 96.336 96.9129 97.632 97.0089 98.48L97.6649 98.304C97.5529 97.488 97.2809 96.208 97.0089 95.248L96.4009 95.376ZM100.657 98.304C100.929 97.504 101.185 96.24 101.457 95.264L100.817 95.04C100.689 95.936 100.401 97.296 100.161 98.112L100.657 98.304ZM103.953 90.608C104.097 90.064 104.273 89.424 104.449 88.784H108.241C108.145 89.296 108.017 89.952 107.873 90.608H103.953ZM109.393 94.448C108.897 95.216 108.049 96.24 107.377 96.976C107.105 96.784 106.849 96.592 106.593 96.416V93.488H110.529V92.768H108.145C108.497 91.28 108.865 89.424 109.089 88.16L108.561 88.064L108.433 88.112H104.625C104.721 87.648 104.849 87.168 104.945 86.752L104.193 86.656C103.889 88.112 103.377 90.096 102.977 91.28H107.761C107.649 91.808 107.537 92.304 107.425 92.768H101.761V93.488H105.873V96.512C104.417 97.68 102.865 98.832 101.857 99.536L102.337 100.112C103.361 99.328 104.641 98.32 105.873 97.296V100.256C105.873 100.432 105.825 100.48 105.633 100.496C105.441 100.496 104.849 100.512 104.113 100.48C104.225 100.704 104.337 100.976 104.369 101.184C105.265 101.184 105.841 101.168 106.177 101.056C106.497 100.928 106.593 100.72 106.593 100.24V97.184C107.921 98.128 109.377 99.312 110.161 100.112L110.609 99.552C110.001 98.944 108.945 98.112 107.873 97.328C108.561 96.64 109.377 95.68 110.017 94.848L109.393 94.448ZM104.881 96.432C104.513 95.872 103.681 95.008 102.993 94.384L102.433 94.736C103.137 95.392 103.937 96.288 104.337 96.864L104.881 96.432ZM124.481 89.888H117.745V88.064H124.481V89.888ZM124.481 92.368H117.745V90.528H124.481V92.368ZM125.281 87.408H116.961V93.024H125.281V87.408ZM115.377 92.896C114.721 92.448 113.441 91.728 112.497 91.232L112.065 91.792C113.025 92.304 114.305 93.072 114.977 93.52L115.377 92.896ZM113.217 100.944C114.129 99.504 115.297 97.392 116.145 95.728L115.601 95.216C114.689 97.008 113.441 99.184 112.577 100.432L113.217 100.944ZM112.865 87.408C113.889 87.952 115.201 88.72 115.889 89.216L116.321 88.56C115.617 88.096 114.273 87.36 113.297 86.864L112.865 87.408ZM117.793 100.144V96.56H121.057V95.856H117.793V93.584H117.041V99.808C117.041 100.32 116.785 100.416 116.577 100.48C116.673 100.672 116.817 101.024 116.849 101.248C117.153 101.072 117.601 100.912 121.169 100.016C121.121 99.872 121.057 99.568 121.025 99.376L117.793 100.144ZM123.121 100.384C122.529 100.384 122.433 100.288 122.433 99.856V96.544H126.177V95.84H122.433V93.552H121.665V99.856C121.665 100.832 121.953 101.056 123.073 101.056H125.361C126.321 101.056 126.545 100.608 126.641 98.848C126.417 98.8 126.113 98.672 125.937 98.544C125.889 100.096 125.793 100.384 125.297 100.384H123.121ZM141.553 88.224H136.017C135.841 87.728 135.537 87.056 135.185 86.576L134.449 86.768C134.737 87.184 134.993 87.76 135.169 88.224H129.153V88.944H141.553V88.224ZM133.297 91.744C133.153 91.04 132.689 89.936 132.145 89.136L131.441 89.328C131.953 90.128 132.401 91.232 132.545 91.984L133.297 91.744ZM139.393 95.072V97.088H131.329V95.072H139.393ZM131.329 99.856V97.76H139.393V99.856H131.329ZM130.561 101.184H131.329V100.544H139.393V101.136H140.177V94.384H130.561V101.184ZM137.953 92.016C138.401 91.232 138.929 90.192 139.329 89.328L138.529 89.088C138.209 89.952 137.617 91.2 137.137 92.016H128.241V92.736H142.369V92.016H137.953Z" fill="white"/>
<path d="M240.5 38.13L9.24023 38.13V39.02L240.5 39.02V38.13Z" fill="white"/>
<path d="M244 35H229V42H244V35Z" fill="#00FF63"/>
</svg>
