<svg width="244" height="106" viewBox="0 0 244 106" fill="none" xmlns="http://www.w3.org/2000/svg">
<path d="M21.25 12.46C21.082 13.398 20.872 14.392 20.662 15.05L21.488 15.288C21.824 14.392 22.146 12.936 22.37 11.69L21.684 11.48L21.516 11.522H18.38C18.548 10.864 18.688 10.164 18.814 9.45L17.82 9.282C17.512 11.354 16.924 13.37 16.014 14.658C16.252 14.784 16.686 15.036 16.882 15.176C17.372 14.448 17.778 13.51 18.114 12.46H21.25ZM12.948 18.046V19.488H11.226V18.046H12.948ZM13.788 20.258V17.276H10.344V20.86H11.226V20.258H13.788ZM16.98 16.394V15.47H15.636V10.878H16.672V9.982H9.77V10.878H14.698V15.47H9.616V16.394H14.782V21.014C14.782 21.168 14.74 21.224 14.558 21.224C14.376 21.238 13.788 21.238 13.158 21.224C13.284 21.448 13.396 21.77 13.452 22.008C14.334 22.008 14.908 21.994 15.258 21.854C15.608 21.728 15.72 21.532 15.72 21.028V16.394H16.98ZM12.906 13.832H11.268V12.446H12.906V13.832ZM10.484 11.704V14.574H13.746V11.704H10.484ZM19.696 13.3H18.744V14.252C18.744 16.226 18.52 19.166 15.874 21.392C16.084 21.574 16.42 21.91 16.574 22.134C18.114 20.804 18.912 19.25 19.304 17.738C19.864 19.544 20.676 20.874 22.02 22.092C22.146 21.812 22.44 21.504 22.706 21.308C20.984 19.866 20.172 18.186 19.668 15.386C19.682 14.994 19.696 14.616 19.696 14.252V13.3ZM36.286 16.492H30.546V14.224H35.502V13.23H30.546V10.962C32.198 10.766 33.724 10.5 34.914 10.136L34.13 9.31C32.03 9.968 27.97 10.332 24.666 10.486C24.764 10.724 24.89 11.13 24.932 11.41C26.374 11.34 27.956 11.242 29.496 11.074V13.23H24.68V14.224H29.496V16.492H23.742V17.514H29.496V20.608C29.496 20.902 29.37 21 29.062 21C28.74 21.014 27.648 21.028 26.472 20.986C26.64 21.266 26.836 21.728 26.92 22.022C28.39 22.036 29.286 22.008 29.804 21.84C30.322 21.672 30.546 21.364 30.546 20.622V17.514H36.286V16.492ZM40.2849 23.506H41.2229L45.4089 9.898H44.4849L40.2849 23.506Z" fill="#00FF63"/>
<path d="M68.975 13.908H61.631V12C63.683 10.956 65.987 9.354 67.517 7.842L66.509 7.086L66.221 7.158H54.629V8.472H64.763C63.503 9.516 61.757 10.632 60.263 11.316V13.908H52.847V15.24H60.263V20.586C60.263 20.91 60.137 21 59.777 21.018C59.381 21.036 58.067 21.054 56.609 21C56.843 21.378 57.095 21.972 57.185 22.368C58.913 22.368 60.047 22.35 60.713 22.116C61.397 21.918 61.631 21.504 61.631 20.604V15.24H68.975V13.908ZM85.733 15.384H72.143V22.35H73.421V16.464H84.419V20.784C84.419 21.036 84.347 21.09 84.077 21.108C83.807 21.126 82.907 21.126 81.863 21.09C82.043 21.432 82.223 21.882 82.295 22.242C83.627 22.242 84.509 22.224 85.049 22.044C85.571 21.846 85.733 21.504 85.733 20.802V15.384ZM81.017 19.992H76.751V18.426H81.017V19.992ZM82.295 17.562H75.527V20.874H82.295V17.562ZM76.319 11.244C76.715 10.92 77.093 10.56 77.417 10.2H80.639C80.927 10.56 81.287 10.92 81.665 11.244H76.319ZM81.719 13.602H76.175V12.108H81.719V13.602ZM86.597 10.2V9.084H78.317C78.605 8.652 78.875 8.202 79.109 7.716C81.287 7.572 83.375 7.374 84.941 7.05L84.023 6.096C81.359 6.6 76.373 6.87 72.323 6.924C72.449 7.194 72.593 7.662 72.611 7.95C74.195 7.95 75.905 7.896 77.597 7.806C77.345 8.274 77.057 8.688 76.733 9.084H71.189V10.2H75.671C74.285 11.424 72.521 12.342 70.559 12.972C70.847 13.224 71.333 13.728 71.549 13.998C72.737 13.53 73.889 12.954 74.951 12.252V14.466H83.015V12.27C84.041 12.954 85.193 13.53 86.291 13.908C86.471 13.584 86.867 13.116 87.137 12.864C85.301 12.378 83.393 11.37 82.115 10.2H86.597Z" fill="white"/>
<path d="M10.638 64.16L14.508 56.096L13.536 55.772L9.54 64.16L13.536 72.548L14.508 72.224L10.638 64.16ZM13.482 64.16L17.352 56.096L16.38 55.772L12.384 64.16L16.38 72.548L17.352 72.224L13.482 64.16ZM22.914 69.758V64.772H25.362V63.602H22.914V61.658H24.822V60.488H20.43C21.114 59.768 21.78 58.922 22.356 58.04C23.418 58.814 24.552 59.75 25.254 60.488L25.884 59.39C25.164 58.688 24.066 57.788 22.932 57.05C23.076 56.798 23.202 56.546 23.328 56.312L22.302 55.844C21.456 57.608 20.034 59.246 18.648 60.308C18.81 60.632 19.116 61.352 19.206 61.658C19.512 61.406 19.782 61.136 20.088 60.848V61.658H21.816V63.602H19.098V64.772H21.816V69.974C20.7 70.208 19.692 70.406 18.9 70.55L19.188 71.756C20.88 71.378 23.238 70.838 25.434 70.316L25.344 69.236L22.914 69.758ZM19.44 65.96C19.746 67.004 20.034 68.39 20.088 69.29L21.024 69.02C20.934 68.138 20.628 66.77 20.322 65.726L19.44 65.96ZM24.21 69.074C24.516 68.246 24.894 66.932 25.2 65.834L24.228 65.51C24.048 66.482 23.688 67.904 23.382 68.786L24.21 69.074ZM32.85 65.636V67.472H28.152V65.636H32.85ZM28.152 70.46V68.57H32.85V70.46H28.152ZM26.964 72.368H28.152V71.576H32.85V72.332H34.11V64.484H26.964V72.368ZM29.106 59.48H31.878V61.838H29.106V59.48ZM33.084 61.838V59.48H34.65V58.292H33.084V55.952H31.878V58.292H29.106V55.952H27.9V58.292H26.19V59.48H27.9V61.838H25.83V63.062H35.154V61.838H33.084ZM48.402 58.598C48.24 57.86 47.826 56.708 47.502 55.808L46.242 56.132C46.584 57.032 46.944 58.238 47.088 58.994L48.402 58.598ZM52.362 59.192H42.66V60.488H52.362V59.192ZM46.368 69.146C46.17 67.31 45.63 64.088 45.036 61.586L43.83 61.856C44.388 64.358 44.91 67.652 45.054 69.524L46.368 69.146ZM41.184 56.006C40.194 58.742 38.52 61.424 36.756 63.152C37.008 63.458 37.386 64.142 37.512 64.466C38.124 63.818 38.736 63.098 39.294 62.288V72.35H40.626V60.2C41.328 58.976 41.958 57.698 42.444 56.384L41.184 56.006ZM49.428 70.352C50.076 67.958 50.814 64.448 51.282 61.694L49.896 61.442C49.554 64.124 48.834 67.94 48.186 70.352H41.904V71.648H53.1V70.352H49.428ZM59.274 58.346V62.324H56.664V58.346H59.274ZM56.664 67.652V63.512H59.274V67.652H56.664ZM60.534 57.122H55.422V70.316H56.664V68.876H60.534V57.122ZM62.01 67.22C62.874 68.192 63.846 69.506 64.278 70.37L65.448 69.65C64.98 68.822 63.972 67.508 63.126 66.59L62.01 67.22ZM71.154 59.3V58.094H66.654V55.934H65.34V58.094H60.858V59.3H65.34V61.622H61.65V62.81H67.698V64.772H60.93V65.96H67.698V70.766C67.698 71.036 67.608 71.108 67.32 71.126C67.032 71.144 66.024 71.144 64.926 71.108C65.106 71.468 65.304 71.99 65.358 72.368C66.816 72.368 67.698 72.35 68.274 72.134C68.814 71.936 69.012 71.558 69.012 70.784V65.96H71.1V64.772H69.012V62.81H70.578V61.622H66.654V59.3H71.154ZM74.736 59.246H78.66C78.426 61.82 77.634 62.99 73.656 63.566C73.89 63.836 74.196 64.322 74.286 64.646C78.732 63.908 79.74 62.414 80.01 59.246H82.314V62.108C82.314 63.512 82.71 63.998 84.204 63.998H87.372C87.948 63.998 88.578 63.98 88.884 63.89C88.848 63.584 88.794 63.062 88.74 62.702C88.416 62.774 87.714 62.81 87.3 62.81H84.222C83.718 62.81 83.628 62.63 83.628 62.126V59.246H87.156V61.604H88.506V58.022H82.062C81.792 57.374 81.342 56.51 80.928 55.844L79.56 56.24C79.884 56.762 80.19 57.446 80.442 58.022H73.422V62.036H74.736V59.246ZM81.738 66.842H86.994V65.582H75.006V66.842H80.37V70.712H73.386V71.99H88.686V70.712H81.738V66.842ZM94.464 72.548L98.46 64.16L94.464 55.772L93.492 56.096L97.362 64.16L93.492 72.224L94.464 72.548ZM91.62 72.548L95.616 64.16L91.62 55.772L90.648 56.096L94.518 64.16L90.648 72.224L91.62 72.548ZM114.714 67.4C113.904 68.606 112.716 69.956 111.654 70.856C111.978 71.054 112.518 71.414 112.788 71.612C113.796 70.64 115.038 69.128 115.956 67.832L114.714 67.4ZM114.66 63.782H122.13V65.456H114.66V63.782ZM114.66 61.1H122.13V62.774H114.66V61.1ZM123.48 66.518V60.038H118.296C118.548 59.588 118.818 59.102 119.088 58.616L117.54 58.382C117.378 58.85 117.126 59.498 116.856 60.038H113.346V66.518H117.738V70.892C117.738 71.108 117.666 71.18 117.378 71.198C117.108 71.198 116.19 71.198 115.146 71.18C115.308 71.522 115.506 72.008 115.56 72.368C116.928 72.368 117.81 72.368 118.35 72.152C118.89 71.954 119.034 71.612 119.034 70.91V66.518H123.48ZM120.546 67.994C121.626 69.164 123.048 70.748 123.714 71.72L124.83 71C124.11 70.082 122.67 68.552 121.608 67.436L120.546 67.994ZM124.902 56.942H110.412V62.018C110.412 64.754 110.25 68.606 108.684 71.342C109.026 71.468 109.584 71.792 109.836 72.008C111.492 69.146 111.726 64.898 111.726 62.018V58.166H124.902V56.942ZM140.562 59.426H134.928V57.752H140.562V59.426ZM140.562 62.162H134.928V60.452H140.562V62.162ZM141.894 56.672H133.632V63.242H141.894V56.672ZM130.824 58.886V66.392H128.718V58.886H130.824ZM132.066 57.644H127.476V69.344H128.718V67.634H132.066V57.644ZM134.388 70.496V68.588H141.174V70.496H134.388ZM141.174 65.654V67.454H134.388V65.654H141.174ZM133.074 64.502V72.368H134.388V71.666H141.174V72.278H142.524V64.502H133.074ZM144.198 74.222H145.404L150.786 56.726H149.598L144.198 74.222ZM162.587 61.478H163.901V59.174H167.897V57.878H163.901V55.952H162.587V57.878H160.427V59.174H162.587V61.478ZM156.305 61.478H157.619V59.174H159.743V57.878H157.619V55.952H156.305V57.878H152.273V59.174H156.305V61.478ZM163.667 61.982C162.911 64.43 161.723 66.284 160.067 67.688C158.411 66.248 157.205 64.376 156.449 62.108L155.189 62.45C156.053 64.934 157.277 66.968 158.933 68.534C157.097 69.758 154.775 70.568 151.967 71.108C152.219 71.432 152.597 72.08 152.741 72.422C155.657 71.756 158.069 70.838 160.031 69.452C161.921 70.874 164.315 71.828 167.267 72.332C167.447 71.954 167.825 71.36 168.113 71.072C165.305 70.622 163.019 69.794 161.183 68.552C162.929 67.004 164.243 64.988 165.125 62.342L163.667 61.982ZM184.277 65.006C183.503 65.816 182.279 66.806 181.199 67.598C180.515 66.716 179.957 65.69 179.543 64.556H186.059V63.314H172.973C172.991 62.9 172.991 62.522 172.991 62.144V61.298H184.493V60.056H172.991V58.184H185.573V56.87H171.641V62.144C171.641 65.006 171.479 68.984 169.751 71.774C170.093 71.918 170.705 72.26 170.957 72.494C172.307 70.28 172.775 67.22 172.919 64.556H174.791V69.884C174.791 70.676 174.413 71.09 174.125 71.27C174.341 71.522 174.701 72.062 174.827 72.368C175.169 72.098 175.781 71.882 179.957 70.55C179.921 70.262 179.903 69.704 179.921 69.344L176.141 70.424V64.556H178.283C179.507 68.282 181.829 70.874 185.465 72.044C185.663 71.684 186.041 71.162 186.329 70.892C184.547 70.406 183.089 69.542 181.919 68.408C183.071 67.652 184.421 66.68 185.447 65.78L184.277 65.006Z" fill="#00FF63"/>
<path opacity="0.8" d="M23.24 90.096C23.064 91.2 22.776 92.416 22.456 93.216L23.112 93.408C23.512 92.448 23.88 90.848 24.136 89.52L23.624 89.344L23.48 89.392H19.48C19.704 88.56 19.912 87.68 20.056 86.784L19.288 86.656C18.904 89.072 18.216 91.392 17.128 92.896C17.32 92.976 17.656 93.184 17.8 93.296C18.392 92.432 18.872 91.344 19.256 90.096H23.24ZM13.768 96.416V98.416H11.4V96.416H13.768ZM14.44 99.056V95.776H10.712V99.824H11.4V99.056H14.44ZM17.912 94.56V93.856H16.376V88.272H17.72V87.568H9.944V88.272H15.656V93.856H9.784V94.56H15.752V100.288C15.752 100.464 15.704 100.512 15.496 100.528C15.288 100.528 14.632 100.528 13.832 100.512C13.928 100.704 14.04 100.96 14.088 101.152C15.096 101.152 15.688 101.152 16.024 101.024C16.36 100.912 16.472 100.736 16.472 100.272V94.56H17.912ZM13.816 91.968H11.544V90.048H13.816V91.968ZM10.904 89.424V92.576H14.488V89.424H10.904ZM21.096 91.184H20.36V92.224C20.36 94.592 20.136 98.032 16.952 100.72C17.128 100.848 17.4 101.088 17.528 101.264C19.512 99.552 20.408 97.552 20.792 95.68C21.4 98.064 22.328 99.728 24.008 101.232C24.12 101.008 24.344 100.768 24.552 100.624C22.504 98.88 21.592 96.912 21.064 93.536C21.096 93.072 21.096 92.64 21.096 92.224V91.184ZM38.28 89.888H32.552V88.048H38.28V89.888ZM38.28 92.384H32.552V90.528H38.28V92.384ZM39.048 87.392H31.816V93.056H39.048V87.392ZM29.464 88.992V96.16H27.128V88.992H29.464ZM30.2 88.272H26.408V98.496H27.128V96.896H30.2V88.272ZM32.008 99.792V97.696H38.888V99.792H32.008ZM38.888 95.04V97.008H32.008V95.04H38.888ZM31.256 94.352V101.152H32.008V100.48H38.888V101.088H39.656V94.352H31.256ZM54.44 92.752C55.16 92.752 55.864 92.736 56.12 92.672C56.072 92.512 56.04 92.208 56.008 91.984C55.672 92.048 54.872 92.064 54.408 92.064H49.848C49.144 92.064 48.952 91.856 48.952 91.248V89.504H55.56V88.816H48.952V86.768H48.184V91.232C48.184 92.368 48.584 92.752 49.864 92.752H54.44ZM47 93.632C46.328 93.856 45.64 94.064 44.984 94.272V90.784H46.968V90.032H44.984V86.688H44.232V90.032H41.8V90.784H44.232V94.528C43.208 94.832 42.264 95.12 41.544 95.328L41.816 96.08C42.52 95.856 43.352 95.584 44.232 95.312V100.144C44.232 100.384 44.136 100.448 43.928 100.448C43.736 100.464 43.048 100.464 42.264 100.448C42.376 100.656 42.504 100.976 42.552 101.168C43.576 101.168 44.152 101.152 44.504 101.024C44.84 100.896 44.984 100.672 44.984 100.128V95.056L47.112 94.368L47 93.632ZM54.76 95.04V96.992H48.872V95.04H54.76ZM48.872 99.712V97.664H54.76V99.712H48.872ZM48.136 101.168H48.872V100.4H54.76V101.088H55.512V94.352H48.136V101.168ZM69.768 91.232H63.736V90.368H69.768V91.232ZM69.768 92.64H63.736V91.76H69.768V92.64ZM69.768 94.064H63.736V93.168H69.768V94.064ZM63.016 89.824V94.608H70.52V89.824H66.488C66.664 89.536 66.824 89.2 66.968 88.864H71.784V88.224H68.968C69.256 87.824 69.56 87.376 69.848 86.928L69.112 86.704C68.904 87.136 68.504 87.776 68.184 88.224H65.128L65.512 88.064C65.384 87.664 64.984 87.072 64.616 86.688L63.992 86.928C64.312 87.312 64.664 87.824 64.808 88.224H61.944V88.864H66.216C66.088 89.184 65.928 89.52 65.784 89.824H63.016ZM60.088 88.256C59.928 87.84 59.592 87.184 59.352 86.672L58.712 86.864C58.936 87.392 59.24 88.08 59.416 88.512L60.088 88.256ZM60.568 98.544C61.48 99.072 62.552 99.888 63.032 100.48L63.592 99.952C63.08 99.36 61.992 98.576 61.08 98.08L60.568 98.544ZM68.728 96.192H67.992V97.232H57.992V97.888H67.992V100.144C67.992 100.368 67.928 100.432 67.64 100.432C67.384 100.448 66.472 100.464 65.32 100.432C65.432 100.64 65.544 100.896 65.592 101.104C66.968 101.104 67.768 101.104 68.2 100.976C68.632 100.848 68.728 100.64 68.728 100.144V97.888H71.928V97.232H68.728V96.192ZM61.128 91.04L61.016 91.088H59.64C60.088 90.368 60.6 89.472 61.048 88.688H57.864V89.344H59.928C59.48 90.176 58.936 91.072 58.504 91.728H60.664C60.328 92.64 59.816 93.632 59.24 94.288C58.808 94.592 58.36 95.056 57.912 95.568L58.392 96.16C59.016 95.312 59.64 94.592 60.056 94.592C60.376 94.592 60.84 94.992 61.416 95.344C62.456 95.92 63.896 96.016 65.752 96.016C67.4 96.016 70.52 95.936 72.04 95.84C72.056 95.648 72.168 95.28 72.264 95.088C70.568 95.248 67.944 95.36 65.768 95.36C63.992 95.36 62.6 95.296 61.624 94.768C60.968 94.384 60.632 94.064 60.264 93.984C60.792 93.2 61.256 92.16 61.576 91.232L61.128 91.04Z" fill="white"/>
<path d="M240.5 38.1299L9.23999 38.1299V39.0199L240.5 39.0199V38.1299Z" fill="white"/>
<path d="M244 35H229V42H244V35Z" fill="#00FF63"/>
</svg>
