<svg width="244" height="106" viewBox="0 0 244 106" fill="none" xmlns="http://www.w3.org/2000/svg">
<path d="M21.25 12.46C21.082 13.398 20.872 14.392 20.662 15.05L21.488 15.288C21.824 14.392 22.146 12.936 22.37 11.69L21.684 11.48L21.516 11.522H18.38C18.548 10.864 18.688 10.164 18.814 9.45L17.82 9.282C17.512 11.354 16.924 13.37 16.014 14.658C16.252 14.784 16.686 15.036 16.882 15.176C17.372 14.448 17.778 13.51 18.114 12.46H21.25ZM12.948 18.046V19.488H11.226V18.046H12.948ZM13.788 20.258V17.276H10.344V20.86H11.226V20.258H13.788ZM16.98 16.394V15.47H15.636V10.878H16.672V9.982H9.77V10.878H14.698V15.47H9.616V16.394H14.782V21.014C14.782 21.168 14.74 21.224 14.558 21.224C14.376 21.238 13.788 21.238 13.158 21.224C13.284 21.448 13.396 21.77 13.452 22.008C14.334 22.008 14.908 21.994 15.258 21.854C15.608 21.728 15.72 21.532 15.72 21.028V16.394H16.98ZM12.906 13.832H11.268V12.446H12.906V13.832ZM10.484 11.704V14.574H13.746V11.704H10.484ZM19.696 13.3H18.744V14.252C18.744 16.226 18.52 19.166 15.874 21.392C16.084 21.574 16.42 21.91 16.574 22.134C18.114 20.804 18.912 19.25 19.304 17.738C19.864 19.544 20.676 20.874 22.02 22.092C22.146 21.812 22.44 21.504 22.706 21.308C20.984 19.866 20.172 18.186 19.668 15.386C19.682 14.994 19.696 14.616 19.696 14.252V13.3ZM36.286 16.492H30.546V14.224H35.502V13.23H30.546V10.962C32.198 10.766 33.724 10.5 34.914 10.136L34.13 9.31C32.03 9.968 27.97 10.332 24.666 10.486C24.764 10.724 24.89 11.13 24.932 11.41C26.374 11.34 27.956 11.242 29.496 11.074V13.23H24.68V14.224H29.496V16.492H23.742V17.514H29.496V20.608C29.496 20.902 29.37 21 29.062 21C28.74 21.014 27.648 21.028 26.472 20.986C26.64 21.266 26.836 21.728 26.92 22.022C28.39 22.036 29.286 22.008 29.804 21.84C30.322 21.672 30.546 21.364 30.546 20.622V17.514H36.286V16.492ZM40.2849 23.506H41.2229L45.4089 9.898H44.4849L40.2849 23.506Z" fill="#00FF63"/>
<path d="M60.7839 6.654L60.5859 6.708H56.5179V22.386H57.7059V7.932H60.0819C59.7219 9.12 59.1819 10.668 58.6599 11.964C59.9559 13.404 60.2799 14.628 60.2799 15.6C60.2799 16.158 60.1719 16.662 59.9019 16.86C59.7579 16.968 59.5599 17.004 59.3439 17.022C59.0559 17.058 58.7139 17.04 58.2999 17.004C58.4979 17.346 58.6239 17.85 58.6419 18.192C59.0199 18.21 59.4879 18.21 59.8479 18.156C60.1899 18.12 60.5319 18.012 60.7659 17.814C61.2699 17.472 61.4859 16.68 61.4859 15.726C61.4859 14.61 61.1619 13.314 59.8659 11.82C60.4779 10.398 61.1259 8.652 61.6479 7.176L60.7839 6.654ZM66.3459 12.108V16.266H63.6459V12.108H66.3459ZM67.5519 17.436V10.938H62.4939V18.804H63.6459V17.436H67.5519ZM72.2859 7.176H61.8819V8.418H69.4779V20.694C69.4779 21.054 69.3339 21.162 68.9559 21.18C68.5779 21.198 67.2279 21.198 65.8239 21.162C66.0039 21.522 66.2019 22.026 66.2739 22.368C68.1099 22.386 69.2079 22.386 69.8559 22.17C70.4859 21.972 70.7379 21.63 70.7379 20.694V8.418H72.2859V7.176ZM89.9979 14.79C89.8359 14.034 89.4759 12.9 89.1699 12L88.2699 12.27C88.3779 12.63 88.5039 13.026 88.6299 13.44L86.4879 13.674C87.6759 12.306 88.8639 10.578 89.8359 8.85L88.8279 8.292C88.5579 8.85 88.2699 9.408 87.9459 9.948L86.1639 10.11C86.8299 9.084 87.5139 7.716 88.0539 6.402L86.9379 6.042C86.4879 7.536 85.6239 9.156 85.3359 9.552C85.0839 9.984 84.8679 10.272 84.6339 10.308C84.7599 10.614 84.9219 11.154 84.9759 11.388C85.2099 11.28 85.5879 11.19 87.3159 10.956C86.7039 11.856 86.1639 12.576 85.9299 12.864C85.4979 13.404 85.1379 13.782 84.8139 13.854C84.9579 14.124 85.1379 14.7 85.1919 14.916C85.4619 14.79 85.9299 14.7 88.8639 14.322C88.9359 14.61 89.0079 14.862 89.0439 15.096L89.9979 14.79ZM83.1759 10.542H80.8359V8.688H83.1759V10.542ZM83.1759 13.404H80.8359V11.532H83.1759V13.404ZM84.3639 7.644H82.2039C82.3839 7.176 82.5819 6.6 82.7439 6.096L81.5019 5.862C81.4479 6.366 81.3039 7.068 81.1419 7.644H79.6659V14.448H84.3639V7.644ZM79.3419 14.682C79.2339 13.89 78.9639 12.648 78.6759 11.712L77.7579 11.928C77.8659 12.306 77.9739 12.756 78.0639 13.188L75.8679 13.458C77.0559 12.09 78.2259 10.362 79.1979 8.652L78.2259 8.112C77.9379 8.688 77.6139 9.282 77.2899 9.84L75.7419 10.002C76.4079 8.994 77.0739 7.698 77.5779 6.456L76.5159 6.06C76.0659 7.5 75.2199 9.048 74.9499 9.426C74.7159 9.84 74.4819 10.092 74.2479 10.146C74.3739 10.434 74.5539 10.992 74.6079 11.208C74.8239 11.082 75.1659 11.028 76.6779 10.812C76.0839 11.712 75.5619 12.414 75.3279 12.684C74.8779 13.242 74.5539 13.62 74.2299 13.674C74.3559 13.962 74.5359 14.502 74.5899 14.736C74.8419 14.592 75.3099 14.484 78.2439 14.052C78.3159 14.376 78.3339 14.682 78.3699 14.934L79.3419 14.682ZM79.2699 17.724C78.0819 19.002 75.7239 20.172 73.6539 20.676C73.9419 20.946 74.3379 21.432 74.5359 21.792C76.6599 21.108 79.0719 19.74 80.3859 18.174L79.2699 17.724ZM83.8239 18.462C85.6959 19.434 87.9999 20.91 89.1519 21.9L89.9799 20.892C88.7919 19.938 86.4519 18.516 84.6339 17.58L83.8239 18.462ZM82.6719 15.996V14.898H81.3399V15.996H74.0139V17.13H81.3399V22.35H82.6719V17.13H89.9979V15.996H82.6719Z" fill="white"/>
<path d="M10.638 64.16L14.508 56.096L13.536 55.772L9.54 64.16L13.536 72.548L14.508 72.224L10.638 64.16ZM13.482 64.16L17.352 56.096L16.38 55.772L12.384 64.16L16.38 72.548L17.352 72.224L13.482 64.16ZM34.578 58.958V57.752H23.49C23.76 57.248 23.994 56.726 24.228 56.222L22.914 55.844C21.978 58.112 20.43 60.416 18.774 61.856C19.116 62.054 19.674 62.432 19.962 62.648C20.934 61.676 21.924 60.38 22.806 58.958H34.578ZM28.152 68.858L28.764 68.192C28.044 67.454 26.568 66.518 25.344 65.942L24.588 66.68C25.74 67.274 27.054 68.156 27.81 68.858H22.248C22.392 67.994 22.554 66.986 22.698 65.942H31.32C31.248 67.166 31.176 68.12 31.104 68.858H28.152ZM31.482 61.964C31.446 63.026 31.41 63.944 31.374 64.79H28.296L29.07 63.998C28.35 63.35 26.964 62.522 25.794 62.018L25.038 62.774C26.208 63.278 27.54 64.142 28.242 64.79H22.842C22.986 63.836 23.112 62.882 23.238 61.964H31.482ZM35.19 65.978V64.754H32.67C32.706 63.782 32.76 62.684 32.796 61.424C32.796 61.262 32.814 60.776 32.814 60.776H22.05C21.924 61.982 21.726 63.368 21.546 64.754H18.828V65.978H21.366C21.132 67.508 20.88 68.948 20.682 70.046H30.96C30.852 70.604 30.726 70.946 30.6 71.09C30.42 71.306 30.258 71.342 29.934 71.342C29.592 71.36 28.764 71.342 27.846 71.27C28.026 71.576 28.17 72.026 28.188 72.332C29.07 72.386 29.97 72.404 30.492 72.368C31.032 72.314 31.41 72.152 31.752 71.72C31.95 71.432 32.13 70.946 32.274 70.046H34.578V68.858H32.418C32.508 68.102 32.562 67.148 32.634 65.978H35.19ZM40.32 56.024C39.42 58.742 37.98 61.442 36.378 63.188C36.612 63.512 36.972 64.25 37.08 64.538C37.692 63.854 38.268 63.044 38.826 62.162V72.386H40.104V59.858C40.662 58.742 41.148 57.554 41.544 56.366L40.32 56.024ZM48.96 67.616H45.918V64.826H48.96V67.616ZM50.724 61.838V60.812H47.952V58.778H46.854V60.812H44.154V61.838H46.854V63.818H44.892V68.606H50.022V63.818H47.952V61.838H50.724ZM43.416 70.1V58.202H51.336V70.1H43.416ZM42.174 57.032V72.35H43.416V71.288H51.336V72.206H52.614V57.032H42.174ZM62.244 56.006C62.19 58.742 62.298 67.49 54.828 71.27C55.242 71.558 55.674 71.954 55.908 72.314C60.3 69.974 62.208 65.942 63.036 62.342C63.9 65.69 65.826 70.136 70.326 72.242C70.524 71.864 70.92 71.414 71.298 71.108C64.944 68.282 63.864 60.758 63.594 58.616C63.684 57.554 63.702 56.654 63.72 56.006H62.244ZM78.624 63.782H74.844V60.02H78.624V63.782ZM74.844 69.29V64.97H78.624V69.29H74.844ZM76.356 55.898C76.23 56.744 75.906 57.95 75.636 58.814H73.62V71.918H74.844V70.496H79.848V58.814H76.86C77.166 58.04 77.49 57.05 77.796 56.168L76.356 55.898ZM88.65 58.76H83.268C83.574 57.914 83.826 57.05 84.042 56.168L82.764 55.862C82.188 58.328 81.216 60.812 80.01 62.396C80.298 62.576 80.874 62.936 81.108 63.152C81.738 62.306 82.296 61.208 82.8 60.002H87.372C87.138 67.166 86.868 69.902 86.274 70.532C86.094 70.766 85.896 70.802 85.536 70.802C85.122 70.802 84.042 70.802 82.872 70.694C83.124 71.072 83.286 71.612 83.322 72.008C84.33 72.062 85.356 72.098 85.986 72.026C86.598 71.972 87.012 71.81 87.408 71.306C88.128 70.424 88.362 67.652 88.65 59.444V58.76ZM85.806 66.86C85.23 65.798 83.988 64.07 82.98 62.792L81.936 63.404C82.926 64.7 84.132 66.482 84.672 67.562L85.806 66.86ZM100.764 60.524H104.544C104.166 62.918 103.572 64.898 102.654 66.536C101.754 64.826 101.124 62.792 100.728 60.596L100.764 60.524ZM96.678 69.092H92.826V65.222H96.678V69.092ZM107.208 60.524V59.246H101.178C101.502 58.256 101.772 57.212 101.97 56.15L100.638 55.934C100.062 58.976 99.054 61.874 97.506 63.692C97.614 63.764 97.758 63.854 97.902 63.962H95.436V60.686H98.658V59.426H95.436V55.934H94.122V59.426H90.828V60.686H94.122V63.962H91.584V71.612H92.826V70.352H97.956V63.998C98.226 64.196 98.496 64.43 98.64 64.574C99.108 63.962 99.522 63.278 99.9 62.522C100.368 64.484 101.016 66.248 101.844 67.76C100.692 69.254 99.162 70.388 97.092 71.216C97.326 71.486 97.722 72.08 97.866 72.404C99.846 71.522 101.376 70.388 102.564 68.948C103.572 70.424 104.814 71.594 106.398 72.386C106.614 72.026 107.028 71.522 107.334 71.252C105.696 70.514 104.418 69.326 103.392 67.814C104.616 65.888 105.408 63.512 105.894 60.524H107.208ZM121.932 68.624H117.612V67.274H121.932V68.624ZM117.612 64.952H121.932V66.212H117.612V64.952ZM112.41 61.766V60.47H116.28V61.766H112.41ZM121.644 60.47V61.766H117.612V60.47H121.644ZM125.118 66.212H123.264V63.962H117.612V62.702H122.976V59.534H117.612V58.49H124.776V57.392H117.612V55.952H116.28V57.392H109.26V58.49H116.28V59.534H111.132V62.702H116.28V63.962H110.628V64.952H116.28V66.212H108.918V67.274H116.28V68.624H110.466V69.65H116.28V70.892C116.28 71.198 116.172 71.306 115.83 71.324C115.524 71.324 114.444 71.342 113.364 71.306C113.544 71.612 113.76 72.098 113.832 72.44C115.326 72.44 116.262 72.422 116.82 72.224C117.36 72.026 117.612 71.72 117.612 70.892V69.65H121.932V70.46H123.264V67.274H125.118V66.212ZM130.464 72.548L134.46 64.16L130.464 55.772L129.492 56.096L133.362 64.16L129.492 72.224L130.464 72.548ZM127.62 72.548L131.616 64.16L127.62 55.772L126.648 56.096L130.518 64.16L126.648 72.224L127.62 72.548Z" fill="#00FF63"/>
<path opacity="0.8" d="M13.32 88.64C13.08 88.064 12.6 87.248 12.136 86.608L11.576 86.944C12.008 87.568 12.504 88.448 12.728 89.024L13.32 88.64ZM14.136 96.304V99.472H11.16V96.304H14.136ZM14.84 95.616H10.472V100.96H11.16V100.16H14.84V95.616ZM10.504 94.208H14.808V93.536H10.504V94.208ZM14.808 91.472H10.504V92.128H14.808V91.472ZM9.88 90.112H15.416V89.424H9.88V90.112ZM20.344 93.04V96.656H17.272V93.04H20.344ZM21.048 97.344V92.336H16.584V98.48H17.272V97.344H21.048ZM21.96 90.016H15.88V90.704H21.96V90.016ZM23.672 87.536H15.48V88.256H22.952V100C22.952 100.288 22.856 100.368 22.6 100.384C22.312 100.4 21.368 100.416 20.328 100.384C20.456 100.608 20.568 100.96 20.616 101.168C21.88 101.168 22.68 101.168 23.112 101.024C23.512 100.88 23.672 100.624 23.672 100.016V87.536ZM35.256 99.36V95.312H38.6V99.36H35.256ZM27.448 95.312H30.6V99.36H27.448V95.312ZM30.6 90.64V94.576H27.448V90.64H30.6ZM34.504 95.312V99.36H31.352V95.312H34.504ZM34.504 90.64V94.576H31.352V90.64H34.504ZM38.6 90.64V94.576H35.256V90.64H38.6ZM35.256 89.888V86.848H34.504V89.888H31.352V86.848H30.6V89.888H26.712V101.2H27.448V100.112H38.6V101.104H39.352V89.888H35.256ZM55.272 93.136C54.44 92.064 52.68 90.528 51.208 89.472L50.6 89.856C51.336 90.4 52.152 91.104 52.888 91.76L44.52 92.144C45.672 91.152 46.84 89.84 47.992 88.384H55.576V87.648H42.28V88.384H46.936C45.88 89.792 44.6 91.136 44.168 91.504C43.704 91.936 43.352 92.224 43.048 92.256C43.144 92.48 43.288 92.88 43.32 93.072C43.8 92.896 44.552 92.864 53.544 92.4C53.976 92.832 54.36 93.248 54.616 93.6L55.272 93.136ZM49.384 99.744V96.352H54.808V95.632H49.384V93.248H48.6V95.632H43.336V96.352H48.6V99.744H41.944V100.48H56.056V99.744H49.384ZM70.28 89.888H64.552V88.048H70.28V89.888ZM70.28 92.384H64.552V90.528H70.28V92.384ZM71.048 87.392H63.816V93.056H71.048V87.392ZM61.464 88.992V96.16H59.128V88.992H61.464ZM62.2 88.272H58.408V98.496H59.128V96.896H62.2V88.272ZM64.008 99.792V97.696H70.888V99.792H64.008ZM70.888 95.04V97.008H64.008V95.04H70.888ZM63.256 94.352V101.152H64.008V100.48H70.888V101.088H71.656V94.352H63.256ZM77.16 94.464C77.208 93.728 77.224 92.976 77.224 92.224V91.6H84.52V86.688H83.752V90.832H77.224V86.784H76.472V92.224C76.472 95.2 76.248 98.256 74.184 100.688C74.376 100.8 74.616 101.056 74.744 101.216C76.28 99.456 76.872 97.376 77.096 95.216H84.328V101.168H85.112V94.464H77.16ZM97.352 96.864H102.12V96.144H97.352V93.328H101.576V92.608H92.488V93.328H96.568V96.144H91.848V96.864H96.568V99.968H90.232V100.688H103.816V99.968H97.352V96.864ZM92.872 87.072V87.808H96.104C94.488 89.744 91.864 91.856 89.768 92.944C89.96 93.12 90.168 93.36 90.28 93.568C92.536 92.288 95.352 89.904 96.984 87.824C98.68 90.08 101.352 92.256 103.72 93.392C103.864 93.2 104.104 92.912 104.28 92.752C101.832 91.648 98.952 89.392 97.4 87.072H92.872ZM117.8 90.4V91.6H113.352V90.4H117.8ZM117.8 93.408H113.352V92.192H117.8V93.408ZM113.352 94.016H115.8L115.432 94.4C115.944 94.544 116.472 94.752 117 94.992C115.768 95.008 114.552 95.04 113.352 95.056V94.016ZM108.232 93.408V92.192H112.6V93.408H108.232ZM108.232 90.4H112.6V91.6H108.232V90.4ZM112.6 89.808H107.496V94.016H112.6V95.072C110.216 95.104 108.04 95.136 106.408 95.136L106.44 95.808C109.432 95.776 113.88 95.664 118.12 95.552C118.52 95.776 118.872 96.016 119.144 96.224L119.592 95.712C118.824 95.136 117.352 94.416 116.072 94.016H118.552V89.808H113.352V88.688H119.512V88.032H113.352V86.704H112.6V88.032H106.28V88.688H112.6V89.808ZM108.344 98.224C109.352 98.816 110.52 99.68 111.096 100.304L111.656 99.76C111.048 99.152 109.864 98.304 108.872 97.76L108.344 98.224ZM120.216 96.816H116.248V95.712H115.496V96.816H105.8V97.488H115.496V100.208C115.496 100.4 115.432 100.48 115.16 100.496C114.92 100.512 114.04 100.512 112.936 100.48C113.048 100.688 113.176 100.976 113.224 101.152C114.536 101.152 115.304 101.168 115.72 101.04C116.136 100.928 116.248 100.688 116.248 100.224V97.488H120.216V96.816ZM134.648 89.824H130.216V87.872H134.648V89.824ZM135.4 87.216H129.496V90.464H135.4V87.216ZM123.048 93.616H124.904V95.376H123.048V93.616ZM123.048 91.248H124.904V92.992H123.048V91.248ZM127.48 92.992H125.544V91.248H127.48V92.992ZM127.48 95.376H125.544V93.616H127.48V95.376ZM128.664 98.224V97.52H125.576V96.016H128.152V90.608H125.576V89.248H128.488V88.544H125.576V86.672H124.856V88.544H121.928V89.248H124.856V90.608H122.392V96.016H124.856V97.52H121.752V98.224H124.856V101.2H125.576V98.224H128.664ZM134.632 93.936H130.312V92.256H134.632V93.936ZM130.312 98.592V96.944H134.632V98.592H130.312ZM134.632 96.304H130.312V94.576H134.632V96.304ZM136.296 92.256V91.584H128.52V92.256H129.592V98.592H128.12V99.312H134.632V101.184H135.352V99.312H136.232V98.592H135.352V92.256H136.296ZM151.08 86.848H150.376V93.6C150.376 93.808 150.312 93.872 150.072 93.872C149.832 93.888 149.064 93.904 148.088 93.872C148.216 94.096 148.328 94.352 148.376 94.56C149.496 94.56 150.2 94.544 150.584 94.432C150.952 94.304 151.08 94.112 151.08 93.6V86.848ZM148.104 87.504H147.384V92.72H148.104V87.504ZM141.688 91.328H138.824V94.224H139.496V91.936H141.688V94.688H142.392V91.936H144.76V93.376C144.76 93.504 144.728 93.552 144.568 93.568C144.408 93.568 143.992 93.568 143.384 93.552C143.48 93.744 143.576 93.936 143.608 94.128C144.344 94.128 144.808 94.128 145.096 94.016C145.384 93.904 145.432 93.728 145.432 93.376V91.328H142.392V90.32H145.96V89.696H142.392V88.496H145.32V87.888H142.392V86.688H141.688V87.888H139.848C139.976 87.552 140.12 87.232 140.232 86.896L139.56 86.736C139.272 87.648 138.84 88.576 138.264 89.264C138.44 89.328 138.76 89.472 138.888 89.584C139.128 89.264 139.336 88.912 139.544 88.496H141.688V89.696H137.896V90.32H141.688V91.328ZM150.52 96.448C149.768 96.992 148.472 97.712 147.432 98.208C146.728 97.616 146.152 96.912 145.736 96.112H152.056V95.44H145.784C145.608 95.056 145.32 94.528 145.064 94.144L144.344 94.336C144.552 94.672 144.776 95.088 144.936 95.44H137.976V96.112H144.008C142.392 97.216 139.832 98.16 137.704 98.608C137.864 98.752 138.072 99.024 138.184 99.2C139.112 98.976 140.12 98.656 141.128 98.256V99.424C141.128 100.08 140.712 100.352 140.472 100.48C140.584 100.624 140.76 100.944 140.808 101.136C141.096 100.96 141.544 100.832 145.992 99.744C145.992 99.616 145.976 99.36 145.992 99.152L141.88 100.048V97.952C143.064 97.424 144.184 96.816 145.016 96.16C146.216 98.688 148.584 100.304 151.752 100.96C151.864 100.752 152.056 100.464 152.216 100.32C150.552 100.016 149.112 99.44 147.944 98.624C149 98.128 150.2 97.488 151.128 96.848L150.52 96.448ZM157.896 86.736C156.936 89.248 155.384 91.728 153.736 93.312C153.896 93.472 154.136 93.856 154.216 94.016C154.888 93.344 155.528 92.544 156.136 91.68V101.152H156.92V90.448C157.576 89.344 158.152 88.16 158.632 86.96L157.896 86.736ZM168.248 90.128V89.392H161.256C161.624 88.656 161.944 87.872 162.232 87.088L161.512 86.896C160.68 89.264 159.368 91.6 157.912 93.12C158.072 93.232 158.392 93.504 158.52 93.616C159.368 92.672 160.184 91.472 160.904 90.128H162.296V101.168H163.064V97.072H168.152V96.336H163.064V93.536H167.928V92.816H163.064V90.128H168.248Z" fill="white"/>
<path d="M240.5 38.13L9.23999 38.13V39.02L240.5 39.02V38.13Z" fill="white"/>
<path d="M244 35H229V42H244V35Z" fill="#00FF63"/>
</svg>
