<svg width="244" height="106" viewBox="0 0 244 106" fill="none" xmlns="http://www.w3.org/2000/svg">
<path d="M21.25 12.46C21.082 13.398 20.872 14.392 20.662 15.05L21.488 15.288C21.824 14.392 22.146 12.936 22.37 11.69L21.684 11.48L21.516 11.522H18.38C18.548 10.864 18.688 10.164 18.814 9.45L17.82 9.282C17.512 11.354 16.924 13.37 16.014 14.658C16.252 14.784 16.686 15.036 16.882 15.176C17.372 14.448 17.778 13.51 18.114 12.46H21.25ZM12.948 18.046V19.488H11.226V18.046H12.948ZM13.788 20.258V17.276H10.344V20.86H11.226V20.258H13.788ZM16.98 16.394V15.47H15.636V10.878H16.672V9.982H9.77V10.878H14.698V15.47H9.616V16.394H14.782V21.014C14.782 21.168 14.74 21.224 14.558 21.224C14.376 21.238 13.788 21.238 13.158 21.224C13.284 21.448 13.396 21.77 13.452 22.008C14.334 22.008 14.908 21.994 15.258 21.854C15.608 21.728 15.72 21.532 15.72 21.028V16.394H16.98ZM12.906 13.832H11.268V12.446H12.906V13.832ZM10.484 11.704V14.574H13.746V11.704H10.484ZM19.696 13.3H18.744V14.252C18.744 16.226 18.52 19.166 15.874 21.392C16.084 21.574 16.42 21.91 16.574 22.134C18.114 20.804 18.912 19.25 19.304 17.738C19.864 19.544 20.676 20.874 22.02 22.092C22.146 21.812 22.44 21.504 22.706 21.308C20.984 19.866 20.172 18.186 19.668 15.386C19.682 14.994 19.696 14.616 19.696 14.252V13.3ZM36.286 16.492H30.546V14.224H35.502V13.23H30.546V10.962C32.198 10.766 33.724 10.5 34.914 10.136L34.13 9.31C32.03 9.968 27.97 10.332 24.666 10.486C24.764 10.724 24.89 11.13 24.932 11.41C26.374 11.34 27.956 11.242 29.496 11.074V13.23H24.68V14.224H29.496V16.492H23.742V17.514H29.496V20.608C29.496 20.902 29.37 21 29.062 21C28.74 21.014 27.648 21.028 26.472 20.986C26.64 21.266 26.836 21.728 26.92 22.022C28.39 22.036 29.286 22.008 29.804 21.84C30.322 21.672 30.546 21.364 30.546 20.622V17.514H36.286V16.492ZM40.2849 23.506H41.2229L45.4089 9.898H44.4849L40.2849 23.506Z" fill="#00FF63"/>
<path d="M65.627 9.372H56.033V7.662H65.627V9.372ZM65.627 12.09H56.033V10.362H65.627V12.09ZM66.977 6.6H54.719V13.17H66.977V6.6ZM67.913 15.294H62.045C61.793 14.736 61.379 13.908 61.019 13.278L59.669 13.638C59.939 14.124 60.227 14.772 60.461 15.294H53.837V16.518H67.913V15.294ZM58.931 20.046C58.661 19.146 58.121 17.796 57.599 16.752L56.339 17.094C56.789 18.156 57.347 19.578 57.581 20.46L58.931 20.046ZM63.665 20.586C64.331 19.578 65.087 18.318 65.699 17.202L64.277 16.842C63.791 17.958 62.963 19.524 62.243 20.586H52.757V21.846H69.011V20.586H63.665ZM77.165 15.024L77.021 13.818L75.005 14.34V11.748C76.067 10.614 77.219 9.048 78.011 7.698L77.129 7.068L76.859 7.14H71.171V8.382H76.049C75.401 9.462 74.483 10.722 73.691 11.568V14.664C72.539 14.97 71.477 15.222 70.667 15.384L70.901 16.734C71.729 16.518 72.683 16.266 73.691 15.978V20.856C73.691 21.09 73.601 21.162 73.349 21.18C73.133 21.18 72.341 21.18 71.459 21.144C71.639 21.504 71.855 22.026 71.945 22.368C73.115 22.368 73.853 22.35 74.339 22.134C74.843 21.936 75.005 21.594 75.005 20.874V15.618L77.165 15.024ZM84.329 10.488C83.933 12.828 83.321 14.808 82.385 16.428C81.485 14.7 80.837 12.702 80.423 10.488H84.329ZM87.101 10.488V9.228H80.819C81.215 8.292 81.557 7.284 81.809 6.258L80.513 5.97C79.847 8.598 78.713 11.118 77.201 12.738C77.471 13.026 77.903 13.674 78.047 13.962C78.569 13.386 79.037 12.72 79.505 11.946C79.991 14.106 80.675 16.032 81.593 17.652C80.405 19.2 78.857 20.37 76.769 21.234C77.039 21.522 77.417 22.116 77.561 22.44C79.559 21.522 81.107 20.334 82.331 18.858C83.375 20.352 84.689 21.558 86.345 22.35C86.561 22.008 86.957 21.486 87.263 21.234C85.553 20.496 84.221 19.272 83.141 17.706C84.365 15.798 85.157 13.422 85.715 10.488H87.101Z" fill="white"/>
<path d="M10.638 64.16L14.508 56.096L13.536 55.772L9.54 64.16L13.536 72.548L14.508 72.224L10.638 64.16ZM13.482 64.16L17.352 56.096L16.38 55.772L12.384 64.16L16.38 72.548L17.352 72.224L13.482 64.16ZM24.966 60.47C24.966 62.432 24.804 64.88 23.346 67.202C22.554 66.554 21.744 65.906 20.97 65.33C21.33 63.98 21.708 62.342 22.032 60.668L24.966 60.47ZM26.28 58.328H24.966V59.21L22.284 59.354C22.464 58.238 22.644 57.122 22.77 56.096L21.384 56.006C21.294 57.05 21.114 58.238 20.934 59.426L18.666 59.534L18.828 60.866L20.682 60.74C20.304 62.63 19.89 64.43 19.476 65.726C20.466 66.464 21.582 67.364 22.59 68.264C21.69 69.38 20.43 70.442 18.702 71.378C19.026 71.612 19.44 72.062 19.638 72.386C21.384 71.432 22.662 70.334 23.616 69.182C24.426 69.956 25.146 70.694 25.65 71.288L26.64 70.244C26.082 69.632 25.29 68.876 24.408 68.084C26.082 65.474 26.28 62.684 26.28 60.488V60.398L27.036 60.344L27.054 59.102L26.28 59.138V58.328ZM28.998 69.308V59.156H32.886V69.308H28.998ZM27.72 57.878V71.918H28.998V70.586H32.886V71.666H34.2V57.878H27.72ZM40.266 62.756V60.902H44.316V62.756H40.266ZM40.266 57.968H44.316V59.804H40.266V57.968ZM49.788 59.804H45.702V57.968H49.788V59.804ZM49.788 62.756H45.702V60.902H49.788V62.756ZM52.848 66.662V65.42H45.702V63.908H51.21V56.798H38.916V63.908H44.316V65.42H37.17V66.662H43.2C41.616 68.372 39.06 69.92 36.72 70.676C37.008 70.946 37.44 71.468 37.62 71.774C39.96 70.892 42.588 69.182 44.316 67.22V72.386H45.702V67.13C47.466 69.038 50.112 70.784 52.398 71.702C52.596 71.378 53.01 70.856 53.316 70.586C51.048 69.83 48.474 68.318 46.818 66.662H52.848ZM68.688 58.814C68.526 60.974 68.328 61.874 68.022 62.162C67.86 62.306 67.698 62.324 67.392 62.324C67.05 62.324 66.168 62.306 65.268 62.234C65.484 62.558 65.646 63.08 65.682 63.458C66.6 63.512 67.482 63.512 67.95 63.476C68.472 63.44 68.814 63.35 69.138 63.008C69.606 62.504 69.84 61.262 70.056 58.148C70.092 57.95 70.11 57.572 70.11 57.572H63.9C64.008 57.104 64.08 56.618 64.152 56.114L62.784 55.934C62.406 59.066 61.47 61.55 59.562 63.044C59.886 63.242 60.462 63.674 60.696 63.89C62.064 62.666 63.018 60.974 63.612 58.814H68.688ZM59.742 58.058C59.022 57.392 57.6 56.582 56.448 56.096L55.71 57.05C56.862 57.59 58.266 58.472 58.95 59.12L59.742 58.058ZM58.806 62.72C58.086 62.126 56.628 61.352 55.476 60.902L54.756 61.874C55.926 62.396 57.348 63.224 58.068 63.836L58.806 62.72ZM58.536 65.492C57.546 67.526 56.25 69.866 55.332 71.252L56.466 72.116C57.456 70.46 58.644 68.228 59.526 66.338L58.536 65.492ZM68.328 65.51C67.68 66.734 66.744 67.778 65.61 68.606C64.494 67.724 63.612 66.68 62.982 65.51H68.328ZM69.282 64.25L69.03 64.304H60.534V65.51H62.622L61.74 65.816C62.442 67.166 63.378 68.336 64.512 69.326C62.946 70.226 61.146 70.838 59.292 71.162C59.544 71.45 59.85 72.008 59.958 72.35C61.974 71.918 63.9 71.216 65.574 70.172C66.978 71.162 68.616 71.9 70.434 72.368C70.614 72.008 70.992 71.45 71.298 71.18C69.588 70.82 68.04 70.208 66.708 69.38C68.22 68.174 69.426 66.626 70.146 64.628L69.282 64.25ZM85.446 64.628H77.94V62.81H85.446V64.628ZM77.886 67.67C77.922 67.202 77.94 66.77 77.94 66.338V65.798H85.446V67.67H77.886ZM88.866 59.516V58.256H79.686C79.956 57.608 80.19 56.924 80.388 56.258L79.056 55.934C78.84 56.708 78.57 57.482 78.264 58.256H73.206V59.516H77.688C76.572 61.838 74.952 63.962 72.846 65.384C73.098 65.654 73.512 66.14 73.692 66.428C74.79 65.654 75.762 64.7 76.608 63.674V66.302C76.608 68.012 76.446 69.992 74.952 71.432C75.24 71.63 75.726 72.188 75.888 72.476C76.95 71.486 77.49 70.136 77.724 68.822H85.446V70.694C85.446 70.964 85.338 71.054 85.032 71.072C84.708 71.072 83.628 71.09 82.422 71.036C82.62 71.414 82.818 71.954 82.872 72.35C84.402 72.35 85.41 72.332 86.004 72.116C86.58 71.9 86.76 71.504 86.76 70.694V61.604H78.048C78.444 60.938 78.804 60.218 79.146 59.516H88.866ZM94.806 56.006C93.78 58.742 92.124 61.424 90.36 63.152C90.612 63.458 90.972 64.142 91.116 64.466C91.728 63.8 92.358 63.062 92.934 62.234V72.332H94.212V60.236C94.914 59.012 95.544 57.716 96.066 56.384L94.806 56.006ZM98.082 63.602C97.596 65.726 96.75 67.868 95.616 69.236C95.94 69.416 96.516 69.758 96.768 69.974C97.866 68.48 98.82 66.212 99.396 63.854L98.082 63.602ZM105.696 60.632C105.552 61.55 105.39 62.504 105.282 63.152L106.398 63.368C106.632 62.414 106.956 60.866 107.19 59.552L106.272 59.336L106.056 59.39H98.766C99.126 58.4 99.45 57.356 99.72 56.312L98.406 56.024C97.812 58.652 96.768 61.226 95.454 62.882C95.742 63.08 96.3 63.53 96.516 63.728C97.164 62.882 97.758 61.82 98.262 60.632H100.998V70.748C100.998 70.982 100.926 71.054 100.692 71.054C100.458 71.054 99.684 71.072 98.838 71.036C99.018 71.414 99.234 72.008 99.306 72.386C100.44 72.386 101.196 72.35 101.682 72.116C102.15 71.9 102.312 71.504 102.312 70.748V60.632H105.696ZM103.626 63.854C104.58 65.744 105.48 68.264 105.768 69.902L107.046 69.47C106.74 67.832 105.822 65.366 104.796 63.458L103.626 63.854ZM112.464 72.548L116.46 64.16L112.464 55.772L111.492 56.096L115.362 64.16L111.492 72.224L112.464 72.548ZM109.62 72.548L113.616 64.16L109.62 55.772L108.648 56.096L112.518 64.16L108.648 72.224L109.62 72.548ZM132.714 67.4C131.904 68.606 130.716 69.956 129.654 70.856C129.978 71.054 130.518 71.414 130.788 71.612C131.796 70.64 133.038 69.128 133.956 67.832L132.714 67.4ZM132.66 63.782H140.13V65.456H132.66V63.782ZM132.66 61.1H140.13V62.774H132.66V61.1ZM141.48 66.518V60.038H136.296C136.548 59.588 136.818 59.102 137.088 58.616L135.54 58.382C135.378 58.85 135.126 59.498 134.856 60.038H131.346V66.518H135.738V70.892C135.738 71.108 135.666 71.18 135.378 71.198C135.108 71.198 134.19 71.198 133.146 71.18C133.308 71.522 133.506 72.008 133.56 72.368C134.928 72.368 135.81 72.368 136.35 72.152C136.89 71.954 137.034 71.612 137.034 70.91V66.518H141.48ZM138.546 67.994C139.626 69.164 141.048 70.748 141.714 71.72L142.83 71C142.11 70.082 140.67 68.552 139.608 67.436L138.546 67.994ZM142.902 56.942H128.412V62.018C128.412 64.754 128.25 68.606 126.684 71.342C127.026 71.468 127.584 71.792 127.836 72.008C129.492 69.146 129.726 64.898 129.726 62.018V58.166H142.902V56.942ZM158.562 59.426H152.928V57.752H158.562V59.426ZM158.562 62.162H152.928V60.452H158.562V62.162ZM159.894 56.672H151.632V63.242H159.894V56.672ZM148.824 58.886V66.392H146.718V58.886H148.824ZM150.066 57.644H145.476V69.344H146.718V67.634H150.066V57.644ZM152.388 70.496V68.588H159.174V70.496H152.388ZM159.174 65.654V67.454H152.388V65.654H159.174ZM151.074 64.502V72.368H152.388V71.666H159.174V72.278H160.524V64.502H151.074ZM162.198 74.222H163.404L168.786 56.726H167.598L162.198 74.222ZM185.969 62.054V60.704H178.517C178.715 58.994 178.733 57.356 178.751 55.952H177.329C177.311 57.32 177.329 58.976 177.131 60.704H170.201V62.054H176.915C176.267 65.618 174.521 69.272 169.787 71.27C170.165 71.54 170.579 72.026 170.777 72.368C172.883 71.432 174.413 70.19 175.547 68.75C176.753 69.794 178.175 71.234 178.841 72.17L179.975 71.288C179.237 70.316 177.707 68.858 176.465 67.85L175.943 68.21C177.113 66.572 177.779 64.754 178.175 62.918C179.543 67.274 181.847 70.676 185.429 72.404C185.663 72.026 186.095 71.468 186.437 71.18C182.855 69.65 180.497 66.23 179.273 62.054H185.969ZM192.629 61.01C192.611 62.738 192.449 64.79 191.567 66.824C190.937 66.284 190.289 65.78 189.659 65.312C190.019 64.106 190.379 62.648 190.703 61.136L192.629 61.01ZM194.573 60.884V59.75L193.853 59.786V58.49H192.629V59.858L190.973 59.93C191.225 58.616 191.459 57.284 191.621 56.096L190.379 56.006C190.235 57.23 190.001 58.634 189.731 60.002C189.011 60.038 188.327 60.074 187.751 60.092L187.895 61.316L189.479 61.226C189.083 62.936 188.669 64.556 188.255 65.744C189.119 66.374 190.091 67.166 190.991 67.94C190.253 69.2 189.191 70.406 187.661 71.486C187.967 71.684 188.381 72.098 188.579 72.368C190.091 71.27 191.171 70.064 191.963 68.786C192.683 69.47 193.295 70.1 193.745 70.604L194.555 69.56C194.087 69.02 193.367 68.354 192.575 67.652C193.655 65.312 193.835 62.936 193.853 60.938L194.573 60.884ZM197.993 63.386V63.17V58.202H200.819V63.386H197.993ZM204.257 63.386H202.133V58.202H203.933V56.942H194.861V58.202H196.697V63.17V63.386H194.375V64.646H196.661C196.535 67.04 195.977 69.722 193.997 71.648C194.303 71.828 194.807 72.206 195.041 72.458C197.237 70.334 197.831 67.382 197.957 64.646H200.819V72.386H202.133V64.646H204.257V63.386Z" fill="#00FF63"/>
<path opacity="0.8" d="M23.24 90.096C23.064 91.2 22.776 92.416 22.456 93.216L23.112 93.408C23.512 92.448 23.88 90.848 24.136 89.52L23.624 89.344L23.48 89.392H19.48C19.704 88.56 19.912 87.68 20.056 86.784L19.288 86.656C18.904 89.072 18.216 91.392 17.128 92.896C17.32 92.976 17.656 93.184 17.8 93.296C18.392 92.432 18.872 91.344 19.256 90.096H23.24ZM13.768 96.416V98.416H11.4V96.416H13.768ZM14.44 99.056V95.776H10.712V99.824H11.4V99.056H14.44ZM17.912 94.56V93.856H16.376V88.272H17.72V87.568H9.944V88.272H15.656V93.856H9.784V94.56H15.752V100.288C15.752 100.464 15.704 100.512 15.496 100.528C15.288 100.528 14.632 100.528 13.832 100.512C13.928 100.704 14.04 100.96 14.088 101.152C15.096 101.152 15.688 101.152 16.024 101.024C16.36 100.912 16.472 100.736 16.472 100.272V94.56H17.912ZM13.816 91.968H11.544V90.048H13.816V91.968ZM10.904 89.424V92.576H14.488V89.424H10.904ZM21.096 91.184H20.36V92.224C20.36 94.592 20.136 98.032 16.952 100.72C17.128 100.848 17.4 101.088 17.528 101.264C19.512 99.552 20.408 97.552 20.792 95.68C21.4 98.064 22.328 99.728 24.008 101.232C24.12 101.008 24.344 100.768 24.552 100.624C22.504 98.88 21.592 96.912 21.064 93.536C21.096 93.072 21.096 92.64 21.096 92.224V91.184ZM38.28 89.888H32.552V88.048H38.28V89.888ZM38.28 92.384H32.552V90.528H38.28V92.384ZM39.048 87.392H31.816V93.056H39.048V87.392ZM29.464 88.992V96.16H27.128V88.992H29.464ZM30.2 88.272H26.408V98.496H27.128V96.896H30.2V88.272ZM32.008 99.792V97.696H38.888V99.792H32.008ZM38.888 95.04V97.008H32.008V95.04H38.888ZM31.256 94.352V101.152H32.008V100.48H38.888V101.088H39.656V94.352H31.256ZM54.44 92.752C55.16 92.752 55.864 92.736 56.12 92.672C56.072 92.512 56.04 92.208 56.008 91.984C55.672 92.048 54.872 92.064 54.408 92.064H49.848C49.144 92.064 48.952 91.856 48.952 91.248V89.504H55.56V88.816H48.952V86.768H48.184V91.232C48.184 92.368 48.584 92.752 49.864 92.752H54.44ZM47 93.632C46.328 93.856 45.64 94.064 44.984 94.272V90.784H46.968V90.032H44.984V86.688H44.232V90.032H41.8V90.784H44.232V94.528C43.208 94.832 42.264 95.12 41.544 95.328L41.816 96.08C42.52 95.856 43.352 95.584 44.232 95.312V100.144C44.232 100.384 44.136 100.448 43.928 100.448C43.736 100.464 43.048 100.464 42.264 100.448C42.376 100.656 42.504 100.976 42.552 101.168C43.576 101.168 44.152 101.152 44.504 101.024C44.84 100.896 44.984 100.672 44.984 100.128V95.056L47.112 94.368L47 93.632ZM54.76 95.04V96.992H48.872V95.04H54.76ZM48.872 99.712V97.664H54.76V99.712H48.872ZM48.136 101.168H48.872V100.4H54.76V101.088H55.512V94.352H48.136V101.168ZM69.768 91.232H63.736V90.368H69.768V91.232ZM69.768 92.64H63.736V91.76H69.768V92.64ZM69.768 94.064H63.736V93.168H69.768V94.064ZM63.016 89.824V94.608H70.52V89.824H66.488C66.664 89.536 66.824 89.2 66.968 88.864H71.784V88.224H68.968C69.256 87.824 69.56 87.376 69.848 86.928L69.112 86.704C68.904 87.136 68.504 87.776 68.184 88.224H65.128L65.512 88.064C65.384 87.664 64.984 87.072 64.616 86.688L63.992 86.928C64.312 87.312 64.664 87.824 64.808 88.224H61.944V88.864H66.216C66.088 89.184 65.928 89.52 65.784 89.824H63.016ZM60.088 88.256C59.928 87.84 59.592 87.184 59.352 86.672L58.712 86.864C58.936 87.392 59.24 88.08 59.416 88.512L60.088 88.256ZM60.568 98.544C61.48 99.072 62.552 99.888 63.032 100.48L63.592 99.952C63.08 99.36 61.992 98.576 61.08 98.08L60.568 98.544ZM68.728 96.192H67.992V97.232H57.992V97.888H67.992V100.144C67.992 100.368 67.928 100.432 67.64 100.432C67.384 100.448 66.472 100.464 65.32 100.432C65.432 100.64 65.544 100.896 65.592 101.104C66.968 101.104 67.768 101.104 68.2 100.976C68.632 100.848 68.728 100.64 68.728 100.144V97.888H71.928V97.232H68.728V96.192ZM61.128 91.04L61.016 91.088H59.64C60.088 90.368 60.6 89.472 61.048 88.688H57.864V89.344H59.928C59.48 90.176 58.936 91.072 58.504 91.728H60.664C60.328 92.64 59.816 93.632 59.24 94.288C58.808 94.592 58.36 95.056 57.912 95.568L58.392 96.16C59.016 95.312 59.64 94.592 60.056 94.592C60.376 94.592 60.84 94.992 61.416 95.344C62.456 95.92 63.896 96.016 65.752 96.016C67.4 96.016 70.52 95.936 72.04 95.84C72.056 95.648 72.168 95.28 72.264 95.088C70.568 95.248 67.944 95.36 65.768 95.36C63.992 95.36 62.6 95.296 61.624 94.768C60.968 94.384 60.632 94.064 60.264 93.984C60.792 93.2 61.256 92.16 61.576 91.232L61.128 91.04Z" fill="white"/>
<path d="M240.5 38.1299L9.23999 38.1299V39.0199L240.5 39.0199V38.1299Z" fill="white"/>
<path d="M244 35H229V42H244V35Z" fill="#00FF63"/>
</svg>
