<svg width="244" height="106" viewBox="0 0 244 106" fill="none" xmlns="http://www.w3.org/2000/svg">
<path d="M21.25 12.46C21.082 13.398 20.872 14.392 20.662 15.05L21.488 15.288C21.824 14.392 22.146 12.936 22.37 11.69L21.684 11.48L21.516 11.522H18.38C18.548 10.864 18.688 10.164 18.814 9.45L17.82 9.282C17.512 11.354 16.924 13.37 16.014 14.658C16.252 14.784 16.686 15.036 16.882 15.176C17.372 14.448 17.778 13.51 18.114 12.46H21.25ZM12.948 18.046V19.488H11.226V18.046H12.948ZM13.788 20.258V17.276H10.344V20.86H11.226V20.258H13.788ZM16.98 16.394V15.47H15.636V10.878H16.672V9.982H9.77V10.878H14.698V15.47H9.616V16.394H14.782V21.014C14.782 21.168 14.74 21.224 14.558 21.224C14.376 21.238 13.788 21.238 13.158 21.224C13.284 21.448 13.396 21.77 13.452 22.008C14.334 22.008 14.908 21.994 15.258 21.854C15.608 21.728 15.72 21.532 15.72 21.028V16.394H16.98ZM12.906 13.832H11.268V12.446H12.906V13.832ZM10.484 11.704V14.574H13.746V11.704H10.484ZM19.696 13.3H18.744V14.252C18.744 16.226 18.52 19.166 15.874 21.392C16.084 21.574 16.42 21.91 16.574 22.134C18.114 20.804 18.912 19.25 19.304 17.738C19.864 19.544 20.676 20.874 22.02 22.092C22.146 21.812 22.44 21.504 22.706 21.308C20.984 19.866 20.172 18.186 19.668 15.386C19.682 14.994 19.696 14.616 19.696 14.252V13.3ZM36.286 16.492H30.546V14.224H35.502V13.23H30.546V10.962C32.198 10.766 33.724 10.5 34.914 10.136L34.13 9.31C32.03 9.968 27.97 10.332 24.666 10.486C24.764 10.724 24.89 11.13 24.932 11.41C26.374 11.34 27.956 11.242 29.496 11.074V13.23H24.68V14.224H29.496V16.492H23.742V17.514H29.496V20.608C29.496 20.902 29.37 21 29.062 21C28.74 21.014 27.648 21.028 26.472 20.986C26.64 21.266 26.836 21.728 26.92 22.022C28.39 22.036 29.286 22.008 29.804 21.84C30.322 21.672 30.546 21.364 30.546 20.622V17.514H36.286V16.492ZM40.2849 23.506H41.2229L45.4089 9.898H44.4849L40.2849 23.506Z" fill="#00FF63"/>
<path d="M64.853 10.866H58.751V8.058H64.853V10.866ZM66.167 6.888H57.491V12.036H66.167V6.888ZM60.839 19.524C63.107 20.406 66.239 21.756 67.805 22.548L68.453 21.396C66.815 20.622 63.665 19.362 61.451 18.534L60.839 19.524ZM65.843 14.574V16.752H61.127C61.271 16.086 61.379 15.366 61.451 14.574H65.843ZM67.175 16.752V13.35H55.799V7.464H54.485V14.574H60.119C60.047 15.384 59.957 16.104 59.795 16.752H52.991V17.994H59.381C58.517 19.794 56.699 20.82 52.649 21.342C52.865 21.63 53.153 22.116 53.243 22.458C57.941 21.756 59.885 20.388 60.785 17.994H68.777V16.752H67.175ZM79.505 16.158V13.44H84.545V16.158H79.505ZM73.259 16.158V13.44H78.137V16.158H73.259ZM78.137 9.588V12.198H73.259V9.588H78.137ZM84.545 9.588V12.198H79.505V9.588H84.545ZM79.505 8.31V5.934H78.137V8.31H71.945V18.48H73.259V17.454H78.137V22.35H79.505V17.454H84.545V18.39H85.895V8.31H79.505ZM92.195 10.974H93.905V9.75H92.195V5.934H90.971V9.75H88.865V10.974H90.899C90.449 13.422 89.513 16.32 88.523 17.886C88.739 18.174 89.045 18.66 89.207 19.02C89.855 17.958 90.485 16.32 90.971 14.592V22.368H92.195V13.476C92.645 14.358 93.185 15.438 93.419 16.032L94.157 14.952C93.887 14.43 92.627 12.342 92.195 11.676V10.974ZM104.723 9.102V7.896H97.397C97.631 7.356 97.829 6.78 97.991 6.204L96.767 5.916C96.245 7.878 95.327 9.786 94.193 11.028C94.463 11.208 94.967 11.604 95.183 11.82C95.795 11.082 96.371 10.146 96.893 9.102H104.723ZM98.297 12.828C99.035 13.314 100.097 14.07 100.637 14.52L101.375 13.764C100.835 13.35 99.791 12.648 98.999 12.162L98.297 12.828ZM101.087 17.742C100.547 17.31 99.521 16.536 98.747 16.032L98.027 16.68C98.765 17.202 99.773 17.994 100.349 18.48L101.087 17.742ZM96.461 18.786C96.587 17.922 96.731 16.914 96.857 15.852H102.563C102.509 17.076 102.437 18.048 102.365 18.786H96.461ZM102.725 11.946C102.689 12.972 102.653 13.872 102.617 14.682H97.001C97.109 13.746 97.199 12.828 97.307 11.946H102.725ZM105.083 15.852V14.682H103.823C103.877 13.728 103.913 12.666 103.949 11.442C103.949 11.28 103.967 10.812 103.967 10.812H96.191C96.101 11.982 95.957 13.332 95.777 14.682H94.319V15.852H95.633C95.435 17.382 95.201 18.84 95.021 19.92H102.221C102.131 20.442 102.023 20.766 101.897 20.91C101.771 21.144 101.609 21.18 101.321 21.162C101.015 21.162 100.331 21.162 99.575 21.108C99.773 21.414 99.881 21.9 99.899 22.242C100.655 22.278 101.393 22.296 101.825 22.242C102.347 22.188 102.689 22.044 102.977 21.63C103.193 21.342 103.355 20.838 103.481 19.92H104.849V18.786H103.589C103.661 18.012 103.715 17.058 103.787 15.852H105.083Z" fill="white"/>
<path d="M10.638 64.16L14.508 56.096L13.536 55.772L9.54 64.16L13.536 72.548L14.508 72.224L10.638 64.16ZM13.482 64.16L17.352 56.096L16.38 55.772L12.384 64.16L16.38 72.548L17.352 72.224L13.482 64.16ZM32.544 57.968V59.966H21.78V57.968H32.544ZM33.876 61.136V56.798H20.466V62.054C20.466 64.88 20.304 68.858 18.63 71.666C18.972 71.792 19.566 72.134 19.818 72.35C21.546 69.416 21.78 65.042 21.78 62.036V61.136H33.876ZM29.25 70.874C28.26 70.874 28.062 70.748 28.062 70.082V68.606L34.614 67.58L34.398 66.482L28.062 67.472V65.816L33.354 65.006L33.156 63.926L28.062 64.7V63.116C29.574 62.81 31.014 62.45 32.148 62.054L31.032 61.19C29.16 61.892 25.65 62.54 22.644 62.936C22.788 63.188 22.968 63.62 23.022 63.908C24.228 63.764 25.506 63.566 26.748 63.35V64.88L22.554 65.528L22.752 66.644L26.748 66.032V67.67L21.96 68.408L22.176 69.524L26.748 68.804V70.082C26.748 71.684 27.27 72.098 29.142 72.098H32.796C34.344 72.098 34.758 71.504 34.938 69.416C34.56 69.326 34.038 69.128 33.732 68.912C33.642 70.55 33.498 70.874 32.688 70.874H29.25ZM42.192 68.3L40.23 68.786V64.214H42.048V62.99H40.23V58.472H42.444V57.248H36.9V58.472H38.988V62.99H37.134V64.214H38.988V69.092C38.124 69.272 37.332 69.47 36.702 69.596L36.954 70.874C38.484 70.478 40.464 70.01 42.336 69.488L42.192 68.3ZM45.99 55.934H44.784V62.918C44.37 62.018 43.758 60.956 43.2 60.092L42.21 60.47C42.894 61.622 43.704 63.188 44.064 64.178L44.784 63.854C44.766 66.95 44.316 69.596 41.292 71.45C41.544 71.666 41.958 72.134 42.12 72.404C45.54 70.28 45.99 67.202 45.99 63.584V55.934ZM50.238 70.496V64.934H52.488V63.71H50.238V58.418H52.794V57.194H46.512V58.418H48.96V63.71H46.836V64.934H48.96V70.496H45.594V71.756H53.172V70.496H50.238ZM58.158 65.978V64.124H62.28V65.978H58.158ZM58.158 61.226H62.28V63.062H58.158V61.226ZM67.842 61.226V63.062H63.63V61.226H67.842ZM67.842 65.978H63.63V64.124H67.842V65.978ZM71.064 68.552H63.63V67.076H69.174V60.11H63.63V58.796H70.452V57.572H63.63V55.952H62.28V57.572H55.548V58.796H62.28V60.11H56.88V67.076H62.28V68.552H55.008V69.758H62.28V72.422H63.63V69.758H71.064V68.552ZM76.464 72.548L80.46 64.16L76.464 55.772L75.492 56.096L79.362 64.16L75.492 72.224L76.464 72.548ZM73.62 72.548L77.616 64.16L73.62 55.772L72.648 56.096L76.518 64.16L72.648 72.224L73.62 72.548Z" fill="#00FF63"/>
<path opacity="0.8" d="M13.32 88.64C13.08 88.064 12.6 87.248 12.136 86.608L11.576 86.944C12.008 87.568 12.504 88.448 12.728 89.024L13.32 88.64ZM14.136 96.304V99.472H11.16V96.304H14.136ZM14.84 95.616H10.472V100.96H11.16V100.16H14.84V95.616ZM10.504 94.208H14.808V93.536H10.504V94.208ZM14.808 91.472H10.504V92.128H14.808V91.472ZM9.88 90.112H15.416V89.424H9.88V90.112ZM20.344 93.04V96.656H17.272V93.04H20.344ZM21.048 97.344V92.336H16.584V98.48H17.272V97.344H21.048ZM21.96 90.016H15.88V90.704H21.96V90.016ZM23.672 87.536H15.48V88.256H22.952V100C22.952 100.288 22.856 100.368 22.6 100.384C22.312 100.4 21.368 100.416 20.328 100.384C20.456 100.608 20.568 100.96 20.616 101.168C21.88 101.168 22.68 101.168 23.112 101.024C23.512 100.88 23.672 100.624 23.672 100.016V87.536ZM35.256 99.36V95.312H38.6V99.36H35.256ZM27.448 95.312H30.6V99.36H27.448V95.312ZM30.6 90.64V94.576H27.448V90.64H30.6ZM34.504 95.312V99.36H31.352V95.312H34.504ZM34.504 90.64V94.576H31.352V90.64H34.504ZM38.6 90.64V94.576H35.256V90.64H38.6ZM35.256 89.888V86.848H34.504V89.888H31.352V86.848H30.6V89.888H26.712V101.2H27.448V100.112H38.6V101.104H39.352V89.888H35.256ZM48.6 92.208V93.456H43.864V92.208H48.6ZM43.8 95.408C43.848 94.928 43.864 94.464 43.864 94.048H48.6V95.408H43.8ZM49.32 96.048V91.568H43.144V93.904C43.144 95.696 42.936 98.176 41.688 100.048C41.864 100.128 42.184 100.32 42.312 100.448C43.176 99.168 43.56 97.552 43.752 96.048H49.32ZM44.648 90V90.592H48.088V90H44.648ZM48.984 97.584V99.616H44.584V97.584H48.984ZM43.88 101.04H44.584V100.272H48.984V101.024H49.704V96.944H43.88V101.04ZM46.056 86.88C45.128 88.544 43.448 89.92 41.704 90.8C41.864 90.976 42.088 91.312 42.168 91.472C43.624 90.64 45.112 89.456 46.152 88.032C47.448 88.848 49 89.936 49.8 90.624L50.216 90.032C49.4 89.344 47.832 88.288 46.52 87.504C46.6 87.376 46.68 87.232 46.76 87.12L46.056 86.88ZM52.2 88.528H51.464V97.248H52.2V88.528ZM54.552 86.768V100.016C54.552 100.304 54.44 100.384 54.168 100.4C53.912 100.416 53.016 100.416 51.976 100.4C52.088 100.624 52.2 100.944 52.248 101.152C53.576 101.152 54.312 101.152 54.728 101.008C55.112 100.864 55.304 100.624 55.304 100.016V86.768H54.552ZM61.896 86.736C60.936 89.248 59.384 91.728 57.736 93.312C57.896 93.472 58.136 93.856 58.216 94.016C58.888 93.344 59.528 92.544 60.136 91.68V101.152H60.92V90.448C61.576 89.344 62.152 88.16 62.632 86.96L61.896 86.736ZM72.248 90.128V89.392H65.256C65.624 88.656 65.944 87.872 66.232 87.088L65.512 86.896C64.68 89.264 63.368 91.6 61.912 93.12C62.072 93.232 62.392 93.504 62.52 93.616C63.368 92.672 64.184 91.472 64.904 90.128H66.296V101.168H67.064V97.072H72.152V96.336H67.064V93.536H71.928V92.816H67.064V90.128H72.248Z" fill="white"/>
<path d="M240.5 38.13L9.24023 38.13V39.02L240.5 39.02V38.13Z" fill="white"/>
<path d="M244 35H229V42H244V35Z" fill="#00FF63"/>
</svg>
