<svg width="244" height="106" viewBox="0 0 244 106" fill="none" xmlns="http://www.w3.org/2000/svg">
<path d="M21.25 12.46C21.082 13.398 20.872 14.392 20.662 15.05L21.488 15.288C21.824 14.392 22.146 12.936 22.37 11.69L21.684 11.48L21.516 11.522H18.38C18.548 10.864 18.688 10.164 18.814 9.45L17.82 9.282C17.512 11.354 16.924 13.37 16.014 14.658C16.252 14.784 16.686 15.036 16.882 15.176C17.372 14.448 17.778 13.51 18.114 12.46H21.25ZM12.948 18.046V19.488H11.226V18.046H12.948ZM13.788 20.258V17.276H10.344V20.86H11.226V20.258H13.788ZM16.98 16.394V15.47H15.636V10.878H16.672V9.982H9.77V10.878H14.698V15.47H9.616V16.394H14.782V21.014C14.782 21.168 14.74 21.224 14.558 21.224C14.376 21.238 13.788 21.238 13.158 21.224C13.284 21.448 13.396 21.77 13.452 22.008C14.334 22.008 14.908 21.994 15.258 21.854C15.608 21.728 15.72 21.532 15.72 21.028V16.394H16.98ZM12.906 13.832H11.268V12.446H12.906V13.832ZM10.484 11.704V14.574H13.746V11.704H10.484ZM19.696 13.3H18.744V14.252C18.744 16.226 18.52 19.166 15.874 21.392C16.084 21.574 16.42 21.91 16.574 22.134C18.114 20.804 18.912 19.25 19.304 17.738C19.864 19.544 20.676 20.874 22.02 22.092C22.146 21.812 22.44 21.504 22.706 21.308C20.984 19.866 20.172 18.186 19.668 15.386C19.682 14.994 19.696 14.616 19.696 14.252V13.3ZM36.286 16.492H30.546V14.224H35.502V13.23H30.546V10.962C32.198 10.766 33.724 10.5 34.914 10.136L34.13 9.31C32.03 9.968 27.97 10.332 24.666 10.486C24.764 10.724 24.89 11.13 24.932 11.41C26.374 11.34 27.956 11.242 29.496 11.074V13.23H24.68V14.224H29.496V16.492H23.742V17.514H29.496V20.608C29.496 20.902 29.37 21 29.062 21C28.74 21.014 27.648 21.028 26.472 20.986C26.64 21.266 26.836 21.728 26.92 22.022C28.39 22.036 29.286 22.008 29.804 21.84C30.322 21.672 30.546 21.364 30.546 20.622V17.514H36.286V16.492ZM40.2849 23.506H41.2229L45.4089 9.898H44.4849L40.2849 23.506Z" fill="#00FF63"/>
<path d="M59.8659 12.882C59.1099 12.342 57.6159 11.55 56.5539 11.064L55.8159 12.054C56.9319 12.594 58.3899 13.44 59.1099 13.98L59.8659 12.882ZM57.5259 22.134C58.5879 20.478 59.8479 18.264 60.8019 16.374L59.8299 15.492C58.7859 17.526 57.3819 19.884 56.4099 21.234L57.5259 22.134ZM56.7879 7.14C57.8679 7.752 59.2899 8.652 59.9739 9.264L60.8019 8.22C60.0819 7.644 58.6239 6.78 57.5619 6.204L56.7879 7.14ZM67.0479 19.884V8.958H71.2059V7.644H61.7379V8.958H65.6439V19.884H60.8919V21.216H72.1959V19.884H67.0479ZM84.4719 9.444H85.7859V8.202H89.8899V7.104H85.7859V5.952H84.4719V7.104H82.3479V8.202H84.4719V9.444ZM82.6359 15.78H86.2719L85.4979 16.284C85.6779 16.41 85.8579 16.536 86.0559 16.68C84.9039 16.716 83.7519 16.734 82.6359 16.752V15.78ZM77.0199 14.988V14.052H81.3219V14.988H77.0199ZM77.0199 12.378H81.3219V13.296H77.0199V12.378ZM87.0639 12.378V13.296H82.6359V12.378H87.0639ZM87.0639 14.988H82.6359V14.052H87.0639V14.988ZM89.4039 18.084C88.7919 17.472 87.5679 16.482 86.5239 15.78H88.3599V11.586H82.6359V10.722H89.3319V9.768H82.6359V8.832H81.3219V9.768H74.5899V10.722H81.3219V11.586H75.7599V15.78H81.3219V16.788C78.7119 16.842 76.2999 16.86 74.4819 16.878L74.5539 17.94C77.7579 17.868 82.5639 17.724 87.1359 17.562C87.6579 17.994 88.1259 18.426 88.4679 18.786L89.4039 18.084ZM84.1479 19.542C83.5539 19.02 82.3839 18.336 81.4479 17.94L80.6379 18.642C81.5739 19.092 82.7259 19.794 83.3019 20.316L84.1479 19.542ZM78.1539 9.462H79.4499V8.202H81.7719V7.104H79.4499V5.952H78.1539V7.104H74.1939V8.202H78.1539V9.462ZM74.8059 22.134C76.0479 21.396 76.8759 20.19 77.4339 19.038L76.3359 18.57C75.8499 19.632 74.9679 20.766 73.7799 21.396L74.8059 22.134ZM80.8539 21C79.9359 21 79.7739 20.928 79.7739 20.532V18.498H78.4959V20.532C78.4959 21.756 78.9639 22.062 80.7639 22.062H84.1839C85.5159 22.062 85.9119 21.648 86.0739 19.92C85.7139 19.848 85.2279 19.686 84.9399 19.506C84.8679 20.82 84.7419 21 84.0399 21H80.8539ZM85.8039 19.11C87.0999 19.956 88.5759 21.234 89.2419 22.116L90.2859 21.378C89.5479 20.478 88.0359 19.254 86.7759 18.444L85.8039 19.11Z" fill="white"/>
<path d="M10.638 64.16L14.508 56.096L13.536 55.772L9.54 64.16L13.536 72.548L14.508 72.224L10.638 64.16ZM13.482 64.16L17.352 56.096L16.38 55.772L12.384 64.16L16.38 72.548L17.352 72.224L13.482 64.16ZM32.274 63.62H28.026V62.738C29.286 62.054 30.582 61.082 31.5 60.146L30.708 59.534L30.42 59.606H23.202V60.722H29.214C28.476 61.316 27.576 61.928 26.748 62.342V63.62H22.068V64.772H26.748V67.976C26.748 68.192 26.676 68.264 26.388 68.282C26.118 68.3 25.218 68.3 24.156 68.264C24.336 68.606 24.57 69.074 24.66 69.434C25.956 69.434 26.766 69.416 27.324 69.218C27.864 69.02 28.026 68.696 28.026 67.994V64.772H32.274V63.62ZM20.916 70.172V58.076H33.03V70.172H20.916ZM19.602 56.78V72.278H20.916V71.468H33.03V72.116H34.398V56.78H19.602ZM40.842 55.952C39.888 58.688 38.322 61.352 36.666 63.098C36.882 63.386 37.278 64.088 37.422 64.394C37.926 63.836 38.448 63.188 38.934 62.504V72.386H40.212V60.452C40.932 59.156 41.58 57.752 42.102 56.348L40.842 55.952ZM53.208 63.692H48.132V61.676C49.752 60.668 51.57 59.21 52.776 57.806L51.858 57.14L51.588 57.212H42.768V58.472H50.382C49.392 59.444 48.006 60.452 46.8 61.1V63.692H41.652V64.988H46.8V70.586C46.8 70.91 46.71 70.982 46.386 71C46.026 71.018 44.82 71 43.56 70.964C43.758 71.342 43.956 71.936 44.028 72.314C45.63 72.314 46.692 72.296 47.304 72.08C47.916 71.882 48.132 71.468 48.132 70.604V64.988H53.208V63.692ZM58.464 72.548L62.46 64.16L58.464 55.772L57.492 56.096L61.362 64.16L57.492 72.224L58.464 72.548ZM55.62 72.548L59.616 64.16L55.62 55.772L54.648 56.096L58.518 64.16L54.648 72.224L55.62 72.548Z" fill="#00FF63"/>
<path opacity="0.8" d="M13.32 88.64C13.08 88.064 12.6 87.248 12.136 86.608L11.576 86.944C12.008 87.568 12.504 88.448 12.728 89.024L13.32 88.64ZM14.136 96.304V99.472H11.16V96.304H14.136ZM14.84 95.616H10.472V100.96H11.16V100.16H14.84V95.616ZM10.504 94.208H14.808V93.536H10.504V94.208ZM14.808 91.472H10.504V92.128H14.808V91.472ZM9.88 90.112H15.416V89.424H9.88V90.112ZM20.344 93.04V96.656H17.272V93.04H20.344ZM21.048 97.344V92.336H16.584V98.48H17.272V97.344H21.048ZM21.96 90.016H15.88V90.704H21.96V90.016ZM23.672 87.536H15.48V88.256H22.952V100C22.952 100.288 22.856 100.368 22.6 100.384C22.312 100.4 21.368 100.416 20.328 100.384C20.456 100.608 20.568 100.96 20.616 101.168C21.88 101.168 22.68 101.168 23.112 101.024C23.512 100.88 23.672 100.624 23.672 100.016V87.536ZM35.256 99.36V95.312H38.6V99.36H35.256ZM27.448 95.312H30.6V99.36H27.448V95.312ZM30.6 90.64V94.576H27.448V90.64H30.6ZM34.504 95.312V99.36H31.352V95.312H34.504ZM34.504 90.64V94.576H31.352V90.64H34.504ZM38.6 90.64V94.576H35.256V90.64H38.6ZM35.256 89.888V86.848H34.504V89.888H31.352V86.848H30.6V89.888H26.712V101.2H27.448V100.112H38.6V101.104H39.352V89.888H35.256ZM48.6 92.208V93.456H43.864V92.208H48.6ZM43.8 95.408C43.848 94.928 43.864 94.464 43.864 94.048H48.6V95.408H43.8ZM49.32 96.048V91.568H43.144V93.904C43.144 95.696 42.936 98.176 41.688 100.048C41.864 100.128 42.184 100.32 42.312 100.448C43.176 99.168 43.56 97.552 43.752 96.048H49.32ZM44.648 90V90.592H48.088V90H44.648ZM48.984 97.584V99.616H44.584V97.584H48.984ZM43.88 101.04H44.584V100.272H48.984V101.024H49.704V96.944H43.88V101.04ZM46.056 86.88C45.128 88.544 43.448 89.92 41.704 90.8C41.864 90.976 42.088 91.312 42.168 91.472C43.624 90.64 45.112 89.456 46.152 88.032C47.448 88.848 49 89.936 49.8 90.624L50.216 90.032C49.4 89.344 47.832 88.288 46.52 87.504C46.6 87.376 46.68 87.232 46.76 87.12L46.056 86.88ZM52.2 88.528H51.464V97.248H52.2V88.528ZM54.552 86.768V100.016C54.552 100.304 54.44 100.384 54.168 100.4C53.912 100.416 53.016 100.416 51.976 100.4C52.088 100.624 52.2 100.944 52.248 101.152C53.576 101.152 54.312 101.152 54.728 101.008C55.112 100.864 55.304 100.624 55.304 100.016V86.768H54.552ZM61.896 86.736C60.936 89.248 59.384 91.728 57.736 93.312C57.896 93.472 58.136 93.856 58.216 94.016C58.888 93.344 59.528 92.544 60.136 91.68V101.152H60.92V90.448C61.576 89.344 62.152 88.16 62.632 86.96L61.896 86.736ZM72.248 90.128V89.392H65.256C65.624 88.656 65.944 87.872 66.232 87.088L65.512 86.896C64.68 89.264 63.368 91.6 61.912 93.12C62.072 93.232 62.392 93.504 62.52 93.616C63.368 92.672 64.184 91.472 64.904 90.128H66.296V101.168H67.064V97.072H72.152V96.336H67.064V93.536H71.928V92.816H67.064V90.128H72.248Z" fill="white"/>
<path d="M240.5 38.13L9.23999 38.13V39.02L240.5 39.02V38.13Z" fill="white"/>
<path d="M244 35H229V42H244V35Z" fill="#00FF63"/>
</svg>
