<svg width="244" height="106" viewBox="0 0 244 106" fill="none" xmlns="http://www.w3.org/2000/svg">
<path d="M22.25 12.46C22.082 13.398 21.872 14.392 21.662 15.05L22.488 15.288C22.824 14.392 23.146 12.936 23.37 11.69L22.684 11.48L22.516 11.522H19.38C19.548 10.864 19.688 10.164 19.814 9.45L18.82 9.282C18.512 11.354 17.924 13.37 17.014 14.658C17.252 14.784 17.686 15.036 17.882 15.176C18.372 14.448 18.778 13.51 19.114 12.46H22.25ZM13.948 18.046V19.488H12.226V18.046H13.948ZM14.788 20.258V17.276H11.344V20.86H12.226V20.258H14.788ZM17.98 16.394V15.47H16.636V10.878H17.672V9.982H10.77V10.878H15.698V15.47H10.616V16.394H15.782V21.014C15.782 21.168 15.74 21.224 15.558 21.224C15.376 21.238 14.788 21.238 14.158 21.224C14.284 21.448 14.396 21.77 14.452 22.008C15.334 22.008 15.908 21.994 16.258 21.854C16.608 21.728 16.72 21.532 16.72 21.028V16.394H17.98ZM13.906 13.832H12.268V12.446H13.906V13.832ZM11.484 11.704V14.574H14.746V11.704H11.484ZM20.696 13.3H19.744V14.252C19.744 16.226 19.52 19.166 16.874 21.392C17.084 21.574 17.42 21.91 17.574 22.134C19.114 20.804 19.912 19.25 20.304 17.738C20.864 19.544 21.676 20.874 23.02 22.092C23.146 21.812 23.44 21.504 23.706 21.308C21.984 19.866 21.172 18.186 20.668 15.386C20.682 14.994 20.696 14.616 20.696 14.252V13.3ZM37.286 16.492H31.546V14.224H36.502V13.23H31.546V10.962C33.198 10.766 34.724 10.5 35.914 10.136L35.13 9.31C33.03 9.968 28.97 10.332 25.666 10.486C25.764 10.724 25.89 11.13 25.932 11.41C27.374 11.34 28.956 11.242 30.496 11.074V13.23H25.68V14.224H30.496V16.492H24.742V17.514H30.496V20.608C30.496 20.902 30.37 21 30.062 21C29.74 21.014 28.648 21.028 27.472 20.986C27.64 21.266 27.836 21.728 27.92 22.022C29.39 22.036 30.286 22.008 30.804 21.84C31.322 21.672 31.546 21.364 31.546 20.622V17.514H37.286V16.492ZM41.2849 23.506H42.2229L46.4089 9.898H45.4849L41.2849 23.506Z" fill="#00FF63"/>
<path d="M59.931 15.096V18.858H56.043V15.096H59.931ZM61.227 20.064V13.908H58.707V10.704H62.019V9.408H58.707V5.934H57.357V9.408H53.955V10.704H57.357V13.908H54.747V21.324H56.043V20.064H61.227ZM69.345 6.96H63.171V12.918C63.171 15.654 62.955 19.218 60.651 21.684C60.993 21.828 61.533 22.206 61.749 22.44C64.143 19.83 64.485 15.834 64.485 12.918V8.184H68.049V12.378C67.473 11.784 66.303 10.866 65.331 10.164L64.539 10.92C65.493 11.622 66.645 12.648 67.221 13.278L68.049 12.414V14.34C66.699 15.06 65.367 15.744 64.431 16.194L65.061 17.436C65.961 16.896 67.005 16.23 68.049 15.6V20.568C68.049 20.856 67.941 20.964 67.653 20.964C67.401 20.964 66.447 20.982 65.439 20.946C65.619 21.306 65.817 21.9 65.835 22.242C67.239 22.242 68.121 22.224 68.643 21.99C69.165 21.774 69.345 21.378 69.345 20.568V6.96ZM83.781 17.49C82.863 18.39 81.603 19.092 80.163 19.668C78.795 19.182 77.589 18.588 76.635 17.868C76.761 17.742 76.905 17.616 77.049 17.49H83.781ZM75.321 13.602H84.393V14.682H75.321V13.602ZM75.321 11.676H84.393V12.738H75.321V11.676ZM75.321 9.768H84.393V10.812H75.321V9.768ZM84.969 16.428L84.735 16.5H78.021C78.309 16.176 78.543 15.87 78.777 15.528H85.725V8.904H80.091C80.217 8.58 80.343 8.256 80.469 7.878H87.453V6.762H72.279V7.878H79.011C78.939 8.22 78.849 8.562 78.759 8.904H74.025V15.528H77.283C76.869 16.032 76.365 16.572 75.753 17.076C75.429 16.788 75.141 16.446 74.889 16.086L73.881 16.518C74.187 16.95 74.529 17.346 74.871 17.724C74.169 18.192 73.341 18.642 72.423 19.02C72.693 19.218 73.089 19.65 73.269 19.92C74.205 19.506 75.015 19.02 75.771 18.516C76.581 19.164 77.535 19.722 78.561 20.208C76.635 20.766 74.457 21.126 72.387 21.288C72.585 21.576 72.783 22.044 72.873 22.368C75.339 22.098 77.895 21.63 80.145 20.82C82.233 21.54 84.681 21.954 87.327 22.152C87.471 21.81 87.741 21.342 87.993 21.054C85.725 20.91 83.619 20.622 81.765 20.154C83.421 19.344 84.825 18.3 85.761 16.968L84.969 16.428Z" fill="white"/>
<path d="M10.638 64.16L14.508 56.096L13.536 55.772L9.54 64.16L13.536 72.548L14.508 72.224L10.638 64.16ZM13.482 64.16L17.352 56.096L16.38 55.772L12.384 64.16L16.38 72.548L17.352 72.224L13.482 64.16ZM34.542 59.408C33.948 58.562 32.706 57.302 31.662 56.42L30.636 57.122C31.698 58.04 32.904 59.336 33.462 60.182L34.542 59.408ZM32.922 63.332C32.31 64.484 31.518 65.582 30.564 66.608C30.258 65.42 30.006 64.034 29.826 62.504H34.974V61.226H29.682C29.538 59.624 29.466 57.896 29.466 56.096H28.098C28.116 57.86 28.188 59.588 28.35 61.226H24.228V58.094C25.326 57.86 26.37 57.572 27.234 57.266L26.28 56.168C24.588 56.798 21.69 57.41 19.17 57.788C19.35 58.112 19.53 58.58 19.602 58.904C20.664 58.76 21.798 58.58 22.914 58.364V61.226H19.062V62.504H22.914V65.654C21.348 65.978 19.89 66.284 18.81 66.464L19.188 67.814C20.268 67.58 21.564 67.274 22.914 66.986V70.64C22.914 70.964 22.806 71.054 22.482 71.054C22.176 71.072 21.114 71.09 19.962 71.036C20.16 71.414 20.394 72.026 20.466 72.386C21.924 72.386 22.896 72.35 23.454 72.134C24.012 71.918 24.228 71.522 24.228 70.658V66.662C25.326 66.41 26.442 66.158 27.54 65.888L27.45 64.682C26.388 64.916 25.29 65.15 24.228 65.384V62.504H28.458C28.692 64.448 29.034 66.23 29.466 67.724C28.188 68.912 26.712 69.902 25.2 70.64C25.542 70.928 25.92 71.378 26.118 71.702C27.468 71 28.746 70.1 29.916 69.056C30.744 71.162 31.824 72.422 33.246 72.422C34.596 72.422 35.064 71.558 35.316 68.588C34.938 68.462 34.47 68.156 34.182 67.868C34.074 70.172 33.858 71.09 33.372 71.09C32.472 71.09 31.662 69.938 30.978 68.048C32.238 66.77 33.3 65.348 34.11 63.818L32.922 63.332ZM47.322 60.686C46.89 60.2 46.062 59.48 45.324 58.904C45.63 58.058 45.9 57.122 46.098 56.15L44.802 55.952C44.298 58.67 43.236 60.974 41.544 62.45C41.85 62.63 42.354 63.116 42.552 63.35C43.488 62.468 44.262 61.316 44.874 59.984C45.558 60.56 46.278 61.244 46.674 61.712L47.322 60.686ZM40.428 55.952C39.636 57.212 38.052 58.76 36.648 59.696C36.882 59.93 37.224 60.398 37.404 60.668C38.916 59.588 40.59 57.932 41.652 56.402L40.428 55.952ZM40.86 59.588C39.798 61.478 38.088 63.35 36.45 64.556C36.666 64.844 37.08 65.474 37.206 65.744C37.89 65.204 38.574 64.538 39.24 63.818V72.422H40.482V62.36C41.076 61.586 41.598 60.794 42.048 60.002L40.86 59.588ZM48.33 67.112H52.326V65.978H48.33V62.954H47.628C48.474 62.216 49.176 61.298 49.716 60.182C50.742 61.154 51.84 62.306 52.416 63.098L53.334 62.18C52.686 61.334 51.354 60.038 50.184 59.048C50.508 58.166 50.742 57.176 50.904 56.114L49.626 55.952C49.23 58.76 48.222 60.938 46.404 62.27C46.656 62.414 47.052 62.72 47.322 62.954H47.088V70.478C45.954 69.938 45.108 68.894 44.568 66.986C44.712 66.176 44.82 65.294 44.874 64.34L43.596 64.25C43.416 67.526 42.786 69.956 40.95 71.468C41.238 71.666 41.778 72.116 41.958 72.332C42.966 71.414 43.65 70.262 44.1 68.876C45.288 71.54 47.16 72.188 49.842 72.188H52.83C52.866 71.846 53.064 71.27 53.244 70.982H49.914C49.356 70.982 48.816 70.946 48.33 70.856V67.112ZM58.086 58.886V66.392H56.43V58.886H58.086ZM59.148 67.634V57.662H55.386V69.398H56.43V67.634H59.148ZM62.352 65.33C62.496 64.214 62.532 63.134 62.532 62.18H64.044C64.026 63.386 64.026 64.43 64.008 65.33H62.352ZM62.532 57.986H64.062L64.044 61.028H62.532V57.986ZM65.178 56.816H59.832V57.986H61.416V61.028H59.814V62.18H61.416C61.416 63.152 61.38 64.232 61.254 65.33H59.796V66.5H61.074C60.75 68.3 60.084 70.118 58.806 71.594C59.04 71.756 59.472 72.188 59.616 72.422C61.074 70.748 61.83 68.588 62.19 66.5H63.99C63.936 69.29 63.828 70.496 63.666 70.838C63.522 71.126 63.396 71.18 63.162 71.162C62.874 71.162 62.298 71.162 61.668 71.126C61.866 71.468 61.974 71.972 61.974 72.332C62.622 72.368 63.216 72.368 63.666 72.296C64.116 72.242 64.422 72.098 64.674 71.612C65.142 70.838 65.142 67.652 65.178 57.5V56.816ZM70.218 56.762L70.056 56.816H66.312V72.386H67.446V57.95H69.624C69.282 59.354 68.742 61.388 68.238 62.936C69.462 64.556 69.714 65.942 69.714 67.058C69.714 67.706 69.642 68.318 69.39 68.516C69.246 68.642 69.066 68.696 68.868 68.696C68.616 68.714 68.31 68.714 67.968 68.678C68.166 69.02 68.238 69.506 68.256 69.83C68.616 69.866 68.994 69.848 69.318 69.812C69.642 69.758 69.966 69.668 70.2 69.47C70.668 69.11 70.848 68.264 70.848 67.22C70.848 65.942 70.56 64.502 69.336 62.81C69.894 61.172 70.542 58.958 71.046 57.266L70.218 56.762ZM77.166 58.166C76.86 57.554 76.23 56.618 75.672 55.898L74.718 56.51C75.24 57.248 75.888 58.256 76.158 58.886L77.166 58.166ZM79.056 66.536C78.84 66.284 78.3 65.6 77.724 64.952C78.228 64.484 78.822 63.854 79.344 63.278L78.534 62.54C78.21 63.044 77.634 63.746 77.13 64.304C76.914 64.034 76.698 63.8 76.536 63.638V63.602C77.382 62.36 78.138 60.992 78.642 59.606L77.958 59.066L77.742 59.12H72.918V60.344H77.094C76.032 62.612 74.16 64.916 72.432 66.248C72.648 66.482 72.972 67.166 73.08 67.526C73.818 66.896 74.574 66.122 75.312 65.24V72.368H76.536V65.132C77.184 65.996 77.958 67.04 78.3 67.616L79.056 66.536ZM80.964 63.764V61.352H83.394V63.764H80.964ZM80.964 57.896H83.394V60.254H80.964V57.896ZM87.156 60.254H84.654V57.896H87.156V60.254ZM87.156 63.764H84.654V61.352H87.156V63.764ZM84.654 70.73V68.12H88.542V66.932H84.654V64.916H88.416V56.726H79.74V64.916H83.394V66.932H79.74V68.12H83.394V70.73H79.002V71.936H89.19V70.73H84.654ZM102.96 60.164C102.564 62.162 101.7 63.908 100.404 65.024C100.728 65.168 101.268 65.546 101.52 65.744C102.132 65.168 102.654 64.448 103.104 63.62C104.166 64.502 105.3 65.51 105.912 66.194L106.866 65.276C106.146 64.538 104.76 63.386 103.626 62.504C103.878 61.838 104.094 61.136 104.238 60.38L102.96 60.164ZM94.482 60.164C93.96 62.486 92.844 64.412 91.206 65.636C91.512 65.834 92.034 66.266 92.268 66.5C93.15 65.762 93.924 64.808 94.536 63.674C95.184 64.304 95.85 64.97 96.21 65.42L97.128 64.502C96.678 63.98 95.85 63.188 95.094 62.522C95.364 61.856 95.616 61.154 95.796 60.398L94.482 60.164ZM99.63 59.75H106.776V58.436H99.63V55.952H98.262V58.436H91.368V59.75H98.262V64.142C96.606 66.752 93.636 69.236 90.738 70.424C91.044 70.694 91.476 71.216 91.674 71.54C94.068 70.424 96.48 68.48 98.262 66.194V72.368H99.63V66.14C101.376 68.48 103.824 70.496 106.308 71.594C106.524 71.234 106.956 70.694 107.298 70.406C104.238 69.254 101.232 66.716 99.63 64.016V59.75ZM112.464 72.548L116.46 64.16L112.464 55.772L111.492 56.096L115.362 64.16L111.492 72.224L112.464 72.548ZM109.62 72.548L113.616 64.16L109.62 55.772L108.648 56.096L112.518 64.16L108.648 72.224L109.62 72.548Z" fill="#00FF63"/>
<path opacity="0.8" d="M23.256 88.224H17.72C17.544 87.728 17.24 87.056 16.888 86.576L16.152 86.768C16.44 87.184 16.696 87.76 16.872 88.224H10.856V88.944H23.256V88.224ZM15 91.744C14.856 91.04 14.392 89.936 13.848 89.136L13.144 89.328C13.656 90.128 14.104 91.232 14.248 91.984L15 91.744ZM21.096 95.072V97.088H13.032V95.072H21.096ZM13.032 99.856V97.76H21.096V99.856H13.032ZM12.264 101.184H13.032V100.544H21.096V101.136H21.88V94.384H12.264V101.184ZM19.656 92.016C20.104 91.232 20.632 90.192 21.032 89.328L20.232 89.088C19.912 89.952 19.32 91.2 18.84 92.016H9.944V92.736H24.072V92.016H19.656ZM39.96 94.496C39.816 93.872 39.464 92.928 39.176 92.16L38.584 92.384C38.712 92.704 38.856 93.056 38.984 93.44L36.696 93.712C37.752 92.448 38.824 90.768 39.736 89.104L39.112 88.784C38.872 89.312 38.568 89.84 38.28 90.352L36.376 90.576C37 89.584 37.656 88.256 38.136 86.976L37.464 86.72C37.032 88.112 36.216 89.632 35.992 90.016C35.768 90.4 35.56 90.672 35.368 90.72C35.432 90.896 35.544 91.248 35.576 91.392C35.768 91.312 36.088 91.232 37.912 90.976C37.32 91.92 36.76 92.704 36.52 92.992C36.136 93.488 35.832 93.84 35.56 93.888C35.656 94.064 35.768 94.416 35.8 94.576C36.024 94.448 36.408 94.368 39.16 93.984C39.256 94.256 39.304 94.512 39.352 94.72L39.96 94.496ZM34.28 90.928H31.72V88.928H34.28V90.928ZM34.28 93.568H31.72V91.552H34.28V93.568ZM35 88.288H32.968C33.112 87.84 33.272 87.28 33.448 86.784L32.696 86.624C32.632 87.104 32.472 87.76 32.312 88.288H31.016V94.224H35V88.288ZM30.6 94.416C30.504 93.728 30.248 92.672 29.992 91.856L29.416 92C29.512 92.384 29.608 92.784 29.704 93.2L27.368 93.504C28.456 92.24 29.528 90.576 30.424 88.912L29.816 88.592C29.56 89.152 29.256 89.696 28.92 90.224L27.256 90.4C27.88 89.472 28.488 88.224 28.968 87.008L28.312 86.752C27.912 88.064 27.112 89.504 26.872 89.872C26.648 90.224 26.456 90.496 26.264 90.528C26.344 90.704 26.44 91.056 26.472 91.2C26.648 91.12 26.968 91.04 28.568 90.832C27.976 91.744 27.416 92.496 27.208 92.784C26.808 93.28 26.504 93.632 26.248 93.696C26.344 93.872 26.456 94.208 26.456 94.352C26.696 94.24 27.08 94.144 29.832 93.76C29.896 94.048 29.944 94.352 29.976 94.592L30.6 94.416ZM30.952 96.992C29.8 98.272 27.56 99.424 25.672 99.952C25.864 100.096 26.088 100.384 26.216 100.592C28.088 99.968 30.376 98.688 31.608 97.296L30.952 96.992ZM34.52 97.456C36.296 98.384 38.472 99.744 39.56 100.688L40.024 100.048C38.92 99.152 36.728 97.808 34.968 96.912L34.52 97.456ZM33.352 95.744V94.656H32.584V95.744H25.912V96.432H32.584V101.168H33.352V96.432H40.072V95.744H33.352ZM41.88 92.416C42.072 92.336 42.408 92.256 44.328 92C43.672 93.024 43.096 93.84 42.824 94.16C42.376 94.752 42.008 95.184 41.72 95.232C41.816 95.424 41.928 95.808 41.976 95.968C42.248 95.84 42.68 95.728 46.488 95.136C46.584 95.424 46.664 95.712 46.712 95.952L47.368 95.712C47.192 94.928 46.712 93.6 46.264 92.592L45.64 92.784C45.88 93.328 46.12 93.936 46.312 94.528L42.984 95.008C44.264 93.472 45.528 91.472 46.616 89.488L45.96 89.136C45.592 89.888 45.176 90.64 44.76 91.328L42.744 91.536C43.672 90.272 44.6 88.608 45.336 86.992L44.648 86.688C43.976 88.448 42.824 90.32 42.472 90.8C42.152 91.28 41.88 91.648 41.64 91.696C41.72 91.888 41.832 92.256 41.864 92.432C41.864 92.416 41.864 92.4 41.88 92.368V92.416ZM42.456 96.768C42.264 98.08 41.992 99.504 41.624 100.512C41.784 100.576 42.12 100.704 42.264 100.752C42.584 99.776 42.904 98.256 43.112 96.896L42.456 96.768ZM44.072 96.848C44.264 97.888 44.424 99.264 44.472 100.176L45.096 100.032C45.048 99.136 44.872 97.776 44.696 96.72L44.072 96.848ZM45.8 96.56C46.088 97.344 46.408 98.368 46.536 99.072L47.16 98.816C47.016 98.16 46.68 97.136 46.392 96.336L45.8 96.56ZM54.52 90.32V92.208H48.552V90.32H54.52ZM55.224 92.88V89.664H48.552V88.416C50.872 88.16 53.48 87.776 55.16 87.264L54.504 86.72C53.032 87.2 50.2 87.616 47.832 87.872V92.592C47.832 94.992 47.736 98.384 46.744 100.832C46.936 100.896 47.256 101.088 47.4 101.2C48.376 98.784 48.536 95.328 48.552 92.88H55.224ZM53.496 97.056V94.864H54.904V97.056H53.496ZM51.528 97.056V94.864H52.92V97.056H51.528ZM49.592 97.056V94.864H50.952V97.056H49.592ZM55.56 94.192H48.936V101.184H49.592V97.728H50.952V100.944H51.528V97.728H52.92V100.864H53.496V97.728H54.904V100.288C54.904 100.416 54.872 100.448 54.744 100.448C54.632 100.464 54.296 100.464 53.912 100.448C53.992 100.624 54.104 100.88 54.12 101.04C54.68 101.04 55.032 101.04 55.272 100.928C55.496 100.8 55.56 100.656 55.56 100.304V94.192ZM67.256 99.36V95.312H70.6V99.36H67.256ZM59.448 95.312H62.6V99.36H59.448V95.312ZM62.6 90.64V94.576H59.448V90.64H62.6ZM66.504 95.312V99.36H63.352V95.312H66.504ZM66.504 90.64V94.576H63.352V90.64H66.504ZM70.6 90.64V94.576H67.256V90.64H70.6ZM67.256 89.888V86.848H66.504V89.888H63.352V86.848H62.6V89.888H58.712V101.2H59.448V100.112H70.6V101.104H71.352V89.888H67.256Z" fill="white"/>
<path d="M240.5 38.1299L9.23999 38.1299V39.0199L240.5 39.0199V38.1299Z" fill="white"/>
<path d="M244 35H229V42H244V35Z" fill="#00FF63"/>
</svg>
