<svg width="201" height="72" viewBox="0 0 201 72" fill="none" xmlns="http://www.w3.org/2000/svg">
<path d="M163 71H201V0H163V71Z" fill="#00FF63"/>
<path d="M98 71H136V0H98V71Z" fill="white"/>
<path d="M49 71H87L87 0H49L49 71Z" fill="#00FF63"/>
<path d="M0 71H38L38 0H0L0 71Z" fill="#00FF63"/>
<path d="M149.06 63.5501C148.039 63.5487 147.027 63.7488 146.084 64.1387C145.14 64.5286 144.282 65.1007 143.559 65.8223C142.837 66.544 142.264 67.401 141.872 68.3443C141.481 69.2877 141.28 70.2989 141.28 71.3201H156.83C156.83 69.2593 156.011 67.283 154.554 65.8259C153.097 64.3687 151.121 63.5501 149.06 63.5501Z" fill="#00FF63"/>
</svg>
