<svg width="203" height="115" viewBox="0 0 203 115" fill="none" xmlns="http://www.w3.org/2000/svg">
<path d="M32.56 16.94C32.3 16.66 31.66 16 30.96 15.36C31.52 14.88 32.16 14.24 32.9 13.66L31.36 12.36C31 12.92 30.36 13.74 29.86 14.3L29.52 14V13.7C30.44 12.3 31.24 10.78 31.84 9.28L30.5 8.34L30.18 8.42H28.72L30.08 7.56C29.68 6.86 28.92 5.78 28.28 4.96L26.4 6C26.92 6.74 27.58 7.68 27.98 8.42H24.56V10.56H28.88C27.72 12.8 25.86 15.02 24 16.26C24.34 16.72 24.92 17.96 25.12 18.62C25.76 18.12 26.42 17.5 27.06 16.82V23.72H29.52V16.54C30.18 17.38 30.82 18.22 31.22 18.82L32.56 16.94ZM32.08 6.6V8.9H34.6C34.46 14.86 33.72 19.32 30.4 21.82C30.94 22.24 31.94 23.22 32.22 23.68C35.82 20.6 36.76 15.72 37.02 8.9H39.72C39.58 17.1 39.38 20.34 38.82 21.02C38.62 21.32 38.4 21.4 38.08 21.4C37.6 21.4 36.66 21.4 35.6 21.3C35.98 21.96 36.26 22.94 36.3 23.58C37.38 23.62 38.46 23.64 39.2 23.5C39.94 23.36 40.46 23.12 40.96 22.36C41.7 21.28 41.88 17.84 42.06 7.76C42.06 7.48 42.08 6.6 42.08 6.6H32.08ZM55.84 7.54C55.56 7.3 55.2 7.02 54.8 6.74C55.18 6.4 55.52 6.02 55.8 5.64L54.24 5.18C54.04 5.46 53.78 5.72 53.52 5.98C53.1 5.74 52.68 5.52 52.3 5.34L51.24 6.26C51.6 6.44 51.94 6.64 52.32 6.86C51.84 7.16 51.32 7.44 50.8 7.64C51.18 7.9 51.76 8.42 52.04 8.7C52.58 8.44 53.12 8.1 53.66 7.7C54.06 8 54.44 8.28 54.7 8.54L55.84 7.54ZM48.46 11.52H50.84V11.3C51.14 11.58 51.52 11.96 51.74 12.22H48.5L48.46 11.52ZM47.06 13.94H59.9V16.32H62.26V12.22H60.78C60.96 10.36 61.1 7.82 61.2 5.72H56.18V7.22H58.88L58.84 7.88H56.3V9.36H58.74L58.7 10.04H56.2V11.52H58.56L58.48 12.22H52C52.54 11.92 53.08 11.58 53.62 11.18C54.08 11.54 54.48 11.86 54.78 12.16L55.96 11.12C55.66 10.82 55.24 10.52 54.76 10.2C55.16 9.82 55.52 9.42 55.82 9L54.26 8.54C54.04 8.82 53.76 9.1 53.46 9.38C53.04 9.14 52.62 8.9 52.22 8.7L51.12 9.64C51.48 9.84 51.86 10.06 52.24 10.3C51.8 10.58 51.32 10.82 50.84 11.06V10.04H48.38L48.34 9.36H50.8V7.88H48.26L48.22 7.3C49.16 7.1 50.16 6.84 50.94 6.54L49.98 5.16C48.92 5.54 47.14 6.08 45.94 6.28L46.3 12.22H44.8V16.32H47.06V13.94ZM62.52 18.2H55.04C56.4 17.52 57.76 16.7 58.86 15.9L57.52 14.68L57.02 14.8H48.32V16.46H54.74C54.02 16.9 53.26 17.34 52.54 17.62V18.2H44.44V20.08H52.54V21.44C52.54 21.68 52.44 21.74 52.12 21.74C51.82 21.76 50.62 21.76 49.68 21.72C49.96 22.28 50.3 23.08 50.4 23.72C51.9 23.72 53 23.7 53.82 23.42C54.64 23.1 54.88 22.58 54.88 21.52V20.08H62.52V18.2ZM73.32 9.28H76.58C75.9 9.92 75.18 10.52 74.42 11.1H73.32V9.28ZM77.68 18.02H70.8V16.74H77.68V18.02ZM70.8 21.18V19.82H77.68V21.18H70.8ZM82.46 13.2V11.1H77.82C79.28 9.76 80.62 8.28 81.76 6.7L79.72 5.66C79.1 6.54 78.42 7.38 77.66 8.2V7.22H73.32V5.06H70.96V7.22H66.26V9.28H70.96V11.1H64.54V13.2H71.34C69.04 14.56 66.52 15.7 63.9 16.52C64.36 17 65.06 17.96 65.36 18.48C66.38 18.1 67.42 17.66 68.42 17.22V23.76H70.8V23.16H77.68V23.68H80.16V14.8H72.9C73.72 14.28 74.48 13.76 75.26 13.2H82.46ZM95.84 8.44C94.7 7.56 92.68 6.08 91.06 5.04L89.52 6.78C91.08 7.86 93.12 9.42 94.28 10.38L95.84 8.44ZM86.1 10.46C85.74 12.8 84.98 15.34 84 17.06L86.3 17.92C87.3 16.2 87.94 13.4 88.36 11.04L86.1 10.46ZM93 21.14C91.98 21.14 91.82 21 91.82 19.98V18.76C95.84 15.48 98.98 11.36 101.16 7.18L98.76 6.24C97.24 9.44 94.84 12.76 91.82 15.6V9.56H89.28V17.74C87.66 18.98 85.9 20.06 84.04 20.9C84.52 21.36 85.24 22.24 85.6 22.78C86.88 22.16 88.14 21.44 89.3 20.64C89.44 22.84 90.28 23.52 92.74 23.52H96.24C98.7 23.52 99.4 22.34 99.72 18.74C99.02 18.58 97.96 18.16 97.38 17.74C97.22 20.56 97.06 21.14 96.04 21.14H93ZM97.82 12.82C99 14.7 100.24 17.26 100.7 18.92L102.98 17.76C102.48 16.12 101.22 13.68 99.96 11.8L97.82 12.82ZM115.84 7.54C115.56 7.3 115.2 7.02 114.8 6.74C115.18 6.4 115.52 6.02 115.8 5.64L114.24 5.18C114.04 5.46 113.78 5.72 113.52 5.98C113.1 5.74 112.68 5.52 112.3 5.34L111.24 6.26C111.6 6.44 111.94 6.64 112.32 6.86C111.84 7.16 111.32 7.44 110.8 7.64C111.18 7.9 111.76 8.42 112.04 8.7C112.58 8.44 113.12 8.1 113.66 7.7C114.06 8 114.44 8.28 114.7 8.54L115.84 7.54ZM108.46 11.52H110.84V11.3C111.14 11.58 111.52 11.96 111.74 12.22H108.5L108.46 11.52ZM107.06 13.94H119.9V16.32H122.26V12.22H120.78C120.96 10.36 121.1 7.82 121.2 5.72H116.18V7.22H118.88L118.84 7.88H116.3V9.36H118.74L118.7 10.04H116.2V11.52H118.56L118.48 12.22H112C112.54 11.92 113.08 11.58 113.62 11.18C114.08 11.54 114.48 11.86 114.78 12.16L115.96 11.12C115.66 10.82 115.24 10.52 114.76 10.2C115.16 9.82 115.52 9.42 115.82 9L114.26 8.54C114.04 8.82 113.76 9.1 113.46 9.38C113.04 9.14 112.62 8.9 112.22 8.7L111.12 9.64C111.48 9.84 111.86 10.06 112.24 10.3C111.8 10.58 111.32 10.82 110.84 11.06V10.04H108.38L108.34 9.36H110.8V7.88H108.26L108.22 7.3C109.16 7.1 110.16 6.84 110.94 6.54L109.98 5.16C108.92 5.54 107.14 6.08 105.94 6.28L106.3 12.22H104.8V16.32H107.06V13.94ZM122.52 18.2H115.04C116.4 17.52 117.76 16.7 118.86 15.9L117.52 14.68L117.02 14.8H108.32V16.46H114.74C114.02 16.9 113.26 17.34 112.54 17.62V18.2H104.44V20.08H112.54V21.44C112.54 21.68 112.44 21.74 112.12 21.74C111.82 21.76 110.62 21.76 109.68 21.72C109.96 22.28 110.3 23.08 110.4 23.72C111.9 23.72 113 23.7 113.82 23.42C114.64 23.1 114.88 22.58 114.88 21.52V20.08H122.52V18.2ZM132.48 16.86H134.54L135.24 10.02L135.34 7.04H131.68L131.76 10.02L132.48 16.86ZM133.5 22.18C134.68 22.18 135.58 21.38 135.58 20.22C135.58 19.08 134.68 18.24 133.5 18.24C132.32 18.24 131.42 19.08 131.42 20.22C131.42 21.38 132.32 22.18 133.5 22.18ZM28.56 39.26C30.38 37.98 32.16 36.42 33.48 34.88C34.78 36.42 36.44 37.96 38.28 39.26H28.56ZM34.68 45.7H39.92V43.64H34.68V41.36H38.96V39.72C39.78 40.26 40.62 40.74 41.48 41.14C41.84 40.46 42.58 39.48 43.08 38.96C39.68 37.72 36.48 35.2 34.76 32.68H27.92V34.88H30.58C28.7 36.66 26.22 38.32 24 39.22C24.54 39.74 25.12 40.56 25.46 41.14C26.28 40.72 27.14 40.22 28 39.64V41.36H32.2V43.64H27.02V45.7H32.2V48.12H25.06V50.24H42.08V48.12H34.68V45.7ZM62.44 37.6V35.26H54.24L55.62 34.66C55.32 33.9 54.72 32.7 54.18 31.8L51.84 32.68C52.24 33.48 52.72 34.48 53.04 35.26H44.6V37.6H49.64C49.44 41.82 49.06 46.32 44.26 48.86C44.9 49.36 45.64 50.18 46 50.84C49.6 48.76 51.08 45.64 51.76 42.3H58.06C57.78 45.88 57.42 47.6 56.9 48.04C56.62 48.26 56.36 48.3 55.92 48.3C55.32 48.3 53.92 48.28 52.56 48.14C53.02 48.8 53.36 49.8 53.4 50.48C54.76 50.54 56.08 50.56 56.86 50.48C57.76 50.38 58.4 50.2 59 49.54C59.82 48.68 60.24 46.46 60.6 41.04C60.66 40.72 60.68 40 60.68 40H52.1C52.2 39.2 52.24 38.4 52.3 37.6H62.44ZM70.76 35.42V37.72H81.9V35.42H75.74L77.84 34.82C77.62 34 77.22 32.74 76.82 31.78L74.56 32.34C74.9 33.28 75.3 34.56 75.44 35.42H70.76ZM75.46 46.44C75.26 44.42 74.7 40.98 74.1 38.36L71.94 38.84C72.48 41.52 72.96 45.02 73.12 47.1L75.46 46.44ZM68.7 32.14C67.68 34.98 65.94 37.82 64.14 39.62C64.54 40.2 65.2 41.5 65.42 42.1C65.84 41.64 66.26 41.14 66.68 40.62V50.72H69.08V36.88C69.8 35.58 70.42 34.2 70.94 32.84L68.7 32.14ZM79.18 47.66C79.88 45.16 80.62 41.68 81.12 38.68L78.64 38.3C78.36 41.18 77.68 45.06 77 47.66H70.04V49.96H82.58V47.66H79.18ZM100.48 35.98H99.42V35.06H100.48V35.98ZM100.48 38.36H99.42V37.42H100.48V38.36ZM94.56 37.42H95.58V38.36H94.56V37.42ZM94.56 35.06H95.58V35.98H94.56V35.06ZM97.98 37.42V38.36H97.02V37.42H97.98ZM97.02 35.98V35.06H97.98V35.98H97.02ZM102.32 33.5H99.74V32.08H97.88V33.5H97V32.08H95.16V33.5H92.8V39.92H102.32V33.5ZM102.7 40.6H92.5V42.3H102.7V40.6ZM87.24 43.98C87.82 44.42 88.44 44.96 88.78 45.3L89.58 44.42V45.3C88.68 45.74 87.86 46.14 87.18 46.42C87.22 45.76 87.24 45.16 87.24 44.58V43.98ZM86.94 34.36H89.66V35.18H87.72V38.38H86.94V34.36ZM88.92 38.38V36.52H89.66V38.38H88.92ZM90.64 40.78H86.06V39.98H90.64V40.78ZM87.24 42.32H89.58V43.98C89.14 43.6 88.5 43.16 87.92 42.78L87.24 43.46V42.32ZM92.44 41.46V38.38H91.6V32.68H85.1V38.38H84.32V41.48H85.32V44.54C85.32 46.12 85.24 48.16 84.26 49.66C84.7 49.86 85.58 50.46 85.92 50.8C86.62 49.76 86.96 48.32 87.12 46.96L87.64 48.08C88.28 47.7 88.92 47.28 89.58 46.84V48.66C89.58 48.84 89.52 48.92 89.32 48.92C89.14 48.92 88.54 48.92 87.98 48.9C88.22 49.38 88.46 50.14 88.52 50.64C89.58 50.64 90.32 50.62 90.84 50.32C91.4 50.02 91.54 49.54 91.54 48.68V41.46H92.44ZM98.96 46.86C98.8 47.42 98.54 48.1 98.3 48.7H96.68C96.5 48.14 96.24 47.46 96 46.86H98.96ZM95.34 44.4H99.68V45.44H95.34V44.4ZM100.26 48.7C100.54 48.26 100.82 47.78 101.14 47.28L99.6 46.86H101.88V42.96H93.26V46.86H95.38L94.12 47.24C94.3 47.68 94.5 48.2 94.66 48.7H92.3V50.42H102.86V48.7H100.26ZM105.32 49.38C105.66 48.26 105.92 46.36 106.04 45.04L104.86 44.62C104.72 45.94 104.42 47.78 104.04 48.94L105.32 49.38ZM106.26 45.04C106.34 46.2 106.4 47.72 106.36 48.72L107.4 48.6C107.4 47.6 107.34 46.1 107.24 44.96L106.26 45.04ZM107.44 44.9C107.68 45.92 107.92 47.28 107.98 48.16L108.98 47.96C108.9 47.1 108.64 45.78 108.4 44.74L107.44 44.9ZM106.9 40.76H108.14V42.02H106.9V40.76ZM108.14 34.76V36.08H106.9V34.76H108.14ZM108.14 39.02H106.9V37.84H108.14V39.02ZM115.4 36.46C116.1 35.9 116.76 35.3 117.32 34.66C118 35.28 118.76 35.88 119.54 36.46H115.4ZM114 44.58C113.64 46.48 112.88 48.22 111.7 49.34C111.94 48.42 112.04 46.5 112.14 42.78C112.16 42.54 112.16 42.02 112.16 42.02H109.94V40.76H111.72V39.02H109.94V37.84H111.66V36.74C112.1 37.1 112.7 37.74 112.98 38.12C113.44 37.84 113.9 37.56 114.36 37.26V38.26H120.24V36.94C120.86 37.36 121.48 37.72 122.1 38.04C122.24 37.44 122.64 36.4 122.98 35.86C121.44 35.28 119.7 34.22 118.5 33.16C118.64 32.96 118.78 32.76 118.9 32.54L116.78 31.8C115.72 33.54 113.78 35.36 111.66 36.54V36.08H109.94V34.76H111.98V32.82H105.06V43.96H110.28C110.24 44.92 110.22 45.72 110.18 46.36C110 45.74 109.74 45 109.48 44.42L108.64 44.7C108.96 45.5 109.3 46.58 109.44 47.28L110.14 47.02C110.06 48.06 109.98 48.54 109.86 48.74C109.72 48.94 109.58 48.96 109.36 48.96C109.16 48.96 108.74 48.96 108.24 48.9C108.48 49.38 108.68 50.12 108.7 50.66C109.34 50.68 109.96 50.66 110.36 50.58C110.82 50.52 111.16 50.36 111.46 49.92C111.54 49.82 111.6 49.68 111.66 49.48C112.12 49.82 112.86 50.42 113.16 50.76C113.82 50.08 114.4 49.22 114.88 48.22C115.44 48.64 115.98 49.12 116.3 49.46L117.46 47.92C117.06 47.48 116.3 46.9 115.58 46.46C115.74 45.96 115.88 45.44 116 44.92L114 44.58ZM119.14 40.8H120.4V42.68H119.14V40.8ZM117.6 44.18H122.04V39.32H117.6V44.18ZM114.22 40.8H115.32V42.68H114.22V40.8ZM112.68 44.18H116.96V39.32H112.68V44.18ZM118.88 44.48C118.58 46.48 117.9 48.3 116.74 49.44C117.24 49.74 118.12 50.4 118.46 50.76C118.9 50.28 119.3 49.68 119.64 49.04C120.32 49.56 121 50.12 121.38 50.54L122.76 48.92C122.24 48.42 121.28 47.72 120.44 47.16C120.68 46.42 120.86 45.64 121 44.84L118.88 44.48ZM131.82 35.36H128.3L129.64 34.64C129.32 33.88 128.72 32.8 128.16 31.96L126.32 32.84C126.78 33.6 127.3 34.6 127.6 35.36H124.16V37.24H131.82V35.36ZM131.16 38.14H125.04V39.94H131.16V38.14ZM125.04 42.64H131.16V40.84H125.04V42.64ZM129.24 47.72H127V45.48H129.24V47.72ZM134.34 37.8H136.02V39.08H134.34V37.8ZM134.34 34.68H136.02V35.98H134.34V34.68ZM139.84 35.98H138.08V34.68H139.84V35.98ZM139.84 39.08H138.08V37.8H139.84V39.08ZM142.5 44.24V42.14H138.22V40.96H142.04V32.82H132.22V40.96H135.9V42.14H131.64V44.24H134.92C134.02 45.66 132.68 47 131.3 47.88V43.58H125V50.48H127V49.64H131.3V48.64C131.72 49.06 132.14 49.6 132.4 50C133.68 49.14 134.9 47.84 135.9 46.38V50.72H138.22V46.18C139.18 47.64 140.36 49 141.5 49.9C141.86 49.34 142.6 48.52 143.12 48.12C141.7 47.24 140.2 45.76 139.18 44.24H142.5ZM159.42 37.8H154.44V34.92H159.42V37.8ZM161.72 32.92H152.24V39.8H161.72V32.92ZM151.7 43.4C151.34 42.9 149.72 40.82 149.2 40.24V39.92H151.44V37.7H149.2V34.8C150 34.6 150.76 34.36 151.46 34.08L150.2 32.12C148.72 32.82 146.46 33.42 144.42 33.78C144.68 34.28 144.96 35.08 145.06 35.62C145.66 35.54 146.3 35.42 146.94 35.3V37.7H144.2V39.92H146.4C145.82 41.84 144.88 43.96 143.94 45.28C144.26 45.88 144.76 46.92 144.96 47.64C145.7 46.54 146.36 44.98 146.94 43.32V50.76H149.2V42.8C149.68 43.7 150.18 44.68 150.44 45.34L151.7 43.4ZM158.3 48.24V46.42H161.88V44.38H158.3V42.5C159.56 42.32 160.78 42.12 161.84 41.86L160.38 40.06C158.36 40.58 155.1 40.96 152.22 41.14C152.46 41.62 152.72 42.42 152.8 42.94C153.8 42.9 154.88 42.84 155.94 42.76V44.38H152.14V46.42H155.94V48.24H151.12V50.36H162.68V48.24H158.3Z" fill="#00FF63"/>
<path d="M29.532 84.08C29.404 83.232 28.988 81.792 28.572 80.672L27.932 80.8C28.124 81.36 28.316 81.984 28.492 82.592L25.628 82.992C26.94 81.472 28.22 79.52 29.324 77.552L28.62 77.168C28.252 77.888 27.836 78.624 27.404 79.312L25.388 79.52C26.316 78.272 27.228 76.608 27.996 74.976L27.244 74.656C26.556 76.416 25.42 78.304 25.052 78.768C24.748 79.264 24.46 79.616 24.204 79.664C24.3 79.872 24.428 80.256 24.46 80.432C24.684 80.336 25.004 80.256 26.956 80.016C26.3 81.024 25.692 81.824 25.436 82.128C24.956 82.72 24.604 83.136 24.3 83.184C24.396 83.408 24.524 83.792 24.572 83.968C24.844 83.824 25.276 83.744 28.652 83.216C28.748 83.616 28.812 83.968 28.86 84.272L29.532 84.08ZM25.004 84.768C24.828 86.096 24.556 87.52 24.156 88.544C24.332 88.608 24.684 88.736 24.812 88.8C25.148 87.792 25.484 86.272 25.692 84.896L25.004 84.768ZM26.476 84.848C26.668 85.936 26.844 87.376 26.876 88.304L27.548 88.192C27.5 87.248 27.308 85.84 27.116 84.752L26.476 84.848ZM27.9 84.544C28.236 85.44 28.604 86.624 28.748 87.392L29.372 87.2C29.212 86.432 28.844 85.296 28.492 84.4L27.9 84.544ZM33.1 83.36L32.972 83.392H30.188V84.08H32.684C32.044 85.872 30.7 87.216 29.34 87.872C29.5 88.016 29.708 88.256 29.82 88.416C31.42 87.584 32.94 85.936 33.564 83.552L33.1 83.36ZM31.516 79.424H37.084V81.2H31.516V79.424ZM31.516 77.024H37.084V78.784H31.516V77.024ZM37.74 82.64C37.244 83.232 36.412 84.048 35.724 84.624C35.34 83.952 35.052 83.232 34.812 82.48V81.872H37.836V76.368H34.108C34.316 75.92 34.524 75.376 34.748 74.88L33.916 74.656C33.788 75.152 33.564 75.84 33.356 76.368H30.78V81.872H34.076V88.208C34.076 88.4 34.028 88.448 33.804 88.464C33.596 88.48 32.892 88.48 32.044 88.464C32.156 88.672 32.268 88.96 32.316 89.184C33.356 89.184 33.98 89.184 34.348 89.04C34.7 88.912 34.812 88.688 34.812 88.208V84.192C35.628 86.032 36.828 87.6 38.284 88.416C38.396 88.224 38.636 87.968 38.796 87.824C37.708 87.28 36.748 86.304 36.012 85.136C36.748 84.576 37.644 83.776 38.332 83.072L37.74 82.64ZM48.956 87.648V80.816H55.116V80.064H48.956V74.944H48.156V87.648H42.012V88.416H56.204V87.648H48.956ZM60.172 88H66.188V87.184H63.756V76.336H63.004C62.444 76.656 61.724 76.912 60.78 77.072V77.696H62.812V87.184H60.172V88ZM73.1985 88.208C75.2785 88.208 76.6865 86.896 76.6865 85.248C76.6865 83.648 75.6945 82.8 74.7025 82.208V82.128C75.3585 81.6 76.3025 80.496 76.3025 79.232C76.3025 77.472 75.1505 76.176 73.2145 76.176C71.5185 76.176 70.2065 77.36 70.2065 79.056C70.2065 80.288 70.9745 81.152 71.8065 81.712V81.776C70.7345 82.368 69.5825 83.504 69.5825 85.104C69.5825 86.88 71.1025 88.208 73.1985 88.208ZM74.0145 81.872C72.5585 81.296 71.1025 80.64 71.1025 79.056C71.1025 77.824 71.9825 76.928 73.1985 76.928C74.6225 76.928 75.4385 78 75.4385 79.264C75.4385 80.224 74.9425 81.104 74.0145 81.872ZM73.1985 87.456C71.6145 87.456 70.4625 86.416 70.4625 85.056C70.4625 83.792 71.2625 82.784 72.3665 82.128C74.1265 82.816 75.7585 83.456 75.7585 85.232C75.7585 86.48 74.7505 87.456 73.1985 87.456ZM83.313 88.208C85.425 88.208 86.737 86.224 86.737 82.128C86.737 78.08 85.425 76.128 83.313 76.128C81.185 76.128 79.873 78.08 79.873 82.128C79.873 86.224 81.185 88.208 83.313 88.208ZM83.313 87.424C81.793 87.424 80.801 85.664 80.801 82.128C80.801 78.656 81.793 76.912 83.313 76.912C84.817 76.912 85.809 78.656 85.809 82.128C85.809 85.664 84.817 87.424 83.313 87.424ZM101.7 74.832C101.316 75.488 100.628 76.48 100.116 77.072L100.708 77.36C101.252 76.8 101.924 75.936 102.452 75.152L101.7 74.832ZM91.2515 78.064H103.156V80.64H103.892V77.36H97.5555V74.656H96.7875V77.36H93.6835L94.2755 77.072C93.9875 76.48 93.3155 75.568 92.7235 74.896L92.0515 75.184C92.5955 75.856 93.2195 76.752 93.5235 77.36H90.5315V80.64H91.2515V78.064ZM93.5875 80.256H100.868V82.384H93.5875V80.256ZM97.5715 88V85.68H102.9V84.976H97.5715V83.056H101.62V79.6H92.8515V83.056H96.7875V84.976H91.6675V85.68H96.7875V88H90.3235V88.704H104.084V88H97.5715ZM115.139 84.864H119.907V84.144H115.139V81.328H119.363V80.608H110.275V81.328H114.355V84.144H109.635V84.864H114.355V87.968H108.019V88.688H121.603V87.968H115.139V84.864ZM110.659 75.072V75.808H113.891C112.275 77.744 109.651 79.856 107.555 80.944C107.747 81.12 107.955 81.36 108.067 81.568C110.323 80.288 113.139 77.904 114.771 75.824C116.467 78.08 119.139 80.256 121.507 81.392C121.651 81.2 121.891 80.912 122.067 80.752C119.619 79.648 116.739 77.392 115.187 75.072H110.659ZM133.539 77.056C133.315 76.416 132.819 75.424 132.387 74.656L131.667 74.928C132.083 75.712 132.579 76.752 132.787 77.392L133.539 77.056ZM139.203 78.32V77.568H125.651V78.32H130.179C129.987 82.128 129.507 86.576 125.251 88.608C125.443 88.736 125.715 89.008 125.827 89.2C128.915 87.648 130.115 84.896 130.611 81.984H136.723C136.419 86.064 136.115 87.68 135.619 88.128C135.427 88.272 135.235 88.304 134.883 88.304C134.467 88.304 133.363 88.288 132.179 88.176C132.339 88.384 132.435 88.688 132.451 88.912C133.507 89.008 134.563 89.04 135.091 89.008C135.651 88.976 135.955 88.896 136.275 88.592C136.867 87.968 137.187 86.272 137.523 81.648C137.539 81.536 137.555 81.232 137.555 81.232H130.739C130.883 80.256 130.947 79.28 131.011 78.32H139.203ZM152.788 77.152C152.644 76.48 152.276 75.44 151.988 74.624L151.284 74.832C151.572 75.648 151.908 76.704 152.052 77.376L152.788 77.152ZM156.5 77.696H147.956V78.448H156.5V77.696ZM151.028 86.608C150.852 84.976 150.34 82.016 149.78 79.712L149.076 79.856C149.62 82.128 150.1 85.152 150.26 86.832L151.028 86.608ZM146.836 74.736C145.892 77.248 144.34 79.712 142.676 81.328C142.836 81.472 143.092 81.856 143.156 82.016C143.844 81.344 144.484 80.528 145.092 79.632V89.152H145.86V78.416C146.516 77.312 147.108 76.144 147.572 74.944L146.836 74.736ZM153.588 87.76C154.196 85.568 154.9 82.192 155.332 79.696L154.532 79.536C154.164 81.984 153.476 85.568 152.852 87.76H147.204V88.496H157.22V87.76H153.588ZM164.067 76.64C163.811 76.064 163.283 75.248 162.787 74.608L162.179 74.944C162.659 75.568 163.171 76.448 163.411 77.024L164.067 76.64ZM166.051 77.424H160.355V78.112H166.051V77.424ZM165.507 80.128V79.472H160.979V80.128H165.507ZM165.507 81.536H160.979V82.208H165.507V81.536ZM164.899 84.304V87.472H161.699V84.304H164.899ZM165.619 83.616H160.995V88.96H161.699V88.16H165.619V83.616ZM167.475 78.72H170.035V80.768H167.475V78.72ZM167.475 76.048H170.035V78.064H167.475V76.048ZM173.379 78.064H170.755V76.048H173.379V78.064ZM173.379 80.768H170.755V78.72H173.379V80.768ZM174.643 83.712V83.008H170.771V81.44H174.115V75.376H166.771V81.44H170.019V83.008H166.083V83.712H169.555C168.659 85.376 167.123 87.04 165.651 87.808C165.811 87.952 166.051 88.208 166.179 88.384C167.571 87.536 169.075 85.904 170.019 84.176V89.168H170.771V84.112C171.715 85.68 173.187 87.36 174.451 88.256C174.547 88.048 174.803 87.808 174.995 87.664C173.699 86.88 172.179 85.248 171.283 83.712H174.643ZM190.708 79.68H185.108V76.24H190.708V79.68ZM191.46 75.552H184.372V80.368H191.46V75.552ZM183.268 83.12C183.012 82.72 181.828 81.072 181.396 80.544V80.016H183.588V79.28H181.396V76.08C182.068 75.904 182.676 75.696 183.188 75.456L182.66 74.832C181.684 75.328 179.796 75.808 178.228 76.08C178.34 76.272 178.452 76.544 178.484 76.72C179.172 76.624 179.924 76.464 180.644 76.288V79.28H178.036V80.016H180.484C179.876 82.016 178.74 84.304 177.764 85.504C177.908 85.68 178.116 86 178.196 86.208C179.06 85.12 179.988 83.184 180.644 81.344V89.184H181.396V81.472C181.891 82.224 182.548 83.296 182.788 83.776L183.268 83.12ZM188.26 88.016V85.472H191.732V84.768H188.26V82.4C189.412 82.224 190.468 82.016 191.268 81.76L190.708 81.2C189.316 81.648 186.612 81.968 184.436 82.144C184.516 82.32 184.628 82.576 184.66 82.752C185.54 82.688 186.532 82.608 187.508 82.48V84.768H184.18V85.472H187.508V88.016H183.252V88.72H192.42V88.016H188.26ZM29.532 105.08C29.404 104.232 28.988 102.792 28.572 101.672L27.932 101.8C28.124 102.36 28.316 102.984 28.492 103.592L25.628 103.992C26.94 102.472 28.22 100.52 29.324 98.552L28.62 98.168C28.252 98.888 27.836 99.624 27.404 100.312L25.388 100.52C26.316 99.272 27.228 97.608 27.996 95.976L27.244 95.656C26.556 97.416 25.42 99.304 25.052 99.768C24.748 100.264 24.46 100.616 24.204 100.664C24.3 100.872 24.428 101.256 24.46 101.432C24.684 101.336 25.004 101.256 26.956 101.016C26.3 102.024 25.692 102.824 25.436 103.128C24.956 103.72 24.604 104.136 24.3 104.184C24.396 104.408 24.524 104.792 24.572 104.968C24.844 104.824 25.276 104.744 28.652 104.216C28.748 104.616 28.812 104.968 28.86 105.272L29.532 105.08ZM25.004 105.768C24.828 107.096 24.556 108.52 24.156 109.544C24.332 109.608 24.684 109.736 24.812 109.8C25.148 108.792 25.484 107.272 25.692 105.896L25.004 105.768ZM26.476 105.848C26.668 106.936 26.844 108.376 26.876 109.304L27.548 109.192C27.5 108.248 27.308 106.84 27.116 105.752L26.476 105.848ZM27.9 105.544C28.236 106.44 28.604 107.624 28.748 108.392L29.372 108.2C29.212 107.432 28.844 106.296 28.492 105.4L27.9 105.544ZM33.1 104.36L32.972 104.392H30.188V105.08H32.684C32.044 106.872 30.7 108.216 29.34 108.872C29.5 109.016 29.708 109.256 29.82 109.416C31.42 108.584 32.94 106.936 33.564 104.552L33.1 104.36ZM31.516 100.424H37.084V102.2H31.516V100.424ZM31.516 98.024H37.084V99.784H31.516V98.024ZM37.74 103.64C37.244 104.232 36.412 105.048 35.724 105.624C35.34 104.952 35.052 104.232 34.812 103.48V102.872H37.836V97.368H34.108C34.316 96.92 34.524 96.376 34.748 95.88L33.916 95.656C33.788 96.152 33.564 96.84 33.356 97.368H30.78V102.872H34.076V109.208C34.076 109.4 34.028 109.448 33.804 109.464C33.596 109.48 32.892 109.48 32.044 109.464C32.156 109.672 32.268 109.96 32.316 110.184C33.356 110.184 33.98 110.184 34.348 110.04C34.7 109.912 34.812 109.688 34.812 109.208V105.192C35.628 107.032 36.828 108.6 38.284 109.416C38.396 109.224 38.636 108.968 38.796 108.824C37.708 108.28 36.748 107.304 36.012 106.136C36.748 105.576 37.644 104.776 38.332 104.072L37.74 103.64ZM56.172 97.624V96.856H42.044V97.624H48.396V110.152H49.196V101.256C51.164 102.248 53.468 103.656 54.7 104.568L55.196 103.896C53.9 102.952 51.356 101.464 49.356 100.504L49.196 100.696V97.624H56.172ZM62.828 109.208C64.812 109.208 66.348 107.944 66.348 105.912C66.348 104.264 65.196 103.208 63.788 102.904V102.824C65.036 102.408 65.932 101.448 65.932 99.944C65.932 98.136 64.572 97.128 62.78 97.112C61.452 97.128 60.46 97.736 59.66 98.488L60.204 99.128C60.844 98.44 61.756 97.912 62.764 97.896C64.108 97.912 64.972 98.744 64.972 100.008C64.972 101.4 64.076 102.504 61.516 102.504V103.288C64.3 103.288 65.388 104.344 65.388 105.912C65.388 107.416 64.3 108.408 62.796 108.408C61.308 108.408 60.396 107.704 59.724 106.984L59.196 107.608C59.932 108.392 61.02 109.208 62.828 109.208ZM76.5265 95.912V108.952C76.5265 109.256 76.4305 109.368 76.1105 109.368C75.7745 109.384 74.6705 109.4 73.4225 109.368C73.5505 109.608 73.6945 109.96 73.7585 110.184C75.2305 110.184 76.1425 110.168 76.6385 110.04C77.1185 109.912 77.3265 109.64 77.3265 108.936V95.912H76.5265ZM80.3825 99.896C81.8225 102.152 83.1505 105.128 83.5505 106.984L84.3505 106.664C83.9345 104.776 82.5585 101.848 81.1185 99.608L80.3825 99.896ZM72.3505 99.688C71.9185 101.864 70.9905 104.6 69.4865 106.328C69.7105 106.424 70.0305 106.616 70.1905 106.744C71.7105 104.968 72.6705 102.136 73.1985 99.848L72.3505 99.688ZM91.3745 97.48V101.48H88.5585V97.48H91.3745ZM88.5585 106.28V102.184H91.3745V106.28H88.5585ZM92.1105 96.776H87.8225V108.232H88.5585V107H92.1105V96.776ZM93.6625 105.464C94.4945 106.328 95.4065 107.544 95.7905 108.328L96.4625 107.912C96.0785 107.128 95.1345 105.928 94.2865 105.08L93.6625 105.464ZM101.647 98.44V97.736H97.4065V95.672H96.6545V97.736H92.3985V98.44H96.6545V100.84H93.2305V101.544H98.7985V103.608H92.4945V104.312H98.7985V109.112C98.7985 109.352 98.7185 109.432 98.4465 109.448C98.1905 109.448 97.2785 109.448 96.1745 109.416C96.2865 109.656 96.4145 109.944 96.4465 110.152C97.7905 110.152 98.5585 110.152 98.9905 110.024C99.3905 109.896 99.5505 109.656 99.5505 109.112V104.312H101.599V103.608H99.5505V101.544H101.087V100.84H97.4065V98.44H101.647ZM109.759 96.728C109.487 97.752 108.975 99.272 108.559 100.184L109.119 100.392C109.551 99.544 110.079 98.104 110.479 96.984L109.759 96.728ZM106.591 100.12C106.414 99.208 106.015 97.832 105.599 96.76L105.007 96.904C105.375 97.976 105.775 99.368 105.951 100.28L106.591 100.12ZM106.319 102.92C106.015 104.488 105.263 106.456 104.59 107.432C104.719 107.624 104.927 107.944 105.007 108.136C105.775 107.032 106.511 104.824 106.879 103.08L106.319 102.92ZM110.223 101.784V101.064H108.079V95.704H107.375V101.048H104.847V101.784H107.375V110.168H108.079V101.784H110.223ZM108.559 103.224C108.863 103.816 109.775 105.944 110.031 106.728L110.623 106.136C110.399 105.608 109.311 103.384 109.023 102.904L108.559 103.224ZM112.255 106.824C112.286 106.408 112.303 106.008 112.303 105.64V105.368H117.567V106.824H112.255ZM117.567 103.288V104.76H112.303V103.288H117.567ZM118.303 102.632H111.583V105.64C111.583 106.936 111.471 108.6 110.511 109.864C110.671 109.96 110.943 110.232 111.071 110.392C111.727 109.544 112.031 108.488 112.191 107.448H117.567V109.224C117.567 109.4 117.519 109.464 117.311 109.464C117.119 109.48 116.463 109.48 115.679 109.448C115.775 109.656 115.887 109.928 115.919 110.136C116.911 110.136 117.519 110.136 117.871 110.008C118.207 109.88 118.303 109.672 118.303 109.208V102.632ZM115.215 100.856V99.528H118.911V98.904H115.215V97.704H119.215V97.064H115.215V95.688H114.479V97.064H110.671V97.704H114.479V98.904H111.071V99.528H114.479V100.856H110.527V101.496H119.343V100.856H115.215ZM131.982 99.08H132.734V97.688H136.59V96.968H132.734V95.688H131.982V96.968H129.966V97.688H131.982V99.08ZM126.494 99.08H127.246V97.688H129.342V96.968H127.246V95.688H126.494V96.968H122.702V97.688H126.494V99.08ZM136.782 105.576V104.872H129.998V100.264H136.414V99.576H122.942V100.264H129.246V104.872H122.542V105.576H129.246V107.24H123.278V107.928H129.246V110.216H129.998V107.928H135.982V107.24H129.998V105.576H136.782ZM125.438 100.792V102.2H122.974V102.888H125.438V104.392H126.174V102.888H128.382V102.2H126.174V100.792H125.438ZM133.934 104.392V102.872H136.35V102.168H133.934V100.792H133.198V102.168H130.974V102.872H133.198V104.392H133.934ZM143.71 97.576C143.422 97.048 142.814 96.2 142.27 95.592L141.678 95.944C142.206 96.584 142.814 97.448 143.086 98.024L143.71 97.576ZM145.294 98.424H140.046V99.112H145.294V98.424ZM144.798 101.128V100.472H140.622V101.128H144.798ZM144.798 102.536H140.622V103.208H144.798V102.536ZM144.238 105.304V108.472H141.278V105.304H144.238ZM144.91 104.616H140.638V109.96H141.278V109.16H144.91V104.616ZM150.206 106.84V105.384H152.75V106.84H150.206ZM147.086 105.384H149.486V106.84H147.086V105.384ZM149.486 103.352V104.776H147.086V103.352H149.486ZM152.75 103.352V104.776H150.206V103.352H152.75ZM148.462 99.608H151.294V100.952H148.462V99.608ZM148.462 97.768H151.294V98.984H148.462V97.768ZM154.542 106.84H153.486V102.712H150.206V101.592H154.462V100.952H152.014V99.608H153.822V98.984H152.014V97.768H154.126V97.128H152.014V95.688H151.294V97.128H148.462V95.688H147.758V97.128H145.71V97.768H147.758V98.984H146.158V99.608H147.758V100.952H145.278V101.592H149.486V102.712H146.35V106.84H145.342V107.48H146.35V110.184H147.086V107.48H152.75V109.224C152.75 109.448 152.686 109.496 152.43 109.512C152.222 109.528 151.406 109.528 150.446 109.512C150.558 109.688 150.654 109.96 150.686 110.152C151.918 110.152 152.638 110.168 153.006 110.024C153.358 109.896 153.486 109.688 153.486 109.224V107.48H154.542V106.84ZM171.967 98.248V97.512H166.591C166.303 96.936 165.855 96.2 165.407 95.608L164.735 95.864C165.087 96.36 165.471 96.984 165.743 97.512H158.783V101.976C158.783 104.28 158.655 107.432 157.439 109.72C157.599 109.816 157.935 110.024 158.079 110.152C159.343 107.784 159.535 104.36 159.535 101.976V98.248H171.967ZM168.959 99.288C168.623 101.304 167.759 102.92 166.399 103.928C166.575 104.04 166.863 104.28 166.975 104.392C167.743 103.784 168.367 102.984 168.847 102.024C169.823 102.856 170.879 103.88 171.423 104.536L171.951 104.056C171.327 103.352 170.143 102.248 169.119 101.4C169.375 100.792 169.567 100.12 169.695 99.384L168.959 99.288ZM162.527 99.288C162.159 101.4 161.327 103.128 159.951 104.232C160.127 104.328 160.431 104.552 160.559 104.68C161.343 104.008 161.967 103.128 162.447 102.056C163.183 102.744 163.983 103.608 164.399 104.168L164.911 103.672C164.447 103.08 163.519 102.12 162.719 101.416C162.943 100.792 163.119 100.12 163.263 99.384L162.527 99.288ZM166.191 109.016V106.184H170.927V105.48H166.191V98.952H165.439V105.48H160.783V106.184H165.439V109.016H159.727V109.736H171.983V109.016H166.191Z" fill="white"/>
<path d="M198.76 61.1299L23 61.1299V62.0199L198.76 62.0199V61.1299Z" fill="white"/>
<rect x="202.5" y="55" width="14" height="4" transform="rotate(90 202.5 55)" fill="#00FF63"/>
<path d="M11 14H1V104H11" stroke="#00FF63" stroke-width="0.5"/>
</svg>
