<svg width="203" height="115" viewBox="0 0 203 115" fill="none" xmlns="http://www.w3.org/2000/svg">
<path d="M34.62 14.62H36.72L36.32 14.94C36.58 15.04 36.86 15.18 37.14 15.3L34.62 15.32V14.62ZM28.76 13.16V12.4H32.3V13.16H28.76ZM28.76 10.3H32.3V11.04H28.76V10.3ZM38.34 10.3V11.04H34.62V10.3H38.34ZM34.62 13.16V12.4H38.34V13.16H34.62ZM42.6 17.62H38.14V16.82L39.6 16.78C39.92 17 40.2 17.24 40.44 17.44L41.9 16.22C41.26 15.74 40.32 15.14 39.32 14.62H40.66V8.86H34.62V8.14H41.92V6.34H34.62V5.08H32.3V6.34H24.96V8.14H32.3V8.86H26.54V14.62H32.3V15.34C29.6 15.34 27.14 15.36 25.26 15.34L25.32 17.04C28.12 17.02 31.9 16.96 35.84 16.88V17.62H24.42V19.5H28.42L27.58 20.2C28.66 20.94 30 22.08 30.58 22.86L32.34 21.34C31.88 20.8 31.04 20.1 30.2 19.5H35.84V21.36C35.84 21.62 35.74 21.68 35.42 21.7C35.1 21.7 33.96 21.7 33 21.66C33.28 22.26 33.58 23.1 33.68 23.74C35.2 23.74 36.32 23.72 37.12 23.42C37.94 23.1 38.14 22.54 38.14 21.44V19.5H42.6V17.62ZM50.14 19.86C48.92 20.6 46.6 21.28 44.6 21.56C45.08 22 45.7 22.78 46 23.28C48.06 22.8 50.46 21.76 51.82 20.62L50.14 19.86ZM55.52 20.86C57.2 21.56 59.54 22.62 60.7 23.28L62.38 21.98C61.1 21.34 58.74 20.34 57.12 19.74L55.52 20.86ZM56.36 10.18C56.08 10.66 55.66 11.26 55.34 11.72L56.06 11.94H50.6L51.68 11.68C51.52 11.26 51.2 10.68 50.88 10.18H56.36ZM54.66 17.24V16.36H60.66V14.64H54.66V13.74H61.6V11.94H57.74C58.1 11.58 58.52 11.14 58.96 10.66L57.08 10.18H62.36V8.32H59.78C60.28 7.62 60.82 6.72 61.38 5.8L58.88 5.22C58.6 6.08 58.06 7.3 57.6 8.1L58.32 8.32H56.54V5.06H54.3V8.32H52.8V5.06H50.6V8.32H48.76L49.72 7.96C49.46 7.2 48.8 6 48.2 5.16L46.16 5.84C46.62 6.6 47.14 7.56 47.44 8.32H44.72V10.18H49.82L48.48 10.48C48.74 10.92 49.04 11.48 49.22 11.94H45.54V13.74H52.3V14.64H46.54V16.36H52.3V17.24H44.68V19.2H52.3V23.76H54.66V19.2H62.42V17.24H54.66ZM77.7 16.56V17.88H69.4V16.56H77.7ZM69.4 21.12V19.68H77.7V21.12H69.4ZM67.02 23.78H69.4V23.08H77.7V23.76H80.2V14.58H67.02V23.78ZM76.54 8.78C76.32 9.56 75.96 10.5 75.64 11.24H71.52C71.38 10.52 70.98 9.54 70.5 8.78H76.54ZM78.24 11.24C78.56 10.62 78.9 9.92 79.24 9.18L77.4 8.78H81.54V6.68H75.1C74.9 6.08 74.6 5.4 74.26 4.84L71.78 5.24C72 5.66 72.24 6.18 72.4 6.68H65.66V8.78H70.06L68.12 9.16C68.44 9.78 68.74 10.56 68.92 11.24H64.54V13.36H82.48V11.24H78.24ZM90.6 14.94C90.48 13.96 90.2 12.52 89.88 11.38L88.38 11.72C88.48 12.12 88.58 12.56 88.66 13.02L87.08 13.18C88.34 11.78 89.6 10.12 90.54 8.48L88.86 7.56C88.6 8.14 88.26 8.72 87.94 9.28L86.9 9.36C87.6 8.34 88.28 7.1 88.78 5.94L86.94 5.3C86.5 6.82 85.62 8.38 85.34 8.8C85.06 9.22 84.8 9.52 84.5 9.58C84.72 10.06 85.02 10.92 85.12 11.3C85.34 11.18 85.7 11.08 86.88 10.92C86.38 11.62 85.94 12.16 85.74 12.4C85.24 12.98 84.86 13.36 84.44 13.46C84.66 13.92 84.96 14.84 85.06 15.18C85.4 15.02 85.96 14.88 88.92 14.48C88.96 14.78 89 15.06 89.02 15.3L90.6 14.94ZM89.7 18.6C88.48 19.76 86.16 20.76 83.94 21.2C84.44 21.66 85.14 22.58 85.5 23.16C87.88 22.5 90.22 21.04 91.62 19.32L89.7 18.6ZM102.5 18V16.04H94.76V15.08H92.38V16.04H84.46V18H92.38V23.68H94.76V18H102.5ZM95.78 19.84C97.56 20.82 99.92 22.32 101.02 23.3L102.54 21.6C101.34 20.64 98.92 19.24 97.18 18.36L95.78 19.84ZM94.24 9.88H92.74V8.54H94.24V9.88ZM94.24 12.9H92.74V11.5H94.24V12.9ZM94.18 6.8L94.82 5.28L92.66 4.92C92.62 5.46 92.48 6.16 92.32 6.8H90.72V14.64H96.34V6.8H94.18ZM100.38 11.98C100.48 12.36 100.58 12.78 100.68 13.22L99.12 13.36C100.42 11.98 101.7 10.28 102.7 8.64L100.98 7.66C100.72 8.2 100.42 8.74 100.14 9.24L98.8 9.36C99.5 8.32 100.22 7.06 100.7 5.82L98.78 5.28C98.34 6.82 97.44 8.42 97.16 8.84C96.9 9.26 96.62 9.56 96.34 9.64C96.56 10.12 96.86 11 96.96 11.4C97.2 11.26 97.6 11.16 98.98 10.96C98.46 11.7 98 12.26 97.78 12.5C97.28 13.06 96.9 13.44 96.48 13.54C96.7 14.02 97 14.96 97.1 15.34C97.44 15.16 98.02 15.04 101 14.72C101.04 15 101.08 15.26 101.1 15.5L102.7 15.08C102.54 14.14 102.2 12.7 101.86 11.6L100.38 11.98ZM111.94 5.08C111.86 8.46 112.24 17.42 104.12 21.76C104.92 22.3 105.68 23.06 106.1 23.7C110.26 21.26 112.36 17.64 113.46 14.12C114.62 17.56 116.84 21.46 121.28 23.58C121.6 22.9 122.28 22.1 123.02 21.52C116.04 18.44 114.82 10.9 114.54 8.2C114.62 7 114.66 5.92 114.68 5.08H111.94ZM26.86 37.6C26.7 36.46 26.28 34.7 25.9 33.36L24.26 33.76C24.62 35.1 25 36.88 25.12 38.04L26.86 37.6ZM34.48 46.18C34.5 45.86 34.52 45.54 34.54 45.22H39.66V46.18H34.48ZM39.66 42.74V43.68H34.54V42.74H39.66ZM41.86 41H32.4V44.56C32.4 46.12 32.28 48 31.12 49.4C31.56 49.66 32.44 50.48 32.78 50.9C33.54 50.02 34 48.88 34.24 47.72H39.66V48.56C39.66 48.78 39.58 48.86 39.32 48.86C39.08 48.86 38.24 48.86 37.5 48.84C37.76 49.36 38.04 50.16 38.12 50.72C39.38 50.74 40.32 50.7 40.98 50.4C41.68 50.1 41.86 49.58 41.86 48.58V41ZM38.2 38.48V37.6H42.16V36.02H38.2V35.22H42.56V33.52H38.2V32.06H35.9V33.52H31.76V33.96L29.98 33.4C29.76 34.52 29.34 36.08 28.94 37.2V32.08H26.86V38.7H24.3V40.9H26.86V42.04L25.8 41.66C25.52 43.18 24.76 45.02 23.96 46.04C24.3 46.72 24.74 47.78 24.94 48.48C25.78 47.5 26.42 45.82 26.86 44.12V50.74H28.94V43.3C29.44 44.24 30.06 45.56 30.36 46.34L31.86 44.62C31.54 44.14 30.18 42.18 29.78 41.72L28.94 42.3V40.9H31.08V38.7H28.94V37.64L30.26 38.14C30.68 37.2 31.24 35.78 31.76 34.46V35.22H35.9V36.02H32.26V37.6H35.9V38.48H31.46V40.18H42.82V38.48H38.2ZM55.74 36.4H58.06V35.28H62.4V33.2H58.06V32.08H55.74V33.2H53.82V35.28H55.74V36.4ZM48.82 36.4H51.14V35.28H53.18V33.2H51.14V32.08H48.82V33.2H44.58V35.28H48.82V36.4ZM47.44 39.16V40.02H44.94V42.02H47.44V42.98H49.64V42.02H51.48V40.02H49.64V39.16H47.44ZM62.62 45.38V43.32H54.62V38.8H62.06V36.86H44.96V38.8H52.26V43.32H44.46V45.38H52.26V46.38H45.62V48.34H52.26V50.74H54.62V48.34H61.28V46.38H54.62V45.38H62.62ZM59.54 42.98V41.92H61.94V39.92H59.54V39.16H57.34V39.92H55.4V41.92H57.34V42.98H59.54ZM67.14 35.52H79.8V37.16H82.02V33.68H74.72C74.5 33.1 74.14 32.44 73.8 31.9L71.72 32.48C71.92 32.84 72.14 33.26 72.3 33.68H65V37.16H67.14V35.52ZM69.34 46.18H77.66V46.82H69.34V46.18ZM69.34 44.44H77.66V45.06H69.34V44.44ZM69.34 42.72H77.66V43.3H69.34V42.72ZM80.08 48V41.52H67.04V48H69.9C68.46 48.54 66.4 49 64.64 49.24C65.06 49.68 65.62 50.4 65.9 50.86C68.22 50.52 71.02 49.74 72.7 48.88L71.5 48H75.16L74.34 48.9C76.64 49.5 78.98 50.3 80.42 50.84L82.04 49.38C80.86 49 79.1 48.48 77.34 48H80.08ZM74.24 39.76L74.32 39.12H76.88L76.82 39.76H74.24ZM69.74 39.12H72.38L72.3 39.76H69.66L69.74 39.12ZM72.56 37.36L72.5 37.94H69.88L69.96 37.36H72.56ZM76.98 37.94H74.46L74.5 37.36H77.02L76.98 37.94ZM79.2 37.68L79.34 36.16H68.02L67.82 37.68H64.44V39.38H67.58L67.38 40.94H78.88L79.04 39.38H82.66V37.68H79.2ZM102.68 35.7C102.38 34.76 101.48 33.38 100.7 32.34L98.9 33.28C99.66 34.34 100.46 35.82 100.78 36.74L102.68 35.7ZM92.66 35.36H91.6V34.06H92.66V35.36ZM94.44 32.58H89.92V36.86H94.44V32.58ZM87.44 35.36H86.4V34.06H87.44V35.36ZM89.18 32.58H84.7V36.86H89.18V32.58ZM86.86 42.04H88.52V43.12H86.86V42.04ZM86.86 39.36H88.52V40.4H86.86V39.36ZM92.22 40.4H90.52V39.36H92.22V40.4ZM92.22 43.12H90.52V42.04H92.22V43.12ZM94.78 47.94V45.86H90.64V44.86H94.28V37.62H84.9V44.86H88.38V45.86H84.12V47.94H88.38V50.74H90.64V47.94H94.78ZM100.62 39.66C100.24 40.88 99.7 42.1 99.04 43.24C98.88 42.16 98.74 40.94 98.62 39.62L102.94 39.08L102.7 36.9L98.44 37.42C98.34 35.78 98.28 34 98.26 32.18H96C96.04 34.14 96.12 35.98 96.22 37.68L94.48 37.9L94.72 40.1L96.38 39.9C96.58 42.16 96.86 44.14 97.24 45.76C96.08 47.08 94.72 48.18 93.22 48.88C93.84 49.32 94.54 50 94.94 50.54C96.04 49.92 97.06 49.12 97.98 48.16C98.66 49.78 99.58 50.7 100.78 50.76C101.64 50.78 102.66 50 103.16 46.52C102.78 46.3 101.82 45.7 101.44 45.18C101.34 46.98 101.12 47.92 100.8 47.92C100.38 47.88 100 47.24 99.66 46.12C100.84 44.46 101.8 42.58 102.42 40.66L100.62 39.66ZM110.98 35.36H108.24L109.56 34.52C109.18 33.8 108.44 32.7 107.78 31.9L106 32.88C106.54 33.64 107.18 34.62 107.56 35.36H104.18V37.24H110.98V35.36ZM110.34 38.14H104.94V39.94H110.34V38.14ZM104.94 42.62H110.34V40.82H104.94V42.62ZM108.68 45.48V47.72H106.66V45.48H108.68ZM110.48 43.58H104.9V50.48H106.66V49.64H110.48V43.58ZM115.8 37.52H117.92V38.4H115.8V37.52ZM115.8 35.16H117.92V35.94H115.8V35.16ZM119.56 42.48V43.4H117.96V42.48H119.56ZM117.96 45.86V44.86H119.56V45.86H117.96ZM114.26 44.86H115.78V45.86H114.26V44.86ZM115.78 42.48V43.4H114.26V42.48H115.78ZM122.8 40.08V38.4H120.14V37.52H122.04V35.94H120.14V35.16H122.36V33.48H120.14V32.08H117.92V33.48H115.8V32.08H113.64V33.48H111.38V35.16H113.64V35.94H111.86V37.52H113.64V38.4H111.04V40.08H115.78V40.82H112.06V45.86H111V47.52H112.06V50.76H114.26V47.52H119.56V48.56C119.56 48.78 119.48 48.86 119.2 48.86C118.94 48.86 118.08 48.86 117.26 48.84C117.54 49.36 117.82 50.18 117.9 50.74C119.28 50.74 120.26 50.72 120.94 50.4C121.64 50.08 121.82 49.58 121.82 48.58V47.52H122.78V45.86H121.82V40.82H117.96V40.08H122.8ZM130.14 39.96H136.76V41.46H130.14V39.96ZM134.66 46.6H140.8V44.56H134.66V43.26H139.12V38.14H127.92V43.26H132.26V44.56H126.52V46.6H132.26V48.18H124.7V50.24H142.36V48.18H134.66V46.6ZM139.12 35.02C139.66 34.42 140.28 33.66 140.88 32.88L138.32 32.12C137.96 32.9 137.32 33.98 136.76 34.7L137.72 35.02H134.66V32.04H132.26V35.02H129.42L130.18 34.68C129.86 33.98 129.18 32.96 128.54 32.2L126.42 33.02C126.86 33.62 127.34 34.36 127.68 35.02H124.68V39.78H126.86V37.06H140.12V39.78H142.4V35.02H139.12Z" fill="#00FF63"/>
<path d="M29.532 84.08C29.404 83.232 28.988 81.792 28.572 80.672L27.932 80.8C28.124 81.36 28.316 81.984 28.492 82.592L25.628 82.992C26.94 81.472 28.22 79.52 29.324 77.552L28.62 77.168C28.252 77.888 27.836 78.624 27.404 79.312L25.388 79.52C26.316 78.272 27.228 76.608 27.996 74.976L27.244 74.656C26.556 76.416 25.42 78.304 25.052 78.768C24.748 79.264 24.46 79.616 24.204 79.664C24.3 79.872 24.428 80.256 24.46 80.432C24.684 80.336 25.004 80.256 26.956 80.016C26.3 81.024 25.692 81.824 25.436 82.128C24.956 82.72 24.604 83.136 24.3 83.184C24.396 83.408 24.524 83.792 24.572 83.968C24.844 83.824 25.276 83.744 28.652 83.216C28.748 83.616 28.812 83.968 28.86 84.272L29.532 84.08ZM25.004 84.768C24.828 86.096 24.556 87.52 24.156 88.544C24.332 88.608 24.684 88.736 24.812 88.8C25.148 87.792 25.484 86.272 25.692 84.896L25.004 84.768ZM26.476 84.848C26.668 85.936 26.844 87.376 26.876 88.304L27.548 88.192C27.5 87.248 27.308 85.84 27.116 84.752L26.476 84.848ZM27.9 84.544C28.236 85.44 28.604 86.624 28.748 87.392L29.372 87.2C29.212 86.432 28.844 85.296 28.492 84.4L27.9 84.544ZM33.1 83.36L32.972 83.392H30.188V84.08H32.684C32.044 85.872 30.7 87.216 29.34 87.872C29.5 88.016 29.708 88.256 29.82 88.416C31.42 87.584 32.94 85.936 33.564 83.552L33.1 83.36ZM31.516 79.424H37.084V81.2H31.516V79.424ZM31.516 77.024H37.084V78.784H31.516V77.024ZM37.74 82.64C37.244 83.232 36.412 84.048 35.724 84.624C35.34 83.952 35.052 83.232 34.812 82.48V81.872H37.836V76.368H34.108C34.316 75.92 34.524 75.376 34.748 74.88L33.916 74.656C33.788 75.152 33.564 75.84 33.356 76.368H30.78V81.872H34.076V88.208C34.076 88.4 34.028 88.448 33.804 88.464C33.596 88.48 32.892 88.48 32.044 88.464C32.156 88.672 32.268 88.96 32.316 89.184C33.356 89.184 33.98 89.184 34.348 89.04C34.7 88.912 34.812 88.688 34.812 88.208V84.192C35.628 86.032 36.828 87.6 38.284 88.416C38.396 88.224 38.636 87.968 38.796 87.824C37.708 87.28 36.748 86.304 36.012 85.136C36.748 84.576 37.644 83.776 38.332 83.072L37.74 82.64ZM48.956 87.648V80.816H55.116V80.064H48.956V74.944H48.156V87.648H42.012V88.416H56.204V87.648H48.956ZM58.86 90.832H59.612L64.892 75.424H64.124L58.86 90.832ZM72.6289 84.08C72.5009 83.232 72.0849 81.792 71.6689 80.672L71.0289 80.8C71.2209 81.36 71.4129 81.984 71.5889 82.592L68.7249 82.992C70.0369 81.472 71.3169 79.52 72.4209 77.552L71.7169 77.168C71.3489 77.888 70.9329 78.624 70.5009 79.312L68.4849 79.52C69.4129 78.272 70.3249 76.608 71.0929 74.976L70.3409 74.656C69.6529 76.416 68.5169 78.304 68.1489 78.768C67.8449 79.264 67.5569 79.616 67.3009 79.664C67.3969 79.872 67.5249 80.256 67.5569 80.432C67.7809 80.336 68.1009 80.256 70.0529 80.016C69.3969 81.024 68.7889 81.824 68.5329 82.128C68.0529 82.72 67.7009 83.136 67.3969 83.184C67.4929 83.408 67.6209 83.792 67.6689 83.968C67.9409 83.824 68.3729 83.744 71.7489 83.216C71.8449 83.616 71.9089 83.968 71.9569 84.272L72.6289 84.08ZM68.1009 84.768C67.9249 86.096 67.6529 87.52 67.2529 88.544C67.4289 88.608 67.7809 88.736 67.9089 88.8C68.2449 87.792 68.5809 86.272 68.7889 84.896L68.1009 84.768ZM69.5729 84.848C69.7649 85.936 69.9409 87.376 69.9729 88.304L70.6449 88.192C70.5969 87.248 70.4049 85.84 70.2129 84.752L69.5729 84.848ZM70.9969 84.544C71.3329 85.44 71.7009 86.624 71.8449 87.392L72.4689 87.2C72.3089 86.432 71.9409 85.296 71.5889 84.4L70.9969 84.544ZM76.1969 83.36L76.0689 83.392H73.2849V84.08H75.7809C75.1409 85.872 73.7969 87.216 72.4369 87.872C72.5969 88.016 72.8049 88.256 72.9169 88.416C74.5169 87.584 76.0369 85.936 76.6609 83.552L76.1969 83.36ZM74.6129 79.424H80.1809V81.2H74.6129V79.424ZM74.6129 77.024H80.1809V78.784H74.6129V77.024ZM80.8369 82.64C80.3409 83.232 79.5089 84.048 78.8209 84.624C78.4369 83.952 78.1489 83.232 77.9089 82.48V81.872H80.9329V76.368H77.2049C77.4129 75.92 77.6209 75.376 77.8449 74.88L77.0129 74.656C76.8849 75.152 76.6609 75.84 76.4529 76.368H73.8769V81.872H77.1729V88.208C77.1729 88.4 77.1249 88.448 76.9009 88.464C76.6929 88.48 75.9889 88.48 75.1409 88.464C75.2529 88.672 75.3649 88.96 75.4129 89.184C76.4529 89.184 77.0769 89.184 77.4449 89.04C77.7969 88.912 77.9089 88.688 77.9089 88.208V84.192C78.7249 86.032 79.9249 87.6 81.3809 88.416C81.4929 88.224 81.7329 87.968 81.8929 87.824C80.8049 87.28 79.8449 86.304 79.1089 85.136C79.8449 84.576 80.7409 83.776 81.4289 83.072L80.8369 82.64ZM99.2689 76.624V75.856H85.1409V76.624H91.4929V89.152H92.2929V80.256C94.2609 81.248 96.5649 82.656 97.7969 83.568L98.2929 82.896C96.9969 81.952 94.4529 80.464 92.4529 79.504L92.2929 79.696V76.624H99.2689ZM106.245 76.576C105.957 76.048 105.349 75.2 104.805 74.592L104.213 74.944C104.741 75.584 105.349 76.448 105.621 77.024L106.245 76.576ZM107.829 77.424H102.581V78.112H107.829V77.424ZM107.333 80.128V79.472H103.157V80.128H107.333ZM107.333 81.536H103.157V82.208H107.333V81.536ZM106.773 84.304V87.472H103.813V84.304H106.773ZM107.445 83.616H103.173V88.96H103.813V88.16H107.445V83.616ZM112.741 85.84V84.384H115.285V85.84H112.741ZM109.621 84.384H112.021V85.84H109.621V84.384ZM112.021 82.352V83.776H109.621V82.352H112.021ZM115.285 82.352V83.776H112.741V82.352H115.285ZM110.997 78.608H113.829V79.952H110.997V78.608ZM110.997 76.768H113.829V77.984H110.997V76.768ZM117.077 85.84H116.021V81.712H112.741V80.592H116.997V79.952H114.549V78.608H116.357V77.984H114.549V76.768H116.661V76.128H114.549V74.688H113.829V76.128H110.997V74.688H110.293V76.128H108.245V76.768H110.293V77.984H108.693V78.608H110.293V79.952H107.813V80.592H112.021V81.712H108.885V85.84H107.877V86.48H108.885V89.184H109.621V86.48H115.285V88.224C115.285 88.448 115.221 88.496 114.965 88.512C114.757 88.528 113.941 88.528 112.981 88.512C113.093 88.688 113.189 88.96 113.221 89.152C114.453 89.152 115.173 89.168 115.541 89.024C115.893 88.896 116.021 88.688 116.021 88.224V86.48H117.077V85.84ZM131.909 74.832C131.525 75.488 130.837 76.48 130.325 77.072L130.917 77.36C131.461 76.8 132.133 75.936 132.661 75.152L131.909 74.832ZM121.461 78.064H133.365V80.64H134.101V77.36H127.765V74.656H126.997V77.36H123.893L124.485 77.072C124.197 76.48 123.525 75.568 122.933 74.896L122.261 75.184C122.805 75.856 123.429 76.752 123.733 77.36H120.741V80.64H121.461V78.064ZM123.797 80.256H131.077V82.384H123.797V80.256ZM127.781 88V85.68H133.109V84.976H127.781V83.056H131.829V79.6H123.061V83.056H126.997V84.976H121.877V85.68H126.997V88H120.533V88.704H134.293V88H127.781ZM28.492 95.784C27.436 98.376 25.724 100.888 23.916 102.504C24.092 102.68 24.348 103.032 24.444 103.208C25.212 102.472 25.964 101.576 26.668 100.616V110.136H27.42V99.48C28.108 98.376 28.716 97.208 29.228 96.008L28.492 95.784ZM38.78 103.368V102.616H34.092V97.96H38.092V97.224H29.644V97.96H33.324V102.616H28.46V103.368H33.324V108.776H28.988V109.512H38.412V108.776H34.092V103.368H38.78ZM54.956 96.984V98.264H52.108V96.984H54.956ZM54.908 100.904C55.308 100.904 55.724 100.888 55.916 100.84C55.884 100.68 55.852 100.424 55.836 100.232C55.612 100.28 55.164 100.296 54.876 100.296H52.556C52.188 100.296 52.108 100.168 52.108 99.72V98.872H55.66V96.376H51.436V99.704C51.436 100.6 51.66 100.904 52.524 100.904H54.908ZM49.788 96.968V98.248H47.02V96.968H49.788ZM47.02 100.376V98.856H50.492V96.36H46.348V99.768C46.348 100.344 46.14 100.52 45.964 100.6C46.076 100.776 46.236 101.08 46.3 101.288C46.54 101.144 46.924 101.048 50.108 100.456C50.14 100.296 50.204 100.04 50.284 99.848L47.02 100.376ZM49.388 103.24H52.444V105H49.388V103.24ZM56.204 105H53.164V103.24H55.548V102.584H53.164V101.24H52.444V102.584H49.388V101.24H48.652V102.584H46.332V103.24H48.652V105H45.692V105.656H56.204V105ZM55.916 107.944C55.084 107.256 53.66 106.456 52.332 105.848L51.836 106.248C53.148 106.872 54.476 107.688 55.26 108.36L55.916 107.944ZM49.372 105.864C48.556 106.632 47.276 107.368 46.092 107.88C46.284 107.992 46.572 108.264 46.7 108.392C47.82 107.816 49.164 106.936 50.06 106.088L49.372 105.864ZM44.7 98.408C44.46 97.736 43.964 96.664 43.58 95.816L42.908 96.008C43.276 96.84 43.756 97.976 44.012 98.664L44.7 98.408ZM44.988 103.272L44.86 103.304H43.532C44.028 102.216 44.636 100.808 45.116 99.624H41.964V100.344H44.06C43.58 101.608 42.94 103.032 42.444 103.992H44.604C44.316 105.32 43.756 106.84 43.068 107.8C42.652 108.168 42.204 108.84 41.74 109.608L42.284 110.232C42.796 109.16 43.324 108.216 43.66 108.216C44.044 108.216 44.652 108.776 45.292 109.16C46.492 109.88 47.932 110.056 50.028 110.056C51.948 110.056 55.116 109.96 56.236 109.896C56.252 109.656 56.364 109.288 56.476 109.08C54.684 109.224 52.236 109.368 50.044 109.368C48.124 109.368 46.7 109.24 45.548 108.552C44.796 108.088 44.396 107.72 44.012 107.576C44.668 106.456 45.164 104.936 45.452 103.496L44.988 103.272ZM59.484 102.328V103.176H73.98V102.328H59.484ZM89.66 98.376H83.916V96.824H89.66V98.376ZM89.66 100.6H83.916V99.016H89.66V100.6ZM90.396 96.2H83.212V101.24H90.396V96.2ZM81.836 104.04L79.996 104.92V99.912H81.884V99.176H79.996V95.752H79.26V99.176H77.244V99.912H79.26V105.256C78.396 105.672 77.596 106.04 76.972 106.296L77.292 107.048C78.604 106.424 80.364 105.56 82.012 104.744L81.836 104.04ZM91.564 103V102.296H81.532V103H84.028C83.244 104.44 81.996 105.672 80.652 106.504C80.812 106.632 81.1 106.888 81.196 107.016C81.98 106.488 82.764 105.8 83.452 105H85.436C84.572 106.584 83.052 108.232 81.628 109.032C81.82 109.176 82.044 109.384 82.172 109.544C83.692 108.584 85.308 106.744 86.14 105H88.044C87.404 106.888 86.156 108.824 84.812 109.768C85.02 109.864 85.276 110.056 85.404 110.216C86.812 109.16 88.076 107.016 88.7 105H90.332C90.108 107.88 89.852 109.016 89.532 109.336C89.42 109.48 89.292 109.496 89.036 109.496C88.812 109.496 88.204 109.48 87.548 109.416C87.66 109.608 87.74 109.912 87.74 110.104C88.348 110.136 88.972 110.136 89.308 110.12C89.66 110.104 89.916 110.04 90.14 109.8C90.572 109.352 90.828 108.12 91.084 104.712C91.1 104.568 91.116 104.328 91.116 104.328H83.98C84.3 103.912 84.588 103.464 84.812 103H91.564ZM107.628 99.304C107.292 100.44 106.716 101.784 106.284 102.6C106.444 102.68 106.748 102.84 106.924 102.936C107.468 101.896 108.188 100.264 108.588 98.776L108.028 98.504L107.884 98.552H101.468C101.724 97.688 101.964 96.76 102.172 95.832L101.34 95.688C100.844 98.184 100.012 100.664 98.828 102.248C99.052 102.344 99.42 102.552 99.58 102.68C100.188 101.784 100.748 100.6 101.212 99.304H107.628ZM99.244 98.312H95.148V99.048H99.244V98.312ZM99.82 104.984H94.796V105.736H99.82V104.984ZM103.692 100.104H102.892V101.176C102.892 103.624 102.572 107.064 97.788 109.608C97.948 109.752 98.22 110.024 98.348 110.2C101.756 108.36 103.004 106.056 103.452 103.912C104.396 106.888 106.044 109.032 108.684 110.04C108.78 109.832 109.02 109.544 109.196 109.384C106.156 108.376 104.444 105.688 103.676 102.136C103.692 101.8 103.692 101.496 103.692 101.192V100.104Z" fill="white"/>
<path d="M198.76 61.1299L23 61.1299V62.0199L198.76 62.0199V61.1299Z" fill="white"/>
<rect x="202.5" y="55" width="14" height="4" transform="rotate(90 202.5 55)" fill="#00FF63"/>
<path d="M11 14H1V104H11" stroke="#00FF63" stroke-width="0.5"/>
</svg>
