<svg width="203" height="115" viewBox="0 0 203 115" fill="none" xmlns="http://www.w3.org/2000/svg">
<path d="M34.62 15.62H36.72L36.32 15.94C36.58 16.04 36.86 16.18 37.14 16.3L34.62 16.32V15.62ZM28.76 14.16V13.4H32.3V14.16H28.76ZM28.76 11.3H32.3V12.04H28.76V11.3ZM38.34 11.3V12.04H34.62V11.3H38.34ZM34.62 14.16V13.4H38.34V14.16H34.62ZM42.6 18.62H38.14V17.82L39.6 17.78C39.92 18 40.2 18.24 40.44 18.44L41.9 17.22C41.26 16.74 40.32 16.14 39.32 15.62H40.66V9.86H34.62V9.14H41.92V7.34H34.62V6.08H32.3V7.34H24.96V9.14H32.3V9.86H26.54V15.62H32.3V16.34C29.6 16.34 27.14 16.36 25.26 16.34L25.32 18.04C28.12 18.02 31.9 17.96 35.84 17.88V18.62H24.42V20.5H28.42L27.58 21.2C28.66 21.94 30 23.08 30.58 23.86L32.34 22.34C31.88 21.8 31.04 21.1 30.2 20.5H35.84V22.36C35.84 22.62 35.74 22.68 35.42 22.7C35.1 22.7 33.96 22.7 33 22.66C33.28 23.26 33.58 24.1 33.68 24.74C35.2 24.74 36.32 24.72 37.12 24.42C37.94 24.1 38.14 23.54 38.14 22.44V20.5H42.6V18.62ZM50.14 20.86C48.92 21.6 46.6 22.28 44.6 22.56C45.08 23 45.7 23.78 46 24.28C48.06 23.8 50.46 22.76 51.82 21.62L50.14 20.86ZM55.52 21.86C57.2 22.56 59.54 23.62 60.7 24.28L62.38 22.98C61.1 22.34 58.74 21.34 57.12 20.74L55.52 21.86ZM56.36 11.18C56.08 11.66 55.66 12.26 55.34 12.72L56.06 12.94H50.6L51.68 12.68C51.52 12.26 51.2 11.68 50.88 11.18H56.36ZM54.66 18.24V17.36H60.66V15.64H54.66V14.74H61.6V12.94H57.74C58.1 12.58 58.52 12.14 58.96 11.66L57.08 11.18H62.36V9.32H59.78C60.28 8.62 60.82 7.72 61.38 6.8L58.88 6.22C58.6 7.08 58.06 8.3 57.6 9.1L58.32 9.32H56.54V6.06H54.3V9.32H52.8V6.06H50.6V9.32H48.76L49.72 8.96C49.46 8.2 48.8 7 48.2 6.16L46.16 6.84C46.62 7.6 47.14 8.56 47.44 9.32H44.72V11.18H49.82L48.48 11.48C48.74 11.92 49.04 12.48 49.22 12.94H45.54V14.74H52.3V15.64H46.54V17.36H52.3V18.24H44.68V20.2H52.3V24.76H54.66V20.2H62.42V18.24H54.66ZM65.32 23H67.98V16.82C67.98 15.42 67.74 13.36 67.6 11.96H67.68L68.86 15.44L71.16 21.66H72.86L75.14 15.44L76.34 11.96H76.42C76.28 13.36 76.06 15.42 76.06 16.82V23H78.76V8.2H75.48L73.02 15.12C72.7 16.04 72.44 17.02 72.12 17.98H72.02C71.72 17.02 71.44 16.04 71.12 15.12L68.6 8.2H65.32V23ZM82.3903 23H85.3503V8.2H82.3903V23ZM88.9919 23H93.2119C97.5719 23 100.372 20.52 100.372 15.54C100.372 10.54 97.5719 8.2 93.0519 8.2H88.9919V23ZM91.9519 20.62V10.56H92.8719C95.6319 10.56 97.3519 11.92 97.3519 15.54C97.3519 19.14 95.6319 20.62 92.8719 20.62H91.9519ZM103.269 23H106.229V8.2H103.269V23ZM119.371 21.78V17.92H125.111V15.62H119.371V12.16H126.071V9.84H119.731L120.791 9.06C119.951 8.14 118.231 6.86 116.951 6.04L114.991 7.4C115.951 8.1 117.151 9.02 117.991 9.84H109.991V12.16H116.751V15.62H111.051V17.92H116.751V21.78H109.151V24.12H127.051V21.78H119.371ZM137.051 10.2H138.491C138.391 12.5 137.951 13.64 135.071 14.28C135.491 14.64 136.011 15.46 136.191 15.96C139.791 15.06 140.491 13.28 140.631 10.2H141.631V12.88C141.631 14.78 142.091 15.52 144.091 15.52H145.831C146.331 15.52 146.891 15.48 147.231 15.36C147.131 14.86 147.091 14.04 147.031 13.5C146.731 13.58 146.151 13.62 145.791 13.62H144.171C143.831 13.62 143.771 13.44 143.771 12.9V10.2H145.031V11.96H147.211V8.22H142.411C142.111 7.5 141.691 6.62 141.311 5.88L139.111 6.54C139.371 7.06 139.611 7.64 139.851 8.22H134.991V12.02H137.051V10.2ZM135.231 17.14L134.851 15.02L133.131 15.54V12.06H134.771V9.86H133.131V6.08H130.951V9.86H128.871V12.06H130.951V16.18C130.071 16.42 129.271 16.66 128.591 16.82L129.051 19.12L130.951 18.5V22.22C130.951 22.48 130.851 22.56 130.611 22.56C130.371 22.58 129.691 22.58 128.971 22.54C129.251 23.18 129.511 24.16 129.571 24.74C130.871 24.76 131.731 24.68 132.331 24.3C132.931 23.92 133.131 23.32 133.131 22.22V17.8L135.231 17.14ZM142.171 22.04V18.84H146.311V16.7H135.851V18.84H139.831V22.04H134.691V24.18H147.351V22.04H142.171ZM164.651 9.26V10.18H163.611V9.26H164.651ZM164.651 12.86H163.611V11.9H164.651V12.86ZM161.831 10.18H159.091V11.9H161.831V12.86H159.811V14.56H161.831V15.46H159.731V17.32H161.831V18.28H159.351V20.12H161.831V21.92H163.611V20.12H166.851V18.28H163.611V17.32H166.471V15.46H163.611V14.56H166.271V11.9H167.311V10.18H166.271V7.56H163.611V6.06H161.831V7.56H159.811V9.26H161.831V10.18ZM158.391 13.12L158.111 13.14H157.551C158.171 11.34 158.871 9.16 159.431 7.32H155.471V9.34H156.971C156.391 11.34 155.671 13.48 155.071 14.96H157.671C157.571 16.12 157.411 17.2 157.191 18.14C157.011 17.68 156.831 17.14 156.691 16.54L155.171 17.14C155.531 18.48 155.951 19.6 156.471 20.5C156.091 21.36 155.631 22.06 155.071 22.6L154.951 20.76L153.131 21.16V16.54H154.951V14.52H153.131V13.06H154.391V11.08H151.071C151.511 10.48 151.911 9.86 152.291 9.18C153.291 9.94 154.291 10.9 154.931 11.66L155.751 9.68C155.151 9.02 154.171 8.16 153.151 7.46C153.271 7.22 153.371 6.98 153.471 6.74L152.031 5.94C151.271 7.76 149.971 9.5 148.711 10.58C148.951 11.18 149.331 12.5 149.431 13.02C149.651 12.82 149.851 12.6 150.071 12.36V13.06H151.531V14.52H149.131V16.54H151.531V21.5C150.531 21.7 149.631 21.88 148.911 22.02L149.291 24.16C150.911 23.72 153.031 23.18 155.051 22.62C154.831 22.84 154.591 23.04 154.331 23.2C154.711 23.56 155.151 24.3 155.411 24.8C156.331 24.12 157.071 23.28 157.651 22.18C159.251 23.88 161.331 24.36 163.811 24.36H166.871C166.971 23.8 167.251 22.88 167.511 22.42C166.711 22.44 164.551 22.44 163.951 22.44C161.791 22.44 159.851 22 158.411 20.32C159.011 18.48 159.351 16.16 159.471 13.22L158.391 13.12ZM149.491 17.66C149.731 18.76 149.971 20.18 150.031 21.14L151.331 20.68C151.231 19.74 150.991 18.34 150.711 17.26L149.491 17.66ZM154.391 20.88C154.631 20.04 154.931 18.72 155.251 17.54L153.831 17.08C153.731 18.08 153.471 19.52 153.251 20.44L154.391 20.88ZM173.371 19.86H174.971V22.32H173.371V19.86ZM178.771 19.86V22.32H177.151V19.86H178.771ZM182.571 19.86V22.32H180.931V19.86H182.571ZM184.911 18.06H171.151V22.32H168.931V24.16H187.171V22.32H184.911V18.06ZM174.851 15.14C174.611 14.66 174.011 13.98 173.431 13.54L172.311 14.32C172.871 14.8 173.431 15.48 173.651 15.98L174.851 15.14ZM172.591 9.98C173.051 10.44 173.531 11.12 173.731 11.56L174.951 10.86C174.731 10.4 174.251 9.78 173.751 9.36L172.591 9.98ZM177.391 15.68V12.98L177.771 12.96L177.811 11.54L177.391 11.56V10.68C177.671 10.92 178.031 11.34 178.291 11.68H178.171V13.28H179.931L178.531 13.68C178.931 14.28 179.411 14.82 179.971 15.3C179.191 15.58 178.311 15.78 177.391 15.94V15.68ZM172.171 11.76C172.171 11.58 172.171 11.38 172.171 11.2V9.1H175.471V11.64L172.171 11.76ZM183.191 13.28C182.811 13.72 182.351 14.12 181.851 14.42C181.311 14.1 180.851 13.72 180.491 13.28H183.191ZM184.811 11.62L184.451 11.68H179.091C180.451 10.76 180.891 9.56 180.951 8.4H182.791V8.92C182.791 10.52 183.131 11.2 184.831 11.2H186.171C186.591 11.2 187.071 11.16 187.351 11.06C187.291 10.58 187.231 9.92 187.211 9.44C186.931 9.52 186.411 9.54 186.111 9.54H185.051C184.751 9.54 184.711 9.38 184.711 8.94V6.76H179.111V8.06C179.111 8.92 178.891 9.76 177.391 10.46V7.52H174.571C174.731 7.14 174.911 6.74 175.111 6.32L173.051 6.06C172.971 6.48 172.791 7.02 172.611 7.52H170.311V11.18C170.311 11.4 170.311 11.6 170.311 11.84L168.711 11.88L168.831 13.52L170.171 13.44C169.971 14.7 169.511 16.02 168.531 17.04C168.951 17.26 169.711 17.94 170.011 18.3C171.291 16.94 171.831 15.08 172.051 13.32L175.471 13.12V15.66C175.471 15.86 175.411 15.92 175.231 15.94C175.031 15.94 174.451 15.94 173.851 15.92C174.091 16.42 174.311 17.18 174.371 17.7C175.411 17.7 176.171 17.68 176.691 17.38C176.971 17.24 177.131 17.06 177.231 16.82C177.451 17.14 177.651 17.5 177.751 17.76C179.191 17.5 180.551 17.1 181.751 16.56C183.031 17.22 184.571 17.7 186.311 17.96C186.571 17.4 187.131 16.6 187.591 16.16C186.151 16.02 184.831 15.74 183.711 15.34C184.711 14.52 185.511 13.5 186.011 12.2L184.811 11.62Z" fill="#00FF63"/>
<path d="M28.806 46.242C28.134 47.194 27.196 48.244 26.328 49C26.51 49.084 26.776 49.28 26.916 49.378C27.714 48.608 28.694 47.46 29.436 46.466L28.806 46.242ZM28.302 43.246H34.742V44.8H28.302V43.246ZM28.302 41.16H34.742V42.686H28.302V41.16ZM35.428 45.374V40.572H31.242C31.452 40.152 31.662 39.676 31.872 39.242L31.13 39.088C30.99 39.508 30.766 40.11 30.542 40.572H27.644V45.374H31.172V49.168C31.172 49.336 31.116 49.406 30.878 49.42C30.668 49.434 29.926 49.434 28.988 49.406C29.072 49.588 29.184 49.826 29.226 50.008C30.36 50.008 31.018 50.008 31.382 49.896C31.718 49.784 31.83 49.588 31.83 49.154V45.374H35.428ZM33.314 46.578C34.21 47.474 35.344 48.72 35.918 49.462L36.478 49.07C35.89 48.37 34.742 47.166 33.846 46.298L33.314 46.578ZM36.618 38.22H25.516V42.112C25.516 44.254 25.39 47.236 24.116 49.392C24.284 49.462 24.55 49.644 24.676 49.756C25.992 47.516 26.174 44.324 26.174 42.112V38.85H36.618V38.22ZM47.118 39.634H45.214V38.668H47.118V39.634ZM49.638 40.152V41.72H47.72V40.152H49.638ZM45.214 40.152H47.118V41.72H45.214V40.152ZM42.764 40.152H44.612V41.72H42.764V40.152ZM44.612 39.634H42.134V42.252H50.282V39.634H47.72V38.668H50.702V38.094H41.756V38.668H44.612V39.634ZM43.114 46.494H49.442V47.474H43.114V46.494ZM43.114 45.01H49.442V45.976H43.114V45.01ZM43.114 43.54H49.442V44.492H43.114V43.54ZM50.1 47.992V43.022H42.484V47.992H50.1ZM40.958 37.436C40.244 39.662 39.096 41.874 37.822 43.316C37.948 43.47 38.144 43.792 38.214 43.946C38.788 43.274 39.32 42.476 39.824 41.608V50.022H40.468V40.376C40.888 39.48 41.28 38.542 41.588 37.59L40.958 37.436ZM44.682 48.23C43.982 48.72 42.596 49.266 41.378 49.588C41.518 49.7 41.686 49.91 41.784 50.036C43.03 49.714 44.388 49.168 45.2 48.566L44.682 48.23ZM47.118 48.636C48.35 49.07 49.61 49.616 50.338 50.05L50.926 49.63C50.114 49.196 48.784 48.65 47.566 48.244L47.118 48.636ZM61.874 40.054C61.132 39.382 60.292 38.78 58.92 38.668V36.96H58.262V38.654C56.554 38.738 55.266 39.704 55.266 41.16C55.266 44.31 61.3 43.68 61.3 46.438C61.3 47.614 60.362 48.3 58.556 48.3C57.212 48.3 55.994 47.712 55.196 46.984L54.762 47.558C55.546 48.342 56.918 48.944 58.262 49.014V50.722H58.92V49.014C60.81 48.916 62.126 47.978 62.126 46.382C62.126 42.952 56.092 43.554 56.092 41.104C56.092 40.04 57.072 39.354 58.486 39.354C59.83 39.354 60.628 39.9 61.398 40.572L61.874 40.054ZM66.788 49H72.052V48.286H69.924V38.794H69.266C68.776 39.074 68.146 39.298 67.32 39.438V39.984H69.098V48.286H66.788V49ZM73.9722 51.464C74.9662 50.96 75.6522 50.022 75.6522 48.86C75.6522 48.118 75.3162 47.656 74.8122 47.656C74.4342 47.656 74.0702 47.908 74.0702 48.356C74.0702 48.818 74.4062 49.07 74.7982 49.07C74.8542 49.07 74.9102 49.07 74.9662 49.056C74.9522 49.91 74.4622 50.554 73.7342 50.932L73.9722 51.464ZM79.9922 44.422C78.5782 44.422 77.9482 43.344 77.9482 41.874C77.9482 40.39 78.7742 39.284 79.8802 39.284C81.4762 39.284 82.2882 40.698 82.3722 42.924C81.6022 43.988 80.7482 44.422 79.9922 44.422ZM77.3462 48.202C77.8922 48.776 78.6062 49.182 79.6002 49.182C81.4622 49.182 83.1842 47.642 83.1842 43.344C83.1842 40.264 81.8682 38.612 79.8942 38.612C78.4102 38.612 77.1362 39.956 77.1362 41.874C77.1362 43.946 78.1862 45.08 79.8942 45.08C80.8462 45.08 81.7142 44.534 82.3862 43.722C82.3022 47.25 81.0282 48.482 79.6142 48.482C78.9142 48.482 78.2982 48.202 77.8362 47.67L77.3462 48.202ZM87.7364 49.182C89.5844 49.182 90.7324 47.446 90.7324 43.862C90.7324 40.32 89.5844 38.612 87.7364 38.612C85.8744 38.612 84.7264 40.32 84.7264 43.862C84.7264 47.446 85.8744 49.182 87.7364 49.182ZM87.7364 48.496C86.4064 48.496 85.5384 46.956 85.5384 43.862C85.5384 40.824 86.4064 39.298 87.7364 39.298C89.0524 39.298 89.9204 40.824 89.9204 43.862C89.9204 46.956 89.0524 48.496 87.7364 48.496ZM95.2286 49.182C97.0766 49.182 98.2246 47.446 98.2246 43.862C98.2246 40.32 97.0766 38.612 95.2286 38.612C93.3666 38.612 92.2186 40.32 92.2186 43.862C92.2186 47.446 93.3666 49.182 95.2286 49.182ZM95.2286 48.496C93.8986 48.496 93.0306 46.956 93.0306 43.862C93.0306 40.824 93.8986 39.298 95.2286 39.298C96.5446 39.298 97.4126 40.824 97.4126 43.862C97.4126 46.956 96.5446 48.496 95.2286 48.496Z" fill="white"/>
<line x1="65.5" y1="43.5" x2="103.5" y2="43.5" stroke="white"/>
<path d="M25.196 88H26.076V80.608C26.076 79.648 26.012 78.368 25.964 77.392H26.028L26.94 80L29.404 86.752H30.172L32.62 80L33.532 77.392H33.596C33.548 78.368 33.484 79.648 33.484 80.608V88H34.396V76.336H33.116L30.716 83.04C30.428 83.888 30.156 84.752 29.852 85.6H29.788L28.876 83.04L26.476 76.336H25.196V88ZM39.3898 88H40.3498V76.336H39.3898V88ZM45.3491 88H48.1171C51.6851 88 53.4451 85.696 53.4451 82.128C53.4451 78.56 51.6851 76.336 48.1011 76.336H45.3491V88ZM46.3091 87.184V77.136H48.0051C51.0771 77.136 52.4371 79.104 52.4371 82.128C52.4371 85.152 51.0771 87.184 48.0051 87.184H46.3091ZM57.6991 88H58.6591V76.336H57.6991V88ZM63.6585 88H64.6185V83.072H66.7465C69.3385 83.072 70.9385 81.952 70.9385 79.616C70.9385 77.2 69.3225 76.336 66.6825 76.336H63.6585V88ZM64.6185 82.272V77.136H66.4905C68.8105 77.136 69.9625 77.728 69.9625 79.616C69.9625 81.488 68.8585 82.272 66.5545 82.272H64.6185ZM75.0554 88H81.3274V87.168H76.0154V76.336H75.0554V88ZM88.5132 88.208C90.6092 88.208 92.5132 87.12 92.5132 83.44V76.336H91.6012V83.392C91.6012 86.432 90.1612 87.344 88.5132 87.344C86.8972 87.344 85.4892 86.432 85.4892 83.392V76.336H84.5292V83.44C84.5292 87.12 86.4172 88.208 88.5132 88.208ZM100.375 88.208C102.663 88.208 104.151 86.832 104.151 85.04C104.151 83.264 103.031 82.528 101.703 81.936L99.9586 81.168C99.1106 80.8 97.9746 80.304 97.9746 78.976C97.9746 77.776 98.9666 76.992 100.455 76.992C101.607 76.992 102.519 77.456 103.207 78.16L103.751 77.536C103.015 76.736 101.863 76.128 100.455 76.128C98.4706 76.128 96.9986 77.328 96.9986 79.056C96.9986 80.768 98.3266 81.504 99.3666 81.968L101.111 82.736C102.263 83.248 103.175 83.696 103.175 85.104C103.175 86.432 102.103 87.344 100.375 87.344C99.0466 87.344 97.8466 86.752 96.9986 85.792L96.4066 86.464C97.3346 87.504 98.6786 88.208 100.375 88.208ZM114.291 83.312L115.011 81.2C115.475 79.84 115.875 78.608 116.275 77.2H116.339C116.755 78.608 117.139 79.84 117.619 81.2L118.323 83.312H114.291ZM119.875 88H120.899L116.819 76.336H115.827L111.747 88H112.707L114.035 84.08H118.579L119.875 88ZM124.305 88H125.265V84.064L127.553 81.424L131.329 88H132.433L128.193 80.672L131.905 76.336H130.769L125.297 82.672H125.265V76.336H124.305V88ZM135.874 88H136.754V80.608C136.754 79.648 136.69 78.368 136.642 77.392H136.706L137.618 80L140.082 86.752H140.85L143.298 80L144.21 77.392H144.274C144.226 78.368 144.162 79.648 144.162 80.608V88H145.074V76.336H143.794L141.394 83.04C141.106 83.888 140.834 84.752 140.53 85.6H140.466L139.554 83.04L137.154 76.336H135.874V88ZM152.5 88.208C154.484 88.208 156.02 86.944 156.02 84.912C156.02 83.264 154.868 82.208 153.46 81.904V81.824C154.708 81.408 155.604 80.448 155.604 78.944C155.604 77.136 154.244 76.128 152.452 76.112C151.124 76.128 150.132 76.736 149.332 77.488L149.876 78.128C150.516 77.44 151.428 76.912 152.436 76.896C153.78 76.912 154.644 77.744 154.644 79.008C154.644 80.4 153.748 81.504 151.188 81.504V82.288C153.972 82.288 155.06 83.344 155.06 84.912C155.06 86.416 153.972 87.408 152.468 87.408C150.98 87.408 150.068 86.704 149.396 85.984L148.868 86.608C149.604 87.392 150.692 88.208 152.5 88.208ZM159.254 88H166.278V87.168H162.646C162.038 87.168 161.366 87.216 160.726 87.264C163.83 84.368 165.718 81.92 165.718 79.472C165.718 77.456 164.518 76.128 162.486 76.128C161.078 76.128 160.086 76.832 159.206 77.808L159.798 78.368C160.47 77.536 161.382 76.912 162.39 76.912C164.038 76.912 164.774 78.048 164.774 79.504C164.774 81.616 163.206 84.016 159.254 87.424V88ZM172.985 88.208C175.097 88.208 176.409 86.224 176.409 82.128C176.409 78.08 175.097 76.128 172.985 76.128C170.857 76.128 169.545 78.08 169.545 82.128C169.545 86.224 170.857 88.208 172.985 88.208ZM172.985 87.424C171.465 87.424 170.473 85.664 170.473 82.128C170.473 78.656 171.465 76.912 172.985 76.912C174.489 76.912 175.481 78.656 175.481 82.128C175.481 85.664 174.489 87.424 172.985 87.424ZM25.196 109H26.076V101.608C26.076 100.648 26.012 99.368 25.964 98.392H26.028L26.94 101L29.404 107.752H30.172L32.62 101L33.532 98.392H33.596C33.548 99.368 33.484 100.648 33.484 101.608V109H34.396V97.336H33.116L30.716 104.04C30.428 104.888 30.156 105.752 29.852 106.6H29.788L28.876 104.04L26.476 97.336H25.196V109ZM39.3898 109H40.3498V97.336H39.3898V109ZM45.3491 109H48.1171C51.6851 109 53.4451 106.696 53.4451 103.128C53.4451 99.56 51.6851 97.336 48.1011 97.336H45.3491V109ZM46.3091 108.184V98.136H48.0051C51.0771 98.136 52.4371 100.104 52.4371 103.128C52.4371 106.152 51.0771 108.184 48.0051 108.184H46.3091ZM57.6991 109H58.6591V97.336H57.6991V109ZM76.8534 98.456C76.2614 97.688 75.0294 96.552 73.9734 95.784L73.3814 96.2C74.4054 97 75.6534 98.152 76.2134 98.904L76.8534 98.456ZM75.5094 108.84V104.424H80.7894V103.672H75.5094V99.72H81.3974V98.968H68.8534V99.72H74.7094V103.672H69.5414V104.424H74.7094V108.84H68.0854V109.608H82.2134V108.84H75.5094ZM91.2854 98.296H93.7494C93.6214 100.584 93.0294 101.768 90.7574 102.392C90.9014 102.52 91.0934 102.776 91.1734 102.936C93.6374 102.2 94.3094 100.856 94.4854 98.296H96.1014V101.272C96.1014 102.152 96.3094 102.472 97.1574 102.472H98.9974C99.3494 102.472 99.6854 102.456 99.8774 102.408C99.8454 102.232 99.8294 101.944 99.7974 101.752C99.5894 101.8 99.2214 101.816 98.9814 101.816H97.1734C96.8854 101.816 96.8214 101.688 96.8214 101.272V98.296H99.1094V99.976H99.8294V97.608H95.5894C95.3494 97.048 94.9494 96.28 94.5974 95.656L93.9254 95.864C94.1974 96.408 94.5334 97.064 94.7734 97.608H90.5654V100.152H91.2854V98.296ZM90.3414 103.24C89.6854 103.432 89.0134 103.64 88.3734 103.832V99.816H90.1814V99.08H88.3734V95.688H87.6534V99.08H85.5094V99.816H87.6534V104.024C86.7734 104.264 85.9894 104.488 85.3494 104.664L85.5414 105.448C86.1654 105.256 86.8854 105.032 87.6534 104.808V109.16C87.6534 109.4 87.5574 109.464 87.3494 109.464C87.1734 109.48 86.5174 109.48 85.7494 109.464C85.8614 109.672 85.9734 109.992 86.0054 110.184C87.0134 110.184 87.5734 110.168 87.9094 110.04C88.2294 109.896 88.3734 109.688 88.3734 109.16V104.6C89.0614 104.392 89.7654 104.168 90.4534 103.96L90.3414 103.24ZM95.3974 108.984V105.08H99.2374V104.36H91.0134V105.08H94.6454V108.984H89.9574V109.72H99.9894V108.984H95.3974ZM114.389 97.736H116.069V99.272H114.389V97.736ZM116.069 101.464H114.389V99.928H116.069V101.464ZM113.717 101.464H111.461V102.12H113.717V103.56H111.429V104.232H113.717V105.8H111.013V106.472H113.717V108.68H114.389V106.472H117.349V105.8H114.389V104.232H116.949V103.56H114.389V102.12H116.709V99.928H117.557V99.272H116.709V97.096H114.389V95.672H113.717V97.096H111.461V97.736H113.717V99.272H111.173V99.928H113.717V101.464ZM108.053 107.544C107.397 107.736 106.741 107.896 106.117 108.072V103.256H107.909V102.568H106.117V100.456H107.509V99.768H103.957C104.565 99.032 105.189 98.12 105.685 97.16C106.501 97.896 107.349 98.792 107.877 99.496L108.229 98.84C107.685 98.152 106.821 97.272 105.973 96.552C106.085 96.328 106.181 96.104 106.277 95.864L105.749 95.592C105.109 97.224 104.021 98.744 102.965 99.736C103.077 99.912 103.253 100.312 103.301 100.472C103.509 100.264 103.717 100.056 103.909 99.816V100.456H105.525V102.568H103.205V103.256H105.525V108.232C104.597 108.488 103.765 108.712 103.109 108.872L103.285 109.592C104.565 109.224 106.389 108.712 108.101 108.2L108.053 107.544ZM103.749 104.392C104.005 105.384 104.245 106.664 104.293 107.496L104.853 107.32C104.773 106.488 104.565 105.208 104.293 104.248L103.749 104.392ZM107.077 107.368C107.349 106.584 107.637 105.352 107.893 104.344L107.317 104.056C107.157 104.968 106.837 106.312 106.597 107.128L107.077 107.368ZM115.557 109.32C113.477 109.32 111.429 108.936 110.069 106.872C110.549 105.512 110.853 103.8 111.013 101.656L110.629 101.576L110.501 101.592H109.157C109.765 100.264 110.517 98.392 111.077 96.92H108.341V97.624H110.085C109.493 99.192 108.725 101.08 108.165 102.264H110.325C110.197 103.768 109.957 105.048 109.637 106.12C109.317 105.496 109.061 104.776 108.853 103.896L108.277 104.152C108.565 105.272 108.933 106.184 109.349 106.92C108.869 108.152 108.229 109.032 107.445 109.64C107.605 109.768 107.781 110.008 107.877 110.168C108.661 109.544 109.285 108.712 109.797 107.576C111.253 109.592 113.285 109.992 115.525 109.992H117.333C117.365 109.8 117.493 109.496 117.605 109.32H115.557ZM132.965 101.08C132.517 101.784 131.893 102.36 131.141 102.84C130.405 102.344 129.797 101.736 129.397 101.08H132.965ZM133.573 100.424L133.429 100.456H128.197V101.08H129.237L128.741 101.272C129.173 101.992 129.765 102.648 130.501 103.192C129.541 103.704 128.453 104.056 127.317 104.296C127.461 104.44 127.653 104.744 127.733 104.904C128.917 104.632 130.085 104.2 131.109 103.624C132.149 104.296 133.381 104.808 134.677 105.096C134.773 104.888 134.981 104.632 135.157 104.472C133.909 104.232 132.741 103.816 131.733 103.224C132.709 102.552 133.493 101.72 134.005 100.664L133.573 100.424ZM129.749 96.936H132.277V98.488C132.277 99.288 132.437 99.56 133.157 99.56H134.357C134.613 99.56 134.901 99.56 135.045 99.512C135.029 99.336 135.013 99.08 134.981 98.904C134.821 98.952 134.517 98.952 134.325 98.952H133.205C132.997 98.952 132.965 98.856 132.965 98.504V96.296H129.077V97.4C129.077 98.12 128.853 98.952 127.717 99.608C127.845 99.704 128.069 99.96 128.165 100.136C129.445 99.352 129.749 98.28 129.749 97.4V96.936ZM123.701 98.408C124.181 98.776 124.725 99.352 124.949 99.784L125.461 99.416C125.189 99.016 124.677 98.472 124.149 98.088L123.701 98.408ZM122.901 97.464H126.565V100.136C125.269 100.2 124.021 100.264 122.885 100.312C122.901 100.136 122.901 99.96 122.901 99.784V97.464ZM126.565 103.912C126.565 104.088 126.517 104.152 126.309 104.152C126.117 104.168 125.509 104.168 124.725 104.136C124.853 104.36 124.949 104.632 124.981 104.824C125.893 104.824 126.501 104.824 126.821 104.696C127.157 104.568 127.253 104.36 127.253 103.896V100.664L127.621 100.648L127.637 100.072L127.253 100.088V96.824H124.597C124.773 96.504 124.949 96.168 125.141 95.784L124.421 95.64C124.293 95.976 124.101 96.424 123.893 96.824H122.229V99.784C122.229 99.96 122.229 100.136 122.213 100.328L120.677 100.392L120.757 101.032L122.181 100.952C122.053 102.216 121.669 103.608 120.565 104.68C120.725 104.776 120.981 105.032 121.077 105.176C122.293 103.976 122.709 102.376 122.853 100.936C124.005 100.872 125.269 100.792 126.565 100.712V103.912ZM123.605 101.784C124.117 102.152 124.629 102.728 124.853 103.176L125.333 102.808C125.109 102.392 124.565 101.832 124.069 101.448L123.605 101.784ZM123.365 105.976H125.893V109.016H123.365V105.976ZM129.157 105.976V109.016H126.613V105.976H129.157ZM132.453 105.976V109.016H129.893V105.976H132.453ZM133.205 105.304H122.629V109.016H120.693V109.704H135.157V109.016H133.205V105.304Z" fill="white"/>
<path d="M198.76 61.1299L23 61.1299V62.0199L198.76 62.0199V61.1299Z" fill="white"/>
<rect x="202.5" y="55" width="14" height="4" transform="rotate(90 202.5 55)" fill="#00FF63"/>
<path d="M11 14H1V104H11" stroke="#00FF63" stroke-width="0.5"/>
</svg>
