<svg width="203" height="115" viewBox="0 0 203 115" fill="none" xmlns="http://www.w3.org/2000/svg">
<path d="M11 14H1V104H11" stroke="#00FF63" stroke-width="0.5"/>
<path d="M26.6 11.08C27.16 10.4 27.72 9.68 28.2 8.9C28.94 9.62 29.68 10.4 30.3 11.08H26.6ZM35.2 10.64L35.48 9.52H38.74L38.52 10.64H35.2ZM42.94 21.86C42.2 21.18 41.04 20.3 39.84 19.44C40.64 18.68 41.54 17.66 42.4 16.7L40.48 15.62C39.98 16.46 39.16 17.6 38.46 18.4L38.14 18.2V15.42H42.74V13.34H40.18C40.58 11.6 41 9.58 41.24 7.86L39.62 7.64L39.24 7.72H35.94C36.06 7.22 36.18 6.72 36.28 6.28L34.06 6.06C33.66 8.12 32.96 10.78 32.44 12.44H38.14L37.94 13.34H31.6V15.42H35.94V18.38C34.2 19.64 32.44 20.86 31.26 21.62L31.22 21.02L28.96 21.38V16.54H31.28V14.52H28.96V13.06H30.36V11.16C30.62 11.44 30.84 11.72 31.02 11.94L32.36 10.36C31.66 9.58 30.28 8.28 29.16 7.24C29.26 7.04 29.36 6.84 29.46 6.64L27.68 5.98C26.82 7.78 25.38 9.5 23.98 10.62C24.24 11.18 24.64 12.46 24.7 12.96C24.98 12.72 25.28 12.46 25.56 12.18V13.06H27.04V14.52H24.38V16.54H27.04V21.66C25.94 21.8 24.9 21.94 24.08 22.06L24.56 24.2C26.48 23.82 28.98 23.36 31.34 22.88L31.26 21.76L32.48 23.44C33.54 22.62 34.74 21.66 35.94 20.66V22.48C35.94 22.68 35.88 22.74 35.64 22.74C35.44 22.74 34.74 22.74 34.08 22.72C34.38 23.3 34.66 24.16 34.72 24.74C35.86 24.76 36.72 24.7 37.32 24.38C37.98 24.04 38.14 23.5 38.14 22.5V20.56C39.44 21.6 40.78 22.66 41.52 23.42L42.94 21.86ZM24.36 17.48C24.64 18.56 24.92 20 25.02 20.94L26.64 20.48C26.52 19.58 26.2 18.16 25.9 17.08L24.36 17.48ZM30.66 20.66C30.94 19.84 31.28 18.48 31.6 17.34L30.08 16.96C29.96 17.96 29.68 19.4 29.44 20.34L30.66 20.66ZM31.74 16.6C32.46 17.4 33.4 18.5 33.84 19.2L35.54 18.04C35.08 17.34 34.12 16.32 33.36 15.58L31.74 16.6ZM57.7 17.56V18.88H49.4V17.56H57.7ZM49.4 22.12V20.68H57.7V22.12H49.4ZM47.02 24.78H49.4V24.08H57.7V24.76H60.2V15.58H47.02V24.78ZM56.54 9.78C56.32 10.56 55.96 11.5 55.64 12.24H51.52C51.38 11.52 50.98 10.54 50.5 9.78H56.54ZM58.24 12.24C58.56 11.62 58.9 10.92 59.24 10.18L57.4 9.78H61.54V7.68H55.1C54.9 7.08 54.6 6.4 54.26 5.84L51.78 6.24C52 6.66 52.24 7.18 52.4 7.68H45.66V9.78H50.06L48.12 10.16C48.44 10.78 48.74 11.56 48.92 12.24H44.54V14.36H62.48V12.24H58.24ZM74.62 15.62H76.72L76.32 15.94C76.58 16.04 76.86 16.18 77.14 16.3L74.62 16.32V15.62ZM68.76 14.16V13.4H72.3V14.16H68.76ZM68.76 11.3H72.3V12.04H68.76V11.3ZM78.34 11.3V12.04H74.62V11.3H78.34ZM74.62 14.16V13.4H78.34V14.16H74.62ZM82.6 18.62H78.14V17.82L79.6 17.78C79.92 18 80.2 18.24 80.44 18.44L81.9 17.22C81.26 16.74 80.32 16.14 79.32 15.62H80.66V9.86H74.62V9.14H81.92V7.34H74.62V6.08H72.3V7.34H64.96V9.14H72.3V9.86H66.54V15.62H72.3V16.34C69.6 16.34 67.14 16.36 65.26 16.34L65.32 18.04C68.12 18.02 71.9 17.96 75.84 17.88V18.62H64.42V20.5H68.42L67.58 21.2C68.66 21.94 70 23.08 70.58 23.86L72.34 22.34C71.88 21.8 71.04 21.1 70.2 20.5H75.84V22.36C75.84 22.62 75.74 22.68 75.42 22.7C75.1 22.7 73.96 22.7 73 22.66C73.28 23.26 73.58 24.1 73.68 24.74C75.2 24.74 76.32 24.72 77.12 24.42C77.94 24.1 78.14 23.54 78.14 22.44V20.5H82.6V18.62ZM94.9 16.66V14.2H99.12V16.66H94.9ZM88.68 16.66C88.72 15.92 88.74 15.2 88.74 14.56V14.2H92.5V16.66H88.68ZM92.5 9.66V11.98H88.74V9.66H92.5ZM99.12 11.98H94.9V9.66H99.12V11.98ZM101.48 7.4H86.38V14.54C86.38 17.34 86.2 20.9 84.02 23.3C84.56 23.58 85.52 24.4 85.9 24.84C87.34 23.28 88.06 21.08 88.42 18.9H92.5V24.48H94.9V18.9H99.12V21.9C99.12 22.26 98.98 22.38 98.6 22.38C98.24 22.38 96.92 22.4 95.8 22.34C96.1 22.96 96.48 23.98 96.56 24.62C98.36 24.64 99.58 24.6 100.4 24.2C101.2 23.84 101.48 23.2 101.48 21.92V7.4ZM108.92 19.44H110.42V22.16H108.92V19.44ZM114.18 19.44V22.16H112.6V19.44H114.18ZM117.88 19.44V22.16H116.34V19.44H117.88ZM120.22 17.6H106.7V22.16H104.38V24.2H122.62V22.16H120.22V17.6ZM122.26 13.86H115.36V16H122.26V13.86ZM111.4 12.14H107.04V11.08H111.4V12.14ZM108.74 14.84H107.04V13.66H108.74V14.84ZM108.74 8.52V9.56H107.04V8.52H108.74ZM117.38 8.88C117.66 8.1 117.88 7.32 118.08 6.5L115.88 6.06C115.4 8.28 114.52 10.46 113.34 11.86V9.56H110.64V8.52H113.9V6.72H104.9V16.64H114.02V14.84H110.64V13.66H113.34V11.98C113.86 12.32 114.74 12.94 115.1 13.28C115.64 12.64 116.14 11.8 116.58 10.88H122.62V8.88H117.38ZM139.3 12.06H140.42V13.72H139.3V12.06ZM137.96 13.72H136.88V12.06H137.96V13.72ZM135.56 13.72H134.5V12.06H135.56V13.72ZM132.76 10.38V15.42H142.24V10.38H138.12C138.18 10.08 138.22 9.74 138.28 9.4H142.54V7.54H138.54L138.7 6.32L136.64 6.18C136.6 6.6 136.56 7.06 136.5 7.54H132.52V9.4H136.24C136.2 9.74 136.14 10.08 136.08 10.38H132.76ZM128.46 16.76C127.38 17 125.72 17.16 124.38 17.24C124.54 17.64 124.72 18.18 124.78 18.54C125.12 18.56 125.52 18.54 125.94 18.54V19.5H124.82V20.96H125.94V21.96C125.32 22 124.76 22.04 124.26 22.08L124.42 23.78C125.8 23.64 127.42 23.46 129.06 23.26L129.04 21.68L127.68 21.82V20.96H128.72V19.5H127.68V18.4C128.22 18.36 128.74 18.28 129.2 18.18L128.46 16.76ZM127.46 14.54V13.44H129.42V14.44L127.46 14.54ZM129.42 8.72V9.64H127.46V8.72H129.42ZM127.46 11.08H129.42V12H127.46V11.08ZM143.08 22.9C142.82 21.8 141.98 20.22 140.98 19.08L139.38 19.8C139.86 20.38 140.3 21.06 140.62 21.76C140.12 21.62 139.42 21.34 139.1 21.08C139.04 22.48 138.94 22.68 138.48 22.68H136.98C136.44 22.68 136.38 22.62 136.38 22.14V19.76C136.94 20.46 137.46 21.22 137.74 21.78L139.32 20.86C138.94 20.12 138.1 19.02 137.24 18.22H142.8V16.22H132.22V18.22H136.8L135.58 18.84C135.76 19.02 135.94 19.24 136.14 19.46H134.4V20.1L132.92 19.46C132.64 20.52 132.12 21.78 131.58 22.64V8.72H132.42V6.84H124.38V8.72H125.34V14.64L124.34 14.68L124.52 16.54C125.94 16.44 127.66 16.34 129.42 16.18V24.72H131.58V22.94L133 23.9C133.6 22.92 134.06 21.54 134.4 20.42V22.18C134.4 23.88 134.8 24.44 136.7 24.44H138.72C140.04 24.44 140.58 23.94 140.82 22.06C141.08 22.64 141.28 23.2 141.36 23.66L143.08 22.9ZM150.14 19.6V17.42H156.62V19.6H150.14ZM156.62 9.2V11.12H150.14V9.2H156.62ZM150.14 13.28H156.62V15.26H150.14V13.28ZM162.6 19.6H159.12V9.2H162.28V6.88H144.76V9.2H147.62V19.6H144.46V21.98H156.62V24.74H159.12V21.98H162.6V19.6ZM170.04 15.8C169.78 15.32 168.64 13.48 168.2 12.86V11.98H169.54V9.78H168.2V6.06H166.16V9.78H164.4V11.98H166.04C165.6 14.24 164.8 16.82 163.88 18.24C164.18 18.86 164.62 19.92 164.8 20.6C165.3 19.68 165.76 18.42 166.16 17.02V24.74H168.2V15.44C168.54 16.16 168.86 16.9 169.02 17.38L170.04 15.8ZM179.64 18.16C179.32 18.78 178.92 19.36 178.46 19.9C178.26 19.38 178.08 18.82 177.92 18.16H179.64ZM180.08 18.16H182.4V16.34H180.8L181.32 15.86C180.98 15.52 180.34 15.04 179.8 14.64C180.14 14.58 180.56 14.52 181.06 14.44C181.14 14.74 181.2 15.02 181.24 15.26L182.66 14.76C182.5 14.04 182.08 12.8 181.74 11.86L180.38 12.24C180.48 12.5 180.56 12.8 180.66 13.08L179.56 13.2C180.5 12 181.48 10.46 182.22 8.96L180.5 8.4C180.34 8.8 180.16 9.24 179.98 9.64L179.08 9.7C179.66 8.8 180.24 7.7 180.64 6.62L178.94 6.16C178.6 7.48 177.94 8.84 177.74 9.18C177.52 9.54 177.3 9.8 177.04 9.86C177.24 10.32 177.5 11.1 177.62 11.46C177.82 11.36 178.14 11.26 179.18 11.12C178.8 11.8 178.44 12.34 178.26 12.54C177.9 13.04 177.6 13.36 177.28 13.46C177.46 13.9 177.74 14.76 177.82 15.1C178 15 178.3 14.9 179.24 14.74L178.34 15.48C178.66 15.74 179.04 16.04 179.38 16.34H177.54C177.04 13.62 176.78 10.14 176.7 6.22H174.74C174.78 7.26 174.82 8.3 174.86 9.26L173.2 8.7C173.04 9.12 172.84 9.54 172.64 9.94L171.74 10.02C172.36 9.06 173 7.84 173.46 6.68L171.76 6.24C171.38 7.64 170.64 9.08 170.42 9.44C170.2 9.84 169.96 10.08 169.7 10.16C169.88 10.6 170.16 11.4 170.26 11.76C170.46 11.66 170.8 11.56 171.86 11.42C171.44 12.12 171.08 12.66 170.9 12.88C170.56 13.36 170.24 13.68 169.9 13.76C170.1 14.2 170.36 15.06 170.46 15.38C170.74 15.26 171.2 15.12 173.6 14.76C173.66 15.02 173.7 15.26 173.72 15.44L175.2 15C175.06 14.26 174.72 13.06 174.4 12.12L173.02 12.48C173.1 12.76 173.18 13.08 173.28 13.38L172.16 13.5C173.12 12.32 174.1 10.82 174.88 9.34C175.02 11.94 175.22 14.3 175.56 16.34H169.98V18.16H171.16C171.1 19.76 170.56 21.8 168.44 23.36C168.88 23.6 169.72 24.34 170.02 24.72C171.46 23.58 172.28 22.14 172.74 20.72C173.32 21.24 173.9 21.76 174.24 22.16L175.68 20.76C175.1 20.18 173.96 19.26 173.14 18.6C173.16 18.46 173.16 18.3 173.18 18.16H175.9C176.18 19.38 176.5 20.44 176.92 21.36C175.92 22.1 174.76 22.72 173.48 23.16C173.88 23.54 174.44 24.26 174.7 24.68C175.84 24.24 176.92 23.68 177.86 23.02C178.64 24.02 179.62 24.62 180.8 24.72C181.66 24.78 182.46 24.08 182.98 21.6C182.6 21.38 181.82 20.8 181.48 20.34C181.34 21.74 181.1 22.46 180.72 22.42C180.26 22.36 179.86 22.12 179.48 21.7C180.36 20.84 181.1 19.86 181.68 18.76L180.08 18.16Z" fill="#00FF63"/>
<path d="M28.806 46.242C28.134 47.194 27.196 48.244 26.328 49C26.51 49.084 26.776 49.28 26.916 49.378C27.714 48.608 28.694 47.46 29.436 46.466L28.806 46.242ZM28.302 43.246H34.742V44.8H28.302V43.246ZM28.302 41.16H34.742V42.686H28.302V41.16ZM35.428 45.374V40.572H31.242C31.452 40.152 31.662 39.676 31.872 39.242L31.13 39.088C30.99 39.508 30.766 40.11 30.542 40.572H27.644V45.374H31.172V49.168C31.172 49.336 31.116 49.406 30.878 49.42C30.668 49.434 29.926 49.434 28.988 49.406C29.072 49.588 29.184 49.826 29.226 50.008C30.36 50.008 31.018 50.008 31.382 49.896C31.718 49.784 31.83 49.588 31.83 49.154V45.374H35.428ZM33.314 46.578C34.21 47.474 35.344 48.72 35.918 49.462L36.478 49.07C35.89 48.37 34.742 47.166 33.846 46.298L33.314 46.578ZM36.618 38.22H25.516V42.112C25.516 44.254 25.39 47.236 24.116 49.392C24.284 49.462 24.55 49.644 24.676 49.756C25.992 47.516 26.174 44.324 26.174 42.112V38.85H36.618V38.22ZM47.118 39.634H45.214V38.668H47.118V39.634ZM49.638 40.152V41.72H47.72V40.152H49.638ZM45.214 40.152H47.118V41.72H45.214V40.152ZM42.764 40.152H44.612V41.72H42.764V40.152ZM44.612 39.634H42.134V42.252H50.282V39.634H47.72V38.668H50.702V38.094H41.756V38.668H44.612V39.634ZM43.114 46.494H49.442V47.474H43.114V46.494ZM43.114 45.01H49.442V45.976H43.114V45.01ZM43.114 43.54H49.442V44.492H43.114V43.54ZM50.1 47.992V43.022H42.484V47.992H50.1ZM40.958 37.436C40.244 39.662 39.096 41.874 37.822 43.316C37.948 43.47 38.144 43.792 38.214 43.946C38.788 43.274 39.32 42.476 39.824 41.608V50.022H40.468V40.376C40.888 39.48 41.28 38.542 41.588 37.59L40.958 37.436ZM44.682 48.23C43.982 48.72 42.596 49.266 41.378 49.588C41.518 49.7 41.686 49.91 41.784 50.036C43.03 49.714 44.388 49.168 45.2 48.566L44.682 48.23ZM47.118 48.636C48.35 49.07 49.61 49.616 50.338 50.05L50.926 49.63C50.114 49.196 48.784 48.65 47.566 48.244L47.118 48.636ZM61.874 40.054C61.132 39.382 60.292 38.78 58.92 38.668V36.96H58.262V38.654C56.554 38.738 55.266 39.704 55.266 41.16C55.266 44.31 61.3 43.68 61.3 46.438C61.3 47.614 60.362 48.3 58.556 48.3C57.212 48.3 55.994 47.712 55.196 46.984L54.762 47.558C55.546 48.342 56.918 48.944 58.262 49.014V50.722H58.92V49.014C60.81 48.916 62.126 47.978 62.126 46.382C62.126 42.952 56.092 43.554 56.092 41.104C56.092 40.04 57.072 39.354 58.486 39.354C59.83 39.354 60.628 39.9 61.398 40.572L61.874 40.054ZM66.788 49H72.052V48.286H69.924V38.794H69.266C68.776 39.074 68.146 39.298 67.32 39.438V39.984H69.098V48.286H66.788V49ZM73.9722 51.464C74.9662 50.96 75.6522 50.022 75.6522 48.86C75.6522 48.118 75.3162 47.656 74.8122 47.656C74.4342 47.656 74.0702 47.908 74.0702 48.356C74.0702 48.818 74.4062 49.07 74.7982 49.07C74.8542 49.07 74.9102 49.07 74.9662 49.056C74.9522 49.91 74.4622 50.554 73.7342 50.932L73.9722 51.464ZM80.2862 49.182C82.1062 49.182 83.3382 48.034 83.3382 46.592C83.3382 45.192 82.4702 44.45 81.6022 43.932V43.862C82.1762 43.4 83.0022 42.434 83.0022 41.328C83.0022 39.788 81.9942 38.654 80.3002 38.654C78.8162 38.654 77.6682 39.69 77.6682 41.174C77.6682 42.252 78.3402 43.008 79.0682 43.498V43.554C78.1302 44.072 77.1222 45.066 77.1222 46.466C77.1222 48.02 78.4522 49.182 80.2862 49.182ZM81.0002 43.638C79.7262 43.134 78.4522 42.56 78.4522 41.174C78.4522 40.096 79.2222 39.312 80.2862 39.312C81.5322 39.312 82.2462 40.25 82.2462 41.356C82.2462 42.196 81.8122 42.966 81.0002 43.638ZM80.2862 48.524C78.9002 48.524 77.8922 47.614 77.8922 46.424C77.8922 45.318 78.5922 44.436 79.5582 43.862C81.0982 44.464 82.5262 45.024 82.5262 46.578C82.5262 47.67 81.6442 48.524 80.2862 48.524ZM87.7364 49.182C89.5844 49.182 90.7324 47.446 90.7324 43.862C90.7324 40.32 89.5844 38.612 87.7364 38.612C85.8744 38.612 84.7264 40.32 84.7264 43.862C84.7264 47.446 85.8744 49.182 87.7364 49.182ZM87.7364 48.496C86.4064 48.496 85.5384 46.956 85.5384 43.862C85.5384 40.824 86.4064 39.298 87.7364 39.298C89.0524 39.298 89.9204 40.824 89.9204 43.862C89.9204 46.956 89.0524 48.496 87.7364 48.496ZM95.2286 49.182C97.0766 49.182 98.2246 47.446 98.2246 43.862C98.2246 40.32 97.0766 38.612 95.2286 38.612C93.3666 38.612 92.2186 40.32 92.2186 43.862C92.2186 47.446 93.3666 49.182 95.2286 49.182ZM95.2286 48.496C93.8986 48.496 93.0306 46.956 93.0306 43.862C93.0306 40.824 93.8986 39.298 95.2286 39.298C96.5446 39.298 97.4126 40.824 97.4126 43.862C97.4126 46.956 96.5446 48.496 95.2286 48.496Z" fill="white"/>
<line x1="65.5" y1="43.5" x2="103.5" y2="43.5" stroke="white"/>
<path d="M38.716 77.504C38.444 76.8 37.756 75.744 37.084 74.96L36.508 75.232C37.164 76.032 37.836 77.136 38.092 77.856L38.716 77.504ZM29.724 77.824C29.148 77.152 28.236 76.288 27.34 75.568C27.468 75.328 27.58 75.088 27.676 74.864L27.068 74.592C26.396 76.208 25.228 77.712 24.092 78.688C24.204 78.88 24.412 79.28 24.46 79.44C25.356 78.608 26.3 77.44 27.02 76.16C27.868 76.896 28.764 77.792 29.356 78.464L29.724 77.824ZM29.308 86.624C28.652 86.784 27.98 86.96 27.34 87.12V82.256H29.276V81.568H27.34V79.456H28.844V78.768H25.18V79.456H26.7V81.568H24.412V82.256H26.7V87.28C25.756 87.52 24.924 87.728 24.268 87.872L24.46 88.592C25.756 88.24 27.612 87.76 29.356 87.28L29.308 86.624ZM24.78 83.408C25.052 84.384 25.292 85.664 25.356 86.496L25.948 86.32C25.868 85.488 25.612 84.224 25.324 83.264L24.78 83.408ZM28.3 86.368C28.572 85.568 28.876 84.32 29.164 83.312L28.556 83.056C28.396 83.968 28.06 85.312 27.804 86.128L28.3 86.368ZM34.62 86.8L32.508 87.168V86.064H34.396V85.44H32.508V84.224C33.308 84.144 34.044 84.016 34.62 83.856L34.044 83.376C33.02 83.648 31.068 83.84 29.436 83.936C29.532 84.096 29.612 84.304 29.644 84.464C30.332 84.432 31.1 84.384 31.82 84.304V85.44H29.772V86.064H31.82V87.264C30.876 87.424 29.996 87.568 29.308 87.68L29.42 88.336C30.844 88.08 32.764 87.744 34.652 87.392L34.62 86.8ZM33.772 82.368H30.54V80.688H33.772V82.368ZM34.428 80.096H29.884V82.976H34.428V80.096ZM37.612 80.864C37.292 82.352 36.86 83.696 36.284 84.928C36.076 83.488 35.9 81.6 35.804 79.216H38.748V78.544H35.804C35.756 77.36 35.74 76.08 35.74 74.672H35.004C35.02 76.064 35.068 77.344 35.116 78.544H32.54V76.896H34.46V76.224H32.54V74.672H31.82V76.224H29.836V76.896H31.82V78.544H29.212V79.216H35.116C35.26 82.064 35.468 84.288 35.772 85.888C35.132 87.008 34.364 87.968 33.436 88.72C33.612 88.848 33.884 89.104 33.996 89.248C34.748 88.576 35.436 87.776 36.012 86.88C36.412 88.352 36.956 89.088 37.676 89.088C38.444 89.072 38.748 88.656 38.876 86.4C38.7 86.336 38.46 86.192 38.284 86.032C38.204 87.872 38.028 88.352 37.74 88.352C37.26 88.352 36.844 87.616 36.492 86.048C37.276 84.592 37.884 82.896 38.316 80.976L37.612 80.864ZM43.132 76.24V77.008H55.132V76.24H43.132ZM44.092 81.488V82.256H53.884V81.488H44.092ZM42.188 87.12V87.888H56.012V87.12H42.188ZM67.372 84.896V82.24H71.708V84.896H67.372ZM66.636 82.24V84.896H62.364C62.556 83.968 62.604 83.056 62.604 82.24H66.636ZM68.588 76.336C68.236 77.008 67.74 77.76 67.26 78.32H62.636C63.244 77.664 63.788 76.992 64.268 76.336H68.588ZM62.604 79.024H66.636V81.552H62.604V79.024ZM71.708 81.552H67.372V79.024H71.708V81.552ZM72.46 78.32H68.108C68.684 77.632 69.276 76.752 69.676 75.936L69.164 75.6L69.02 75.648H64.732C64.908 75.36 65.084 75.072 65.244 74.8L64.396 74.656C63.548 76.256 61.948 78.32 59.74 79.824C59.932 79.936 60.172 80.176 60.3 80.352C60.86 79.952 61.372 79.536 61.852 79.088V82.208C61.852 84.288 61.58 86.832 59.324 88.672C59.484 88.784 59.756 89.056 59.868 89.232C61.116 88.192 61.82 86.912 62.188 85.6H71.708V88.016C71.708 88.32 71.596 88.416 71.244 88.432C70.908 88.448 69.692 88.464 68.3 88.416C68.412 88.64 68.556 88.976 68.604 89.184C70.236 89.184 71.244 89.184 71.772 89.056C72.284 88.928 72.46 88.64 72.46 88.016V78.32ZM78.972 83.312L79.692 81.2C80.156 79.84 80.556 78.608 80.956 77.2H81.02C81.436 78.608 81.82 79.84 82.3 81.2L83.004 83.312H78.972ZM84.556 88H85.58L81.5 76.336H80.508L76.428 88H77.388L78.716 84.08H83.26L84.556 88ZM90.6541 88H91.6301V77.152H95.3101V76.336H86.9901V77.152H90.6541V88ZM99.1179 88H100.078V82.224H106.142V88H107.086V76.336H106.142V81.392H100.078V76.336H99.1179V88ZM111.101 83.968H115.037V83.184H111.101V83.968ZM119.005 88H119.885V80.608C119.885 79.648 119.821 78.368 119.773 77.392H119.837L120.749 80L123.213 86.752H123.981L126.429 80L127.341 77.392H127.405C127.357 78.368 127.293 79.648 127.293 80.608V88H128.205V76.336H126.925L124.525 83.04C124.237 83.888 123.965 84.752 123.661 85.6H123.597L122.685 83.04L120.285 76.336H119.005V88ZM132.223 88H139.247V87.168H135.615C135.007 87.168 134.335 87.216 133.695 87.264C136.799 84.368 138.687 81.92 138.687 79.472C138.687 77.456 137.487 76.128 135.455 76.128C134.047 76.128 133.055 76.832 132.175 77.808L132.767 78.368C133.439 77.536 134.351 76.912 135.359 76.912C137.007 76.912 137.743 78.048 137.743 79.504C137.743 81.616 136.175 84.016 132.223 87.424V88ZM145.954 88.208C148.066 88.208 149.378 86.224 149.378 82.128C149.378 78.08 148.066 76.128 145.954 76.128C143.826 76.128 142.514 78.08 142.514 82.128C142.514 86.224 143.826 88.208 145.954 88.208ZM145.954 87.424C144.434 87.424 143.442 85.664 143.442 82.128C143.442 78.656 144.434 76.912 145.954 76.912C147.458 76.912 148.45 78.656 148.45 82.128C148.45 85.664 147.458 87.424 145.954 87.424ZM152.068 88H153.06L154.436 85.744C154.772 85.216 155.076 84.688 155.396 84.192H155.476C155.828 84.688 156.164 85.216 156.452 85.744L157.908 88H158.948L156.068 83.632L158.708 79.472H157.732L156.468 81.568C156.18 82.048 155.908 82.512 155.62 82.976H155.556C155.236 82.512 154.932 82.048 154.644 81.568L153.332 79.472H152.308L154.948 83.536L152.068 88ZM36.3 99.4V100.6H31.852V99.4H36.3ZM36.3 102.408H31.852V101.192H36.3V102.408ZM31.852 103.016H34.3L33.932 103.4C34.444 103.544 34.972 103.752 35.5 103.992C34.268 104.008 33.052 104.04 31.852 104.056V103.016ZM26.732 102.408V101.192H31.1V102.408H26.732ZM26.732 99.4H31.1V100.6H26.732V99.4ZM31.1 98.808H25.996V103.016H31.1V104.072C28.716 104.104 26.54 104.136 24.908 104.136L24.94 104.808C27.932 104.776 32.38 104.664 36.62 104.552C37.02 104.776 37.372 105.016 37.644 105.224L38.092 104.712C37.324 104.136 35.852 103.416 34.572 103.016H37.052V98.808H31.852V97.688H38.012V97.032H31.852V95.704H31.1V97.032H24.78V97.688H31.1V98.808ZM26.844 107.224C27.852 107.816 29.02 108.68 29.596 109.304L30.156 108.76C29.548 108.152 28.364 107.304 27.372 106.76L26.844 107.224ZM38.716 105.816H34.748V104.712H33.996V105.816H24.3V106.488H33.996V109.208C33.996 109.4 33.932 109.48 33.66 109.496C33.42 109.512 32.54 109.512 31.436 109.48C31.548 109.688 31.676 109.976 31.724 110.152C33.036 110.152 33.804 110.168 34.22 110.04C34.636 109.928 34.748 109.688 34.748 109.224V106.488H38.716V105.816ZM45.772 98.312C45.516 97.656 44.908 96.632 44.316 95.896L43.66 96.12C44.236 96.888 44.844 97.928 45.084 98.584L45.772 98.312ZM47.052 107.24C45.964 107.992 43.788 108.664 42.092 108.968C42.268 109.096 42.492 109.368 42.604 109.56C44.284 109.192 46.508 108.392 47.66 107.544L47.052 107.24ZM50.7 107.656C52.348 108.2 54.508 109 55.628 109.528L56.028 108.952C54.876 108.44 52.732 107.672 51.1 107.176L50.7 107.656ZM53.964 95.912C53.66 96.664 53.068 97.736 52.62 98.424L53.244 98.664C53.724 98.008 54.284 97.016 54.732 96.152L53.964 95.912ZM55.98 98.664H50.988V95.656H50.252V98.664H47.916V95.656H47.18V98.664H42.268V99.336H55.98V98.664ZM49.452 105.576V104.104H54.62V103.448H49.452V102.008H55.404V101.352H51.468C51.82 100.872 52.252 100.2 52.604 99.56L51.852 99.336C51.612 99.864 51.164 100.68 50.812 101.176L51.356 101.352H46.876L47.42 101.176C47.26 100.68 46.844 99.912 46.428 99.352L45.74 99.544C46.124 100.104 46.524 100.84 46.684 101.352H42.908V102.008H48.7V103.448H43.708V104.104H48.7V105.576H42.188V106.264H48.7V110.184H49.452V106.264H56.044V105.576H49.452ZM72.828 95.72H72.092V103.048C72.092 103.272 72.028 103.336 71.772 103.336C71.516 103.368 70.732 103.368 69.708 103.336C69.836 103.56 69.948 103.864 69.98 104.072C71.132 104.072 71.884 104.072 72.3 103.944C72.7 103.816 72.828 103.592 72.828 103.048V95.72ZM69.804 96.584H69.084V101.88H69.804V96.584ZM62.796 99.336V97.08H65.148V99.576H62.796V99.336ZM65.148 100.28V103.928H65.884V100.28H67.9V99.576H65.884V97.08H67.58V96.36H60.428V97.08H62.076V99.32V99.576H59.916V100.28H62.028C61.868 101.496 61.372 102.76 59.9 103.768C60.06 103.88 60.3 104.152 60.412 104.328C62.028 103.192 62.588 101.672 62.748 100.28H65.148ZM67.228 108.856V106.408H72.204V105.672H67.228V103.576H66.46V105.672H61.18V106.408H66.46V108.856H59.484V109.592H73.916V108.856H67.228ZM91.516 98.712V98.008H86.684C86.94 97.32 87.164 96.584 87.34 95.848L86.604 95.688C86.172 97.64 85.388 99.48 84.348 100.728C84.54 100.824 84.86 101.064 84.972 101.176C85.516 100.504 85.996 99.656 86.412 98.712H91.516ZM91.18 102.936V102.216H85.884V102.936H91.18ZM78.46 101.432H80.7V103.16H78.46V101.432ZM80.7 97.016V98.456H78.46V97.016H80.7ZM83.164 100.808H78.46V99.08H83.164V100.808ZM84.556 103.16H81.388V101.432H83.852V98.456H81.388V97.016H84.204V96.36H77.74V103.784H84.556V103.16ZM79.772 105.56H82.284V109H79.772V105.56ZM85.548 105.56V109H83.02V105.56H85.548ZM88.828 105.56V109H86.268V105.56H88.828ZM89.58 109V104.888H79.036V109H77.084V109.704H91.548V109H89.58ZM109.052 103.992H100.684V104.696H109.052V103.992ZM103.5 105.304C104.188 105.992 104.956 107.032 105.276 107.736L105.868 107.4C105.564 106.744 104.796 105.752 104.044 105.064L103.5 105.304ZM105.58 102.232H104.012V99.88H105.58V102.232ZM106.156 99.88H107.772V102.232H106.156V99.88ZM103.436 102.232H101.932V99.88H103.436V102.232ZM100.892 97.208V97.88H104.188C104.108 98.376 104.012 98.824 103.932 99.24H101.292V102.872H108.444V99.24H104.588C104.684 98.824 104.764 98.376 104.844 97.88H108.828V97.208H104.956C105.052 96.712 105.132 96.2 105.196 95.752L104.524 95.688C104.46 96.152 104.396 96.68 104.3 97.208H100.892ZM97.276 106.984H98.62V106.376H97.276V104.904C97.852 104.84 98.412 104.776 98.876 104.68L98.444 104.136C97.612 104.296 96.172 104.456 94.972 104.536C95.052 104.696 95.148 104.904 95.18 105.048C95.628 105.048 96.14 105.016 96.62 104.968V106.376H95.18V106.984H96.62V108.504C95.916 108.6 95.276 108.68 94.732 108.76L94.86 109.416C95.996 109.24 97.436 109.016 98.892 108.792L98.876 108.168C98.316 108.248 97.788 108.328 97.276 108.408V106.984ZM99.26 98.552H96.524V97.08H99.26V98.552ZM96.524 101.208H99.26V102.6C98.3 102.68 97.372 102.76 96.524 102.824V101.208ZM99.26 100.6H96.524V99.16H99.26V100.6ZM101.004 97.08V96.408H94.7V97.08H95.804V102.856L94.668 102.936L94.764 103.624C95.996 103.528 97.612 103.4 99.26 103.24V110.184H99.98V97.08H101.004ZM100.828 109.416C101.42 108.616 101.884 107.368 102.22 106.44L101.628 106.2C101.356 107.096 100.844 108.344 100.268 109.064L100.828 109.416ZM104.124 109.24C103.532 109.24 103.452 109.176 103.452 108.872V106.28H102.748V108.872C102.748 109.704 103.036 109.896 104.076 109.896H106.268C107.148 109.896 107.372 109.544 107.436 107.944C107.244 107.896 106.972 107.8 106.796 107.656C106.748 109.08 106.668 109.24 106.188 109.24H104.124ZM106.764 106.12C107.596 107.032 108.364 108.296 108.636 109.176L109.26 108.872C108.956 108.024 108.188 106.76 107.324 105.864L106.764 106.12ZM115.964 107.272V104.36H123.02V107.272H115.964ZM123.02 97.56V100.2H115.964V97.56H123.02ZM115.964 100.92H123.02V103.64H115.964V100.92ZM126.668 107.272H123.804V97.56H126.284V96.808H112.732V97.56H115.196V107.272H112.412V108.024H123.02V110.152H123.804V108.024H126.668V107.272ZM144.092 102.376C143.932 101.768 143.516 100.744 143.116 99.976L142.588 100.12C142.764 100.472 142.924 100.872 143.084 101.272L141.052 101.544C141.9 100.536 142.764 99.192 143.5 97.848L142.86 97.576C142.668 97.96 142.46 98.376 142.252 98.744L140.78 98.92C141.308 98.168 141.82 97.192 142.252 96.2L141.628 95.976C141.26 97.08 140.556 98.28 140.364 98.568C140.156 98.856 139.996 99.064 139.804 99.096C139.884 99.256 139.98 99.608 140.012 99.752C140.172 99.672 140.46 99.576 141.852 99.384C141.388 100.136 140.94 100.76 140.748 100.968C140.444 101.384 140.188 101.656 139.948 101.688C140.028 101.88 140.14 102.248 140.188 102.408C140.396 102.28 140.732 102.216 143.292 101.848C143.388 102.136 143.468 102.408 143.516 102.616L144.092 102.376ZM138.428 102.712C138.268 102.104 137.884 101.08 137.484 100.296L136.94 100.456C137.116 100.824 137.292 101.224 137.436 101.64L135.452 101.88C136.332 100.888 137.212 99.592 138.012 98.248L137.404 97.976C137.228 98.36 137.004 98.728 136.78 99.112L135.228 99.272C135.836 98.44 136.444 97.352 136.972 96.232L136.348 95.992C135.884 97.24 135.068 98.536 134.828 98.872C134.604 99.192 134.412 99.416 134.22 99.448C134.284 99.624 134.396 99.976 134.428 100.12C134.572 100.024 134.86 99.96 136.38 99.736C135.868 100.52 135.356 101.144 135.18 101.368C134.86 101.752 134.572 102.04 134.348 102.072C134.444 102.248 134.508 102.616 134.54 102.744C134.748 102.616 135.116 102.568 137.628 102.2C137.724 102.472 137.804 102.728 137.852 102.936L138.428 102.712ZM133.932 103.304C133.724 102.904 132.908 101.4 132.524 100.808V99.544H133.916V98.808H132.524V95.672H131.82V98.808H129.98V99.544H131.74C131.34 101.832 130.492 104.52 129.676 105.912C129.82 106.104 129.996 106.44 130.092 106.664C130.732 105.56 131.372 103.64 131.82 101.736V110.152H132.524V101.88C132.892 102.616 133.324 103.512 133.5 103.944L133.932 103.304ZM140.796 102.696C141.452 103.064 142.22 103.576 142.604 103.944L143.02 103.464C142.62 103.112 141.836 102.616 141.212 102.296L140.796 102.696ZM142.46 104.952C142.076 105.8 141.468 106.584 140.748 107.272C140.428 106.552 140.14 105.64 139.9 104.6H143.964V103.944H139.772C139.356 101.72 139.132 98.92 139.052 95.784H138.364C138.476 98.856 138.668 101.656 139.084 103.944H134.236V104.6H135.612V105.144C135.612 106.52 135.164 108.328 133.276 109.688C133.436 109.784 133.676 110.04 133.788 110.2C135.388 109 136.028 107.464 136.236 106.12C136.956 106.712 137.692 107.416 138.108 107.896L138.62 107.4C138.108 106.856 137.132 105.992 136.3 105.352V105.176V104.6H139.212C139.468 105.832 139.772 106.904 140.204 107.752C139.308 108.488 138.236 109.096 137.068 109.576C137.228 109.704 137.404 109.912 137.516 110.056C138.62 109.608 139.628 109.016 140.492 108.344C141.18 109.448 142.028 110.104 143.148 110.168C143.756 110.2 144.14 109.608 144.412 107.976C144.236 107.928 143.996 107.752 143.836 107.608C143.692 108.792 143.468 109.416 143.116 109.384C142.284 109.32 141.612 108.792 141.068 107.88C141.948 107.096 142.668 106.2 143.164 105.192L142.46 104.952Z" fill="white"/>
<path d="M198.76 61L23 61V61.89L198.76 61.89V61Z" fill="white"/>
<rect x="202.5" y="54" width="14" height="4" transform="rotate(90 202.5 54)" fill="#00FF63"/>
</svg>
