<svg width="177" height="15" viewBox="0 0 177 15" fill="none" xmlns="http://www.w3.org/2000/svg">
<path d="M19.0531 4.95837L12.8492 4.95837V5.76741L19.0531 5.76741V4.95837Z" fill="#00FF63"/>
<path d="M130.38 14.191L49.7537 14.191V15L130.38 15V14.191Z" fill="#00FF63"/>
<path d="M107.796 10.9786H104.485V11.7876H107.796V10.9786Z" fill="#00FF63"/>
<path d="M155.882 10.9786H152.571V11.7876H155.882V10.9786Z" fill="#00FF63"/>
<path d="M53.0641 2.60263L46.4434 2.60263V4.60143L53.0641 4.60143V2.60263Z" fill="#00FF63"/>
<path d="M137 2.60263L130.38 2.60263V4.60143L137 4.60143V2.60263Z" fill="#00FF63"/>
<path d="M64.4175 6.57645H62.3577V8.57525H64.4175V6.57645Z" fill="#00FF63"/>
<path d="M8.28819 9.36053L0 9.36053L0 10.9548L8.28819 10.9548V9.36053Z" fill="#00FF63"/>
<path d="M5.19861 0.223083L9.22014 0.223083L9.22014 10.8596L16.2087 10.8596V14.2624L5.19861 14.2624L5.19861 0.223083Z" fill="#00FF63"/>
<path d="M30.3329 0.223083L41.956 0.223083V3.55448L34.2563 3.55448V5.6723L41.1958 5.6723V8.74183L34.2563 8.74183V10.9548L42.0296 10.9548V14.2624L30.3329 14.2624L30.3329 0.223083Z" fill="#00FF63"/>
<path d="M55.884 7.29039C55.8633 6.31855 56.0473 5.35287 56.4248 4.4525C56.8023 3.55212 57.3653 2.73598 58.0793 2.05423C58.7933 1.37249 59.6434 0.839421 60.5772 0.487731C61.5111 0.136041 62.5091 -0.0268125 63.5101 0.00903703C64.7043 -0.0507383 65.8944 0.186782 66.9674 0.699048C68.0403 1.21131 68.9605 1.98126 69.6404 2.93581L66.6244 5.31534C66.274 4.81305 65.8029 4.40103 65.2518 4.11497C64.7006 3.82891 64.086 3.6774 63.461 3.67346C62.982 3.69146 62.5117 3.80265 62.0778 4.00038C61.6439 4.19812 61.2553 4.47839 60.9351 4.82459C60.6149 5.17079 60.3697 5.57589 60.2139 6.01581C60.058 6.45572 59.9949 6.92146 60.0281 7.38552C59.988 7.85338 60.0461 8.32425 60.1987 8.76975C60.3514 9.21524 60.5955 9.62614 60.9164 9.97752C61.2372 10.3289 61.6282 10.6135 62.0655 10.8142C62.5029 11.0149 62.9776 11.1275 63.461 11.1452C64.111 11.1404 64.75 10.9819 65.3226 10.6834C65.8951 10.3848 66.3841 9.95519 66.7469 9.43187L69.7385 11.5259C68.8222 12.8126 67.5082 13.7833 65.9862 14.298C64.4642 14.8126 62.813 14.8445 61.2711 14.389C59.7292 13.9335 58.3764 13.0142 57.4081 11.7639C56.4398 10.5136 55.9061 8.99705 55.884 7.43315V7.29039Z" fill="#00FF63"/>
<path d="M87.3938 3.64961L83.0536 3.64961V0.223083L95.7311 0.223083V3.64961L91.3907 3.64961V14.2624L87.3938 14.2624V3.64961Z" fill="#00FF63"/>
<path d="M109.684 8.1231V0.223053L113.754 0.223053V8.02797C113.754 10.0506 114.809 11.0262 116.427 11.0262C118.046 11.0262 119.1 10.0981 119.1 8.1231V0.223053L123.171 0.223053V8.00416C123.279 8.89194 123.177 9.79196 122.873 10.6358C122.569 11.4797 122.07 12.245 121.415 12.8737C120.76 13.5024 119.966 13.978 119.093 14.2639C118.22 14.5499 117.292 14.6388 116.378 14.524C115.481 14.6337 114.569 14.5445 113.712 14.2631C112.855 13.9816 112.075 13.5153 111.431 12.8992C110.787 12.283 110.295 11.5332 109.992 10.706C109.689 9.87871 109.584 8.99558 109.684 8.1231Z" fill="#00FF63"/>
<path d="M137.932 0.22305L144.774 0.22305C145.638 0.168734 146.505 0.288726 147.319 0.57539C148.134 0.862054 148.879 1.30921 149.506 1.88875C149.939 2.31756 150.275 2.82848 150.495 3.38946C150.714 3.95045 150.812 4.54938 150.781 5.14869C150.814 6.08058 150.545 6.99894 150.013 7.77541C149.481 8.55188 148.712 9.14768 147.814 9.47945L151.247 14.3575H146.637L143.719 10.122L141.954 10.122V14.3575H137.957L137.932 0.22305ZM144.577 6.95715C145.951 6.95715 146.735 6.33847 146.735 5.31527C146.735 4.22069 145.902 3.64958 144.553 3.64958L141.929 3.64958V7.00479L144.577 6.95715Z" fill="#00FF63"/>
<path d="M165.176 0.223114L176.799 0.223114V3.55451L169.123 3.55451V5.67233L176.063 5.67233V8.74187L169.123 8.74187V10.9548L176.872 10.9548V14.2624L165.151 14.2624L165.176 0.223114Z" fill="#00FF63"/>
</svg>
