<svg width="185" height="10" viewBox="0 0 185 10" fill="none" xmlns="http://www.w3.org/2000/svg">
<path fill-rule="evenodd" clip-rule="evenodd" d="M1.02355 6.9216C0.573022 6.9216 0.207794 6.55637 0.207794 6.10584L0.207794 5.14112C0.207794 4.69059 0.573022 4.32536 1.02355 4.32536H1.77263C2.22316 4.32536 2.58839 4.69059 2.58839 5.14112V6.10584C2.58839 6.55637 2.22316 6.9216 1.77263 6.9216H1.02355ZM1.02355 5.14112H1.77263V6.10584H1.02355V5.14112ZM12.7395 9.81577C12.289 9.81577 11.9238 9.45054 11.9238 9.00001L11.9238 1.05523C11.9238 0.604695 12.289 0.239467 12.7395 0.239467L13.2957 0.239467C13.566 0.239467 13.8188 0.373407 13.9706 0.597097L16.4849 4.30143L18.9992 0.597097C19.1511 0.373407 19.4039 0.239467 19.6742 0.239467L20.2303 0.239467C20.6809 0.239467 21.0461 0.604695 21.0461 1.05523V9.00001C21.0461 9.45054 20.6809 9.81577 20.2303 9.81577H19.6402C19.1896 9.81577 18.8244 9.45054 18.8244 9.00001V4.72637L17.1686 7.13541C17.0164 7.35681 16.7649 7.48908 16.4963 7.48908H16.4509C16.1822 7.48908 15.9308 7.35681 15.7786 7.13541L14.1228 4.72637L14.1228 9.00001C14.1228 9.45054 13.7576 9.81577 13.307 9.81577H12.7395ZM16.4509 6.67333H16.4963L19.6402 2.0994V9.00001H20.2303V1.05523H19.6742L16.4849 5.754L13.2957 1.05523L12.7395 1.05523L12.7395 9.00001H13.307L13.307 2.0994L16.4509 6.67333ZM31.7067 0.239467C32.1573 0.239467 32.5225 0.604695 32.5225 1.05523V5.62915C32.5225 6.92769 32.1418 8.02532 31.3861 8.80152C30.6293 9.57895 29.587 9.94062 28.4494 9.94062C27.3235 9.94062 26.2853 9.58229 25.5274 8.82067C24.7683 8.05776 24.3763 6.97676 24.3763 5.69725V1.05523C24.3763 0.604695 24.7415 0.239467 25.192 0.239467L25.7822 0.239467C26.2327 0.239467 26.598 0.604695 26.598 1.05523V5.6405C26.598 6.43589 26.8114 6.95428 27.0981 7.26646C27.3763 7.56946 27.8126 7.77566 28.4721 7.77566C29.112 7.77566 29.5373 7.5859 29.8073 7.30173C30.0822 7.01243 30.3008 6.51492 30.3008 5.69725V1.05523C30.3008 0.604695 30.666 0.239467 31.1166 0.239467L31.7067 0.239467ZM31.1166 1.05523V5.69725C31.1166 7.61535 30.0837 8.59142 28.4721 8.59142C28.4645 8.59142 28.4569 8.5914 28.4494 8.59136C26.8002 8.58177 25.8027 7.52659 25.7825 5.69725C25.7823 5.67842 25.7822 5.6595 25.7822 5.6405V1.05523H25.192V5.69725C25.192 7.92179 26.5426 9.12486 28.4494 9.12486C28.457 9.12486 28.4645 9.12484 28.4721 9.1248C30.37 9.1154 31.6802 7.92573 31.7063 5.69725C31.7066 5.67466 31.7067 5.65196 31.7067 5.62915V1.05523L31.1166 1.05523ZM39.2661 4.70941C37.517 4.33513 37.0811 3.84268 37.0618 3.05277C37.0616 3.04523 37.0615 3.03767 37.0614 3.03007C37.0612 3.01878 37.0611 3.00743 37.0611 2.99602V2.97332C37.0611 2.1448 37.8329 1.47517 39.0019 1.47517C39.0095 1.47517 39.0171 1.47518 39.0246 1.47522C39.7918 1.47904 40.4632 1.67723 41.1238 2.17036C41.2073 2.23272 41.2907 2.29979 41.374 2.37179L41.7486 1.90645C41.5238 1.72605 41.3027 1.57124 41.0754 1.44178C40.4877 1.10699 39.8595 0.94173 39.0246 0.94173C39.0171 0.94173 39.0095 0.941753 39.0019 0.941801C37.5618 0.950912 36.5056 1.82674 36.4718 2.97332C36.4716 2.98088 36.4714 2.98845 36.4713 2.99602C36.4711 3.00735 36.471 3.0187 36.471 3.03007V3.05277C36.471 4.25584 37.2427 4.90277 39.1495 5.28866C39.1862 5.29606 39.2224 5.3035 39.258 5.311C39.2578 5.31096 39.2582 5.31104 39.258 5.311C40.9316 5.66348 41.3763 6.13463 41.396 6.92302C41.3962 6.93056 41.3964 6.93812 41.3965 6.94572C41.3966 6.957 41.3967 6.96835 41.3967 6.97977V7.00247C41.3967 7.91044 40.5795 8.58007 39.3878 8.58007C39.3764 8.58007 39.3651 8.58004 39.3538 8.57997C38.336 8.57357 37.5937 8.27943 36.837 7.65942C36.7398 7.57981 36.6424 7.49484 36.5442 7.40442C36.5425 7.40285 36.5408 7.40128 36.5391 7.39971L36.1532 7.84234C36.1953 7.87997 36.2375 7.91675 36.2797 7.95269C36.4501 8.09764 36.6217 8.22891 36.7958 8.34655C37.5554 8.85964 38.3654 9.11351 39.3538 9.11351C39.3651 9.11351 39.3765 9.11346 39.3878 9.11336C40.8797 9.10054 41.9544 8.24484 41.9862 7.00247C41.9864 6.99491 41.9865 6.98735 41.9866 6.97977C41.9868 6.96845 41.9869 6.9571 41.9869 6.94572V6.92302C41.9869 5.76535 41.2151 5.10707 39.3765 4.73253C39.3393 4.72492 39.3021 4.71712 39.2661 4.70941C39.2663 4.70946 39.2658 4.70937 39.2661 4.70941ZM39.5393 3.93318C40.5052 4.12995 41.318 4.42273 41.8967 4.91017C42.5231 5.43779 42.8027 6.13047 42.8027 6.92302V6.94572C42.8027 8.82464 41.1753 9.92927 39.3538 9.92927C37.8592 9.92927 36.6946 9.41941 35.6099 8.45085C35.2766 8.1533 35.2447 7.64304 35.5383 7.30628L35.9242 6.86364C36.0689 6.69759 36.2747 6.59715 36.4947 6.58516C36.7146 6.57317 36.9301 6.65065 37.092 6.79998C37.8419 7.49141 38.4572 7.76431 39.3878 7.76431C40.3133 7.76431 40.581 7.29546 40.581 7.00247V6.97977C40.581 6.73592 40.5329 6.66757 40.4363 6.58931C40.2626 6.44859 39.8685 6.26548 38.9885 6.08839C37.9949 5.88729 37.1617 5.59575 36.5721 5.10317C35.9297 4.56642 35.6552 3.86054 35.6552 3.05277V3.03007C35.6552 1.25937 37.2525 0.12597 39.0246 0.12597C40.3843 0.12597 41.3219 0.517783 42.2593 1.27033C42.4281 1.40588 42.5361 1.60301 42.5595 1.81827C42.5829 2.03353 42.5198 2.24926 42.384 2.41794L42.0095 2.88328C41.8708 3.05564 41.668 3.16426 41.4476 3.18422C41.2273 3.20419 41.0083 3.13379 40.8408 2.98918C40.2436 2.47338 39.685 2.29092 39.0019 2.29092C38.1033 2.29092 37.8769 2.75648 37.8769 2.97332V2.99602C37.8769 3.24359 37.9245 3.3178 38.0289 3.40316C38.2101 3.55143 38.6211 3.74506 39.5393 3.93318ZM46.7271 9.81577C46.2766 9.81577 45.9113 9.45054 45.9113 9.00001V1.05523C45.9113 0.604695 46.2766 0.239467 46.7271 0.239467L47.3173 0.239467C47.7678 0.239467 48.133 0.604695 48.133 1.05523V9.00001C48.133 9.45054 47.7678 9.81577 47.3173 9.81577H46.7271ZM47.3173 9.00001H46.7271V1.05523H47.3173V9.00001ZM60.0549 7.74841C60.0557 7.96777 59.9682 8.17823 59.812 8.33229C58.8698 9.26174 57.7673 9.95197 56.0839 9.95197C53.329 9.95197 51.3185 7.7469 51.3185 5.05032V5.02762C51.3185 2.37247 53.322 0.103271 56.1066 0.103271C57.7904 0.103271 58.8293 0.749456 59.745 1.58886C59.9076 1.73793 60.0029 1.94651 60.0092 2.16704C60.0154 2.38756 59.9321 2.60122 59.7782 2.75928L59.3583 3.19057C59.0447 3.5126 58.5297 3.52033 58.2067 3.20785C57.6088 2.62955 57.0068 2.26823 56.0953 2.26823C54.6876 2.26823 53.5629 3.40775 53.5629 5.00492V5.02762C53.5629 6.6358 54.71 7.78701 56.1066 7.78701C56.977 7.78701 57.5657 7.47834 58.2692 6.78475C58.5851 6.47326 59.0921 6.47139 59.4103 6.78053L59.8076 7.16642C59.9649 7.31927 60.0541 7.52905 60.0549 7.74841ZM59.2391 7.75155L58.8419 7.36566C58.0361 8.16014 57.2529 8.60277 56.1066 8.60277C56.0991 8.60277 56.0915 8.60275 56.0839 8.6027C54.2067 8.5903 52.7581 7.04029 52.7472 5.05032C52.7471 5.04276 52.7471 5.03519 52.7471 5.02762V5.00492C52.7471 3.00737 54.1885 1.45247 56.0953 1.45247C56.0991 1.45247 56.1028 1.45247 56.1066 1.45248C57.292 1.45564 58.0837 1.95398 58.7738 2.62148L59.1937 2.19023C59.1937 2.19024 59.1937 2.19022 59.1937 2.19023C59.1932 2.18979 59.1927 2.18928 59.1923 2.18884C58.9866 2.00041 58.7788 1.82637 58.5603 1.67141C57.911 1.21095 57.1675 0.919031 56.1066 0.919031C56.1028 0.919031 56.0991 0.919036 56.0953 0.919046C53.8162 0.925156 52.1455 2.77157 52.1343 5.00492C52.1343 5.01248 52.1342 5.02005 52.1342 5.02762V5.05032C52.1342 7.33161 53.814 9.13621 56.0839 9.13621C56.0915 9.13621 56.0991 9.13619 56.1066 9.13616C57.1685 9.13163 57.9452 8.80896 58.6242 8.29142C58.8338 8.13163 59.0341 7.95326 59.2306 7.75993C59.2335 7.75714 59.2363 7.75434 59.2391 7.75155ZM69.7159 9.81577C69.2654 9.81577 68.9001 9.45054 68.9001 9.00001V1.05523C68.9001 0.604695 69.2654 0.239467 69.7159 0.239467L72.5987 0.239467C73.6028 0.239467 74.5376 0.496406 75.2394 1.05823C75.9617 1.63646 76.3654 2.48287 76.3654 3.48406V3.50676C76.3654 4.60723 75.8764 5.47859 75.1102 6.05129C74.3686 6.60564 73.4094 6.8535 72.4512 6.8535H71.1218V9.00001C71.1218 9.45054 70.7566 9.81577 70.3061 9.81577H69.7159ZM69.7159 9.00001H70.3061V6.03774H72.4512C72.4625 6.03774 72.4739 6.0377 72.4852 6.03762C74.1166 6.02596 75.5301 5.17554 75.5494 3.54081C75.5495 3.53326 75.5496 3.52569 75.5496 3.51811C75.5496 3.51433 75.5496 3.51055 75.5496 3.50676V3.48406C75.5496 1.95185 74.3466 1.05523 72.5987 1.05523L69.7159 1.05523V9.00001ZM70.3061 5.49296H72.4852C73.9607 5.49296 74.9594 4.72118 74.9594 3.54081V3.51811C74.9594 3.51432 74.9594 3.51054 74.9594 3.50676C74.9594 3.49917 74.9593 3.49161 74.9592 3.48406C74.9419 2.2597 73.9911 1.61393 72.5987 1.60023C72.5836 1.60009 72.5685 1.60001 72.5533 1.60001L70.3061 1.60001V5.49296ZM71.1218 2.41577V4.6772H72.4852C73.0887 4.6772 73.5156 4.51892 73.7722 4.31764C74.0115 4.12997 74.1437 3.87749 74.1437 3.54081V3.51811C74.1437 3.12416 74.0042 2.89235 73.7983 2.73556C73.5631 2.55637 73.1569 2.41577 72.5533 2.41577H71.1218ZM80.0211 9.81577C79.5705 9.81577 79.2053 9.45054 79.2053 9.00001V1.05523C79.2053 0.604695 79.5705 0.239467 80.0211 0.239467L83.3579 0.239467C84.4927 0.239467 85.5045 0.595446 86.1706 1.26153C86.6994 1.79032 87.0111 2.53178 87.0111 3.31382V3.33652C87.0111 4.22391 86.672 4.96632 86.0847 5.50338C85.836 5.73077 85.5523 5.91313 85.2462 6.05527L87.1359 8.50128C87.3261 8.74746 87.3597 9.08037 87.2226 9.35961C87.0855 9.63884 86.8015 9.81577 86.4904 9.81577H85.7413C85.488 9.81577 85.249 9.69809 85.0946 9.49728L82.8086 6.52436H81.427V9.00001C81.427 9.45054 81.0618 9.81577 80.6112 9.81577H80.0211ZM80.0211 9.00001H80.6112V5.7086H83.2103L85.7413 9.00001H86.4904L83.8686 5.60645C83.9565 5.59453 84.0429 5.58012 84.1276 5.56322C84.3404 5.52074 84.5426 5.46252 84.7312 5.38863C85.6042 5.04654 86.1866 4.36838 86.1952 3.35921C86.1953 3.35167 86.1953 3.3441 86.1953 3.33652V3.31382C86.1953 2.74633 85.9683 2.2129 85.5938 1.83836C85.1171 1.36167 84.3339 1.05523 83.3579 1.05523L80.0211 1.05523V9.00001ZM80.6112 5.17517H83.2898C83.4649 5.17517 83.6341 5.16352 83.7959 5.14066C83.799 5.14022 83.8022 5.13978 83.8053 5.13933C84.8653 4.98652 85.6051 4.35144 85.6051 3.35921V3.33652C85.6051 3.32893 85.6051 3.32136 85.605 3.31382C85.6001 2.88384 85.4577 2.51939 85.1935 2.2386C84.8155 1.83678 84.1881 1.60626 83.3579 1.60014C83.3466 1.60005 83.3352 1.60001 83.3238 1.60001L80.6112 1.60001V5.17517ZM81.427 2.41577V4.35941H83.2898C83.8271 4.35941 84.219 4.22281 84.4549 4.04526C84.6684 3.88459 84.7894 3.66936 84.7894 3.35921V3.33652C84.7894 3.04021 84.6845 2.85116 84.5069 2.71425C84.3042 2.55793 83.9302 2.41577 83.3238 2.41577L81.427 2.41577ZM99.401 5.02762C99.401 7.58646 97.4927 9.95197 94.5788 9.95197C91.6644 9.95197 89.7793 7.60869 89.7793 5.05032V5.02762C89.7793 2.46878 91.6876 0.103271 94.6015 0.103271C97.5159 0.103271 99.401 2.44655 99.401 5.00492V5.02762ZM92.0237 5.02762C92.0237 6.59737 93.1433 7.78701 94.6015 7.78701C96.0592 7.78701 97.1566 6.6206 97.1566 5.05032V5.02762C97.1566 3.45787 96.037 2.26823 94.5788 2.26823C93.1211 2.26823 92.0237 3.43464 92.0237 5.00492V5.02762ZM103.314 9.81577C102.863 9.81577 102.498 9.45054 102.498 9.00001V1.05523C102.498 0.604695 102.863 0.239467 103.314 0.239467L105.958 0.239467C108.868 0.239467 110.996 2.28138 110.996 5.00492V5.02762C110.996 7.74517 108.874 9.81577 105.958 9.81577L103.314 9.81577ZM104.72 2.41577H105.958C107.726 2.41577 108.752 3.59934 108.752 5.02762V5.05032C108.752 5.7935 108.481 6.43037 108.021 6.88146C107.563 7.33088 106.874 7.63947 105.958 7.63947H104.72V2.41577ZM105.958 1.60001C108.162 1.60001 109.556 3.13119 109.567 5.00492C109.567 5.01248 109.567 5.02005 109.567 5.02762V5.05032C109.567 6.94572 108.171 8.45523 105.958 8.45523L103.904 8.45523V1.60001L105.958 1.60001ZM103.314 1.05523L105.958 1.05523C108.455 1.05523 110.18 2.76903 110.18 5.00492V5.02762C110.18 5.03519 110.18 5.04276 110.18 5.05032C110.169 7.27525 108.447 9.00001 105.958 9.00001L103.314 9.00001V1.05523ZM121.305 0.239467C121.756 0.239467 122.121 0.604695 122.121 1.05523V5.62915C122.121 6.92769 121.74 8.02532 120.985 8.80152C120.228 9.57895 119.186 9.94062 118.048 9.94062C116.922 9.94062 115.884 9.58229 115.126 8.82067C114.367 8.05776 113.975 6.97676 113.975 5.69725V1.05523C113.975 0.604695 114.34 0.239467 114.791 0.239467L115.381 0.239467C115.831 0.239467 116.197 0.604695 116.197 1.05523V5.6405C116.197 6.43589 116.41 6.95428 116.697 7.26646C116.975 7.56946 117.411 7.77566 118.071 7.77566C118.711 7.77566 119.136 7.5859 119.406 7.30173C119.681 7.01243 119.9 6.51492 119.9 5.69725V1.05523C119.9 0.604695 120.265 0.239467 120.715 0.239467L121.305 0.239467ZM120.715 1.05523V5.69725C120.715 7.61535 119.682 8.59142 118.071 8.59142C118.063 8.59142 118.056 8.5914 118.048 8.59136C116.399 8.58177 115.401 7.52659 115.381 5.69725C115.381 5.67842 115.381 5.6595 115.381 5.6405V1.05523L114.791 1.05523V5.69725C114.791 7.92179 116.141 9.12486 118.048 9.12486C118.056 9.12486 118.063 9.12484 118.071 9.1248C119.969 9.1154 121.279 7.92573 121.305 5.69725C121.305 5.67466 121.305 5.65196 121.305 5.62915V1.05523H120.715ZM133.831 7.74841C133.832 7.96777 133.745 8.17823 133.589 8.33229C132.646 9.26174 131.544 9.95197 129.86 9.95197C127.106 9.95197 125.095 7.7469 125.095 5.05032V5.02762C125.095 2.37247 127.099 0.103271 129.883 0.103271C131.567 0.103271 132.606 0.749456 133.522 1.58886C133.684 1.73793 133.779 1.94651 133.786 2.16704C133.792 2.38756 133.709 2.60122 133.555 2.75928L133.135 3.19057C132.821 3.5126 132.306 3.52033 131.983 3.20785C131.385 2.62955 130.783 2.26823 129.872 2.26823C128.464 2.26823 127.339 3.40775 127.339 5.00492V5.02762C127.339 6.6358 128.487 7.78701 129.883 7.78701C130.754 7.78701 131.342 7.47834 132.046 6.78475C132.362 6.47326 132.869 6.47139 133.187 6.78053L133.584 7.16642C133.741 7.31927 133.831 7.52905 133.831 7.74841ZM133.016 7.75155L132.618 7.36566C132.619 7.36559 132.618 7.36572 132.618 7.36566C131.813 8.16002 131.029 8.60277 129.883 8.60277C129.876 8.60277 129.868 8.60275 129.86 8.6027C127.983 8.59029 126.535 7.04029 126.524 5.05032C126.524 5.04276 126.524 5.03519 126.524 5.02762V5.00492C126.524 3.00737 127.965 1.45247 129.872 1.45247C129.876 1.45247 129.879 1.45247 129.883 1.45248C131.069 1.45564 131.86 1.95398 132.55 2.62148L132.97 2.1902C132.97 2.18974 132.969 2.18925 132.969 2.1888C132.763 2.00037 132.555 1.82637 132.337 1.67141C131.688 1.21095 130.944 0.919031 129.883 0.919031C129.879 0.919031 129.876 0.919036 129.872 0.919046C127.593 0.925159 125.922 2.77157 125.911 5.00492C125.911 5.01248 125.911 5.02005 125.911 5.02762V5.05032C125.911 7.33161 127.591 9.13621 129.86 9.13621C129.868 9.13621 129.876 9.13619 129.883 9.13616C130.945 9.13163 131.722 8.80896 132.401 8.29142C132.61 8.13163 132.811 7.95325 133.007 7.75993C133.01 7.75714 133.013 7.75434 133.016 7.75155ZM139.568 9.81577C139.117 9.81577 138.752 9.45054 138.752 9.00001V2.41577L136.798 2.41577C136.348 2.41577 135.983 2.05054 135.983 1.60001V1.05523C135.983 0.604695 136.348 0.239467 136.798 0.239467L142.927 0.239467C143.378 0.239467 143.743 0.604695 143.743 1.05523V1.60001C143.743 2.05054 143.378 2.41577 142.927 2.41577L140.974 2.41577V9.00001C140.974 9.45054 140.608 9.81577 140.158 9.81577H139.568ZM142.927 1.60001V1.05523L136.798 1.05523V1.60001L139.568 1.60001V9.00001H140.158V1.60001L142.927 1.60001ZM147.529 9.81577C147.078 9.81577 146.713 9.45054 146.713 9.00001V1.05523C146.713 0.604695 147.078 0.239467 147.529 0.239467L148.119 0.239467C148.569 0.239467 148.935 0.604695 148.935 1.05523V9.00001C148.935 9.45054 148.569 9.81577 148.119 9.81577H147.529ZM148.119 9.00001H147.529V1.05523L148.119 1.05523V9.00001ZM161.742 5.02762C161.742 7.58646 159.834 9.95197 156.92 9.95197C154.005 9.95197 152.12 7.60869 152.12 5.05032V5.02762C152.12 2.46878 154.028 0.103271 156.942 0.103271C159.857 0.103271 161.742 2.44655 161.742 5.00492V5.02762ZM154.365 5.02762C154.365 6.59737 155.484 7.78701 156.942 7.78701C158.4 7.78701 159.497 6.6206 159.497 5.05032V5.02762C159.497 3.45787 158.378 2.26823 156.92 2.26823C155.462 2.26823 154.365 3.43464 154.365 5.00492V5.02762ZM165.654 9.81577C165.204 9.81577 164.839 9.45054 164.839 9.00001V1.05523C164.839 0.604695 165.204 0.239467 165.654 0.239467L166.211 0.239467C166.46 0.239467 166.695 0.35321 166.85 0.548318L170.877 5.62584V1.05523C170.877 0.604695 171.242 0.239467 171.693 0.239467L172.26 0.239467C172.711 0.239467 173.076 0.604695 173.076 1.05523V9.00001C173.076 9.45054 172.711 9.81577 172.26 9.81577H171.817C171.568 9.81577 171.333 9.70195 171.178 9.50672L167.038 4.28301V9.00001C167.038 9.45054 166.673 9.81577 166.222 9.81577H165.654ZM171.817 9.00001H172.26V1.05523H171.693V7.96719L166.211 1.05523H165.654V9.00001H166.222V1.9405L171.817 9.00001ZM183.222 6.9216C182.772 6.9216 182.406 6.55637 182.406 6.10584V5.14112C182.406 4.69059 182.772 4.32536 183.222 4.32536H183.971C184.422 4.32536 184.787 4.69059 184.787 5.14112V6.10584C184.787 6.55637 184.422 6.9216 183.971 6.9216H183.222ZM183.222 5.14112H183.971V6.10584H183.222V5.14112ZM94.6015 9.13615C94.5939 9.13619 94.5864 9.13621 94.5788 9.13621C92.1727 9.13621 90.5951 7.21811 90.5951 5.05032V5.02762C90.5951 5.02005 90.5951 5.01248 90.5951 5.00492C90.6062 2.85312 92.1937 0.931209 94.5788 0.919088C94.5864 0.91905 94.5939 0.919031 94.6015 0.919031C97.0076 0.919031 98.5853 2.83713 98.5853 5.00492V5.02762C98.5853 5.03519 98.5852 5.04276 98.5852 5.05032C98.5741 7.20212 96.9866 9.12403 94.6015 9.13615ZM94.5788 8.6027C94.5864 8.60275 94.5939 8.60277 94.6015 8.60277C96.565 8.60277 97.9724 7.01382 97.9724 5.05032V5.02762C97.9724 5.02005 97.9724 5.01248 97.9723 5.00492C97.9614 3.05928 96.5458 1.46486 94.6015 1.45254C94.5939 1.45249 94.5864 1.45247 94.5788 1.45247C92.6153 1.45247 91.208 3.04142 91.208 5.00492V5.02762C91.208 5.03519 91.208 5.04276 91.208 5.05032C91.2189 6.99596 92.6346 8.59038 94.5788 8.6027ZM156.942 9.13615C156.935 9.13619 156.927 9.13621 156.92 9.13621C154.514 9.13621 152.936 7.21811 152.936 5.05032V5.02762C152.936 5.02005 152.936 5.01248 152.936 5.00492C152.947 2.85312 154.535 0.931212 156.92 0.919088C156.927 0.91905 156.935 0.919031 156.942 0.919031C159.348 0.919031 160.926 2.83713 160.926 5.00492V5.02762C160.926 5.03519 160.926 5.04276 160.926 5.05032C160.915 7.20212 159.327 9.12403 156.942 9.13615ZM156.92 8.6027C156.927 8.60275 156.935 8.60277 156.942 8.60277C158.906 8.60277 160.313 7.01382 160.313 5.05032V5.02762C160.313 5.02005 160.313 5.01248 160.313 5.00492C160.302 3.05928 158.887 1.46486 156.942 1.45254C156.935 1.45249 156.927 1.45247 156.92 1.45247C154.956 1.45247 153.549 3.04142 153.549 5.00492V5.02762C153.549 5.03519 153.549 5.04276 153.549 5.05032C153.56 6.99596 154.975 8.59038 156.92 8.6027Z" fill="#00FF63"/>
</svg>
