<svg width="170" height="202" viewBox="0 0 170 202" fill="none" xmlns="http://www.w3.org/2000/svg">
<path d="M40.4278 193.362V194.142H35.5229V193.362H40.4278ZM35.5229 196.056V195.205H40.4278V196.056H35.5229ZM34.1164 197.628H35.5229V197.215H40.4278V197.616H41.9052V192.192H34.1164V197.628ZM39.7423 188.764C39.6123 189.225 39.3995 189.78 39.2104 190.218H36.7757C36.693 189.792 36.4566 189.213 36.1729 188.764H39.7423ZM40.7469 190.218C40.936 189.851 41.1369 189.438 41.3379 189L40.2505 188.764H42.6971V187.523H38.8913C38.7731 187.168 38.5958 186.767 38.3949 186.436L36.9293 186.672C37.0594 186.92 37.2012 187.227 37.2957 187.523H33.3127V188.764H35.9129L34.7664 188.989C34.9556 189.355 35.1328 189.816 35.2392 190.218H32.6508V191.471H43.2526V190.218H40.7469ZM48.0511 192.404C47.9802 191.825 47.8147 190.974 47.6256 190.3L46.7392 190.501C46.7983 190.738 46.8574 190.998 46.9047 191.27L45.971 191.364C46.7156 190.537 47.4602 189.556 48.0157 188.587L47.0229 188.043C46.8692 188.386 46.6683 188.729 46.4792 189.059L45.8646 189.107C46.2783 188.504 46.6801 187.771 46.9756 187.086L45.8882 186.707C45.6282 187.606 45.1082 188.528 44.9427 188.776C44.7772 189.024 44.6236 189.201 44.4463 189.237C44.5763 189.52 44.7536 190.029 44.8127 190.253C44.9427 190.182 45.1554 190.123 45.8528 190.029C45.5573 190.442 45.2973 190.761 45.1791 190.903C44.8836 191.246 44.659 191.471 44.4108 191.53C44.5408 191.801 44.7181 192.345 44.7772 192.546C44.9782 192.452 45.3091 192.369 47.0583 192.132C47.082 192.31 47.1056 192.475 47.1174 192.617L48.0511 192.404ZM47.5193 194.567C46.7983 195.253 45.4273 195.844 44.1154 196.104C44.4108 196.375 44.8245 196.919 45.0372 197.262C46.4437 196.872 47.8266 196.009 48.6539 194.993L47.5193 194.567ZM55.0835 194.213V193.054H50.5095V192.487H49.103V193.054H44.4227V194.213H49.103V197.569H50.5095V194.213H55.0835ZM51.1123 195.3C52.1642 195.879 53.5588 196.765 54.2089 197.345L55.1071 196.34C54.398 195.773 52.9679 194.945 51.9396 194.425L51.1123 195.3ZM50.2022 189.414H49.3158V188.622H50.2022V189.414ZM50.2022 191.199H49.3158V190.371H50.2022V191.199ZM50.1667 187.594L50.5449 186.696L49.2685 186.483C49.2448 186.802 49.1621 187.216 49.0676 187.594H48.122V192.227H51.4432V187.594H50.1667ZM53.8307 190.655C53.8898 190.88 53.9488 191.128 54.0079 191.388L53.0861 191.471C53.8543 190.655 54.6107 189.65 55.2017 188.681L54.1852 188.102C54.0316 188.421 53.8543 188.74 53.6888 189.036L52.8969 189.107C53.3106 188.492 53.7361 187.748 54.0198 187.015L52.8851 186.696C52.6251 187.606 52.0932 188.551 51.9278 188.799C51.7741 189.048 51.6087 189.225 51.4432 189.272C51.5732 189.556 51.7505 190.076 51.8096 190.312C51.9514 190.23 52.1878 190.17 53.0033 190.052C52.696 190.49 52.4242 190.82 52.2942 190.962C51.9987 191.293 51.7741 191.518 51.5259 191.577C51.6559 191.861 51.8332 192.416 51.8923 192.641C52.0932 192.534 52.436 192.463 54.197 192.274C54.2207 192.44 54.2443 192.593 54.2561 192.735L55.2017 192.487C55.1071 191.931 54.9062 191.081 54.7053 190.43L53.8307 190.655ZM58.6528 194.354V195.134H57.6955V194.354H58.6528ZM59.7402 196.104V193.397H56.5609V196.517H57.6955V196.104H59.7402ZM61.5249 191.057C61.8558 191.234 62.3404 191.518 62.5768 191.707H61.5249V191.057ZM64.8933 190.064H63.6405V190.962C63.6405 192.404 63.4396 194.685 61.5958 196.387V196.34V192.912H62.695V191.707H62.6004C62.9786 191.128 63.2978 190.36 63.5696 189.509H65.7325C65.6261 190.253 65.4843 191.01 65.3661 191.53L66.4653 191.849C66.7253 190.998 67.0208 189.65 67.2099 188.48L66.2644 188.22L66.0752 188.279H63.9123C64.0305 187.783 64.1251 187.287 64.2078 186.778L62.8723 186.554C62.6477 188.185 62.1986 189.816 61.5249 190.868V188.185H62.2104V187.003H56.1827V188.185H60.2839V191.707H56.0526V192.912H60.3548V196.316C60.3548 196.446 60.3075 196.482 60.1539 196.494C60.012 196.494 59.5038 196.494 59.0665 196.47C59.2083 196.754 59.3856 197.156 59.4447 197.463C60.1893 197.463 60.7212 197.451 61.0994 197.297C61.3594 197.191 61.4894 197.049 61.5485 196.813C61.8086 197.049 62.0804 197.392 62.2104 197.64C63.3332 196.683 64.0069 195.548 64.3851 194.425C64.8697 195.69 65.5316 196.671 66.5362 197.581C66.7017 197.203 67.0799 196.789 67.4226 196.541C66.028 195.406 65.3425 194.059 64.8697 191.837C64.8815 191.53 64.8933 191.258 64.8933 190.986V190.064ZM58.511 190.336H57.6128V189.556H58.511V190.336ZM56.62 188.646V191.234H59.5747V188.646H56.62ZM76.6415 188.752H73.8404V188.043H76.6415V188.752ZM76.6415 190.466H73.8404V189.745H76.6415V190.466ZM78.0716 186.967H72.493V191.53H78.0716V186.967ZM70.4129 188.882V193.232H69.5737V188.882H70.4129ZM71.7011 187.594H68.3091V195.572H69.5737V194.52H71.7011V187.594ZM73.5449 195.997V195.217H77.0079V195.997H73.5449ZM77.0079 193.35V194.071H73.5449V193.35H77.0079ZM72.1503 192.168V197.605H73.5449V197.179H77.0079V197.546H78.4617V192.168H72.1503ZM83.6502 191.589L82.5629 191.861V190.111H83.7212V188.811H82.5629V186.566H81.1682V188.811H79.809V190.111H81.1682V192.203C80.6009 192.345 80.0927 192.463 79.6554 192.546L80.0218 193.882L81.1682 193.598V196.033C81.1682 196.21 81.121 196.269 80.9437 196.269C80.79 196.269 80.3054 196.269 79.8445 196.257C80.01 196.624 80.1873 197.179 80.2463 197.534C81.0737 197.534 81.641 197.498 82.031 197.286C82.4329 197.061 82.5629 196.73 82.5629 196.045V193.22C82.9884 193.113 83.4139 192.995 83.8275 192.877L83.6502 191.589ZM88.5906 192.227C88.2361 193.031 87.7278 193.728 87.1132 194.319C86.5223 193.716 86.0495 193.007 85.7186 192.227H88.5906ZM89.4771 190.903L89.2289 190.962H87.8106V189.544H90.458V188.244H87.8106V186.554H86.4159V188.244H83.8748V189.544H86.4159V190.962H84.0876V192.227H84.7021L84.3476 192.333C84.7731 193.421 85.3286 194.354 86.0259 195.146C85.1985 195.678 84.2412 196.056 83.2011 196.305C83.4611 196.612 83.8039 197.203 83.9575 197.581C85.104 197.238 86.1441 196.765 87.066 196.127C87.8815 196.789 88.8625 197.274 90.0089 197.616C90.2098 197.25 90.6117 196.683 90.9072 196.399C89.8553 196.139 88.9452 195.749 88.177 195.205C89.1698 194.213 89.9262 192.924 90.3753 191.281L89.4771 190.903ZM94.5475 189.449H95.883V188.055H91.5572V189.449H93.1173V193.953C92.4791 194.071 91.8882 194.165 91.4036 194.248L91.7109 195.69C92.9755 195.43 94.642 195.087 96.2021 194.721L96.0721 193.385C95.5639 193.48 95.0557 193.586 94.5475 193.681V189.449ZM102.537 188.669V187.251H96.0485V188.669H97.5022C97.254 190.005 96.9231 191.435 96.6394 192.44H100.729C100.587 194.579 100.422 195.655 100.114 195.915C99.9488 196.045 99.7715 196.056 99.4997 196.056C99.0978 196.056 98.1641 196.045 97.2304 195.974C97.5495 196.387 97.7859 196.99 97.8095 197.427C98.6605 197.451 99.5233 197.475 100.02 197.427C100.599 197.368 101.001 197.25 101.367 196.825C101.84 196.305 102.053 194.969 102.23 191.707L102.265 191.081H98.4832C98.6487 190.336 98.826 189.485 98.9678 188.669H102.537ZM111.224 192.085H112.04L111.945 192.132C112.075 192.251 112.217 192.381 112.359 192.522L111.224 192.534V192.085ZM108.541 191.305V190.82H109.865V191.305H108.541ZM108.541 189.603H109.865V190.088H108.541V189.603ZM112.572 189.603V190.088H111.224V189.603H112.572ZM112.572 191.305H111.224V190.82H112.572V191.305ZM112.879 193.492L113.233 193.48C113.34 193.622 113.446 193.752 113.517 193.87L114.522 193.314C114.274 192.96 113.836 192.499 113.399 192.085H113.919V188.835H111.224V188.386H114.262V187.369H111.224V186.648H109.865V187.369H106.981L107.111 187.027L105.776 186.601C105.173 188.291 104.156 189.97 103.093 191.033C103.329 191.364 103.707 192.144 103.837 192.487C104.109 192.203 104.381 191.884 104.641 191.541V197.581H105.977V189.461C106.272 188.929 106.544 188.374 106.78 187.83V188.386H109.865V188.835H107.253V192.085H109.865V192.558C108.695 192.57 107.619 192.582 106.78 192.582L106.898 193.633C108.151 193.61 109.818 193.574 111.532 193.527V194.035H106.532V195.099H108.175L107.572 195.477C108.092 195.962 108.683 196.647 108.955 197.096L110.066 196.387C109.818 196.021 109.345 195.524 108.896 195.099H111.532V196.281C111.532 196.411 111.472 196.458 111.295 196.47C111.13 196.47 110.527 196.47 109.983 196.446C110.149 196.789 110.314 197.262 110.373 197.616C111.224 197.616 111.851 197.616 112.3 197.439C112.761 197.262 112.879 196.943 112.879 196.316V195.099H114.38V194.035H112.879V193.492ZM117.867 188.575C117.689 188.078 117.394 187.298 117.181 186.684L115.893 187.05C116.106 187.677 116.389 188.504 116.543 189.036L117.867 188.575ZM121.247 192.416C120.963 193.255 120.266 194.142 118.505 194.78C118.836 195.052 119.285 195.548 119.486 195.844C121.01 195.158 121.897 194.283 122.358 193.385C123.292 194.236 124.308 195.182 124.84 195.808L125.821 194.827C125.218 194.201 124.095 193.243 123.15 192.416H126.045V191.14H122.878V189.851H125.667V188.575H124.296C124.615 188.078 124.958 187.523 125.265 186.979L123.847 186.566C123.622 187.168 123.256 187.96 122.878 188.575H121.117L121.767 188.291C121.554 187.854 121.105 187.109 120.774 186.589L119.592 187.05C119.852 187.523 120.183 188.114 120.396 188.575H118.907V189.851H121.424V191.14H118.611V191.979L118.174 191.79L117.973 191.849H117.299C117.583 191.045 117.89 190.123 118.138 189.319H115.231V190.572H116.484C116.188 191.459 115.881 192.392 115.609 193.054H117.193C117.004 193.752 116.756 194.484 116.472 195.052C116.035 195.253 115.503 195.702 115.006 196.305L115.952 197.652C116.212 196.978 116.614 196.175 116.886 196.175C117.122 196.175 117.536 196.565 118.032 196.836C118.883 197.333 119.864 197.463 121.436 197.463C122.819 197.463 124.887 197.38 125.868 197.321C125.892 196.943 126.116 196.257 126.282 195.879C124.97 196.068 122.854 196.186 121.495 196.186C120.112 196.186 119.013 196.115 118.209 195.631C117.985 195.501 117.807 195.371 117.654 195.264C118.079 194.449 118.434 193.444 118.682 192.416H121.247ZM130.749 188.173V188.788H128.953V188.173H130.749ZM128.953 190.466V189.792H130.749V190.466H128.953ZM132.061 187.038H127.558V197.605H128.953V191.589H132.061V187.038ZM134.224 190.49V189.792H136.092V190.49H134.224ZM136.092 188.173V188.788H134.224V188.173H136.092ZM137.51 187.038H132.889V191.624H136.092V195.879C136.092 196.104 136.009 196.186 135.761 196.186C135.512 196.186 134.638 196.198 133.893 196.151C134.106 196.529 134.331 197.191 134.39 197.593C135.536 197.593 136.316 197.569 136.824 197.333C137.344 197.12 137.51 196.706 137.51 195.903V187.038Z" fill="#00FF63"/>
<rect x="25.5298" y="187.266" width="1.47536" height="12.1004" stroke="#00FF63" stroke-width="0.295478"/>
<rect x="142.995" y="187.266" width="1.47536" height="12.1004" stroke="#00FF63" stroke-width="0.295478"/>
<g clip-path="url(#clip0_145_5338)">
<path d="M84.9822 168.667C62.9905 168.716 41.8744 160.053 26.2536 144.573C10.55 129.146 1.60155 108.123 1.36862 86.111C1.10036 63.9312 9.64037 42.5506 25.1153 26.6591C40.5903 10.7676 61.7366 1.66283 83.9157 1.34203H85.0533C107.042 1.29332 128.155 9.95651 143.773 25.436C159.477 40.8631 168.425 61.8856 168.658 83.898C168.833 94.8889 166.827 105.806 162.756 116.016C158.684 126.226 152.628 135.528 144.937 143.382C137.291 151.277 128.155 157.577 118.057 161.917C107.959 166.257 97.1011 168.552 86.1109 168.667H84.9822Z" fill="url(#paint0_linear_145_5338)"/>
<path d="M85.0267 2.66598C106.66 2.62458 127.43 11.1498 142.795 26.3778C158.28 41.5439 167.114 62.2337 167.36 83.9066C167.617 105.733 159.204 126.771 143.969 142.403C128.734 158.035 107.92 166.985 86.0933 167.289H84.9824C63.3485 167.333 42.5777 158.808 27.2136 143.577C11.7465 128.403 2.92833 107.715 2.69296 86.0485C2.42709 64.2216 10.8304 43.1806 26.0592 27.5419C41.288 11.9032 62.0984 2.9442 83.9247 2.63042H85.0445L85.0267 2.66598ZM85.0445 -0.0358276H83.8891C61.3482 0.263893 39.8495 9.50551 24.1223 25.656C8.39515 41.8065 -0.27227 63.5431 0.026712 86.084C0.325719 108.426 9.40897 129.752 25.3113 145.448C41.2136 161.144 62.6562 169.948 85 169.955H86.1466C97.308 169.808 108.331 167.464 118.587 163.056C128.842 158.648 138.128 152.263 145.916 144.266C153.703 136.269 159.839 126.816 163.973 116.447C168.107 106.078 170.158 94.9969 170.009 83.8355C169.712 61.4944 160.631 40.1685 144.73 24.4722C128.829 8.77592 107.388 -0.0284529 85.0445 -0.0358276Z" fill="black"/>
<path d="M134.025 134.023C161.101 106.947 161.101 63.0487 134.025 35.9732C106.949 8.89758 63.0513 8.89757 35.9757 35.9732C8.90009 63.0487 8.90009 106.947 35.9757 134.023C63.0513 161.098 106.949 161.098 134.025 134.023Z" fill="black" stroke="white" stroke-width="0.295478" stroke-miterlimit="10"/>
<g opacity="0.8">
<path opacity="0.8" d="M106.694 128.024V135.348H105.61V128.024H103.441V129.073H104.526V133.25H103.441V134.299H104.526V138.485H105.61V136.388H106.694V140.574H109.947V128.024H106.694Z" fill="white"/>
<path opacity="0.8" d="M100.189 132.21H101.273V128.024H99.1044V132.21H99.4866V135.348H99.1044V140.574H101.273V138.485H100.189V132.21Z" fill="white"/>
<path opacity="0.8" d="M96.927 134.299H98.0379V128.024H96.9537L96.927 134.299Z" fill="white"/>
<path opacity="0.8" d="M94.7586 131.162H95.852V128.024H94.7586V129.073H94.3941V130.113H94.7586V131.162Z" fill="white"/>
<path opacity="0.8" d="M96.927 135.348H95.8517V133.25H94.7585V136.388H95.8517V138.485H96.927V140.574H98.038V137.436H96.9537L96.927 135.348Z" fill="white"/>
<path opacity="0.8" d="M93.6741 140.574H95.8516V139.534H94.7585V136.388H93.6741V140.574Z" fill="white"/>
<path opacity="0.8" d="M92.5899 130.113V133.25H92.1722V128.024H91.8167V133.25H91.4878V129.073H90.4036V128.024H89.3192V130.113H90.4036V133.25H89.3192V136.388H90.4036V140.574H91.4878V135.348H90.4036V134.299H92.5721V140.574H92.9187V136.388H93.6563V130.113H92.5899Z" fill="white"/>
<path opacity="0.8" d="M86.0842 140.574H87.1688V138.485H86.0842V140.574Z" fill="white"/>
<path opacity="0.8" d="M84.9999 136.388V138.486H86.0846V136.388H84.9999Z" fill="white"/>
<path opacity="0.8" d="M88.2617 134.299H87.1774V138.485H89.3459V136.388H88.2617V134.299Z" fill="white"/>
<path opacity="0.8" d="M88.2617 128.024H87.1774V133.25H88.2617V128.024Z" fill="white"/>
<path opacity="0.8" d="M81.7475 128.024H80.6628V130.113H81.7475V128.024Z" fill="white"/>
<path opacity="0.8" d="M77.4102 130.113H78.4855V128.024H76.317V140.574H77.4013V139.534H78.4855V137.436H77.4013V136.388H78.4855V135.348H77.4013V133.25H78.4855V132.21H77.4013L77.4102 130.113Z" fill="white"/>
<path opacity="0.8" d="M74.1572 128.024H73.073V132.21H74.1572V128.024Z" fill="white"/>
<path opacity="0.8" d="M71.9886 132.21V128.024H70.9044V135.348H70.4867V128.024H70.2556V135.348H69.829V136.388H70.2556V138.485H69.829V139.534H68.7092V132.21H69.7934V128.024H67.6249V140.574H70.8777V139.534H71.962V140.574H73.0463V138.485H71.962V135.348H73.0463V132.21H71.9886ZM70.9044 138.485H70.4867V136.388H70.9133L70.9044 138.485Z" fill="white"/>
<path opacity="0.8" d="M60.0528 140.574H63.3145V128.024H60.0528V140.574Z" fill="white"/>
<path opacity="0.8" d="M85.6932 128.024H85.1511V135.623H85.6932V128.024Z" fill="white"/>
<path opacity="0.8" d="M84.1557 128.024H83.7913V140.574H84.1557V128.024Z" fill="white"/>
<path opacity="0.8" d="M82.6626 136.388H81.7739V132.21H80.6896V130.113H78.4855V132.21H79.5698V140.574H79.9342V134.299H80.654V140.574H81.7384V138.485H82.8226V128.024H82.6537L82.6626 136.388Z" fill="white"/>
<path opacity="0.8" d="M74.7261 135.348H73.073V136.388H74.1572V140.574H75.2415V128.024H74.7261V135.348Z" fill="white"/>
<path opacity="0.8" d="M83.3914 128.024H83.1603V140.574H83.3914V128.024Z" fill="white"/>
<path opacity="0.8" d="M102.899 128.024H102.668V134.299H101.94V128.024H101.708V134.299H101.273V136.388H101.708V140.574H101.94V136.388H102.357V140.574H104.526V139.534H103.441V134.299H102.899V128.024Z" fill="white"/>
<path opacity="0.8" d="M84.6801 128.024H84.449V140.574H84.6801V128.024Z" fill="white"/>
<path opacity="0.8" d="M64.9143 128.024H64.5499V140.574H64.9143V128.024Z" fill="white"/>
<path opacity="0.8" d="M64.15 128.024H63.9189V140.574H64.15V128.024Z" fill="white"/>
<path opacity="0.8" d="M65.4386 128.024H65.2075V140.574H65.4386V128.024Z" fill="white"/>
<path opacity="0.8" d="M66.7451 128.024H66.3807V140.574H66.7451V128.024Z" fill="white"/>
<path opacity="0.8" d="M65.9808 128.024H65.7497V140.574H65.9808V128.024Z" fill="white"/>
<path opacity="0.8" d="M67.2606 128.024H67.0295V140.574H67.2606V128.024Z" fill="white"/>
<path opacity="0.8" d="M98.7134 128.024H98.4824V140.574H98.7134V128.024Z" fill="white"/>
<path opacity="0.8" d="M75.8191 128.024H75.5881V140.574H75.8191V128.024Z" fill="white"/>
</g>
<path d="M142.502 47.157H27.4979V122.843H142.502V47.157Z" stroke="white" stroke-width="0.295478" stroke-miterlimit="10"/>
<path d="M44.553 141.302V28.6533" stroke="white" stroke-width="0.295478" stroke-miterlimit="10"/>
<path d="M125.438 28.6533V141.302" stroke="white" stroke-width="0.295478" stroke-miterlimit="10"/>
<path d="M56.2667 34.8656H56.7023V37.8793H58.1425V38.2438H56.2667V34.8656Z" fill="white"/>
<path d="M59.2089 38.2526V36.8214L58.1331 34.8656H58.631L59.111 35.7991C59.2354 36.048 59.3421 36.2524 59.4488 36.4925C59.5486 36.2553 59.6614 36.0238 59.7866 35.7991L60.2756 34.8656H60.7734L59.6356 36.8036V38.2438L59.2089 38.2526Z" fill="white"/>
<path d="M61.3771 34.919C61.6705 34.8671 61.9681 34.8433 62.2661 34.8479C62.6153 34.8109 62.9654 34.9096 63.2439 35.1235C63.329 35.2068 63.3965 35.3065 63.4423 35.4164C63.4881 35.5264 63.5113 35.6444 63.5107 35.7635C63.5185 35.9619 63.4598 36.1572 63.3438 36.3183C63.2277 36.4794 63.0612 36.5971 62.8706 36.6525C63.0039 36.7162 63.1192 36.8122 63.2061 36.9317C63.2931 37.0512 63.3488 37.1905 63.3684 37.337C63.4271 37.6406 63.5134 37.9382 63.6262 38.226H63.1817C63.0754 37.9656 62.9979 37.6943 62.9506 37.417C62.8528 36.9548 62.675 36.777 62.275 36.7592H61.8661V38.226H61.4216L61.3771 34.919ZM61.8216 36.4569H62.2661C62.7283 36.4569 63.0306 36.1991 63.0306 35.8169C63.0306 35.4346 62.7105 35.1857 62.2483 35.1857C62.1064 35.1706 61.9634 35.1706 61.8216 35.1857V36.4569Z" fill="white"/>
<path d="M64.7721 34.8656V38.2438H64.3276V34.8656H64.7721Z" fill="white"/>
<path d="M68.1501 38.146C67.8677 38.2591 67.5652 38.3136 67.2611 38.306C67.0342 38.3196 66.8071 38.2842 66.5951 38.2022C66.3832 38.1201 66.1913 37.9934 66.0328 37.8306C65.8742 37.6678 65.7526 37.4728 65.6762 37.2587C65.5997 37.0447 65.5702 36.8167 65.5898 36.5903C65.577 36.3534 65.6141 36.1165 65.699 35.895C65.7838 35.6735 65.9143 35.4723 66.082 35.3046C66.2498 35.1368 66.451 35.0063 66.6725 34.9215C66.894 34.8367 67.1309 34.7995 67.3678 34.8123C67.6425 34.8001 67.9164 34.8519 68.1679 34.9634L68.0612 35.319C67.8458 35.2242 67.6119 35.1787 67.3767 35.1857C67.195 35.1756 67.0134 35.2051 66.8444 35.2723C66.6753 35.3394 66.5229 35.4426 66.3977 35.5745C66.2725 35.7065 66.1776 35.8641 66.1195 36.0364C66.0613 36.2088 66.0413 36.3917 66.061 36.5725C66.0413 36.751 66.0608 36.9316 66.1181 37.1018C66.1753 37.272 66.269 37.4277 66.3925 37.558C66.516 37.6883 66.6665 37.7901 66.8334 37.8563C67.0003 37.9226 67.1796 37.9517 67.3589 37.9415C67.6032 37.9435 67.8453 37.8951 68.0701 37.7993L68.1501 38.146Z" fill="white"/>
<path d="M68.8871 37.7193C69.1224 37.8639 69.3931 37.9408 69.6694 37.9416C70.1139 37.9416 70.3717 37.7104 70.3717 37.3637C70.3717 37.017 70.1939 36.8659 69.7406 36.6881C69.2872 36.5103 68.8516 36.208 68.8516 35.7369C68.8626 35.6057 68.8998 35.4782 68.9613 35.3619C69.0227 35.2455 69.107 35.1427 69.2091 35.0597C69.3112 34.9767 69.429 34.9152 69.5554 34.8788C69.6819 34.8424 69.8144 34.8319 69.945 34.8479C70.2044 34.8379 70.4618 34.8962 70.6917 35.0168L70.5761 35.3724C70.3765 35.2659 70.1535 35.2109 69.9272 35.2124C69.4649 35.2124 69.2961 35.488 69.2961 35.7191C69.2961 35.9502 69.5005 36.1903 69.9628 36.368C70.4251 36.5458 70.8518 36.8659 70.8518 37.3637C70.8518 37.8615 70.4605 38.3416 69.6605 38.3416C69.3493 38.3508 69.0417 38.2739 68.7715 38.1193L68.8871 37.7193Z" fill="white"/>
<path d="M75.0999 38.2527L74.7798 37.9238C74.6487 38.0494 74.494 38.1478 74.3246 38.2134C74.1553 38.279 73.9746 38.3105 73.7931 38.306C73.6617 38.3184 73.5291 38.3032 73.4038 38.2615C73.2786 38.2198 73.1634 38.1525 73.0656 38.0639C72.9678 37.9753 72.8894 37.8672 72.8356 37.7467C72.7818 37.6261 72.7537 37.4957 72.7531 37.3637C72.7585 37.1516 72.8241 36.9455 72.9421 36.7692C73.0601 36.593 73.2258 36.4538 73.4198 36.368C73.2475 36.1698 73.1472 35.9192 73.1353 35.6569C73.1337 35.5421 73.1561 35.4283 73.2009 35.3226C73.2457 35.217 73.3121 35.1218 73.3957 35.0432C73.4793 34.9646 73.5784 34.9043 73.6866 34.8661C73.7949 34.8278 73.9098 34.8126 74.0242 34.8212C74.1213 34.8163 74.2184 34.8314 74.3094 34.8656C74.4005 34.8997 74.4836 34.9521 74.5536 35.0196C74.6236 35.0871 74.679 35.1682 74.7164 35.2579C74.7538 35.3476 74.7723 35.4441 74.7709 35.5413C74.7709 35.8969 74.5665 36.1814 74.0242 36.4303L74.851 37.3815C75.0242 37.0741 75.1359 36.7359 75.18 36.3858H75.58C75.5308 36.8396 75.3621 37.2721 75.0911 37.6393L75.6511 38.2349L75.0999 38.2527ZM74.5665 37.6749L73.6153 36.6081C73.4906 36.6758 73.3851 36.7741 73.3089 36.8939C73.2327 37.0137 73.1882 37.1509 73.1797 37.2926C73.1772 37.3839 73.1935 37.4748 73.2276 37.5596C73.2617 37.6443 73.3128 37.7212 73.3778 37.7854C73.4428 37.8496 73.5204 37.8997 73.6056 37.9327C73.6908 37.9657 73.7819 37.9808 73.8732 37.9771C74.0031 37.9758 74.1314 37.9484 74.2505 37.8964C74.3696 37.8445 74.4771 37.7692 74.5665 37.6749ZM73.5354 35.6124C73.549 35.8376 73.64 36.0512 73.7931 36.2169C74.1398 36.0213 74.3532 35.8347 74.3532 35.5502C74.358 35.4955 74.3516 35.4403 74.3343 35.3882C74.3169 35.3361 74.289 35.2881 74.2523 35.2473C74.2156 35.2064 74.171 35.1735 74.121 35.1507C74.0711 35.1279 74.017 35.1156 73.9621 35.1146C73.9004 35.1166 73.8399 35.1314 73.7843 35.1581C73.7287 35.1848 73.6792 35.2227 73.6391 35.2696C73.599 35.3164 73.569 35.371 73.5511 35.4301C73.5332 35.4891 73.5279 35.5512 73.5354 35.6124Z" fill="white"/>
<path d="M79.9437 38.146C79.662 38.2614 79.359 38.3159 79.0547 38.306C78.8279 38.3196 78.6007 38.2842 78.3888 38.2022C78.1768 38.1201 77.985 37.9934 77.8264 37.8306C77.6678 37.6678 77.5462 37.4728 77.4697 37.2587C77.3933 37.0447 77.3639 36.8167 77.3834 36.5903C77.3706 36.3534 77.4078 36.1165 77.4926 35.895C77.5774 35.6735 77.708 35.4723 77.8757 35.3046C78.0434 35.1368 78.2446 35.0063 78.4661 34.9215C78.6877 34.8367 78.9245 34.7995 79.1614 34.8123C79.4362 34.8001 79.7101 34.8519 79.9615 34.9634L79.8548 35.319C79.6392 35.2251 79.4055 35.1796 79.1703 35.1857C78.9887 35.1756 78.8071 35.2051 78.638 35.2723C78.469 35.3394 78.3165 35.4426 78.1914 35.5745C78.0662 35.7065 77.9713 35.8641 77.9131 36.0364C77.855 36.2088 77.835 36.3917 77.8546 36.5725C77.8334 36.7513 77.8517 36.9326 77.9083 37.1035C77.965 37.2744 78.0587 37.4307 78.1826 37.5614C78.3064 37.692 78.4575 37.7938 78.6251 37.8595C78.7927 37.9252 78.9728 37.9532 79.1525 37.9415C79.3967 37.9418 79.6385 37.8934 79.8637 37.7993L79.9437 38.146Z" fill="white"/>
<path d="M83.5255 36.5281C83.5546 36.7504 83.5358 36.9765 83.4705 37.191C83.4051 37.4056 83.2947 37.6037 83.1465 37.772C82.9984 37.9404 82.8159 38.0751 82.6114 38.1672C82.407 38.2593 82.1852 38.3067 81.9609 38.306C81.745 38.3036 81.5319 38.256 81.3355 38.1663C81.1391 38.0765 80.9637 37.9467 80.8205 37.7851C80.6773 37.6235 80.5695 37.4337 80.5041 37.2279C80.4387 37.0221 80.4171 36.8049 80.4406 36.5903C80.4172 36.3689 80.44 36.1451 80.5075 35.933C80.575 35.7209 80.6858 35.5251 80.8328 35.358C80.9799 35.1909 81.1601 35.0561 81.3619 34.9622C81.5637 34.8683 81.7827 34.8172 82.0053 34.8123C82.2212 34.8148 82.4343 34.8624 82.6307 34.9521C82.8271 35.0418 83.0025 35.1716 83.1457 35.3333C83.2889 35.4949 83.3966 35.6847 83.462 35.8905C83.5274 36.0962 83.5491 36.3134 83.5255 36.5281ZM80.8586 36.5814C80.8586 37.3015 81.2497 37.9504 81.9431 37.9504C82.6365 37.9504 83.0187 37.3104 83.0187 36.5458C83.0187 35.7813 82.672 35.1679 81.9431 35.1679C81.2141 35.1679 80.9029 35.8347 80.9029 36.5814H80.8586Z" fill="white"/>
<path d="M84.3423 34.9101C84.6363 34.8637 84.9337 34.8428 85.2313 34.8479C85.5685 34.8218 85.9036 34.9198 86.1736 35.1235C86.2743 35.2116 86.3538 35.3214 86.4061 35.4445C86.4584 35.5676 86.4822 35.701 86.4759 35.8346C86.4828 35.9665 86.4628 36.0984 86.4169 36.2222C86.3711 36.3461 86.3003 36.4592 86.2091 36.5547C86.0717 36.6838 85.9094 36.7835 85.7321 36.8477C85.5548 36.9119 85.3662 36.9392 85.178 36.9281C85.0597 36.938 84.9407 36.938 84.8224 36.9281V38.2793H84.3868L84.3423 34.9101ZM84.7779 36.5458C84.8991 36.5564 85.0211 36.5564 85.1424 36.5458C85.6669 36.5458 86.0314 36.2969 86.0314 35.8258C86.0314 35.3546 85.7113 35.1679 85.2313 35.1679C85.0926 35.1491 84.9521 35.1491 84.8135 35.1679L84.7779 36.5458Z" fill="white"/>
<path d="M90.04 36.768C90.04 36.2969 89.9866 35.7279 89.9866 35.3101C89.8681 35.7013 89.7259 36.128 89.5599 36.5903L88.9555 38.2349H88.6266L88.0843 36.6258C87.9281 36.1953 87.7975 35.756 87.6931 35.3101C87.6931 35.7279 87.6932 36.2969 87.6309 36.8036L87.5419 38.2526H87.1241L87.3642 34.8745H87.9154L88.4932 36.5102C88.6354 36.9192 88.751 37.2926 88.8399 37.6481C88.9288 37.3014 89.0444 36.937 89.1955 36.5102L89.8 34.8745H90.3601L90.5645 38.2526H90.1378L90.04 36.768Z" fill="white"/>
<path d="M91.4879 34.9101C91.7672 34.8662 92.0497 34.8453 92.3324 34.8479C92.6696 34.8218 93.0048 34.9198 93.2748 35.1235C93.3754 35.2116 93.4549 35.3214 93.5072 35.4445C93.5596 35.5676 93.5834 35.701 93.577 35.8346C93.584 35.9665 93.5639 36.0984 93.5181 36.2222C93.4722 36.3461 93.4015 36.4592 93.3104 36.5547C93.1729 36.6838 93.0105 36.7835 92.8332 36.8477C92.6559 36.9119 92.4674 36.9392 92.2791 36.9281C92.1608 36.938 92.0418 36.938 91.9235 36.9281V38.2793H91.4879V34.9101ZM91.9235 36.5458C92.0448 36.5564 92.1668 36.5564 92.288 36.5458C92.8125 36.5458 93.177 36.2969 93.177 35.8258C93.177 35.3546 92.8569 35.1679 92.3769 35.1679C92.2383 35.1491 92.0977 35.1491 91.9591 35.1679L91.9235 36.5458Z" fill="white"/>
<path d="M97.3011 36.5281C97.3289 36.7509 97.3089 36.9772 97.2424 37.1917C97.176 37.4062 97.0646 37.6042 96.9158 37.7723C96.767 37.9405 96.584 38.0751 96.3792 38.1671C96.1743 38.2591 95.9522 38.3065 95.7276 38.306C95.5121 38.3022 95.2997 38.2537 95.104 38.1636C94.9082 38.0734 94.7334 37.9435 94.5905 37.7822C94.4475 37.6209 94.3397 37.4317 94.2738 37.2265C94.2079 37.0213 94.1852 36.8047 94.2074 36.5903C94.1839 36.3682 94.207 36.1437 94.275 35.931C94.343 35.7182 94.4546 35.522 94.6026 35.3548C94.7506 35.1875 94.9318 35.053 95.1347 34.9596C95.3375 34.8662 95.5576 34.816 95.7809 34.8123C95.9968 34.8148 96.2099 34.8624 96.4063 34.9521C96.6027 35.0418 96.7781 35.1716 96.9213 35.3333C97.0645 35.4949 97.1722 35.6847 97.2377 35.8905C97.3031 36.0962 97.3247 36.3134 97.3011 36.5281ZM94.6342 36.5814C94.6342 37.3015 95.0253 37.9504 95.7098 37.9504C96.3943 37.9504 96.7944 37.3104 96.7944 36.5458C96.7944 35.7813 96.4477 35.1679 95.7187 35.1679C94.9898 35.1679 94.6786 35.8347 94.6786 36.5814H94.6342Z" fill="white"/>
<path d="M98.038 37.7193C98.2739 37.8626 98.5443 37.9394 98.8203 37.9416C99.2737 37.9416 99.5315 37.7104 99.5315 37.3637C99.5315 37.017 99.3537 36.8659 98.8914 36.6881C98.4291 36.5103 98.0024 36.208 98.0024 35.7369C98.0134 35.6057 98.0508 35.4782 98.1122 35.3619C98.1737 35.2455 98.258 35.1427 98.3601 35.0597C98.4622 34.9767 98.5799 34.9152 98.7064 34.8788C98.8328 34.8424 98.9652 34.8319 99.0958 34.8479C99.3552 34.8379 99.6128 34.8962 99.8427 35.0168L99.7271 35.3724C99.5275 35.2659 99.3044 35.2109 99.0782 35.2124C98.6159 35.2124 98.438 35.488 98.438 35.7191C98.438 35.9502 98.6514 36.1903 99.1136 36.368C99.5759 36.5458 100.003 36.8659 100.003 37.3637C100.003 37.8615 99.6204 38.3416 98.8203 38.3416C98.5092 38.3508 98.2015 38.2739 97.9313 38.1193L98.038 37.7193Z" fill="white"/>
<path d="M102.598 36.6436H101.282V37.8615H102.749V38.226H100.846V34.8656H102.624V35.2301H101.238V36.2969H102.553L102.598 36.6436Z" fill="white"/>
<path d="M105.317 35.239H104.259V34.8656H106.766V35.2301H105.726V38.2438H105.29L105.317 35.239Z" fill="white"/>
<path d="M107.814 34.8656V38.2438H107.379V34.8656H107.814Z" fill="white"/>
<path d="M108.863 34.9101C109.157 34.8637 109.454 34.8428 109.752 34.8479C110.089 34.8218 110.424 34.9198 110.694 35.1235C110.795 35.2116 110.874 35.3214 110.927 35.4445C110.979 35.5676 111.003 35.701 110.997 35.8346C111.003 35.9665 110.983 36.0984 110.938 36.2222C110.892 36.3461 110.821 36.4592 110.73 36.5547C110.592 36.6838 110.43 36.7835 110.253 36.8477C110.075 36.9119 109.887 36.9392 109.699 36.9281C109.58 36.938 109.461 36.938 109.343 36.9281V38.2793H108.907L108.863 34.9101ZM109.299 36.5458C109.42 36.5564 109.542 36.5564 109.663 36.5458C110.188 36.5458 110.552 36.2969 110.552 35.8258C110.552 35.3546 110.232 35.1679 109.752 35.1679C109.613 35.1491 109.473 35.1491 109.334 35.1679L109.299 36.5458Z" fill="white"/>
<path d="M111.725 37.7193C111.96 37.8639 112.231 37.9408 112.507 37.9416C112.952 37.9416 113.218 37.7104 113.218 37.3637C113.218 37.017 113.04 36.8659 112.578 36.6881C112.116 36.5103 111.689 36.208 111.689 35.7369C111.7 35.6057 111.738 35.4782 111.799 35.3619C111.86 35.2455 111.945 35.1427 112.047 35.0597C112.149 34.9767 112.267 34.9152 112.393 34.8788C112.52 34.8424 112.652 34.8319 112.783 34.8479C113.042 34.8379 113.3 34.8962 113.529 35.0168L113.405 35.3724C113.209 35.2656 112.988 35.2105 112.765 35.2124C112.303 35.2124 112.125 35.488 112.125 35.7191C112.125 35.9502 112.329 36.1903 112.8 36.368C113.272 36.5458 113.689 36.8659 113.689 37.3637C113.689 37.8615 113.307 38.3416 112.507 38.3416C112.196 38.3508 111.888 38.2739 111.618 38.1193L111.725 37.7193Z" fill="white"/>
<path d="M117.822 31.0085H52.2763V31.835H117.822V31.0085Z" fill="white"/>
<path d="M117.822 41.6201H52.2763V42.4467H117.822V41.6201Z" fill="white"/>
<path d="M132.122 57.9732C132.233 57.8498 132.371 57.753 132.525 57.6899C132.678 57.6269 132.844 57.5991 133.01 57.6087C133.176 57.601 133.342 57.6296 133.495 57.6926C133.649 57.7555 133.787 57.8513 133.899 57.9732C134.019 58.1017 134.113 58.2527 134.174 58.4175C134.235 58.5824 134.262 58.7577 134.255 58.9333C134.262 59.1062 134.233 59.2786 134.172 59.4404C134.111 59.6022 134.019 59.7502 133.899 59.8756C133.787 59.9987 133.65 60.0958 133.496 60.1603C133.343 60.2248 133.177 60.2551 133.01 60.249C132.844 60.2569 132.678 60.2275 132.524 60.1629C132.37 60.0983 132.233 60.0001 132.122 59.8756C131.893 59.6159 131.772 59.279 131.784 58.9333C131.771 58.582 131.891 58.2389 132.122 57.9732V57.9732Z" stroke="white" stroke-width="0.147739" stroke-miterlimit="10"/>
<path d="M138.032 74.7172H128.904V72.4953H134.379L128.904 70.4512V68.6737L134.388 66.6207H128.904V64.3988H138.032V67.0651L131.713 69.6247L138.032 72.1576V74.7172Z" stroke="white" stroke-width="0.147739" stroke-miterlimit="10"/>
<path d="M138.032 78.5033H132.566C132.111 78.4739 131.663 78.6202 131.313 78.9121C131.156 79.0643 131.035 79.2492 130.959 79.4535C130.882 79.6578 130.851 79.8765 130.868 80.0941C130.853 80.3129 130.884 80.5325 130.961 80.738C131.038 80.9434 131.158 81.13 131.313 81.285C131.484 81.4336 131.683 81.547 131.898 81.6187C132.113 81.6903 132.34 81.7189 132.566 81.7028H138.032V83.9246H132.584C131.859 83.9491 131.142 83.7705 130.513 83.4092C129.965 83.0747 129.524 82.5905 129.242 82.0138C128.952 81.4003 128.806 80.7284 128.815 80.0497C128.801 79.3829 128.944 78.7221 129.233 78.1211C129.516 77.5557 129.962 77.0881 130.513 76.7791C131.145 76.4265 131.861 76.2544 132.584 76.2814H138.032V78.5033Z" stroke="white" stroke-width="0.147739" stroke-miterlimit="10"/>
<path d="M129.144 86.9997C129.342 86.4961 129.674 86.0564 130.104 85.7288C130.553 85.4078 131.09 85.2339 131.642 85.2311V87.5951C131.347 87.6082 131.07 87.7358 130.868 87.9506C130.683 88.1646 130.588 88.4415 130.602 88.7238C130.587 89.0033 130.669 89.2792 130.833 89.506C130.907 89.6014 131.003 89.6772 131.113 89.7268C131.223 89.7763 131.343 89.7982 131.464 89.7904C131.566 89.7947 131.668 89.7771 131.763 89.7388C131.858 89.7004 131.944 89.6423 132.015 89.5682C132.173 89.4083 132.297 89.2177 132.379 89.0082C132.506 88.7006 132.616 88.3861 132.708 88.0662C132.854 87.5698 133.038 87.0855 133.259 86.6175C133.443 86.2368 133.718 85.9072 134.059 85.6577C134.467 85.3744 134.958 85.2338 135.454 85.2577C135.834 85.236 136.214 85.3053 136.562 85.4599C136.91 85.6145 137.215 85.8499 137.454 86.1465C137.96 86.8412 138.214 87.6876 138.174 88.5461C138.216 89.4158 137.962 90.2741 137.454 90.9813C137.212 91.2853 136.906 91.5317 136.557 91.7023C136.208 91.873 135.825 91.9637 135.436 91.9678V89.5593C135.569 89.558 135.701 89.5288 135.821 89.4737C135.942 89.4186 136.05 89.3388 136.139 89.2393C136.312 89.0202 136.401 88.7455 136.387 88.4661C136.397 88.2311 136.322 88.0005 136.174 87.8173C136.096 87.7347 136 87.6703 135.894 87.6288C135.788 87.5873 135.674 87.5698 135.561 87.5774C135.419 87.5743 135.279 87.6109 135.156 87.6831C135.034 87.7554 134.934 87.8603 134.868 87.9862C134.646 88.4026 134.468 88.8403 134.334 89.2926C134.176 89.7814 133.986 90.2593 133.766 90.7235C133.576 91.1005 133.302 91.4289 132.966 91.6834C132.579 91.9626 132.109 92.1035 131.633 92.0833C131.131 92.0893 130.638 91.9537 130.211 91.6923C129.77 91.4114 129.418 91.0106 129.198 90.5369C128.937 89.9815 128.809 89.3729 128.824 88.7594C128.819 88.1579 128.927 87.5607 129.144 86.9997V86.9997Z" stroke="white" stroke-width="0.147739" stroke-miterlimit="10"/>
<path d="M138.032 95.7094H128.904V93.5231H138.032V95.7094Z" stroke="white" stroke-width="0.147739" stroke-miterlimit="10"/>
<path d="M135.881 97.5314C136.577 97.9066 137.151 98.4743 137.534 99.1667C137.94 99.8905 138.146 100.71 138.129 101.54C138.15 102.54 137.837 103.519 137.241 104.321C136.668 105.096 135.84 105.644 134.903 105.868V103.424C135.27 103.261 135.58 102.992 135.792 102.651C135.993 102.305 136.097 101.912 136.094 101.513C136.105 101.2 136.046 100.888 135.922 100.601C135.797 100.313 135.61 100.057 135.374 99.851C134.841 99.4041 134.158 99.1755 133.463 99.2111C132.768 99.1746 132.085 99.4033 131.553 99.851C131.317 100.057 131.129 100.313 131.005 100.601C130.88 100.888 130.822 101.2 130.833 101.513C130.829 101.912 130.934 102.305 131.135 102.651C131.345 102.994 131.655 103.264 132.024 103.424V105.868C131.087 105.644 130.259 105.096 129.686 104.321C129.093 103.517 128.781 102.539 128.798 101.54C128.785 100.71 128.991 99.892 129.393 99.1667C129.775 98.4767 130.345 97.9096 131.037 97.5314C131.776 97.131 132.606 96.9289 133.446 96.9448C134.295 96.9251 135.134 97.1273 135.881 97.5314V97.5314Z" stroke="white" stroke-width="0.147739" stroke-miterlimit="10"/>
<path d="M132.122 110.205C132.233 110.081 132.37 109.982 132.524 109.918C132.678 109.853 132.844 109.824 133.01 109.832C133.177 109.826 133.343 109.856 133.496 109.92C133.65 109.985 133.787 110.082 133.899 110.205C134.019 110.333 134.113 110.485 134.174 110.649C134.235 110.814 134.262 110.99 134.255 111.165C134.262 111.338 134.233 111.51 134.172 111.672C134.111 111.834 134.019 111.982 133.899 112.107C133.787 112.229 133.649 112.325 133.495 112.388C133.342 112.451 133.176 112.48 133.01 112.472C132.844 112.482 132.678 112.454 132.525 112.391C132.371 112.328 132.233 112.231 132.122 112.107C131.893 111.848 131.772 111.511 131.784 111.165C131.771 110.814 131.891 110.471 132.122 110.205V110.205Z" stroke="white" stroke-width="0.147739" stroke-miterlimit="10"/>
<path d="M37.8968 112.054C37.7858 112.179 37.6484 112.277 37.4946 112.341C37.3408 112.406 37.1744 112.435 37.0078 112.427C36.8414 112.434 36.6757 112.403 36.5222 112.339C36.3687 112.274 36.231 112.177 36.1188 112.054C35.8822 111.792 35.7577 111.447 35.7721 111.094C35.7595 110.747 35.8841 110.408 36.1188 110.152C36.2315 110.03 36.3694 109.934 36.523 109.871C36.6765 109.808 36.842 109.779 37.0078 109.787C37.1738 109.778 37.3399 109.805 37.4938 109.868C37.6476 109.931 37.7853 110.028 37.8968 110.152C38.1316 110.408 38.2561 110.747 38.2435 111.094C38.2579 111.447 38.1335 111.792 37.8968 112.054V112.054Z" stroke="white" stroke-width="0.147739" stroke-miterlimit="10"/>
<path d="M31.9949 95.3006H41.1579V97.5225H35.6832L41.1579 99.5666V101.344L35.6654 103.397H41.1579V105.619H32.0216V102.953L38.3406 100.384L32.0216 97.8513L31.9949 95.3006Z" stroke="white" stroke-width="0.147739" stroke-miterlimit="10"/>
<path d="M31.9949 91.4968H37.4607C37.9166 91.5264 38.3671 91.3837 38.7228 91.0968C38.877 90.9411 38.9964 90.7544 39.073 90.5491C39.1496 90.3438 39.1817 90.1246 39.1671 89.9059C39.1806 89.6873 39.1479 89.4684 39.0713 89.2633C38.9948 89.0581 38.8761 88.8713 38.7228 88.715C38.372 88.4177 37.9196 88.268 37.4607 88.2973H31.9949V86.0754H37.4429C38.1679 86.0495 38.8855 86.2282 39.5138 86.5909C40.0666 86.926 40.5109 87.4136 40.7935 87.9951C41.0843 88.6053 41.2303 89.2744 41.2201 89.9503C41.2314 90.6178 41.0853 91.2785 40.7935 91.8789C40.5176 92.4483 40.0742 92.9197 39.5227 93.2298C38.885 93.5742 38.1672 93.7429 37.4429 93.7186H31.9949V91.4968Z" stroke="white" stroke-width="0.147739" stroke-miterlimit="10"/>
<path d="M40.8913 83.0004C40.6967 83.5056 40.3642 83.9459 39.9314 84.2713C39.4847 84.596 38.9462 84.7703 38.3939 84.769V82.4049C38.686 82.3906 38.9621 82.2668 39.1671 82.0583C39.3501 81.8398 39.4452 81.561 39.4338 81.2762C39.4508 80.9978 39.3724 80.7219 39.2116 80.4941C39.1358 80.4009 39.0392 80.3267 38.9296 80.2773C38.8201 80.228 38.7006 80.2048 38.5805 80.2097C38.4768 80.2047 38.3731 80.2219 38.2765 80.2602C38.18 80.2985 38.0927 80.3571 38.0206 80.4319C37.8649 80.5938 37.7413 80.7838 37.6563 80.9918C37.5307 81.3 37.4209 81.6144 37.3274 81.9338C37.1838 82.4298 37.0025 82.9141 36.7852 83.3825C36.5959 83.7623 36.3187 84.0913 35.9766 84.3424C35.5709 84.6244 35.0836 84.7649 34.5901 84.7423C34.2101 84.764 33.8304 84.6947 33.4826 84.5401C33.1348 84.3856 32.8289 84.1502 32.5904 83.8535C32.0857 83.1549 31.832 82.3061 31.8705 81.445C31.8288 80.5753 32.0824 79.7171 32.5904 79.0099C32.8299 78.7055 33.1348 78.4589 33.4825 78.2881C33.8301 78.1174 34.2116 78.0269 34.5989 78.0233V80.4319C34.4676 80.4344 34.3381 80.4641 34.2188 80.5192C34.0995 80.5743 33.9929 80.6535 33.9057 80.7518C33.7301 80.9705 33.6388 81.2448 33.648 81.525C33.638 81.76 33.7138 81.9906 33.8613 82.1738C33.9409 82.2578 34.0376 82.3236 34.145 82.3665C34.2524 82.4095 34.3679 82.4286 34.4834 82.4227C34.625 82.4232 34.7639 82.3845 34.8847 82.3107C35.0055 82.237 35.1036 82.1311 35.1678 82.0049C35.3945 81.5911 35.5734 81.1528 35.701 80.6985C35.8621 80.2094 36.0551 79.7314 36.2787 79.2676C36.463 78.8898 36.7341 78.5609 37.0697 78.3077C37.4593 78.0272 37.9321 77.8863 38.4117 77.9078C38.91 77.9035 39.3996 78.039 39.8248 78.2989C40.2656 78.5797 40.6171 78.9805 40.838 79.4542C41.1052 80.0078 41.2362 80.6172 41.2201 81.2317C41.229 81.8373 41.1172 82.4385 40.8913 83.0004V83.0004Z" stroke="white" stroke-width="0.147739" stroke-miterlimit="10"/>
<path d="M31.9949 74.2906H41.1579V76.5125H32.0216L31.9949 74.2906Z" stroke="white" stroke-width="0.147739" stroke-miterlimit="10"/>
<path d="M34.1369 72.4686C33.4443 72.0883 32.8717 71.5219 32.4839 70.8334C32.0845 70.1071 31.8822 69.289 31.8973 68.4604C31.8805 67.4608 32.1928 66.4833 32.786 65.6786C33.3619 64.9032 34.1927 64.3556 35.1323 64.1322V66.5762C34.7655 66.7394 34.4559 67.0087 34.2436 67.3495C34.0395 67.6934 33.9349 68.0872 33.9414 68.4871C33.9315 68.8005 33.99 69.1123 34.1127 69.4008C34.2355 69.6894 34.4198 69.9477 34.6525 70.1579C35.19 70.5963 35.8703 70.821 36.5632 70.7889C37.259 70.8223 37.9427 70.5976 38.4829 70.1579C38.7156 69.9477 38.8998 69.6894 39.0226 69.4008C39.1453 69.1123 39.2039 68.8005 39.194 68.4871C39.2005 68.0872 39.0958 67.6934 38.8917 67.3495C38.6794 67.0087 38.3698 66.7394 38.003 66.5762V64.1322C38.9409 64.354 39.7694 64.9021 40.3404 65.6786C40.9336 66.4833 41.2459 67.4608 41.2291 68.4604C41.2457 69.2903 41.0402 70.1096 40.6337 70.8334C40.2518 71.5233 39.6816 72.0904 38.9896 72.4686C38.2509 72.869 37.421 73.0711 36.581 73.0552C35.7292 73.0753 34.8869 72.8731 34.1369 72.4686V72.4686Z" stroke="white" stroke-width="0.147739" stroke-miterlimit="10"/>
<path d="M37.8967 59.7957C37.7857 59.9202 37.6484 60.0183 37.4946 60.0829C37.3408 60.1475 37.1744 60.1769 37.0078 60.169C36.8414 60.1751 36.6757 60.1448 36.5221 60.0803C36.3686 60.0158 36.231 59.9187 36.1188 59.7957C35.9078 59.5321 35.8032 59.1991 35.8255 58.8622C35.8134 58.5122 35.9377 58.1712 36.1722 57.911C36.2859 57.7905 36.424 57.6957 36.5773 57.6328C36.7306 57.57 36.8956 57.5405 37.0611 57.5465C37.2269 57.5388 37.3924 57.5674 37.546 57.6303C37.6996 57.6933 37.8375 57.7891 37.9501 57.911C38.1846 58.1712 38.3089 58.5122 38.2968 58.8622C38.2899 59.2135 38.1464 59.5484 37.8967 59.7957V59.7957Z" stroke="white" stroke-width="0.147739" stroke-miterlimit="10"/>
<path d="M87.5774 10.6922C87.4605 10.5774 87.3703 10.4382 87.3134 10.2845C87.2565 10.1308 87.2344 9.96647 87.2485 9.80321C87.2475 9.63414 87.2836 9.4669 87.3542 9.3133C87.4249 9.1597 87.5284 9.02347 87.6574 8.91423C87.9339 8.6871 88.2875 8.57561 88.6443 8.60308C88.82 8.6044 88.9936 8.64042 89.1553 8.70907C89.317 8.77773 89.4636 8.87765 89.5865 9.00312C89.6989 9.1212 89.786 9.26093 89.8425 9.41376C89.8991 9.5666 89.9239 9.72935 89.9155 9.8921C89.9119 10.0536 89.8726 10.2123 89.8003 10.3568C89.7281 10.5013 89.6247 10.628 89.4977 10.7277C89.2285 10.9555 88.8801 11.0674 88.5287 11.0389C88.1788 11.05 87.8381 10.9259 87.5774 10.6922Z" fill="#060606"/>
<path d="M106.268 15.5976L102.953 14.6466L101.966 16.0597L99.7 15.4109L105.468 7.41217L107.974 8.13206L108.641 17.9083L106.348 17.2506L106.268 15.5976ZM106.188 13.7667L106.028 10.2117L104.001 13.1535L106.188 13.7667Z" fill="#060606"/>
<path d="M127.856 21.6677C127.388 21.9215 126.856 22.0298 126.327 21.9788C125.69 21.9065 125.08 21.6808 124.549 21.3211L123.367 20.5834L121.59 23.4008L119.679 22.2188L124.567 14.3622L127.66 16.2908C128.22 16.6125 128.696 17.0634 129.046 17.6061C129.336 18.0524 129.482 18.5766 129.464 19.1081C129.435 19.6429 129.267 20.1607 128.975 20.6101C128.702 21.055 128.315 21.4199 127.856 21.6677ZM126.282 19.9613C126.434 19.9222 126.577 19.8523 126.7 19.756C126.824 19.6597 126.927 19.539 127.002 19.4014C127.093 19.2743 127.157 19.1296 127.189 18.9766C127.221 18.8237 127.221 18.6657 127.189 18.5127C127.079 18.1811 126.843 17.9064 126.531 17.7483L125.491 17.0995L124.265 19.0637L125.305 19.7125C125.443 19.8162 125.601 19.8916 125.769 19.9343C125.937 19.9771 126.111 19.9862 126.282 19.9613Z" fill="#060606"/>
<path d="M142.538 34.6701C142.021 34.7902 141.482 34.7594 140.982 34.5812C140.366 34.3519 139.816 33.9733 139.383 33.4792L138.423 32.4571L136.005 34.7323L134.477 33.0881L141.213 26.7513L143.711 29.4176C144.167 29.8746 144.511 30.4314 144.715 31.044C144.875 31.5502 144.875 32.0932 144.715 32.5993C144.545 33.1158 144.238 33.5764 143.826 33.9324C143.467 34.2838 143.023 34.5377 142.538 34.6701ZM141.445 32.6171C141.61 32.626 141.775 32.5988 141.928 32.5374C142.082 32.476 142.22 32.3819 142.333 32.2616C142.453 32.1596 142.55 32.0347 142.621 31.8942C142.691 31.7538 142.732 31.6007 142.742 31.4439C142.711 31.1022 142.553 30.7848 142.298 30.5552L141.462 29.6664L139.774 31.2573L140.609 32.1461C140.822 32.3987 141.118 32.566 141.445 32.6171Z" fill="#060606"/>
<path d="M153.683 46.5171L152.047 47.4059L153.505 50.0721L151.985 50.9609L150.528 48.2946L148.75 49.2812L150.403 52.2585L148.83 53.1472L146.084 48.188L154.171 43.7442L156.918 48.6946L155.336 49.5833L153.683 46.5171Z" fill="#060606"/>
<path d="M162.917 67.7494C162.726 68.5249 162.319 69.2305 161.744 69.7846C161.123 70.3561 160.363 70.7546 159.539 70.94C158.724 71.1579 157.866 71.1579 157.051 70.94C156.28 70.7244 155.588 70.289 155.06 69.6868C154.485 69.0149 154.082 68.2125 153.887 67.3494L153.061 63.9811L162.037 61.777L162.917 65.0831C163.143 65.9575 163.143 66.875 162.917 67.7494ZM156.9 68.4959C157.215 68.6724 157.562 68.7831 157.921 68.8213C158.28 68.8595 158.643 68.8244 158.988 68.7181C159.349 68.6563 159.692 68.521 159.998 68.3207C160.304 68.1204 160.565 67.8594 160.766 67.5538C160.943 67.2359 161.054 66.885 161.091 66.5228C161.127 66.1605 161.089 65.7946 160.979 65.4475L160.73 64.4077L155.514 65.6964L155.762 66.7362C155.829 67.0901 155.966 67.4269 156.166 67.7263C156.366 68.0257 156.625 68.2815 156.927 68.4782L156.9 68.4959Z" fill="#060606"/>
<path d="M165.583 86.8575L160.055 86.6264C159.593 86.5768 159.129 86.7038 158.757 86.9819C158.595 87.1319 158.466 87.315 158.38 87.5189C158.294 87.7228 158.253 87.9428 158.26 88.164C158.238 88.3849 158.262 88.608 158.331 88.819C158.4 89.0301 158.512 89.2247 158.659 89.3904C159.002 89.7069 159.455 89.8761 159.922 89.8615L165.45 90.0925L165.352 92.3411L159.842 92.1189C159.108 92.112 158.39 91.8995 157.771 91.5057C157.227 91.1418 156.798 90.6299 156.535 90.0303C156.264 89.4003 156.146 88.7152 156.189 88.0306C156.203 87.3567 156.376 86.6957 156.695 86.1021C157.001 85.5388 157.468 85.0805 158.037 84.7867C158.698 84.4679 159.43 84.327 160.162 84.3779L165.672 84.609L165.583 86.8575Z" fill="#060606"/>
<path d="M156.909 104.064C157.04 103.982 157.187 103.928 157.34 103.906C157.493 103.883 157.648 103.891 157.798 103.93C157.958 103.972 158.108 104.047 158.237 104.151C158.366 104.256 158.471 104.386 158.545 104.535C158.625 104.692 158.673 104.863 158.687 105.038C158.701 105.214 158.679 105.39 158.625 105.557C158.585 105.728 158.512 105.889 158.41 106.031C158.308 106.173 158.178 106.293 158.029 106.384C157.889 106.472 157.731 106.528 157.567 106.55C157.403 106.571 157.236 106.557 157.078 106.508C156.921 106.469 156.775 106.396 156.649 106.295C156.523 106.194 156.421 106.066 156.349 105.922C156.188 105.605 156.159 105.237 156.269 104.899C156.315 104.725 156.395 104.561 156.505 104.418C156.615 104.274 156.752 104.154 156.909 104.064Z" fill="#060606"/>
<path d="M151.95 130.122L143.951 125.465L145.08 123.518L149.87 126.309L146.128 121.732L147.017 120.159L152.865 121.163L148.066 118.364L149.203 116.417L157.202 121.074L155.86 123.376L149.026 122.39L153.256 127.838L151.95 130.122Z" fill="#060606"/>
<path d="M140.467 144.04L136.761 139.943C136.476 139.573 136.058 139.331 135.596 139.267C135.376 139.254 135.155 139.29 134.949 139.371C134.743 139.452 134.558 139.578 134.406 139.738C134.231 139.874 134.088 140.046 133.985 140.243C133.882 140.439 133.823 140.655 133.81 140.876C133.821 141.343 134.016 141.787 134.352 142.111L138.058 146.217L136.387 147.728L132.699 143.631C132.192 143.1 131.841 142.438 131.686 141.72C131.56 141.081 131.624 140.42 131.873 139.818C132.134 139.183 132.538 138.617 133.055 138.165C133.547 137.703 134.141 137.363 134.788 137.17C135.399 136.983 136.052 136.983 136.663 137.17C137.353 137.414 137.967 137.838 138.44 138.396L142.138 142.493L140.467 144.04Z" fill="#060606"/>
<path d="M118.577 148.252C119.124 148.202 119.675 148.303 120.168 148.546C120.662 148.804 121.063 149.211 121.314 149.71L119.172 150.785C119.027 150.526 118.789 150.332 118.506 150.243C118.226 150.176 117.93 150.218 117.679 150.359C117.418 150.469 117.205 150.667 117.075 150.919C117.018 151.027 116.988 151.147 116.988 151.27C116.988 151.392 117.018 151.512 117.075 151.621C117.119 151.716 117.183 151.802 117.263 151.871C117.342 151.94 117.436 151.991 117.537 152.021C117.752 152.089 117.978 152.117 118.204 152.101C118.452 152.101 118.781 152.038 119.208 151.967C119.721 151.873 120.241 151.817 120.763 151.798C121.192 151.8 121.615 151.901 121.999 152.092C122.44 152.331 122.79 152.709 122.994 153.167C123.186 153.505 123.293 153.885 123.306 154.274C123.318 154.662 123.236 155.048 123.065 155.398C122.669 156.183 122.017 156.81 121.216 157.175C120.45 157.607 119.56 157.764 118.692 157.62C118.313 157.538 117.957 157.373 117.649 157.136C117.342 156.899 117.091 156.597 116.915 156.251L119.092 155.158C119.155 155.276 119.242 155.38 119.348 155.463C119.454 155.546 119.576 155.605 119.706 155.638C119.98 155.699 120.268 155.658 120.514 155.522C120.732 155.425 120.906 155.251 121.003 155.033C121.047 154.924 121.065 154.807 121.055 154.69C121.046 154.572 121.01 154.459 120.95 154.358C120.886 154.228 120.787 154.119 120.665 154.042C120.542 153.965 120.401 153.924 120.257 153.923C119.783 153.914 119.31 153.953 118.844 154.038C118.326 154.118 117.803 154.162 117.279 154.171C116.854 154.173 116.434 154.075 116.053 153.887C115.621 153.665 115.279 153.301 115.084 152.856C114.85 152.408 114.748 151.902 114.791 151.398C114.849 150.871 115.052 150.369 115.377 149.95C115.76 149.46 116.254 149.067 116.817 148.803C117.362 148.507 117.96 148.32 118.577 148.252Z" fill="#060606"/>
<path d="M103.646 163.423L101.38 154.465L103.566 153.914L105.832 162.846L103.646 163.423Z" fill="#060606"/>
<path d="M90.0391 163.37C89.669 164.079 89.105 164.667 88.4127 165.067C87.6847 165.484 86.8608 165.705 86.0219 165.707C85.0116 165.752 84.0149 165.461 83.1869 164.881C82.3949 164.311 81.8286 163.48 81.5871 162.535H84.0578C84.2295 162.904 84.5081 163.214 84.8577 163.423C85.2075 163.627 85.6086 163.726 86.013 163.708C86.3307 163.714 86.6459 163.651 86.9363 163.522C87.2266 163.393 87.485 163.201 87.6928 162.961C88.1309 162.411 88.3495 161.717 88.3061 161.015C88.3286 160.309 88.0843 159.62 87.6217 159.086C87.407 158.853 87.1435 158.67 86.8501 158.55C86.5568 158.431 86.2407 158.377 85.9242 158.393C85.5203 158.396 85.1245 158.506 84.7777 158.713C84.4402 158.927 84.1741 159.236 84.0134 159.602H81.5338C81.7467 158.65 82.2878 157.803 83.0624 157.211C83.8772 156.617 84.8631 156.305 85.8709 156.322C86.7085 156.299 87.5378 156.492 88.2794 156.882C88.9857 157.257 89.569 157.828 89.9591 158.526C90.3792 159.265 90.5968 160.102 90.5901 160.953C90.6129 161.792 90.4234 162.623 90.0391 163.37Z" fill="#060606"/>
<path d="M69.3676 157.78C69.4561 157.908 69.5175 158.053 69.548 158.206C69.5786 158.359 69.5777 158.516 69.5453 158.669C69.512 158.831 69.445 158.985 69.3485 159.12C69.252 159.254 69.1283 159.367 68.9854 159.451C68.6729 159.63 68.302 159.678 67.9541 159.584C67.7757 159.556 67.6049 159.492 67.4521 159.396C67.2993 159.299 67.1677 159.173 67.0651 159.024C66.9713 158.888 66.907 158.734 66.8764 158.572C66.8458 158.41 66.8495 158.243 66.8873 158.082C66.9223 157.923 66.9903 157.772 67.0867 157.641C67.1832 157.509 67.306 157.399 67.4473 157.318C67.7528 157.146 68.1137 157.101 68.4519 157.193C68.6367 157.223 68.8134 157.29 68.9709 157.391C69.1285 157.492 69.2635 157.624 69.3676 157.78Z" fill="#060606"/>
<path d="M49.45 152.785C49.8858 152.481 50.4027 152.313 50.9342 152.305C51.5895 152.294 52.2372 152.446 52.8184 152.749L54.0805 153.345L55.5024 150.35L57.5377 151.31L53.5738 159.664L50.2766 158.1C49.6847 157.846 49.1633 157.453 48.7569 156.953C48.4163 156.546 48.2112 156.043 48.1702 155.513C48.1406 154.977 48.2476 154.442 48.4813 153.958C48.695 153.488 49.0292 153.084 49.45 152.785ZM51.2275 154.305C51.0803 154.359 50.9459 154.443 50.8327 154.551C50.7195 154.66 50.63 154.791 50.5698 154.936C50.4299 155.211 50.4013 155.529 50.4899 155.824C50.6428 156.136 50.9055 156.38 51.2275 156.509L52.3384 157.033L53.3338 154.936L52.2229 154.411C52.0701 154.326 51.9015 154.272 51.7273 154.254C51.5531 154.235 51.3771 154.253 51.2098 154.305H51.2275Z" fill="#060606"/>
<path d="M37.9673 138.441L37.1586 142.351L37.5762 142.698L39.8426 140.031L41.5489 141.498L35.5499 148.528L32.6703 146.075C32.1713 145.671 31.7728 145.157 31.5061 144.573C31.2818 144.09 31.2134 143.55 31.3106 143.026C31.4034 142.518 31.634 142.044 31.9772 141.658C32.3582 141.212 32.8722 140.901 33.4435 140.769C34.0604 140.631 34.7059 140.706 35.2744 140.982L36.0298 136.814L37.9673 138.441ZM36.5365 143.906L35.4788 143.018C35.241 142.784 34.9231 142.651 34.5901 142.644C34.277 142.685 33.9928 142.848 33.7991 143.098C33.693 143.208 33.6113 143.339 33.5593 143.483C33.5072 143.627 33.486 143.78 33.4969 143.933C33.5509 144.264 33.7327 144.561 34.0034 144.76L35.07 145.648L36.5365 143.906Z" fill="#060606"/>
<path d="M26.1559 126.354C26.2191 127.173 26.0561 127.994 25.6849 128.726C25.3049 129.495 24.7207 130.144 23.9962 130.602C23.288 131.083 22.4608 131.36 21.6056 131.402C20.7882 131.447 19.974 131.269 19.2503 130.886C18.5221 130.494 17.9093 129.918 17.4728 129.215C17.0062 128.522 16.7275 127.72 16.6641 126.887C16.6046 126.074 16.7675 125.259 17.1351 124.532C17.522 123.77 18.1089 123.128 18.8327 122.674C19.5414 122.191 20.3674 121.909 21.2233 121.856C22.0398 121.808 22.854 121.984 23.5785 122.363C24.3031 122.756 24.9149 123.329 25.356 124.025C25.8199 124.719 26.0955 125.521 26.1559 126.354ZM22.0499 124.078C21.343 123.984 20.6268 124.165 20.0502 124.585C19.4349 124.95 18.9807 125.534 18.7793 126.22C18.6998 126.54 18.6914 126.874 18.7543 127.198C18.8173 127.522 18.9501 127.828 19.1437 128.095C19.3111 128.383 19.5395 128.631 19.8128 128.822C20.086 129.012 20.3976 129.14 20.7257 129.198C21.4377 129.287 22.1567 129.099 22.7343 128.673C23.3502 128.313 23.8049 127.731 24.0051 127.047C24.0843 126.724 24.0928 126.387 24.0299 126.06C23.967 125.734 23.8343 125.424 23.6408 125.154C23.4705 124.869 23.2398 124.625 22.9649 124.439C22.69 124.253 22.3777 124.13 22.0499 124.078Z" fill="#060606"/>
<path d="M7.8477 105.708C7.99675 104.923 8.37388 104.2 8.93194 103.628C9.52618 103.029 10.2681 102.596 11.0828 102.375C11.8852 102.12 12.7409 102.083 13.5623 102.268C14.3437 102.451 15.0544 102.859 15.6065 103.442C16.213 104.086 16.6498 104.871 16.8774 105.726L17.855 109.05L8.96753 111.645L7.99871 108.321C7.73207 107.476 7.68021 106.578 7.8477 105.708ZM13.8201 104.704C13.4977 104.54 13.1456 104.444 12.7851 104.422C12.4245 104.399 12.063 104.449 11.7226 104.57C11.3685 104.651 11.0344 104.802 10.741 105.016C10.4476 105.23 10.2009 105.502 10.0162 105.815C9.85323 106.139 9.75823 106.493 9.73683 106.855C9.71544 107.217 9.76809 107.58 9.89175 107.921L10.194 108.943L15.3487 107.441L15.0465 106.419C14.9666 106.066 14.8169 105.732 14.6063 105.438C14.3957 105.143 14.1284 104.893 13.8201 104.704Z" fill="#060606"/>
<path d="M4.4525 86.9286L9.9806 86.8397C10.4449 86.8664 10.9011 86.7101 11.2515 86.4042C11.4043 86.2461 11.5222 86.0575 11.5972 85.8508C11.6723 85.644 11.7028 85.4238 11.6869 85.2044C11.6972 84.9812 11.6605 84.7584 11.5794 84.5502C11.4983 84.342 11.3745 84.1531 11.216 83.9957C10.8557 83.6982 10.3927 83.5545 9.92723 83.5958L4.39923 83.6847V81.4361L9.91833 81.3473C10.6496 81.3092 11.3767 81.4787 12.0158 81.8361C12.5801 82.1639 13.0371 82.6487 13.3311 83.2314C13.6381 83.844 13.7994 84.5192 13.8022 85.2044C13.8231 85.8813 13.6862 86.5538 13.4023 87.1686C13.1304 87.7498 12.6868 88.2337 12.1313 88.555C11.4965 88.9193 10.7745 89.1037 10.0428 89.0883L4.52367 89.1771L4.4525 86.9286Z" fill="#060606"/>
<path d="M8.6741 66.5496C8.1074 65.9838 7.71299 65.2688 7.53659 64.4877C7.36017 63.6685 7.39689 62.8178 7.64323 62.0169C7.90227 61.041 8.47729 60.1784 9.2785 59.564C10.0607 58.9786 11.022 58.6832 11.998 58.7286L11.296 61.1015C10.8976 61.1592 10.5258 61.3357 10.2294 61.6081C9.93279 61.8822 9.71756 62.2328 9.60733 62.6213C9.50698 62.922 9.47402 63.2412 9.51089 63.556C9.54775 63.8709 9.65352 64.1738 9.82063 64.4432C10.2135 65.0312 10.8131 65.45 11.5004 65.6164C12.1634 65.8508 12.8906 65.8254 13.5356 65.5453C13.8237 65.4115 14.0784 65.2152 14.2813 64.9708C14.4842 64.7264 14.6302 64.4399 14.7087 64.1322C14.8194 63.7429 14.8194 63.3305 14.7087 62.9412C14.6061 62.5544 14.3894 62.2076 14.0867 61.9458L14.7887 59.5729C15.633 60.058 16.2784 60.8261 16.6107 61.7414C16.9318 62.6988 16.9318 63.7347 16.6107 64.6921C16.4019 65.5111 15.9785 66.2596 15.3842 66.8606C14.8133 67.4199 14.0951 67.8052 13.3135 67.9716C12.4812 68.146 11.618 68.1032 10.8071 67.8471C9.99579 67.6065 9.2608 67.1594 8.6741 66.5496Z" fill="#060606"/>
<path d="M18.4503 38.5984L19.9791 39.5671L18.6725 41.6379L24.9649 45.6106L23.7563 47.5125L17.4638 43.5398L16.1574 45.6106L14.6288 44.6508L18.4503 38.5984Z" fill="#060606"/>
<path d="M28.2711 27.809L34.8656 34.288L33.2925 35.8877L26.6891 29.4176L28.2711 27.809Z" fill="#060606"/>
<path d="M45.0419 25.2671C44.2207 25.3118 43.403 25.1304 42.6778 24.7428C41.9185 24.326 41.286 23.7119 40.847 22.9653C40.3818 22.2462 40.1236 21.4129 40.1005 20.5568C40.0758 19.7367 40.2755 18.9254 40.6781 18.2105C41.0851 17.4815 41.6728 16.8694 42.3845 16.433C43.0909 15.9898 43.8982 15.7329 44.7308 15.6864C45.5463 15.6423 46.3581 15.8237 47.0771 16.2108C47.8186 16.6327 48.4327 17.2468 48.8546 17.9883C49.3185 18.7086 49.5794 19.5406 49.6101 20.3968C49.6417 21.2126 49.4479 22.0213 49.0501 22.7342C48.6454 23.4649 48.0572 24.0775 47.3437 24.5117C46.6547 24.9584 45.8616 25.2187 45.0419 25.2671ZM47.4149 21.2144C47.5209 20.5105 47.3557 19.7926 46.9527 19.2059C46.6048 18.583 46.0328 18.1159 45.3529 17.8994C45.0334 17.8132 44.6992 17.7964 44.3727 17.8501C44.0462 17.9037 43.735 18.0266 43.4599 18.2105C43.1709 18.3754 42.9206 18.6004 42.7259 18.8702C42.5312 19.14 42.3966 19.4484 42.3311 19.7747C42.2225 20.4827 42.3913 21.2054 42.8022 21.7921C43.1501 22.415 43.7222 22.8821 44.402 23.0986C44.7234 23.1854 45.0597 23.2018 45.388 23.1465C45.7162 23.0913 46.0287 22.9658 46.3039 22.7786C46.5849 22.6103 46.8263 22.3834 47.0118 22.1135C47.1974 21.8437 47.3227 21.537 47.3793 21.2144H47.4149Z" fill="#060606"/>
<path d="M70.7799 15.0199L68.6025 15.5887L63.51 11.0294L64.9587 16.5485L62.7812 17.1173L60.4261 8.20316L62.6124 7.63437L67.7049 12.2114L66.2473 6.67451L68.4336 6.09683L70.7799 15.0199Z" fill="#060606"/>
<path d="M96.8914 59.6084C96.5993 58.2067 95.9869 56.8916 95.1019 55.766C94.2168 54.6405 93.0832 53.735 91.79 53.1205C91.6726 53.0388 91.539 52.9831 91.3983 52.9572C91.2576 52.9313 91.113 52.9357 90.9741 52.9702C90.8353 53.0047 90.7054 53.0685 90.5932 53.1573C90.481 53.246 90.389 53.3578 90.3235 53.4849C90.2554 53.6111 90.2162 53.7508 90.2086 53.894C90.2011 54.0371 90.2254 54.1802 90.2798 54.3128C90.3342 54.4454 90.4174 54.5643 90.5234 54.6609C90.6293 54.7575 90.7553 54.8294 90.8923 54.8714C91.938 55.3445 92.8536 56.0637 93.5609 56.9675C94.2682 57.8714 94.7462 58.933 94.954 60.0617C95.6597 63.5499 95.7588 67.1337 95.2472 70.6556C95.1353 72.1411 94.5063 73.5405 93.4697 74.6105C93.3242 74.7675 93.1463 74.8909 92.9483 74.9723C92.7504 75.0536 92.537 75.0909 92.3232 75.0816C87.9683 75.0816 83.6046 75.0016 79.2497 75.0816C78.6995 75.113 78.1523 74.9802 77.6776 74.7002C77.2029 74.4201 76.8221 74.0053 76.5835 73.5085C76.2046 72.8967 75.9368 72.2227 75.7925 71.5177C75.1437 67.9057 75.1437 64.2069 75.7925 60.5949C75.9995 58.9793 76.7304 57.476 77.8733 56.3154C79.0162 55.1549 80.5081 54.401 82.1204 54.1693C83.704 53.8657 85.3216 53.779 86.9286 53.9115C87.1662 53.9675 87.4161 53.9341 87.6308 53.8177C87.8455 53.7014 88.01 53.5102 88.0929 53.2805C88.1513 53.1357 88.173 52.9786 88.1563 52.8234C88.1396 52.6681 88.0849 52.5193 87.9971 52.3901C87.9092 52.261 87.7909 52.1555 87.6526 52.0829C87.5143 52.0103 87.3603 51.973 87.2041 51.9741C85.8339 51.857 84.4553 51.8778 83.0892 52.0363C78.1122 52.4984 74.8237 55.4135 73.8817 60.2839C73.2985 63.7058 73.2296 67.1956 73.6773 70.6378C73.7887 72.7311 74.7174 74.697 76.2636 76.1125C76.765 76.5252 77.1457 77.0656 77.3656 77.6767C77.8544 79.0898 78.8409 80.3429 78.672 81.9871C78.6457 82.1284 78.651 82.2737 78.6878 82.4126C78.7245 82.5515 78.7916 82.6805 78.8843 82.7903C78.9771 82.9 79.0931 82.9877 79.2239 83.0471C79.3548 83.1065 79.4972 83.1361 79.6408 83.1336C80.2008 83.1336 80.6096 82.6981 80.6096 81.9871C80.6096 81.5605 80.7251 81.445 81.1517 81.445C84.0668 81.445 86.9878 81.445 89.9147 81.445C90.3591 81.445 90.4391 81.5872 90.4391 81.996C90.4391 90.8835 90.4391 99.771 90.4391 108.658C90.4391 109.547 90.1725 109.814 89.266 109.823H82.156C80.7784 109.823 80.6451 109.689 80.6451 108.339V86.9552C80.6451 85.8976 80.3429 85.4177 79.6674 85.4177C78.992 85.4177 78.6809 85.8976 78.6809 86.9552V108.401C78.6809 108.614 78.6809 108.836 78.6809 109.05C78.6818 109.566 78.8327 110.071 79.1151 110.503C79.3975 110.935 79.7993 111.276 80.2718 111.485C80.3917 111.53 80.493 111.614 80.5591 111.724C80.6252 111.833 80.6524 111.962 80.6362 112.089C80.6362 112.827 80.6362 113.573 80.6362 114.311C80.7015 115.284 81.0587 116.215 81.6611 116.983C82.2636 117.75 83.0833 118.318 84.0134 118.612C84.209 118.675 84.4578 118.612 84.5911 118.844H86.2887C86.3598 118.684 86.5109 118.746 86.6264 118.71C87.5476 118.504 88.388 118.032 89.0436 117.352C89.6991 116.673 90.1411 115.817 90.3147 114.889C90.4408 113.982 90.4735 113.065 90.4125 112.151C90.4125 111.92 90.3591 111.671 90.6524 111.538C91.2413 111.284 91.7325 110.847 92.0527 110.291C92.373 109.735 92.5053 109.091 92.4299 108.454C92.4299 99.4185 92.4299 90.374 92.4299 81.3206C92.3953 81.0402 92.4196 80.7557 92.501 80.4851C93.0254 79.2587 93.5409 78.0411 94.083 76.8324C94.1642 76.68 94.2836 76.5514 94.4295 76.4591C95.6435 75.4842 96.528 74.1592 96.9626 72.6642C97.4429 70.9285 97.6675 69.1321 97.6291 67.3317C97.7309 64.7358 97.4827 62.1381 96.8914 59.6084ZM88.3416 112.249C88.3416 112.924 88.3416 113.6 88.3416 114.267C88.2857 114.992 87.9581 115.669 87.4242 116.164C86.8904 116.658 86.1896 116.933 85.4621 116.933C84.7254 116.946 84.0114 116.678 83.4662 116.182C82.921 115.686 82.5858 115.001 82.5293 114.267C82.4671 113.573 82.5293 112.88 82.5293 112.187C82.5293 111.885 82.6448 111.831 82.9114 111.831C83.8001 111.831 84.6889 111.831 85.5244 111.831C86.3598 111.831 87.1774 111.831 88.0039 111.831C88.2616 111.796 88.3505 111.92 88.3416 112.249ZM90.7235 79.312C90.6258 79.552 90.4213 79.5164 90.2258 79.5164H80.5562C80.2896 79.5164 80.1207 79.5164 80.0052 79.1965C79.7296 78.4855 79.4186 77.8011 79.1164 77.0368H91.71C91.3545 77.8189 91.0346 78.5654 90.7235 79.3031V79.312Z" fill="url(#paint1_linear_145_5338)"/>
<path d="M70.3267 99.4066C70.5756 99.1005 70.7265 98.7265 70.7598 98.3334C70.7931 97.9402 70.7073 97.5462 70.5134 97.2025C70.3334 96.8501 70.0515 96.5599 69.7044 96.3697C69.3573 96.1795 68.961 96.0981 68.567 96.136C67.5627 96.136 66.5673 96.1982 65.563 96.2516C65.2185 96.2903 64.87 96.2327 64.5563 96.0852C64.2425 95.9377 63.9756 95.7061 63.7855 95.4161C63.2167 94.6429 62.6391 93.8875 62.0792 93.1054C61.8717 92.7559 61.5646 92.4762 61.1973 92.3021C60.83 92.128 60.4192 92.0673 60.0173 92.1278C59.5927 92.1887 59.1983 92.3822 58.8903 92.6807C58.5822 92.9792 58.3763 93.3673 58.302 93.7897C58.0443 94.6785 57.7599 95.6206 57.5199 96.5449C57.4421 96.8851 57.2725 97.1975 57.0297 97.4482C56.7868 97.6989 56.4799 97.8783 56.1423 97.9669C55.3958 98.1979 54.6759 98.5179 53.9204 98.7045C53.4739 98.7873 53.054 98.9769 52.6966 99.257C52.3391 99.5371 52.0547 99.8994 51.8675 100.313V101.353C52.1629 102.006 52.6618 102.545 53.2895 102.891C53.956 103.299 54.5781 103.779 55.2447 104.188C55.569 104.371 55.8356 104.641 56.0146 104.968C56.1936 105.295 56.2779 105.665 56.2579 106.037C56.2579 106.997 56.2579 107.948 56.2579 108.907C56.2279 109.302 56.3169 109.697 56.5134 110.041C56.7098 110.384 57.0046 110.661 57.3599 110.836C57.719 111.027 58.1282 111.103 58.532 111.054C58.9359 111.005 59.3149 110.833 59.6174 110.56C60.3817 109.947 61.1638 109.361 61.9281 108.783C62.1897 108.553 62.5091 108.398 62.852 108.335C63.1949 108.273 63.5484 108.304 63.8745 108.427C64.7633 108.73 65.7408 108.996 66.674 109.316C67.0495 109.474 67.4647 109.512 67.8625 109.424C68.2603 109.337 68.6213 109.128 68.8959 108.827C69.1764 108.535 69.3614 108.164 69.4265 107.764C69.4916 107.364 69.4336 106.954 69.2603 106.588C68.9137 105.699 68.6026 104.748 68.256 103.833C68.1229 103.52 68.0765 103.178 68.1219 102.842C68.1673 102.505 68.3027 102.188 68.5138 101.922C69.1803 101.051 69.749 100.224 70.3267 99.4066ZM66.5495 104.606C66.905 105.495 67.1984 106.383 67.5273 107.272C67.3406 107.45 67.1895 107.317 67.0384 107.272L64.6121 106.517C63.9647 106.281 63.2663 106.222 62.5885 106.345C61.9106 106.469 61.2779 106.77 60.755 107.219C59.9818 107.841 59.1907 108.445 58.2664 109.174V105.966C58.2858 105.277 58.1215 104.595 57.7904 103.991C57.4593 103.386 56.9733 102.881 56.3823 102.526C55.5469 101.984 54.7292 101.415 53.8138 100.802C54.8092 100.473 55.7069 100.144 56.6134 99.9132C57.3339 99.7267 57.9879 99.3423 58.5014 98.8037C59.015 98.265 59.3677 97.5934 59.5196 96.8648C59.7418 95.9761 60.0439 95.034 60.3372 94.0208C60.9415 94.8385 61.5282 95.5584 62.0525 96.3316C62.4591 96.982 63.0409 97.5046 63.731 97.8395C64.4211 98.1743 65.1916 98.3078 65.9542 98.2246C66.8429 98.1713 67.8027 98.2246 68.7714 98.2246C68.2293 98.9889 67.6783 99.7977 67.1006 100.571C66.6461 101.127 66.3542 101.799 66.2569 102.511C66.1597 103.223 66.2609 103.948 66.5495 104.606Z" fill="url(#paint2_linear_145_5338)"/>
<path d="M103.495 84.6356C102.375 84.4756 100.953 84.2712 99.5311 84.0846C99.3 84.0846 99.0245 83.9246 98.8556 84.1557C98.6868 84.3868 98.8556 84.6445 99.0067 84.8667C99.5577 85.8799 100.109 86.8842 100.695 87.8796C101.132 88.5745 101.375 89.3738 101.399 90.1943C101.422 91.0149 101.225 91.8268 100.829 92.5455C100.295 93.5853 99.7888 94.6429 99.2733 95.7005C99.1756 95.905 98.9711 96.1183 99.1489 96.3671C99.3266 96.616 99.6288 96.4738 99.8776 96.4293C101.157 96.1805 102.437 95.9227 103.717 95.6917C104.383 95.5616 105.071 95.5956 105.722 95.7907C106.372 95.9858 106.965 96.3361 107.45 96.8115C108.436 97.7002 109.369 98.6512 110.329 99.5755C110.472 99.7177 110.605 99.9488 110.871 99.8421C111.138 99.7355 111.103 99.5044 111.129 99.2911C111.298 97.9046 111.44 96.5182 111.654 95.1406C111.755 94.5031 112.002 93.8974 112.375 93.3704C112.748 92.8433 113.237 92.4091 113.804 92.1011C113.913 92.0189 114.039 91.9608 114.172 91.9309C114.305 91.901 114.444 91.8999 114.577 91.9276C114.711 91.9554 114.837 92.0114 114.948 92.0919C115.058 92.1724 115.15 92.2755 115.217 92.3944C115.286 92.506 115.332 92.6304 115.351 92.7601C115.369 92.8899 115.362 93.0221 115.328 93.1487C115.293 93.2752 115.234 93.3935 115.152 93.4961C115.07 93.5987 114.969 93.6835 114.853 93.7453C114.433 93.9983 114.084 94.3551 113.841 94.7816C113.599 95.208 113.47 95.6898 113.467 96.1805C113.369 97.3536 113.209 98.5179 113.067 99.7355C113.038 100.185 112.877 100.616 112.603 100.973C112.329 101.331 111.955 101.599 111.529 101.744C111.107 101.903 110.647 101.93 110.209 101.823C109.771 101.715 109.376 101.477 109.076 101.14L106.312 98.4734C105.999 98.136 105.602 97.888 105.162 97.7552C104.721 97.6224 104.253 97.6096 103.806 97.718C102.553 97.9935 101.291 98.2068 100.038 98.4646C99.6029 98.5853 99.1423 98.5746 98.7136 98.4339C98.285 98.2931 97.9076 98.0285 97.6292 97.6736C97.3332 97.3199 97.1531 96.8838 97.1134 96.4243C97.0737 95.9649 97.1761 95.5043 97.407 95.1051C97.9669 93.9764 98.509 92.8388 99.0867 91.719C99.3265 91.2895 99.4449 90.8029 99.4292 90.3113C99.4136 89.8197 99.2644 89.3416 98.9978 88.9283C98.3668 87.8618 97.7891 86.7686 97.2203 85.6843C96.97 85.311 96.8364 84.8718 96.8364 84.4223C96.8364 83.9729 96.97 83.5336 97.2203 83.1603C97.459 82.777 97.809 82.4756 98.2234 82.2962C98.6378 82.1167 99.097 82.0678 99.5399 82.156C100.695 82.3249 101.868 82.4582 103.024 82.6715C103.587 82.8116 104.179 82.7855 104.728 82.5962C105.277 82.4069 105.759 82.0626 106.117 81.605C106.872 80.7162 107.708 79.8275 108.507 79.0098C108.793 78.6473 109.184 78.3818 109.626 78.2498C110.068 78.1177 110.541 78.1256 110.978 78.2722C111.418 78.4089 111.807 78.674 112.096 79.0335C112.384 79.393 112.558 79.8304 112.596 80.2896C112.809 81.5339 113.04 82.7781 113.236 84.0224C113.295 84.4783 113.474 84.9103 113.755 85.2742C114.036 85.638 114.409 85.9207 114.835 86.0932C116.062 86.6531 117.297 87.1863 118.497 87.7907C118.854 87.959 119.16 88.2172 119.387 88.5398C119.614 88.8624 119.753 89.2384 119.79 89.6309C119.828 90.0234 119.763 90.419 119.602 90.7788C119.44 91.1386 119.188 91.4504 118.87 91.6834C118.77 91.7862 118.65 91.8667 118.516 91.9197C118.383 91.9728 118.24 91.9971 118.096 91.9913C117.953 91.9854 117.813 91.9494 117.684 91.8857C117.556 91.8219 117.442 91.7318 117.35 91.6212C117.267 91.5135 117.207 91.3896 117.173 91.2575C117.14 91.1253 117.134 90.9876 117.157 90.8532C117.179 90.7187 117.23 90.5904 117.304 90.4763C117.379 90.3622 117.476 90.2648 117.59 90.1903C118.026 89.8081 117.813 89.6215 117.43 89.4438L114.115 87.924C113.353 87.6158 112.688 87.1083 112.189 86.4547C111.69 85.8012 111.377 85.0255 111.28 84.209C111.103 83.027 110.863 81.8538 110.658 80.654C110.658 80.4407 110.658 80.2008 110.365 80.1297C110.072 80.0586 109.983 80.2807 109.841 80.4318L107.308 83.1692C106.827 83.69 106.234 84.0932 105.572 84.3475C104.911 84.6018 104.2 84.7004 103.495 84.6356Z" fill="url(#paint3_linear_145_5338)"/>
<path d="M68.3182 64.5765C68.5579 64.289 68.7006 63.9332 68.7261 63.5597C68.7517 63.1863 68.6586 62.8143 68.4603 62.4969C68.2829 62.1791 68.0122 61.9235 67.6847 61.7645C67.3573 61.6056 66.989 61.551 66.6296 61.6081C65.8919 61.6526 65.1543 61.6792 64.4166 61.7503C64.1572 61.7818 63.894 61.7402 63.6569 61.6303C63.4199 61.5204 63.2182 61.3465 63.0746 61.1282C62.6746 60.5772 62.1858 60.0617 61.8392 59.5196C61.638 59.1835 61.3379 58.9179 60.98 58.7588C60.622 58.5997 60.2238 58.555 59.8395 58.6308C59.4513 58.7104 59.0987 58.912 58.8333 59.2062C58.5678 59.5004 58.4035 59.8718 58.3642 60.2661C58.222 60.8971 57.9997 61.5192 57.8842 62.1591C57.8366 62.4606 57.7019 62.7415 57.4966 62.9674C57.2913 63.1932 57.0245 63.354 56.7289 63.4301C56.0268 63.6611 55.3425 63.9278 54.6492 64.1855C54.3169 64.2967 54.0248 64.5037 53.8098 64.7804C53.5947 65.0571 53.4661 65.3913 53.4405 65.7408C53.4092 66.0805 53.4764 66.4221 53.634 66.7246C53.7916 67.0272 54.0329 67.2781 54.3292 67.4472C54.9513 67.856 55.5647 68.2737 56.2046 68.6381C56.4652 68.7751 56.6819 68.983 56.8297 69.2377C56.9775 69.4924 57.0503 69.7836 57.0399 70.0779C57.0399 70.7711 57.04 71.4732 57.0933 72.1665C57.0735 72.5342 57.1634 72.8995 57.3517 73.216C57.54 73.5325 57.8182 73.7859 58.1509 73.944C58.4869 74.1083 58.8663 74.1624 59.2349 74.0986C59.6035 74.0347 59.9427 73.8562 60.2039 73.5885C60.755 73.1263 61.3237 72.6997 61.857 72.2109C62.0619 72.0138 62.319 71.8798 62.5979 71.8246C62.8767 71.7695 63.1656 71.7956 63.4301 71.8998C64.3188 72.1753 65.2076 72.3975 65.8653 72.5931C66.1697 72.6442 66.4821 72.6151 66.7719 72.5088C67.0617 72.4025 67.3188 72.2225 67.5179 71.9866C67.717 71.7508 67.8512 71.4671 67.9074 71.1636C67.9635 70.8601 67.9398 70.5472 67.8383 70.2557C67.5805 69.4736 67.2783 68.7092 66.9495 67.9538C66.8273 67.698 66.78 67.4129 66.813 67.1314C66.8461 66.8499 66.9581 66.5835 67.1361 66.3629C67.5449 65.7852 67.9183 65.1631 68.3182 64.5765ZM64.8165 66.9228C64.6743 68.2204 65.4741 69.2691 65.7941 70.4778C64.5587 70.2912 63.4389 69.5891 62.1591 69.8468C60.8793 70.1046 60.1328 71.2066 59.0663 71.891C58.9063 70.6289 59.1818 69.358 58.5508 68.2204C57.9197 67.0828 56.64 66.7095 55.6712 65.883C56.8088 65.3142 58.1154 65.2075 58.9863 64.2299C59.8573 63.2523 59.8751 61.9725 60.275 60.7727C61.1637 61.6614 61.6614 62.9057 62.879 63.4389C64.0966 63.9722 65.2787 63.5634 66.5407 63.6078C66.043 64.7543 64.9587 65.6075 64.8165 66.9228Z" fill="url(#paint4_linear_145_5338)"/>
<path d="M88.2617 89.6837C88.2182 88.9537 87.8944 88.2687 87.3578 87.7719C86.8211 87.275 86.1133 87.0047 85.3822 87.0175C84.6458 87.0019 83.9316 87.27 83.3873 87.7663C82.8431 88.2626 82.5104 88.949 82.4581 89.6837C82.3959 90.4214 82.4581 91.159 82.4581 91.9056C82.4581 92.6521 82.4048 93.3898 82.4581 94.1186C82.5104 94.8533 82.8431 95.5397 83.3873 96.036C83.9316 96.5323 84.6458 96.8004 85.3822 96.7848C86.1133 96.7976 86.8211 96.5273 87.3578 96.0304C87.8944 95.5336 88.2182 94.8486 88.2617 94.1186C88.3392 92.6413 88.3392 91.161 88.2617 89.6837ZM85.3733 89.0083C85.6248 89.0082 85.8663 89.1069 86.0458 89.2831C86.2253 89.4593 86.3284 89.6989 86.3331 89.9503C86.343 90.1991 86.2559 90.442 86.09 90.6278C85.9242 90.8135 85.6926 90.9275 85.4443 90.9457C85.3139 90.9542 85.1831 90.936 85.0599 90.8921C84.9368 90.8482 84.824 90.7797 84.7283 90.6906C84.6326 90.6016 84.5561 90.4939 84.5035 90.3743C84.4509 90.2546 84.4233 90.1255 84.4223 89.9948C84.4174 89.8647 84.4392 89.7349 84.4865 89.6136C84.5337 89.4923 84.6055 89.3819 84.6971 89.2895C84.7888 89.197 84.8985 89.1243 85.0194 89.0759C85.1403 89.0275 85.2698 89.0045 85.3999 89.0083H85.3733ZM85.4443 94.8651C85.3083 94.8777 85.1713 94.8614 85.042 94.8172C84.9128 94.773 84.7943 94.7021 84.6944 94.6089C84.5946 94.5157 84.5155 94.4025 84.4625 94.2767C84.4095 94.1508 84.3837 94.0152 84.3868 93.8786C84.3868 93.772 84.3868 93.6564 84.3868 93.5498C84.3334 93.0165 84.3868 92.661 85.0711 92.9099C85.2094 92.8875 85.3505 92.8875 85.4888 92.9099C85.7732 93.0254 86.2976 92.43 86.3775 93.1943C86.4842 94.2697 86.1553 94.8118 85.471 94.8651H85.4443Z" fill="url(#paint5_linear_145_5338)"/>
<path d="M79.3742 69.5269C79.4409 69.3398 79.4431 69.1357 79.3802 68.9472C79.3174 68.7587 79.1932 68.5967 79.0275 68.4871C78.7756 68.3332 78.4893 68.2445 78.1944 68.229C77.8996 68.2134 77.6056 68.2716 77.3389 68.3982C77.1553 68.4772 77.0036 68.6158 76.9085 68.7915C76.8134 68.9673 76.7803 69.17 76.8146 69.3669C76.8768 69.9446 77.3212 70.2557 78.1922 70.2557C78.4451 70.3098 78.7091 70.2643 78.9293 70.1285C79.1496 69.9927 79.3089 69.7772 79.3742 69.5269ZM93.4875 68.3982C93.2279 68.2795 92.9444 68.2226 92.6592 68.2319C92.3739 68.2411 92.0947 68.3163 91.8433 68.4515C91.6827 68.548 91.5567 68.6928 91.4833 68.8651C91.4098 69.0375 91.3927 69.2287 91.4344 69.4114C91.5144 69.9624 91.9322 70.229 92.7143 70.229C93.4964 70.229 94.0118 69.9002 94.0207 69.2869C94.032 69.1 93.9839 68.9142 93.8834 68.7562C93.7828 68.5982 93.6349 68.476 93.4608 68.4071L93.4875 68.3982ZM79.543 72.3709C79.4419 72.4297 79.3534 72.5079 79.2826 72.6009C79.2118 72.694 79.16 72.8002 79.1303 72.9133C79.1005 73.0264 79.0934 73.1443 79.1093 73.2601C79.1253 73.376 79.1639 73.4876 79.223 73.5885C79.336 73.8067 79.5199 73.9801 79.7443 74.0803C79.9688 74.1804 80.2205 74.2013 80.4584 74.1395C80.669 74.1886 80.8897 74.1715 81.0901 74.0903C81.2906 74.0092 81.4611 73.868 81.5782 73.6862C81.7197 73.4977 81.7804 73.2606 81.747 73.0273C81.7137 72.794 81.5891 72.5834 81.4005 72.442C81.1193 72.2679 80.7973 72.1706 80.4668 72.1597C80.1362 72.1488 79.8085 72.2246 79.5164 72.3798L79.543 72.3709ZM90.4214 72.1843C89.5326 72.1843 89.0881 72.5486 89.097 73.1797C89.1059 73.8107 89.5681 74.1484 90.5724 74.1484C90.7282 74.154 90.8841 74.136 91.0345 74.0951C91.2628 74.0402 91.4601 73.8973 91.5833 73.6974C91.7065 73.4976 91.7457 73.2572 91.6922 73.0286C91.5945 72.4775 91.1679 72.1931 90.3947 72.1931L90.4214 72.1843ZM84.6 57.751C84.8527 57.8819 85.1331 57.9502 85.4177 57.9502C85.7023 57.9502 85.9826 57.8819 86.2353 57.751C86.396 57.669 86.5281 57.5401 86.6138 57.3814C86.6995 57.2226 86.7349 57.0416 86.7152 56.8622C86.6619 56.2756 86.2265 55.9735 85.4177 55.9735C84.6089 55.9735 84.1645 56.2579 84.12 56.8622C84.0961 57.0401 84.1267 57.2211 84.2076 57.3813C84.2885 57.5415 84.416 57.6735 84.5733 57.7598L84.6 57.751ZM81.2405 64.3099C80.974 64.1833 80.6814 64.1213 80.3865 64.129C80.0915 64.1367 79.8025 64.2139 79.543 64.3544C79.384 64.4521 79.2598 64.5974 79.188 64.7697C79.1162 64.942 79.1005 65.1325 79.1431 65.3142C79.2319 65.8652 79.6585 66.1319 80.4317 66.1319C81.2049 66.1319 81.676 65.8208 81.7294 65.2431C81.7539 65.0541 81.7169 64.8623 81.6241 64.6959C81.5313 64.5295 81.3875 64.3973 81.2138 64.3188L81.2405 64.3099ZM86.2976 72.362C86.0193 72.2319 85.7159 72.1644 85.4088 72.1644C85.1017 72.1644 84.7983 72.2319 84.5201 72.362C84.3483 72.4647 84.2163 72.6224 84.1453 72.8095C84.0744 72.9966 84.0685 73.2022 84.1289 73.393C84.1903 73.6527 84.3517 73.8777 84.578 74.0192C84.8043 74.1606 85.0773 74.207 85.3376 74.1484C86.1553 74.1484 86.5641 73.9173 86.6797 73.393C86.7259 73.2012 86.7115 72.9999 86.6382 72.8168C86.565 72.6336 86.4366 72.4778 86.2709 72.3709L86.2976 72.362ZM79.5608 57.7243C79.8099 57.8621 80.0884 57.9381 80.373 57.9458C80.6576 57.9536 80.9399 57.8928 81.1961 57.7687C81.3668 57.695 81.51 57.5696 81.6057 57.4101C81.7013 57.2507 81.7446 57.0653 81.7294 56.88C81.7294 56.2756 81.2495 55.9912 80.414 55.9912C79.5786 55.9912 79.2142 56.249 79.1431 56.8089C79.1075 56.9844 79.1259 57.1666 79.1957 57.3315C79.2655 57.4965 79.3835 57.6365 79.5342 57.7332L79.5608 57.7243ZM91.3367 57.7243C91.5315 57.594 91.667 57.392 91.7136 57.1623C91.7602 56.9326 91.7142 56.6938 91.5856 56.4978C91.4714 56.2958 91.2934 56.1373 91.0795 56.0472C90.8656 55.9572 90.6279 55.9406 90.4036 56.0001C90.19 55.9481 89.9655 55.9628 89.7605 56.0423C89.5556 56.1217 89.3798 56.2621 89.257 56.4445C89.1184 56.6325 89.0593 56.8674 89.0926 57.0986C89.1258 57.3298 89.2487 57.5386 89.4348 57.6799C89.7154 57.856 90.0398 57.9502 90.3711 57.9517C90.7025 57.9533 91.0278 57.8622 91.3101 57.6887L91.3367 57.7243ZM90.3858 64.2122C90.1546 64.1626 89.9135 64.1906 89.6998 64.2918C89.4861 64.393 89.3119 64.5618 89.2038 64.7721C89.1209 64.9258 89.0851 65.1004 89.1009 65.2743C89.1167 65.4481 89.1834 65.6135 89.2926 65.7497C89.4338 65.9171 89.6164 66.0446 89.8223 66.1195C90.0281 66.1943 90.25 66.2139 90.4657 66.1763C91.2745 66.1763 91.7189 65.803 91.7011 65.1631C91.6833 64.5232 91.2478 64.1944 90.3591 64.1944L90.3858 64.2122ZM78.1121 62.0436C79.0008 62.0436 79.392 61.7326 79.4097 61.1016C79.4275 60.4705 78.9742 60.0795 78.121 60.0795C77.2678 60.0795 76.7879 60.4705 76.8057 61.1016C76.8234 61.7326 77.259 62.0081 78.0855 62.0081L78.1121 62.0436ZM81.6671 61.2082C81.7382 61.7948 82.1293 62.0347 82.9203 62.0436C83.9423 62.0436 84.4934 61.4393 84.1734 60.6749C83.9844 60.3942 83.7051 60.1865 83.3818 60.0863C83.0585 59.986 82.7106 59.9993 82.3959 60.1239C82.2791 60.1442 82.1676 60.1876 82.0679 60.2516C81.9681 60.3156 81.8822 60.3989 81.8151 60.4966C81.748 60.5943 81.7011 60.7045 81.6772 60.8206C81.6533 60.9367 81.6529 61.0564 81.676 61.1727L81.6671 61.2082ZM86.573 61.3859C86.7774 61.9903 87.284 62.0881 87.8262 62.0347C88.3683 61.9814 88.9371 61.937 89.0882 61.2704C89.1411 61.0782 89.1277 60.8737 89.0504 60.69C88.973 60.5062 88.836 60.3538 88.6615 60.2572C88.3868 60.1154 88.082 60.0414 87.7728 60.0414C87.4636 60.0414 87.1588 60.1154 86.884 60.2572C86.7142 60.3757 86.5912 60.5498 86.536 60.7494C86.4808 60.9489 86.497 61.1615 86.5819 61.3504L86.573 61.3859ZM91.4257 61.3859C91.4964 61.6309 91.6585 61.8394 91.8784 61.9684C92.0983 62.0973 92.3593 62.137 92.6077 62.0792C93.4964 62.0792 93.9229 61.8037 93.9851 61.1904C94.007 61.0046 93.9741 60.8164 93.8904 60.649C93.8067 60.4816 93.676 60.3424 93.5142 60.2484C93.2335 60.1195 92.9267 60.0581 92.6181 60.0689C92.3095 60.0797 92.0076 60.1624 91.7367 60.3106C91.5863 60.4243 91.476 60.5829 91.4216 60.7634C91.3673 60.9439 91.3718 61.137 91.4344 61.3148L91.4257 61.3859ZM85.4621 64.2477C84.6355 64.2477 84.28 64.4344 84.1289 64.9232C84.0564 65.1076 84.0476 65.311 84.104 65.5011C84.1604 65.6911 84.2786 65.8568 84.44 65.9719C84.709 66.1264 85.012 66.2122 85.3221 66.2215C85.6322 66.2308 85.9397 66.1634 86.2175 66.0252C86.4005 65.9221 86.541 65.7576 86.6142 65.5607C86.6874 65.3639 86.6886 65.1475 86.6175 64.9498C86.558 64.7019 86.4064 64.4859 86.1935 64.3456C85.9806 64.2053 85.7223 64.1513 85.471 64.1944L85.4621 64.2477ZM84.1823 68.9848C83.9512 68.3626 83.3913 68.3271 82.8225 68.3449C82.5843 68.3116 82.342 68.3628 82.1375 68.4894C81.933 68.616 81.7792 68.8101 81.7027 69.0381C81.4538 69.7846 81.9693 70.309 82.9381 70.309C83.9068 70.309 84.4223 69.5269 84.1912 68.9137L84.1823 68.9848ZM88.7327 68.567C88.4514 68.4057 88.1327 68.3207 87.8084 68.3207C87.4841 68.3207 87.1654 68.4057 86.884 68.567C86.7116 68.6875 86.5874 68.8653 86.5337 69.0687C86.48 69.2722 86.5003 69.4881 86.5908 69.678C86.6843 69.9109 86.8596 70.1017 87.0838 70.2146C87.3079 70.3275 87.5656 70.3547 87.8084 70.2912C88.3594 70.3357 88.8393 70.2379 89.0438 69.6691C89.1511 69.4716 89.1796 69.2407 89.1235 69.0231C89.0674 68.8054 88.931 68.617 88.7416 68.4959L88.7327 68.567Z" fill="url(#paint6_linear_145_5338)"/>
</g>
<defs>
<linearGradient id="paint0_linear_145_5338" x1="84.9999" y1="168.667" x2="84.9999" y2="1.33314" gradientUnits="userSpaceOnUse">
<stop stop-color="#00FF36"/>
<stop offset="0.05" stop-color="#0CFC33"/>
<stop offset="0.13" stop-color="#2CF52D"/>
<stop offset="0.23" stop-color="#60E922"/>
<stop offset="0.37" stop-color="#A8D812"/>
<stop offset="0.51" stop-color="#FFC400"/>
<stop offset="0.79" stop-color="#FFE91B"/>
<stop offset="1" stop-color="#FFFF2B"/>
</linearGradient>
<linearGradient id="paint1_linear_145_5338" x1="85.3732" y1="118.879" x2="85.3732" y2="51.9119" gradientUnits="userSpaceOnUse">
<stop stop-color="#00FF36"/>
<stop offset="0.05" stop-color="#0CFC33"/>
<stop offset="0.13" stop-color="#2CF52D"/>
<stop offset="0.23" stop-color="#60E922"/>
<stop offset="0.37" stop-color="#A8D812"/>
<stop offset="0.51" stop-color="#FFC400"/>
<stop offset="0.79" stop-color="#FFE91B"/>
<stop offset="1" stop-color="#FFFF2B"/>
</linearGradient>
<linearGradient id="paint2_linear_145_5338" x1="61.3415" y1="111.067" x2="61.3415" y2="92.1011" gradientUnits="userSpaceOnUse">
<stop stop-color="#00FF36"/>
<stop offset="0.05" stop-color="#0CFC33"/>
<stop offset="0.13" stop-color="#2CF52D"/>
<stop offset="0.23" stop-color="#60E922"/>
<stop offset="0.37" stop-color="#A8D812"/>
<stop offset="0.51" stop-color="#FFC400"/>
<stop offset="0.79" stop-color="#FFE91B"/>
<stop offset="1" stop-color="#FFFF2B"/>
</linearGradient>
<linearGradient id="paint3_linear_145_5338" x1="108.276" y1="101.851" x2="108.276" y2="78.1033" gradientUnits="userSpaceOnUse">
<stop stop-color="#00FF36"/>
<stop offset="0.05" stop-color="#0CFC33"/>
<stop offset="0.13" stop-color="#2CF52D"/>
<stop offset="0.23" stop-color="#60E922"/>
<stop offset="0.37" stop-color="#A8D812"/>
<stop offset="0.51" stop-color="#FFC400"/>
<stop offset="0.79" stop-color="#FFE91B"/>
<stop offset="1" stop-color="#FFFF2B"/>
</linearGradient>
<linearGradient id="paint4_linear_145_5338" x1="61.0748" y1="74.1306" x2="61.0748" y2="58.5597" gradientUnits="userSpaceOnUse">
<stop stop-color="#00FF36"/>
<stop offset="0.05" stop-color="#0CFC33"/>
<stop offset="0.13" stop-color="#2CF52D"/>
<stop offset="0.23" stop-color="#60E922"/>
<stop offset="0.37" stop-color="#A8D812"/>
<stop offset="0.51" stop-color="#FFC400"/>
<stop offset="0.79" stop-color="#FFE91B"/>
<stop offset="1" stop-color="#FFFF2B"/>
</linearGradient>
<linearGradient id="paint5_linear_145_5338" x1="85.3999" y1="96.8293" x2="85.3999" y2="87.0441" gradientUnits="userSpaceOnUse">
<stop stop-color="#00FF36"/>
<stop offset="0.05" stop-color="#0CFC33"/>
<stop offset="0.13" stop-color="#2CF52D"/>
<stop offset="0.23" stop-color="#60E922"/>
<stop offset="0.37" stop-color="#A8D812"/>
<stop offset="0.51" stop-color="#FFC400"/>
<stop offset="0.79" stop-color="#FFE91B"/>
<stop offset="1" stop-color="#FFFF2B"/>
</linearGradient>
<linearGradient id="paint6_linear_145_5338" x1="85.391" y1="74.1662" x2="85.391" y2="55.9468" gradientUnits="userSpaceOnUse">
<stop stop-color="#00FF36"/>
<stop offset="0.05" stop-color="#0CFC33"/>
<stop offset="0.13" stop-color="#2CF52D"/>
<stop offset="0.23" stop-color="#60E922"/>
<stop offset="0.37" stop-color="#A8D812"/>
<stop offset="0.51" stop-color="#FFC400"/>
<stop offset="0.79" stop-color="#FFE91B"/>
<stop offset="1" stop-color="#FFFF2B"/>
</linearGradient>
<clipPath id="clip0_145_5338">
<rect width="170" height="170" fill="white"/>
</clipPath>
</defs>
</svg>
