<svg width="297" height="208" viewBox="0 0 297 208" fill="none" xmlns="http://www.w3.org/2000/svg">
<rect x="0.5" y="0.5" width="296" height="207" stroke="#00FF63"/>
<line x1="296" y1="41.5" x2="-4.9766e-08" y2="41.5" stroke="#00FF63"/>
<path d="M18.0133 11.2838H32.9867C34.4942 11.2838 35.7162 12.5058 35.7162 14.0133V28.9867C35.7162 30.4942 34.4942 31.7162 32.9867 31.7162H18.0133C16.5058 31.7162 15.2838 30.4942 15.2838 28.9867V14.0133C15.2838 12.5058 16.5058 11.2838 18.0133 11.2838Z" stroke="#00FF63" stroke-width="0.567568"/>
<path d="M19.155 14.7161H20.1679V17.1064H22.9123V14.7161H23.9225V20.4652H22.9123V18.0411H20.1679V20.4652H19.155V14.7161Z" fill="#00FF63"/>
<path d="M26.1331 17.6063V17.5907C26.1291 17.1945 26.2051 16.8015 26.3565 16.4353C26.508 16.0691 26.7318 15.7373 27.0145 15.4597C27.2973 15.182 27.6331 14.9643 28.002 14.8196C28.3709 14.6748 28.7652 14.606 29.1613 14.6172C29.5544 14.6066 29.9456 14.6756 30.3114 14.82C30.6772 14.9645 31.0101 15.1813 31.29 15.4576C31.5699 15.7338 31.7911 16.0638 31.9403 16.4277C32.0895 16.7916 32.1636 17.1818 32.1582 17.5751V17.5907C32.1622 17.9858 32.0866 18.3777 31.9359 18.743C31.7852 19.1083 31.5626 19.4395 31.2813 19.7169C30.9999 19.9944 30.6656 20.2124 30.2983 20.3579C29.9309 20.5035 29.5381 20.5736 29.143 20.5642C28.7488 20.5765 28.3562 20.5089 27.9889 20.3653C27.6215 20.2217 27.2871 20.0051 27.0058 19.7287C26.7245 19.4522 26.5021 19.1216 26.3521 18.7568C26.2021 18.3921 26.1276 18.0007 26.1331 17.6063ZM31.0802 17.6063V17.5907C31.0904 17.3269 31.0474 17.0637 30.9538 16.8168C30.8603 16.57 30.7181 16.3444 30.5358 16.1535C30.3534 15.9626 30.1345 15.8103 29.8921 15.7056C29.6498 15.601 29.3888 15.546 29.1248 15.5441C27.9844 15.5441 27.1876 16.4555 27.1876 17.5751V17.5907C27.1775 17.8545 27.2205 18.1177 27.314 18.3646C27.4075 18.6114 27.5497 18.837 27.7321 19.0279C27.9145 19.2188 28.1334 19.3711 28.3757 19.4758C28.6181 19.5804 28.879 19.6354 29.143 19.6373C29.4056 19.6372 29.6655 19.5839 29.907 19.4807C30.1484 19.3774 30.3665 19.2264 30.548 19.0366C30.7295 18.8468 30.8707 18.6223 30.963 18.3764C31.0554 18.1306 31.097 17.8687 31.0854 17.6063H31.0802Z" fill="#00FF63"/>
<path d="M19.155 22.7123H20.1679V27.5449H23.1909V28.464H19.155V22.7123Z" fill="#00FF63"/>
<path d="M28.7446 22.668H29.6819L32.2128 28.4614H31.1426L30.5594 27.0736H27.8411L27.25 28.4614H26.2085L28.7446 22.668ZM30.2027 26.1779L29.2106 23.8762L28.2238 26.1779H30.2027Z" fill="#00FF63"/>
<path d="M221.27 26.4579H220.52C220.52 26.8722 220.856 27.2079 221.27 27.2079V26.4579ZM221.882 26.4579V27.2079C222.296 27.2079 222.632 26.8722 222.632 26.4579H221.882ZM221.882 22.725V21.975C221.468 21.975 221.132 22.3108 221.132 22.725H221.882ZM226.545 22.725V23.475C226.959 23.475 227.295 23.1393 227.295 22.725H226.545ZM226.545 22.1598H227.295C227.295 21.7456 226.959 21.4098 226.545 21.4098V22.1598ZM221.882 22.1598H221.132C221.132 22.574 221.468 22.9098 221.882 22.9098V22.1598ZM221.882 18.7802V18.0302C221.468 18.0302 221.132 18.366 221.132 18.7802H221.882ZM227.075 18.7802V19.5302C227.489 19.5302 227.825 19.1944 227.825 18.7802H227.075ZM227.075 18.215H227.825C227.825 17.8007 227.489 17.465 227.075 17.465V18.215ZM221.27 18.215V17.465C220.856 17.465 220.52 17.8007 220.52 18.215H221.27ZM221.27 27.2079H221.882V25.7079H221.27V27.2079ZM222.632 26.4579V22.725H221.132V26.4579H222.632ZM221.882 23.475H226.545V21.975H221.882V23.475ZM227.295 22.725V22.1598H225.795V22.725H227.295ZM226.545 21.4098H221.882V22.9098H226.545V21.4098ZM222.632 22.1598V18.7802H221.132V22.1598H222.632ZM221.882 19.5302H227.075V18.0302H221.882V19.5302ZM227.825 18.7802V18.215H226.325V18.7802H227.825ZM227.075 17.465H221.27V18.965H227.075V17.465ZM220.52 18.215V26.4579H222.02V18.215H220.52ZM231.906 26.4579H231.156C231.156 26.8722 231.492 27.2079 231.906 27.2079V26.4579ZM232.518 26.4579V27.2079C232.933 27.2079 233.268 26.8722 233.268 26.4579H232.518ZM232.518 18.215H233.268C233.268 17.8007 232.933 17.465 232.518 17.465V18.215ZM231.906 18.215V17.465C231.492 17.465 231.156 17.8007 231.156 18.215H231.906ZM231.906 27.2079H232.518V25.7079H231.906V27.2079ZM233.268 26.4579V18.215H231.768V26.4579H233.268ZM232.518 17.465H231.906V18.965H232.518V17.465ZM231.156 18.215V26.4579H232.656V18.215H231.156ZM237.881 26.4579H237.131C237.131 26.8722 237.467 27.2079 237.881 27.2079V26.4579ZM243.333 26.4579V27.2079C243.748 27.2079 244.083 26.8722 244.083 26.4579H243.333ZM243.333 25.8927H244.083C244.083 25.4785 243.748 25.1427 243.333 25.1427V25.8927ZM238.494 25.8927H237.744C237.744 26.3069 238.079 26.6427 238.494 26.6427V25.8927ZM238.494 18.215H239.244C239.244 17.8007 238.908 17.465 238.494 17.465V18.215ZM237.881 18.215V17.465C237.467 17.465 237.131 17.8007 237.131 18.215H237.881ZM237.881 27.2079H243.333V25.7079H237.881V27.2079ZM244.083 26.4579V25.8927H242.583V26.4579H244.083ZM243.333 25.1427H238.494V26.6427H243.333V25.1427ZM239.244 25.8927V18.215H237.744V25.8927H239.244ZM238.494 17.465H237.881V18.965H238.494V17.465ZM237.131 18.215V26.4579H238.631V18.215H237.131ZM247.998 26.4579H247.248C247.248 26.8722 247.584 27.2079 247.998 27.2079V26.4579ZM248.587 26.4579V27.2079C249.001 27.2079 249.337 26.8722 249.337 26.4579H248.587ZM248.587 19.2983L249.205 18.8735C249.019 18.6027 248.678 18.4846 248.365 18.5821C248.051 18.6795 247.837 18.9698 247.837 19.2983H248.587ZM251.849 24.0439L251.231 24.4688C251.371 24.6723 251.602 24.7939 251.849 24.7939V24.0439ZM251.896 24.0439V24.7939C252.143 24.7939 252.374 24.6723 252.514 24.4688L251.896 24.0439ZM255.158 19.2983H255.908C255.908 18.9698 255.694 18.6795 255.38 18.5821C255.067 18.4846 254.726 18.6027 254.54 18.8735L255.158 19.2983ZM255.158 26.4579H254.408C254.408 26.8722 254.744 27.2079 255.158 27.2079V26.4579ZM255.77 26.4579V27.2079C256.184 27.2079 256.52 26.8722 256.52 26.4579H255.77ZM255.77 18.215H256.52C256.52 17.8007 256.184 17.465 255.77 17.465V18.215ZM255.193 18.215V17.465C254.945 17.465 254.712 17.5881 254.573 17.7938L255.193 18.215ZM251.884 23.0901L251.264 23.5113C251.403 23.717 251.636 23.8401 251.884 23.8401C252.133 23.8401 252.365 23.717 252.505 23.5113L251.884 23.0901ZM248.575 18.215L249.196 17.7938C249.056 17.5881 248.824 17.465 248.575 17.465V18.215ZM247.998 18.215V17.465C247.584 17.465 247.248 17.8007 247.248 18.215L247.998 18.215ZM247.998 27.2079H248.587V25.7079H247.998V27.2079ZM249.337 26.4579V19.2983H247.837V26.4579H249.337ZM247.969 19.7232L251.231 24.4688L252.467 23.6191L249.205 18.8735L247.969 19.7232ZM251.849 24.7939H251.896V23.2939H251.849V24.7939ZM252.514 24.4688L255.776 19.7232L254.54 18.8735L251.278 23.6191L252.514 24.4688ZM254.408 19.2983V26.4579H255.908V19.2983H254.408ZM255.158 27.2079H255.77V25.7079H255.158V27.2079ZM256.52 26.4579V18.215H255.02V26.4579H256.52ZM255.77 17.465H255.193V18.965H255.77V17.465ZM254.573 17.7938L251.264 22.6689L252.505 23.5113L255.814 18.6362L254.573 17.7938ZM252.505 22.6689L249.196 17.7938L247.955 18.6362L251.264 23.5113L252.505 22.6689ZM248.575 17.465H247.998V18.965H248.575V17.465ZM247.248 18.215V26.4579H248.748V18.215L247.248 18.215ZM271.173 27.3493C274.136 27.3493 276.079 24.9451 276.079 22.3365H274.579C274.579 24.2261 273.202 25.8493 271.173 25.8493V27.3493ZM276.079 22.3365V22.3129H274.579V22.3365H276.079ZM276.079 22.3129C276.079 19.7046 274.16 17.3236 271.196 17.3236V18.8236C273.225 18.8236 274.579 20.4228 274.579 22.3129H276.079ZM271.196 17.3236C268.233 17.3236 266.289 19.7278 266.289 22.3365H267.789C267.789 20.4468 269.166 18.8236 271.196 18.8236V17.3236ZM266.289 22.3365V22.36H267.789V22.3365H266.289ZM266.289 22.36C266.289 24.9683 268.209 27.3493 271.173 27.3493V25.8493C269.143 25.8493 267.789 24.2501 267.789 22.36H266.289ZM271.196 25.2958C269.623 25.2958 268.425 24.0116 268.425 22.3365H266.925C266.925 24.7357 268.694 26.7958 271.196 26.7958V25.2958ZM268.425 22.3365V22.3129H266.925V22.3365H268.425ZM268.425 22.3129C268.425 20.6372 269.6 19.3771 271.173 19.3771V17.8771C268.67 17.8771 266.925 19.9142 266.925 22.3129H268.425ZM271.173 19.3771C272.745 19.3771 273.943 20.6613 273.943 22.3365H275.443C275.443 19.9372 273.674 17.8771 271.173 17.8771V19.3771ZM273.943 22.3365V22.36H275.443V22.3365H273.943ZM273.943 22.36C273.943 24.0357 272.768 25.2958 271.196 25.2958V26.7958C273.698 26.7958 275.443 24.7587 275.443 22.36H273.943ZM281.118 26.4579H280.368C280.368 26.8722 280.704 27.2079 281.118 27.2079V26.4579ZM281.719 26.4579V27.2079C282.133 27.2079 282.469 26.8722 282.469 26.4579H281.719ZM281.719 18.1561H282.469C282.469 17.7419 282.133 17.4061 281.719 17.4061V18.1561ZM281.248 18.1561V17.4061C281.159 17.4061 281.072 17.4218 280.988 17.4524L281.248 18.1561ZM279.364 18.8508L279.104 18.1472C278.722 18.288 278.522 18.7079 278.654 19.0932L279.364 18.8508ZM279.529 19.3336L278.819 19.576C278.953 19.9678 279.379 20.1771 279.771 20.0436L279.529 19.3336ZM281.118 18.792H281.868C281.868 18.55 281.752 18.3229 281.555 18.1821C281.358 18.0413 281.106 18.004 280.876 18.082L281.118 18.792ZM281.118 27.2079H281.719V25.7079H281.118V27.2079ZM282.469 26.4579V18.1561H280.969V26.4579H282.469ZM281.719 17.4061H281.248V18.9061H281.719V17.4061ZM280.988 17.4524L279.104 18.1472L279.623 19.5545L281.507 18.8598L280.988 17.4524ZM278.654 19.0932L278.819 19.576L280.238 19.0913L280.074 18.6085L278.654 19.0932ZM279.771 20.0436L281.36 19.5019L280.876 18.082L279.287 18.6237L279.771 20.0436ZM280.368 18.792V26.4579H281.868V18.792L280.368 18.792Z" fill="#00FF63"/>
</svg>
