<svg width="193" height="146" viewBox="0 0 193 146" fill="none" xmlns="http://www.w3.org/2000/svg">
<path d="M192.621 80.2417C192.621 80.9673 192.406 81.6766 192.003 82.28C191.6 82.8833 191.027 83.3535 190.356 83.6312C189.686 83.9089 188.948 83.9816 188.237 83.84C187.525 83.6984 186.871 83.349 186.358 82.8359C185.845 82.3228 185.496 81.6691 185.354 80.9574C185.212 80.2457 185.285 79.5081 185.563 78.8377C185.84 78.1673 186.311 77.5943 186.914 77.1912C187.517 76.788 188.227 76.5729 188.952 76.5729C189.925 76.5729 190.859 76.9594 191.547 77.6474C192.235 78.3355 192.621 79.2686 192.621 80.2417Z" stroke="#00FF63" stroke-width="0.608427"/>
<mask id="path-2-inside-1_145_5628" fill="white">
<path d="M86.9618 107.767V85.5168C86.9545 85.4712 86.9581 85.4245 86.9723 85.3806C86.9865 85.3366 87.011 85.2967 87.0436 85.264C87.0763 85.2313 87.1162 85.2069 87.1601 85.1927C87.2041 85.1784 87.2508 85.1748 87.2964 85.1822H92.2855C92.4043 85.1678 92.5245 85.1927 92.6278 85.2532C92.7311 85.3136 92.8117 85.4062 92.8574 85.5168L98.1507 97.4845H98.2846L103.444 85.5168C103.49 85.4062 103.57 85.3136 103.674 85.2532C103.777 85.1927 103.897 85.1678 104.016 85.1822H108.938C108.984 85.1748 109.03 85.1784 109.074 85.1927C109.118 85.2069 109.158 85.2313 109.191 85.264C109.224 85.2967 109.248 85.3366 109.262 85.3806C109.276 85.4245 109.28 85.4712 109.273 85.5168V107.767C109.28 107.813 109.276 107.859 109.262 107.903C109.248 107.947 109.224 107.987 109.191 108.02C109.158 108.052 109.118 108.077 109.074 108.091C109.03 108.105 108.984 108.109 108.938 108.102H104.253C104.207 108.109 104.161 108.105 104.116 108.091C104.072 108.076 104.032 108.052 103.999 108.02C103.966 107.987 103.941 107.947 103.926 107.904C103.911 107.86 103.906 107.813 103.913 107.767V95.9696H103.748L100.098 104.53C100.052 104.656 99.969 104.764 99.8606 104.842C99.7522 104.92 99.6228 104.964 99.4893 104.968H96.8548C96.7192 104.958 96.5887 104.912 96.4765 104.835C96.3644 104.758 96.2744 104.653 96.2159 104.53L92.5654 95.9696H92.4011V107.767C92.4073 107.813 92.4027 107.86 92.3877 107.904C92.3727 107.947 92.3476 107.987 92.3145 108.02C92.2815 108.052 92.2413 108.076 92.1972 108.091C92.1531 108.105 92.1062 108.109 92.0604 108.102H87.3755C87.3254 108.127 87.2689 108.137 87.2131 108.131C87.1573 108.125 87.1044 108.103 87.0607 108.068C87.017 108.032 86.9845 107.985 86.967 107.932C86.9494 107.879 86.9476 107.821 86.9618 107.767Z"/>
</mask>
<path d="M86.9618 85.5168H87.5702V85.4683L87.5625 85.4204L86.9618 85.5168ZM87.2964 85.1822L87.2 85.7829L87.2479 85.7906H87.2964V85.1822ZM92.2855 85.1822V85.7906H92.3222L92.3586 85.7862L92.2855 85.1822ZM92.8574 85.5168L92.295 85.749L92.2979 85.756L92.301 85.7629L92.8574 85.5168ZM98.1507 97.4845L97.5943 97.7307L97.7546 98.093H98.1507V97.4845ZM98.2846 97.4845V98.093H98.6848L98.8433 97.7254L98.2846 97.4845ZM103.444 85.5168L104.003 85.7577L104.006 85.749L103.444 85.5168ZM104.016 85.1822L103.943 85.7862L103.979 85.7906H104.016V85.1822ZM108.938 85.1822V85.7906H108.987L109.035 85.7829L108.938 85.1822ZM109.273 85.5168L108.672 85.4204L108.664 85.4683V85.5168H109.273ZM109.273 107.767H108.664V107.815L108.672 107.863L109.273 107.767ZM108.938 108.102L109.035 107.501L108.987 107.493H108.938V108.102ZM104.253 108.102V107.493H104.207L104.161 107.5L104.253 108.102ZM103.913 107.767L104.515 107.849L104.521 107.808V107.767H103.913ZM103.913 95.9696H104.521V95.3611H103.913V95.9696ZM103.748 95.9696V95.3611H103.346L103.189 95.7309L103.748 95.9696ZM100.098 104.53L99.538 104.291L99.532 104.306L99.5266 104.32L100.098 104.53ZM99.4893 104.968V105.577H99.4982L99.5072 105.576L99.4893 104.968ZM96.8548 104.968L96.8086 105.575L96.8316 105.577H96.8548V104.968ZM96.2159 104.53L95.6563 104.769L95.6612 104.78L95.6667 104.792L96.2159 104.53ZM92.5654 95.9696L93.125 95.7309L92.9673 95.3611H92.5654V95.9696ZM92.4011 95.9696V95.3611H91.7926V95.9696H92.4011ZM92.4011 107.767H91.7926V107.808L91.7981 107.849L92.4011 107.767ZM92.0604 108.102L92.1528 107.5L92.1069 107.493H92.0604V108.102ZM87.3755 108.102V107.493H87.2313L87.1023 107.558L87.3755 108.102ZM87.5702 107.767V85.5168H86.3533V107.767H87.5702ZM87.5625 85.4204C87.5705 85.4701 87.5665 85.5207 87.5512 85.568L86.3935 85.1931C86.3497 85.3283 86.3384 85.4723 86.361 85.6132L87.5625 85.4204ZM87.5512 85.568C87.5358 85.6153 87.5094 85.6586 87.4738 85.6942L86.6134 84.8338C86.5125 84.9347 86.4373 85.0579 86.3935 85.1931L87.5512 85.568ZM87.4738 85.6942C87.4385 85.7296 87.3952 85.7561 87.3476 85.7715L86.9727 84.6138C86.8372 84.6577 86.714 84.7331 86.6134 84.8338L87.4738 85.6942ZM87.3476 85.7715C87.2999 85.7869 87.2494 85.7908 87.2 85.7829L87.3929 84.5814C87.2523 84.5589 87.1083 84.5699 86.9727 84.6138L87.3476 85.7715ZM87.2964 85.7906H92.2855V84.5737H87.2964V85.7906ZM92.3586 85.7862C92.3454 85.7878 92.332 85.785 92.3206 85.7783L92.9351 84.728C92.7171 84.6005 92.4633 84.5478 92.2124 84.5781L92.3586 85.7862ZM92.3206 85.7783C92.309 85.7715 92.3001 85.7612 92.295 85.749L93.4198 85.2846C93.3234 85.0512 93.1532 84.8556 92.9351 84.728L92.3206 85.7783ZM92.301 85.7629L97.5943 97.7307L98.7072 97.2384L93.4138 85.2707L92.301 85.7629ZM98.1507 98.093H98.2846V96.8761H98.1507V98.093ZM98.8433 97.7254L104.003 85.7577L102.885 85.2759L97.7259 97.2437L98.8433 97.7254ZM104.006 85.749C104.001 85.7614 103.992 85.7716 103.981 85.7783L103.366 84.728C103.148 84.8555 102.978 85.051 102.882 85.2846L104.006 85.749ZM103.981 85.7783C103.969 85.785 103.956 85.7878 103.943 85.7862L104.089 84.5781C103.838 84.5478 103.584 84.6005 103.366 84.728L103.981 85.7783ZM104.016 85.7906H108.938V84.5737H104.016V85.7906ZM109.035 85.7829C108.985 85.7908 108.935 85.7869 108.887 85.7715L109.262 84.6138C109.126 84.57 108.982 84.5588 108.842 84.5814L109.035 85.7829ZM108.887 85.7715C108.84 85.7562 108.796 85.7298 108.761 85.6942L109.621 84.8338C109.52 84.7329 109.397 84.6576 109.262 84.6138L108.887 85.7715ZM108.761 85.6942C108.725 85.6586 108.699 85.6153 108.683 85.568L109.841 85.1931C109.797 85.0579 109.722 84.9347 109.621 84.8338L108.761 85.6942ZM108.683 85.568C108.668 85.5207 108.664 85.4701 108.672 85.4204L109.874 85.6132C109.896 85.4723 109.885 85.3283 109.841 85.1931L108.683 85.568ZM108.664 85.5168V107.767H109.881V85.5168H108.664ZM108.672 107.863C108.664 107.814 108.668 107.763 108.683 107.716L109.841 108.091C109.885 107.955 109.896 107.811 109.874 107.671L108.672 107.863ZM108.683 107.716C108.699 107.668 108.725 107.625 108.761 107.59L109.621 108.45C109.722 108.349 109.797 108.226 109.841 108.091L108.683 107.716ZM108.761 107.59C108.796 107.554 108.84 107.528 108.887 107.512L109.262 108.67C109.397 108.626 109.52 108.551 109.621 108.45L108.761 107.59ZM108.887 107.512C108.935 107.497 108.985 107.493 109.035 107.501L108.842 108.702C108.982 108.725 109.126 108.714 109.262 108.67L108.887 107.512ZM108.938 107.493H104.253V108.71H108.938V107.493ZM104.161 107.5C104.209 107.493 104.257 107.497 104.303 107.512L103.93 108.67C104.064 108.713 104.206 108.724 104.346 108.703L104.161 107.5ZM104.303 107.512C104.349 107.526 104.391 107.552 104.425 107.586L103.573 108.454C103.673 108.553 103.796 108.626 103.93 108.67L104.303 107.512ZM104.425 107.586C104.46 107.619 104.486 107.661 104.501 107.706L103.35 108.101C103.396 108.234 103.472 108.355 103.573 108.454L104.425 107.586ZM104.501 107.706C104.517 107.752 104.522 107.801 104.515 107.849L103.31 107.685C103.291 107.825 103.305 107.967 103.35 108.101L104.501 107.706ZM104.521 107.767V95.9696H103.304V107.767H104.521ZM103.913 95.3611H103.748V96.578H103.913V95.3611ZM103.189 95.7309L99.538 104.291L100.657 104.769L104.308 96.2082L103.189 95.7309ZM99.5266 104.32C99.5224 104.332 99.5149 104.342 99.5051 104.349L100.216 105.336C100.423 105.187 100.581 104.979 100.669 104.74L99.5266 104.32ZM99.5051 104.349C99.4953 104.356 99.4835 104.36 99.4713 104.36L99.5072 105.576C99.7622 105.569 100.009 105.485 100.216 105.336L99.5051 104.349ZM99.4893 104.36H96.8548V105.577H99.4893V104.36ZM96.901 104.362C96.8722 104.359 96.8445 104.35 96.8206 104.333L96.1325 105.337C96.3329 105.474 96.5661 105.556 96.8086 105.575L96.901 104.362ZM96.8206 104.333C96.7967 104.317 96.7776 104.294 96.7652 104.268L95.6667 104.792C95.7713 105.011 95.9321 105.199 96.1325 105.337L96.8206 104.333ZM96.7756 104.291L93.125 95.7309L92.0057 96.2082L95.6563 104.769L96.7756 104.291ZM92.5654 95.3611H92.4011V96.578H92.5654V95.3611ZM91.7926 95.9696V107.767H93.0095V95.9696H91.7926ZM91.7981 107.849C91.7917 107.801 91.7964 107.752 91.8121 107.706L92.9633 108.101C93.0091 107.967 93.0229 107.825 93.004 107.685L91.7981 107.849ZM91.8121 107.706C91.8278 107.661 91.8538 107.619 91.8882 107.586L92.7409 108.454C92.8414 108.355 92.9176 108.234 92.9633 108.101L91.8121 107.706ZM91.8882 107.586C91.9225 107.552 91.9643 107.526 92.0105 107.512L92.3839 108.67C92.5183 108.626 92.6405 108.552 92.7409 108.454L91.8882 107.586ZM92.0105 107.512C92.0563 107.497 92.1051 107.493 92.1528 107.5L91.968 108.703C92.1074 108.724 92.2498 108.713 92.3839 108.67L92.0105 107.512ZM92.0604 107.493H87.3755V108.71H92.0604V107.493ZM87.1023 107.558C87.1568 107.531 87.2178 107.52 87.2782 107.526L87.148 108.736C87.32 108.754 87.4939 108.723 87.6487 108.645L87.1023 107.558ZM87.2782 107.526C87.3387 107.533 87.396 107.556 87.4433 107.595L86.6781 108.541C86.8127 108.65 86.9759 108.717 87.148 108.736L87.2782 107.526ZM87.4433 107.595C87.4908 107.633 87.526 107.684 87.5449 107.742L86.389 108.122C86.4431 108.286 86.5433 108.432 86.6781 108.541L87.4433 107.595ZM87.5449 107.742C87.5639 107.799 87.5659 107.861 87.5505 107.92L86.373 107.613C86.3293 107.781 86.335 107.958 86.389 108.122L87.5449 107.742Z" fill="#00FF63" mask="url(#path-2-inside-1_145_5628)"/>
<path d="M113.209 85.5168V85.4926L113.208 85.4852L113.215 85.4864H113.24H118.497H118.52L118.535 85.4841L118.533 85.4964V85.5168V99.5993C118.475 100.635 118.814 101.655 119.48 102.45L119.485 102.456L119.49 102.461C119.815 102.812 120.212 103.089 120.654 103.272C121.091 103.453 121.563 103.538 122.036 103.52C122.508 103.543 122.98 103.462 123.419 103.284C123.862 103.105 124.26 102.83 124.585 102.48L124.592 102.472L124.599 102.463C125.247 101.654 125.572 100.633 125.512 99.599V85.5168V85.4926L125.511 85.4852L125.518 85.4864H125.542H130.769H130.792L130.807 85.4841L130.805 85.4963V85.5168V99.2368C130.805 102.171 130.01 104.375 128.462 105.895C126.909 107.421 124.778 108.203 122.031 108.211C119.251 108.211 117.104 107.43 115.552 105.901C114.004 104.377 113.209 102.173 113.209 99.2429V85.5168Z" stroke="#00FF63" stroke-width="0.608427"/>
<mask id="path-5-inside-2_145_5628" fill="white">
<path d="M143.028 108.515C141.223 108.512 139.432 108.187 137.741 107.554C136.276 107.071 134.93 106.283 133.792 105.242C133.748 105.212 133.712 105.173 133.688 105.126C133.663 105.079 133.65 105.027 133.65 104.974C133.65 104.921 133.663 104.869 133.688 104.822C133.712 104.776 133.748 104.736 133.792 104.706L136.834 101.129C136.858 101.088 136.891 101.054 136.931 101.029C136.971 101.004 137.017 100.99 137.064 100.987C137.111 100.984 137.158 100.992 137.2 101.012C137.243 101.031 137.28 101.061 137.309 101.098C138.894 102.57 140.975 103.389 143.138 103.392C143.98 103.435 144.815 103.223 145.535 102.784C145.797 102.616 146.012 102.383 146.159 102.108C146.306 101.833 146.38 101.526 146.375 101.214C146.378 100.977 146.325 100.743 146.219 100.531C146.113 100.32 145.958 100.137 145.766 99.9972C145.078 99.5962 144.304 99.3647 143.509 99.3219L142.292 99.1576C137.193 98.4315 134.644 96.0262 134.644 91.9416C134.608 90.9563 134.798 89.9758 135.201 89.0759C135.604 88.1759 136.209 87.3808 136.968 86.7518C138.522 85.4497 140.588 84.7967 143.168 84.7926C146.106 84.6997 148.99 85.5906 151.364 87.3237C151.404 87.35 151.439 87.3848 151.465 87.4257C151.491 87.4666 151.507 87.5127 151.514 87.5607C151.52 87.6087 151.516 87.6576 151.502 87.7038C151.487 87.7501 151.463 87.7927 151.431 87.8287L148.9 91.4792C148.877 91.5186 148.847 91.5529 148.811 91.5798C148.774 91.6067 148.733 91.6257 148.688 91.6354C148.644 91.6452 148.598 91.6455 148.554 91.6364C148.51 91.6273 148.468 91.609 148.431 91.5827C146.925 90.5008 145.126 89.9005 143.272 89.8608C142.608 89.8193 141.949 90.0037 141.404 90.3841C141.191 90.5487 141.021 90.7613 140.907 91.0046C140.792 91.2479 140.738 91.5148 140.747 91.7835C140.742 92.0312 140.801 92.2761 140.919 92.4944C141.036 92.7128 141.207 92.8975 141.416 93.0307C142.11 93.4221 142.884 93.6529 143.679 93.7061L144.896 93.8703C147.435 94.2273 149.334 94.998 150.591 96.1824C151.848 97.3668 152.477 99.0237 152.477 101.153C152.511 102.168 152.309 103.178 151.887 104.102C151.465 105.026 150.834 105.839 150.043 106.477C148.356 107.836 146.018 108.515 143.028 108.515Z"/>
</mask>
<path d="M143.028 108.515L143.027 109.124H143.028V108.515ZM137.741 107.554L137.954 106.984L137.943 106.98L137.931 106.976L137.741 107.554ZM133.792 105.242L134.203 104.793L134.169 104.762L134.132 104.737L133.792 105.242ZM133.792 104.706L134.132 105.212L134.201 105.165L134.256 105.101L133.792 104.706ZM136.834 101.129L137.298 101.523L137.333 101.481L137.361 101.434L136.834 101.129ZM137.309 101.098L136.826 101.468L136.857 101.509L136.895 101.544L137.309 101.098ZM143.138 103.392L143.169 102.785L143.154 102.784L143.139 102.784L143.138 103.392ZM145.535 102.784L145.852 103.303L145.863 103.296L145.535 102.784ZM146.375 101.214L145.766 101.205L145.766 101.215L145.766 101.225L146.375 101.214ZM145.766 99.9972L146.124 99.5052L146.099 99.4871L146.073 99.4715L145.766 99.9972ZM143.509 99.3219L143.427 99.9248L143.452 99.9281L143.476 99.9294L143.509 99.3219ZM142.292 99.1576L142.206 99.7599L142.211 99.7605L142.292 99.1576ZM134.644 91.9416H135.253V91.9304L135.252 91.9192L134.644 91.9416ZM136.968 86.7518L137.356 87.2203L137.359 87.2181L136.968 86.7518ZM143.168 84.7926L143.169 85.4011L143.178 85.401L143.187 85.4008L143.168 84.7926ZM151.364 87.3237L151.005 87.8151L151.019 87.8252L151.033 87.8346L151.364 87.3237ZM151.431 87.8287L150.979 87.4214L150.953 87.4502L150.931 87.482L151.431 87.8287ZM148.9 91.4792L148.4 91.1326L148.384 91.1555L148.37 91.1798L148.9 91.4792ZM148.431 91.5827L148.076 92.0769L148.077 92.0773L148.431 91.5827ZM143.272 89.8608L143.234 90.4681L143.246 90.4688L143.259 90.4691L143.272 89.8608ZM141.404 90.3841L141.056 89.8849L141.043 89.8937L141.031 89.9031L141.404 90.3841ZM140.747 91.7835L141.355 91.7945L141.355 91.7787L141.355 91.7629L140.747 91.7835ZM141.416 93.0307L141.089 93.5437L141.103 93.5526L141.117 93.5608L141.416 93.0307ZM143.679 93.7061L143.761 93.1031L143.74 93.1004L143.72 93.099L143.679 93.7061ZM144.896 93.8703L144.981 93.2678L144.978 93.2674L144.896 93.8703ZM152.477 101.153H151.869V101.163L151.869 101.174L152.477 101.153ZM150.043 106.477L150.425 106.951L150.426 106.95L150.043 106.477ZM143.029 107.907C141.296 107.904 139.577 107.592 137.954 106.984L137.528 108.124C139.287 108.782 141.149 109.121 143.027 109.124L143.029 107.907ZM137.931 106.976C136.548 106.52 135.277 105.776 134.203 104.793L133.382 105.691C134.583 106.79 136.004 107.622 137.551 108.132L137.931 106.976ZM134.132 104.737C134.17 104.763 134.202 104.798 134.224 104.84L133.151 105.412C133.222 105.547 133.326 105.662 133.453 105.747L134.132 104.737ZM134.224 104.84C134.247 104.881 134.258 104.927 134.258 104.974H133.041C133.041 105.127 133.079 105.277 133.151 105.412L134.224 104.84ZM134.258 104.974C134.258 105.021 134.247 105.067 134.224 105.109L133.151 104.536C133.079 104.671 133.041 104.822 133.041 104.974H134.258ZM134.224 105.109C134.202 105.15 134.17 105.185 134.132 105.212L133.453 104.201C133.326 104.286 133.222 104.402 133.151 104.536L134.224 105.109ZM134.256 105.101L137.298 101.523L136.371 100.735L133.329 104.312L134.256 105.101ZM137.361 101.434C137.334 101.48 137.297 101.518 137.252 101.546L136.611 100.512C136.486 100.59 136.382 100.697 136.308 100.824L137.361 101.434ZM137.252 101.546C137.207 101.574 137.155 101.591 137.103 101.594L137.025 100.38C136.878 100.389 136.736 100.435 136.611 100.512L137.252 101.546ZM137.103 101.594C137.05 101.597 136.997 101.588 136.948 101.566L137.452 100.458C137.318 100.397 137.172 100.37 137.025 100.38L137.103 101.594ZM136.948 101.566C136.9 101.544 136.858 101.51 136.826 101.468L137.792 100.729C137.703 100.612 137.586 100.519 137.452 100.458L136.948 101.566ZM136.895 101.544C138.592 103.12 140.821 103.997 143.137 104.001L143.139 102.784C141.129 102.781 139.195 102.02 137.723 100.653L136.895 101.544ZM143.107 104C144.071 104.049 145.028 103.806 145.852 103.303L145.218 102.264C144.603 102.64 143.889 102.821 143.169 102.785L143.107 104ZM145.863 103.296C146.213 103.072 146.5 102.762 146.696 102.395L145.623 101.821C145.525 102.004 145.381 102.159 145.207 102.272L145.863 103.296ZM146.696 102.395C146.892 102.029 146.991 101.618 146.983 101.203L145.766 101.225C145.77 101.433 145.721 101.638 145.623 101.821L146.696 102.395ZM146.983 101.223C146.988 100.889 146.912 100.558 146.763 100.259L145.674 100.804C145.737 100.928 145.768 101.066 145.766 101.205L146.983 101.223ZM146.763 100.259C146.613 99.9605 146.394 99.7019 146.124 99.5052L145.408 100.489C145.521 100.571 145.612 100.679 145.674 100.804L146.763 100.259ZM146.073 99.4715C145.301 99.0219 144.433 98.7623 143.542 98.7143L143.476 99.9294C144.175 99.9671 144.855 100.17 145.46 100.523L146.073 99.4715ZM143.59 98.7189L142.373 98.5546L142.211 99.7605L143.427 99.9248L143.59 98.7189ZM142.378 98.5552C139.897 98.202 138.123 97.4511 136.974 96.3665C135.841 95.298 135.253 93.8466 135.253 91.9416H134.036C134.036 94.1212 134.722 95.9148 136.139 97.2516C137.538 98.5724 139.588 99.3871 142.206 99.7599L142.378 98.5552ZM135.252 91.9192C135.219 91.0271 135.392 90.1393 135.757 89.3245L134.646 88.8272C134.205 89.8122 133.996 90.8855 134.036 91.9641L135.252 91.9192ZM135.757 89.3245C136.122 88.5097 136.669 87.7898 137.356 87.2203L136.58 86.2832C135.749 86.9717 135.087 87.8421 134.646 88.8272L135.757 89.3245ZM137.359 87.2181C138.776 86.0303 140.692 85.405 143.169 85.4011L143.167 84.1842C140.485 84.1884 138.267 84.8692 136.577 86.2855L137.359 87.2181ZM143.187 85.4008C145.989 85.3122 148.741 86.1619 151.005 87.8151L151.722 86.8323C149.239 85.0192 146.222 84.0873 143.149 84.1845L143.187 85.4008ZM151.033 87.8346C151 87.8132 150.972 87.7848 150.951 87.7511L151.979 87.1003C151.906 86.9848 151.809 86.8868 151.694 86.8128L151.033 87.8346ZM150.951 87.7511C150.929 87.7174 150.916 87.6797 150.911 87.6407L152.117 87.4808C152.099 87.3458 152.052 87.2159 151.979 87.1003L150.951 87.7511ZM150.911 87.6407C150.905 87.6015 150.909 87.5616 150.921 87.5236L152.083 87.8841C152.123 87.7536 152.135 87.616 152.117 87.4808L150.911 87.6407ZM150.921 87.5236C150.932 87.4857 150.952 87.4508 150.979 87.4214L151.883 88.2359C151.974 88.1345 152.042 88.0145 152.083 87.8841L150.921 87.5236ZM150.931 87.482L148.4 91.1326L149.4 91.8259L151.931 88.1753L150.931 87.482ZM148.37 91.1798C148.39 91.1448 148.417 91.1144 148.449 91.0906L149.172 92.069C149.277 91.9913 149.365 91.8924 149.429 91.7787L148.37 91.1798ZM148.449 91.0906C148.481 91.0667 148.518 91.0499 148.557 91.0413L148.82 92.2295C148.947 92.2014 149.067 92.1467 149.172 92.069L148.449 91.0906ZM148.557 91.0413C148.596 91.0326 148.637 91.0323 148.676 91.0404L148.432 92.2325C148.56 92.2587 148.692 92.2577 148.82 92.2295L148.557 91.0413ZM148.676 91.0404C148.716 91.0485 148.753 91.0648 148.785 91.0881L148.077 92.0773C148.183 92.1533 148.304 92.2062 148.432 92.2325L148.676 91.0404ZM148.786 91.0885C147.18 89.9349 145.262 89.2948 143.285 89.2525L143.259 90.4691C144.99 90.5061 146.67 91.0667 148.076 92.0769L148.786 91.0885ZM143.31 89.2536C142.509 89.2035 141.714 89.426 141.056 89.8849L141.752 90.8832C142.185 90.5814 142.707 90.4351 143.234 90.4681L143.31 89.2536ZM141.031 89.9031C140.743 90.1266 140.511 90.4155 140.356 90.746L141.457 91.2632C141.531 91.1071 141.64 90.9707 141.776 90.8651L141.031 89.9031ZM140.356 90.746C140.201 91.0765 140.126 91.4391 140.139 91.804L141.355 91.7629C141.349 91.5905 141.384 91.4193 141.457 91.2632L140.356 90.746ZM140.138 91.7724C140.132 92.1243 140.216 92.472 140.382 92.7821L141.455 92.2068C141.387 92.0801 141.352 91.9382 141.355 91.7945L140.138 91.7724ZM140.382 92.7821C140.549 93.0922 140.792 93.3545 141.089 93.5437L141.743 92.5177C141.622 92.4405 141.523 92.3334 141.455 92.2068L140.382 92.7821ZM141.117 93.5608C141.891 93.9968 142.753 94.2539 143.639 94.3132L143.72 93.099C143.015 93.0519 142.33 92.8474 141.715 92.5007L141.117 93.5608ZM143.598 94.309L144.815 94.4733L144.978 93.2674L143.761 93.1031L143.598 94.309ZM144.811 94.4729C147.283 94.8203 149.043 95.5598 150.174 96.6253L151.008 95.7395C149.624 94.4362 147.587 93.6343 144.981 93.2678L144.811 94.4729ZM150.174 96.6253C151.282 97.6689 151.869 99.1496 151.869 101.153H153.086C153.086 98.8978 152.415 97.0647 151.008 95.7395L150.174 96.6253ZM151.869 101.174C151.9 102.095 151.717 103.011 151.334 103.849L152.441 104.355C152.902 103.345 153.123 102.242 153.085 101.133L151.869 101.174ZM151.334 103.849C150.951 104.687 150.378 105.425 149.661 106.004L150.426 106.95C151.289 106.253 151.979 105.364 152.441 104.355L151.334 103.849ZM149.662 106.003C148.117 107.247 145.931 107.907 143.028 107.907V109.124C146.104 109.124 148.595 108.425 150.425 106.951L149.662 106.003Z" fill="#00FF63" mask="url(#path-5-inside-2_145_5628)"/>
<path d="M155.469 107.799L155.471 107.791V107.767V85.5168V85.4926L155.469 85.4852L155.477 85.4864H155.501H160.758H160.781L160.796 85.4841L160.794 85.4964V85.5168V107.767V107.787L160.796 107.8L160.781 107.797H160.758H155.501H155.477L155.469 107.799ZM155.455 107.813V107.813Z" stroke="#00FF63" stroke-width="0.608427"/>
<path d="M181.196 90.0775L181.205 90.1019L181.218 90.1244C181.22 90.1274 181.221 90.1309 181.222 90.1344C181.222 90.138 181.221 90.1416 181.22 90.1449L181.507 90.2477L181.22 90.1449C181.219 90.1482 181.217 90.1513 181.215 90.1538L181.43 90.3682L181.215 90.1538C181.212 90.1563 181.209 90.1582 181.206 90.1595L181.197 90.1626L181.189 90.1662L176.705 92.1193L176.689 92.1262L176.674 92.135C176.671 92.1364 176.669 92.1372 176.666 92.1374C176.663 92.1376 176.66 92.1371 176.658 92.136C176.655 92.1349 176.653 92.1332 176.651 92.1311C176.649 92.129 176.648 92.1264 176.647 92.1236L176.64 92.0956L176.628 92.0693C176.277 91.314 175.829 90.7274 175.276 90.3297C174.723 89.9318 174.081 89.7353 173.363 89.7333C172.675 89.6847 171.991 89.8789 171.431 90.2824C170.871 90.6859 170.47 91.2729 170.298 91.9413C170.173 92.319 170.088 92.8994 170.033 93.6598C169.976 94.4349 169.949 95.4207 169.951 96.6151C169.953 97.8093 169.982 98.7943 170.039 99.5678C170.094 100.328 170.178 100.906 170.298 101.28C170.469 101.949 170.87 102.537 171.431 102.941C171.991 103.344 172.675 103.538 173.364 103.49C174.081 103.488 174.723 103.291 175.276 102.893C175.829 102.496 176.277 101.909 176.628 101.154L176.64 101.128L176.647 101.099C176.648 101.097 176.649 101.094 176.651 101.092C176.653 101.09 176.655 101.088 176.658 101.087C176.66 101.086 176.663 101.085 176.666 101.086C176.669 101.086 176.671 101.087 176.674 101.088L176.689 101.097L176.705 101.104L181.189 103.057L181.197 103.06L181.206 103.064C181.209 103.065 181.212 103.067 181.215 103.069L181.215 103.069C181.217 103.072 181.219 103.075 181.22 103.078L181.22 103.078C181.221 103.081 181.222 103.085 181.222 103.089C181.221 103.092 181.22 103.096 181.218 103.099L181.205 103.121L181.196 103.146C180.625 104.667 179.582 105.965 178.219 106.85C176.683 107.729 174.942 108.185 173.172 108.174C171.403 108.163 169.668 107.684 168.144 106.786C166.744 105.818 165.717 104.401 165.233 102.769C164.344 98.7321 164.345 94.5504 165.233 90.5136C165.706 88.8606 166.735 87.4208 168.144 86.4363C169.669 85.5391 171.403 85.0606 173.172 85.0492C174.942 85.0378 176.683 85.4945 178.219 86.3729C179.582 87.2581 180.625 88.5563 181.196 90.0775Z" stroke="#00FF63" stroke-width="0.608427"/>
<path d="M90.6123 120.453H88.5314V124.048H87.1443V114.922H90.6123C90.988 114.904 91.3633 114.963 91.7156 115.095C92.0679 115.226 92.3899 115.428 92.6619 115.688C92.934 115.947 93.1506 116.26 93.2986 116.605C93.4466 116.951 93.5228 117.323 93.5228 117.699C93.5228 118.075 93.4466 118.448 93.2986 118.793C93.1506 119.139 92.934 119.451 92.6619 119.711C92.3899 119.971 92.0679 120.172 91.7156 120.304C91.3633 120.436 90.988 120.494 90.6123 120.477V120.453ZM90.5393 116.145H88.5314V119.187H90.5393C90.7505 119.206 90.9632 119.181 91.1641 119.113C91.365 119.045 91.5496 118.936 91.7061 118.793C91.8625 118.65 91.9875 118.476 92.073 118.282C92.1585 118.088 92.2026 117.878 92.2026 117.666C92.2026 117.454 92.1585 117.244 92.073 117.05C91.9875 116.856 91.8625 116.682 91.7061 116.539C91.5496 116.396 91.365 116.287 91.1641 116.219C90.9632 116.151 90.7505 116.126 90.5393 116.145Z" fill="#00FF63"/>
<path d="M100.28 124.048L98.3515 120.197H96.6175V124.048H95.2303V114.922H98.7775C99.1442 114.891 99.5133 114.938 99.8607 115.059C100.208 115.181 100.526 115.374 100.794 115.627C101.061 115.879 101.272 116.186 101.414 116.525C101.555 116.865 101.623 117.231 101.613 117.599C101.63 118.152 101.459 118.694 101.127 119.136C100.795 119.579 100.323 119.895 99.7874 120.033L101.899 124.079L100.28 124.048ZM98.674 116.139H96.6175V119.004H98.674C98.87 119.017 99.0666 118.99 99.2515 118.923C99.4365 118.857 99.6058 118.754 99.7491 118.619C99.8925 118.485 100.007 118.323 100.085 118.143C100.163 117.962 100.203 117.768 100.203 117.572C100.203 117.375 100.163 117.181 100.085 117.001C100.007 116.82 99.8925 116.658 99.7491 116.524C99.6058 116.389 99.4365 116.286 99.2515 116.22C99.0666 116.154 98.87 116.126 98.674 116.139Z" fill="#00FF63"/>
<path d="M109.017 123.148C108.372 123.775 107.508 124.126 106.608 124.126C105.708 124.126 104.844 123.775 104.198 123.148C103.298 122.247 103.31 121.237 103.31 119.497C103.31 117.757 103.31 116.723 104.198 115.847C104.845 115.222 105.709 114.873 106.608 114.873C107.507 114.873 108.371 115.222 109.017 115.847C109.918 116.747 109.893 117.763 109.893 119.497C109.893 121.231 109.918 122.247 109.017 123.148ZM107.965 116.632C107.601 116.273 107.112 116.073 106.602 116.073C106.092 116.073 105.602 116.273 105.239 116.632C104.789 117.124 104.697 117.636 104.697 119.473C104.697 121.31 104.789 121.828 105.239 122.314C105.418 122.494 105.63 122.636 105.864 122.734C106.098 122.831 106.349 122.881 106.602 122.881C106.855 122.881 107.106 122.831 107.34 122.734C107.574 122.636 107.786 122.494 107.965 122.314C108.415 121.828 108.506 121.31 108.506 119.473C108.506 117.636 108.415 117.124 107.965 116.632Z" fill="#00FF63"/>
<path d="M117.523 123.19C117.206 123.482 116.834 123.708 116.429 123.856C116.023 124.003 115.593 124.068 115.162 124.048H111.95V114.922H115.162C115.593 114.903 116.024 114.969 116.429 115.117C116.835 115.266 117.206 115.493 117.523 115.786C118.515 116.778 118.448 118.11 118.448 119.436C118.448 120.763 118.515 122.199 117.523 123.19ZM116.574 116.765C116.375 116.557 116.134 116.394 115.866 116.289C115.598 116.184 115.31 116.139 115.022 116.157H113.337V122.813H115.022C115.31 122.832 115.598 122.787 115.866 122.682C116.134 122.576 116.376 122.414 116.574 122.205C117.049 121.675 117.061 120.69 117.061 119.43C117.061 118.171 117.049 117.289 116.574 116.765Z" fill="#00FF63"/>
<path d="M123.644 124.127C123.217 124.152 122.789 124.088 122.388 123.939C121.986 123.79 121.62 123.56 121.312 123.263C121.004 122.966 120.761 122.608 120.598 122.212C120.435 121.817 120.355 121.392 120.364 120.964V114.879H121.752V120.885C121.737 121.142 121.775 121.401 121.864 121.643C121.952 121.886 122.09 122.108 122.267 122.296C122.445 122.484 122.658 122.633 122.896 122.735C123.133 122.838 123.389 122.89 123.647 122.89C123.905 122.89 124.161 122.838 124.398 122.735C124.635 122.633 124.849 122.484 125.027 122.296C125.204 122.108 125.341 121.886 125.43 121.643C125.519 121.401 125.557 121.142 125.542 120.885V114.879H126.929V120.964C126.938 121.392 126.857 121.817 126.694 122.213C126.53 122.608 126.286 122.966 125.977 123.263C125.669 123.56 125.302 123.79 124.901 123.939C124.499 124.088 124.071 124.152 123.644 124.127Z" fill="#00FF63"/>
<path d="M132.137 124.127C131.687 124.138 131.238 124.057 130.82 123.889C130.401 123.72 130.021 123.468 129.704 123.148C128.803 122.247 128.815 121.237 128.815 119.497C128.815 117.757 128.815 116.723 129.704 115.847C130.375 115.204 131.275 114.854 132.204 114.873C133.134 114.892 134.018 115.28 134.662 115.95L133.738 116.887C133.541 116.645 133.293 116.45 133.01 116.317C132.728 116.184 132.419 116.117 132.107 116.121C131.856 116.114 131.607 116.16 131.375 116.254C131.142 116.348 130.932 116.489 130.756 116.668C130.306 117.161 130.221 117.684 130.221 119.522C130.221 121.359 130.306 121.888 130.756 122.375C130.931 122.555 131.142 122.698 131.374 122.793C131.606 122.888 131.856 122.935 132.107 122.929C132.42 122.932 132.729 122.864 133.011 122.73C133.293 122.596 133.542 122.4 133.738 122.156L134.662 123.093C134.337 123.432 133.944 123.7 133.51 123.878C133.075 124.056 132.607 124.141 132.137 124.127Z" fill="#00FF63"/>
<path d="M139.396 116.145V124.055H138.009V116.145H135.49V114.898H141.915V116.145H139.396Z" fill="#00FF63"/>
<path d="M143.497 124.048V114.922H144.89V124.048H143.497Z" fill="#00FF63"/>
<path d="M152.672 123.148C152.027 123.775 151.162 124.126 150.262 124.126C149.363 124.126 148.498 123.775 147.853 123.148C146.953 122.247 146.965 121.237 146.965 119.497C146.965 117.757 146.965 116.723 147.853 115.847C148.5 115.222 149.364 114.873 150.262 114.873C151.161 114.873 152.025 115.222 152.672 115.847C153.572 116.747 153.548 117.763 153.548 119.497C153.548 121.231 153.548 122.247 152.672 123.148ZM151.619 116.632C151.256 116.273 150.766 116.073 150.256 116.073C149.746 116.073 149.257 116.273 148.894 116.632C148.443 117.124 148.358 117.636 148.358 119.473C148.358 121.31 148.443 121.828 148.894 122.314C149.072 122.494 149.285 122.636 149.518 122.734C149.752 122.831 150.003 122.881 150.256 122.881C150.51 122.881 150.76 122.831 150.994 122.734C151.228 122.636 151.441 122.494 151.619 122.314C152.07 121.828 152.161 121.31 152.161 119.473C152.161 117.636 152.063 117.124 151.595 116.632H151.619Z" fill="#00FF63"/>
<path d="M161.19 124.049L156.931 117.611V124.049H155.544V114.922H156.815L161.074 121.347V114.898H162.461V124.024L161.19 124.049Z" fill="#00FF63"/>
<path d="M11.2681 102.066H1.47249L1.47249 99.5286L1.47248 99.5268C1.47223 99.4832 1.48813 99.441 1.51709 99.4085C1.5171 99.4085 1.51711 99.4085 1.51712 99.4085L7.06531 93.1797C7.64328 92.6098 7.98225 91.8408 8.01281 91.0295C8.03485 90.5481 7.87475 90.076 7.56435 89.7074L7.55962 89.7018L7.55462 89.6964C7.39143 89.5205 7.19129 89.383 6.96868 89.2937C6.7489 89.2056 6.51254 89.1665 6.27618 89.1793C5.73761 89.1812 5.28368 89.3596 4.95476 89.7303C4.64543 90.079 4.47528 90.5658 4.41351 91.1469L1.52798 90.7025C1.55457 90.1432 1.69525 89.5951 1.9415 89.092C2.19098 88.5823 2.54336 88.1299 2.97643 87.7632C3.95196 86.947 5.19656 86.5234 6.46749 86.575L6.48034 86.5755L6.49319 86.5749C7.7649 86.519 9.00875 86.9579 9.96371 87.7995C10.3883 88.1872 10.7246 88.6617 10.9497 89.1908C11.1752 89.7207 11.2838 90.2929 11.2682 90.8686L11.2682 90.8713C11.2423 92.2991 10.6589 93.6603 9.64278 94.6638L9.63649 94.67L9.63056 94.6766L5.85834 98.8626L5.78012 98.9494V99.0662V99.1088V99.413H6.08433H11.2681V102.066ZM11.2671 99.3289C11.2672 99.3289 11.2672 99.3292 11.2674 99.3301L11.2671 99.3289ZM11.2671 102.15C11.2671 102.15 11.2672 102.149 11.2674 102.149L11.2671 102.15ZM1.37097 102.174L1.37099 102.174L1.37097 102.174Z" stroke="#00FF63" stroke-width="0.608427"/>
<path d="M14.6748 99.1616L14.675 99.1615L14.6714 99.1509C14.5584 98.8175 14.4666 98.2645 14.4052 97.4712C14.3442 96.6842 14.3143 95.6814 14.3163 94.4607V94.4602C14.3163 93.2475 14.3467 92.2445 14.4075 91.4544C14.4687 90.6579 14.5595 90.0989 14.6719 89.762L14.672 89.7621L14.6747 89.753C14.9588 88.8034 15.5577 87.979 16.3728 87.4154C17.3 86.8654 18.3581 86.5752 19.4362 86.5752C20.5136 86.5752 21.5711 86.8651 22.4978 87.4142C23.2975 87.9851 23.8916 88.7988 24.1917 89.7342C24.6452 92.8666 24.6452 96.048 24.1917 99.1804C23.8927 100.118 23.2985 100.934 22.4977 101.506C21.571 102.055 20.5135 102.345 19.4362 102.345C18.3582 102.345 17.3001 102.055 16.373 101.505C15.5575 100.939 14.9586 100.113 14.6748 99.1616ZM17.8464 98.6071L17.8507 98.6539L17.869 98.6972C17.999 99.0063 18.2174 99.2702 18.4967 99.4557C18.7761 99.6412 19.1039 99.7402 19.4392 99.7402C19.7746 99.7402 20.1025 99.6412 20.3818 99.4557C20.6612 99.2701 20.8795 99.0063 21.0095 98.6972L21.0285 98.6522L21.0323 98.6035C21.2527 95.8457 21.2527 93.0747 21.0323 90.317L21.0285 90.2682L21.0095 90.2232C20.8795 89.9142 20.6612 89.6503 20.3818 89.4648C20.1025 89.2792 19.7746 89.1803 19.4392 89.1803C19.1039 89.1803 18.7761 89.2793 18.4967 89.4648C18.2174 89.6503 17.999 89.9141 17.869 90.2232L17.8507 90.2666L17.8464 90.3134C17.5933 93.0722 17.5933 95.8483 17.8464 98.6071Z" stroke="#00FF63" stroke-width="0.608427"/>
<path d="M11.3743 120.638L11.5655 120.577L11.3743 120.638ZM7.56453 111.033L7.55868 111.026L7.55243 111.019C7.38819 110.846 7.18796 110.711 6.96594 110.623C6.74673 110.536 6.51144 110.498 6.27615 110.511C5.73757 110.513 5.28363 110.691 4.9547 111.062C4.64537 111.41 4.47522 111.897 4.41345 112.478L1.52794 112.034C1.55514 111.474 1.69611 110.925 1.94236 110.421C2.19169 109.91 2.54357 109.457 2.97603 109.089C3.95526 108.279 5.19841 107.858 6.46821 107.906L6.48096 107.907L6.4937 107.906C7.7655 107.848 9.00996 108.287 9.96344 109.131C10.3882 109.518 10.7245 109.993 10.9497 110.522C11.1751 111.052 11.2837 111.624 11.2682 112.2L11.2681 112.203C11.2422 113.63 10.6588 114.992 9.64272 115.995L9.63643 116.001L9.6305 116.008L5.85828 120.194L5.78006 120.281V120.398V120.44V120.744H6.08427H11.2681V123.391H1.47243L1.47243 120.861C1.47279 120.813 1.48956 120.767 1.51985 120.731L7.0652 114.511C7.64312 113.941 7.9821 113.172 8.01274 112.361C8.03581 111.878 7.87577 111.403 7.56453 111.033ZM11.3743 120.638L11.3743 120.638L11.3743 120.638ZM11.5496 123.553L11.5354 123.549L11.5496 123.553Z" stroke="#00FF63" stroke-width="0.608427"/>
<mask id="path-22-inside-3_145_5628" fill="white">
<path d="M14.2434 123.464V120.86C14.2417 120.74 14.2826 120.624 14.3589 120.531L19.92 114.301C20.443 113.782 20.7496 113.084 20.7779 112.348C20.8 111.941 20.6674 111.541 20.4067 111.228C20.2725 111.088 20.1094 110.978 19.9288 110.907C19.7481 110.835 19.5541 110.804 19.3602 110.815C18.411 110.815 17.8878 111.423 17.7783 112.579C17.7783 112.75 17.6931 112.823 17.5228 112.792L14.4807 112.324C14.4481 112.322 14.4165 112.313 14.3883 112.296C14.36 112.28 14.3361 112.257 14.3183 112.23C14.3005 112.203 14.2893 112.172 14.2858 112.139C14.2823 112.107 14.2866 112.074 14.2981 112.044C14.3228 111.433 14.474 110.835 14.7422 110.286C15.0103 109.737 15.3894 109.25 15.8556 108.856C16.891 107.994 18.2092 107.548 19.5549 107.602C20.8941 107.549 22.2021 108.016 23.2055 108.904C23.6653 109.32 24.0295 109.831 24.2732 110.401C24.5169 110.972 24.6341 111.588 24.617 112.208C24.5874 113.716 23.9695 115.153 22.8952 116.211L19.129 120.397V120.44H24.4101C24.4414 120.436 24.4733 120.439 24.5031 120.45C24.533 120.46 24.5601 120.477 24.5824 120.499C24.6047 120.521 24.6216 120.548 24.6318 120.578C24.6421 120.608 24.6453 120.64 24.6413 120.671V123.464C24.6466 123.495 24.6443 123.528 24.6346 123.558C24.6248 123.589 24.6079 123.616 24.5853 123.639C24.5627 123.662 24.535 123.679 24.5045 123.688C24.4741 123.698 24.4417 123.7 24.4101 123.695H14.4988C14.4656 123.705 14.4304 123.707 14.3965 123.699C14.3626 123.691 14.3313 123.675 14.3055 123.652C14.2798 123.629 14.2606 123.599 14.2497 123.566C14.2388 123.533 14.2366 123.498 14.2434 123.464Z"/>
</mask>
<path d="M14.2434 123.464L14.8401 123.583L14.8518 123.524V123.464H14.2434ZM14.2434 120.86H14.8518L14.8517 120.851L14.2434 120.86ZM14.3589 120.531L13.905 120.126L13.8973 120.135L13.8898 120.144L14.3589 120.531ZM19.92 114.301L19.4914 113.869L19.4783 113.882L19.466 113.896L19.92 114.301ZM20.7779 112.348L20.1702 112.315L20.1699 112.325L20.7779 112.348ZM20.4067 111.228L20.8742 110.839L20.8609 110.823L20.8467 110.808L20.4067 111.228ZM19.3602 110.815V111.423H19.377L19.3938 111.422L19.3602 110.815ZM17.7783 112.579L17.1726 112.522L17.1698 112.55V112.579H17.7783ZM17.5228 112.792L17.6297 112.193L17.6226 112.192L17.6154 112.191L17.5228 112.792ZM14.4807 112.324L14.5733 111.722L14.5432 111.718L14.5128 111.716L14.4807 112.324ZM14.2981 112.044L14.867 112.259L14.902 112.167L14.906 112.068L14.2981 112.044ZM15.8556 108.856L15.4665 108.388L15.4625 108.391L15.8556 108.856ZM19.5549 107.602L19.5302 108.21L19.5546 108.211L19.579 108.21L19.5549 107.602ZM23.2055 108.904L23.6138 108.453L23.6088 108.449L23.2055 108.904ZM24.617 112.208L24.0088 112.191L24.0087 112.196L24.617 112.208ZM22.8952 116.211L22.4681 115.778L22.4551 115.791L22.4429 115.805L22.8952 116.211ZM19.129 120.397L18.6767 119.99L18.5205 120.164V120.397H19.129ZM19.129 120.44H18.5205V121.048H19.129V120.44ZM24.4101 120.44V121.048H24.4485L24.4865 121.044L24.4101 120.44ZM24.6413 120.671L24.0377 120.595L24.0329 120.633V120.671H24.6413ZM24.6413 123.464H24.0329V123.515L24.0413 123.564L24.6413 123.464ZM24.4101 123.695L24.5107 123.095L24.4608 123.087H24.4101V123.695ZM14.4988 123.695V123.087H14.4081L14.3212 123.113L14.4988 123.695ZM14.2497 123.566L14.8273 123.375L14.2497 123.566ZM14.8518 123.464V120.86H13.6349V123.464H14.8518ZM14.8517 120.851C14.8521 120.876 14.8437 120.9 14.828 120.919L13.8898 120.144C13.7216 120.347 13.6314 120.604 13.635 120.868L14.8517 120.851ZM14.8128 120.936L20.3739 114.706L19.466 113.896L13.905 120.126L14.8128 120.936ZM20.3485 114.733C20.9809 114.106 21.3516 113.261 21.3858 112.371L20.1699 112.325C20.1475 112.907 19.905 113.459 19.4914 113.869L20.3485 114.733ZM21.3854 112.381C21.4158 111.821 21.2332 111.27 20.8742 110.839L19.9392 111.618C20.1015 111.813 20.1841 112.062 20.1703 112.315L21.3854 112.381ZM20.8467 110.808C20.6517 110.604 20.4148 110.445 20.1525 110.341L19.7051 111.473C19.804 111.512 19.8934 111.572 19.9668 111.649L20.8467 110.808ZM20.1525 110.341C19.8901 110.237 19.6083 110.192 19.3266 110.207L19.3938 111.422C19.5 111.416 19.6062 111.434 19.7051 111.473L20.1525 110.341ZM19.3602 110.206C18.7444 110.206 18.198 110.41 17.7992 110.86C17.4179 111.289 17.2339 111.874 17.1726 112.522L18.384 112.637C18.4322 112.128 18.5645 111.831 18.7095 111.667C18.8371 111.523 19.0268 111.423 19.3602 111.423V110.206ZM17.1698 112.579C17.1698 112.574 17.1701 112.539 17.1882 112.487C17.2078 112.431 17.2483 112.358 17.3232 112.295C17.3982 112.232 17.4775 112.205 17.5363 112.195C17.5905 112.186 17.6253 112.192 17.6297 112.193L17.4158 113.391C17.5827 113.421 17.8645 113.429 18.1056 113.227C18.3463 113.025 18.3867 112.747 18.3867 112.579H17.1698ZM17.6154 112.191L14.5733 111.722L14.388 112.925L17.4302 113.393L17.6154 112.191ZM14.5128 111.716C14.5756 111.719 14.6371 111.737 14.6921 111.769L14.0844 112.823C14.1958 112.888 14.3206 112.924 14.4485 112.931L14.5128 111.716ZM14.6921 111.769C14.747 111.801 14.7935 111.845 14.8279 111.898L13.8087 112.562C13.8787 112.67 13.9731 112.759 14.0844 112.823L14.6921 111.769ZM14.8279 111.898C14.862 111.95 14.8838 112.01 14.8907 112.074L13.6809 112.205C13.6948 112.333 13.739 112.456 13.8087 112.562L14.8279 111.898ZM14.8907 112.074C14.8976 112.137 14.8893 112.201 14.867 112.259L13.7291 111.828C13.6838 111.948 13.6671 112.077 13.6809 112.205L14.8907 112.074ZM14.906 112.068C14.9274 111.542 15.0577 111.026 15.2888 110.553L14.1955 110.019C13.8904 110.644 13.7183 111.325 13.6902 112.019L14.906 112.068ZM15.2888 110.553C15.52 110.08 15.8468 109.66 16.2487 109.32L15.4625 108.391C14.932 108.84 14.5006 109.395 14.1955 110.019L15.2888 110.553ZM16.2447 109.323C17.1643 108.558 18.335 108.162 19.5302 108.21L19.5796 106.994C18.0833 106.934 16.6177 107.43 15.4665 108.388L16.2447 109.323ZM19.579 108.21C20.7614 108.163 21.9162 108.575 22.8021 109.36L23.6088 108.449C22.488 107.456 21.0269 106.935 19.5308 106.994L19.579 108.21ZM22.7972 109.355C23.1919 109.713 23.5045 110.151 23.7137 110.641L24.8327 110.162C24.5545 109.511 24.1387 108.928 23.6137 108.453L22.7972 109.355ZM23.7137 110.641C23.9228 111.13 24.0235 111.659 24.0088 112.191L25.2252 112.225C25.2448 111.517 25.1109 110.813 24.8327 110.162L23.7137 110.641ZM24.0087 112.196C23.9822 113.545 23.4293 114.831 22.4681 115.778L23.3222 116.645C24.5096 115.475 25.1926 113.887 25.2253 112.22L24.0087 112.196ZM22.4429 115.805L18.6767 119.99L19.5813 120.804L23.3475 116.618L22.4429 115.805ZM18.5205 120.397V120.44H19.7374V120.397H18.5205ZM19.129 121.048H24.4101V119.832H19.129V121.048ZM24.4865 121.044C24.4258 121.051 24.3641 121.045 24.3061 121.025L24.7001 119.874C24.5824 119.834 24.4571 119.821 24.3337 119.836L24.4865 121.044ZM24.3061 121.025C24.2478 121.005 24.1952 120.972 24.1522 120.929L25.0126 120.069C24.9249 119.981 24.8181 119.914 24.7001 119.874L24.3061 121.025ZM24.1522 120.929C24.109 120.886 24.0761 120.833 24.0562 120.775L25.2075 120.381C25.1671 120.263 25.1003 120.157 25.0126 120.069L24.1522 120.929ZM24.0562 120.775C24.0364 120.717 24.03 120.656 24.0377 120.595L25.245 120.748C25.2606 120.624 25.2478 120.499 25.2075 120.381L24.0562 120.775ZM24.0329 120.671V123.464H25.2498V120.671H24.0329ZM24.0413 123.564C24.0306 123.501 24.0352 123.435 24.0551 123.373L25.2141 123.744C25.2535 123.621 25.2626 123.49 25.2414 123.363L24.0413 123.564ZM24.0551 123.373C24.0751 123.31 24.1096 123.254 24.1551 123.209L25.0155 124.069C25.1062 123.979 25.1746 123.867 25.2141 123.744L24.0551 123.373ZM24.1551 123.209C24.2007 123.163 24.2569 123.129 24.3191 123.109L24.69 124.268C24.8131 124.228 24.9246 124.16 25.0155 124.069L24.1551 123.209ZM24.3191 123.109C24.3812 123.089 24.4468 123.084 24.5107 123.095L24.3096 124.295C24.4365 124.316 24.567 124.307 24.69 124.268L24.3191 123.109ZM24.4101 123.087H14.4988L14.4988 124.304H24.4101L24.4101 123.087ZM14.3212 123.113C14.3885 123.093 14.4601 123.09 14.529 123.105L14.264 124.293C14.4007 124.323 14.5428 124.318 14.6765 124.277L14.3212 123.113ZM14.529 123.105C14.5977 123.121 14.6614 123.153 14.7137 123.201L13.8973 124.103C14.0012 124.197 14.1275 124.262 14.264 124.293L14.529 123.105ZM14.7137 123.201C14.7664 123.248 14.8054 123.309 14.8273 123.375L13.672 123.757C13.7158 123.89 13.7931 124.009 13.8973 124.103L14.7137 123.201ZM14.8273 123.375C14.8494 123.442 14.8539 123.513 14.8401 123.583L13.6466 123.345C13.6193 123.483 13.6281 123.625 13.672 123.757L14.8273 123.375Z" fill="#00FF63" mask="url(#path-22-inside-3_145_5628)"/>
<path d="M23.7592 81.2634H27.8295V85.3337" stroke="#00FF63" stroke-width="1.79486" stroke-miterlimit="10"/>
<path d="M27.8295 105.29V110.657" stroke="#00FF63" stroke-width="1.79486" stroke-miterlimit="10"/>
<path d="M38.4664 83.3929H73.3788C74.9948 83.3929 76.3049 84.7029 76.3049 86.3189V121.231C76.3049 122.847 74.9948 124.157 73.3788 124.157H38.4664C36.8503 124.157 35.5403 122.847 35.5403 121.231V86.3189C35.5403 84.7029 36.8503 83.3929 38.4664 83.3929Z" stroke="#00FF63" stroke-width="0.608427"/>
<path d="M45.2557 96.9606V101.575H43.5833V90.5714H45.2557V95.119V95.2805H45.4172H50.824H50.9855V95.119V90.5714H52.6529V101.575H50.9855V96.9606V96.7991H50.824H45.4172H45.2557V96.9606Z" fill="#00FF63" stroke="#00FF63" stroke-width="0.323027"/>
<path d="M57.3311 96.1064H57.3311V96.1041V96.0733H57.3311L57.3311 96.0717C57.3234 95.3128 57.469 94.5601 57.7591 93.8588C58.0492 93.1575 58.4778 92.5219 59.0193 91.9901C59.5609 91.4584 60.2041 91.0414 60.9106 90.7641C61.6171 90.4869 62.3723 90.3551 63.131 90.3766L63.131 90.3768L63.1399 90.3766C63.8927 90.3564 64.6418 90.4885 65.3422 90.765C66.0427 91.0415 66.68 91.4567 67.216 91.9857C67.752 92.5147 68.1755 93.1465 68.4612 93.8433C68.7469 94.5401 68.8888 95.2874 68.8784 96.0403H68.8784V96.0426L68.8784 96.0733L68.8784 96.075C68.886 96.8317 68.7412 97.5823 68.4527 98.2819C68.1641 98.9815 67.7377 99.6159 67.1989 100.147C66.66 100.679 66.0198 101.096 65.3162 101.375C64.6126 101.654 63.8601 101.788 63.1035 101.77L63.1035 101.77L63.0946 101.77C62.3397 101.794 61.5879 101.664 60.8846 101.389C60.1812 101.114 59.5408 100.7 59.0022 100.17C58.4635 99.6409 58.0377 99.0079 57.7505 98.3094C57.4633 97.6109 57.3206 96.8615 57.3311 96.1064ZM67.081 95.9426H67.0805C67.0828 95.4473 66.994 94.9554 66.8182 94.4915C66.6263 93.9849 66.3345 93.522 65.9603 93.1303C65.586 92.7385 65.1369 92.426 64.6395 92.2112C64.1421 91.9964 63.6067 91.8837 63.0649 91.8798V91.8798H63.0637C60.7167 91.8798 59.0857 93.7589 59.0857 96.0426V96.0703C59.0654 96.6106 59.1536 97.1495 59.3452 97.6552C59.5371 98.1618 59.8289 98.6247 60.2031 99.0164C60.5774 99.4081 61.0265 99.7207 61.5239 99.9355C62.0213 100.15 62.5567 100.263 63.0985 100.267L63.0997 100.267C63.6389 100.267 64.1724 100.157 64.6682 99.9453C65.1639 99.7334 65.6116 99.4232 65.9843 99.0336C66.3569 98.644 66.6468 98.1829 66.8365 97.6782C67.0261 97.1735 67.1116 96.6356 67.0878 96.097L67.081 95.9426Z" fill="#00FF63" stroke="#00FF63" stroke-width="0.323027"/>
<path d="M45.4172 115.846H51.2114V117.334H43.5833V106.325H45.2557V115.685V115.846H45.4172Z" fill="#00FF63" stroke="#00FF63" stroke-width="0.323027"/>
<path d="M66.0391 114.693L65.9975 114.594H65.8902H60.5347H60.428L60.3861 114.693L59.2635 117.329H57.5654L62.4204 106.238H64.0558L68.9008 117.329H67.1466L66.0391 114.693ZM65.1874 113.153H65.4329L65.3358 112.927L63.3813 108.393L63.2326 108.048L63.0846 108.393L61.1404 112.928L61.0438 113.153H61.2888H65.1874Z" fill="#00FF63" stroke="#00FF63" stroke-width="0.323027"/>
<g clip-path="url(#clip0_145_5628)">
<mask id="path-31-inside-4_145_5628" fill="white">
<path fill-rule="evenodd" clip-rule="evenodd" d="M84.4748 0.000119396C84.0057 -0.00330812 83.5405 0.0670917 83.1059 0.20725C82.6713 0.347408 82.276 0.554547 81.9428 0.816705C81.6096 1.07886 81.3451 1.39084 81.1646 1.73462C80.9841 2.0784 80.8912 2.44717 80.8912 2.81963V47.975H87.9822V2.81963C87.9851 2.07712 87.6179 1.36386 86.9607 0.83559C86.3036 0.307323 85.4099 0.00696975 84.4748 0.000119396ZM47.0303 4.64847C47.461 4.50772 47.9225 4.43585 48.3883 4.43699C49.3272 4.43699 50.2276 4.73314 50.8915 5.26028C51.5554 5.78741 51.9283 6.50237 51.9283 7.24785V47.9751H44.8374V7.24785C44.8374 6.878 44.9293 6.51178 45.1079 6.17018C45.2865 5.82859 45.5482 5.51834 45.8781 5.25721C46.208 4.99608 46.5995 4.78922 47.0303 4.64847ZM36.3522 28.4546C35.887 28.4535 35.426 28.5254 34.9959 28.6663C34.5657 28.8071 34.1749 29.0141 33.8459 29.2754C33.5169 29.5366 33.2561 29.8469 33.0787 30.1885C32.9014 30.53 32.8108 30.896 32.8122 31.2655V47.975H39.9032V31.2655C39.9032 30.8956 39.8112 30.5294 39.6327 30.1878C39.4541 29.8462 39.1923 29.536 38.8625 29.2748C38.5326 29.0137 38.1411 28.8068 37.7103 28.6661C37.2796 28.5254 36.818 28.4535 36.3522 28.4546ZM24.3271 39.1965C23.3853 39.1965 22.4821 39.4936 21.8162 40.0224C21.1502 40.5511 20.7761 41.2683 20.7761 42.0161V47.9751H27.8671V42.042C27.8728 41.67 27.7855 41.3007 27.6102 40.9557C27.4349 40.6107 27.1751 40.2967 26.8458 40.032C26.5165 39.7673 26.1243 39.5572 25.6919 39.4138C25.2596 39.2704 24.7956 39.1965 24.3271 39.1965ZM60.4136 22.3141C59.4833 22.3232 58.5951 22.6237 57.9424 23.1501C57.2896 23.6765 56.9251 24.3862 56.928 25.125V47.9751H64.019V25.125C64.019 24.7514 63.9254 24.3816 63.7434 24.0372C63.5614 23.6927 63.2948 23.3805 62.9591 23.1188C62.6234 22.8571 62.2254 22.6512 61.7884 22.513C61.3513 22.3748 60.8839 22.3072 60.4136 22.3141ZM74.9496 36.5282C74.2837 35.9994 73.3805 35.7024 72.4387 35.7024C71.4989 35.7047 70.5985 36.0027 69.9349 36.5313C69.2713 37.0598 68.8987 37.7756 68.8987 38.5219V47.9491H75.9896V38.5219C75.9896 37.7741 75.6155 37.057 74.9496 36.5282ZM95.1436 17.8206C95.5738 17.6798 96.0348 17.6078 96.5001 17.609C96.9659 17.6078 97.4273 17.6797 97.8581 17.8205C98.2888 17.9612 98.6804 18.1681 99.0103 18.4292C99.3402 18.6903 99.6019 19.0006 99.7805 19.3422C99.9591 19.6838 100.051 20.05 100.051 20.4198V47.9749H92.96V20.4198C92.9586 20.0504 93.0492 19.6844 93.2266 19.3428C93.404 19.0013 93.6646 18.691 93.9936 18.4297C94.3226 18.1685 94.7135 17.9615 95.1436 17.8206ZM108.536 0.000133002C107.594 0.000133002 106.691 0.297189 106.025 0.82595C105.359 1.35471 104.985 2.07186 104.985 2.81964V47.975H112.076V2.81964C112.078 2.44979 111.987 2.08335 111.81 1.74132C111.633 1.39929 111.372 1.0884 111.043 0.826471C110.714 0.564542 110.324 0.356721 109.893 0.214921C109.463 0.0731217 109.002 0.000133002 108.536 0.000133002ZM119.204 35.9172C119.634 35.7754 120.096 35.7024 120.561 35.7024C121.503 35.7024 122.406 35.9994 123.072 36.5282C123.738 37.057 124.112 37.7741 124.112 38.5219V47.975H117.021V38.5219C117.02 38.152 117.11 37.7856 117.288 37.4436C117.465 37.1015 117.725 36.7907 118.054 36.5287C118.383 36.2668 118.774 36.059 119.204 35.9172ZM132.586 22.3054C133.519 22.3053 134.414 22.5965 135.078 23.1159C135.743 23.6353 136.123 24.3414 136.137 25.0817V47.9405H129.046V25.0817C129.061 24.3429 129.44 23.6381 130.102 23.1189C130.764 22.5997 131.656 22.3076 132.586 22.3054ZM143.264 4.64847C143.695 4.50772 144.157 4.43585 144.623 4.43699C145.088 4.43585 145.549 4.50778 145.979 4.64863C146.409 4.78948 146.8 4.99649 147.129 5.25773C147.458 5.51897 147.719 5.82929 147.896 6.17083C148.073 6.51238 148.164 6.87841 148.163 7.24785V47.9751H141.072V7.24785C141.072 6.878 141.164 6.51178 141.342 6.17018C141.521 5.82859 141.782 5.51834 142.112 5.25721C142.442 4.99608 142.834 4.78922 143.264 4.64847ZM156.648 28.4546C155.709 28.4546 154.809 28.7508 154.145 29.2779C153.481 29.805 153.108 30.52 153.108 31.2655V47.975H160.199V31.2655C160.199 30.8956 160.107 30.5294 159.928 30.1878C159.75 29.8462 159.488 29.536 159.158 29.2748C158.828 29.0137 158.437 28.8068 158.006 28.6661C157.575 28.5254 157.114 28.4535 156.648 28.4546ZM166.173 40.0224C166.839 39.4936 167.742 39.1965 168.684 39.1965C169.152 39.1965 169.616 39.2704 170.049 39.4138C170.481 39.5572 170.873 39.7673 171.203 40.032C171.532 40.2967 171.792 40.6107 171.967 40.9557C172.142 41.3007 172.23 41.67 172.224 42.042V47.9751H165.133V42.0161C165.133 41.2683 165.507 40.5511 166.173 40.0224Z"/>
</mask>
<path d="M83.1059 0.20725L82.7715 -0.82971L83.1059 0.20725ZM84.4748 0.000119396L84.4828 -1.0894L84.4828 -1.0894L84.4748 0.000119396ZM81.9428 0.816705L81.2691 -0.0395859V-0.0395857L81.9428 0.816705ZM81.1646 1.73462L80.1999 1.22815L80.1999 1.22815L81.1646 1.73462ZM80.8912 2.81963H81.9808V2.81957L80.8912 2.81963ZM80.8912 47.975H79.8017V49.0646H80.8912V47.975ZM87.9822 47.975V49.0646H89.0717V47.975H87.9822ZM87.9822 2.81963L86.8926 2.81535V2.81963H87.9822ZM86.9607 0.83559L86.2781 1.68478L86.9607 0.83559ZM48.3883 4.43699L48.3856 5.52655H48.3883V4.43699ZM47.0303 4.64847L47.3687 5.68414L47.3687 5.68414L47.0303 4.64847ZM50.8915 5.26028L51.569 4.407V4.407L50.8915 5.26028ZM51.9283 47.9751V49.0646H53.0179V47.9751H51.9283ZM44.8374 47.9751H43.7479V49.0646H44.8374V47.9751ZM44.8374 7.24785H45.927V7.24785L44.8374 7.24785ZM45.1079 6.17018L46.0735 6.67497L46.0735 6.67497L45.1079 6.17018ZM45.8781 5.25721L45.2018 4.40292L45.2018 4.40292L45.8781 5.25721ZM34.9959 28.6663L35.3349 29.7017H35.335L34.9959 28.6663ZM36.3522 28.4546L36.3496 29.5442L36.3549 29.5442L36.3522 28.4546ZM33.8459 29.2754L34.5234 30.1286H34.5234L33.8459 29.2754ZM33.0787 30.1885L32.1118 29.6863L32.1118 29.6863L33.0787 30.1885ZM32.8122 31.2655H33.9018L33.9018 31.2612L32.8122 31.2655ZM32.8122 47.975H31.7227V49.0645H32.8122V47.975ZM39.9032 47.975V49.0645H40.9927V47.975H39.9032ZM39.9032 31.2655L38.8136 31.2655V31.2655H39.9032ZM39.6327 30.1878L40.5982 29.683L40.5982 29.683L39.6327 30.1878ZM21.8162 40.0224L22.4937 40.8756L21.8162 40.0224ZM24.3271 39.1965V40.2861H24.3271L24.3271 39.1965ZM20.7761 47.9751H19.6866V49.0646H20.7761V47.9751ZM27.8671 47.9751V49.0646H28.9566V47.9751H27.8671ZM27.8671 42.042L26.7777 42.0251L26.7775 42.0336V42.042H27.8671ZM26.8458 40.032L27.5284 39.1828L27.5284 39.1828L26.8458 40.032ZM25.6919 39.4138L26.035 38.3796L25.6919 39.4138ZM57.9424 23.1501L57.2584 22.3019L57.2584 22.3019L57.9424 23.1501ZM60.4136 22.3141L60.4243 23.4036L60.4296 23.4036L60.4136 22.3141ZM56.928 25.125H58.0176L58.0176 25.1206L56.928 25.125ZM56.928 47.9751H55.8385V49.0647H56.928V47.9751ZM64.019 47.9751V49.0647H65.1085V47.9751H64.019ZM64.019 25.125L62.9294 25.1247V25.125H64.019ZM63.7434 24.0372L62.78 24.5461V24.5461L63.7434 24.0372ZM72.4387 35.7024V34.6128L72.4361 34.6128L72.4387 35.7024ZM74.9496 36.5282L74.2721 37.3815H74.2721L74.9496 36.5282ZM68.8987 38.5219H69.9883V38.5219L68.8987 38.5219ZM68.8987 47.9491H67.8091V49.0386H68.8987V47.9491ZM75.9896 47.9491V49.0386H77.0792V47.9491H75.9896ZM96.5001 17.609L96.4974 18.6985L96.5027 18.6985L96.5001 17.609ZM95.1436 17.8206L95.4827 18.8561H95.4827L95.1436 17.8206ZM97.8581 17.8205L98.1965 16.7848V16.7848L97.8581 17.8205ZM99.0103 18.4292L98.334 19.2835L98.334 19.2835L99.0103 18.4292ZM99.7805 19.3422L100.746 18.8374V18.8374L99.7805 19.3422ZM100.051 47.9749V49.0645H101.141V47.9749H100.051ZM92.96 47.9749H91.8705V49.0645H92.96V47.9749ZM92.96 20.4198H94.0496L94.0496 20.4156L92.96 20.4198ZM93.2266 19.3428L92.2597 18.8406L92.2597 18.8406L93.2266 19.3428ZM93.9936 18.4297L93.3161 17.5764L93.3161 17.5764L93.9936 18.4297ZM106.025 0.82595L105.348 -0.0273325L105.348 -0.0273288L106.025 0.82595ZM104.985 47.975H103.896V49.0646H104.985V47.975ZM112.076 47.975V49.0646H113.166V47.975H112.076ZM112.076 2.81964L110.987 2.81542V2.81964H112.076ZM111.81 1.74132L110.842 2.24266V2.24267L111.81 1.74132ZM111.043 0.826471L111.722 -0.0257942V-0.0257942L111.043 0.826471ZM109.893 0.214921L110.234 -0.81987L109.893 0.214921ZM119.204 35.9172L118.863 34.8824L118.863 34.8824L119.204 35.9172ZM123.072 36.5282L122.395 37.3815L122.395 37.3815L123.072 36.5282ZM124.112 47.975V49.0646H125.202V47.975H124.112ZM117.021 47.975H115.932V49.0646H117.021V47.975ZM117.021 38.5219H118.111L118.111 38.5177L117.021 38.5219ZM117.288 37.4436L116.32 36.9422L116.32 36.9422L117.288 37.4436ZM118.054 36.5287L118.733 37.381L118.733 37.381L118.054 36.5287ZM132.586 22.3054L132.586 21.2159L132.584 21.2159L132.586 22.3054ZM136.137 25.0817H137.227V25.0712L137.227 25.0606L136.137 25.0817ZM136.137 47.9405V49.03H137.227V47.9405H136.137ZM129.046 47.9405H127.957V49.03H129.046V47.9405ZM129.046 25.0817L127.957 25.0607L127.957 25.0712V25.0817H129.046ZM130.102 23.1189L129.429 22.2616L129.429 22.2616L130.102 23.1189ZM144.623 4.43699L144.62 5.52655L144.625 5.52654L144.623 4.43699ZM143.264 4.64847L143.603 5.68414L143.603 5.68413L143.264 4.64847ZM147.129 5.25773L147.806 4.40445V4.40445L147.129 5.25773ZM147.896 6.17083L148.863 5.66864L148.863 5.66862L147.896 6.17083ZM148.163 7.24785L147.073 7.24362V7.24785H148.163ZM148.163 47.9751V49.0646H149.252V47.9751H148.163ZM141.072 47.9751H139.982V49.0646H141.072V47.9751ZM142.112 5.25721L142.789 6.11151L142.789 6.1115L142.112 5.25721ZM154.145 29.2779L153.467 28.4246V28.4246L154.145 29.2779ZM156.648 28.4546V29.5442L156.65 29.5442L156.648 28.4546ZM153.108 47.975H152.018V49.0645H153.108V47.975ZM160.199 47.975V49.0645H161.288V47.975H160.199ZM159.928 30.1878L158.963 30.6926L158.963 30.6926L159.928 30.1878ZM168.684 39.1965V40.2861H168.684L168.684 39.1965ZM170.049 39.4138L170.392 38.3796V38.3796L170.049 39.4138ZM171.203 40.032L171.885 39.1828V39.1828L171.203 40.032ZM171.967 40.9557L172.938 40.4622L172.938 40.4621L171.967 40.9557ZM172.224 42.042L171.134 42.0252L171.134 42.0336V42.042H172.224ZM172.224 47.9751V49.0646H173.313V47.9751H172.224ZM165.133 47.9751H164.043V49.0646H165.133V47.9751ZM83.4404 1.24421C83.7614 1.14068 84.1108 1.08704 84.4668 1.08964L84.4828 -1.0894C83.9007 -1.09366 83.3197 -1.0065 82.7715 -0.82971L83.4404 1.24421ZM82.6165 1.673C82.8406 1.49667 83.1191 1.34781 83.4404 1.24421L82.7715 -0.82971C82.2236 -0.652993 81.7114 -0.387578 81.2691 -0.0395859L82.6165 1.673ZM82.1293 2.2411C82.2322 2.04516 82.3926 1.84912 82.6165 1.673L81.2691 -0.0395857C80.8265 0.308603 80.458 0.736529 80.1999 1.22815L82.1293 2.2411ZM81.9808 2.81957C81.9808 2.63115 82.0272 2.43547 82.1293 2.24109L80.1999 1.22815C79.941 1.72134 79.8016 2.2632 79.8017 2.81969L81.9808 2.81957ZM81.9808 47.975V2.81963H79.8017V47.975H81.9808ZM87.9822 46.8855H80.8912V49.0646H87.9822V46.8855ZM86.8926 2.81963V47.975H89.0717V2.81963H86.8926ZM86.2781 1.68478C86.7164 2.03713 86.8941 2.45212 86.8926 2.81535L89.0717 2.82391C89.0761 1.70212 88.5194 0.690582 87.6434 -0.0135961L86.2781 1.68478ZM84.4668 1.08964C85.1848 1.0949 85.8334 1.32725 86.2781 1.68478L87.6434 -0.013596C86.7739 -0.712609 85.635 -1.08096 84.4828 -1.0894L84.4668 1.08964ZM48.391 3.34744C47.8126 3.34603 47.2358 3.43508 46.6919 3.6128L47.3687 5.68414C47.6863 5.58036 48.0324 5.52568 48.3856 5.52654L48.391 3.34744ZM51.569 4.407C50.6915 3.71027 49.5452 3.34744 48.3883 3.34744V5.52655C49.1092 5.52655 49.7637 5.756 50.214 6.11356L51.569 4.407ZM53.0179 7.24785C53.0179 6.12162 52.4528 5.10876 51.569 4.407L50.214 6.11356C50.6579 6.46607 50.8388 6.88311 50.8388 7.24785H53.0179ZM53.0179 47.9751V7.24785H50.8388V47.9751H53.0179ZM44.8374 49.0646H51.9283V46.8855H44.8374V49.0646ZM43.7479 7.24785V47.9751H45.927V7.24785H43.7479ZM44.1423 5.66539C43.8858 6.15609 43.7479 6.6948 43.7479 7.24786L45.927 7.24785C45.927 7.06119 45.9728 6.86746 46.0735 6.67497L44.1423 5.66539ZM45.2018 4.40292C44.7632 4.75018 44.398 5.17629 44.1423 5.66539L46.0735 6.67497C46.1749 6.48088 46.3333 6.28649 46.5543 6.1115L45.2018 4.40292ZM46.6919 3.6128C46.1482 3.79046 45.6403 4.05586 45.2018 4.40292L46.5543 6.1115C46.7757 5.93631 47.0509 5.78798 47.3687 5.68414L46.6919 3.6128ZM35.335 29.7017C35.6517 29.598 35.9971 29.5433 36.3496 29.5442L36.3549 27.3651C35.7768 27.3637 35.2003 27.4528 34.6568 27.6308L35.335 29.7017ZM34.5234 30.1286C34.7437 29.9537 35.018 29.8055 35.3349 29.7017L34.6568 27.6308C34.1135 27.8087 33.6061 28.0745 33.1684 28.4221L34.5234 30.1286ZM34.0457 30.6907C34.1461 30.4973 34.3033 30.3034 34.5234 30.1286L33.1684 28.4221C32.7304 28.7698 32.3662 29.1965 32.1118 29.6863L34.0457 30.6907ZM33.9018 31.2612C33.901 31.0755 33.946 30.8825 34.0457 30.6907L32.1118 29.6863C31.8567 30.1775 31.7205 30.7166 31.7227 31.2697L33.9018 31.2612ZM33.9018 47.975V31.2655H31.7227V47.975H33.9018ZM39.9032 46.8854H32.8122V49.0645H39.9032V46.8854ZM38.8136 31.2655V47.975H40.9927V31.2655H38.8136ZM38.6671 30.6926C38.7678 30.8852 38.8136 31.079 38.8136 31.2655L40.9927 31.2655C40.9927 30.7123 40.8547 30.1736 40.5982 29.683L38.6671 30.6926ZM38.1862 30.1291C38.4073 30.3041 38.5656 30.4985 38.6671 30.6926L40.5982 29.683C40.3425 29.1939 39.9774 28.7678 39.5387 28.4205L38.1862 30.1291ZM37.3719 29.7018C37.6897 29.8056 37.9649 29.9539 38.1862 30.1291L39.5387 28.4205C39.1003 28.0735 38.5925 27.8081 38.0487 27.6304L37.3719 29.7018ZM36.3549 29.5442C36.7082 29.5433 37.0544 29.598 37.3719 29.7018L38.0487 27.6304C37.5048 27.4527 36.9279 27.3637 36.3496 27.3651L36.3549 29.5442ZM22.4937 40.8756C22.946 40.5165 23.6033 40.2861 24.3271 40.2861V38.107C23.1673 38.107 22.0181 38.4707 21.1386 39.1691L22.4937 40.8756ZM21.8657 42.0161C21.8657 41.649 22.0477 41.2298 22.4937 40.8756L21.1386 39.1691C20.2528 39.8725 19.6866 40.8875 19.6866 42.0161H21.8657ZM21.8657 47.9751V42.0161H19.6866V47.9751H21.8657ZM27.8671 46.8855H20.7761V49.0646H27.8671V46.8855ZM26.7775 42.042V47.9751H28.9566V42.042H26.7775ZM26.6388 41.4493C26.7372 41.6429 26.7806 41.8376 26.7777 42.0251L28.9565 42.0589C28.9651 41.5024 28.8338 40.9586 28.5815 40.4621L26.6388 41.4493ZM26.1632 40.8812C26.3832 41.0581 26.5397 41.2541 26.6388 41.4493L28.5815 40.4621C28.3301 39.9673 27.967 39.5353 27.5284 39.1828L26.1632 40.8812ZM25.3489 40.4479C25.6676 40.5536 25.9428 40.7041 26.1632 40.8812L27.5284 39.1828C27.0902 38.8306 26.5809 38.5607 26.035 38.3796L25.3489 40.4479ZM24.3271 40.2861C24.6825 40.2861 25.0304 40.3423 25.3489 40.4479L26.035 38.3796C25.4888 38.1985 24.9088 38.107 24.327 38.107L24.3271 40.2861ZM58.6263 23.9982C59.0672 23.6427 59.7107 23.4106 60.4243 23.4036L60.4029 21.2246C59.2559 21.2359 58.1231 21.6047 57.2584 22.3019L58.6263 23.9982ZM58.0176 25.1206C58.0161 24.7604 58.1919 24.3486 58.6263 23.9982L57.2584 22.3019C56.3874 23.0044 55.834 24.0121 55.8385 25.1293L58.0176 25.1206ZM58.0176 47.9751V25.125H55.8385V47.9751H58.0176ZM64.019 46.8856H56.928V49.0647H64.019V46.8856ZM62.9294 25.125V47.9751H65.1085V25.125H62.9294ZM62.78 24.5461C62.8828 24.7406 62.9295 24.9364 62.9294 25.1247L65.1085 25.1252C65.1086 24.5665 64.968 24.0227 64.7068 23.5282L62.78 24.5461ZM62.2892 23.9781C62.5148 24.154 62.6765 24.3501 62.78 24.5461L64.7068 23.5282C64.4464 23.0354 64.0748 22.6071 63.629 22.2596L62.2892 23.9781ZM61.4599 23.5519C61.783 23.654 62.0634 23.802 62.2892 23.9781L63.629 22.2596C63.1835 21.9122 62.6679 21.6483 62.1168 21.4741L61.4599 23.5519ZM60.4296 23.4036C60.7863 23.3983 61.1371 23.4498 61.4599 23.5519L62.1168 21.4741C61.5654 21.2998 60.9816 21.2161 60.3976 21.2247L60.4296 23.4036ZM72.4387 36.7919C73.1625 36.7919 73.8197 37.0223 74.2721 37.3815L75.6271 35.6749C74.7476 34.9766 73.5985 34.6128 72.4387 34.6128V36.7919ZM70.6137 37.3835C71.0642 37.0247 71.7191 36.7937 72.4414 36.7919L72.4361 34.6128C71.2786 34.6157 70.1327 34.9808 69.2561 35.679L70.6137 37.3835ZM69.9883 38.5219C69.9883 38.1555 70.1695 37.7373 70.6137 37.3835L69.2561 35.679C68.3731 36.3823 67.8091 37.3957 67.8091 38.5219L69.9883 38.5219ZM69.9883 47.9491V38.5219H67.8091V47.9491H69.9883ZM75.9896 46.8595H68.8987V49.0386H75.9896V46.8595ZM74.9001 38.5219V47.9491H77.0792V38.5219H74.9001ZM74.2721 37.3815C74.7181 37.7356 74.9001 38.1549 74.9001 38.5219H77.0792C77.0792 37.3934 76.513 36.3783 75.6271 35.6749L74.2721 37.3815ZM96.5027 16.5194C95.9247 16.518 95.3481 16.6072 94.8046 16.7852L95.4827 18.8561C95.7995 18.7523 96.1449 18.6977 96.4974 18.6985L96.5027 16.5194ZM98.1965 16.7848C97.6526 16.6071 97.0758 16.518 96.4974 16.5194L96.5027 18.6985C96.856 18.6977 97.2021 18.7523 97.5197 18.8561L98.1965 16.7848ZM99.6865 17.5749C99.2481 17.2278 98.7402 16.9624 98.1965 16.7848L97.5197 18.8561C97.8375 18.96 98.1127 19.1083 98.334 19.2835L99.6865 17.5749ZM100.746 18.8374C100.49 18.3483 100.125 17.9222 99.6865 17.5749L98.334 19.2835C98.5551 19.4585 98.7135 19.6529 98.8149 19.847L100.746 18.8374ZM101.141 20.4198C101.141 19.8667 101.003 19.328 100.746 18.8374L98.8149 19.847C98.9156 20.0396 98.9614 20.2333 98.9614 20.4198H101.141ZM101.141 47.9749V20.4198H98.9614V47.9749H101.141ZM92.96 49.0645H100.051V46.8854H92.96V49.0645ZM91.8705 20.4198V47.9749H94.0496V20.4198H91.8705ZM92.2597 18.8406C92.0045 19.3319 91.8683 19.871 91.8705 20.4241L94.0496 20.4156C94.0489 20.2298 94.0938 20.0369 94.1935 19.845L92.2597 18.8406ZM93.3161 17.5764C92.8781 17.9242 92.514 18.351 92.2597 18.8406L94.1935 19.845C94.294 19.6516 94.4512 19.4577 94.6712 19.283L93.3161 17.5764ZM94.8046 16.7852C94.2613 16.9631 93.7538 17.2289 93.3161 17.5764L94.6712 19.283C94.8914 19.1081 95.1657 18.9599 95.4827 18.8561L94.8046 16.7852ZM106.703 1.67923C107.155 1.32005 107.812 1.08969 108.536 1.08969V-1.08942C107.376 -1.08942 106.227 -0.725674 105.348 -0.0273325L106.703 1.67923ZM106.075 2.81964C106.075 2.45261 106.257 2.03336 106.703 1.67923L105.348 -0.0273288C104.462 0.676057 103.896 1.69112 103.896 2.81964H106.075ZM106.075 47.975V2.81964H103.896V47.975H106.075ZM112.076 46.8855H104.985V49.0646H112.076V46.8855ZM110.987 2.81964V47.975H113.166V2.81964H110.987ZM110.842 2.24267C110.942 2.43521 110.987 2.62888 110.987 2.81542L113.166 2.82387C113.168 2.2707 113.032 1.73149 112.777 1.23997L110.842 2.24267ZM110.364 1.67874C110.585 1.85409 110.742 2.04861 110.842 2.24266L112.777 1.23997C112.523 0.749966 112.16 0.322715 111.722 -0.0257941L110.364 1.67874ZM109.552 1.24971C109.87 1.35427 110.144 1.50317 110.364 1.67874L111.722 -0.0257942C111.285 -0.37409 110.778 -0.640834 110.234 -0.81987L109.552 1.24971ZM108.536 1.08969C108.889 1.08969 109.235 1.14521 109.552 1.24971L110.234 -0.81987C109.691 -0.998971 109.114 -1.08942 108.536 -1.08942V1.08969ZM120.561 34.6128C119.983 34.6128 119.406 34.7033 118.863 34.8824L119.545 36.952C119.862 36.8475 120.208 36.7919 120.561 36.7919V34.6128ZM123.75 35.6749C122.87 34.9766 121.721 34.6128 120.561 34.6128V36.7919C121.285 36.7919 121.942 37.0223 122.395 37.3815L123.75 35.6749ZM125.202 38.5219C125.202 37.3934 124.636 36.3783 123.75 35.6749L122.395 37.3815C122.841 37.7356 123.023 38.1549 123.023 38.5219H125.202ZM125.202 47.975V38.5219H123.023V47.975H125.202ZM117.021 49.0646H124.112V46.8855H117.021V49.0646ZM115.932 38.5219V47.975H118.111V38.5219H115.932ZM116.32 36.9422C116.066 37.4337 115.93 37.973 115.932 38.5261L118.111 38.5177C118.11 38.3311 118.155 38.1375 118.255 37.9449L116.32 36.9422ZM117.375 35.6765C116.938 36.025 116.574 36.4522 116.32 36.9422L118.255 37.9449C118.356 37.7509 118.513 37.5563 118.733 37.381L117.375 35.6765ZM118.863 34.8824C118.32 35.0614 117.813 35.3282 117.375 35.6765L118.733 37.381C118.954 37.2054 119.228 37.0565 119.545 36.952L118.863 34.8824ZM135.749 22.2576C134.873 21.5723 133.735 21.2158 132.586 21.2159L132.587 23.395C133.303 23.3949 133.955 23.6206 134.407 23.9742L135.749 22.2576ZM137.227 25.0606C137.205 23.9445 136.632 22.9473 135.749 22.2576L134.407 23.9742C134.854 24.3233 135.041 24.7384 135.048 25.1027L137.227 25.0606ZM137.227 47.9405V25.0817H135.048V47.9405H137.227ZM129.046 49.03H136.137V46.8509H129.046V49.03ZM127.957 25.0817V47.9405H130.136V25.0817H127.957ZM129.429 22.2616C128.55 22.9513 127.979 23.9468 127.957 25.0607L130.136 25.1027C130.143 24.7391 130.329 24.325 130.774 23.9763L129.429 22.2616ZM132.584 21.2159C131.438 21.2186 130.303 21.5765 129.429 22.2616L130.774 23.9763C131.225 23.623 131.874 23.3967 132.589 23.395L132.584 21.2159ZM144.625 3.34744C144.047 3.34603 143.47 3.43507 142.926 3.6128L143.603 5.68413C143.92 5.58037 144.267 5.52568 144.62 5.52654L144.625 3.34744ZM146.318 3.61318C145.775 3.43519 145.198 3.34602 144.62 3.34744L144.625 5.52654C144.978 5.52568 145.323 5.58036 145.64 5.68408L146.318 3.61318ZM147.806 4.40445C147.369 4.05691 146.861 3.79111 146.318 3.61318L145.64 5.68408C145.957 5.78786 146.231 5.93606 146.451 6.11101L147.806 4.40445ZM148.863 5.66862C148.609 5.17891 148.244 4.7522 147.806 4.40445L146.451 6.11101C146.671 6.28574 146.829 6.47966 146.929 6.67305L148.863 5.66862ZM149.252 7.25208C149.254 6.69897 149.118 6.15987 148.863 5.66864L146.929 6.67303C147.029 6.86489 147.074 7.05784 147.073 7.24362L149.252 7.25208ZM149.252 47.9751V7.24785H147.073V47.9751H149.252ZM141.072 49.0646H148.163V46.8855H141.072V49.0646ZM139.982 7.24785V47.9751H142.161V7.24785H139.982ZM140.377 5.6654C140.12 6.15597 139.982 6.69467 139.982 7.24785H142.161C142.161 7.06133 142.207 6.86758 142.308 6.67497L140.377 5.6654ZM141.436 4.40292C140.997 4.75018 140.632 5.17629 140.377 5.6654L142.308 6.67497C142.409 6.48088 142.568 6.2865 142.789 6.11151L141.436 4.40292ZM142.926 3.6128C142.382 3.79047 141.874 4.05589 141.436 4.40292L142.789 6.1115C143.01 5.93628 143.285 5.78796 143.603 5.68414L142.926 3.6128ZM154.822 30.1312C155.272 29.7736 155.927 29.5442 156.648 29.5442V27.3651C155.491 27.3651 154.345 27.7279 153.467 28.4246L154.822 30.1312ZM154.197 31.2655C154.197 30.9007 154.378 30.4837 154.822 30.1312L153.467 28.4246C152.583 29.1264 152.018 30.1393 152.018 31.2655H154.197ZM154.197 47.975V31.2655H152.018V47.975H154.197ZM160.199 46.8854H153.108V49.0645H160.199V46.8854ZM159.109 31.2655V47.975H161.288V31.2655H159.109ZM158.963 30.6926C159.063 30.8852 159.109 31.079 159.109 31.2655H161.288C161.288 30.7123 161.15 30.1736 160.894 29.683L158.963 30.6926ZM158.482 30.1291C158.703 30.3041 158.861 30.4985 158.963 30.6926L160.894 29.683C160.638 29.1939 160.273 28.7678 159.834 28.4205L158.482 30.1291ZM157.667 29.7018C157.985 29.8056 158.26 29.9539 158.482 30.1291L159.834 28.4205C159.396 28.0735 158.888 27.8081 158.344 27.6304L157.667 29.7018ZM156.65 29.5442C157.004 29.5433 157.35 29.598 157.667 29.7018L158.344 27.6304C157.8 27.4527 157.223 27.3637 156.645 27.3651L156.65 29.5442ZM168.684 38.107C167.524 38.107 166.375 38.4708 165.496 39.1691L166.851 40.8756C167.303 40.5165 167.96 40.2861 168.684 40.2861V38.107ZM170.392 38.3796C169.846 38.1985 169.266 38.107 168.684 38.107L168.684 40.2861C169.039 40.2861 169.387 40.3423 169.706 40.4479L170.392 38.3796ZM171.885 39.1828C171.447 38.8306 170.938 38.5607 170.392 38.3796L169.706 40.4479C170.024 40.5536 170.3 40.7041 170.52 40.8813L171.885 39.1828ZM172.938 40.4621C172.687 39.9672 172.324 39.5353 171.885 39.1828L170.52 40.8812C170.74 41.0582 170.897 41.2541 170.996 41.4493L172.938 40.4621ZM173.313 42.0588C173.322 41.5025 173.191 40.9587 172.938 40.4622L170.996 41.4493C171.094 41.6428 171.137 41.8375 171.134 42.0252L173.313 42.0588ZM173.313 47.9751V42.042H171.134V47.9751H173.313ZM165.133 49.0646H172.224V46.8855H165.133V49.0646ZM164.043 42.0161V47.9751H166.223V42.0161H164.043ZM165.496 39.1691C164.61 39.8725 164.043 40.8875 164.043 42.0161H166.223C166.223 41.649 166.405 41.2298 166.851 40.8756L165.496 39.1691Z" fill="#00FF63" mask="url(#path-31-inside-4_145_5628)"/>
</g>
<line x1="0.074646" y1="62.6492" x2="192.925" y2="62.6492" stroke="#00FF63" stroke-width="3.26866"/>
<line x1="0.074646" y1="144.366" x2="192.925" y2="144.366" stroke="#00FF63" stroke-width="3.26866"/>
<defs>
<clipPath id="clip0_145_5628">
<rect width="151.448" height="47.9403" fill="white" transform="translate(20.7761)"/>
</clipPath>
</defs>
</svg>
