<svg width="111" height="15" viewBox="0 0 111 15" fill="none" xmlns="http://www.w3.org/2000/svg">
<g clip-path="url(#clip0_145_5317)">
<path d="M2.49164 12.3473L4.69299 9.7186C5.99168 10.7988 7.62228 11.4031 9.31341 11.4309C10.3778 11.4309 10.9342 11.0691 10.9342 10.442C10.9342 9.83915 10.4746 9.52563 8.51515 9.06743C5.46713 8.39219 3.12062 7.52408 3.12062 4.60607C3.12062 1.97745 5.22522 0.0722983 8.66029 0.0722983C10.7727 -0.00560132 12.8452 0.660255 14.5144 1.95325L12.5549 4.72662C11.3866 3.871 9.98793 3.38379 8.53929 3.32787C7.59586 3.32787 7.11205 3.73785 7.11205 4.24428C7.11205 4.8954 7.62006 5.18481 9.53111 5.61889C12.821 6.34237 14.8531 7.37941 14.8531 10.0563C14.8531 12.9743 12.434 14.6864 9.0957 14.6864C6.68142 14.7384 4.3318 13.9062 2.49164 12.3473Z" fill="#00FF63"/>
<path d="M29.0771 0.24118L33.0202 0.24118V6.00488L37.8583 0.24118L42.5513 0.24118L37.1568 6.34239L42.7448 14.4454H37.9067L34.3265 9.16404L32.875 10.7798V14.4454H29.0771L29.0771 0.24118Z" fill="#00FF63"/>
<path d="M56.2432 0.24118L60.2347 0.24118V14.4454H56.2432V0.24118Z" fill="#00FF63"/>
<path d="M75.0635 0.24118L79.0066 0.24118V10.9967L85.925 10.9967V14.4454L75.0635 14.4454V0.24118Z" fill="#00FF63"/>
<path d="M99.9556 0.24118L103.899 0.24118V10.9967L110.817 10.9967V14.4454L99.9556 14.4454V0.24118Z" fill="#00FF63"/>
<path d="M30.2141 4.84726L25.5937 4.84726V5.6672L30.2141 5.6672V4.84726Z" fill="#00FF63"/>
<path d="M98.8428 14.2042L19.3041 14.2042V15.0241L98.8428 15.0241V14.2042Z" fill="#00FF63"/>
<path d="M102.109 10.9485H98.8428V11.7685H102.109V10.9485Z" fill="#00FF63"/>
<path d="M81.861 4.36496L78.5953 4.36496V5.1849L81.861 5.1849V4.36496Z" fill="#00FF63"/>
<path d="M17.8527 6.10129L11.3212 6.10129V8.12701H17.8527V6.10129Z" fill="#00FF63"/>
<path d="M50.2923 6.46301H48.2603V8.48874H50.2923V6.46301Z" fill="#00FF63"/>
<path d="M9.41015 11.3826L0 11.3826L0 12.9984L9.41015 12.9984V11.3826Z" fill="#00FF63"/>
</g>
<defs>
<clipPath id="clip0_145_5317">
<rect width="110.696" height="15" fill="white"/>
</clipPath>
</defs>
</svg>
