<svg width="170" height="202" viewBox="0 0 170 202" fill="none" xmlns="http://www.w3.org/2000/svg">
<path d="M52.984 186.918C52.3931 188.596 51.3648 190.275 50.2893 191.339C50.5375 191.693 50.9393 192.497 51.0693 192.84C51.3057 192.58 51.5539 192.284 51.8021 191.989V197.898H53.2204V189.802C53.6577 189.01 54.0477 188.171 54.355 187.344L52.984 186.918ZM61.4583 190.133V188.797H56.8725C57.0971 188.313 57.2862 187.828 57.4516 187.332L56.0924 186.989C55.5606 188.679 54.6269 190.381 53.5868 191.445C53.8823 191.669 54.4378 192.166 54.6623 192.426C55.1942 191.811 55.7379 191.008 56.2106 190.133H56.6597V197.91H58.1017V195.286H61.3165V193.986H58.1017V192.65H61.1628V191.374H58.1017V190.133H61.4583ZM65.1577 194.802V196.125H64.0585V194.802H65.1577ZM66.3632 193.679H62.8411V197.756H64.0585V197.26H66.3632V193.679ZM62.8411 193.111H66.3396V192.048H62.8411V193.111ZM62.8411 190.464V191.528H66.316V190.464H62.8411ZM65.3941 188.396C65.2286 187.946 64.8858 187.308 64.5904 186.812L63.5621 187.332C63.8221 187.769 64.1058 188.372 64.2713 188.809H62.3566V189.932H66.706V188.809H64.6613L65.3941 188.396ZM69.5071 192.45V193.974H68.4079V192.45H69.5071ZM70.7008 195.156V191.268H67.2378V195.853H68.4079V195.156H70.7008ZM71.0436 189.377H66.9424V190.558H71.0436V189.377ZM72.8401 187.391H66.706V188.679H71.5636V196.267C71.5636 196.468 71.4927 196.539 71.2918 196.539C71.0909 196.539 70.4054 196.551 69.7908 196.515C69.9681 196.882 70.1572 197.52 70.2044 197.91C71.1736 197.91 71.8355 197.874 72.2728 197.65C72.7101 197.414 72.8401 197.035 72.8401 196.291V187.391ZM81.6099 195.842V193.88H83.0991V195.842H81.6099ZM76.0076 193.88H77.4259V195.842H76.0076V193.88ZM77.4259 190.57V192.544H76.0076V190.57H77.4259ZM80.227 193.88V195.842H78.8087V193.88H80.227ZM80.227 190.57V192.544H78.8087V190.57H80.227ZM83.0991 190.57V192.544H81.6099V190.57H83.0991ZM81.6099 189.199V186.989H80.227V189.199H78.8087V186.989H77.4259V189.199H74.6721V197.874H76.0076V197.224H83.0991V197.863H84.4819V189.199H81.6099ZM94.5518 188.478C94.0554 188.017 93.0389 187.296 92.3653 186.824L91.5025 187.781C92.2116 188.325 93.1926 189.093 93.6535 189.577L94.5518 188.478ZM89.8714 193.821C89.8478 193.903 89.8123 193.974 89.7887 194.045L90.8879 194.411C91.2306 193.442 91.4315 191.811 91.5261 190.57L90.486 190.334C90.4151 191.291 90.2615 192.39 90.0251 193.3C89.7178 192.875 89.0323 191.977 88.7841 191.681V191.516H90.0487V190.204H88.7841V188.478C89.2568 188.372 89.6941 188.23 90.096 188.065L89.2805 186.93C88.4413 187.308 87.1885 187.663 86.0539 187.876C86.2075 188.183 86.3848 188.644 86.4439 188.951C86.7866 188.904 87.1294 188.845 87.484 188.774V190.204H86.0657V191.516H87.3421C86.9521 192.65 86.3611 193.915 85.7466 194.683C85.9711 195.038 86.2902 195.652 86.4321 196.066C86.8103 195.546 87.1648 194.825 87.484 194.033V197.91H88.7841V193.348C88.9968 193.809 89.2096 194.258 89.3277 194.577L89.8714 193.821ZM93.5944 196.515C93.228 196.515 93.1808 196.433 93.1808 195.936V195.014C93.8426 194.081 94.4454 193.04 94.9536 191.929C95.2728 192.899 95.58 194.01 95.6864 194.79L96.9629 194.411C96.7974 193.478 96.3956 192.107 95.9583 191.019L95.2609 191.208C95.6746 190.18 96.0528 189.057 96.3719 187.887L95.0246 187.604C94.5754 189.4 93.9608 191.043 93.1808 192.485V189.66H91.8334V194.506C91.1479 195.333 90.3915 196.054 89.5168 196.657C89.836 196.882 90.4151 197.366 90.6515 197.626C91.0652 197.295 91.4788 196.953 91.8689 196.563C91.9634 197.461 92.3653 197.756 93.3817 197.756H94.7291C95.781 197.756 96.1355 197.189 96.2774 195.428C95.8992 195.333 95.3673 195.109 95.0718 194.896C95.0246 196.232 94.9536 196.515 94.6109 196.515H93.5944ZM101.62 191.894L100.532 192.166V190.417H101.691V189.117H100.532V186.871H99.1376V189.117H97.7784V190.417H99.1376V192.509C98.5703 192.65 98.0621 192.769 97.6248 192.851L97.9911 194.187L99.1376 193.903V196.338C99.1376 196.515 99.0903 196.574 98.913 196.574C98.7594 196.574 98.2748 196.574 97.8139 196.563C97.9793 196.929 98.1566 197.484 98.2157 197.839C99.043 197.839 99.6104 197.804 100 197.591C100.402 197.366 100.532 197.035 100.532 196.35V193.525C100.958 193.419 101.383 193.3 101.797 193.182L101.62 191.894ZM106.56 192.532C106.205 193.336 105.697 194.033 105.083 194.624C104.492 194.021 104.019 193.312 103.688 192.532H106.56ZM107.446 191.208L107.198 191.268H105.78V189.849H108.427V188.549H105.78V186.859H104.385V188.549H101.844V189.849H104.385V191.268H102.057V192.532H102.672L102.317 192.639C102.742 193.726 103.298 194.66 103.995 195.452C103.168 195.983 102.211 196.362 101.17 196.61C101.431 196.917 101.773 197.508 101.927 197.886C103.073 197.544 104.113 197.071 105.035 196.433C105.851 197.094 106.832 197.579 107.978 197.922C108.179 197.555 108.581 196.988 108.877 196.704C107.825 196.444 106.915 196.054 106.146 195.511C107.139 194.518 107.896 193.23 108.345 191.587L107.446 191.208ZM114.987 191.823V193.123H112.741V191.823H114.987ZM114.16 196.362C112.93 196.362 112.741 196.255 112.741 195.57V194.376H116.358V190.594H111.843C112.068 190.322 112.292 190.038 112.517 189.731H118.143C118.06 192.414 117.965 193.419 117.776 193.667C117.682 193.797 117.575 193.844 117.41 193.832C117.209 193.844 116.854 193.832 116.453 193.797C116.665 194.151 116.807 194.731 116.819 195.132C117.363 195.156 117.859 195.144 118.178 195.085C118.533 195.026 118.805 194.908 119.041 194.553C119.372 194.092 119.478 192.71 119.585 188.998C119.596 188.821 119.608 188.407 119.608 188.407H113.368C113.592 188.017 113.793 187.639 113.971 187.237L112.517 186.8C111.879 188.372 110.697 189.873 109.432 190.795C109.751 191.043 110.33 191.575 110.578 191.859C110.827 191.646 111.087 191.398 111.347 191.149V195.593C111.347 197.248 111.985 197.674 114.16 197.674H118.013C119.833 197.674 120.306 197.189 120.542 195.522C120.152 195.463 119.537 195.251 119.195 195.038C119.065 196.161 118.887 196.362 117.918 196.362H114.16Z" fill="#00FF63"/>
<rect x="43.2379" y="186.981" width="1.47536" height="12.1004" stroke="#00FF63" stroke-width="0.295478"/>
<rect x="125.287" y="186.981" width="1.47536" height="12.1004" stroke="#00FF63" stroke-width="0.295478"/>
<g clip-path="url(#clip0_145_5448)">
<path d="M84.9734 168.972C62.9843 169.021 41.8711 160.358 26.2536 144.878C10.5468 129.453 1.59771 108.429 1.36866 86.4162C1.19141 75.4259 3.19591 64.5095 7.26606 54.299C11.3362 44.0885 17.3912 34.7868 25.0805 26.9322C32.7288 19.0373 41.8668 12.7375 51.9658 8.39733C62.0648 4.05721 72.9242 1.76295 83.9157 1.64731H85.0444C107.036 1.59819 128.152 10.2613 143.773 25.7413C159.477 41.1684 168.425 62.1909 168.658 84.2032C168.829 95.193 166.82 106.108 162.747 116.316C158.674 126.525 152.617 135.825 144.928 143.678C137.282 151.573 128.146 157.873 118.048 162.214C107.95 166.554 97.0923 168.848 86.1021 168.963L84.9734 168.972Z" fill="url(#paint0_linear_145_5448)"/>
<path d="M85.0178 2.97135C106.651 2.92995 127.421 11.4551 142.786 26.6832C158.25 41.8594 167.068 62.5465 167.307 84.2119C167.561 106.029 159.155 127.057 143.932 142.687C128.708 158.317 107.909 167.274 86.0932 167.594H84.9734C63.3401 167.636 42.5704 159.111 27.2047 143.883C11.74 128.708 2.92495 108.019 2.6929 86.3538C2.42703 64.5269 10.8304 43.4859 26.0591 27.8473C41.2879 12.2086 62.0984 3.24957 83.9246 2.93579H85.0356L85.0178 2.97135ZM85.0356 0.269539H83.889C61.3481 0.56926 39.8494 9.81087 24.1223 25.9614C8.39509 42.1119 -0.272331 63.8484 0.026651 86.3894C0.321047 108.731 9.40158 130.058 25.303 145.755C41.2043 161.452 62.6474 170.256 84.9912 170.261H86.1465C108.687 169.961 130.186 160.719 145.913 144.569C161.64 128.418 170.308 106.682 170.009 84.1408C169.71 61.799 160.627 40.4731 144.724 24.777C128.822 9.08096 107.379 0.276882 85.0356 0.269539Z" fill="black"/>
<path d="M134.024 134.329C161.1 107.253 161.1 63.3547 134.024 36.2792C106.949 9.20357 63.0506 9.20358 35.975 36.2792C8.8994 63.3547 8.89948 107.253 35.9751 134.328C63.0506 161.404 106.949 161.404 134.024 134.329Z" fill="black" stroke="white" stroke-width="0.295478" stroke-miterlimit="10"/>
<g opacity="0.8">
<path opacity="0.8" d="M106.712 128.33V135.653H105.628V128.33H103.459V129.378H104.544V133.556H103.459V134.604H104.544V138.79H105.628V136.693H106.712V140.879H109.965V128.33H106.712Z" fill="white"/>
<path opacity="0.8" d="M100.18 132.516H101.264V128.33H99.0956V132.516H99.4866V135.653H99.0956V140.879H101.264V138.79H100.18V132.516Z" fill="white"/>
<path opacity="0.8" d="M96.9359 134.604H98.0202V128.33H96.9359V134.604Z" fill="white"/>
<path opacity="0.8" d="M94.7586 131.468H95.8431V128.33H94.7586V129.379H94.3941V130.419H94.7586V131.468Z" fill="white"/>
<path opacity="0.8" d="M96.9359 135.653H95.8516V133.556H94.7674V136.693H95.8516V138.79H96.9359V140.879H98.0201V137.742H96.9359V135.653Z" fill="white"/>
<path opacity="0.8" d="M93.6741 140.879H95.8427V139.839H94.7585V136.693H93.6741V140.879Z" fill="white"/>
<path opacity="0.8" d="M92.5899 130.418V133.556H92.1633V128.33H91.8345V133.556H91.5056V129.378H90.4214V128.33H89.337V130.418H90.4214V133.556H89.337V136.693H90.4214V140.879H91.5056V135.653H90.4214V134.604H92.5899V140.879H92.9276V136.693H93.6741V130.418H92.5899Z" fill="white"/>
<path opacity="0.8" d="M86.0843 140.879H87.16V138.79H86.0754L86.0843 140.879Z" fill="white"/>
<path opacity="0.8" d="M84.9999 136.693V138.791H86.0846V136.693H84.9999Z" fill="white"/>
<path opacity="0.8" d="M88.2528 134.604H87.1596V138.79H89.3281V136.693H88.2439L88.2528 134.604Z" fill="white"/>
<path opacity="0.8" d="M88.2528 128.33H87.1596V133.556H88.2439L88.2528 128.33Z" fill="white"/>
<path opacity="0.8" d="M81.7475 128.33H80.6628V130.419H81.7475V128.33Z" fill="white"/>
<path opacity="0.8" d="M77.3834 130.418H78.4676V128.33H76.2991V140.879H77.3834V139.839H78.4676V137.742H77.3834V136.693H78.4676V135.653H77.3834V133.556H78.4676V132.516H77.3834V130.418Z" fill="white"/>
<path opacity="0.8" d="M74.1483 128.33H73.0641V132.516H74.1483V128.33Z" fill="white"/>
<path opacity="0.8" d="M71.9799 132.516V128.33H70.8955V135.653H70.4689V128.33H70.2734V135.653H69.8468V136.693H70.2734V138.79H69.8468V139.839H68.7626V132.516H69.8468V128.33H67.6072V140.879H70.86V139.839H71.9443V140.879H73.0285V138.79H71.9443V135.653H73.0285V132.516H71.9799ZM70.8955 138.79H70.4689V136.693H70.8955V138.79Z" fill="white"/>
<path opacity="0.8" d="M60.0528 140.879H63.3056V128.33H60.0528V140.879Z" fill="white"/>
<path opacity="0.8" d="M85.6933 128.33H85.1511V135.928H85.6933V128.33Z" fill="white"/>
<path opacity="0.8" d="M84.1557 128.33H83.7913V140.879H84.1557V128.33Z" fill="white"/>
<path opacity="0.8" d="M82.6625 136.693H81.7737V132.516H80.6895V130.418H78.5121V132.516H79.6052V140.879H79.9608V134.604H80.6895V140.879H81.7737V138.79H82.8581V128.33H82.6892L82.6625 136.693Z" fill="white"/>
<path opacity="0.8" d="M74.7171 135.653H73.0641V136.693H74.1483V140.879H75.2326V128.33H74.7171V135.653Z" fill="white"/>
<path opacity="0.8" d="M83.3914 128.33H83.1603V140.879H83.3914V128.33Z" fill="white"/>
<path opacity="0.8" d="M102.891 128.33H102.659V134.604H101.94V128.33H101.709V134.604H101.264V136.693H101.709V140.879H101.94V136.693H102.348V140.879H104.517V139.839H103.433V134.604H102.891V128.33Z" fill="white"/>
<path opacity="0.8" d="M84.6801 128.33H84.449V140.879H84.6801V128.33Z" fill="white"/>
<path opacity="0.8" d="M64.9143 128.33H64.5499V140.879H64.9143V128.33Z" fill="white"/>
<path opacity="0.8" d="M64.15 128.33H63.9189V140.879H64.15V128.33Z" fill="white"/>
<path opacity="0.8" d="M65.4386 128.33H65.2075V140.879H65.4386V128.33Z" fill="white"/>
<path opacity="0.8" d="M66.7451 128.33H66.3807V140.879H66.7451V128.33Z" fill="white"/>
<path opacity="0.8" d="M65.9808 128.33H65.7497V140.879H65.9808V128.33Z" fill="white"/>
<path opacity="0.8" d="M67.2606 128.33H67.0295V140.879H67.2606V128.33Z" fill="white"/>
<path opacity="0.8" d="M98.7134 128.33H98.4824V140.879H98.7134V128.33Z" fill="white"/>
<path opacity="0.8" d="M75.8192 128.33H75.5881V140.879H75.8192V128.33Z" fill="white"/>
</g>
<path d="M142.502 47.4623H27.4979V123.148H142.502V47.4623Z" stroke="white" stroke-width="0.295478" stroke-miterlimit="10"/>
<path d="M44.553 141.608V28.9586" stroke="white" stroke-width="0.295478" stroke-miterlimit="10"/>
<path d="M125.438 28.9586V141.608" stroke="white" stroke-width="0.295478" stroke-miterlimit="10"/>
<path d="M51.8408 35.2154C52.1171 35.171 52.3966 35.1502 52.6764 35.1532C53.0163 35.1273 53.3542 35.2252 53.6277 35.4287C53.7267 35.5177 53.8045 35.6279 53.8552 35.751C53.906 35.8741 53.9285 36.007 53.921 36.1399C53.9334 36.4046 53.8408 36.6634 53.6633 36.86C53.5242 36.9893 53.3602 37.0891 53.1815 37.1533C53.0027 37.2175 52.8127 37.2447 52.6231 37.2334C52.5078 37.2432 52.3918 37.2432 52.2764 37.2334V38.5846H51.8408V35.2154ZM52.2764 36.8511C52.3977 36.862 52.5197 36.862 52.6409 36.8511C53.1654 36.8511 53.4854 36.6022 53.4854 36.131C53.4854 35.6599 53.1654 35.4732 52.6853 35.4732C52.5497 35.4542 52.4121 35.4542 52.2764 35.4732V36.8511Z" fill="white"/>
<path d="M54.7559 35.2243C55.0493 35.1724 55.3469 35.1485 55.6449 35.1532C55.9941 35.1162 56.3442 35.2149 56.6227 35.4287C56.7078 35.5121 56.7752 35.6117 56.821 35.7217C56.8668 35.8317 56.89 35.9497 56.8894 36.0688C56.8972 36.2672 56.8386 36.4625 56.7226 36.6236C56.6066 36.7847 56.4399 36.9024 56.2493 36.9578C56.3826 37.0215 56.498 37.1175 56.585 37.237C56.6719 37.3565 56.7276 37.4958 56.7472 37.6423C56.8059 37.9459 56.8921 38.2434 57.0049 38.5313H56.5516C56.4544 38.2686 56.38 37.9979 56.3294 37.7223C56.2316 37.26 56.0449 37.0823 55.6538 37.0645H55.1648V38.5313H54.7292L54.7559 35.2243ZM55.1915 36.7622H55.6449C56.1071 36.7622 56.4094 36.5044 56.4094 36.1222C56.4094 35.7399 56.0893 35.491 55.6271 35.491C55.4823 35.4755 55.3363 35.4755 55.1915 35.491V36.7622Z" fill="white"/>
<path d="M60.6135 36.8333C60.6413 37.0562 60.6213 37.2824 60.5548 37.497C60.4884 37.7115 60.3771 37.9094 60.2283 38.0776C60.0795 38.2458 59.8964 38.3804 59.6916 38.4724C59.4867 38.5644 59.2646 38.6118 59.04 38.6113C58.8245 38.6075 58.6122 38.559 58.4165 38.4689C58.2207 38.3787 58.0458 38.2488 57.9029 38.0875C57.7599 37.9262 57.6521 37.737 57.5862 37.5318C57.5203 37.3266 57.4977 37.11 57.5199 36.8956C57.4964 36.6735 57.5195 36.4489 57.5875 36.2362C57.6555 36.0235 57.7671 35.8273 57.9151 35.6601C58.0631 35.4928 58.2443 35.3582 58.4472 35.2649C58.65 35.1715 58.8701 35.1213 59.0934 35.1176C59.3093 35.12 59.5223 35.1677 59.7187 35.2574C59.9151 35.3471 60.0905 35.4769 60.2337 35.6385C60.3769 35.8002 60.4846 35.99 60.5501 36.1957C60.6155 36.4015 60.6371 36.6187 60.6135 36.8333ZM57.9466 36.8867C57.9466 37.6068 58.3377 38.2557 59.0222 38.2557C59.7067 38.2557 60.1069 37.6157 60.1069 36.8511C60.1069 36.0866 59.7601 35.4732 59.0311 35.4732C58.3022 35.4732 57.9911 36.1399 57.9911 36.8867H57.9466Z" fill="white"/>
<path d="M61.4304 35.1709H63.2083V35.5354H61.8215V36.6555H63.1638V37.02H61.8837V38.5491H61.448L61.4304 35.1709Z" fill="white"/>
<path d="M65.8746 36.9489H64.5588V38.1668H66.0257V38.5313H64.1232V35.1709H65.9546V35.5354H64.5588V36.6022H65.8746V36.9489Z" fill="white"/>
<path d="M66.7895 38.0246C67.0243 38.1705 67.2954 38.2475 67.5718 38.2468C68.0163 38.2468 68.2742 38.0157 68.2742 37.669C68.2742 37.3223 68.0964 37.1712 67.643 36.9934C67.1897 36.8156 66.754 36.5133 66.754 36.0421C66.765 35.911 66.8023 35.7835 66.8638 35.6671C66.9252 35.5508 67.0095 35.448 67.1116 35.365C67.2137 35.282 67.3315 35.2205 67.4579 35.1841C67.5843 35.1477 67.7169 35.1372 67.8475 35.1532C68.1069 35.1432 68.3643 35.2015 68.5942 35.3221L68.4786 35.6777C68.279 35.5712 68.0559 35.5162 67.8297 35.5177C67.3674 35.5177 67.1985 35.7932 67.1985 36.0244C67.1985 36.2555 67.403 36.4955 67.8653 36.6733C68.3275 36.8511 68.7543 37.1712 68.7543 37.669C68.7543 38.1668 68.3719 38.6469 67.5718 38.6469C67.2607 38.6561 66.953 38.5792 66.6829 38.4246L66.7895 38.0246Z" fill="white"/>
<path d="M69.5091 38.0246C69.7445 38.1692 70.0152 38.2461 70.2914 38.2468C70.7359 38.2468 71.0026 38.0157 71.0026 37.669C71.0026 37.3223 70.8159 37.1712 70.3625 36.9934C69.9091 36.8156 69.4735 36.5133 69.4735 36.0421C69.4845 35.911 69.5219 35.7835 69.5834 35.6671C69.6448 35.5508 69.729 35.448 69.8311 35.365C69.9332 35.282 70.0511 35.2205 70.1775 35.1841C70.3039 35.1477 70.4364 35.1372 70.567 35.1532C70.8264 35.1432 71.0839 35.2015 71.3138 35.3221L71.1893 35.6777C70.993 35.5708 70.7728 35.5158 70.5493 35.5177C70.087 35.5177 69.9091 35.7932 69.9091 36.0244C69.9091 36.2555 70.1136 36.4955 70.5848 36.6733C71.0559 36.8511 71.4738 37.1712 71.4738 37.669C71.4738 38.1668 71.0826 38.6469 70.2914 38.6469C69.9803 38.6561 69.6727 38.5792 69.4025 38.4246L69.5091 38.0246Z" fill="white"/>
<path d="M72.7265 35.1709V38.5491H72.291V35.1709H72.7265Z" fill="white"/>
<path d="M76.6378 36.8333C76.6656 37.0562 76.6455 37.2824 76.5791 37.497C76.5127 37.7115 76.4013 37.9094 76.2525 38.0776C76.1036 38.2458 75.9207 38.3804 75.7158 38.4724C75.511 38.5644 75.2889 38.6118 75.0643 38.6113C74.8484 38.6089 74.6354 38.5613 74.439 38.4716C74.2426 38.3818 74.0671 38.252 73.9239 38.0904C73.7807 37.9288 73.673 37.739 73.6076 37.5332C73.5421 37.3274 73.5206 37.1102 73.5442 36.8956C73.5207 36.6735 73.5436 36.4489 73.6117 36.2362C73.6797 36.0235 73.7913 35.8273 73.9393 35.6601C74.0873 35.4928 74.2685 35.3582 74.4714 35.2649C74.6742 35.1715 74.8943 35.1213 75.1176 35.1176C75.3335 35.12 75.5466 35.1677 75.743 35.2574C75.9394 35.3471 76.1148 35.4769 76.258 35.6385C76.4012 35.8002 76.5089 35.99 76.5743 36.1957C76.6397 36.4015 76.6614 36.6187 76.6378 36.8333ZM73.9709 36.8867C73.9709 37.6068 74.362 38.2557 75.0554 38.2557C75.7488 38.2557 76.1399 37.6157 76.1399 36.8511C76.1399 36.0866 75.7844 35.4732 75.0554 35.4732C74.3264 35.4732 74.0064 36.1399 74.0064 36.8867H73.9709Z" fill="white"/>
<path d="M77.4545 38.558V35.1709H77.9257L79.0102 36.8778C79.2405 37.2302 79.4455 37.5986 79.6236 37.9801C79.5823 37.5191 79.5644 37.0562 79.5702 36.5933V35.1709H79.9793V38.5491H79.5437L78.4679 36.8333C78.2325 36.4715 78.0217 36.0943 77.8368 35.7043C77.8368 36.1221 77.8368 36.5311 77.8368 37.0911V38.5402L77.4545 38.558Z" fill="white"/>
<path d="M81.5518 37.4912L81.1963 38.5579H80.7518L81.8985 35.1798H82.4231L83.5787 38.5579H83.1164L82.752 37.4912H81.5518ZM82.6631 37.1534L82.3253 36.1755C82.2542 35.9621 82.2008 35.7577 82.1564 35.5621C82.103 35.7665 82.0497 35.971 81.9786 36.1755L81.6497 37.1534H82.6631Z" fill="white"/>
<path d="M84.3246 35.1709H84.7602V38.1846H86.2093V38.5491H84.3246V35.1709Z" fill="white"/>
<path d="M88.1995 38.0246C88.4348 38.1692 88.7055 38.2461 88.9818 38.2468C89.4263 38.2468 89.6929 38.0157 89.6929 37.669C89.6929 37.3223 89.5062 37.1712 89.0528 36.9934C88.5995 36.8156 88.1639 36.5133 88.1639 36.0421C88.1748 35.9102 88.2123 35.7818 88.2743 35.6648C88.3363 35.5478 88.4215 35.4446 88.5246 35.3615C88.6277 35.2783 88.7465 35.217 88.874 35.1812C89.0015 35.1454 89.1349 35.1359 89.2662 35.1532C89.5256 35.1432 89.783 35.2015 90.0129 35.3221L89.8884 35.6777C89.6921 35.5708 89.4719 35.5158 89.2484 35.5177C88.7861 35.5177 88.6084 35.7932 88.6084 36.0244C88.6084 36.2555 88.8128 36.4955 89.284 36.6733C89.7552 36.8511 90.173 37.1712 90.173 37.669C90.173 38.1668 89.7819 38.6469 88.9907 38.6469C88.6795 38.6561 88.3719 38.5792 88.1017 38.4246L88.1995 38.0246Z" fill="white"/>
<path d="M91.4169 35.1709V38.5491H90.9813V35.1709H91.4169Z" fill="white"/>
<path d="M92.43 38.558V35.1709H92.91L93.9945 36.8778C94.2188 37.2323 94.4207 37.6004 94.5991 37.9801C94.5991 37.5267 94.5546 37.0911 94.5546 36.5933V35.1709H94.9636V38.5491H94.5191L93.4522 36.8333C93.2174 36.4696 93.0037 36.0926 92.8122 35.7043C92.8122 36.1221 92.8122 36.5311 92.8122 37.0911V38.5402L92.43 38.558Z" fill="white"/>
<path d="M98.563 38.4068C98.2293 38.5273 97.8777 38.5904 97.5229 38.5935C97.0603 38.6154 96.6074 38.456 96.2605 38.149C95.944 37.8064 95.7747 37.353 95.7894 36.8867C95.7757 36.645 95.8143 36.4033 95.9022 36.1778C95.9902 35.9523 96.1255 35.7483 96.2992 35.5797C96.4728 35.4111 96.6807 35.2818 96.9087 35.2005C97.1367 35.1193 97.3796 35.0879 97.6207 35.1087C97.9068 35.0998 98.1915 35.1513 98.4563 35.2599L98.3585 35.6154C98.12 35.5135 97.8622 35.4649 97.6029 35.4732C97.4206 35.4584 97.2371 35.4835 97.0654 35.5466C96.8937 35.6097 96.7377 35.7094 96.6083 35.8388C96.479 35.9682 96.3793 36.1241 96.3162 36.2959C96.2531 36.4676 96.228 36.651 96.2427 36.8333C96.2259 37.0116 96.2476 37.1914 96.3066 37.3605C96.3655 37.5296 96.4603 37.6839 96.5844 37.813C96.7084 37.9421 96.8588 38.043 97.0254 38.1086C97.192 38.1743 97.3707 38.2032 97.5495 38.1935C97.7492 38.2052 97.9491 38.1749 98.1363 38.1046V37.1H97.4429V36.7445H98.563V38.4068Z" fill="white"/>
<path d="M99.9133 35.1709V38.5491H99.4777V35.1709H99.9133Z" fill="white"/>
<path d="M100.926 38.558V35.1709H101.406L102.491 36.8778C102.715 37.2323 102.917 37.6004 103.096 37.9801C103.096 37.5267 103.096 37.0911 103.096 36.5933V35.1709H103.504V38.5491H103.06L101.984 36.8333C101.752 36.4695 101.541 36.0925 101.353 35.7043C101.353 36.1221 101.353 36.5311 101.353 37.0911V38.5402L100.926 38.558Z" fill="white"/>
<path d="M107.051 38.4068C106.72 38.5283 106.371 38.5915 106.019 38.5935C105.554 38.6178 105.097 38.4582 104.748 38.149C104.432 37.8064 104.262 37.353 104.277 36.8867C104.265 36.6454 104.304 36.4043 104.393 36.1795C104.481 35.9546 104.617 35.7513 104.79 35.583C104.963 35.4147 105.171 35.2854 105.398 35.2036C105.625 35.1218 105.867 35.0894 106.108 35.1087C106.412 35.0938 106.715 35.1454 106.997 35.2599L106.89 35.6154C106.655 35.5147 106.4 35.4662 106.144 35.4732C105.961 35.4584 105.778 35.4835 105.606 35.5466C105.435 35.6097 105.279 35.7094 105.149 35.8388C105.02 35.9682 104.92 36.1241 104.857 36.2959C104.794 36.4676 104.769 36.651 104.784 36.8333C104.765 37.0119 104.786 37.1924 104.844 37.3621C104.903 37.5319 104.997 37.6869 105.122 37.8164C105.246 37.9458 105.397 38.0466 105.564 38.1117C105.732 38.1769 105.911 38.2048 106.09 38.1935C106.29 38.2052 106.49 38.1749 106.677 38.1046V37.1H105.984V36.7444H107.095L107.051 38.4068Z" fill="white"/>
<path d="M109.725 35.5443H108.694V35.1709H111.201V35.5354H110.161V38.5491H109.725V35.5443Z" fill="white"/>
<path d="M112.267 35.1709V38.5491H111.822V35.1709H112.267Z" fill="white"/>
<path d="M113.271 35.2154C113.55 35.1715 113.833 35.1506 114.116 35.1532C114.453 35.127 114.788 35.2251 115.058 35.4287C115.159 35.5169 115.238 35.6266 115.29 35.7498C115.343 35.8729 115.367 36.0063 115.36 36.1399C115.367 36.2718 115.347 36.4037 115.301 36.5275C115.255 36.6513 115.185 36.7645 115.094 36.86C114.956 36.9891 114.794 37.0888 114.616 37.153C114.439 37.2172 114.251 37.2445 114.062 37.2334C113.947 37.2436 113.831 37.2436 113.716 37.2334V38.5846H113.271V35.2154ZM113.716 36.8511C113.834 36.8621 113.953 36.8621 114.071 36.8511C114.605 36.8511 114.96 36.6022 114.96 36.131C114.96 35.6599 114.64 35.4732 114.16 35.4732C114.024 35.4537 113.887 35.4537 113.751 35.4732L113.716 36.8511Z" fill="white"/>
<path d="M116.133 38.0246C116.369 38.1679 116.639 38.2447 116.915 38.2468C117.369 38.2468 117.626 38.0157 117.626 37.669C117.626 37.3223 117.449 37.1712 116.986 36.9934C116.524 36.8156 116.097 36.5133 116.097 36.0421C116.108 35.911 116.146 35.7835 116.207 35.6671C116.269 35.5508 116.353 35.448 116.455 35.365C116.557 35.282 116.675 35.2205 116.801 35.1841C116.928 35.1477 117.06 35.1372 117.191 35.1532C117.45 35.1432 117.708 35.2015 117.938 35.3221L117.822 35.6777C117.622 35.5712 117.399 35.5162 117.173 35.5177C116.711 35.5177 116.533 35.7932 116.533 36.0244C116.533 36.2555 116.746 36.4955 117.209 36.6733C117.671 36.8511 118.098 37.1712 118.098 37.669C118.098 38.1668 117.715 38.6469 116.915 38.6469C116.604 38.6561 116.296 38.5792 116.026 38.4246L116.133 38.0246Z" fill="white"/>
<path d="M117.822 31.3138H52.2763V32.1403H117.822V31.3138Z" fill="white"/>
<path d="M117.822 41.9254H52.2763V42.752H117.822V41.9254Z" fill="white"/>
<path d="M68.2826 88.4959H70.2734C70.2177 88.8967 70.1405 89.2943 70.0423 89.6868C69.738 90.6348 69.0852 91.4319 68.2157 91.917C67.3463 92.402 66.325 92.5388 65.3586 92.2998C64.3832 92.0506 63.5377 91.4428 62.9908 90.5977C62.4438 89.7526 62.2357 88.7323 62.408 87.7405C63.0034 83.8744 66.5584 81.7325 70.4689 82.879C74.9126 84.1855 77.1434 88.7181 75.7125 93.3574C75.0814 95.3644 73.8306 97.1199 72.1396 98.3717C70.4486 99.6236 68.4045 100.307 66.3007 100.325V100.965C66.3007 104.369 66.3007 107.782 66.3007 111.186C66.2968 111.85 66.1581 112.507 65.8929 113.116C65.6277 113.725 65.2416 114.274 64.758 114.729C64.2743 115.185 63.7031 115.537 63.0792 115.765C62.4552 115.993 61.7914 116.092 61.1281 116.056C59.8651 115.983 58.6779 115.43 57.8101 114.509C56.9424 113.589 56.4601 112.371 56.4622 111.106C56.4734 110.338 56.7815 109.605 57.3217 109.06C57.8619 108.515 58.5922 108.2 59.3595 108.182C60.128 108.169 60.8713 108.456 61.432 108.982C61.9926 109.508 62.3266 110.231 62.3635 110.999C62.3635 111.346 62.3635 111.692 62.3635 112.074H60.3994C60.3994 111.79 60.3994 111.515 60.3994 111.186C60.4092 111.047 60.3902 110.908 60.3436 110.777C60.297 110.647 60.2238 110.527 60.1286 110.426C60.0334 110.325 59.9182 110.245 59.7904 110.19C59.6626 110.136 59.525 110.109 59.3862 110.11C59.2426 110.118 59.1022 110.157 58.9744 110.222C58.8465 110.288 58.7341 110.381 58.6443 110.493C58.5546 110.605 58.4895 110.736 58.4535 110.875C58.4175 111.014 58.4113 111.159 58.4353 111.301C58.4953 112.046 58.8326 112.742 59.3805 113.25C59.9285 113.759 60.6473 114.043 61.3948 114.047C62.1438 114.055 62.8667 113.773 63.4118 113.259C63.957 112.745 64.2821 112.04 64.3188 111.292C64.3188 107.577 64.3188 103.862 64.3188 100.103L63.1901 99.8275C60.4516 99.0819 58.0728 97.3759 56.4883 95.0213C54.9038 92.6666 54.2194 89.8204 54.5602 87.0028C54.7564 84.9421 55.4055 82.9502 56.461 81.1695C57.5165 79.3889 58.9523 77.8634 60.6659 76.7022C61.7324 75.9379 62.7989 75.1736 63.8921 74.4448C64.0463 74.3577 64.1709 74.2267 64.2501 74.0683C64.3293 73.91 64.3593 73.7316 64.3365 73.556C64.3365 68.4902 64.3365 63.4243 64.3365 58.3495C64.3365 56.0299 65.723 54.7501 68.0515 54.919C69.8147 55.0605 71.4944 55.7296 72.8719 56.8392C74.2494 57.9489 75.2609 59.4476 75.7747 61.1402C76.3045 62.8388 76.297 64.6597 75.753 66.3538C75.2089 68.048 74.155 69.5328 72.7352 70.6054C69.4291 73.0228 66.0518 75.3691 62.6656 77.7154C60.4798 79.0487 58.7243 80.9833 57.6087 83.2878C55.9378 87.1095 55.8312 90.86 58.4353 94.3617C59.606 95.9754 61.255 97.1796 63.1486 97.8033C65.0422 98.4271 67.0841 98.4387 68.9847 97.8367C72.7175 96.4858 74.966 92.3708 73.9439 88.7714C73.5446 87.387 72.6475 86.1992 71.4252 85.4363C70.2029 84.6734 68.7418 84.3893 67.3228 84.6387C66.5145 84.8421 65.7907 85.2951 65.2546 85.9333C64.7185 86.5715 64.3972 87.3625 64.3365 88.1937C64.2873 88.7082 64.4366 89.2221 64.7538 89.6302C65.071 90.0382 65.5322 90.3097 66.0429 90.3889C66.5483 90.4492 67.0576 90.3146 67.4672 90.0124C67.8767 89.7102 68.1556 89.2632 68.247 88.7625C68.247 88.727 68.2559 88.6292 68.2826 88.4959ZM66.274 72.8628C68.327 71.3608 70.3355 70.081 72.113 68.5346C73.0997 67.6201 73.7778 66.4215 74.0533 65.1047C74.3287 63.7878 74.188 62.418 73.6507 61.1846C73.1543 59.9737 72.3194 58.9314 71.246 58.1827C70.1726 57.434 68.9061 57.0105 67.5982 56.9631C66.7095 56.9631 66.2829 57.3363 66.2829 58.1362C66.274 62.9977 66.274 67.8325 66.274 72.8806V72.8628Z" fill="url(#paint1_linear_145_5448)"/>
<path d="M115.502 73.8049C115.502 74.036 115.502 74.1959 115.502 74.3559C115.502 79.0574 115.502 83.75 115.502 88.4515C115.509 88.9817 115.409 89.5079 115.208 89.9984C115.007 90.489 114.708 90.9336 114.33 91.3057C113.952 91.6777 113.503 91.9694 113.009 92.1631C112.516 92.3569 111.988 92.4487 111.458 92.4331C110.441 92.4034 109.474 91.9818 108.761 91.2564C108.047 90.531 107.641 89.5579 107.628 88.5404C107.617 87.5245 108 86.5439 108.695 85.8035C109.391 85.0631 110.346 84.6203 111.36 84.5676C112.054 84.5676 112.747 84.5676 113.538 84.5676V81.5192L105.655 80.7282V81.4392C105.655 83.1368 105.655 84.8432 105.655 86.5496C105.653 87.0688 105.549 87.5828 105.349 88.0618C105.148 88.5407 104.855 88.9753 104.486 89.3404C104.116 89.7056 103.679 89.994 103.197 90.1892C102.716 90.3844 102.201 90.4825 101.682 90.4778C100.654 90.4619 99.6718 90.0469 98.9437 89.3205C98.2157 88.5942 97.7985 87.6133 97.7802 86.5851C97.7755 86.0657 97.8733 85.5505 98.0677 85.0689C98.2621 84.5873 98.5495 84.1486 98.9135 83.7781C99.2774 83.4075 99.7107 83.1123 100.189 82.9092C100.667 82.7062 101.18 82.5993 101.7 82.5946H103.673V72.6317L115.502 73.8049ZM113.529 79.5195V75.5913L105.717 74.8092V78.7197L113.529 79.5195Z" fill="url(#paint2_linear_145_5448)"/>
<path d="M82.0494 102.289V90.2734L93.8253 92.6286V100.547L84.0491 98.5921V99.8541C84.0491 101.987 84.0491 104.12 84.0491 106.253C84.0495 107.232 83.6858 108.177 83.0288 108.903C82.3718 109.629 81.4684 110.084 80.4941 110.181C79.5243 110.263 78.5588 109.983 77.7829 109.396C77.007 108.808 76.4754 107.955 76.2903 107C76.1823 106.445 76.1955 105.873 76.3287 105.324C76.4619 104.774 76.7122 104.26 77.0623 103.816C77.4125 103.373 77.8543 103.01 78.3576 102.752C78.8609 102.495 79.4138 102.349 79.9786 102.325C80.583 102.272 81.2762 102.289 82.0494 102.289Z" fill="url(#paint3_linear_145_5448)"/>
<path d="M99.7177 74.6758H97.8247V62.8821C97.0959 62.8821 96.4116 62.8821 95.7272 62.8821C94.7943 62.8552 93.9011 62.4985 93.2063 61.8753C92.5115 61.2521 92.0601 60.4028 91.9323 59.4782C91.8104 58.5669 92.01 57.6415 92.4966 56.8613C92.9832 56.0811 93.7264 55.4949 94.5985 55.2033C95.174 55.0073 95.7875 54.9488 96.3897 55.0325C96.9919 55.1162 97.5662 55.3398 98.0664 55.6854C98.5666 56.031 98.979 56.4889 99.2704 57.0226C99.5618 57.5562 99.7241 58.1507 99.7444 58.7583C99.7977 64.002 99.7444 69.2545 99.7444 74.507C99.7622 74.5514 99.7355 74.587 99.7177 74.6758Z" fill="url(#paint4_linear_145_5448)"/>
<path d="M84.0045 68.8012V57.0253H85.9331C85.9537 57.1101 85.9686 57.1962 85.9776 57.283C85.9776 62.4556 85.9776 67.6281 85.9776 72.7917C86.0025 73.5472 85.7963 74.2923 85.3866 74.9275C84.9769 75.5627 84.3831 76.0578 83.6846 76.3467C83.0273 76.6735 82.2883 76.7997 81.5598 76.7096C80.8313 76.6195 80.1454 76.3172 79.5874 75.8401C78.9615 75.3487 78.502 74.6765 78.2715 73.9149C78.0409 73.1532 78.0505 72.3391 78.2988 71.583C78.5421 70.819 79.0129 70.1476 79.6482 69.6584C80.2835 69.1692 81.053 68.8857 81.8538 68.8457C82.5559 68.7834 83.2491 68.8012 84.0045 68.8012Z" fill="url(#paint5_linear_145_5448)"/>
<path d="M84.2535 113.052L83.7735 111.275C93.763 108.324 100.713 102.103 104.375 92.2198C104.65 92.2998 104.952 92.3798 105.264 92.4775C105.575 92.5753 105.85 92.673 106.152 92.7708C103.726 101.232 95.4162 110.306 84.2535 113.052Z" fill="url(#paint6_linear_145_5448)"/>
<path d="M107.601 95.0638L109.378 95.7037C106.828 103.534 99.8598 111.914 90.5102 115.976L89.7281 114.199C93.8234 112.348 97.5113 109.704 100.579 106.419C103.647 103.135 106.033 99.2756 107.601 95.0638Z" fill="url(#paint7_linear_145_5448)"/>
<path d="M87.053 69.5122L88.1906 68.0636C91.5612 70.6611 93.9923 74.2873 95.1151 78.3918C96.2379 82.4964 95.991 86.8552 94.4119 90.8067L92.6344 90.1312C95.3095 82.0258 93.4786 75.1647 87.053 69.5122Z" fill="url(#paint8_linear_145_5448)"/>
<path d="M87.764 76.1423C88.9485 78.0222 89.6671 80.1577 89.8603 82.3712C90.0536 84.5848 89.7158 86.8125 88.8749 88.8692L87.0974 88.1226C87.8169 86.3567 88.1052 84.4447 87.9382 82.5452C87.7713 80.6457 87.154 78.8133 86.1375 77.1999L87.764 76.1423Z" fill="url(#paint9_linear_145_5448)"/>
<path d="M102.855 60.2692C105.483 63.2733 107.586 66.6984 109.076 70.401L107.254 71.1297C105.842 67.6391 103.86 64.4074 101.388 61.5668L102.855 60.2692Z" fill="url(#paint10_linear_145_5448)"/>
<path d="M104.588 70.3032L102.81 71.192L100.518 67.3881L102.126 66.2416L104.588 70.3032Z" fill="url(#paint11_linear_145_5448)"/>
<path d="M132.122 58.2785C132.233 58.1551 132.371 58.0583 132.525 57.9952C132.679 57.9321 132.845 57.9044 133.011 57.914C133.176 57.9063 133.342 57.9349 133.495 57.9978C133.649 58.0608 133.787 58.1566 133.9 58.2785C134.136 58.5409 134.261 58.8856 134.246 59.2386C134.259 59.5861 134.134 59.9245 133.9 60.1809C133.787 60.304 133.65 60.4011 133.496 60.4656C133.343 60.5301 133.177 60.5603 133.011 60.5543C132.844 60.5622 132.678 60.5328 132.524 60.4682C132.37 60.4036 132.233 60.3054 132.122 60.1809C131.887 59.9245 131.762 59.5861 131.775 59.2386C131.76 58.8856 131.885 58.5409 132.122 58.2785V58.2785Z" stroke="white" stroke-width="0.147739" stroke-miterlimit="10"/>
<path d="M138.023 75.0225H128.931V72.8006H134.406L128.931 70.7209V68.9434L134.423 66.8904H128.931V64.6685H138.067V67.3348L131.739 69.8944L138.067 72.4273L138.023 75.0225Z" stroke="white" stroke-width="0.147739" stroke-miterlimit="10"/>
<path d="M138.023 78.8086H132.557C132.099 78.7769 131.647 78.9233 131.295 79.2174C131.14 79.3707 131.02 79.5557 130.943 79.7597C130.867 79.9638 130.835 80.182 130.851 80.3994C130.837 80.618 130.87 80.8369 130.946 81.0421C131.023 81.2472 131.142 81.434 131.295 81.5903C131.646 81.8876 132.098 82.0373 132.557 82.008H138.023V84.2299H132.566C131.844 84.2546 131.129 84.076 130.504 83.7145C129.954 83.3801 129.51 82.8962 129.224 82.3191C128.934 81.7056 128.788 81.0337 128.797 80.355C128.786 79.6875 128.932 79.0268 129.224 78.4264C129.501 77.8596 129.944 77.3913 130.495 77.0844C131.127 76.7339 131.843 76.5619 132.566 76.5867H138.023V78.8086Z" stroke="white" stroke-width="0.147739" stroke-miterlimit="10"/>
<path d="M129.126 87.305C129.321 86.7998 129.654 86.3594 130.086 86.0341C130.533 85.7093 131.071 85.535 131.624 85.5364V87.9005C131.33 87.9135 131.052 88.0411 130.851 88.256C130.666 88.47 130.57 88.7468 130.584 89.0292C130.567 89.3075 130.645 89.5834 130.806 89.8113C130.88 89.9061 130.977 89.9815 131.087 90.031C131.197 90.0805 131.317 90.1027 131.437 90.0957C131.541 90.1007 131.644 90.0835 131.741 90.0451C131.838 90.0068 131.925 89.9483 131.997 89.8735C132.153 89.7116 132.276 89.5216 132.361 89.3136C132.488 89.0059 132.598 88.6914 132.69 88.3715C132.834 87.8755 133.015 87.3912 133.232 86.9228C133.422 86.5431 133.699 86.214 134.041 85.963C134.447 85.681 134.934 85.5404 135.428 85.563C135.808 85.5398 136.188 85.6085 136.536 85.7632C136.884 85.9178 137.19 86.154 137.427 86.4518C137.933 87.1465 138.187 87.9929 138.147 88.8514C138.189 89.7211 137.935 90.5794 137.427 91.2866C137.188 91.5909 136.883 91.8376 136.535 92.0083C136.188 92.1791 135.806 92.2696 135.419 92.2731V89.8646C135.55 89.8621 135.679 89.8323 135.799 89.7772C135.918 89.7222 136.025 89.643 136.112 89.5446C136.289 89.3268 136.381 89.0519 136.37 88.7714C136.38 88.5364 136.304 88.3058 136.156 88.1226C136.076 88.0407 135.978 87.9769 135.871 87.9356C135.764 87.8942 135.649 87.8762 135.534 87.8827C135.393 87.8802 135.255 87.9172 135.134 87.9895C135.013 88.0617 134.915 88.1663 134.85 88.2915C134.625 88.7061 134.446 89.1442 134.317 89.598C134.156 90.087 133.963 90.565 133.739 91.0289C133.555 91.4067 133.284 91.7356 132.948 91.9887C132.558 92.2692 132.086 92.4102 131.606 92.3886C131.108 92.3929 130.618 92.2574 130.193 91.9976C129.752 91.7167 129.401 91.3159 129.18 90.8422C128.912 90.289 128.78 89.6793 128.798 89.0647C128.79 88.4622 128.902 87.8643 129.126 87.305V87.305Z" stroke="white" stroke-width="0.147739" stroke-miterlimit="10"/>
<path d="M138.023 96.0147H128.931V93.8284H138.067L138.023 96.0147Z" stroke="white" stroke-width="0.147739" stroke-miterlimit="10"/>
<path d="M135.881 97.8367C136.574 98.217 137.146 98.7835 137.534 99.472C137.933 100.198 138.136 101.016 138.121 101.845C138.137 102.845 137.825 103.822 137.232 104.627C136.656 105.402 135.825 105.95 134.885 106.173V103.729C135.254 103.569 135.564 103.299 135.774 102.956C135.98 102.613 136.084 102.218 136.076 101.818C136.087 101.506 136.029 101.195 135.907 100.908C135.784 100.621 135.599 100.364 135.365 100.156C134.829 99.7096 134.143 99.4812 133.446 99.5164C132.751 99.4825 132.069 99.7109 131.535 100.156C131.302 100.364 131.117 100.621 130.994 100.908C130.871 101.195 130.813 101.506 130.824 101.818C130.817 102.217 130.919 102.61 131.117 102.956C131.332 103.295 131.64 103.564 132.006 103.729V106.173C131.071 105.949 130.246 105.401 129.677 104.627C129.084 103.822 128.772 102.845 128.789 101.845C128.772 101.015 128.978 100.196 129.384 99.472C129.766 98.782 130.336 98.2149 131.028 97.8367C131.764 97.437 132.591 97.2349 133.428 97.2501C134.283 97.2289 135.128 97.4311 135.881 97.8367V97.8367Z" stroke="white" stroke-width="0.147739" stroke-miterlimit="10"/>
<path d="M132.122 110.51C132.233 110.386 132.37 110.288 132.524 110.223C132.678 110.159 132.844 110.129 133.011 110.137C133.177 110.131 133.343 110.161 133.496 110.226C133.65 110.29 133.787 110.387 133.9 110.51C134.136 110.773 134.261 111.117 134.246 111.47C134.259 111.818 134.134 112.156 133.9 112.413C133.787 112.535 133.649 112.63 133.495 112.693C133.342 112.756 133.176 112.785 133.011 112.777C132.845 112.787 132.679 112.759 132.525 112.696C132.371 112.633 132.233 112.536 132.122 112.413C131.887 112.156 131.762 111.818 131.775 111.47C131.76 111.117 131.885 110.773 132.122 110.51V110.51Z" stroke="white" stroke-width="0.147739" stroke-miterlimit="10"/>
<path d="M37.8968 112.359C37.7858 112.484 37.6484 112.582 37.4946 112.647C37.3408 112.711 37.1744 112.741 37.0078 112.733C36.8414 112.739 36.6757 112.709 36.5222 112.644C36.3687 112.58 36.231 112.482 36.1188 112.359C35.9988 112.231 35.9057 112.08 35.8446 111.915C35.7835 111.75 35.7559 111.575 35.7633 111.399C35.7568 111.226 35.7848 111.054 35.8459 110.892C35.907 110.73 35.9998 110.582 36.1188 110.457C36.2315 110.335 36.3695 110.239 36.5231 110.176C36.6766 110.113 36.842 110.085 37.0078 110.093C37.1738 110.083 37.3399 110.111 37.4938 110.174C37.6476 110.237 37.7853 110.334 37.8968 110.457C38.1251 110.717 38.2459 111.054 38.2346 111.399C38.2478 111.751 38.127 112.094 37.8968 112.359V112.359Z" stroke="white" stroke-width="0.147739" stroke-miterlimit="10"/>
<path d="M31.995 95.6059H41.1224V97.8278H35.6122L41.0869 99.8719V101.649L35.6122 103.702H41.0958V105.924H31.9683V103.258L38.2873 100.69L31.9683 98.1566L31.995 95.6059Z" stroke="white" stroke-width="0.147739" stroke-miterlimit="10"/>
<path d="M31.995 91.8021H37.4607C37.9142 91.8339 38.3627 91.6908 38.7139 91.4021C38.8695 91.2475 38.9899 91.0609 39.0666 90.8553C39.1433 90.6498 39.1746 90.43 39.1583 90.2112C39.174 89.9924 39.1424 89.7728 39.0657 89.5674C38.989 89.3619 38.8691 89.1753 38.7139 89.0203C38.3653 88.7252 37.9166 88.5757 37.4607 88.6026H31.995V86.3807H37.443C38.1678 86.3563 38.885 86.5348 39.5138 86.8962C40.064 87.2319 40.5053 87.7195 40.7846 88.3004C41.0755 88.9106 41.2215 89.5797 41.2113 90.2556C41.2257 90.9224 41.0825 91.5832 40.7935 92.1842C40.5115 92.7523 40.0658 93.2229 39.5138 93.5351C38.8797 93.8804 38.1646 94.0492 37.443 94.0239H31.995V91.8021Z" stroke="white" stroke-width="0.147739" stroke-miterlimit="10"/>
<path d="M40.8913 83.3056C40.6908 83.8075 40.3593 84.2463 39.9315 84.5765C39.4828 84.8975 38.9456 85.0714 38.394 85.0742V82.7101C38.6861 82.6958 38.9621 82.5721 39.1672 82.3635C39.3502 82.145 39.4453 81.8662 39.4338 81.5814C39.4483 81.302 39.3667 81.026 39.2028 80.7993C39.1274 80.7056 39.0309 80.631 38.9212 80.5816C38.8116 80.5322 38.6918 80.5094 38.5717 80.5149C38.4681 80.5116 38.365 80.5296 38.2687 80.5678C38.1723 80.606 38.0849 80.6637 38.0118 80.7371C37.8592 80.9016 37.736 81.091 37.6475 81.297C37.5586 81.5192 37.4519 81.8392 37.3275 82.2391C37.1814 82.7355 36.9972 83.2198 36.7765 83.6878C36.5926 84.0685 36.3179 84.3981 35.9766 84.6476C35.5682 84.9309 35.0777 85.0715 34.5812 85.0476C34.2014 85.0678 33.8222 84.9979 33.4746 84.8434C33.127 84.6889 32.821 84.4543 32.5815 84.1588C32.0768 83.4601 31.8232 82.6114 31.8617 81.7503C31.8199 80.8806 32.0736 80.0223 32.5815 79.3151C32.8233 79.0111 33.1298 78.7647 33.4788 78.5941C33.8278 78.4234 34.2105 78.3327 34.599 78.3286V80.7371C34.4661 80.7384 34.335 80.7676 34.2141 80.8227C34.0931 80.8778 33.985 80.9576 33.8968 81.0571C33.7245 81.277 33.6363 81.5511 33.6481 81.8303C33.6381 82.0653 33.7139 82.2959 33.8614 82.4791C33.9392 82.5629 34.0343 82.6286 34.1403 82.6716C34.2462 82.7146 34.3604 82.7338 34.4746 82.7279C34.6174 82.7291 34.7578 82.6908 34.8802 82.617C35.0026 82.5433 35.1021 82.4371 35.1678 82.3102C35.387 81.8928 35.5655 81.4553 35.701 81.0038C35.8596 80.515 36.0496 80.0371 36.2698 79.5729C36.4594 79.1959 36.7331 78.8675 37.0697 78.613C37.4566 78.3338 37.9262 78.1929 38.4029 78.2131C38.9042 78.2071 39.397 78.3427 39.8248 78.6041C40.2656 78.885 40.6171 79.2858 40.838 79.7595C41.098 80.3152 41.2258 80.9236 41.2113 81.537C41.219 82.1416 41.1103 82.742 40.8913 83.3056V83.3056Z" stroke="white" stroke-width="0.147739" stroke-miterlimit="10"/>
<path d="M31.995 74.5959H41.1224V76.8178H31.995V74.5959Z" stroke="white" stroke-width="0.147739" stroke-miterlimit="10"/>
<path d="M34.1369 72.7739C33.4404 72.3987 32.8666 71.831 32.4838 71.1386C32.0774 70.4149 31.8719 69.5956 31.8884 68.7657C31.8676 67.7655 32.1803 66.7868 32.7772 65.9839C33.3498 65.2091 34.1775 64.6614 35.1145 64.4375V66.8815C34.7491 67.0469 34.4401 67.3157 34.2257 67.6548C34.0254 68.0002 33.9211 68.393 33.9236 68.7924C33.913 69.1067 33.9721 69.4195 34.0965 69.7084C34.221 69.9972 34.4078 70.255 34.6435 70.4632C35.1802 70.9031 35.8612 71.128 36.5544 71.0942C37.2477 71.1297 37.9292 70.9046 38.4651 70.4632C38.7008 70.255 38.8876 69.9972 39.0121 69.7084C39.1365 69.4195 39.1956 69.1067 39.185 68.7924C39.1875 68.393 39.0832 68.0002 38.8829 67.6548C38.6706 67.314 38.361 67.0446 37.9941 66.8815V64.4375C38.9311 64.6614 39.759 65.2091 40.3315 65.9839C40.9248 66.7886 41.2371 67.7661 41.2203 68.7657C41.2326 69.5951 41.0272 70.4133 40.6248 71.1386C40.2428 71.8286 39.6726 72.3957 38.9806 72.7739C38.242 73.1743 37.4121 73.3764 36.572 73.3605C35.7231 73.3802 34.8837 73.178 34.1369 72.7739V72.7739Z" stroke="white" stroke-width="0.147739" stroke-miterlimit="10"/>
<path d="M37.8968 60.101C37.7857 60.2255 37.6484 60.3236 37.4946 60.3882C37.3408 60.4528 37.1744 60.4822 37.0078 60.4743C36.8414 60.4804 36.6757 60.4501 36.5222 60.3856C36.3687 60.3211 36.231 60.224 36.1188 60.101C35.9995 59.9739 35.9066 59.8243 35.8456 59.661C35.7845 59.4977 35.7566 59.3239 35.7633 59.1497C35.7566 58.9755 35.7845 58.8017 35.8456 58.6384C35.9066 58.4752 35.9995 58.3256 36.1188 58.1985C36.2325 58.078 36.3707 57.9832 36.524 57.9203C36.6773 57.8575 36.8422 57.8281 37.0078 57.8341C37.1736 57.8263 37.3391 57.8549 37.4927 57.9179C37.6462 57.9808 37.7841 58.0766 37.8968 58.1985C38.1453 58.4596 38.2824 58.8071 38.2791 59.1675C38.2733 59.5156 38.1368 59.8488 37.8968 60.101Z" stroke="white" stroke-width="0.147739" stroke-miterlimit="10"/>
<path d="M87.5774 10.9975C87.4588 10.8836 87.367 10.7447 87.3086 10.591C87.2502 10.4372 87.2266 10.2725 87.2396 10.1085C87.2426 9.93925 87.2814 9.77253 87.3534 9.61932C87.4255 9.4661 87.5291 9.32986 87.6575 9.21954C87.9326 8.98988 88.2872 8.87806 88.6443 8.90839C88.9805 8.92476 89.298 9.06766 89.5333 9.30843C89.6485 9.42482 89.738 9.56407 89.7962 9.71717C89.8544 9.87028 89.8799 10.0339 89.8711 10.1974C89.8651 10.3584 89.8246 10.5163 89.7526 10.6605C89.6805 10.8046 89.5784 10.9317 89.4532 11.0331C89.1835 11.2599 88.8355 11.3717 88.4842 11.3442C88.1493 11.3458 87.8258 11.2221 87.5774 10.9975Z" fill="#060606"/>
<path d="M106.268 15.9029L102.944 14.9519L101.966 16.365L99.7 15.7162L105.468 7.71747L107.974 8.43735L108.632 18.2136L106.348 17.5559L106.268 15.9029ZM106.188 14.072L106.019 10.517L104.001 13.4588L106.188 14.072Z" fill="#060606"/>
<path d="M127.856 21.973C127.387 22.2242 126.856 22.3324 126.327 22.2841C125.689 22.2132 125.079 21.9874 124.549 21.6264L123.358 20.8887L121.581 23.7061L119.67 22.524L124.549 14.6675L127.651 16.5961C128.208 16.9228 128.682 17.3728 129.038 17.9114C129.323 18.3593 129.469 18.8823 129.455 19.4134C129.418 19.9629 129.237 20.493 128.931 20.9509C128.665 21.3772 128.295 21.7288 127.856 21.973ZM126.282 20.2666C126.434 20.2275 126.577 20.1576 126.7 20.0613C126.824 19.965 126.927 19.8443 127.002 19.7067C127.092 19.5791 127.154 19.4342 127.185 19.2811C127.216 19.1281 127.214 18.9703 127.18 18.818C127.127 18.6529 127.042 18.5001 126.929 18.3688C126.816 18.2375 126.678 18.1303 126.522 18.0536L125.483 17.4048L124.265 19.369L125.305 20.0178C125.58 20.2236 125.924 20.313 126.265 20.2666H126.282Z" fill="#060606"/>
<path d="M142.529 34.9754C142.013 35.0955 141.473 35.0647 140.974 34.8865C140.36 34.6531 139.811 34.275 139.374 33.7845L138.423 32.7624L136.005 35.0376L134.459 33.4023L141.196 27.0655L143.693 29.7318C144.149 30.1888 144.493 30.7456 144.697 31.3582C144.852 31.8651 144.852 32.4066 144.697 32.9135C144.529 33.4312 144.222 33.8924 143.809 34.2466C143.451 34.5951 143.011 34.846 142.529 34.9754ZM141.445 32.9224C141.601 32.9248 141.756 32.8943 141.9 32.8331C142.044 32.7719 142.173 32.6812 142.28 32.5669C142.403 32.4678 142.503 32.3435 142.573 32.2025C142.644 32.0614 142.683 31.9069 142.689 31.7492C142.661 31.4086 142.506 31.091 142.253 30.8605L141.365 29.9717L139.676 31.5626L140.52 32.4514C140.635 32.5877 140.776 32.6996 140.935 32.7805C141.094 32.8614 141.267 32.9096 141.445 32.9224Z" fill="#060606"/>
<path d="M153.683 46.8225L152.047 47.7112L153.505 50.3774L151.985 51.2662L150.519 48.5999L148.741 49.5865L150.394 52.5638L148.812 53.4525L146.066 48.4933L154.154 44.0496L156.9 48.9999L155.327 49.8886L153.683 46.8225Z" fill="#060606"/>
<path d="M162.934 68.0547C162.75 68.8331 162.343 69.5405 161.761 70.0899C161.143 70.6649 160.382 71.0639 159.557 71.2453C158.745 71.4633 157.89 71.4633 157.078 71.2453C156.305 71.0341 155.612 70.5979 155.087 69.9921C154.511 69.3202 154.108 68.5178 153.914 67.6547L153.087 64.2864L162.064 62.0823L162.89 65.4418C163.121 66.2956 163.137 67.1935 162.934 68.0547ZM156.927 68.8012C157.241 68.9777 157.589 69.0884 157.948 69.1266C158.307 69.1648 158.67 69.1297 159.015 69.0234C159.375 68.9616 159.719 68.8263 160.025 68.626C160.331 68.4257 160.592 68.1647 160.793 67.8592C160.97 67.5412 161.081 67.1903 161.117 66.8281C161.154 66.4658 161.116 66.0999 161.006 65.7528L160.748 64.713L155.531 66.0017L155.789 67.0415C155.852 67.3933 155.985 67.7288 156.181 68.028C156.376 68.3273 156.63 68.5842 156.927 68.7835V68.8012Z" fill="#060606"/>
<path d="M165.538 87.1628L160.01 86.9317C159.551 86.878 159.089 87.0055 158.722 87.2872C158.561 87.4423 158.436 87.631 158.356 87.8399C158.276 88.0489 158.243 88.2728 158.26 88.4959C158.233 88.7171 158.256 88.9414 158.325 89.1531C158.394 89.3649 158.508 89.5591 158.66 89.7224C159 90.0367 159.45 90.2057 159.913 90.1934L165.441 90.4245L165.352 92.673L159.833 92.4508C159.099 92.4425 158.382 92.2302 157.762 91.8376C157.222 91.471 156.797 90.9597 156.535 90.3623C156.264 89.7321 156.143 89.0477 156.18 88.3626C156.202 87.6899 156.375 87.0308 156.687 86.434C156.995 85.8705 157.466 85.4124 158.037 85.1187C158.695 84.7998 159.424 84.6588 160.153 84.7098L165.672 84.9409L165.538 87.1628Z" fill="#060606"/>
<path d="M156.9 104.369C157.032 104.289 157.178 104.235 157.331 104.212C157.484 104.189 157.639 104.197 157.789 104.236C157.95 104.278 158.1 104.354 158.23 104.458C158.361 104.562 158.468 104.693 158.545 104.84C158.625 104.997 158.673 105.168 158.687 105.343C158.701 105.519 158.68 105.695 158.625 105.863C158.542 106.205 158.328 106.502 158.029 106.689C157.889 106.777 157.731 106.833 157.567 106.855C157.403 106.876 157.236 106.862 157.078 106.814C156.92 106.774 156.773 106.702 156.645 106.6C156.518 106.499 156.414 106.372 156.34 106.227C156.188 105.908 156.159 105.544 156.26 105.205C156.357 104.854 156.586 104.554 156.9 104.369Z" fill="#060606"/>
<path d="M151.95 130.427L143.951 125.77L145.088 123.824L149.879 126.614L146.128 122.037L147.017 120.464L152.927 121.469L148.101 118.713L149.239 116.767L157.238 121.424L155.896 123.726L149.061 122.739L153.292 128.187L151.95 130.427Z" fill="#060606"/>
<path d="M140.485 144.345L136.779 140.248C136.496 139.881 136.082 139.638 135.623 139.572C135.402 139.559 135.181 139.594 134.975 139.675C134.77 139.757 134.584 139.882 134.432 140.043C134.257 140.18 134.113 140.351 134.008 140.547C133.904 140.744 133.843 140.959 133.828 141.181C133.842 141.649 134.04 142.093 134.379 142.416L138.085 146.522L136.414 148.033L132.717 143.936C132.203 143.409 131.851 142.746 131.704 142.025C131.579 141.387 131.641 140.727 131.882 140.123C132.143 139.488 132.547 138.923 133.064 138.47C133.57 138.003 134.179 137.662 134.841 137.475C135.452 137.289 136.105 137.289 136.716 137.475C137.407 137.719 138.021 138.142 138.494 138.701L142.191 142.799L140.485 144.345Z" fill="#060606"/>
<path d="M118.577 148.558C119.121 148.507 119.669 148.609 120.159 148.851C120.657 149.108 121.061 149.515 121.314 150.015L119.155 151.091C119.008 150.829 118.766 150.635 118.479 150.548C118.199 150.483 117.905 150.525 117.653 150.664C117.395 150.779 117.183 150.976 117.048 151.224C116.994 151.333 116.965 151.453 116.965 151.575C116.965 151.697 116.994 151.817 117.048 151.926C117.09 152.021 117.153 152.107 117.231 152.176C117.309 152.245 117.402 152.296 117.502 152.326C117.72 152.395 117.949 152.422 118.177 152.406C118.417 152.406 118.755 152.344 119.181 152.273C119.692 152.178 120.209 152.122 120.728 152.104C121.159 152.105 121.585 152.206 121.972 152.397C122.411 152.638 122.761 153.016 122.967 153.472C123.156 153.812 123.26 154.191 123.273 154.579C123.285 154.967 123.205 155.352 123.039 155.703C122.643 156.489 121.99 157.116 121.19 157.481C120.421 157.912 119.527 158.069 118.657 157.925C118.277 157.844 117.921 157.679 117.613 157.442C117.306 157.205 117.055 156.903 116.879 156.556L119.057 155.463C119.12 155.582 119.207 155.685 119.313 155.768C119.418 155.851 119.54 155.91 119.67 155.943C119.945 156.004 120.232 155.963 120.479 155.828C120.695 155.728 120.868 155.554 120.968 155.339C121.007 155.229 121.022 155.112 121.013 154.995C121.003 154.879 120.97 154.766 120.914 154.663C120.85 154.534 120.751 154.426 120.629 154.349C120.506 154.272 120.365 154.23 120.221 154.228C119.745 154.22 119.268 154.258 118.799 154.343C118.284 154.423 117.765 154.468 117.244 154.477C116.819 154.478 116.399 154.38 116.017 154.192C115.585 153.968 115.241 153.605 115.04 153.161C114.809 152.712 114.71 152.207 114.755 151.704C114.81 151.177 115.01 150.675 115.333 150.255C115.72 149.769 116.212 149.377 116.773 149.109C117.332 148.809 117.945 148.622 118.577 148.558Z" fill="#060606"/>
<path d="M103.646 163.729L101.38 154.77L103.566 154.219L105.823 163.151L103.646 163.729Z" fill="#060606"/>
<path d="M90.0036 163.675C89.6336 164.384 89.0695 164.973 88.3773 165.373C87.6487 165.788 86.8253 166.009 85.9866 166.013C84.9763 166.057 83.9795 165.767 83.1514 165.186C82.3594 164.614 81.7908 163.785 81.5428 162.84H84.0224C84.1881 163.213 84.4682 163.525 84.8223 163.729C85.1717 163.933 85.5731 164.032 85.9777 164.013C86.2941 164.02 86.6082 163.957 86.8972 163.828C87.1862 163.699 87.4429 163.507 87.6485 163.266C88.0945 162.72 88.314 162.023 88.2617 161.32C88.2867 160.615 88.0456 159.927 87.5863 159.391C87.3711 159.159 87.1076 158.976 86.8144 158.857C86.5211 158.737 86.2051 158.683 85.8887 158.698C85.4849 158.701 85.0891 158.811 84.7423 159.018C84.4001 159.229 84.1303 159.539 83.9691 159.907H81.4984C81.7112 158.955 82.2524 158.109 83.027 157.516C83.839 156.924 84.8216 156.612 85.8266 156.627C86.6669 156.605 87.4991 156.797 88.2439 157.187C88.9468 157.567 89.5288 158.137 89.9237 158.832C90.3398 159.572 90.5572 160.408 90.5547 161.258C90.5775 162.097 90.3879 162.929 90.0036 163.675Z" fill="#060606"/>
<path d="M69.3853 158.085C69.4728 158.214 69.5329 158.359 69.562 158.512C69.591 158.665 69.5883 158.822 69.5541 158.974C69.5225 159.137 69.4561 159.291 69.3595 159.426C69.2628 159.561 69.1383 159.674 68.9942 159.756C68.8412 159.845 68.6719 159.903 68.4964 159.926C68.3209 159.949 68.1426 159.937 67.9718 159.89C67.6132 159.828 67.2936 159.626 67.0829 159.33C66.9901 159.193 66.9271 159.039 66.8979 158.877C66.8688 158.714 66.8742 158.548 66.9139 158.387C66.9457 158.227 67.0124 158.075 67.1091 157.943C67.2059 157.811 67.3304 157.702 67.474 157.623C67.7794 157.451 68.1403 157.406 68.4785 157.498C68.6612 157.531 68.8356 157.599 68.9914 157.7C69.1471 157.801 69.2811 157.932 69.3853 158.085Z" fill="#060606"/>
<path d="M49.4412 153.09C49.8787 152.789 50.3944 152.622 50.9253 152.61C51.5835 152.599 52.2342 152.751 52.8184 153.055L54.0804 153.65L55.5024 150.655L57.5377 151.615L53.5738 159.969L50.2765 158.405C49.6836 158.149 49.1598 157.756 48.7479 157.258C48.4136 156.848 48.212 156.346 48.1702 155.819C48.1318 155.282 48.2393 154.744 48.4812 154.263C48.6946 153.796 49.0254 153.392 49.4412 153.09ZM51.2187 154.61C51.0726 154.664 50.9394 154.748 50.8277 154.857C50.716 154.966 50.6281 155.096 50.5698 155.241C50.4968 155.376 50.4521 155.524 50.4383 155.677C50.4245 155.83 50.4421 155.984 50.4898 156.13C50.6399 156.443 50.9036 156.688 51.2275 156.814L52.3384 157.338L53.325 155.241L52.2229 154.717C52.0684 154.631 51.8983 154.578 51.7227 154.559C51.5471 154.541 51.3697 154.558 51.2009 154.61H51.2187Z" fill="#060606"/>
<path d="M37.9675 138.746L37.1587 142.656L37.5675 143.003L39.8338 140.337L41.5491 141.803L35.5412 148.833L32.6704 146.38C32.1716 145.974 31.7706 145.461 31.4973 144.878C31.2796 144.394 31.2115 143.855 31.3018 143.332C31.4018 142.824 31.6349 142.351 31.9773 141.963C32.3583 141.517 32.8724 141.206 33.4438 141.074C34.0606 140.937 34.7058 141.012 35.2745 141.288L36.0299 137.119L37.9675 138.746ZM36.501 144.212L35.4345 143.323C35.1983 143.087 34.8794 142.953 34.5458 142.95C34.3905 142.969 34.2406 143.019 34.1048 143.097C33.969 143.175 33.8501 143.279 33.7548 143.403C33.6488 143.513 33.5671 143.645 33.515 143.788C33.463 143.932 33.4416 144.086 33.4525 144.238C33.4774 144.403 33.5351 144.561 33.6221 144.703C33.7091 144.845 33.8237 144.968 33.9592 145.065L35.0167 145.954L36.501 144.212Z" fill="#060606"/>
<path d="M26.1559 126.659C26.219 127.478 26.0561 128.299 25.6848 129.032C25.3019 129.798 24.7184 130.446 23.9963 130.907C23.2875 131.387 22.4605 131.664 21.6055 131.707C20.7881 131.753 19.9736 131.575 19.2503 131.191C18.5242 130.796 17.9121 130.221 17.4728 129.521C17.0126 128.825 16.7372 128.024 16.6729 127.192C16.6107 126.379 16.7737 125.564 17.144 124.837C17.5282 124.073 18.1156 123.431 18.8415 122.979C19.5469 122.497 20.3701 122.214 21.2234 122.162C22.0401 122.111 22.855 122.286 23.5785 122.668C24.3063 123.057 24.9193 123.63 25.356 124.33C25.8195 125.024 26.0951 125.827 26.1559 126.659ZM22.041 124.384C21.3369 124.29 20.6237 124.471 20.0502 124.89C19.4325 125.252 18.9775 125.838 18.7793 126.526C18.6986 126.845 18.6886 127.179 18.75 127.502C18.8114 127.826 18.9427 128.133 19.1347 128.401C19.304 128.689 19.5341 128.937 19.8088 129.127C20.0835 129.317 20.3964 129.446 20.7256 129.503C21.4349 129.592 22.1513 129.404 22.7253 128.978C23.3437 128.621 23.7994 128.038 23.9963 127.352C24.0778 127.029 24.0875 126.692 24.0245 126.365C23.9615 126.038 23.8275 125.729 23.6319 125.459C23.4635 125.173 23.2333 124.927 22.958 124.741C22.6828 124.555 22.3695 124.433 22.041 124.384Z" fill="#060606"/>
<path d="M7.83882 106.013C7.99516 105.231 8.37126 104.51 8.92307 103.933C9.52464 103.346 10.2691 102.927 11.0828 102.716C11.8851 102.461 12.741 102.424 13.5623 102.609C14.3429 102.794 15.0531 103.202 15.6065 103.782C16.2095 104.429 16.6458 105.213 16.8774 106.066L17.8461 109.39L8.95865 111.986L7.98105 108.662C7.7151 107.804 7.66621 106.894 7.83882 106.013ZM13.8201 105.009C13.4977 104.846 13.1457 104.75 12.7851 104.727C12.4245 104.704 12.0631 104.755 11.7227 104.876C11.3685 104.956 11.0345 105.108 10.741 105.322C10.4476 105.535 10.2009 105.807 10.0162 106.12C9.85325 106.444 9.75825 106.798 9.73685 107.16C9.71546 107.522 9.76822 107.885 9.89188 108.226L10.1851 109.248L15.3487 107.746L15.0466 106.724C14.9666 106.371 14.8169 106.037 14.6063 105.743C14.3957 105.448 14.1284 105.199 13.8201 105.009Z" fill="#060606"/>
<path d="M4.4525 87.2339L9.9806 87.145C10.4449 87.1717 10.9011 87.0154 11.2515 86.7095C11.4046 86.5519 11.5221 86.3632 11.5957 86.1562C11.6693 85.9491 11.6973 85.7286 11.678 85.5097C11.6894 85.2872 11.6542 85.0647 11.5746 84.8565C11.4951 84.6484 11.3729 84.4592 11.216 84.301C10.8534 84.0077 10.3921 83.8645 9.92723 83.9011L4.39923 83.9899V81.7414L9.90943 81.6525C10.6434 81.6157 11.373 81.785 12.0158 82.1413C12.5782 82.4716 13.0347 82.9557 13.3312 83.5367C13.6352 84.15 13.7932 84.8252 13.7933 85.5097C13.8213 86.1862 13.6873 86.8597 13.4023 87.4738C13.1276 88.0532 12.6846 88.5363 12.1313 88.8603C11.4962 89.2237 10.7744 89.408 10.0428 89.3935L4.52367 89.4824L4.4525 87.2339Z" fill="#060606"/>
<path d="M8.66543 66.8549C8.10157 66.2883 7.71014 65.5733 7.5367 64.793C7.35113 63.9746 7.38795 63.1215 7.64335 62.3222C7.89925 61.3449 8.47491 60.4814 9.27862 59.8693C10.0598 59.2818 11.022 58.9863 11.9982 59.0339L11.2872 61.4068C10.8899 61.4681 10.5193 61.6442 10.2207 61.9134C9.92701 62.1883 9.71476 62.5389 9.60745 62.9266C9.50523 63.227 9.47139 63.5465 9.50829 63.8617C9.54519 64.1769 9.6519 64.4798 9.82074 64.7485C10.2102 65.336 10.8068 65.7549 11.4916 65.9217C12.1577 66.1558 12.8875 66.1304 13.5358 65.8506C13.8239 65.7168 14.0785 65.5205 14.2814 65.2761C14.4843 65.0317 14.6303 64.7453 14.7089 64.4375C14.815 64.0476 14.815 63.6364 14.7089 63.2465C14.6062 62.8598 14.3895 62.5129 14.0868 62.2511L14.7888 59.8782C15.6311 60.3656 16.2759 61.133 16.6108 62.0467C16.9319 63.0041 16.9319 64.04 16.6108 64.9974C16.3857 65.8073 15.9502 66.5432 15.3487 67.1304C14.7811 67.6893 14.0659 68.0747 13.2869 68.2413C12.4547 68.4162 11.5915 68.3733 10.7807 68.1169C9.98005 67.8822 9.2522 67.4479 8.66543 66.8549Z" fill="#060606"/>
<path d="M18.4503 38.9037L19.9702 39.8724L18.6637 41.9432L24.956 45.9159L23.7563 47.8178L17.4638 43.8451L16.1574 45.9159L14.6288 44.9561L18.4503 38.9037Z" fill="#060606"/>
<path d="M28.2711 28.1143L34.8656 34.5933L33.2925 36.193L26.6891 29.7229L28.2711 28.1143Z" fill="#060606"/>
<path d="M45.0329 25.5724C44.2145 25.6182 43.3994 25.4367 42.6777 25.0481C41.9147 24.6365 41.281 24.0211 40.847 23.2706C40.3818 22.5515 40.1235 21.7182 40.1004 20.8621C40.0771 20.0432 40.2734 19.233 40.6691 18.5158C41.077 17.7845 41.6682 17.1719 42.3845 16.7383C43.0909 16.2951 43.8982 16.0382 44.7308 15.9917C45.5459 15.9508 46.3569 16.132 47.0771 16.5161C47.8194 16.937 48.4337 17.5513 48.8546 18.2936C49.3221 19.0122 49.5834 19.8453 49.61 20.7021C49.6416 21.5179 49.4479 22.3266 49.0501 23.0395C48.6515 23.7718 48.0657 24.3852 47.3526 24.817C46.6584 25.2666 45.8588 25.5271 45.0329 25.5724ZM47.4148 21.5197C47.522 20.8146 47.3533 20.0952 46.9438 19.5112C46.6015 18.8871 46.0316 18.4191 45.3529 18.2047C45.0335 18.118 44.6992 18.1008 44.3726 18.1545C44.046 18.2082 43.7347 18.3314 43.4598 18.5158C43.1697 18.6793 42.9186 18.9039 42.7237 19.1739C42.5289 19.444 42.395 19.7531 42.3312 20.08C42.2226 20.788 42.3913 21.5107 42.8022 22.0974C43.1458 22.7239 43.7195 23.1923 44.402 23.4039C44.7234 23.4901 45.0595 23.5062 45.3877 23.451C45.7159 23.3958 46.0284 23.2706 46.3039 23.0839C46.5914 22.9194 46.8397 22.6943 47.0315 22.4241C47.2234 22.154 47.3542 21.8454 47.4148 21.5197Z" fill="#060606"/>
<path d="M70.7799 15.3252L68.6025 15.894L63.51 11.3347L64.9587 16.8538L62.7812 17.4226L60.4261 8.50845L62.6035 7.93966L67.7049 12.5167L66.2473 6.9798L68.4248 6.40212L70.7799 15.3252Z" fill="#060606"/>
</g>
<defs>
<linearGradient id="paint0_linear_145_5448" x1="85" y1="168.972" x2="85" y2="1.63842" gradientUnits="userSpaceOnUse">
<stop stop-color="#00FF36"/>
<stop offset="0.05" stop-color="#0CFC33"/>
<stop offset="0.13" stop-color="#2CF52D"/>
<stop offset="0.23" stop-color="#60E922"/>
<stop offset="0.37" stop-color="#A8D812"/>
<stop offset="0.51" stop-color="#FFC400"/>
<stop offset="0.79" stop-color="#FFE91B"/>
<stop offset="1" stop-color="#FFFF2B"/>
</linearGradient>
<linearGradient id="paint1_linear_145_5448" x1="65.2963" y1="116.074" x2="65.2963" y2="55.0078" gradientUnits="userSpaceOnUse">
<stop stop-color="#00FF36"/>
<stop offset="0.05" stop-color="#0CFC33"/>
<stop offset="0.13" stop-color="#2CF52D"/>
<stop offset="0.23" stop-color="#60E922"/>
<stop offset="0.37" stop-color="#A8D812"/>
<stop offset="0.51" stop-color="#FFC400"/>
<stop offset="0.79" stop-color="#FFE91B"/>
<stop offset="1" stop-color="#FFFF2B"/>
</linearGradient>
<linearGradient id="paint2_linear_145_5448" x1="106.668" y1="92.4331" x2="106.668" y2="72.6228" gradientUnits="userSpaceOnUse">
<stop stop-color="#00FF36"/>
<stop offset="0.05" stop-color="#0CFC33"/>
<stop offset="0.13" stop-color="#2CF52D"/>
<stop offset="0.23" stop-color="#60E922"/>
<stop offset="0.37" stop-color="#A8D812"/>
<stop offset="0.51" stop-color="#FFC400"/>
<stop offset="0.79" stop-color="#FFE91B"/>
<stop offset="1" stop-color="#FFFF2B"/>
</linearGradient>
<linearGradient id="paint3_linear_145_5448" x1="84.9823" y1="110.173" x2="84.9823" y2="90.2468" gradientUnits="userSpaceOnUse">
<stop stop-color="#00FF36"/>
<stop offset="0.05" stop-color="#0CFC33"/>
<stop offset="0.13" stop-color="#2CF52D"/>
<stop offset="0.23" stop-color="#60E922"/>
<stop offset="0.37" stop-color="#A8D812"/>
<stop offset="0.51" stop-color="#FFC400"/>
<stop offset="0.79" stop-color="#FFE91B"/>
<stop offset="1" stop-color="#FFFF2B"/>
</linearGradient>
<linearGradient id="paint4_linear_145_5448" x1="95.825" y1="74.6758" x2="95.825" y2="55.0078" gradientUnits="userSpaceOnUse">
<stop stop-color="#00FF36"/>
<stop offset="0.05" stop-color="#0CFC33"/>
<stop offset="0.13" stop-color="#2CF52D"/>
<stop offset="0.23" stop-color="#60E922"/>
<stop offset="0.37" stop-color="#A8D812"/>
<stop offset="0.51" stop-color="#FFC400"/>
<stop offset="0.79" stop-color="#FFE91B"/>
<stop offset="1" stop-color="#FFFF2B"/>
</linearGradient>
<linearGradient id="paint5_linear_145_5448" x1="82.0404" y1="76.6933" x2="82.0404" y2="57.0253" gradientUnits="userSpaceOnUse">
<stop stop-color="#00FF36"/>
<stop offset="0.05" stop-color="#0CFC33"/>
<stop offset="0.13" stop-color="#2CF52D"/>
<stop offset="0.23" stop-color="#60E922"/>
<stop offset="0.37" stop-color="#A8D812"/>
<stop offset="0.51" stop-color="#FFC400"/>
<stop offset="0.79" stop-color="#FFE91B"/>
<stop offset="1" stop-color="#FFFF2B"/>
</linearGradient>
<linearGradient id="paint6_linear_145_5448" x1="94.954" y1="113.052" x2="94.954" y2="92.1753" gradientUnits="userSpaceOnUse">
<stop stop-color="#00FF36"/>
<stop offset="0.05" stop-color="#0CFC33"/>
<stop offset="0.13" stop-color="#2CF52D"/>
<stop offset="0.23" stop-color="#60E922"/>
<stop offset="0.37" stop-color="#A8D812"/>
<stop offset="0.51" stop-color="#FFC400"/>
<stop offset="0.79" stop-color="#FFE91B"/>
<stop offset="1" stop-color="#FFFF2B"/>
</linearGradient>
<linearGradient id="paint7_linear_145_5448" x1="99.5577" y1="115.976" x2="99.5577" y2="95.0638" gradientUnits="userSpaceOnUse">
<stop stop-color="#00FF36"/>
<stop offset="0.05" stop-color="#0CFC33"/>
<stop offset="0.13" stop-color="#2CF52D"/>
<stop offset="0.23" stop-color="#60E922"/>
<stop offset="0.37" stop-color="#A8D812"/>
<stop offset="0.51" stop-color="#FFC400"/>
<stop offset="0.79" stop-color="#FFE91B"/>
<stop offset="1" stop-color="#FFFF2B"/>
</linearGradient>
<linearGradient id="paint8_linear_145_5448" x1="91.4434" y1="90.8067" x2="91.4434" y2="68.0636" gradientUnits="userSpaceOnUse">
<stop stop-color="#00FF36"/>
<stop offset="0.05" stop-color="#0CFC33"/>
<stop offset="0.13" stop-color="#2CF52D"/>
<stop offset="0.23" stop-color="#60E922"/>
<stop offset="0.37" stop-color="#A8D812"/>
<stop offset="0.51" stop-color="#FFC400"/>
<stop offset="0.79" stop-color="#FFE91B"/>
<stop offset="1" stop-color="#FFFF2B"/>
</linearGradient>
<linearGradient id="paint9_linear_145_5448" x1="88.0039" y1="88.8692" x2="88.0039" y2="76.1423" gradientUnits="userSpaceOnUse">
<stop stop-color="#00FF36"/>
<stop offset="0.05" stop-color="#0CFC33"/>
<stop offset="0.13" stop-color="#2CF52D"/>
<stop offset="0.23" stop-color="#60E922"/>
<stop offset="0.37" stop-color="#A8D812"/>
<stop offset="0.51" stop-color="#FFC400"/>
<stop offset="0.79" stop-color="#FFE91B"/>
<stop offset="1" stop-color="#FFFF2B"/>
</linearGradient>
<linearGradient id="paint10_linear_145_5448" x1="105.219" y1="71.1297" x2="105.219" y2="60.2692" gradientUnits="userSpaceOnUse">
<stop stop-color="#00FF36"/>
<stop offset="0.05" stop-color="#0CFC33"/>
<stop offset="0.13" stop-color="#2CF52D"/>
<stop offset="0.23" stop-color="#60E922"/>
<stop offset="0.37" stop-color="#A8D812"/>
<stop offset="0.51" stop-color="#FFC400"/>
<stop offset="0.79" stop-color="#FFE91B"/>
<stop offset="1" stop-color="#FFFF2B"/>
</linearGradient>
<linearGradient id="paint11_linear_145_5448" x1="102.562" y1="71.1742" x2="102.562" y2="66.2239" gradientUnits="userSpaceOnUse">
<stop stop-color="#00FF36"/>
<stop offset="0.05" stop-color="#0CFC33"/>
<stop offset="0.13" stop-color="#2CF52D"/>
<stop offset="0.23" stop-color="#60E922"/>
<stop offset="0.37" stop-color="#A8D812"/>
<stop offset="0.51" stop-color="#FFC400"/>
<stop offset="0.79" stop-color="#FFE91B"/>
<stop offset="1" stop-color="#FFFF2B"/>
</linearGradient>
<clipPath id="clip0_145_5448">
<rect width="170" height="170" fill="white" transform="translate(0 0.305298)"/>
</clipPath>
</defs>
</svg>
