<svg width="180" height="15" viewBox="0 0 180 15" fill="none" xmlns="http://www.w3.org/2000/svg">
<g clip-path="url(#clip0_155_7445)">
<path d="M6.06636 3.67294L1.87207 3.67294L1.87207 0.284332L14.1469 0.284332V3.67294L9.95265 3.67294L9.95265 14.2654L6.06636 14.2654L6.06636 3.67294Z" fill="#00FF63"/>
<path d="M27.2511 0.189606L30.9715 0.189606L36.9193 14.2654H32.7724L31.7535 11.7536L26.3744 11.7536L25.3791 14.2654H21.2559L27.2511 0.189606ZM30.6397 8.74407L29.0757 4.78677L27.5118 8.74407H30.6397Z" fill="#00FF63"/>
<path d="M46.6587 0.284332L50.5449 0.284332V10.8768L57.2986 10.8768V14.2654L46.6587 14.2654V0.284332Z" fill="#00FF63"/>
<path d="M67.3461 0.284332L71.2087 0.284332V5.94787L75.948 0.284332L80.5215 0.284332L75.2371 6.30338L80.7111 14.2654H75.9717L72.4408 9.07585L71.0191 10.6398V14.2654H67.1565L67.3461 0.284332Z" fill="#00FF63"/>
<path d="M89.052 12.1801L91.2085 9.59707C92.4747 10.6688 94.0757 11.264 95.7345 11.2796C96.7771 11.2796 97.3221 10.9241 97.3221 10.3317C97.3221 9.76294 96.8719 9.43119 94.9525 9.00465C91.9667 8.31745 89.6681 7.4881 89.6681 4.5971C89.6681 1.99047 91.7297 0.118394 95.0946 0.118394C97.1639 0.0418482 99.1942 0.696278 100.829 1.9668L98.9099 4.71556C97.7654 3.8748 96.3952 3.3962 94.9762 3.34125C94.052 3.34125 93.6019 3.72027 93.6019 4.24159C93.6019 4.8814 94.0758 5.16578 95.9715 5.59232C99.1943 6.30322 101.185 7.34594 101.185 9.95257C101.185 12.7962 98.815 14.5023 95.5449 14.5023C93.1691 14.5504 90.8584 13.724 89.052 12.1801Z" fill="#00FF63"/>
<path d="M111.493 0.284332L115.379 0.284332V5.63981L120.332 5.63981V0.402787L124.218 0.402787V14.3839H120.332V8.9574L115.379 8.9574V14.2654H111.493V0.284332Z" fill="#00FF63"/>
<path d="M134.597 7.32234C134.705 5.39994 135.545 3.59177 136.944 2.269C138.343 0.946228 140.196 0.209137 142.121 0.209137C144.046 0.209137 145.899 0.946228 147.298 2.269C148.697 3.59177 149.537 5.39994 149.645 7.32234C149.636 8.29818 149.432 9.2624 149.045 10.1583C148.658 11.0542 148.096 11.8637 147.392 12.5393C146.687 13.2148 145.855 13.7427 144.944 14.092C144.033 14.4414 143.061 14.6051 142.085 14.5735C141.108 14.6259 140.131 14.476 139.215 14.1333C138.298 13.7905 137.462 13.2623 136.759 12.5816C136.056 11.901 135.502 11.0825 135.13 10.1775C134.758 9.27255 134.576 8.30058 134.597 7.32234ZM145.687 7.32234C145.713 6.83447 145.64 6.34641 145.472 5.88758C145.304 5.42874 145.045 5.0086 144.711 4.65227C144.377 4.29593 143.974 4.01075 143.527 3.81397C143.08 3.61719 142.598 3.51278 142.109 3.50706C141.63 3.50973 141.156 3.60932 140.717 3.79965C140.277 3.98999 139.881 4.26716 139.551 4.61466C139.221 4.96216 138.965 5.37277 138.798 5.82177C138.631 6.27077 138.556 6.74889 138.578 7.22746C138.559 7.71144 138.637 8.19432 138.808 8.64761C138.979 9.10089 139.239 9.51536 139.572 9.86658C139.906 10.2178 140.306 10.4987 140.75 10.6926C141.194 10.8864 141.672 10.9893 142.157 10.9953C142.632 10.9924 143.101 10.8943 143.537 10.7069C143.974 10.5195 144.368 10.2466 144.697 9.90418C145.026 9.56179 145.284 9.15687 145.454 8.71342C145.624 8.26997 145.703 7.79701 145.687 7.32234Z" fill="#00FF63"/>
<path d="M158.294 0.284348L162.393 0.284348L164.763 8.365L167.441 0.236908L170.782 0.236908L173.483 8.365L175.853 0.284348L180.024 0.284348L175.284 14.3602L171.896 14.3602L169.1 6.3034L166.303 14.3602L162.962 14.3602L158.294 0.284348Z" fill="#00FF63"/>
<path d="M67.82 5L63.2939 5V5.80569L67.82 5.80569V5Z" fill="#00FF63"/>
<path d="M133.649 14.1943L55.7346 14.1943V15L133.649 15V14.1943Z" fill="#00FF63"/>
<path d="M136.848 10.9953H133.649V11.801H136.848V10.9953Z" fill="#00FF63"/>
<path d="M160.071 4.54977L156.872 4.54977V5.35546L160.071 5.35546V4.54977Z" fill="#00FF63"/>
<path d="M54.3129 6.23224L47.9148 6.23224V8.22276L54.3129 8.22276V6.23224Z" fill="#00FF63"/>
<path d="M128.531 6.23224L122.133 6.23224V8.22276L128.531 8.22276V6.23224Z" fill="#00FF63"/>
<path d="M86.0901 6.61139H84.0996V8.60191H86.0901V6.61139Z" fill="#00FF63"/>
<path d="M9.21801 9.83414L0 9.83414L0 11.4218L9.21801 11.4218V9.83414Z" fill="#00FF63"/>
</g>
<defs>
<clipPath id="clip0_155_7445">
<rect width="180" height="15" fill="white"/>
</clipPath>
</defs>
</svg>
