<svg width="297" height="208" viewBox="0 0 297 208" fill="none" xmlns="http://www.w3.org/2000/svg">
<rect x="0.5" y="0.5" width="296" height="207" stroke="#00FF63"/>
<line x1="296" y1="41.5" x2="-4.9766e-08" y2="41.5" stroke="#00FF63"/>
<path d="M18.0133 11.2838H32.9867C34.4942 11.2838 35.7162 12.5058 35.7162 14.0133V28.9867C35.7162 30.4942 34.4942 31.7162 32.9867 31.7162H18.0133C16.5058 31.7162 15.2838 30.4942 15.2838 28.9867V14.0133C15.2838 12.5058 16.5058 11.2838 18.0133 11.2838Z" stroke="#00FF63" stroke-width="0.567568"/>
<path d="M19.155 14.7161H20.1679V17.1064H22.9123V14.7161H23.9225V20.4652H22.9123V18.0411H20.1679V20.4652H19.155V14.7161Z" fill="#00FF63"/>
<path d="M26.1331 17.6063V17.5907C26.1291 17.1945 26.2051 16.8015 26.3565 16.4353C26.508 16.0691 26.7318 15.7373 27.0145 15.4597C27.2973 15.182 27.6331 14.9643 28.002 14.8196C28.3709 14.6748 28.7652 14.606 29.1613 14.6172C29.5544 14.6066 29.9456 14.6756 30.3114 14.82C30.6772 14.9645 31.0101 15.1813 31.29 15.4576C31.5699 15.7338 31.7911 16.0638 31.9403 16.4277C32.0895 16.7916 32.1636 17.1818 32.1582 17.5751V17.5907C32.1622 17.9858 32.0866 18.3777 31.9359 18.743C31.7852 19.1083 31.5626 19.4395 31.2813 19.7169C30.9999 19.9944 30.6656 20.2124 30.2983 20.3579C29.9309 20.5035 29.5381 20.5736 29.143 20.5642C28.7488 20.5765 28.3562 20.5089 27.9889 20.3653C27.6215 20.2217 27.2871 20.0051 27.0058 19.7287C26.7245 19.4522 26.5021 19.1216 26.3521 18.7568C26.2021 18.3921 26.1276 18.0007 26.1331 17.6063ZM31.0802 17.6063V17.5907C31.0904 17.3269 31.0474 17.0637 30.9538 16.8168C30.8603 16.57 30.7181 16.3444 30.5358 16.1535C30.3534 15.9626 30.1345 15.8103 29.8921 15.7056C29.6498 15.601 29.3888 15.546 29.1248 15.5441C27.9844 15.5441 27.1876 16.4555 27.1876 17.5751V17.5907C27.1775 17.8545 27.2205 18.1177 27.314 18.3646C27.4075 18.6114 27.5497 18.837 27.7321 19.0279C27.9145 19.2188 28.1334 19.3711 28.3757 19.4758C28.6181 19.5804 28.879 19.6354 29.143 19.6373C29.4056 19.6372 29.6655 19.5839 29.907 19.4807C30.1484 19.3774 30.3665 19.2264 30.548 19.0366C30.7295 18.8468 30.8707 18.6223 30.963 18.3764C31.0554 18.1306 31.097 17.8687 31.0854 17.6063H31.0802Z" fill="#00FF63"/>
<path d="M19.155 22.7123H20.1679V27.5449H23.1909V28.464H19.155V22.7123Z" fill="#00FF63"/>
<path d="M28.7446 22.668H29.6819L32.2128 28.4614H31.1426L30.5594 27.0736H27.8411L27.25 28.4614H26.2085L28.7446 22.668ZM30.2027 26.1779L29.2106 23.8762L28.2238 26.1779H30.2027Z" fill="#00FF63"/>
<path d="M219.269 26.4579H218.519C218.519 26.8722 218.855 27.2079 219.269 27.2079V26.4579ZM219.881 26.4579V27.2079C220.296 27.2079 220.631 26.8722 220.631 26.4579H219.881ZM219.881 22.725V21.975C219.467 21.975 219.131 22.3108 219.131 22.725H219.881ZM224.545 22.725V23.475C224.959 23.475 225.295 23.1393 225.295 22.725H224.545ZM224.545 22.1598H225.295C225.295 21.7456 224.959 21.4098 224.545 21.4098V22.1598ZM219.881 22.1598H219.131C219.131 22.574 219.467 22.9098 219.881 22.9098V22.1598ZM219.881 18.7802V18.0302C219.467 18.0302 219.131 18.366 219.131 18.7802H219.881ZM225.074 18.7802V19.5302C225.489 19.5302 225.824 19.1944 225.824 18.7802H225.074ZM225.074 18.215H225.824C225.824 17.8007 225.489 17.465 225.074 17.465V18.215ZM219.269 18.215V17.465C218.855 17.465 218.519 17.8007 218.519 18.215H219.269ZM219.269 27.2079H219.881V25.7079H219.269V27.2079ZM220.631 26.4579V22.725H219.131V26.4579H220.631ZM219.881 23.475H224.545V21.975H219.881V23.475ZM225.295 22.725V22.1598H223.795V22.725H225.295ZM224.545 21.4098H219.881V22.9098H224.545V21.4098ZM220.631 22.1598V18.7802H219.131V22.1598H220.631ZM219.881 19.5302H225.074V18.0302H219.881V19.5302ZM225.824 18.7802V18.215H224.324V18.7802H225.824ZM225.074 17.465H219.269V18.965H225.074V17.465ZM218.519 18.215V26.4579H220.019V18.215H218.519ZM229.905 26.4579H229.155C229.155 26.8722 229.491 27.2079 229.905 27.2079V26.4579ZM230.518 26.4579V27.2079C230.932 27.2079 231.268 26.8722 231.268 26.4579H230.518ZM230.518 18.215H231.268C231.268 17.8007 230.932 17.465 230.518 17.465V18.215ZM229.905 18.215V17.465C229.491 17.465 229.155 17.8007 229.155 18.215H229.905ZM229.905 27.2079H230.518V25.7079H229.905V27.2079ZM231.268 26.4579V18.215H229.768V26.4579H231.268ZM230.518 17.465H229.905V18.965H230.518V17.465ZM229.155 18.215V26.4579H230.655V18.215H229.155ZM235.881 26.4579H235.131C235.131 26.8722 235.466 27.2079 235.881 27.2079V26.4579ZM241.333 26.4579V27.2079C241.747 27.2079 242.083 26.8722 242.083 26.4579H241.333ZM241.333 25.8927H242.083C242.083 25.4785 241.747 25.1427 241.333 25.1427V25.8927ZM236.493 25.8927H235.743C235.743 26.3069 236.079 26.6427 236.493 26.6427V25.8927ZM236.493 18.215H237.243C237.243 17.8007 236.907 17.465 236.493 17.465V18.215ZM235.881 18.215V17.465C235.466 17.465 235.131 17.8007 235.131 18.215H235.881ZM235.881 27.2079H241.333V25.7079H235.881V27.2079ZM242.083 26.4579V25.8927H240.583V26.4579H242.083ZM241.333 25.1427H236.493V26.6427H241.333V25.1427ZM237.243 25.8927V18.215H235.743V25.8927H237.243ZM236.493 17.465H235.881V18.965H236.493V17.465ZM235.131 18.215V26.4579H236.631V18.215H235.131ZM245.998 26.4579H245.248C245.248 26.8722 245.583 27.2079 245.998 27.2079V26.4579ZM246.586 26.4579V27.2079C247.001 27.2079 247.336 26.8722 247.336 26.4579H246.586ZM246.586 19.2983L247.204 18.8735C247.018 18.6027 246.678 18.4846 246.364 18.5821C246.05 18.6795 245.836 18.9698 245.836 19.2983H246.586ZM249.848 24.0439L249.23 24.4688C249.37 24.6723 249.601 24.7939 249.848 24.7939V24.0439ZM249.895 24.0439V24.7939C250.142 24.7939 250.374 24.6723 250.513 24.4688L249.895 24.0439ZM253.157 19.2983H253.907C253.907 18.9698 253.693 18.6795 253.38 18.5821C253.066 18.4846 252.725 18.6027 252.539 18.8735L253.157 19.2983ZM253.157 26.4579H252.407C252.407 26.8722 252.743 27.2079 253.157 27.2079V26.4579ZM253.77 26.4579V27.2079C254.184 27.2079 254.52 26.8722 254.52 26.4579H253.77ZM253.77 18.215H254.52C254.52 17.8007 254.184 17.465 253.77 17.465V18.215ZM253.193 18.215V17.465C252.944 17.465 252.712 17.5881 252.572 17.7938L253.193 18.215ZM249.884 23.0901L249.263 23.5113C249.403 23.717 249.635 23.8401 249.884 23.8401C250.132 23.8401 250.365 23.717 250.504 23.5113L249.884 23.0901ZM246.575 18.215L247.195 17.7938C247.056 17.5881 246.823 17.465 246.575 17.465V18.215ZM245.998 18.215V17.465C245.583 17.465 245.248 17.8007 245.248 18.215L245.998 18.215ZM245.998 27.2079H246.586V25.7079H245.998V27.2079ZM247.336 26.4579V19.2983H245.836V26.4579H247.336ZM245.968 19.7232L249.23 24.4688L250.466 23.6191L247.204 18.8735L245.968 19.7232ZM249.848 24.7939H249.895V23.2939H249.848V24.7939ZM250.513 24.4688L253.775 19.7232L252.539 18.8735L249.277 23.6191L250.513 24.4688ZM252.407 19.2983V26.4579H253.907V19.2983H252.407ZM253.157 27.2079H253.77V25.7079H253.157V27.2079ZM254.52 26.4579V18.215H253.02V26.4579H254.52ZM253.77 17.465H253.193V18.965H253.77V17.465ZM252.572 17.7938L249.263 22.6689L250.504 23.5113L253.813 18.6362L252.572 17.7938ZM250.504 22.6689L247.195 17.7938L245.954 18.6362L249.263 23.5113L250.504 22.6689ZM246.575 17.465H245.998V18.965H246.575V17.465ZM245.248 18.215V26.4579H246.748V18.215L245.248 18.215ZM269.172 27.3493C272.135 27.3493 274.079 24.9451 274.079 22.3365H272.579C272.579 24.2261 271.201 25.8493 269.172 25.8493V27.3493ZM274.079 22.3365V22.3129H272.579V22.3365H274.079ZM274.079 22.3129C274.079 19.7046 272.159 17.3236 269.195 17.3236V18.8236C271.225 18.8236 272.579 20.4228 272.579 22.3129H274.079ZM269.195 17.3236C266.232 17.3236 264.289 19.7278 264.289 22.3365H265.789C265.789 20.4468 267.166 18.8236 269.195 18.8236V17.3236ZM264.289 22.3365V22.36H265.789V22.3365H264.289ZM264.289 22.36C264.289 24.9683 266.208 27.3493 269.172 27.3493V25.8493C267.143 25.8493 265.789 24.2501 265.789 22.36H264.289ZM269.195 25.2958C267.623 25.2958 266.424 24.0116 266.424 22.3365H264.924C264.924 24.7357 266.694 26.7958 269.195 26.7958V25.2958ZM266.424 22.3365V22.3129H264.924V22.3365H266.424ZM266.424 22.3129C266.424 20.6372 267.6 19.3771 269.172 19.3771V17.8771C266.67 17.8771 264.924 19.9142 264.924 22.3129H266.424ZM269.172 19.3771C270.744 19.3771 271.943 20.6613 271.943 22.3365H273.443C273.443 19.9372 271.674 17.8771 269.172 17.8771V19.3771ZM271.943 22.3365V22.36H273.443V22.3365H271.943ZM271.943 22.36C271.943 24.0357 270.768 25.2958 269.195 25.2958V26.7958C271.698 26.7958 273.443 24.7587 273.443 22.36H271.943ZM277.575 26.4579H276.825C276.825 26.8722 277.161 27.2079 277.575 27.2079V26.4579ZM283.204 26.4579V27.2079C283.618 27.2079 283.954 26.8722 283.954 26.4579H283.204ZM283.204 25.8692H283.954C283.954 25.4549 283.618 25.1192 283.204 25.1192V25.8692ZM278.541 25.8692L278.037 25.3135C277.807 25.5217 277.729 25.8499 277.841 26.1391C277.953 26.4284 278.231 26.6192 278.541 26.6192V25.8692ZM281.061 23.5847L281.564 24.1403L281.566 24.1392L281.061 23.5847ZM277.74 19.8636L277.113 19.4522C276.887 19.7967 276.981 20.259 277.324 20.4876L277.74 19.8636ZM278.199 20.1697L277.783 20.7938C278.124 21.0209 278.584 20.9328 278.816 20.5959L278.199 20.1697ZM280.649 23.2196L281.152 23.7759L281.154 23.7735L280.649 23.2196ZM277.575 25.9987L277.072 25.4424C276.915 25.5846 276.825 25.7867 276.825 25.9987H277.575ZM277.575 27.2079H283.204V25.7079H277.575V27.2079ZM283.954 26.4579V25.8692H282.454V26.4579H283.954ZM283.204 25.1192L278.541 25.1192V26.6192H283.204V25.1192ZM279.044 26.4248L281.564 24.1403L280.557 23.029L278.037 25.3135L279.044 26.4248ZM281.566 24.1392C282.998 22.8349 283.871 21.8778 283.871 20.3817H282.371C282.371 21.1465 282.02 21.6967 280.556 23.0301L281.566 24.1392ZM283.871 20.3817V20.3581H282.371V20.3817H283.871ZM283.871 20.3581C283.871 18.6071 282.432 17.3472 280.672 17.3472V18.8472C281.715 18.8472 282.371 19.5421 282.371 20.3581H283.871ZM280.672 17.3472C279.822 17.3472 279.12 17.5474 278.519 17.9435C277.934 18.3296 277.496 18.8681 277.113 19.4522L278.367 20.2749C278.702 19.7639 279.006 19.4192 279.345 19.1959C279.669 18.9826 280.074 18.8472 280.672 18.8472V17.3472ZM277.324 20.4876L277.783 20.7938L278.615 19.5457L278.156 19.2395L277.324 20.4876ZM278.816 20.5959C279.132 20.138 279.411 19.8412 279.686 19.6567C279.946 19.4831 280.232 19.3889 280.613 19.3889V17.8889C279.946 17.8889 279.367 18.0655 278.852 18.4101C278.354 18.7437 277.949 19.2123 277.582 19.7436L278.816 20.5959ZM280.613 19.3889C281.264 19.3889 281.724 19.8196 281.724 20.4052H283.224C283.224 18.8477 281.941 17.8889 280.613 17.8889V19.3889ZM281.724 20.4052C281.724 20.9217 281.496 21.4302 280.143 22.6658L281.154 23.7735C282.509 22.5362 283.224 21.6316 283.224 20.4052H281.724ZM280.145 22.6633L277.072 25.4424L278.078 26.555L281.152 23.7759L280.145 22.6633ZM276.825 25.9987V26.4579H278.325V25.9987H276.825Z" fill="#00FF63"/>
</svg>
