<svg width="117" height="15" viewBox="0 0 117 15" fill="none" xmlns="http://www.w3.org/2000/svg">
<path d="M2.74506 0.223267L6.82716 0.223267L10.1931 5.68992L13.5352 0.223267L17.6651 0.223267V14.3077H13.7978V6.23893L10.1931 11.7296L6.63622 6.26283L6.63622 14.3077H2.79277L2.74506 0.223267Z" fill="#00FF63"/>
<path d="M32.0843 8.12492V0.223267L36.0471 0.223267V8.05323C36.0471 10.0824 37.0736 11.0611 38.6491 11.0611C40.2247 11.0611 41.2512 10.1302 41.2512 8.14882V0.223267L45.2139 0.223267V8.02934C45.3194 8.91999 45.2203 9.82306 44.9242 10.6696C44.6281 11.5162 44.1428 12.2841 43.5051 12.9148C42.8675 13.5455 42.0944 14.0224 41.2446 14.3093C40.3949 14.5962 39.4908 14.6854 38.6014 14.5703C37.7254 14.681 36.8357 14.5912 35.9996 14.3076C35.1634 14.0239 34.4027 13.5539 33.7749 12.933C33.1471 12.3121 32.6687 11.5567 32.3758 10.7237C32.083 9.89072 31.9832 9.00208 32.0843 8.12492Z" fill="#00FF63"/>
<path d="M58.5105 12.2071L60.6829 9.62899C61.9645 10.6983 63.5736 11.2963 65.2424 11.3238C66.2928 11.3238 66.8657 10.9419 66.8657 10.3451C66.8657 9.74832 66.3883 9.43797 64.4785 8.9844C61.4945 8.29211 59.1789 7.45664 59.1789 4.56812C59.1789 1.96606 61.2558 0.0562631 64.6217 0.0562631C66.718 -0.0239136 68.7744 0.644557 70.4227 1.94211L68.4652 4.68745C67.3189 3.84495 65.9477 3.3629 64.5263 3.30283C63.5714 3.30283 63.1178 3.70867 63.1178 4.20998C63.1178 4.85453 63.5952 5.11714 65.505 5.57071C68.7277 6.263 70.7569 7.31341 70.7569 9.93934C70.7569 12.8279 68.4891 14.5227 65.0515 14.5227C62.6619 14.5733 60.336 13.7499 58.5105 12.2071Z" fill="#00FF63"/>
<path d="M84.8414 0.223267L88.7565 0.223267V14.3077H84.8414V0.223267Z" fill="#00FF63"/>
<path d="M102.913 7.31328C102.892 6.3383 103.072 5.36951 103.439 4.46623C103.807 3.56295 104.355 2.74417 105.05 2.06022C105.745 1.37628 106.572 0.841491 107.482 0.488665C108.391 0.13584 109.362 -0.0275391 110.337 0.0084261C111.499 -0.0492623 112.657 0.189998 113.701 0.703724C114.745 1.21745 115.641 1.98866 116.305 2.94465L113.369 5.21252C113.025 4.71149 112.565 4.30046 112.029 4.01382C111.494 3.72718 110.897 3.57332 110.289 3.56534C109.821 3.58027 109.36 3.68948 108.935 3.88647C108.51 4.08347 108.129 4.36424 107.814 4.71189C107.5 5.05953 107.259 5.46699 107.106 5.90986C106.953 6.35274 106.891 6.82189 106.923 7.28938C106.884 7.7607 106.941 8.23513 107.091 8.68362C107.241 9.13211 107.481 9.54535 107.796 9.89821C108.111 10.2511 108.494 10.5361 108.923 10.736C109.352 10.9359 109.816 11.0466 110.289 11.0612C110.919 11.0567 111.537 10.8976 112.091 10.5979C112.645 10.2982 113.116 9.8671 113.464 9.34249L116.4 11.4431C115.508 12.7339 114.229 13.7078 112.747 14.2241C111.266 14.7404 109.658 14.7725 108.157 14.3155C106.656 13.8585 105.339 12.9363 104.396 11.6819C103.454 10.4276 102.934 8.90611 102.913 7.33717V7.31328Z" fill="#00FF63"/>
<path d="M20.4107 3.97144L12.0077 3.97144V4.78309L20.4107 4.78309V3.97144Z" fill="#00FF63"/>
<path d="M103.891 14.1884L25.3997 14.1884V15L103.891 15V14.1884Z" fill="#00FF63"/>
<path d="M101.361 10.5361H98.1383V11.3478H101.361V10.5361Z" fill="#00FF63"/>
<path d="M19.2407 12.8994H14.7289V14.3079H19.2407V12.8994Z" fill="#00FF63"/>
<path d="M53.6403 7.69531H51.6351V9.70057H53.6403V7.69531Z" fill="#00FF63"/>
<path d="M8.16425 10.5123L0 10.5123L0 12.1118L8.16425 12.1118V10.5123Z" fill="#00FF63"/>
</svg>
