<svg width="154" height="15" viewBox="0 0 154 15" fill="none" xmlns="http://www.w3.org/2000/svg">
<path d="M24.7333 4.95677L12.1501 4.95677L12.1501 5.76594L24.7333 5.76594V4.95677Z" fill="#00FF63"/>
<path d="M107.017 14.1908L27.9092 14.1908V15L107.017 15V14.1908Z" fill="#00FF63"/>
<path d="M110.265 10.9779H107.017V11.7871H110.265V10.9779Z" fill="#00FF63"/>
<path d="M139.089 2.05328L135.841 2.05328V2.86245L139.089 2.86245V2.05328Z" fill="#00FF63"/>
<path d="M23.41 10.9779H16.9139L16.9139 12.9771H23.41L23.41 10.9779Z" fill="#00FF63"/>
<path d="M153.621 10.6924L146.716 10.6924V12.8581L153.621 12.8581V10.6924Z" fill="#00FF63"/>
<path d="M58.7295 6.57511L56.7085 6.57511V8.57424H58.7295V6.57511Z" fill="#00FF63"/>
<path d="M8.08403 9.35961L0 9.35961L0 10.9541L8.08403 10.9541V9.35961Z" fill="#00FF63"/>
<path d="M4.25858 0.149326L8.42085 0.149326L11.7892 5.59942L15.1816 0.149326L19.3439 0.149326L19.3439 14.1909L15.4222 14.1909V6.12293L11.7892 11.6205L8.18024 6.17057V14.1909L4.33076 14.1909L4.25858 0.149326Z" fill="#00FF63"/>
<path d="M38.9044 0.0541813L42.7058 0.0541813L48.7448 14.1909H44.5344L43.4998 11.811L38.0142 11.811L37.0037 14.1909H32.8654L38.9044 0.0541813ZM42.369 8.66945L40.7811 4.67122L39.169 8.66945H42.369Z" fill="#00FF63"/>
<path d="M60.9911 12.0965L63.1806 9.52617C64.4786 10.5973 66.1098 11.194 67.8001 11.216C68.8346 11.216 69.412 10.8351 69.412 10.2401C69.412 9.66894 68.9549 9.35956 67.0061 8.90737C63.9745 8.2172 61.6407 7.38429 61.6407 4.50459C61.6407 1.91049 63.7339 0.00652533 67.1504 0.00652533C69.2558 -0.0739927 71.321 0.592811 72.9729 1.8866L71 4.62356C69.8447 3.78363 68.4626 3.30305 67.0301 3.24317C66.0918 3.24317 65.6106 3.64777 65.6106 4.14755C65.6106 4.79013 66.1159 5.05193 68.0166 5.50412C71.2887 6.19429 73.3097 7.24149 73.3097 9.8594C73.3097 12.7391 71.024 14.4288 67.5835 14.4288C65.1727 14.4682 62.8298 13.6393 60.9911 12.0965Z" fill="#00FF63"/>
<path d="M90.5123 3.5764L86.2538 3.5764V0.149326L98.7407 0.149326V3.5764L94.4822 3.5764V14.1909L90.5604 14.1909L90.5123 3.5764Z" fill="#00FF63"/>
<path d="M112.575 0.149326L123.979 0.149326V3.45744L116.473 3.45744V5.59942L123.282 5.59942V8.66945H116.473V10.8828H124.075V14.1909L112.575 14.1909V0.149326Z" fill="#00FF63"/>
<path d="M138.247 0.149256L144.959 0.149256C145.793 0.0847776 146.632 0.186433 147.425 0.448052C148.218 0.709671 148.951 1.12598 149.579 1.67243C150.006 2.10408 150.338 2.61901 150.553 3.18443C150.769 3.74985 150.863 4.35339 150.83 4.95672C150.861 5.88877 150.598 6.80727 150.076 7.58387C149.554 8.36046 148.8 8.95636 147.919 9.28818L151.311 14.048L146.86 14.048L143.997 9.81169H142.289V14.048H138.343L138.247 0.149256ZM144.767 6.88445C146.114 6.88445 146.884 6.24187 146.884 5.2423C146.884 4.14754 146.066 3.57633 144.743 3.57633L142.192 3.57633V6.93209L144.767 6.88445Z" fill="#00FF63"/>
</svg>
