<svg width="183" height="10" viewBox="0 0 183 10" fill="none" xmlns="http://www.w3.org/2000/svg">
<path d="M0.0235552 6.10583H-0.792204C-0.792204 6.55636 -0.426976 6.92159 0.0235552 6.92159L0.0235552 6.10583ZM0.772635 6.10583L0.772635 6.92159C1.22317 6.92159 1.58839 6.55636 1.58839 6.10583H0.772635ZM0.772635 5.1411H1.58839C1.58839 4.69057 1.22317 4.32535 0.772635 4.32535L0.772635 5.1411ZM0.0235552 5.1411L0.0235552 4.32535C-0.426976 4.32535 -0.792204 4.69057 -0.792204 5.1411H0.0235552ZM0.0235552 6.92159H0.772635L0.772635 5.29007H0.0235552L0.0235552 6.92159ZM1.58839 6.10583L1.58839 5.1411H-0.0431244L-0.0431244 6.10583H1.58839ZM0.772635 4.32535H0.0235552L0.0235552 5.95686H0.772635L0.772635 4.32535ZM-0.792204 5.1411L-0.792204 6.10583H0.839314V5.1411H-0.792204ZM11.7395 9H10.9238C10.9238 9.45053 11.289 9.81576 11.7395 9.81576L11.7395 9ZM12.307 9L12.307 9.81576C12.7576 9.81576 13.1228 9.45053 13.1228 9H12.307ZM12.307 2.09939L12.9793 1.63731C12.7769 1.34282 12.4064 1.21435 12.0651 1.32032C11.7238 1.4263 11.4913 1.74204 11.4913 2.09939H12.307ZM15.4509 6.67331L14.7786 7.13539C14.9308 7.35679 15.1822 7.48907 15.4509 7.48907V6.67331ZM15.4963 6.67331V7.48907C15.7649 7.48907 16.0164 7.35679 16.1686 7.13539L15.4963 6.67331ZM18.6402 2.09939H19.4559C19.4559 1.74204 19.2233 1.4263 18.8821 1.32032C18.5408 1.21435 18.1703 1.34282 17.9679 1.63731L18.6402 2.09939ZM18.6402 9H17.8244C17.8244 9.45053 18.1896 9.81576 18.6402 9.81576V9ZM19.2303 9V9.81576C19.6809 9.81576 20.0461 9.45053 20.0461 9H19.2303ZM19.2303 1.05521H20.0461C20.0461 0.604683 19.6809 0.239455 19.2303 0.239455V1.05521ZM18.6742 1.05521V0.239455C18.4039 0.239455 18.1511 0.373394 17.9992 0.597085L18.6742 1.05521ZM15.4849 5.75399L14.81 6.21212C14.9618 6.43581 15.2146 6.56975 15.4849 6.56975C15.7553 6.56975 16.0081 6.43581 16.1599 6.21212L15.4849 5.75399ZM12.2957 1.05521L12.9706 0.597085C12.8188 0.373394 12.566 0.239455 12.2957 0.239455V1.05521ZM11.7395 1.05521V0.239455C11.289 0.239455 10.9238 0.604683 10.9238 1.05521H11.7395ZM11.7395 9.81576H12.307L12.307 8.18424H11.7395L11.7395 9.81576ZM13.1228 9V2.09939H11.4913V9H13.1228ZM11.6348 2.56147L14.7786 7.13539L16.1232 6.21123L12.9793 1.63731L11.6348 2.56147ZM15.4509 7.48907H15.4963V5.85755H15.4509V7.48907ZM16.1686 7.13539L19.3124 2.56147L17.9679 1.63731L14.824 6.21123L16.1686 7.13539ZM17.8244 2.09939L17.8244 9H19.4559L19.4559 2.09939H17.8244ZM18.6402 9.81576H19.2303V8.18424H18.6402V9.81576ZM20.0461 9L20.0461 1.05521H18.4146L18.4146 9H20.0461ZM19.2303 0.239455H18.6742V1.87097H19.2303V0.239455ZM17.9992 0.597085L14.81 5.29586L16.1599 6.21212L19.3492 1.51334L17.9992 0.597085ZM16.1599 5.29586L12.9706 0.597085L11.6207 1.51334L14.81 6.21212L16.1599 5.29586ZM12.2957 0.239455H11.7395V1.87097H12.2957V0.239455ZM10.9238 1.05521V9H12.5553V1.05521H10.9238ZM30.7067 1.05521H31.5225C31.5225 0.604683 31.1573 0.239455 30.7067 0.239455V1.05521ZM30.1166 1.05521V0.239455C29.666 0.239455 29.3008 0.604683 29.3008 1.05521H30.1166ZM24.7822 1.05521H25.598C25.598 0.604683 25.2327 0.239455 24.7822 0.239455V1.05521ZM24.192 1.05521V0.239455C23.7415 0.239455 23.3763 0.604683 23.3763 1.05521H24.192ZM27.4494 9.94061C28.587 9.94061 29.6293 9.57893 30.3861 8.80151C31.1418 8.0253 31.5225 6.92768 31.5225 5.62914H29.891C29.891 6.61189 29.6078 7.26212 29.2171 7.66345C28.8276 8.06355 28.2412 8.30909 27.4494 8.30909V9.94061ZM31.5225 5.62914V1.05521H29.891L29.891 5.62914H31.5225ZM30.7067 0.239455H30.1166V1.87097H30.7067V0.239455ZM29.3008 1.05521L29.3008 5.69724H30.9323L30.9323 1.05521H29.3008ZM29.3008 5.69724C29.3008 6.5149 29.0822 7.01242 28.8073 7.30171C28.5373 7.58589 28.112 7.77565 27.4721 7.77565V9.40717C28.4439 9.40717 29.3408 9.1089 29.9901 8.42551C30.6345 7.74724 30.9323 6.79767 30.9323 5.69724H29.3008ZM27.4721 7.77565C26.8126 7.77565 26.3763 7.56945 26.0981 7.26645C25.8114 6.95426 25.598 6.43587 25.598 5.64049H23.9664C23.9664 6.71781 24.2581 7.67488 24.8964 8.36998C25.5431 9.07426 26.4518 9.40717 27.4721 9.40717V7.77565ZM25.598 5.64049L25.598 1.05521H23.9664L23.9664 5.64049H25.598ZM24.7822 0.239455H24.192V1.87097H24.7822V0.239455ZM23.3763 1.05521L23.3763 5.69724H25.0078L25.0078 1.05521H23.3763ZM23.3763 5.69724C23.3763 6.97674 23.7683 8.05775 24.5274 8.82065C25.2853 9.58228 26.3235 9.94061 27.4494 9.94061V8.30909C26.6685 8.30909 26.078 8.06588 25.6839 7.66984C25.2911 7.27507 25.0078 6.64227 25.0078 5.69724H23.3763ZM38.3765 4.73252L38.2128 5.53168L38.2136 5.53186L38.3765 4.73252ZM40.374 2.37178L39.8408 2.98916C40.0083 3.13378 40.2273 3.20418 40.4476 3.18421C40.668 3.16424 40.8708 3.05563 41.0095 2.88327L40.374 2.37178ZM40.7486 1.90644L41.384 2.41793C41.5198 2.24925 41.5829 2.03352 41.5595 1.81826C41.5361 1.60299 41.4281 1.40587 41.2593 1.27032L40.7486 1.90644ZM38.1495 5.28865L37.9877 6.0882L37.9885 6.08837L38.1495 5.28865ZM35.5391 7.39969L36.092 6.79997C35.9301 6.65064 35.7146 6.57315 35.4947 6.58514C35.2747 6.59713 35.0689 6.69758 34.9242 6.86363L35.5391 7.39969ZM35.1532 7.84233L34.5383 7.30627C34.2447 7.64303 34.2766 8.15329 34.6099 8.45084L35.1532 7.84233ZM38.3538 9.92926C40.1753 9.92926 41.8027 8.82463 41.8027 6.94571H40.1711C40.1711 7.63181 39.5967 8.29774 38.3538 8.29774V9.92926ZM41.8027 6.94571V6.92301H40.1711V6.94571H41.8027ZM41.8027 6.92301C41.8027 6.13046 41.5231 5.43778 40.8967 4.91016C40.318 4.42272 39.5052 4.12993 38.5393 3.93317L38.2136 5.53186C39.0864 5.70964 39.5788 5.93326 39.8457 6.15802C40.0648 6.34259 40.1711 6.55789 40.1711 6.92301H41.8027ZM38.5402 3.93335C37.6214 3.74517 37.2101 3.55147 37.0289 3.40315C36.9245 3.31779 36.8769 3.24358 36.8769 2.99601H35.2454C35.2454 3.58832 35.4134 4.18942 35.9957 4.66587C36.5011 5.07936 37.2475 5.33397 38.2128 5.53168L38.5402 3.93335ZM36.8769 2.99601V2.97331H35.2454V2.99601H36.8769ZM36.8769 2.97331C36.8769 2.75647 37.1033 2.29091 38.0019 2.29091V0.659393C36.5625 0.659393 35.2454 1.5331 35.2454 2.97331H36.8769ZM38.0019 2.29091C38.685 2.29091 39.2436 2.47336 39.8408 2.98916L40.9072 1.75439C40.0063 0.976328 39.0667 0.659393 38.0019 0.659393V2.29091ZM41.0095 2.88327L41.384 2.41793L40.1131 1.39495L39.7385 1.86029L41.0095 2.88327ZM41.2593 1.27032C40.3219 0.51777 39.3843 0.125958 38.0246 0.125958V1.75748C38.9803 1.75748 39.5636 2.00125 40.2379 2.54257L41.2593 1.27032ZM38.0246 0.125958C36.2525 0.125958 34.6552 1.25936 34.6552 3.03006H36.2867C36.2867 2.44003 36.8459 1.75748 38.0246 1.75748V0.125958ZM34.6552 3.03006V3.05276H36.2867V3.03006H34.6552ZM34.6552 3.05276C34.6552 3.86053 34.9297 4.56641 35.5721 5.10316C36.1617 5.59574 36.994 5.8871 37.9877 6.0882L38.3113 4.4891C37.3982 4.30431 36.8913 4.07926 36.6182 3.85114C36.3981 3.66718 36.2867 3.44806 36.2867 3.05276H34.6552ZM37.9885 6.08837C38.8685 6.26547 39.2626 6.44858 39.4363 6.5893C39.5329 6.66756 39.581 6.73591 39.581 6.97975H41.2125C41.2125 6.38372 41.0392 5.78811 40.4633 5.32159C39.9646 4.91753 39.2351 4.67502 38.3104 4.48893L37.9885 6.08837ZM39.581 6.97975V7.00245H41.2125V6.97975H39.581ZM39.581 7.00245C39.581 7.29544 39.3133 7.7643 38.3878 7.7643V9.39582C39.8458 9.39582 41.2125 8.52542 41.2125 7.00245H39.581ZM38.3878 7.7643C37.4572 7.7643 36.8419 7.49139 36.092 6.79997L34.9861 7.99941C35.9841 8.91965 36.9804 9.39582 38.3878 9.39582V7.7643ZM34.9242 6.86363L34.5383 7.30627L35.7681 8.3784L36.1539 7.93576L34.9242 6.86363ZM34.6099 8.45084C35.6946 9.4194 36.8592 9.92926 38.3538 9.92926V8.29774C37.306 8.29774 36.5184 7.96772 35.6965 7.23383L34.6099 8.45084ZM45.7271 9H44.9113C44.9113 9.45053 45.2766 9.81576 45.7271 9.81576V9ZM46.3173 9V9.81576C46.7678 9.81576 47.133 9.45053 47.133 9H46.3173ZM46.3173 1.05521H47.133C47.133 0.604683 46.7678 0.239455 46.3173 0.239455V1.05521ZM45.7271 1.05521V0.239455C45.2766 0.239455 44.9113 0.604683 44.9113 1.05521H45.7271ZM45.7271 9.81576H46.3173V8.18424H45.7271V9.81576ZM47.133 9V1.05521H45.5015V9H47.133ZM46.3173 0.239455L45.7271 0.239455V1.87097H46.3173V0.239455ZM44.9113 1.05521V9H46.5428V1.05521H44.9113ZM58.2391 7.75153L58.812 8.33227C58.9682 8.17822 59.0557 7.96776 59.0549 7.7484C59.0541 7.52903 58.9649 7.31926 58.8076 7.16641L58.2391 7.75153ZM57.8419 7.36564L58.4103 6.78052C58.0921 6.47137 57.5851 6.47325 57.2692 6.78474L57.8419 7.36564ZM57.7738 2.62147L57.2067 3.20783C57.5297 3.52032 58.0447 3.51259 58.3583 3.19056L57.7738 2.62147ZM58.1937 2.19018L58.7782 2.75927C58.9321 2.60121 59.0154 2.38755 59.0092 2.16703C59.0029 1.9465 58.9076 1.73792 58.745 1.58884L58.1937 2.19018ZM55.0839 9.95196C56.7673 9.95196 57.8698 9.26173 58.812 8.33227L57.6663 7.17079C56.9287 7.89839 56.2152 8.32044 55.0839 8.32044V9.95196ZM58.8076 7.16641L58.4103 6.78052L57.2735 7.95077L57.6707 8.33666L58.8076 7.16641ZM57.2692 6.78474C56.5657 7.47833 55.977 7.787 55.1066 7.787V9.41852C56.5289 9.41852 57.5065 8.84192 58.4146 7.94655L57.2692 6.78474ZM55.1066 7.787C53.71 7.787 52.5629 6.63578 52.5629 5.02761H50.9314C50.9314 7.43722 52.7125 9.41852 55.1066 9.41852V7.787ZM52.5629 5.02761V5.00491H50.9314V5.02761H52.5629ZM52.5629 5.00491C52.5629 3.40773 53.6876 2.26821 55.0953 2.26821V0.636694C52.6894 0.636694 50.9314 2.60699 50.9314 5.00491H52.5629ZM55.0953 2.26821C56.0068 2.26821 56.6088 2.62954 57.2067 3.20783L58.3409 2.03511C57.5542 1.27414 56.5672 0.636694 55.0953 0.636694V2.26821ZM58.3583 3.19056L58.7782 2.75927L57.6093 1.6211L57.1893 2.05238L58.3583 3.19056ZM58.745 1.58884C57.8293 0.749444 56.7904 0.103259 55.1066 0.103259V1.73478C56.2603 1.73478 56.9239 2.13276 57.6425 2.79152L58.745 1.58884ZM55.1066 0.103259C52.322 0.103259 50.3185 2.37246 50.3185 5.02761H51.95C51.95 3.18828 53.306 1.73478 55.1066 1.73478V0.103259ZM50.3185 5.02761V5.05031H51.95V5.02761H50.3185ZM50.3185 5.05031C50.3185 7.74688 52.329 9.95196 55.0839 9.95196V8.32044C53.299 8.32044 51.95 6.91631 51.95 5.05031H50.3185ZM68.7159 9H67.9001C67.9001 9.45053 68.2654 9.81576 68.7159 9.81576V9ZM69.3061 9V9.81576C69.7566 9.81576 70.1218 9.45053 70.1218 9H69.3061ZM69.3061 6.03773V5.22197C68.8555 5.22197 68.4903 5.5872 68.4903 6.03773H69.3061ZM68.7159 1.05521V0.239455C68.2654 0.239455 67.9001 0.604683 67.9001 1.05521H68.7159ZM69.3061 5.49294H68.4903C68.4903 5.94348 68.8555 6.3087 69.3061 6.3087V5.49294ZM69.3061 1.6V0.784241C68.8555 0.784241 68.4903 1.14947 68.4903 1.6H69.3061ZM68.7159 9.81576H69.3061V8.18424H68.7159V9.81576ZM70.1218 9V6.03773H68.4903V9H70.1218ZM69.3061 6.85349L71.4512 6.85349V5.22197L69.3061 5.22197V6.85349ZM71.4512 6.85349C72.4094 6.85349 73.3686 6.60563 74.1102 6.05128C74.8764 5.47857 75.3654 4.60721 75.3654 3.50675H73.7339C73.7339 4.07469 73.5022 4.46882 73.1334 4.7445C72.74 5.03854 72.15 5.22197 71.4512 5.22197V6.85349ZM75.3654 3.50675V3.48405H73.7339V3.50675H75.3654ZM75.3654 3.48405C75.3654 2.48286 74.9617 1.63645 74.2394 1.05822C73.5376 0.496393 72.6028 0.239455 71.5987 0.239455V1.87097C72.3425 1.87097 72.8831 2.06235 73.2198 2.33188C73.536 2.58503 73.7339 2.95303 73.7339 3.48405H75.3654ZM71.5987 0.239455H68.7159V1.87097L71.5987 1.87097V0.239455ZM67.9001 1.05521V9H69.5316V1.05521H67.9001ZM70.1218 5.49294V1.6H68.4903V5.49294H70.1218ZM69.3061 2.41576L71.5533 2.41576V0.784241H69.3061V2.41576ZM71.5533 2.41576C72.1569 2.41576 72.5631 2.55636 72.7983 2.73555C73.0042 2.89234 73.1437 3.12415 73.1437 3.5181H74.7752C74.7752 2.65223 74.4267 1.92499 73.787 1.43769C73.1767 0.972782 72.3798 0.784241 71.5533 0.784241V2.41576ZM73.1437 3.5181V3.5408H74.7752V3.5181H73.1437ZM73.1437 3.5408C73.1437 3.87747 73.0115 4.12995 72.7722 4.31763C72.5156 4.5189 72.0887 4.67719 71.4852 4.67719V6.3087C72.3572 6.3087 73.1674 6.08109 73.7791 5.60139C74.408 5.10808 74.7752 4.38449 74.7752 3.5408H73.1437ZM71.4852 4.67719L69.3061 4.67719V6.3087L71.4852 6.3087V4.67719ZM79.0211 9H78.2053C78.2053 9.45053 78.5705 9.81576 79.0211 9.81576V9ZM79.6112 9V9.81576C80.0618 9.81576 80.427 9.45053 80.427 9H79.6112ZM79.6112 5.70859V4.89283C79.1607 4.89283 78.7955 5.25806 78.7955 5.70859H79.6112ZM82.2103 5.70859L82.857 5.21132C82.7026 5.01051 82.4636 4.89283 82.2103 4.89283V5.70859ZM84.7413 9L84.0946 9.49727C84.249 9.69808 84.488 9.81576 84.7413 9.81576V9ZM85.4904 9V9.81576C85.8015 9.81576 86.0855 9.63883 86.2226 9.35959C86.3597 9.08036 86.3261 8.74745 86.1359 8.50127L85.4904 9ZM82.8686 5.60644L82.759 4.79808C82.4703 4.83723 82.2244 5.02739 82.1138 5.29697C82.0033 5.56654 82.0449 5.87461 82.2231 6.10517L82.8686 5.60644ZM79.0211 1.05521V0.239455C78.5705 0.239455 78.2053 0.604683 78.2053 1.05521H79.0211ZM79.6112 5.17515H78.7955C78.7955 5.62568 79.1607 5.99091 79.6112 5.99091V5.17515ZM79.6112 1.6V0.784241C79.1607 0.784241 78.7955 1.14947 78.7955 1.6H79.6112ZM79.0211 9.81576H79.6112V8.18424H79.0211V9.81576ZM80.427 9V5.70859H78.7955V9H80.427ZM79.6112 6.52435L82.2103 6.52435V4.89283L79.6112 4.89283V6.52435ZM81.5637 6.20586L84.0946 9.49727L85.388 8.50273L82.857 5.21132L81.5637 6.20586ZM84.7413 9.81576H85.4904V8.18424H84.7413V9.81576ZM86.1359 8.50127L83.5142 5.10771L82.2231 6.10517L84.8448 9.49873L86.1359 8.50127ZM82.9782 6.4148C83.7626 6.30844 84.5154 6.02388 85.0847 5.50337C85.672 4.9663 86.0111 4.2239 86.0111 3.3365H84.3795C84.3795 3.77702 84.2249 4.07879 83.9837 4.29932C83.7244 4.53639 83.3138 4.72285 82.759 4.79808L82.9782 6.4148ZM86.0111 3.3365V3.3138H84.3795V3.3365H86.0111ZM86.0111 3.3138C86.0111 2.53176 85.6994 1.79031 85.1706 1.26151L84.0169 2.41517C84.2372 2.63546 84.3795 2.96087 84.3795 3.3138H86.0111ZM85.1706 1.26151C84.5045 0.595433 83.4927 0.239455 82.3579 0.239455V1.87097C83.1752 1.87097 83.7296 2.12788 84.0169 2.41517L85.1706 1.26151ZM82.3579 0.239455L79.0211 0.239455V1.87097L82.3579 1.87097V0.239455ZM78.2053 1.05521V9H79.8368V1.05521H78.2053ZM80.427 5.17515V1.6H78.7955V5.17515H80.427ZM79.6112 2.41576L82.3238 2.41576V0.784241H79.6112V2.41576ZM82.3238 2.41576C82.9302 2.41576 83.3042 2.55791 83.5069 2.71424C83.6845 2.85114 83.7894 3.0402 83.7894 3.3365H85.4209C85.4209 2.56594 85.1058 1.88674 84.5031 1.42211C83.9255 0.976902 83.1588 0.784241 82.3238 0.784241V2.41576ZM83.7894 3.3365V3.3592H85.4209V3.3365H83.7894ZM83.7894 3.3592C83.7894 3.66934 83.6684 3.88457 83.4549 4.04525C83.219 4.22279 82.8271 4.35939 82.2898 4.35939V5.99091C83.0804 5.99091 83.8462 5.7927 84.4359 5.34885C85.0481 4.88813 85.4209 4.19538 85.4209 3.3592H83.7894ZM82.2898 4.35939L79.6112 4.35939V5.99091L82.2898 5.99091V4.35939ZM93.5788 9.95196C96.4927 9.95196 98.401 7.58645 98.401 5.02761H96.7695C96.7695 6.80435 95.4771 8.32044 93.5788 8.32044V9.95196ZM98.401 5.02761V5.00491H96.7695V5.02761H98.401ZM98.401 5.00491C98.401 2.44654 96.5159 0.103259 93.6015 0.103259V1.73478C95.4994 1.73478 96.7695 3.22769 96.7695 5.00491H98.401ZM93.6015 0.103259C90.6876 0.103259 88.7793 2.46876 88.7793 5.02761H90.4108C90.4108 3.25087 91.7032 1.73478 93.6015 1.73478V0.103259ZM88.7793 5.02761V5.05031H90.4108V5.02761H88.7793ZM88.7793 5.05031C88.7793 7.60868 90.6644 9.95196 93.5788 9.95196V8.32044C91.6809 8.32044 90.4108 6.82752 90.4108 5.05031H88.7793ZM93.6015 7.787C92.1433 7.787 91.0237 6.59736 91.0237 5.02761H89.3922C89.3922 7.38485 91.1327 9.41852 93.6015 9.41852V7.787ZM91.0237 5.02761V5.00491H89.3922V5.02761H91.0237ZM91.0237 5.00491C91.0237 3.43463 92.1211 2.26821 93.5788 2.26821V0.636694C91.1095 0.636694 89.3922 2.64819 89.3922 5.00491H91.0237ZM93.5788 2.26821C95.037 2.26821 96.1566 3.45786 96.1566 5.02761H97.7881C97.7881 2.67036 96.0476 0.636694 93.5788 0.636694V2.26821ZM96.1566 5.02761V5.05031H97.7881V5.02761H96.1566ZM96.1566 5.05031C96.1566 6.62058 95.0592 7.787 93.6015 7.787V9.41852C96.0708 9.41852 97.7881 7.40702 97.7881 5.05031H96.1566ZM102.314 9H101.498C101.498 9.45053 101.863 9.81576 102.314 9.81576V9ZM102.314 1.05521V0.239455C101.863 0.239455 101.498 0.604683 101.498 1.05521H102.314ZM102.904 8.45521H102.088C102.088 8.90575 102.453 9.27097 102.904 9.27097V8.45521ZM102.904 1.6V0.784241C102.453 0.784241 102.088 1.14947 102.088 1.6H102.904ZM102.314 9.81576H104.958V8.18424L102.314 8.18424V9.81576ZM104.958 9.81576C107.874 9.81576 109.996 7.74515 109.996 5.02761H108.364C108.364 6.78184 107.036 8.18424 104.958 8.18424V9.81576ZM109.996 5.02761V5.00491H108.364V5.02761H109.996ZM109.996 5.00491C109.996 2.28137 107.868 0.239455 104.958 0.239455V1.87097C107.043 1.87097 108.364 3.25667 108.364 5.00491H109.996ZM104.958 0.239455H102.314V1.87097L104.958 1.87097V0.239455ZM101.498 1.05521V9H103.129V1.05521H101.498ZM103.72 8.45521V1.6H102.088V8.45521H103.72ZM102.904 2.41576L104.958 2.41576V0.784241H102.904V2.41576ZM104.958 2.41576C106.726 2.41576 107.752 3.59933 107.752 5.02761H109.383C109.383 2.68779 107.617 0.784241 104.958 0.784241V2.41576ZM107.752 5.02761V5.05031H109.383V5.02761H107.752ZM107.752 5.05031C107.752 5.79349 107.481 6.43036 107.021 6.88145C106.563 7.33087 105.874 7.63946 104.958 7.63946V9.27097C106.256 9.27097 107.371 8.82481 108.164 8.04562C108.956 7.26811 109.383 6.20252 109.383 5.05031H107.752ZM104.958 7.63946L102.904 7.63946V9.27097H104.958V7.63946ZM120.305 1.05521H121.121C121.121 0.604683 120.756 0.239455 120.305 0.239455V1.05521ZM119.715 1.05521V0.239455C119.265 0.239455 118.9 0.604683 118.9 1.05521H119.715ZM114.381 1.05521L115.197 1.05521C115.197 0.604683 114.831 0.239455 114.381 0.239455V1.05521ZM113.791 1.05521V0.239455C113.34 0.239455 112.975 0.604683 112.975 1.05521H113.791ZM117.048 9.94061C118.186 9.94061 119.228 9.57893 119.985 8.80151C120.74 8.0253 121.121 6.92768 121.121 5.62914H119.49C119.49 6.61189 119.207 7.26212 118.816 7.66345C118.426 8.06355 117.84 8.30909 117.048 8.30909V9.94061ZM121.121 5.62914V1.05521H119.49V5.62914H121.121ZM120.305 0.239455H119.715V1.87097H120.305V0.239455ZM118.9 1.05521V5.69724H120.531V1.05521H118.9ZM118.9 5.69724C118.9 6.5149 118.681 7.01242 118.406 7.30171C118.136 7.58589 117.711 7.77565 117.071 7.77565V9.40717C118.043 9.40717 118.939 9.1089 119.589 8.42551C120.233 7.74724 120.531 6.79767 120.531 5.69724H118.9ZM117.071 7.77565C116.411 7.77565 115.975 7.56945 115.697 7.26645C115.41 6.95426 115.197 6.43587 115.197 5.64049L113.565 5.64049C113.565 6.71781 113.857 7.67488 114.495 8.36998C115.142 9.07426 116.051 9.40717 117.071 9.40717V7.77565ZM115.197 5.64049V1.05521L113.565 1.05521V5.64049L115.197 5.64049ZM114.381 0.239455H113.791V1.87097H114.381V0.239455ZM112.975 1.05521V5.69724H114.607V1.05521H112.975ZM112.975 5.69724C112.975 6.97674 113.367 8.05775 114.126 8.82065C114.884 9.58228 115.922 9.94061 117.048 9.94061V8.30909C116.267 8.30909 115.677 8.06588 115.283 7.66984C114.89 7.27507 114.607 6.64227 114.607 5.69724H112.975ZM132.016 7.75153L132.589 8.33227C132.745 8.17822 132.832 7.96776 132.831 7.7484C132.831 7.52903 132.741 7.31926 132.584 7.16641L132.016 7.75153ZM131.618 7.36564L132.187 6.78052C131.869 6.47137 131.362 6.47325 131.046 6.78474L131.618 7.36564ZM131.55 2.62147L130.983 3.20783C131.306 3.52032 131.821 3.51259 132.135 3.19056L131.55 2.62147ZM131.97 2.19018L132.555 2.75927C132.709 2.60121 132.792 2.38755 132.786 2.16703C132.779 1.9465 132.684 1.73792 132.522 1.58884L131.97 2.19018ZM128.86 9.95196C130.544 9.95196 131.646 9.26173 132.589 8.33227L131.443 7.17079C130.705 7.89839 129.992 8.32044 128.86 8.32044V9.95196ZM132.584 7.16641L132.187 6.78052L131.05 7.95077L131.447 8.33666L132.584 7.16641ZM131.046 6.78474C130.342 7.47833 129.754 7.787 128.883 7.787V9.41852C130.305 9.41852 131.283 8.84192 132.191 7.94655L131.046 6.78474ZM128.883 7.787C127.487 7.787 126.339 6.63578 126.339 5.02761L124.708 5.02761C124.708 7.43722 126.489 9.41852 128.883 9.41852V7.787ZM126.339 5.02761V5.00491L124.708 5.00491V5.02761L126.339 5.02761ZM126.339 5.00491C126.339 3.40773 127.464 2.26821 128.872 2.26821V0.636694C126.466 0.636694 124.708 2.60699 124.708 5.00491L126.339 5.00491ZM128.872 2.26821C129.783 2.26821 130.385 2.62954 130.983 3.20783L132.118 2.03511C131.331 1.27414 130.344 0.636694 128.872 0.636694V2.26821ZM132.135 3.19056L132.555 2.75927L131.386 1.6211L130.966 2.05238L132.135 3.19056ZM132.522 1.58884C131.606 0.749444 130.567 0.103259 128.883 0.103259V1.73478C130.037 1.73478 130.7 2.13276 131.419 2.79152L132.522 1.58884ZM128.883 0.103259C126.099 0.103259 124.095 2.37246 124.095 5.02761H125.727C125.727 3.18828 127.083 1.73478 128.883 1.73478V0.103259ZM124.095 5.02761V5.05031H125.727V5.02761H124.095ZM124.095 5.05031C124.095 7.74688 126.106 9.95196 128.86 9.95196V8.32044C127.076 8.32044 125.727 6.91631 125.727 5.05031H124.095ZM138.568 9H137.752C137.752 9.45053 138.117 9.81576 138.568 9.81576V9ZM139.158 9V9.81576C139.608 9.81576 139.974 9.45053 139.974 9H139.158ZM139.158 1.6V0.784241C138.707 0.784241 138.342 1.14947 138.342 1.6H139.158ZM141.927 1.6V2.41576C142.378 2.41576 142.743 2.05053 142.743 1.6H141.927ZM141.927 1.05521H142.743C142.743 0.604683 142.378 0.239455 141.927 0.239455V1.05521ZM135.798 1.05521V0.239455C135.348 0.239455 134.983 0.604683 134.983 1.05521H135.798ZM135.798 1.6H134.983C134.983 2.05053 135.348 2.41576 135.798 2.41576V1.6ZM138.568 1.6H139.383C139.383 1.14947 139.018 0.784241 138.568 0.784241V1.6ZM138.568 9.81576H139.158V8.18424H138.568V9.81576ZM139.974 9V1.6H138.342V9H139.974ZM139.158 2.41576H141.927V0.784241L139.158 0.784241V2.41576ZM142.743 1.6V1.05521H141.111V1.6H142.743ZM141.927 0.239455L135.798 0.239455V1.87097L141.927 1.87097V0.239455ZM134.983 1.05521V1.6H136.614V1.05521H134.983ZM135.798 2.41576L138.568 2.41576V0.784241H135.798V2.41576ZM137.752 1.6V9H139.383V1.6H137.752ZM146.529 9H145.713C145.713 9.45053 146.078 9.81576 146.529 9.81576V9ZM147.119 9V9.81576C147.569 9.81576 147.935 9.45053 147.935 9H147.119ZM147.119 1.05521H147.935C147.935 0.604683 147.569 0.239455 147.119 0.239455V1.05521ZM146.529 1.05521V0.239455C146.078 0.239455 145.713 0.604683 145.713 1.05521H146.529ZM146.529 9.81576H147.119V8.18424H146.529V9.81576ZM147.935 9V1.05521H146.303V9H147.935ZM147.119 0.239455H146.529V1.87097H147.119V0.239455ZM145.713 1.05521V9H147.345V1.05521H145.713ZM155.92 9.95196C158.834 9.95196 160.742 7.58645 160.742 5.02761L159.11 5.02761C159.11 6.80435 157.818 8.32044 155.92 8.32044V9.95196ZM160.742 5.02761V5.00491L159.11 5.00491V5.02761L160.742 5.02761ZM160.742 5.00491C160.742 2.44654 158.857 0.103259 155.942 0.103259V1.73478C157.84 1.73478 159.11 3.22769 159.11 5.00491L160.742 5.00491ZM155.942 0.103259C153.028 0.103259 151.12 2.46876 151.12 5.02761H152.752C152.752 3.25087 154.044 1.73478 155.942 1.73478V0.103259ZM151.12 5.02761V5.05031H152.752V5.02761H151.12ZM151.12 5.05031C151.12 7.60868 153.005 9.95196 155.92 9.95196V8.32044C154.022 8.32044 152.752 6.82752 152.752 5.05031H151.12ZM155.942 7.787C154.484 7.787 153.365 6.59736 153.365 5.02761H151.733C151.733 7.38485 153.474 9.41852 155.942 9.41852V7.787ZM153.365 5.02761V5.00491H151.733V5.02761H153.365ZM153.365 5.00491C153.365 3.43463 154.462 2.26821 155.92 2.26821V0.636694C153.45 0.636694 151.733 2.64819 151.733 5.00491H153.365ZM155.92 2.26821C157.378 2.26821 158.497 3.45786 158.497 5.02761L160.129 5.02761C160.129 2.67036 158.388 0.636694 155.92 0.636694V2.26821ZM158.497 5.02761V5.05031L160.129 5.05031V5.02761L158.497 5.02761ZM158.497 5.05031C158.497 6.62058 157.4 7.787 155.942 7.787V9.41852C158.412 9.41852 160.129 7.40702 160.129 5.05031L158.497 5.05031ZM164.654 9H163.839C163.839 9.45053 164.204 9.81576 164.654 9.81576V9ZM165.222 9V9.81576C165.673 9.81576 166.038 9.45053 166.038 9H165.222ZM165.222 1.94049L165.861 1.43378C165.646 1.16174 165.282 1.05595 164.954 1.17011C164.626 1.28427 164.406 1.59337 164.406 1.94049H165.222ZM170.817 9L170.178 9.50671C170.333 9.70194 170.568 9.81576 170.817 9.81576V9ZM171.26 9V9.81576C171.711 9.81576 172.076 9.45053 172.076 9H171.26ZM171.26 1.05521H172.076C172.076 0.604683 171.711 0.239455 171.26 0.239455V1.05521ZM170.693 1.05521V0.239455C170.242 0.239455 169.877 0.604683 169.877 1.05521L170.693 1.05521ZM170.693 7.96718L170.053 8.47409C170.269 8.74602 170.633 8.85171 170.961 8.73752C171.289 8.62333 171.508 8.31425 171.508 7.96718H170.693ZM165.211 1.05521L165.85 0.548306C165.695 0.353198 165.46 0.239455 165.211 0.239455V1.05521ZM164.654 1.05521V0.239455C164.204 0.239455 163.839 0.604683 163.839 1.05521H164.654ZM164.654 9.81576L165.222 9.81576V8.18424H164.654V9.81576ZM166.038 9V1.94049H164.406V9L166.038 9ZM164.583 2.4472L170.178 9.50671L171.457 8.49329L165.861 1.43378L164.583 2.4472ZM170.817 9.81576H171.26V8.18424H170.817V9.81576ZM172.076 9V1.05521H170.444V9H172.076ZM171.26 0.239455H170.693V1.87097H171.26V0.239455ZM169.877 1.05521V7.96718L171.508 7.96718V1.05521L169.877 1.05521ZM171.332 7.46027L165.85 0.548306L164.571 1.56212L170.053 8.47409L171.332 7.46027ZM165.211 0.239455H164.654V1.87097H165.211V0.239455ZM163.839 1.05521V9L165.47 9V1.05521H163.839ZM182.222 6.10583H181.406C181.406 6.55636 181.772 6.92159 182.222 6.92159V6.10583ZM182.971 6.10583V6.92159C183.422 6.92159 183.787 6.55636 183.787 6.10583H182.971ZM182.971 5.1411H183.787C183.787 4.69057 183.422 4.32535 182.971 4.32535V5.1411ZM182.222 5.1411V4.32535C181.772 4.32535 181.406 4.69057 181.406 5.1411H182.222ZM182.222 6.92159H182.971V5.29007H182.222V6.92159ZM183.787 6.10583V5.1411H182.155V6.10583H183.787ZM182.971 4.32535H182.222V5.95686H182.971V4.32535ZM181.406 5.1411V6.10583H183.038V5.1411H181.406Z" fill="#00FF63"/>
</svg>
