<svg width="180" height="15" viewBox="0 0 180 15" fill="none" xmlns="http://www.w3.org/2000/svg">
<g clip-path="url(#clip0_145_6949)">
<path d="M32.599 4.69055L23.6809 4.69055V5.52117L32.599 5.52117V4.69055Z" fill="#00FF63"/>
<path d="M131.177 14.1694L48.3444 14.1694V15L131.177 15V14.1694Z" fill="#00FF63"/>
<path d="M134.578 10.8713H131.177V11.702H134.578V10.8713Z" fill="#00FF63"/>
<path d="M166.421 10.8713H163.02V11.702H166.421V10.8713Z" fill="#00FF63"/>
<path d="M45.5983 11.0912L38.7964 11.0912V13.1433H45.5983V11.0912Z" fill="#00FF63"/>
<path d="M80.6158 6.32736H78.4996V8.37948H80.6158V6.32736Z" fill="#00FF63"/>
<path d="M5.06368 9.21008H0L0 10.8469H5.06368V9.21008Z" fill="#00FF63"/>
<path d="M3.07349 0.244293L9.44717 0.244293C13.2008 0.244293 15.6194 2.12542 15.6194 5.30131C15.6194 8.69708 12.9238 10.4805 9.24567 10.4805L7.20508 10.4805L7.20508 14.6091H3.07349L3.07349 0.244293ZM9.14487 7.40226C10.606 7.40226 11.513 6.66933 11.513 5.54555C11.513 4.29963 10.606 3.66455 9.11966 3.66455L7.20508 3.66455V7.45116L9.14487 7.40226Z" fill="#00FF63"/>
<path d="M30.105 0.244243L37.1085 0.244243C37.9817 0.176657 38.8599 0.280252 39.6909 0.548872C40.5219 0.817492 41.2887 1.24567 41.9454 1.8078C42.3988 2.2479 42.7519 2.77527 42.9819 3.35599C43.2119 3.93672 43.3136 4.55789 43.2806 5.17914C43.3103 6.13546 43.0297 7.0766 42.4782 7.86996C41.9268 8.66332 41.1324 9.26884 40.2072 9.60096L43.7592 14.6335H38.9979L36 10.2605L34.2114 10.2605V14.6335H30.105L30.105 0.244243ZM36.9321 7.15797C38.3177 7.15797 39.1238 6.49833 39.1238 5.44784C39.1238 4.29963 38.2925 3.73771 36.9069 3.73771L34.2114 3.73771V7.18242L36.9321 7.15797Z" fill="#00FF63"/>
<path d="M58.119 0.244293L70.0854 0.244293V3.64009L62.1497 3.64009V5.8387L69.2793 5.8387V8.96581L62.1497 8.96581V11.2622L70.1359 11.2622V14.658L58.119 14.658V0.244293Z" fill="#00FF63"/>
<path d="M83.8405 12.5082L86.1329 9.86975C87.4825 10.9658 89.1844 11.5707 90.9447 11.5799C92.0532 11.5799 92.6578 11.2134 92.6578 10.6026C92.6578 10.0163 92.154 9.67429 90.1386 9.23455C86.9895 8.52608 84.5458 7.67109 84.5458 4.71507C84.5458 2.02777 86.7376 0.0977653 90.2897 0.0977653C92.5019 0.0157149 94.672 0.699808 96.4115 2.02768L94.3457 4.83719C93.136 3.975 91.6888 3.48167 90.1888 3.42021C89.1811 3.42021 88.7026 3.83553 88.7026 4.34856C88.7026 5.00817 89.2064 5.30137 91.2218 5.76554C94.6228 6.47401 96.7642 7.54897 96.7642 10.2363C96.7642 13.1679 94.2449 14.9268 90.7432 14.9268C88.2149 14.965 85.7596 14.1047 83.8405 12.5082Z" fill="#00FF63"/>
<path d="M111.527 0.244293L123.468 0.244293V3.64009L115.608 3.64009V5.8387L122.738 5.8387V8.96581L115.608 8.96581V11.2622L123.619 11.2622V14.658L111.527 14.658V0.244293Z" fill="#00FF63"/>
<path d="M138.407 0.244293L142.262 0.244293L148.358 7.86643V0.244293L152.44 0.244293V14.658H148.812L142.463 6.7426V14.658H138.382L138.407 0.244293Z" fill="#00FF63"/>
<path d="M171.485 3.73776L167.026 3.73776V0.244293L180.05 0.244293V3.73776L175.591 3.73776V14.658L171.485 14.658V3.73776Z" fill="#00FF63"/>
</g>
<defs>
<clipPath id="clip0_145_6949">
<rect width="180" height="15" fill="white"/>
</clipPath>
</defs>
</svg>
