<svg width="298" height="101" viewBox="0 0 298 101" fill="none" xmlns="http://www.w3.org/2000/svg">
<path d="M179.716 15.3707H9.32031V50.5124H179.716V15.3707Z" fill="#00FF63"/>
<path d="M179.388 15.7279V50.1551H9.6776V15.7279H179.388ZM180.132 14.9837H9.00781V50.8398H180.132V15.0134V14.9837Z" fill="black"/>
<path d="M181.295 14.8498H169.448V50.1477H181.295V14.8498Z" fill="black"/>
<path d="M180.856 15.2963V49.7235H169.887V15.2963H180.856ZM181.735 14.4181H169.016V50.5942H181.735V14.4181Z" fill="#00FF63"/>
<path d="M166.337 32.7927L176.436 22.6937L186.535 32.7927L191.335 28L181.236 17.8936L191.335 7.79463L186.535 2.99446L176.436 13.1009L166.337 2.99446L161.537 7.79463L171.643 17.8936L161.537 27.9925L166.337 32.7927Z" fill="#00FF63" stroke="black" stroke-width="1.1" stroke-miterlimit="10"/>
<path d="M164.335 30.7908L174.434 20.6918L184.54 30.7908L189.333 25.9981L179.234 15.8991L189.333 5.79271L184.54 0.999985L174.434 11.0989L164.335 0.999985L159.542 5.79271L169.641 15.8991L159.542 25.9981L164.335 30.7908Z" fill="#00FF63" stroke="black" stroke-width="1.1" stroke-miterlimit="10"/>
<path d="M9.67751 50.2891H1V58.9666H9.67751V50.2891Z" fill="black" stroke="black" stroke-width="0.59" stroke-miterlimit="10"/>
<path d="M18.355 41.6116H9.67749V50.2891H18.355V41.6116Z" fill="black" stroke="black" stroke-width="0.59" stroke-miterlimit="10"/>
<path d="M9.67751 32.9415H1V41.619H9.67751V32.9415Z" fill="black" stroke="black" stroke-width="0.59" stroke-miterlimit="10"/>
<path d="M18.355 24.264H9.67749V32.9415H18.355V24.264Z" fill="black" stroke="black" stroke-width="0.59" stroke-miterlimit="10"/>
<path d="M9.67751 15.594H1V24.2715H9.67751V15.594Z" fill="black" stroke="black" stroke-width="0.59" stroke-miterlimit="10"/>
<path d="M18.355 6.91645H9.67749V15.594H18.355V6.91645Z" fill="black" stroke="black" stroke-width="0.59" stroke-miterlimit="10"/>
<path d="M297.717 49.6491H9.17139V100.696H297.717V49.6491Z" fill="black"/>
<path d="M296.988 50.3785V99.6769H9.45427V50.3785H296.988ZM298 49.3738H8.44214V100.689H298V49.3738Z" fill="#00FF63"/>
<path d="M28.616 41.768H32.28V40.488H30.376V27.4H32.28V26.152H28.616V41.768ZM37.5429 28.824C37.8949 28.52 38.2469 28.184 38.5829 27.864C39.0629 28.168 39.5909 28.504 40.1029 28.824H37.5429ZM40.2309 31.784V32.408H36.5989V32.312V31.784H40.2309ZM36.5349 34.184C36.5509 33.96 36.5669 33.736 36.5669 33.528H40.2309V34.184H36.5349ZM40.6789 37.288V38.424H37.7189V37.288H40.6789ZM40.2149 29.944V28.904C40.9029 29.352 41.5269 29.768 41.9589 30.12L42.9349 28.52C42.1989 27.992 40.8709 27.208 39.6869 26.52C39.7829 26.392 39.8789 26.264 39.9749 26.12L38.2309 25.432C37.2069 26.968 35.3349 28.28 33.4789 29.064C33.7989 29.48 34.2949 30.44 34.4709 30.888L34.8389 30.696V32.312C34.8389 34.184 34.7109 37.048 33.4469 39.08C33.9109 39.224 34.7429 39.576 35.1109 39.816C35.5749 39 35.9109 38.024 36.1349 37.016V40.328H37.7189V39.832H40.6789V40.264H42.3429V35.992H36.3269C36.3589 35.832 36.3749 35.656 36.4069 35.496H41.9589V30.472H35.2069C35.7989 30.136 36.3589 29.736 36.9189 29.32V29.944H40.2149ZM45.0309 27.096H43.2389V36.024H45.0309V27.096ZM46.1349 25.496V38.088C46.1349 38.36 46.0229 38.44 45.7669 38.44C45.5109 38.44 44.6789 38.44 43.8629 38.424C44.1189 38.952 44.3429 39.8 44.4229 40.328C45.7029 40.328 46.6149 40.264 47.1749 39.944C47.7669 39.64 47.9589 39.128 47.9589 38.104V25.496H46.1349ZM53.0789 25.512C52.2789 27.784 50.8869 30.056 49.4309 31.496C49.7669 31.976 50.3109 33.064 50.4869 33.528C50.8069 33.176 51.1429 32.776 51.4789 32.376V40.376H53.3989V29.416C53.9909 28.344 54.5189 27.208 54.9349 26.088L53.0789 25.512ZM64.5509 29.864V28.056H58.3429C58.6469 27.4 58.9029 26.744 59.1269 26.072L57.2869 25.608C56.5669 27.896 55.3029 30.2 53.8949 31.64C54.2949 31.944 55.0469 32.616 55.3509 32.968C56.0709 32.136 56.8069 31.048 57.4469 29.864H58.0549V40.392H60.0069V36.84H64.3589V35.08H60.0069V33.272H64.1509V31.544H60.0069V29.864H64.5509ZM70.9189 32.248L69.4469 32.616V30.248H71.0149V28.488H69.4469V25.448H67.5589V28.488H65.7189V30.248H67.5589V33.08C66.7909 33.272 66.1029 33.432 65.5109 33.544L66.0069 35.352L67.5589 34.968V38.264C67.5589 38.504 67.4949 38.584 67.2549 38.584C67.0469 38.584 66.3909 38.584 65.7669 38.568C65.9909 39.064 66.2309 39.816 66.3109 40.296C67.4309 40.296 68.1989 40.248 68.7269 39.96C69.2709 39.656 69.4469 39.208 69.4469 38.28V34.456C70.0229 34.312 70.5989 34.152 71.1589 33.992L70.9189 32.248ZM77.6069 33.112C77.1269 34.2 76.4389 35.144 75.6069 35.944C74.8069 35.128 74.1669 34.168 73.7189 33.112H77.6069ZM78.8069 31.32L78.4709 31.4H76.5509V29.48H80.1349V27.72H76.5509V25.432H74.6629V27.72H71.2229V29.48H74.6629V31.4H71.5109V33.112H72.3429L71.8629 33.256C72.4389 34.728 73.1909 35.992 74.1349 37.064C73.0149 37.784 71.7189 38.296 70.3109 38.632C70.6629 39.048 71.1269 39.848 71.3349 40.36C72.8869 39.896 74.2949 39.256 75.5429 38.392C76.6469 39.288 77.9749 39.944 79.5269 40.408C79.7989 39.912 80.3429 39.144 80.7429 38.76C79.3189 38.408 78.0869 37.88 77.0469 37.144C78.3909 35.8 79.4149 34.056 80.0229 31.832L78.8069 31.32ZM85.6709 29.352H87.4789V27.464H81.6229V29.352H83.7349V35.448C82.8709 35.608 82.0709 35.736 81.4149 35.848L81.8309 37.8C83.5429 37.448 85.7989 36.984 87.9109 36.488L87.7349 34.68C87.0469 34.808 86.3589 34.952 85.6709 35.08V29.352ZM96.4869 28.296V26.376H87.7029V28.296H89.6709C89.3349 30.104 88.8869 32.04 88.5029 33.4H94.0389C93.8469 36.296 93.6229 37.752 93.2069 38.104C92.9829 38.28 92.7429 38.296 92.3749 38.296C91.8309 38.296 90.5669 38.28 89.3029 38.184C89.7349 38.744 90.0549 39.56 90.0869 40.152C91.2389 40.184 92.4069 40.216 93.0789 40.152C93.8629 40.072 94.4069 39.912 94.9029 39.336C95.5429 38.632 95.8309 36.824 96.0709 32.408L96.1189 31.56H90.9989C91.2229 30.552 91.4629 29.4 91.6549 28.296H96.4869ZM112.151 31.704V29.736H105.863C106.023 28.248 106.039 26.776 106.055 25.464H103.975C103.959 26.776 103.975 28.232 103.815 29.736H97.9909V31.704H103.495C102.871 34.456 101.351 37.112 97.6869 38.744C98.2469 39.144 98.8069 39.832 99.1109 40.36C102.503 38.728 104.231 36.232 105.095 33.56C106.343 36.648 108.199 38.984 111.095 40.344C111.399 39.8 112.023 38.952 112.503 38.552C109.511 37.336 107.575 34.824 106.519 31.704H112.151ZM123.079 34.312C122.839 35.288 122.151 36.264 121.127 36.808C121.399 37.016 121.815 37.496 122.007 37.784C122.599 37.448 123.111 36.984 123.511 36.44C124.055 36.904 124.599 37.4 124.903 37.752L125.831 36.824C125.447 36.44 124.759 35.848 124.135 35.384C124.263 35.128 124.375 34.84 124.455 34.568L123.079 34.312ZM125.383 38.712C125.351 38.392 125.319 38.008 125.287 37.72C124.967 37.8 124.375 37.832 123.991 37.832H121.623C121.191 37.832 121.111 37.672 121.111 37.208V34.68H120.663C120.775 34.552 120.887 34.408 120.999 34.28H126.487C126.343 37.08 126.183 38.2 125.927 38.52C125.815 38.664 125.671 38.712 125.447 38.712H125.383ZM121.399 29.672H125.607V30.504H121.399V29.672ZM121.399 27.544H125.607V28.36H121.399V27.544ZM122.135 32.68C122.311 32.408 122.455 32.168 122.599 31.896H127.351V26.168H119.735V31.896H120.567C120.167 32.52 119.671 33.128 119.127 33.656L118.967 32.424C118.487 32.552 117.975 32.696 117.463 32.824V30.248H119.015V28.488H117.463V25.448H115.639V28.488H113.591V30.248H115.639V33.272C114.839 33.464 114.071 33.624 113.447 33.752L113.703 35.624C114.295 35.464 114.951 35.288 115.639 35.112V38.232C115.639 38.472 115.559 38.552 115.319 38.552C115.095 38.552 114.391 38.552 113.719 38.52C113.943 39.016 114.199 39.768 114.263 40.264C115.415 40.264 116.199 40.216 116.727 39.928C117.271 39.64 117.463 39.176 117.463 38.232V34.648L118.311 34.408C118.135 34.552 117.959 34.68 117.783 34.808C118.135 35.176 118.679 36.056 118.887 36.424C119.111 36.264 119.335 36.072 119.559 35.848V37.192C119.559 38.792 120.007 39.336 121.655 39.336H124.023H124.391C124.487 39.688 124.551 40.056 124.567 40.344C125.271 40.376 125.927 40.36 126.327 40.296C126.791 40.232 127.127 40.104 127.415 39.672C127.863 39.112 128.071 37.48 128.263 33.416C128.279 33.192 128.295 32.68 128.295 32.68H122.135ZM132.279 32.088L135.719 31.336L135.655 30.344L135.095 30.424L135.495 29.608C134.855 29.352 133.671 29.048 132.807 28.904L132.343 29.768C133.143 29.944 134.167 30.216 134.823 30.472C133.703 30.632 132.679 30.776 131.879 30.888V28.888H136.071V32.008H137.943V28.888H141.207C140.503 29.16 139.335 29.576 138.567 29.752L138.919 30.312L138.583 30.264L138.263 31.208C139.479 31.4 141.111 31.784 141.959 32.088L142.263 31.048C141.623 30.84 140.567 30.584 139.591 30.408C140.327 30.248 141.223 30.04 141.895 29.752L141.271 28.888H142.215V30.968H144.151V27.784H137.943V27.128H143.335V25.976H130.823V27.128H136.071V27.784H130.039V30.968H131.863L132.279 32.088ZM138.663 36.856C139.223 36.632 139.767 36.376 140.279 36.072C140.839 36.376 141.447 36.648 142.087 36.856H138.663ZM139.207 38.92V37.96H141.383V38.92H139.207ZM136.167 36.168H134.343V35.432H136.119V34.216C136.423 34.424 136.807 34.808 136.999 35.064C137.399 34.856 137.767 34.6 138.103 34.344C138.375 34.664 138.663 34.936 138.999 35.208C138.119 35.64 137.127 35.976 136.167 36.2V36.168ZM132.279 33.416H134.535V34.264H132.279V33.416ZM141.399 33.528C141.063 33.88 140.679 34.2 140.231 34.488C139.783 34.216 139.367 33.88 139.031 33.528H141.399ZM142.599 32.344L142.343 32.408H139.975C140.087 32.264 140.167 32.104 140.263 31.944L138.855 31.704C138.359 32.552 137.431 33.416 136.119 34.088V32.248H130.759V35.432H132.759V38.616L131.975 38.68V35.848H130.583V38.776L129.863 38.824L130.023 40.28C131.783 40.136 134.247 39.912 136.583 39.688L136.567 38.328C135.831 38.392 135.079 38.456 134.343 38.504V37.432H136.167V36.584C136.391 36.872 136.615 37.224 136.727 37.48C137.015 37.4 137.319 37.32 137.623 37.208V40.392H139.207V40.072H141.383V40.36H143.047V37.112C143.287 37.176 143.527 37.224 143.783 37.272C143.975 36.856 144.407 36.248 144.727 35.96C143.607 35.8 142.535 35.544 141.623 35.176C142.423 34.52 143.111 33.768 143.591 32.888L142.599 32.344ZM149.44 41.768H153.104V26.152H149.44V27.4H151.344V40.488H149.44V41.768Z" fill="#202020"/>
<path d="M43.502 60.9245H38.756C38.602 60.4905 38.35 59.9445 38.056 59.5245L37.146 59.7205C37.37 60.0705 37.594 60.5325 37.72 60.9245H32.61V61.7645H43.502V60.9245ZM41.416 67.1405V68.6945H34.696V67.1405H41.416ZM34.696 71.0745V69.4505H41.416V71.0745H34.696ZM33.772 72.4045H34.696V71.8725H41.416V72.3765H42.368V66.3285H33.772V72.4045ZM40.576 64.2145C40.926 63.5845 41.304 62.7865 41.654 62.0865L40.646 61.8345C40.408 62.5205 39.96 63.5425 39.596 64.2145H35.774L36.362 64.0605C36.236 63.4585 35.858 62.5485 35.424 61.8905L34.542 62.0865C34.934 62.7305 35.27 63.5985 35.396 64.2145H31.812V65.0685H44.202V64.2145H40.576ZM59.574 66.4965C59.448 65.9225 59.154 65.0545 58.902 64.3685L58.272 64.5785C58.356 64.8585 58.468 65.1665 58.566 65.4885L56.802 65.6845C57.726 64.6065 58.664 63.2345 59.42 61.8485L58.706 61.4705C58.496 61.9045 58.272 62.3385 58.02 62.7725L56.536 62.9265C57.068 62.1005 57.614 61.0225 58.034 59.9445L57.25 59.6925C56.9 60.8825 56.2 62.1425 55.99 62.4785C55.794 62.8005 55.612 63.0385 55.444 63.0665C55.542 63.2765 55.64 63.6685 55.682 63.8365C55.864 63.7525 56.158 63.6825 57.586 63.4865C57.096 64.2285 56.648 64.8165 56.452 65.0545C56.116 65.4885 55.836 65.7825 55.598 65.8385C55.696 66.0345 55.822 66.4265 55.85 66.5805C56.06 66.4825 56.41 66.4125 58.748 66.1045C58.804 66.3425 58.86 66.5525 58.888 66.7205L59.574 66.4965ZM54.366 63.2485H52.434V61.7225H54.366V63.2485ZM54.366 65.5025H52.434V63.9625H54.366V65.5025ZM55.206 60.9805H53.498C53.624 60.6165 53.778 60.1545 53.932 59.7485L53.05 59.5805C53.008 59.9585 52.882 60.5325 52.756 60.9805H51.622V66.2445H55.206V60.9805ZM51.328 66.4265C51.258 65.8105 51.034 64.8585 50.796 64.1305L50.152 64.2845C50.236 64.5925 50.334 64.9425 50.404 65.2925L48.57 65.5165C49.508 64.4385 50.446 63.0525 51.216 61.6805L50.516 61.3165C50.292 61.7785 50.026 62.2405 49.774 62.6885L48.5 62.8145C49.018 62.0305 49.55 60.9945 49.942 59.9865L49.2 59.7065C48.85 60.8405 48.164 62.0585 47.954 62.3665C47.772 62.6885 47.604 62.8985 47.422 62.9265C47.506 63.1365 47.632 63.5285 47.674 63.6825C47.828 63.5985 48.094 63.5425 49.34 63.3745C48.864 64.1025 48.444 64.6905 48.248 64.9145C47.898 65.3345 47.646 65.6285 47.408 65.6845C47.492 65.8805 47.632 66.2725 47.66 66.4405C47.856 66.3145 48.206 66.2445 50.544 65.9085C50.586 66.1605 50.614 66.3985 50.642 66.5945L51.328 66.4265ZM51.384 68.7505C50.432 69.7865 48.556 70.7105 46.946 71.1445C47.156 71.3265 47.422 71.6625 47.562 71.9145C49.214 71.3825 51.132 70.2905 52.154 69.0865L51.384 68.7505ZM54.786 69.2825C56.242 70.0385 58.09 71.2145 58.986 71.9985L59.574 71.2845C58.636 70.5285 56.788 69.3945 55.332 68.6525L54.786 69.2825ZM53.862 67.4765V66.6085H52.938V67.4765H47.184V68.2885H52.938V72.3765H53.862V68.2885H59.602V67.4765H53.862ZM68.31 59.6785C68.268 61.7785 68.31 68.6945 62.486 71.6065C62.752 71.8025 63.06 72.0825 63.214 72.3205C66.742 70.4865 68.212 67.1965 68.828 64.3405C69.5 66.9725 70.97 70.5845 74.568 72.2785C74.708 72.0125 74.988 71.7045 75.24 71.4945C70.298 69.2825 69.444 63.3185 69.234 61.6945C69.304 60.8685 69.318 60.1685 69.332 59.6785H68.31ZM85.74 62.2965C84.928 61.6245 83.402 60.4765 82.184 59.6785L81.582 60.3365C82.772 61.1345 84.298 62.3245 85.124 63.0385L85.74 62.2965ZM79.342 63.9205C79.076 65.4185 78.502 67.3365 77.718 68.5405L78.572 68.9045C79.37 67.6725 79.902 65.6705 80.21 64.1585L79.342 63.9205ZM83.5 71.3545C82.702 71.3545 82.534 71.2145 82.534 70.5705V68.9325C85.404 66.7065 87.644 63.8645 89.24 60.8405L88.316 60.4625C87.014 63.1085 85.04 65.6705 82.534 67.7705V63.0665H81.568V68.5265C80.392 69.4085 79.104 70.1785 77.718 70.8085C77.914 70.9905 78.194 71.3125 78.32 71.5225C79.468 70.9765 80.546 70.3325 81.568 69.6465V70.5425C81.568 71.9145 82.002 72.2785 83.444 72.2785H86.342C87.812 72.2785 88.12 71.5365 88.274 69.0305C87.994 68.9605 87.602 68.8065 87.35 68.6245C87.252 70.8785 87.126 71.3545 86.3 71.3545H83.5ZM87.574 64.6905C88.526 66.0905 89.478 67.9805 89.842 69.2265L90.724 68.8065C90.346 67.5745 89.38 65.7125 88.4 64.3125L87.574 64.6905ZM103.422 67.6025H97.164V66.5805H103.422V67.6025ZM97.164 71.1025V69.9825H103.422V71.1025H97.164ZM103.422 69.3245H97.164V68.2745H103.422V69.3245ZM105.732 64.7885V64.0045H98.298C98.48 63.6405 98.648 63.2625 98.788 62.8985H104.92V62.1425H99.068C99.194 61.7785 99.306 61.4145 99.404 61.0365C101.434 60.9105 103.366 60.7285 104.752 60.4345L104.15 59.7485C101.952 60.2105 97.682 60.4345 94.294 60.4625C94.392 60.6725 94.476 60.9805 94.49 61.1905C95.722 61.1905 97.052 61.1485 98.382 61.0925C98.284 61.4425 98.186 61.7925 98.074 62.1425H94.504V62.8985H97.78C97.626 63.2625 97.472 63.6545 97.276 64.0045H93.468V64.7885H96.842C95.946 66.2725 94.728 67.5885 93.146 68.5265C93.328 68.6945 93.608 69.0445 93.734 69.2405C94.7 68.6525 95.54 67.9385 96.268 67.1265V72.4185H97.164V71.8585H103.422V72.4185H104.346V65.8245H97.276C97.486 65.4885 97.71 65.1385 97.906 64.7885H105.732ZM114.594 67.9805H115.42L115.728 62.4365L115.756 60.8545H114.244L114.272 62.4365L114.594 67.9805ZM115 71.3825C115.574 71.3825 116.064 70.9905 116.064 70.3325C116.064 69.7025 115.574 69.2965 115 69.2965C114.426 69.2965 113.936 69.7025 113.936 70.3325C113.936 70.9905 114.426 71.3825 115 71.3825ZM44.272 83.8585H38.504V78.6505H37.524V83.8585H31.812V84.8105H37.524V91.3765H38.504V84.8105H44.272V83.8585ZM50.614 79.0985C49.928 81.2825 48.654 83.1445 46.974 84.3065C47.198 84.4605 47.59 84.7965 47.758 84.9785C49.424 83.6765 50.796 81.7165 51.58 79.3225L50.614 79.0985ZM49.018 83.9145V84.8245H51.972C51.636 87.2465 50.88 89.5425 47.534 90.6485C47.744 90.8585 48.01 91.2085 48.136 91.4465C51.678 90.1585 52.588 87.6105 52.952 84.8245H56.718C56.536 88.4785 56.326 89.9065 55.962 90.2565C55.822 90.4105 55.668 90.4385 55.374 90.4385C55.038 90.4385 54.156 90.4245 53.218 90.3405C53.386 90.6065 53.512 90.9845 53.526 91.2645C54.408 91.3205 55.29 91.3345 55.738 91.3065C56.228 91.2645 56.508 91.1665 56.802 90.8445C57.278 90.3125 57.488 88.7165 57.698 84.3765C57.712 84.2505 57.712 83.9145 57.712 83.9145H49.018ZM52.742 78.8885V79.7565H55.262C56.06 81.8845 57.544 83.8445 59.252 84.9645C59.42 84.6985 59.714 84.3345 59.924 84.1385C58.174 83.1305 56.648 81.1005 55.934 78.8885H52.742ZM65.37 89.4165V85.4265H67.176V84.6005H65.37V82.9905H66.784V82.1785H63.522C64.04 81.5905 64.544 80.9045 64.992 80.1625C65.776 80.7785 66.602 81.5205 67.106 82.1085L67.512 81.3525C66.98 80.7925 66.168 80.0645 65.37 79.4765C65.482 79.2665 65.58 79.0845 65.65 78.8745L64.992 78.5525C64.362 79.9385 63.326 81.2405 62.304 82.0805C62.43 82.2905 62.64 82.7945 62.696 83.0045C62.92 82.8085 63.116 82.5985 63.34 82.3745V82.9905H64.642V84.6005H62.626V85.4265H64.642V89.5705C63.816 89.7665 63.06 89.9205 62.486 90.0465L62.682 90.8865C63.9 90.5785 65.608 90.1585 67.204 89.7525L67.162 88.9965L65.37 89.4165ZM62.906 86.3785C63.13 87.2185 63.354 88.2825 63.41 88.9965L64.026 88.8005C63.956 88.1005 63.746 87.0365 63.508 86.1965L62.906 86.3785ZM66.266 88.8425C66.518 88.1845 66.784 87.1485 67.022 86.2805L66.35 86.0425C66.224 86.7985 65.958 87.9465 65.734 88.6465L66.266 88.8425ZM69.038 86.0565H70.928V87.0925H69.038V86.0565ZM69.038 84.4325H70.928V85.4405H69.038V84.4325ZM73.714 85.4405H71.74V84.4325H73.714V85.4405ZM73.714 87.0925H71.74V86.0565H73.714V87.0925ZM71.782 89.2765H74.736V88.5625H71.782V87.7365H74.554V83.8025H68.226V87.7365H70.9V88.5625H68.058V89.2765H70.9V90.3125H67.386V91.0405H75.24V90.3125H71.782V89.2765ZM73.056 82.3185C73.294 81.8985 73.546 81.3945 73.784 80.9325L72.93 80.7365H74.96V79.9805H71.978C71.852 79.5605 71.586 78.9865 71.278 78.5805L70.438 78.8045C70.676 79.1405 70.886 79.6025 71.012 79.9805H67.806V80.7365H72.874C72.72 81.1845 72.426 81.8285 72.174 82.3185H69.976L70.368 82.2205C70.284 81.8285 70.032 81.1985 69.794 80.7505L69.01 80.9185C69.234 81.3385 69.43 81.9125 69.514 82.3185H67.414V83.0745H75.296V82.3185H73.056ZM79.258 81.3105H89.184V83.2425H90.08V80.5125H87.49C87.882 80.1345 88.386 79.5885 88.806 79.0705L87.882 78.7205C87.616 79.1825 87.07 79.8405 86.678 80.2605L87.252 80.5125H84.648V78.6225H83.71V80.5125H81.05L81.68 80.2045C81.47 79.7985 80.994 79.1825 80.574 78.7345L79.776 79.0565C80.14 79.4905 80.56 80.0925 80.798 80.5125H78.39V83.2425H79.258V81.3105ZM81.246 82.8925H87.224V84.0825H81.246V82.8925ZM88.134 84.7265V82.2345H80.378V84.7265H88.134ZM90.374 88.7445H84.634V87.7365H89.632V87.0505H84.634V86.0845C86.174 85.9865 87.63 85.8465 88.736 85.6505L88.134 85.0485C86.146 85.3845 82.38 85.5805 79.314 85.6225C79.398 85.7905 79.496 86.0705 79.496 86.2525C80.812 86.2525 82.296 86.2105 83.724 86.1405V87.0505H78.852V87.7365H83.724V88.7445H78.054V89.4305H83.724V90.3825C83.724 90.5925 83.64 90.6485 83.388 90.6625C83.15 90.6765 82.24 90.6905 81.232 90.6625C81.358 90.8725 81.512 91.1665 81.554 91.3905C82.828 91.3905 83.598 91.4045 84.046 91.2785C84.48 91.1525 84.634 90.9425 84.634 90.3965V89.4305H90.374V88.7445ZM97.318 85.6365L97.192 84.8105L95.722 85.2865V82.3465H97.276V81.4785H95.722V78.6365H94.84V81.4785H93.244V82.3465H94.84V85.5805C94.168 85.7765 93.538 85.9725 93.048 86.1125L93.286 86.9805L94.84 86.4625V90.2005C94.84 90.3965 94.77 90.4525 94.588 90.4525C94.434 90.4665 93.888 90.4665 93.286 90.4525C93.398 90.7045 93.524 91.0825 93.552 91.3205C94.434 91.3345 94.952 91.2925 95.274 91.1525C95.596 90.9985 95.722 90.7465 95.722 90.2005V86.1825L97.318 85.6365ZM104.402 79.9665V81.4085H98.634V79.9665H104.402ZM102.582 90.2845V88.6605H105.396V87.9045H102.582V86.4485L104.444 86.3085C104.584 86.5045 104.682 86.6865 104.766 86.8405L105.466 86.5045C105.144 85.8605 104.374 84.9225 103.66 84.2645L102.988 84.5725C103.324 84.8805 103.646 85.2725 103.954 85.6365L100.314 85.8745C100.846 85.3285 101.392 84.6565 101.882 83.9425H105.354V83.1865H98.634V82.1785H105.34V79.1965H97.738V83.5785C97.738 85.7625 97.598 88.7865 96.17 90.9005C96.394 90.9985 96.772 91.2365 96.94 91.4045C98.354 89.2765 98.606 86.1965 98.634 83.9425H100.846C100.37 84.6985 99.796 85.3565 99.6 85.5385C99.376 85.8045 99.152 85.9725 98.942 86.0005C99.054 86.2105 99.194 86.6305 99.25 86.7985C99.488 86.7285 99.81 86.6725 101.672 86.5185V87.9045H98.872V88.6605H101.672V90.2845H98.018V91.0685H105.984V90.2845H102.582ZM120.95 81.8565C120.768 81.2405 120.278 80.2465 119.816 79.5185L119.116 79.7705C119.578 80.5265 120.04 81.5205 120.208 82.1505L120.95 81.8565ZM113.18 80.1625V80.9185H117.408V80.1625H115.868C115.714 79.7425 115.462 79.1685 115.252 78.7345L114.482 78.9025C114.65 79.2805 114.846 79.7705 114.986 80.1625H113.18ZM111.71 82.1505H110.156V80.0925H111.71V82.1505ZM110.156 88.1425V85.8325H111.71V87.7925L110.156 88.1425ZM111.71 85.0345H110.156V82.9485H111.71V85.0345ZM113.18 80.0925V79.2385H108.644V80.0925H109.428V88.2965C109.092 88.3665 108.798 88.4225 108.518 88.4785L108.7 89.2765C109.568 89.0665 110.632 88.8425 111.71 88.5765V91.3905H112.452V80.0925H113.18ZM116.386 85.2165V86.5745H114.272V85.2165H116.386ZM114.272 88.6745V87.2605H116.386V88.6745H114.272ZM116.386 89.3605V89.7385H117.128V84.5165H113.516V90.3405H114.272V89.3605H116.386ZM120.39 84.5025C120.082 85.5105 119.662 86.4345 119.158 87.2745C119.004 86.2525 118.892 85.0345 118.808 83.6625H121.342V82.8505H118.766C118.696 81.5345 118.654 80.1205 118.64 78.6365H117.828C117.856 80.1205 117.898 81.5345 117.968 82.8505H116.484C116.638 82.3745 116.82 81.7585 116.988 81.1985L116.204 81.0725C116.12 81.5625 115.938 82.3045 115.77 82.8505H114.72C114.664 82.3465 114.496 81.6185 114.328 81.0725L113.628 81.1705C113.782 81.7025 113.908 82.3465 113.978 82.8505H112.97V83.6625H118.01C118.122 85.4265 118.276 86.9945 118.5 88.2405C117.758 89.2625 116.876 90.0885 115.952 90.7325C116.134 90.8585 116.386 91.0965 116.512 91.2365C117.282 90.6905 118.038 89.9905 118.71 89.1925C119.074 90.5365 119.578 91.3345 120.278 91.3485C120.74 91.3625 121.16 90.7885 121.426 88.6745C121.272 88.6185 120.95 88.3945 120.81 88.2265C120.712 89.5285 120.516 90.3265 120.292 90.3265C119.9 90.3125 119.592 89.5845 119.34 88.3805C120.082 87.3445 120.698 86.1545 121.132 84.8525L120.39 84.5025ZM128.482 88.7865C127.544 89.4025 125.724 89.9625 124.268 90.2145C124.464 90.3825 124.73 90.6905 124.842 90.9145C126.298 90.5785 128.188 89.8785 129.182 89.1225L128.482 88.7865ZM131.8 89.2345C133.172 89.7245 134.992 90.4385 135.93 90.8865L136.49 90.2705C135.51 89.8225 133.704 89.1505 132.346 88.7165L131.8 89.2345ZM132.696 81.9405C132.5 82.3605 132.136 82.9905 131.828 83.3965L132.332 83.5505H128.44L128.986 83.3965C128.86 83.0045 128.524 82.3885 128.202 81.9405H132.696ZM130.848 87.2465V86.1265H135.258V85.3845H130.848V84.3065H135.944V83.5505H132.668C132.99 83.1725 133.326 82.6685 133.662 82.1785L132.808 81.9405H136.448V81.1565H134.222C134.6 80.6105 135.076 79.8125 135.468 79.0845L134.53 78.8185C134.278 79.4485 133.802 80.3865 133.41 80.9745L133.956 81.1565H132.178V78.6365H131.296V81.1565H129.504V78.6365H128.636V81.1565H126.844L127.572 80.8765C127.348 80.3025 126.844 79.4345 126.34 78.7905L125.556 79.0705C126.018 79.7145 126.508 80.5825 126.718 81.1565H124.394V81.9405H128.062L127.32 82.1365C127.614 82.5705 127.936 83.1305 128.062 83.5505H124.954V84.3065H129.924V85.3845H125.668V86.1265H129.924V87.2465H124.352V88.0445H129.924V91.3905H130.848V88.0445H136.504V87.2465H130.848ZM151.302 79.9245H146.556C146.402 79.4905 146.15 78.9445 145.856 78.5245L144.946 78.7205C145.17 79.0705 145.394 79.5325 145.52 79.9245H140.41V80.7645H151.302V79.9245ZM149.216 86.1405V87.6945H142.496V86.1405H149.216ZM142.496 90.0745V88.4505H149.216V90.0745H142.496ZM141.572 91.4045H142.496V90.8725H149.216V91.3765H150.168V85.3285H141.572V91.4045ZM148.376 83.2145C148.726 82.5845 149.104 81.7865 149.454 81.0865L148.446 80.8345C148.208 81.5205 147.76 82.5425 147.396 83.2145H143.574L144.162 83.0605C144.036 82.4585 143.658 81.5485 143.224 80.8905L142.342 81.0865C142.734 81.7305 143.07 82.5985 143.196 83.2145H139.612V84.0685H152.002V83.2145H148.376ZM167.374 85.4965C167.248 84.9225 166.954 84.0545 166.702 83.3685L166.072 83.5785C166.156 83.8585 166.268 84.1665 166.366 84.4885L164.602 84.6845C165.526 83.6065 166.464 82.2345 167.22 80.8485L166.506 80.4705C166.296 80.9045 166.072 81.3385 165.82 81.7725L164.336 81.9265C164.868 81.1005 165.414 80.0225 165.834 78.9445L165.05 78.6925C164.7 79.8825 164 81.1425 163.79 81.4785C163.594 81.8005 163.412 82.0385 163.244 82.0665C163.342 82.2765 163.44 82.6685 163.482 82.8365C163.664 82.7525 163.958 82.6825 165.386 82.4865C164.896 83.2285 164.448 83.8165 164.252 84.0545C163.916 84.4885 163.636 84.7825 163.398 84.8385C163.496 85.0345 163.622 85.4265 163.65 85.5805C163.86 85.4825 164.21 85.4125 166.548 85.1045C166.604 85.3425 166.66 85.5525 166.688 85.7205L167.374 85.4965ZM162.166 82.2485H160.234V80.7225H162.166V82.2485ZM162.166 84.5025H160.234V82.9625H162.166V84.5025ZM163.006 79.9805H161.298C161.424 79.6165 161.578 79.1545 161.732 78.7485L160.85 78.5805C160.808 78.9585 160.682 79.5325 160.556 79.9805H159.422V85.2445H163.006V79.9805ZM159.128 85.4265C159.058 84.8105 158.834 83.8585 158.596 83.1305L157.952 83.2845C158.036 83.5925 158.134 83.9425 158.204 84.2925L156.37 84.5165C157.308 83.4385 158.246 82.0525 159.016 80.6805L158.316 80.3165C158.092 80.7785 157.826 81.2405 157.574 81.6885L156.3 81.8145C156.818 81.0305 157.35 79.9945 157.742 78.9865L157 78.7065C156.65 79.8405 155.964 81.0585 155.754 81.3665C155.572 81.6885 155.404 81.8985 155.222 81.9265C155.306 82.1365 155.432 82.5285 155.474 82.6825C155.628 82.5985 155.894 82.5425 157.14 82.3745C156.664 83.1025 156.244 83.6905 156.048 83.9145C155.698 84.3345 155.446 84.6285 155.208 84.6845C155.292 84.8805 155.432 85.2725 155.46 85.4405C155.656 85.3145 156.006 85.2445 158.344 84.9085C158.386 85.1605 158.414 85.3985 158.442 85.5945L159.128 85.4265ZM159.184 87.7505C158.232 88.7865 156.356 89.7105 154.746 90.1445C154.956 90.3265 155.222 90.6625 155.362 90.9145C157.014 90.3825 158.932 89.2905 159.954 88.0865L159.184 87.7505ZM162.586 88.2825C164.042 89.0385 165.89 90.2145 166.786 90.9985L167.374 90.2845C166.436 89.5285 164.588 88.3945 163.132 87.6525L162.586 88.2825ZM161.662 86.4765V85.6085H160.738V86.4765H154.984V87.2885H160.738V91.3765H161.662V87.2885H167.402V86.4765H161.662ZM176.11 78.6785C176.068 80.7785 176.11 87.6945 170.286 90.6065C170.552 90.8025 170.86 91.0825 171.014 91.3205C174.542 89.4865 176.012 86.1965 176.628 83.3405C177.3 85.9725 178.77 89.5845 182.368 91.2785C182.508 91.0125 182.788 90.7045 183.04 90.4945C178.098 88.2825 177.244 82.3185 177.034 80.6945C177.104 79.8685 177.118 79.1685 177.132 78.6785H176.11ZM191.552 83.6345V84.5865H187.66V83.6345H191.552ZM187.604 86.2525C187.632 85.9025 187.646 85.5525 187.66 85.2305H191.552V86.2525H187.604ZM192.42 86.9665V82.9205H186.792V84.8665C186.792 86.4345 186.638 88.6885 185.546 90.3685C185.756 90.4525 186.148 90.6485 186.33 90.7885C187.044 89.6825 187.38 88.2825 187.534 86.9665H192.42ZM188.248 81.5485V82.1785H191.202V81.5485H188.248ZM191.902 88.3665V89.9345H188.374V88.3665H191.902ZM187.576 91.2785H188.374V90.6765H191.902V91.2505H192.742V87.6525H187.576V91.2785ZM189.438 78.7625C188.626 80.1765 187.1 81.3665 185.56 82.1225C185.728 82.3185 185.994 82.7525 186.092 82.9625C187.352 82.2625 188.654 81.2545 189.606 80.0785C190.726 80.7785 192.028 81.6745 192.714 82.2485L193.218 81.4925C192.518 80.9325 191.188 80.0785 190.096 79.4205C190.166 79.2945 190.236 79.1825 190.306 79.0705L189.438 78.7625ZM194.968 80.2045H194.086V87.8625H194.968V80.2045ZM196.732 78.7065V90.1165C196.732 90.3685 196.634 90.4385 196.396 90.4385C196.186 90.4525 195.416 90.4525 194.548 90.4385C194.688 90.7045 194.814 91.1105 194.87 91.3625C196.018 91.3625 196.69 91.3345 197.096 91.1805C197.474 91.0125 197.642 90.7325 197.642 90.1025V78.7065H196.732ZM204.488 78.6785C203.69 80.8345 202.374 82.9345 200.974 84.2925C201.156 84.5025 201.422 84.9925 201.52 85.2025C202.024 84.6845 202.542 84.0825 203.004 83.4105V91.3625H203.942V81.9685C204.488 81.0025 204.978 79.9805 205.384 78.9585L204.488 78.6785ZM213.798 81.8705V80.9745H207.876C208.156 80.3445 208.436 79.7005 208.674 79.0425L207.778 78.8185C207.092 80.8625 205.958 82.8925 204.684 84.1945C204.908 84.3485 205.258 84.6705 205.412 84.8245C206.126 84.0265 206.826 83.0045 207.428 81.8705H208.464V91.3765H209.402V87.9325H213.672V87.0505H209.402V84.8385H213.49V83.9705H209.402V81.8705H213.798ZM226.566 80.7645C226.02 80.1205 224.872 79.2665 223.892 78.6785L223.29 79.2245C224.27 79.8125 225.39 80.7225 225.922 81.3805L226.566 80.7645ZM221.764 88.0445C222.436 86.9665 222.744 85.1745 222.926 83.7185L222.17 83.5505C222.002 84.9645 221.68 86.6725 221.022 87.6805L221.764 88.0445ZM220.14 80.4425C219.888 79.9385 219.328 79.2245 218.796 78.6785L218.124 79.1405C218.614 79.6585 219.16 80.4285 219.412 80.9325L220.14 80.4425ZM221.512 86.1125C221.246 85.8185 220.266 84.8385 219.762 84.3625C220.49 83.4525 221.12 82.4165 221.554 81.3665L221.05 81.0025L220.868 81.0445H216.612V81.8985H220.378C219.468 83.6905 217.802 85.4125 216.262 86.3645C216.388 86.5325 216.598 86.9805 216.682 87.2465C217.354 86.8125 218.04 86.2245 218.684 85.5665V91.3765H219.594V85.2865C220.07 85.8185 220.644 86.4905 220.91 86.8545L221.512 86.1125ZM229.296 87.6385C229.142 86.4905 228.582 84.7825 227.882 83.4665L227.126 83.6765C227.644 82.4305 228.092 81.1005 228.498 79.6865L227.602 79.4905C226.874 82.2205 225.88 84.6565 224.55 86.6865V81.7165H223.668V87.8905C222.87 88.8845 221.974 89.7665 220.938 90.4945C221.148 90.6485 221.526 90.9565 221.694 91.1245C222.408 90.5785 223.066 89.9625 223.668 89.2905V89.8225C223.668 90.9985 223.948 91.3065 225.054 91.3065H226.93C227.938 91.3065 228.176 90.7325 228.274 88.7585C228.036 88.7025 227.686 88.5485 227.476 88.3805C227.42 90.1165 227.336 90.4805 226.86 90.4805H225.152C224.648 90.4805 224.55 90.3825 224.55 89.8505V88.2125C225.544 86.8965 226.398 85.3845 227.112 83.6905C227.756 85.0205 228.302 86.7425 228.442 87.8765L229.296 87.6385ZM236.394 85.6365L236.296 84.7825L234.7 85.2445V82.3465H236.282V81.4785H234.7V78.6365H233.776V81.4785H231.956V82.3465H233.776V85.5105C233.02 85.7205 232.334 85.9025 231.774 86.0425L232.054 86.9525L233.776 86.4345V90.2285C233.776 90.4385 233.706 90.5085 233.51 90.5085C233.342 90.5225 232.726 90.5225 232.054 90.5085C232.166 90.7605 232.306 91.1245 232.348 91.3625C233.3 91.3625 233.86 91.3345 234.21 91.1945C234.546 91.0405 234.7 90.7885 234.7 90.2285V86.1545L236.394 85.6365ZM242.638 84.7545C242.106 86.0845 241.266 87.2185 240.258 88.1145C239.334 87.1905 238.606 86.0425 238.13 84.7545H242.638ZM243.212 83.8585L243.044 83.9005H240.72V81.7305H244.122V80.8625H240.72V78.6225H239.81V80.8625H236.464V81.7305H239.81V83.9005H236.772V84.7545H237.192C237.738 86.2945 238.536 87.6105 239.544 88.7025C238.382 89.5565 237.038 90.1725 235.666 90.5505C235.848 90.7465 236.086 91.1245 236.198 91.3905C237.626 90.9425 239.012 90.2705 240.23 89.3465C241.28 90.2565 242.54 90.9565 244.01 91.4045C244.15 91.1525 244.416 90.7885 244.612 90.5925C243.184 90.2145 241.952 89.5845 240.93 88.7305C242.204 87.5545 243.212 86.0425 243.8 84.1245L243.212 83.8585Z" fill="white"/>
</svg>
