<svg width="300" height="84" viewBox="0 0 300 84" fill="none" xmlns="http://www.w3.org/2000/svg">
<path d="M276.716 15.3707H9.32031V50.5124H276.716V15.3707Z" fill="#00FF63"/>
<path d="M276.388 15.7279V50.1552H9.67748V15.7279H276.388ZM277.132 14.9837H9.00769V50.8398H277.132V15.0135V14.9837Z" fill="black"/>
<path d="M288.295 14.8498H276.448V50.1477H288.295V14.8498Z" fill="black"/>
<path d="M287.856 15.2963V49.7235H276.887V15.2963H287.856ZM288.735 14.4181H276.016V50.5942H288.735V14.4181Z" fill="#00FF63"/>
<path d="M273.337 32.7927L283.436 22.6937L293.535 32.7927L298.335 28L288.236 17.8936L298.335 7.79461L293.535 2.99445L283.436 13.1008L273.337 2.99445L268.537 7.79461L278.643 17.8936L268.537 27.9925L273.337 32.7927Z" fill="#00FF63" stroke="black" stroke-width="1.1" stroke-miterlimit="10"/>
<path d="M271.335 30.7908L281.434 20.6918L291.54 30.7908L296.333 25.9981L286.234 15.8991L296.333 5.79272L291.54 1L281.434 11.099L271.335 1L266.542 5.79272L276.641 15.8991L266.542 25.9981L271.335 30.7908Z" fill="#00FF63" stroke="black" stroke-width="1.1" stroke-miterlimit="10"/>
<path d="M9.67751 50.2891H1V58.9666H9.67751V50.2891Z" fill="black" stroke="black" stroke-width="0.59" stroke-miterlimit="10"/>
<path d="M18.355 41.6116H9.67749V50.2891H18.355V41.6116Z" fill="black" stroke="black" stroke-width="0.59" stroke-miterlimit="10"/>
<path d="M9.67751 32.9415H1V41.619H9.67751V32.9415Z" fill="black" stroke="black" stroke-width="0.59" stroke-miterlimit="10"/>
<path d="M18.355 24.264H9.67749V32.9415H18.355V24.264Z" fill="black" stroke="black" stroke-width="0.59" stroke-miterlimit="10"/>
<path d="M9.67751 15.594H1V24.2715H9.67751V15.594Z" fill="black" stroke="black" stroke-width="0.59" stroke-miterlimit="10"/>
<path d="M18.355 6.91644H9.67749V15.594H18.355V6.91644Z" fill="black" stroke="black" stroke-width="0.59" stroke-miterlimit="10"/>
<path d="M297.717 49.6491H9.17151V83.6965H297.717V49.6491Z" fill="black"/>
<path d="M296.988 50.3785V82.6769H9.45427V50.3785H296.988ZM298 49.3737H8.44214V83.6891H298V49.3737Z" fill="#00FF63"/>
<path d="M28.616 41.768H32.28V40.488H30.376V27.4H32.28V26.152H28.616V41.768ZM37.3189 36.184V37.976H35.8309V36.184H37.3189ZM38.9509 34.664H34.1829V40.184H35.8309V39.512H38.9509V34.664ZM34.1829 33.896H38.9189V32.456H34.1829V33.896ZM34.1829 30.312V31.752H38.8869V30.312H34.1829ZM37.6389 27.512C37.4149 26.904 36.9509 26.04 36.5509 25.368L35.1589 26.072C35.5109 26.664 35.8949 27.48 36.1189 28.072H33.5269V29.592H39.4149V28.072H36.6469L37.6389 27.512ZM43.2069 33V35.064H41.7189V33H43.2069ZM44.8229 36.664V31.4H40.1349V37.608H41.7189V36.664H44.8229ZM45.2869 28.84H39.7349V30.44H45.2869V28.84ZM47.7189 26.152H39.4149V27.896H45.9909V38.168C45.9909 38.44 45.8949 38.536 45.6229 38.536C45.3509 38.536 44.4229 38.552 43.5909 38.504C43.8309 39 44.0869 39.864 44.1509 40.392C45.4629 40.392 46.3589 40.344 46.9509 40.04C47.5429 39.72 47.7189 39.208 47.7189 38.2V26.152ZM59.3509 37.592V34.936H61.3669V37.592H59.3509ZM51.7669 34.936H53.6869V37.592H51.7669V34.936ZM53.6869 30.456V33.128H51.7669V30.456H53.6869ZM57.4789 34.936V37.592H55.5589V34.936H57.4789ZM57.4789 30.456V33.128H55.5589V30.456H57.4789ZM61.3669 30.456V33.128H59.3509V30.456H61.3669ZM59.3509 28.6V25.608H57.4789V28.6H55.5589V25.608H53.6869V28.6H49.9589V40.344H51.7669V39.464H61.3669V40.328H63.2389V28.6H59.3509ZM68.8229 28.824C69.1749 28.52 69.5269 28.184 69.8629 27.864C70.3429 28.168 70.8709 28.504 71.3829 28.824H68.8229ZM71.5109 31.784V32.408H67.8789V32.312V31.784H71.5109ZM67.8149 34.184C67.8309 33.96 67.8469 33.736 67.8469 33.528H71.5109V34.184H67.8149ZM71.9589 37.288V38.424H68.9989V37.288H71.9589ZM71.4949 29.944V28.904C72.1829 29.352 72.8069 29.768 73.2389 30.12L74.2149 28.52C73.4789 27.992 72.1509 27.208 70.9669 26.52C71.0629 26.392 71.1589 26.264 71.2549 26.12L69.5109 25.432C68.4869 26.968 66.6149 28.28 64.7589 29.064C65.0789 29.48 65.5749 30.44 65.7509 30.888L66.1189 30.696V32.312C66.1189 34.184 65.9909 37.048 64.7269 39.08C65.1909 39.224 66.0229 39.576 66.3909 39.816C66.8549 39 67.1909 38.024 67.4149 37.016V40.328H68.9989V39.832H71.9589V40.264H73.6229V35.992H67.6069C67.6389 35.832 67.6549 35.656 67.6869 35.496H73.2389V30.472H66.4869C67.0789 30.136 67.6389 29.736 68.1989 29.32V29.944H71.4949ZM76.3109 27.096H74.5189V36.024H76.3109V27.096ZM77.4149 25.496V38.088C77.4149 38.36 77.3029 38.44 77.0469 38.44C76.7909 38.44 75.9589 38.44 75.1429 38.424C75.3989 38.952 75.6229 39.8 75.7029 40.328C76.9829 40.328 77.8949 40.264 78.4549 39.944C79.0469 39.64 79.2389 39.128 79.2389 38.104V25.496H77.4149ZM84.1189 25.512C83.3189 27.784 81.9269 30.056 80.4709 31.496C80.8069 31.976 81.3509 33.064 81.5269 33.528C81.8469 33.176 82.1829 32.776 82.5189 32.376V40.376H84.4389V29.416C85.0309 28.344 85.5589 27.208 85.9749 26.088L84.1189 25.512ZM95.5909 29.864V28.056H89.3829C89.6869 27.4 89.9429 26.744 90.1669 26.072L88.3269 25.608C87.6069 27.896 86.3429 30.2 84.9349 31.64C85.3349 31.944 86.0869 32.616 86.3909 32.968C87.1109 32.136 87.8469 31.048 88.4869 29.864H89.0949V40.392H91.0469V36.84H95.3989V35.08H91.0469V33.272H95.1909V31.544H91.0469V29.864H95.5909ZM103.479 24.92V40.92H104.215V24.92H103.479ZM122.967 34.648V35.704H116.327V34.648H122.967ZM116.327 38.296V37.144H122.967V38.296H116.327ZM114.423 40.424H116.327V39.864H122.967V40.408H124.967V33.064H114.423V40.424ZM122.039 28.424C121.863 29.048 121.575 29.8 121.319 30.392H118.023C117.911 29.816 117.591 29.032 117.207 28.424H122.039ZM123.399 30.392C123.655 29.896 123.927 29.336 124.199 28.744L122.727 28.424H126.039V26.744H120.887C120.727 26.264 120.487 25.72 120.215 25.272L118.231 25.592C118.407 25.928 118.599 26.344 118.727 26.744H113.335V28.424H116.855L115.303 28.728C115.559 29.224 115.799 29.848 115.943 30.392H112.439V32.088H126.791V30.392H123.399ZM133.047 33.352C132.951 32.568 132.727 31.416 132.471 30.504L131.271 30.776C131.351 31.096 131.431 31.448 131.495 31.816L130.231 31.944C131.239 30.824 132.247 29.496 132.999 28.184L131.655 27.448C131.447 27.912 131.175 28.376 130.919 28.824L130.087 28.888C130.647 28.072 131.191 27.08 131.591 26.152L130.119 25.64C129.767 26.856 129.063 28.104 128.839 28.44C128.615 28.776 128.407 29.016 128.167 29.064C128.343 29.448 128.583 30.136 128.663 30.44C128.839 30.344 129.127 30.264 130.071 30.136C129.671 30.696 129.319 31.128 129.159 31.32C128.759 31.784 128.455 32.088 128.119 32.168C128.295 32.536 128.535 33.272 128.615 33.544C128.887 33.416 129.335 33.304 131.703 32.984C131.735 33.224 131.767 33.448 131.783 33.64L133.047 33.352ZM132.327 36.28C131.351 37.208 129.495 38.008 127.719 38.36C128.119 38.728 128.679 39.464 128.967 39.928C130.871 39.4 132.743 38.232 133.863 36.856L132.327 36.28ZM142.567 35.8V34.232H136.375V33.464H134.471V34.232H128.135V35.8H134.471V40.344H136.375V35.8H142.567ZM137.191 37.272C138.615 38.056 140.503 39.256 141.383 40.04L142.599 38.68C141.639 37.912 139.703 36.792 138.311 36.088L137.191 37.272ZM135.959 29.304H134.759V28.232H135.959V29.304ZM135.959 31.72H134.759V30.6H135.959V31.72ZM135.911 26.84L136.423 25.624L134.695 25.336C134.663 25.768 134.551 26.328 134.423 26.84H133.143V33.112H137.639V26.84H135.911ZM140.871 30.984C140.951 31.288 141.031 31.624 141.111 31.976L139.863 32.088C140.903 30.984 141.927 29.624 142.727 28.312L141.351 27.528C141.143 27.96 140.903 28.392 140.679 28.792L139.607 28.888C140.167 28.056 140.743 27.048 141.127 26.056L139.591 25.624C139.239 26.856 138.519 28.136 138.295 28.472C138.087 28.808 137.863 29.048 137.639 29.112C137.815 29.496 138.055 30.2 138.135 30.52C138.327 30.408 138.647 30.328 139.751 30.168C139.335 30.76 138.967 31.208 138.791 31.4C138.391 31.848 138.087 32.152 137.751 32.232C137.927 32.616 138.167 33.368 138.247 33.672C138.519 33.528 138.983 33.432 141.367 33.176C141.399 33.4 141.431 33.608 141.447 33.8L142.727 33.464C142.599 32.712 142.327 31.56 142.055 30.68L140.871 30.984ZM144.071 31.736C144.311 31.624 144.679 31.528 145.943 31.384C145.479 32.072 145.079 32.6 144.855 32.84C144.391 33.448 144.039 33.816 143.655 33.912C143.831 34.344 144.103 35.144 144.183 35.448C144.535 35.288 145.063 35.144 148.231 34.632C148.263 34.792 148.295 34.936 148.311 35.064L149.623 34.52C149.495 33.736 149.047 32.472 148.583 31.528L147.335 31.992C147.527 32.392 147.703 32.856 147.863 33.32L146.087 33.56C147.303 32.104 148.487 30.312 149.383 28.584L147.991 27.688C147.655 28.44 147.255 29.192 146.855 29.896L145.735 29.976C146.503 28.84 147.239 27.448 147.799 26.12L146.263 25.496C145.703 27.176 144.727 28.952 144.407 29.384C144.103 29.864 143.847 30.168 143.543 30.248C143.735 30.664 143.991 31.448 144.071 31.768V31.736ZM144.119 35.96C144.023 37.24 143.831 38.664 143.479 39.608C143.863 39.688 144.535 39.896 144.839 40.072C145.159 39.112 145.415 37.592 145.527 36.184L144.119 35.96ZM145.831 36.168C145.991 37.208 146.151 38.568 146.167 39.496L147.527 39.144C147.479 38.232 147.303 36.888 147.111 35.848L145.831 36.168ZM155.959 35.784V34.568H156.663V35.784H155.959ZM154.279 35.784V34.568H154.935V35.784H154.279ZM152.567 35.784V34.568H153.255V35.784H152.567ZM156.055 29.8V30.856H151.511C151.511 30.552 151.511 30.264 151.511 29.992V29.8H156.055ZM158.103 33.048H151.431L151.463 32.296H157.735V28.344H151.511V27.784C153.687 27.576 156.007 27.256 157.783 26.728L156.407 25.464C154.855 25.96 152.199 26.328 149.831 26.52V30.008C149.831 31.96 149.783 34.744 149.287 37.208C149.127 36.6 148.935 35.944 148.711 35.384L147.495 35.784C147.767 36.616 148.087 37.736 148.215 38.44L149.079 38.12C148.983 38.584 148.855 39.016 148.695 39.432C149.095 39.576 149.879 40.008 150.199 40.296C150.695 38.968 151.015 37.32 151.207 35.672V40.392H152.567V37.256H153.255V40.184H154.279V37.256H154.935V40.104H155.959V37.256H156.663V38.888C156.663 39.016 156.631 39.048 156.535 39.048C156.439 39.048 156.247 39.048 156.023 39.032C156.199 39.4 156.343 39.912 156.375 40.296C156.935 40.296 157.351 40.28 157.671 40.056C158.023 39.832 158.103 39.512 158.103 38.904V33.048ZM169.671 37.592V34.936H171.687V37.592H169.671ZM162.087 34.936H164.007V37.592H162.087V34.936ZM164.007 30.456V33.128H162.087V30.456H164.007ZM167.799 34.936V37.592H165.879V34.936H167.799ZM167.799 30.456V33.128H165.879V30.456H167.799ZM171.687 30.456V33.128H169.671V30.456H171.687ZM169.671 28.6V25.608H167.799V28.6H165.879V25.608H164.007V28.6H160.279V40.344H162.087V39.464H171.687V40.328H173.559V28.6H169.671ZM182.279 24.92V40.92H183.015V24.92H182.279ZM202.903 29.064L201.783 29.72C202.023 30.008 202.279 30.344 202.551 30.68L198.407 30.904C198.903 30.328 199.399 29.72 199.879 29.064H202.903ZM205.911 32.232C205.335 31.4 204.215 30.072 203.383 29.064H205.591V27.368H201.047C201.319 26.936 201.575 26.52 201.799 26.088L199.943 25.368C199.623 26.056 199.239 26.728 198.871 27.368H195.671V29.064H197.767C197.399 29.576 197.095 29.96 196.903 30.152C196.423 30.712 196.087 31.048 195.687 31.16C195.895 31.624 196.183 32.536 196.279 32.904C196.871 32.68 197.735 32.6 203.671 32.184C203.943 32.568 204.183 32.936 204.359 33.208L205.911 32.232ZM195.575 27.368C194.951 26.76 193.639 26.056 192.663 25.624L191.591 27.016C192.615 27.496 193.879 28.296 194.455 28.888L195.575 27.368ZM194.967 31.576C194.311 31.032 192.951 30.36 191.943 29.976L190.951 31.432C191.975 31.864 193.287 32.616 193.911 33.16L194.967 31.576ZM194.263 33.88C193.303 35.736 192.087 37.72 191.239 38.92L192.855 40.2C193.799 38.648 194.807 36.824 195.655 35.16L194.263 33.88ZM196.903 34.632C196.903 36.024 196.695 37.768 194.903 39.08C195.335 39.336 195.975 39.944 196.247 40.328C198.359 38.712 198.615 36.472 198.615 34.696V33.144H196.903V34.632ZM199.591 39.688H201.255V33.288H199.591V39.688ZM204.279 38.568C204.071 38.568 204.055 38.392 204.055 37.88V33.144H202.311V37.864C202.311 39.384 202.599 40.024 204.103 40.024H204.903C205.223 40.024 205.559 40.008 205.799 39.912C205.735 39.512 205.687 38.92 205.655 38.472C205.447 38.536 205.111 38.568 204.887 38.568H204.279ZM221.095 26.36H213.319V28.168H221.095V26.36ZM210.247 25.448C209.479 26.568 207.959 28.008 206.631 28.856C206.967 29.224 207.447 29.992 207.687 30.408C209.207 29.352 210.935 27.704 212.087 26.2L210.247 25.448ZM210.855 28.904C209.831 30.712 208.087 32.568 206.455 33.688C206.839 34.088 207.479 34.952 207.751 35.336C208.183 34.984 208.615 34.584 209.063 34.152V40.408H210.967V32.056C211.607 31.256 212.199 30.424 212.679 29.608L210.855 28.904ZM221.495 30.76H212.647V32.568H217.367V38.136C217.367 38.376 217.255 38.44 216.967 38.44C216.679 38.456 215.623 38.456 214.711 38.408C214.967 38.952 215.207 39.784 215.287 40.344C216.711 40.344 217.735 40.312 218.407 40.024C219.111 39.736 219.303 39.208 219.303 38.184V32.568H221.495V30.76ZM225.959 35.992V37.048H224.663V35.992H225.959ZM227.431 38.36V34.696H223.127V38.92H224.663V38.36H227.431ZM229.847 31.528C230.295 31.768 230.951 32.152 231.271 32.408H229.847V31.528ZM234.407 30.184H232.711V31.4C232.711 33.352 232.439 36.44 229.943 38.744V38.68V34.04H231.431V32.408H231.303C231.815 31.624 232.247 30.584 232.615 29.432H235.543C235.399 30.44 235.207 31.464 235.047 32.168L236.535 32.6C236.887 31.448 237.287 29.624 237.543 28.04L236.263 27.688L236.007 27.768H233.079C233.239 27.096 233.367 26.424 233.479 25.736L231.671 25.432C231.367 27.64 230.759 29.848 229.847 31.272V27.64H230.775V26.04H222.615V27.64H228.167V32.408H222.439V34.04H228.263V38.648C228.263 38.824 228.199 38.872 227.991 38.888C227.799 38.888 227.111 38.888 226.519 38.856C226.711 39.24 226.951 39.784 227.031 40.2C228.039 40.2 228.759 40.184 229.271 39.976C229.623 39.832 229.799 39.64 229.879 39.32C230.231 39.64 230.599 40.104 230.775 40.44C232.295 39.144 233.207 37.608 233.719 36.088C234.375 37.8 235.271 39.128 236.631 40.36C236.855 39.848 237.367 39.288 237.831 38.952C235.943 37.416 235.015 35.592 234.375 32.584C234.391 32.168 234.407 31.8 234.407 31.432V30.184ZM225.767 30.552H224.551V29.496H225.767V30.552ZM223.207 28.264V31.768H227.207V28.264H223.207ZM250.071 28.408H246.279V27.448H250.071V28.408ZM250.071 30.728H246.279V29.752H250.071V30.728ZM252.007 25.992H244.455V32.168H252.007V25.992ZM241.639 28.584V34.472H240.503V28.584H241.639ZM243.383 26.84H238.791V37.64H240.503V36.216H243.383V26.84ZM245.879 38.216V37.16H250.567V38.216H245.879ZM250.567 34.632V35.608H245.879V34.632H250.567ZM243.991 33.032V40.392H245.879V39.816H250.567V40.312H252.535V33.032H243.991ZM257.6 41.768H261.264V26.152H257.6V27.4H259.504V40.488H257.6V41.768Z" fill="#202020"/>
<path d="M39.75 63.048C39.414 62.67 38.756 62.082 38.168 61.62C38.42 60.948 38.63 60.22 38.784 59.45L37.874 59.31C37.468 61.438 36.628 63.244 35.312 64.378C35.522 64.518 35.872 64.854 36.012 65.022C36.754 64.322 37.37 63.426 37.86 62.376C38.406 62.838 38.98 63.398 39.302 63.776L39.75 63.048ZM34.5 59.31C33.884 60.304 32.624 61.508 31.518 62.264C31.672 62.404 31.924 62.74 32.05 62.922C33.24 62.096 34.542 60.808 35.34 59.632L34.5 59.31ZM34.85 62.11C34.01 63.594 32.652 65.064 31.35 66.044C31.504 66.24 31.798 66.66 31.896 66.856C32.442 66.408 33.016 65.862 33.562 65.274V72.106H34.43V64.252C34.892 63.65 35.326 63.034 35.676 62.404L34.85 62.11ZM40.52 67.948H43.698V67.136H40.52V64.728H39.932C40.632 64.14 41.192 63.384 41.626 62.488C42.466 63.258 43.348 64.196 43.81 64.826L44.468 64.182C43.95 63.51 42.886 62.46 41.962 61.704C42.214 61.018 42.396 60.262 42.522 59.436L41.626 59.324C41.318 61.494 40.534 63.174 39.106 64.21C39.288 64.336 39.61 64.56 39.778 64.728H39.666V70.72C38.728 70.314 38.028 69.474 37.594 67.892C37.706 67.262 37.79 66.576 37.832 65.82L36.936 65.75C36.81 68.34 36.292 70.244 34.85 71.42C35.06 71.56 35.438 71.868 35.578 72.008C36.376 71.28 36.908 70.37 37.272 69.25C38.168 71.392 39.624 71.91 41.738 71.91H44.104C44.132 71.686 44.272 71.266 44.412 71.07C43.978 71.07 42.088 71.084 41.794 71.07C41.346 71.07 40.912 71.042 40.52 70.972V67.948ZM50.306 61.046C50.11 60.542 49.676 59.814 49.298 59.254L48.626 59.632C48.976 60.192 49.41 60.976 49.606 61.48L50.306 61.046ZM50.754 67.962V70.412H48.5V67.962H50.754ZM51.58 67.178H47.688V71.868H48.5V71.196H51.58V67.178ZM47.702 66.072H51.566V65.316H47.702V66.072ZM47.702 63.51V64.252H51.552V63.51H47.702ZM47.142 62.46H52.056V61.69H47.142V62.46ZM56.102 65.134V67.934H53.792V65.134H56.102ZM56.928 68.746V64.322H52.98V69.698H53.792V68.746H56.928ZM57.614 62.236H52.448V63.048H57.614V62.236ZM59.28 60.024H52.112V60.892H58.426V70.818C58.426 71.056 58.342 71.126 58.104 71.14C57.866 71.14 57.054 71.154 56.172 71.126C56.312 71.378 56.452 71.798 56.494 72.064C57.6 72.064 58.342 72.05 58.748 71.882C59.14 71.728 59.28 71.434 59.28 70.832V60.024ZM70.886 70.244V67.038H73.504V70.244H70.886ZM64.124 67.038H66.602V70.244H64.124V67.038ZM66.602 63.006V66.142H64.124V63.006H66.602ZM69.976 67.038V70.244H67.512V67.038H69.976ZM69.976 63.006V66.142H67.512V63.006H69.976ZM73.504 63.006V66.142H70.886V63.006H73.504ZM70.886 62.096V59.45H69.976V62.096H67.512V59.45H66.602V62.096H63.242V72.078H64.124V71.154H73.504V72.008H74.414V62.096H70.886ZM83.752 64.308V65.26H79.86V64.308H83.752ZM79.804 66.926C79.832 66.576 79.846 66.226 79.86 65.904H83.752V66.926H79.804ZM84.62 67.64V63.594H78.992V65.54C78.992 67.108 78.838 69.362 77.746 71.042C77.956 71.126 78.348 71.322 78.53 71.462C79.244 70.356 79.58 68.956 79.734 67.64H84.62ZM80.448 62.222V62.852H83.402V62.222H80.448ZM84.102 69.04V70.608H80.574V69.04H84.102ZM79.776 71.952H80.574V71.35H84.102V71.924H84.942V68.326H79.776V71.952ZM81.638 59.436C80.826 60.85 79.3 62.04 77.76 62.796C77.928 62.992 78.194 63.426 78.292 63.636C79.552 62.936 80.854 61.928 81.806 60.752C82.926 61.452 84.228 62.348 84.914 62.922L85.418 62.166C84.718 61.606 83.388 60.752 82.296 60.094C82.366 59.968 82.436 59.856 82.506 59.744L81.638 59.436ZM87.168 60.878H86.286V68.536H87.168V60.878ZM88.932 59.38V70.79C88.932 71.042 88.834 71.112 88.596 71.112C88.386 71.126 87.616 71.126 86.748 71.112C86.888 71.378 87.014 71.784 87.07 72.036C88.218 72.036 88.89 72.008 89.296 71.854C89.674 71.686 89.842 71.406 89.842 70.776V59.38H88.932ZM96.688 59.352C95.89 61.508 94.574 63.608 93.174 64.966C93.356 65.176 93.622 65.666 93.72 65.876C94.224 65.358 94.742 64.756 95.204 64.084V72.036H96.142V62.642C96.688 61.676 97.178 60.654 97.584 59.632L96.688 59.352ZM105.998 62.544V61.648H100.076C100.356 61.018 100.636 60.374 100.874 59.716L99.978 59.492C99.292 61.536 98.158 63.566 96.884 64.868C97.108 65.022 97.458 65.344 97.612 65.498C98.326 64.7 99.026 63.678 99.628 62.544H100.664V72.05H101.602V68.606H105.872V67.724H101.602V65.512H105.69V64.644H101.602V62.544H105.998ZM113.082 67.43H115.924V66.59H113.082V65.036H112.186V66.59H109.428V67.43H112.186V69.866C110.94 70.09 109.806 70.286 108.938 70.44L109.134 71.308C110.968 70.972 113.628 70.454 116.106 69.964L116.05 69.152C115.07 69.348 114.062 69.516 113.082 69.698V67.43ZM109.05 61.074H111.36C110.898 62.11 110.282 63.034 110.058 63.328C109.82 63.65 109.61 63.902 109.386 63.944C109.512 64.182 109.652 64.63 109.708 64.826C110.016 64.686 110.52 64.63 114.958 64.182C115.182 64.518 115.364 64.826 115.49 65.078L116.19 64.616C115.784 63.832 114.846 62.558 114.062 61.62L113.39 62.026C113.74 62.46 114.118 62.964 114.482 63.468L110.702 63.804C111.304 63.02 111.892 62.054 112.396 61.074H116.19V60.248H109.05V61.074ZM117.884 60.5H117.016V68.914H117.884V60.5ZM119.774 59.548V70.524C119.774 70.748 119.718 70.804 119.48 70.818C119.242 70.832 118.472 70.832 117.632 70.804C117.786 71.07 117.94 71.49 117.996 71.742C118.99 71.742 119.718 71.714 120.138 71.56C120.53 71.406 120.684 71.126 120.684 70.51V59.548H119.774ZM136.602 65.302C136.042 64.532 134.95 63.23 134.11 62.292L133.396 62.698C133.746 63.09 134.11 63.552 134.488 63.986L129.49 64.294C130.106 63.608 130.736 62.838 131.31 61.998H136.532V61.144H131.912C132.22 60.682 132.528 60.192 132.808 59.716L131.898 59.352C131.576 59.954 131.212 60.57 130.834 61.144H127.796V61.998H130.26C129.728 62.74 129.266 63.328 129.042 63.566C128.636 64.056 128.3 64.392 128.034 64.448C128.118 64.7 128.272 65.148 128.328 65.344C128.72 65.176 129.336 65.134 135.076 64.756C135.37 65.148 135.65 65.512 135.846 65.806L136.602 65.302ZM127.558 61.228C127.082 60.682 126.046 59.954 125.22 59.478L124.66 60.122C125.514 60.626 126.522 61.396 126.984 61.942L127.558 61.228ZM127.068 64.742C126.522 64.266 125.402 63.65 124.534 63.272L124.03 63.958C124.926 64.364 126.004 65.036 126.55 65.512L127.068 64.742ZM127.04 66.73C126.242 68.312 125.15 70.16 124.394 71.238L125.178 71.868C125.99 70.58 126.984 68.816 127.712 67.346L127.04 66.73ZM129.07 67.318C129.07 68.62 128.902 70.188 127.278 71.392C127.488 71.518 127.81 71.812 127.95 72.008C129.714 70.664 129.924 68.872 129.924 67.346V65.862H129.07V67.318ZM131.562 71.448H132.388V65.932H131.562V71.448ZM135.174 71.028C134.978 71.028 134.95 70.916 134.95 70.524V65.848H134.082V70.51C134.082 71.406 134.25 71.742 135.104 71.742H136.056C136.308 71.742 136.56 71.742 136.7 71.7C136.672 71.49 136.672 71.182 136.644 70.972C136.49 71.014 136.21 71.028 136.042 71.028H135.174ZM151.708 60.164H144.862V61.032H151.708V60.164ZM142.58 59.296C141.88 60.304 140.522 61.564 139.36 62.334C139.528 62.516 139.78 62.88 139.906 63.076C141.152 62.194 142.566 60.864 143.476 59.646L142.58 59.296ZM143.154 62.278C142.188 63.86 140.648 65.484 139.22 66.506C139.402 66.688 139.738 67.094 139.878 67.276C140.424 66.842 140.984 66.324 141.544 65.75V72.092H142.468V64.728C143.042 64.042 143.588 63.328 144.036 62.6L143.154 62.278ZM152.114 63.986H144.26V64.882H149.034V70.818C149.034 71.056 148.936 71.126 148.684 71.126C148.418 71.154 147.494 71.154 146.458 71.112C146.598 71.378 146.724 71.756 146.766 72.008C148.166 72.008 148.922 72.008 149.384 71.868C149.818 71.714 149.972 71.42 149.972 70.832V64.882H152.114V63.986ZM166.52 62.418C166.352 63.356 166.128 64.392 165.904 65.064L166.646 65.288C166.982 64.392 167.304 62.95 167.528 61.732L166.912 61.536L166.772 61.578H163.51C163.692 60.892 163.846 60.178 163.972 59.45L163.062 59.296C162.754 61.382 162.166 63.398 161.228 64.7C161.466 64.798 161.858 65.036 162.026 65.162C162.516 64.42 162.936 63.482 163.272 62.418H166.52ZM158.218 67.99V69.53H156.384V67.99H158.218ZM158.988 70.23V67.29H155.6V70.86H156.384V70.23H158.988ZM162.124 66.352V65.526H160.78V60.836H161.858V60.024H154.984V60.836H159.94V65.526H154.83V66.352H160.024V71.084C160.024 71.238 159.982 71.294 159.8 71.294C159.618 71.308 159.03 71.308 158.372 71.294C158.484 71.504 158.596 71.784 158.652 72.008C159.534 72.008 160.094 71.994 160.43 71.868C160.766 71.756 160.864 71.56 160.864 71.098V66.352H162.124ZM158.204 63.874H156.454V62.404H158.204V63.874ZM155.74 61.718V64.56H158.96V61.718H155.74ZM164.868 63.3H164V64.224C164 66.24 163.79 69.194 161.102 71.462C161.284 71.616 161.592 71.924 161.732 72.134C163.328 70.762 164.126 69.138 164.504 67.584C165.064 69.488 165.876 70.846 167.262 72.092C167.374 71.84 167.64 71.546 167.878 71.378C166.142 69.922 165.33 68.242 164.84 65.414C164.854 65.008 164.868 64.616 164.868 64.238V63.3ZM181.01 62.054H176.432V60.654H181.01V62.054ZM181.01 64.196H176.432V62.768H181.01V64.196ZM181.948 59.884H175.536V64.952H181.948V59.884ZM173.394 61.508V67.486H171.63V61.508H173.394ZM174.262 60.654H170.776V69.698H171.63V68.354H174.262V60.654ZM175.998 70.678V69.082H181.514V70.678H175.998ZM181.514 66.786V68.284H175.998V66.786H181.514ZM175.088 65.974V72.05H175.998V71.49H181.514V71.98H182.466V65.974H175.088ZM188.318 59.674V60.542H190.922C189.522 62.138 187.38 63.79 185.602 64.644C185.826 64.854 186.064 65.162 186.19 65.4C188.15 64.336 190.544 62.348 191.986 60.556C193.442 62.446 195.71 64.294 197.81 65.288C197.936 65.05 198.244 64.672 198.44 64.476C196.242 63.552 193.806 61.634 192.49 59.674H188.318ZM192.434 68.354H196.466V67.528H192.434V65.288H195.948V64.448H188.094V65.288H191.482V67.528H187.492V68.354H191.482V70.804H186.106V71.658H197.964V70.804H192.434V68.354ZM208.52 61.326C208.338 60.766 207.89 59.912 207.526 59.24L206.63 59.59C206.994 60.262 207.414 61.172 207.61 61.732L208.52 61.326ZM213.42 62.67V61.76H201.436V62.67H205.272C205.104 65.89 204.74 69.572 201.114 71.364C201.352 71.532 201.646 71.854 201.786 72.092C204.446 70.706 205.496 68.368 205.944 65.876H211.026C210.774 69.152 210.508 70.524 210.102 70.888C209.934 71.028 209.752 71.056 209.444 71.056C209.08 71.056 208.1 71.042 207.106 70.944C207.274 71.196 207.4 71.574 207.428 71.854C208.366 71.91 209.276 71.938 209.752 71.91C210.27 71.868 210.592 71.784 210.886 71.462C211.446 70.916 211.712 69.418 212.006 65.442C212.02 65.302 212.034 64.98 212.034 64.98H206.084C206.182 64.21 206.252 63.44 206.294 62.67H213.42ZM225.404 61.41C225.264 60.822 224.956 59.926 224.69 59.226L223.822 59.464C224.088 60.15 224.368 61.088 224.494 61.676L225.404 61.41ZM228.526 61.872H220.994V62.768H228.526V61.872ZM223.822 69.628C223.682 68.2 223.248 65.666 222.758 63.706L221.918 63.874C222.38 65.834 222.772 68.424 222.898 69.894L223.822 69.628ZM219.902 59.352C219.09 61.508 217.774 63.608 216.388 64.966C216.556 65.176 216.822 65.652 216.92 65.876C217.424 65.33 217.942 64.728 218.404 64.056V72.036H219.328V62.6C219.874 61.648 220.378 60.64 220.77 59.604L219.902 59.352ZM226.16 70.58C226.692 68.69 227.266 65.904 227.63 63.748L226.664 63.566C226.384 65.666 225.81 68.69 225.292 70.58H220.378V71.476H229.114V70.58H226.16ZM235.61 67.64V65.918H236.954V67.64H235.61ZM233.58 65.918H234.924V67.64H233.552C233.566 67.248 233.58 66.884 233.58 66.534V65.918ZM235.806 61.284C235.61 61.802 235.358 62.376 235.12 62.824H233.44C233.706 62.348 233.958 61.83 234.182 61.284H235.806ZM235.61 63.566H236.954V65.204H235.61V63.566ZM233.58 63.566H234.924V65.204H233.58V63.566ZM237.752 62.824H235.96C236.296 62.222 236.646 61.494 236.87 60.85L236.31 60.486L236.184 60.528H234.462C234.574 60.192 234.686 59.842 234.784 59.492L233.93 59.296C233.496 61.018 232.712 62.67 231.718 63.748C231.914 63.874 232.292 64.168 232.418 64.308C232.544 64.154 232.67 64 232.796 63.832V66.52C232.796 68.102 232.698 70.174 231.746 71.644C231.928 71.728 232.292 71.938 232.418 72.078C233.076 71.056 233.37 69.684 233.496 68.382H236.954V71C236.954 71.196 236.884 71.238 236.688 71.238C236.492 71.252 235.848 71.252 235.106 71.238C235.218 71.448 235.372 71.812 235.4 72.036C236.394 72.036 236.954 72.022 237.29 71.882C237.64 71.742 237.752 71.476 237.752 71V62.824ZM243.352 60.808C243.268 62.516 243.142 63.188 242.974 63.384C242.89 63.496 242.764 63.524 242.582 63.51C242.372 63.51 241.84 63.51 241.266 63.454C241.378 63.664 241.462 63.986 241.476 64.238C242.064 64.266 242.652 64.28 242.946 64.252C243.296 64.224 243.492 64.14 243.688 63.916C243.982 63.594 244.094 62.712 244.206 60.374C244.22 60.262 244.234 60.01 244.234 60.01H238.2V60.808H240.16C239.894 62.166 239.306 63.342 237.78 63.986C237.948 64.14 238.2 64.434 238.312 64.63C240.034 63.832 240.72 62.474 241.028 60.808H243.352ZM244.612 68.494H241.896V66.688H244.374V65.876H241.896V64.42H241V65.876H239.684C239.81 65.498 239.908 65.106 239.992 64.714L239.194 64.56C238.942 65.75 238.522 66.912 237.892 67.724C238.102 67.808 238.48 67.99 238.62 68.102C238.9 67.71 239.166 67.234 239.39 66.688H241V68.494H238.004V69.306H241V71.98H241.896V69.306H244.612V68.494ZM252.48 66.548C252.2 66.142 251.01 64.518 250.534 63.944V63.202H252.592V62.32H250.534V59.296H249.638V62.32H247.496V63.202H249.526C249.05 65.162 248.07 67.388 247.132 68.592C247.286 68.802 247.524 69.166 247.622 69.418C248.378 68.452 249.106 66.842 249.638 65.204V72.036H250.534V65.134C251.024 65.876 251.626 66.8 251.864 67.29L252.48 66.548ZM259.914 64.084H254.244V61.494C255.938 61.186 257.814 60.724 259.102 60.192L258.304 59.464C257.17 59.982 255.14 60.514 253.362 60.836V65.162C253.362 67.108 253.222 69.698 251.962 71.546C252.186 71.63 252.564 71.882 252.732 72.036C254.034 70.104 254.244 67.22 254.244 65.162V64.966H256.918V72.064H257.842V64.966H259.914V64.084Z" fill="white"/>
</svg>
