<svg width="298" height="84" viewBox="0 0 298 84" fill="none" xmlns="http://www.w3.org/2000/svg">
<path d="M249.716 15.3707H9.32031V50.5124H249.716V15.3707Z" fill="#00FF63"/>
<path d="M249.388 15.7279V50.1552H9.67748V15.7279H249.388ZM250.132 14.9837H9.00769V50.8398H250.132V15.0135V14.9837Z" fill="black"/>
<path d="M261.295 14.8498H249.448V50.1477H261.295V14.8498Z" fill="black"/>
<path d="M260.856 15.2963V49.7235H249.887V15.2963H260.856ZM261.735 14.4181H249.016V50.5942H261.735V14.4181Z" fill="#00FF63"/>
<path d="M246.337 32.7927L256.436 22.6937L266.535 32.7927L271.335 28L261.236 17.8936L271.335 7.79461L266.535 2.99445L256.436 13.1008L246.337 2.99445L241.537 7.79461L251.643 17.8936L241.537 27.9925L246.337 32.7927Z" fill="#00FF63" stroke="black" stroke-width="1.1" stroke-miterlimit="10"/>
<path d="M244.335 30.7908L254.434 20.6918L264.54 30.7908L269.333 25.9981L259.234 15.8991L269.333 5.79272L264.54 1L254.434 11.099L244.335 1L239.542 5.79272L249.641 15.8991L239.542 25.9981L244.335 30.7908Z" fill="#00FF63" stroke="black" stroke-width="1.1" stroke-miterlimit="10"/>
<path d="M9.67751 50.2891H1V58.9666H9.67751V50.2891Z" fill="black" stroke="black" stroke-width="0.59" stroke-miterlimit="10"/>
<path d="M18.355 41.6116H9.67749V50.2891H18.355V41.6116Z" fill="black" stroke="black" stroke-width="0.59" stroke-miterlimit="10"/>
<path d="M9.67751 32.9415H1V41.619H9.67751V32.9415Z" fill="black" stroke="black" stroke-width="0.59" stroke-miterlimit="10"/>
<path d="M18.355 24.264H9.67749V32.9415H18.355V24.264Z" fill="black" stroke="black" stroke-width="0.59" stroke-miterlimit="10"/>
<path d="M9.67751 15.594H1V24.2715H9.67751V15.594Z" fill="black" stroke="black" stroke-width="0.59" stroke-miterlimit="10"/>
<path d="M18.355 6.91644H9.67749V15.594H18.355V6.91644Z" fill="black" stroke="black" stroke-width="0.59" stroke-miterlimit="10"/>
<path d="M297.717 49.6491H9.17151V83.6965H297.717V49.6491Z" fill="black"/>
<path d="M296.988 50.3785V82.6769H9.45427V50.3785H296.988ZM298 49.3737H8.44214V83.6891H298V49.3737Z" fill="#00FF63"/>
<path d="M28.616 41.768H32.28V40.488H30.376V27.4H32.28V26.152H28.616V41.768ZM48.1509 31.704V29.736H41.8629C42.0229 28.248 42.0389 26.776 42.0549 25.464H39.9749C39.9589 26.776 39.9749 28.232 39.8149 29.736H33.9909V31.704H39.4949C38.8709 34.456 37.3509 37.112 33.6869 38.744C34.2469 39.144 34.8069 39.832 35.1109 40.36C38.5029 38.728 40.2309 36.232 41.0949 33.56C42.3429 36.648 44.1989 38.984 47.0949 40.344C47.3989 39.8 48.0229 38.952 48.5029 38.552C45.5109 37.336 43.5749 34.824 42.5189 31.704H48.1509ZM53.7829 35.272V37.224H51.9269V35.272H53.7829ZM53.6229 31.032H51.9269V29.4H53.6229V31.032ZM51.9269 32.632H55.3029V27.8H53.2869C53.5749 27.16 53.8789 26.376 54.1349 25.624L52.0229 25.448C51.9589 26.136 51.7669 27.032 51.5749 27.8H50.2469V39.816H51.9269V38.824H55.4629V33.672H51.9269V32.632ZM64.3909 27.912V26.184H55.7349V27.912H59.1909V29.336H56.2789V37.928H58.0069V31.048H59.1909V40.376H60.9669V31.048H62.2309V36.216C62.2309 36.376 62.1829 36.424 62.0389 36.424C61.9109 36.424 61.5109 36.424 61.1109 36.408C61.3349 36.84 61.5589 37.544 61.5909 38.04C62.4069 38.04 62.9669 38.024 63.4149 37.736C63.8789 37.448 63.9909 36.984 63.9909 36.248V29.336H60.9669V27.912H64.3909ZM76.6149 32.968H69.3189V31.992H76.6149V32.968ZM69.3189 37.992V36.904H76.6149V37.992H69.3189ZM76.6149 35.448H69.3189V34.408H76.6149V35.448ZM80.2949 29.336V27.576H76.7109C77.1269 27.08 77.5749 26.488 77.9909 25.88L75.7989 25.4C75.5269 26.056 75.0309 26.92 74.5669 27.576H70.9029L71.6069 27.208C71.2869 26.68 70.6469 25.896 70.0549 25.32L68.3589 26.088C68.7429 26.536 69.1909 27.08 69.5109 27.576H65.8469V29.336H71.9269C71.8469 29.672 71.7669 30.008 71.6549 30.344H67.4309V40.408H69.3189V39.656H76.6149V40.408H78.5989V30.344H73.7669C73.9109 30.024 74.0709 29.688 74.2149 29.336H80.2949ZM89.8149 36.168H91.7669V37.672H89.8149V36.168ZM91.7669 31.368H89.8149V29.944H91.7669V31.368ZM91.7669 34.488H89.8149V33.048H91.7669V34.488ZM96.4549 37.672H93.5429V36.168H95.8949V34.488H93.5429V33.048H95.9269V31.368H93.5429V29.944H96.1029V28.2H93.0629L94.0229 27.784C93.8149 27.176 93.3669 26.248 92.9349 25.592L91.2869 26.232C91.6389 26.84 91.9909 27.592 92.1989 28.2H90.0229C90.3269 27.48 90.6149 26.76 90.8709 26.024L89.0789 25.544C88.3589 27.896 87.0629 30.216 85.6069 31.656C85.7989 31.816 86.0389 32.056 86.2789 32.296L85.2389 32.568V30.152H86.8229V28.408H85.2389V25.464H83.3989V28.408H81.6229V30.152H83.3989V33.064C82.6629 33.256 81.9909 33.416 81.4309 33.544L81.8629 35.352L83.3989 34.936V38.2C83.3989 38.424 83.3189 38.472 83.1269 38.472C82.9349 38.488 82.3749 38.488 81.8149 38.472C82.0549 39.016 82.2789 39.816 82.3269 40.328C83.3669 40.328 84.0709 40.264 84.5669 39.944C85.0789 39.624 85.2389 39.128 85.2389 38.216V34.392C85.7669 34.248 86.2949 34.088 86.7909 33.928L86.6149 32.664C86.7429 32.824 86.8709 32.968 86.9669 33.08C87.3189 32.696 87.6549 32.264 87.9909 31.8V40.408H89.8149V39.416H96.4549V37.672ZM108.407 34.648V35.704H101.767V34.648H108.407ZM101.767 38.296V37.144H108.407V38.296H101.767ZM99.8629 40.424H101.767V39.864H108.407V40.408H110.407V33.064H99.8629V40.424ZM107.479 28.424C107.303 29.048 107.015 29.8 106.759 30.392H103.463C103.351 29.816 103.031 29.032 102.647 28.424H107.479ZM108.839 30.392C109.095 29.896 109.367 29.336 109.639 28.744L108.167 28.424H111.479V26.744H106.327C106.167 26.264 105.927 25.72 105.655 25.272L103.671 25.592C103.847 25.928 104.039 26.344 104.167 26.744H98.7749V28.424H102.295L100.743 28.728C100.999 29.224 101.239 29.848 101.383 30.392H97.8789V32.088H112.231V30.392H108.839ZM118.727 33.352C118.631 32.568 118.407 31.416 118.151 30.504L116.951 30.776C117.031 31.096 117.111 31.448 117.175 31.816L115.911 31.944C116.919 30.824 117.927 29.496 118.679 28.184L117.335 27.448C117.127 27.912 116.855 28.376 116.599 28.824L115.767 28.888C116.327 28.072 116.871 27.08 117.271 26.152L115.799 25.64C115.447 26.856 114.743 28.104 114.519 28.44C114.295 28.776 114.087 29.016 113.847 29.064C114.023 29.448 114.263 30.136 114.343 30.44C114.519 30.344 114.807 30.264 115.751 30.136C115.351 30.696 114.999 31.128 114.839 31.32C114.439 31.784 114.135 32.088 113.799 32.168C113.975 32.536 114.215 33.272 114.295 33.544C114.567 33.416 115.015 33.304 117.383 32.984C117.415 33.224 117.447 33.448 117.463 33.64L118.727 33.352ZM118.007 36.28C117.031 37.208 115.175 38.008 113.399 38.36C113.799 38.728 114.359 39.464 114.647 39.928C116.551 39.4 118.423 38.232 119.543 36.856L118.007 36.28ZM128.247 35.8V34.232H122.055V33.464H120.151V34.232H113.815V35.8H120.151V40.344H122.055V35.8H128.247ZM122.871 37.272C124.295 38.056 126.183 39.256 127.063 40.04L128.279 38.68C127.319 37.912 125.383 36.792 123.991 36.088L122.871 37.272ZM121.639 29.304H120.439V28.232H121.639V29.304ZM121.639 31.72H120.439V30.6H121.639V31.72ZM121.591 26.84L122.103 25.624L120.375 25.336C120.343 25.768 120.231 26.328 120.103 26.84H118.823V33.112H123.319V26.84H121.591ZM126.551 30.984C126.631 31.288 126.711 31.624 126.791 31.976L125.543 32.088C126.583 30.984 127.607 29.624 128.407 28.312L127.031 27.528C126.823 27.96 126.583 28.392 126.359 28.792L125.287 28.888C125.847 28.056 126.423 27.048 126.807 26.056L125.271 25.624C124.919 26.856 124.199 28.136 123.975 28.472C123.767 28.808 123.543 29.048 123.319 29.112C123.495 29.496 123.735 30.2 123.815 30.52C124.007 30.408 124.327 30.328 125.431 30.168C125.015 30.76 124.647 31.208 124.471 31.4C124.071 31.848 123.767 32.152 123.431 32.232C123.607 32.616 123.847 33.368 123.927 33.672C124.199 33.528 124.663 33.432 127.047 33.176C127.079 33.4 127.111 33.608 127.127 33.8L128.407 33.464C128.279 32.712 128.007 31.56 127.735 30.68L126.551 30.984ZM135.559 28.088H132.791L133.815 27.512C133.591 26.92 133.095 26.04 132.663 25.384L131.255 26.072C131.623 26.68 132.007 27.48 132.247 28.088H129.575V29.592H135.559V28.088ZM134.999 30.312H130.263V31.752H134.999V30.312ZM130.263 33.896H134.999V32.456H130.263V33.896ZM133.527 37.976H131.767V36.184H133.527V37.976ZM136.743 31.72C136.743 34.376 136.583 37.064 135.095 39.256V34.664H130.215V40.184H131.767V39.512H134.919L134.855 39.592C135.367 39.784 136.183 40.232 136.599 40.52C138.343 38.024 138.535 34.792 138.535 31.736V26.136H136.743V31.72ZM139.511 38.808H141.223V26.92H139.511V38.808ZM142.231 25.992V40.36H144.103V25.992H142.231ZM146.183 35.96C146.087 37.336 145.895 38.824 145.511 39.8C145.895 39.896 146.599 40.104 146.903 40.28C147.239 39.272 147.495 37.672 147.623 36.184L146.183 35.96ZM147.943 36.168C148.103 37.352 148.263 38.872 148.279 39.88L149.623 39.624C149.575 38.616 149.415 37.112 149.239 35.944L147.943 36.168ZM153.351 31.464C153.639 32.072 153.895 32.888 153.943 33.432L154.919 33.144C154.839 32.616 154.567 31.8 154.279 31.224L153.351 31.464ZM153.127 30.984H154.999V33.608H153.127V30.984ZM158.375 31.432L157.335 31.144C157.207 31.736 156.919 32.616 156.695 33.176L157.575 33.464C157.815 32.952 158.103 32.248 158.375 31.528V33.608H156.519V30.984H158.375V31.432ZM159.943 35.096V29.496H156.663V28.616H160.231V26.984H156.663V25.464H154.855V26.984H151.335V28.584L149.863 27.704C149.543 28.424 149.175 29.176 148.775 29.848L147.735 29.928C148.519 28.776 149.271 27.4 149.831 26.072L148.167 25.384C147.655 27.08 146.663 28.856 146.343 29.304C146.039 29.784 145.783 30.088 145.479 30.184C145.671 30.632 145.943 31.432 146.039 31.768C146.263 31.656 146.615 31.576 147.783 31.432C147.383 32.072 147.015 32.536 146.807 32.76C146.311 33.368 145.975 33.736 145.591 33.816C145.783 34.28 146.071 35.128 146.151 35.448C146.503 35.304 147.063 35.16 150.055 34.712C150.103 34.984 150.135 35.24 150.167 35.448L151.559 35.016C151.463 34.168 151.079 32.76 150.727 31.688L149.399 32.04C149.511 32.408 149.639 32.84 149.735 33.272L148.167 33.464C149.351 32.04 150.519 30.312 151.399 28.616H154.855V29.496H151.655V35.096H154.039C153.383 36.248 152.391 37.352 151.367 38.008C151.223 37.24 150.967 36.28 150.743 35.512L149.543 35.864C149.831 36.856 150.119 38.168 150.215 39.032L151.463 38.648C151.735 39 151.991 39.384 152.151 39.688C153.127 38.984 154.119 37.88 154.903 36.696V40.392H156.711V36.136C157.495 37.464 158.455 38.728 159.319 39.528C159.607 39.112 160.183 38.52 160.567 38.2C159.559 37.48 158.423 36.28 157.591 35.096H159.943ZM163.911 36.808H167.303V35.368H163.911V36.808ZM165.911 29.208H165.239V27.64H165.911V29.208ZM167.751 33.08C167.719 33.112 167.671 33.112 167.543 33.112H167.223C167.095 33.112 167.063 33.096 167.063 32.84V30.776H167.751V33.08ZM163.431 37.848V34.152C163.671 34.296 164.071 34.632 164.231 34.824C165.095 34.04 165.287 32.888 165.287 31.944V30.776H166.007V32.872C166.007 33.944 166.247 34.216 167.079 34.216H167.719H167.751V37.848H163.431ZM164.231 30.776V31.944C164.231 32.616 164.135 33.432 163.431 34.072V30.776H164.231ZM161.751 27.64H163.767V29.208H161.975V40.344H163.431V39.32H167.751V40.12H169.287V29.208H167.383V27.64H169.383V26.056H161.767L161.751 27.64ZM172.455 38.424C171.879 38.424 171.799 38.312 171.799 37.688V33.032H175.959V26.184H169.847V27.992H174.119V31.224H169.911V37.704C169.911 39.624 170.455 40.184 172.183 40.184H174.295C175.879 40.184 176.375 39.368 176.567 36.664C176.071 36.536 175.271 36.216 174.871 35.912C174.791 38.024 174.695 38.424 174.135 38.424H172.455ZM186.375 28.392C186.711 28.808 187.079 29.192 187.479 29.592H182.887C183.287 29.192 183.639 28.808 183.959 28.392H186.375ZM182.247 38.344C182.839 37.944 183.431 37.496 183.959 37.032H187.687L186.839 37.448C187.079 37.672 187.335 37.928 187.591 38.2L182.247 38.344ZM188.983 31.016V30.888C189.799 31.512 190.631 32.056 191.447 32.44C191.719 32.008 192.279 31.336 192.679 30.984C191.255 30.408 189.687 29.448 188.519 28.392H192.103V26.808H185.063C185.255 26.472 185.415 26.136 185.591 25.816L183.639 25.448C183.431 25.912 183.191 26.344 182.887 26.808H178.007V28.392H181.607C180.551 29.448 179.191 30.408 177.447 31.176C177.847 31.496 178.391 32.168 178.631 32.584C179.479 32.184 180.231 31.736 180.919 31.24V35.464H178.007V37.032H181.335C180.807 37.448 180.359 37.768 180.135 37.896C179.751 38.168 179.431 38.344 179.079 38.408C179.287 38.888 179.559 39.752 179.655 40.136C180.327 39.896 181.239 39.896 188.871 39.56C189.143 39.88 189.383 40.168 189.559 40.392L191.271 39.496C190.743 38.824 189.735 37.832 188.871 37.032H192.071V35.464H182.871V34.808H188.999V33.56H182.871V32.904H188.999V31.656H182.871V31.016H188.983ZM202.087 37.368V29.096H207.463V27.112H194.679V29.096H199.911V37.368H193.815V39.288H208.359V37.368H202.087ZM213.959 34.328H220.247V35.256H213.959V34.328ZM220.247 27.688V28.568H213.959V27.688H220.247ZM220.247 32.104V32.984H213.959V32.104H220.247ZM220.247 30.76H213.959V29.912H220.247V30.76ZM224.359 36.968V35.256H222.263V26.184H212.055V35.256H209.799V36.968H213.751C212.711 37.704 210.999 38.504 209.559 38.968C209.975 39.336 210.615 39.944 210.919 40.328C212.519 39.784 214.503 38.808 215.751 37.88L214.455 36.968H219.255L218.343 37.944C220.055 38.68 221.927 39.688 222.999 40.376L224.503 39.032C223.479 38.44 221.831 37.64 220.263 36.968H224.359ZM229.44 41.768H233.104V26.152H229.44V27.4H231.344V40.488H229.44V41.768Z" fill="#202020"/>
<path d="M43.502 60.598H38.756C38.602 60.164 38.35 59.618 38.056 59.198L37.146 59.394C37.37 59.744 37.594 60.206 37.72 60.598H32.61V61.438H43.502V60.598ZM41.416 66.814V68.368H34.696V66.814H41.416ZM34.696 70.748V69.124H41.416V70.748H34.696ZM33.772 72.078H34.696V71.546H41.416V72.05H42.368V66.002H33.772V72.078ZM40.576 63.888C40.926 63.258 41.304 62.46 41.654 61.76L40.646 61.508C40.408 62.194 39.96 63.216 39.596 63.888H35.774L36.362 63.734C36.236 63.132 35.858 62.222 35.424 61.564L34.542 61.76C34.934 62.404 35.27 63.272 35.396 63.888H31.812V64.742H44.202V63.888H40.576ZM59.574 66.17C59.448 65.596 59.154 64.728 58.902 64.042L58.272 64.252C58.356 64.532 58.468 64.84 58.566 65.162L56.802 65.358C57.726 64.28 58.664 62.908 59.42 61.522L58.706 61.144C58.496 61.578 58.272 62.012 58.02 62.446L56.536 62.6C57.068 61.774 57.614 60.696 58.034 59.618L57.25 59.366C56.9 60.556 56.2 61.816 55.99 62.152C55.794 62.474 55.612 62.712 55.444 62.74C55.542 62.95 55.64 63.342 55.682 63.51C55.864 63.426 56.158 63.356 57.586 63.16C57.096 63.902 56.648 64.49 56.452 64.728C56.116 65.162 55.836 65.456 55.598 65.512C55.696 65.708 55.822 66.1 55.85 66.254C56.06 66.156 56.41 66.086 58.748 65.778C58.804 66.016 58.86 66.226 58.888 66.394L59.574 66.17ZM54.366 62.922H52.434V61.396H54.366V62.922ZM54.366 65.176H52.434V63.636H54.366V65.176ZM55.206 60.654H53.498C53.624 60.29 53.778 59.828 53.932 59.422L53.05 59.254C53.008 59.632 52.882 60.206 52.756 60.654H51.622V65.918H55.206V60.654ZM51.328 66.1C51.258 65.484 51.034 64.532 50.796 63.804L50.152 63.958C50.236 64.266 50.334 64.616 50.404 64.966L48.57 65.19C49.508 64.112 50.446 62.726 51.216 61.354L50.516 60.99C50.292 61.452 50.026 61.914 49.774 62.362L48.5 62.488C49.018 61.704 49.55 60.668 49.942 59.66L49.2 59.38C48.85 60.514 48.164 61.732 47.954 62.04C47.772 62.362 47.604 62.572 47.422 62.6C47.506 62.81 47.632 63.202 47.674 63.356C47.828 63.272 48.094 63.216 49.34 63.048C48.864 63.776 48.444 64.364 48.248 64.588C47.898 65.008 47.646 65.302 47.408 65.358C47.492 65.554 47.632 65.946 47.66 66.114C47.856 65.988 48.206 65.918 50.544 65.582C50.586 65.834 50.614 66.072 50.642 66.268L51.328 66.1ZM51.384 68.424C50.432 69.46 48.556 70.384 46.946 70.818C47.156 71 47.422 71.336 47.562 71.588C49.214 71.056 51.132 69.964 52.154 68.76L51.384 68.424ZM54.786 68.956C56.242 69.712 58.09 70.888 58.986 71.672L59.574 70.958C58.636 70.202 56.788 69.068 55.332 68.326L54.786 68.956ZM53.862 67.15V66.282H52.938V67.15H47.184V67.962H52.938V72.05H53.862V67.962H59.602V67.15H53.862ZM68.352 64.308V65.26H64.46V64.308H68.352ZM64.404 66.926C64.432 66.576 64.446 66.226 64.46 65.904H68.352V66.926H64.404ZM69.22 67.64V63.594H63.592V65.54C63.592 67.108 63.438 69.362 62.346 71.042C62.556 71.126 62.948 71.322 63.13 71.462C63.844 70.356 64.18 68.956 64.334 67.64H69.22ZM65.048 62.222V62.852H68.002V62.222H65.048ZM68.702 69.04V70.608H65.174V69.04H68.702ZM64.376 71.952H65.174V71.35H68.702V71.924H69.542V68.326H64.376V71.952ZM66.238 59.436C65.426 60.85 63.9 62.04 62.36 62.796C62.528 62.992 62.794 63.426 62.892 63.636C64.152 62.936 65.454 61.928 66.406 60.752C67.526 61.452 68.828 62.348 69.514 62.922L70.018 62.166C69.318 61.606 67.988 60.752 66.896 60.094C66.966 59.968 67.036 59.856 67.106 59.744L66.238 59.436ZM71.768 60.878H70.886V68.536H71.768V60.878ZM73.532 59.38V70.79C73.532 71.042 73.434 71.112 73.196 71.112C72.986 71.126 72.216 71.126 71.348 71.112C71.488 71.378 71.614 71.784 71.67 72.036C72.818 72.036 73.49 72.008 73.896 71.854C74.274 71.686 74.442 71.406 74.442 70.776V59.38H73.532ZM81.288 59.352C80.49 61.508 79.174 63.608 77.774 64.966C77.956 65.176 78.222 65.666 78.32 65.876C78.824 65.358 79.342 64.756 79.804 64.084V72.036H80.742V62.642C81.288 61.676 81.778 60.654 82.184 59.632L81.288 59.352ZM90.598 62.544V61.648H84.676C84.956 61.018 85.236 60.374 85.474 59.716L84.578 59.492C83.892 61.536 82.758 63.566 81.484 64.868C81.708 65.022 82.058 65.344 82.212 65.498C82.926 64.7 83.626 63.678 84.228 62.544H85.264V72.05H86.202V68.606H90.472V67.724H86.202V65.512H90.29V64.644H86.202V62.544H90.598ZM97.458 59.842L97.318 59.884H93.958V72.05H94.798V60.738H96.954C96.646 61.662 96.212 62.894 95.778 63.916C96.828 65.064 97.094 66.03 97.094 66.814C97.094 67.248 97.01 67.654 96.786 67.808C96.674 67.892 96.52 67.92 96.338 67.934C96.114 67.962 95.82 67.948 95.484 67.92C95.638 68.158 95.722 68.522 95.736 68.746C96.044 68.774 96.394 68.774 96.688 68.732C96.954 68.704 97.206 68.62 97.402 68.48C97.78 68.214 97.934 67.598 97.934 66.898C97.934 66.016 97.682 64.994 96.646 63.818C97.122 62.698 97.64 61.34 98.06 60.206L97.458 59.842ZM99.712 63.328H103.996V65.176H99.712V63.328ZM103.996 60.752V62.544H99.712V60.752H103.996ZM105.116 66.506C104.542 67.038 103.618 67.71 102.848 68.2C102.47 67.542 102.19 66.8 101.966 66.002H104.906V59.926H98.802V70.342C98.802 70.916 98.536 71.168 98.312 71.28C98.466 71.476 98.662 71.84 98.732 72.064C98.998 71.882 99.404 71.742 102.316 70.944C102.288 70.748 102.26 70.37 102.274 70.104L99.712 70.734V66.002H101.154C101.854 68.774 103.184 70.93 105.396 71.952C105.55 71.7 105.83 71.336 106.026 71.154C104.878 70.692 103.954 69.894 103.24 68.858C104.052 68.382 105.018 67.752 105.732 67.15L105.116 66.506ZM118.556 61.144H111.416V60.332H118.556V61.144ZM118.556 62.544H111.416V61.718H118.556V62.544ZM119.466 59.758H110.52V63.132H119.466V59.758ZM121.23 63.748H108.784V64.462H121.23V63.748ZM111.15 68.004V67.15H114.538V68.004H111.15ZM111.15 65.75H114.538V66.576H111.15V65.75ZM118.976 66.576H115.42V65.75H118.976V66.576ZM118.976 68.004H115.42V67.15H118.976V68.004ZM115.42 70.972V70.104H120.208V69.432H115.42V68.606H119.886V65.134H110.268V68.606H114.538V69.432H109.848V70.104H114.538V70.972H108.7V71.7H121.314V70.972H115.42ZM128.174 63.216C128.132 64.616 127.95 66.324 127.138 67.962C126.55 67.5 125.962 67.038 125.402 66.618C125.654 65.68 125.92 64.518 126.158 63.342L128.174 63.216ZM129.868 63.104V62.264L129.056 62.306V61.312H128.174V62.362L126.34 62.46C126.522 61.396 126.704 60.332 126.816 59.38L125.892 59.338C125.794 60.304 125.626 61.41 125.444 62.488C124.898 62.502 124.422 62.53 124.002 62.544L124.1 63.454L125.262 63.384C124.982 64.728 124.674 65.988 124.38 66.926C125.108 67.458 125.92 68.116 126.676 68.76C126.074 69.712 125.22 70.636 124.044 71.462C124.24 71.602 124.562 71.882 124.716 72.092C125.878 71.252 126.732 70.328 127.362 69.39C128.02 69.992 128.608 70.566 129 71.042L129.602 70.258C129.182 69.782 128.552 69.18 127.838 68.578C128.804 66.688 129.014 64.756 129.056 63.16L129.868 63.104ZM136.77 65.246H133.634V63.832C134.614 62.992 135.636 61.816 136.308 60.78L135.664 60.318L135.44 60.374H130.036V61.228H134.796C134.236 62.054 133.424 62.992 132.682 63.594V65.246H129.392V66.128H132.682V70.916C132.682 71.112 132.612 71.182 132.388 71.196C132.164 71.196 131.408 71.196 130.568 71.182C130.694 71.434 130.862 71.812 130.918 72.064C131.996 72.078 132.64 72.05 133.06 71.91C133.48 71.756 133.634 71.49 133.634 70.916V66.128H136.77V65.246ZM150.812 62.138H149.426V61.116H150.812V62.138ZM150.812 63.818H149.426V62.754H150.812V63.818ZM145.436 62.754H146.78V63.818H145.436V62.754ZM145.436 61.116H146.78V62.138H145.436V61.116ZM148.754 62.754V63.818H147.452V62.754H148.754ZM147.452 62.138V61.116H148.754V62.138H147.452ZM151.624 60.472H149.524V59.31H148.754V60.472H147.452V59.31H146.682V60.472H144.652V64.462H151.624V60.472ZM152.044 65.176H144.19V65.904H152.044V65.176ZM145.884 67.304H150.35V68.592H145.884V67.304ZM151.176 69.25V66.66H145.086V69.25H151.176ZM142.538 61.116C142.314 60.64 141.824 59.898 141.334 59.366L140.648 59.814C141.11 60.346 141.6 61.102 141.81 61.606L142.538 61.116ZM144.134 67.024C143.882 66.716 142.888 65.554 142.412 65.036C143.042 64.112 143.602 63.076 143.98 62.026L143.476 61.676L143.308 61.718H139.598V62.572H142.86C142.076 64.322 140.662 66.072 139.318 67.038C139.458 67.206 139.682 67.654 139.752 67.92C140.312 67.5 140.872 66.954 141.404 66.324V72.05H142.258V66.044C142.72 66.646 143.294 67.388 143.546 67.78L144.134 67.024ZM149.692 71.028C149.93 70.608 150.196 70.118 150.462 69.628L149.608 69.39C149.454 69.852 149.16 70.538 148.894 71.028H147.326C147.186 70.58 146.92 69.922 146.668 69.418L145.94 69.628C146.136 70.062 146.346 70.594 146.486 71.028H143.854V71.77H152.184V71.028H149.692ZM167.332 64.294V63.342H161.494C161.704 61.844 161.718 60.444 161.732 59.324H160.752C160.738 60.416 160.752 61.83 160.528 63.342H155.124V64.294H160.36C159.786 66.982 158.386 69.754 154.872 71.28C155.11 71.476 155.418 71.798 155.572 72.05C159.058 70.454 160.556 67.654 161.214 64.882C162.292 68.158 164.126 70.748 166.856 72.036C167.024 71.756 167.318 71.378 167.542 71.168C164.84 70.034 162.992 67.444 161.998 64.294H167.332ZM177.72 61.326C177.538 60.766 177.09 59.912 176.726 59.24L175.83 59.59C176.194 60.262 176.614 61.172 176.81 61.732L177.72 61.326ZM182.62 62.67V61.76H170.636V62.67H174.472C174.304 65.89 173.94 69.572 170.314 71.364C170.552 71.532 170.846 71.854 170.986 72.092C173.646 70.706 174.696 68.368 175.144 65.876H180.226C179.974 69.152 179.708 70.524 179.302 70.888C179.134 71.028 178.952 71.056 178.644 71.056C178.28 71.056 177.3 71.042 176.306 70.944C176.474 71.196 176.6 71.574 176.628 71.854C177.566 71.91 178.476 71.938 178.952 71.91C179.47 71.868 179.792 71.784 180.086 71.462C180.646 70.916 180.912 69.418 181.206 65.442C181.22 65.302 181.234 64.98 181.234 64.98H175.284C175.382 64.21 175.452 63.44 175.494 62.67H182.62ZM190.138 65.386L188.514 65.876V63.02H190.124V62.138H188.514V59.31H187.618V62.138H185.644V63.02H187.618V66.128C186.806 66.38 186.05 66.59 185.448 66.758L185.714 67.668C186.288 67.486 186.932 67.29 187.618 67.066V70.958C187.618 71.154 187.534 71.224 187.352 71.224C187.184 71.224 186.596 71.224 185.938 71.21C186.064 71.462 186.204 71.826 186.246 72.064C187.156 72.064 187.702 72.05 188.052 71.896C188.388 71.742 188.514 71.504 188.514 70.944V66.786L190.25 66.226L190.138 65.386ZM194.744 70.146V67.15H197.194V70.146H194.744ZM191.524 67.15H193.862V70.146H191.524V67.15ZM193.862 63.412V66.268H191.524V63.412H193.862ZM197.194 63.412V66.268H194.744V63.412H197.194ZM194.744 62.516V59.324H193.862V62.516H190.642V72.022H191.524V71.028H197.194V71.924H198.118V62.516H194.744Z" fill="white"/>
</svg>
