<svg width="298" height="96" viewBox="0 0 298 96" fill="none" xmlns="http://www.w3.org/2000/svg">
<path d="M232.715 15.3707H9.32025V50.5124H232.715V15.3707Z" fill="#00FF63"/>
<path d="M232.388 15.7279V50.1552H9.67754V15.7279H232.388ZM233.132 14.9837H9.00775V50.8398H233.132V15.0135V14.9837Z" fill="black"/>
<path d="M244.295 14.8498H232.448V50.1477H244.295V14.8498Z" fill="black"/>
<path d="M243.856 15.2963V49.7235H232.887V15.2963H243.856ZM244.735 14.4181H232.016V50.5942H244.735V14.4181Z" fill="#00FF63"/>
<path d="M229.337 32.7927L239.436 22.6937L249.535 32.7927L254.335 28L244.236 17.8936L254.335 7.79461L249.535 2.99445L239.436 13.1008L229.337 2.99445L224.537 7.79461L234.643 17.8936L224.537 27.9925L229.337 32.7927Z" fill="#00FF63" stroke="black" stroke-width="1.1" stroke-miterlimit="10"/>
<path d="M227.335 30.7908L237.434 20.6918L247.54 30.7908L252.333 25.9981L242.234 15.8991L252.333 5.79272L247.54 1L237.434 11.099L227.335 1L222.542 5.79272L232.641 15.8991L222.542 25.9981L227.335 30.7908Z" fill="#00FF63" stroke="black" stroke-width="1.1" stroke-miterlimit="10"/>
<path d="M9.67751 50.2891H1V58.9666H9.67751V50.2891Z" fill="black" stroke="black" stroke-width="0.59" stroke-miterlimit="10"/>
<path d="M18.355 41.6116H9.67749V50.2891H18.355V41.6116Z" fill="black" stroke="black" stroke-width="0.59" stroke-miterlimit="10"/>
<path d="M9.67751 32.9415H1V41.619H9.67751V32.9415Z" fill="black" stroke="black" stroke-width="0.59" stroke-miterlimit="10"/>
<path d="M18.355 24.264H9.67749V32.9415H18.355V24.264Z" fill="black" stroke="black" stroke-width="0.59" stroke-miterlimit="10"/>
<path d="M9.67751 15.594H1V24.2715H9.67751V15.594Z" fill="black" stroke="black" stroke-width="0.59" stroke-miterlimit="10"/>
<path d="M18.355 6.91644H9.67749V15.594H18.355V6.91644Z" fill="black" stroke="black" stroke-width="0.59" stroke-miterlimit="10"/>
<path d="M297.717 49.6491H9.17145V83.6965H297.717V49.6491Z" fill="black"/>
<path d="M296.988 50.3785V82.6769H9.45427V50.3785H296.988ZM298 49.3737H8.44214V83.6891H298V49.3737Z" fill="#00FF63"/>
<path d="M28.616 42.0945H32.28V40.8145H30.376V27.7265H32.28V26.4785H28.616V42.0945ZM38.6629 30.3185C38.6309 31.7585 38.3909 33.5185 37.5269 35.2145C37.0309 34.7825 36.5189 34.3505 36.0549 33.9505C36.3109 32.8945 36.5829 31.6785 36.8229 30.4465L38.6629 30.3185ZM40.5509 27.7425H38.6789V28.4945L37.1429 28.5745C37.2869 27.6945 37.4149 26.7985 37.5109 25.9825L35.4789 25.8705C35.4149 26.7505 35.3029 27.7105 35.1589 28.6705C34.5509 28.7025 33.9909 28.7345 33.4789 28.7505L33.6709 30.6385L34.8389 30.5585C34.5669 32.0145 34.2469 33.3905 33.9269 34.4465C34.7109 35.1505 35.6229 35.9505 36.5029 36.7505C35.7829 37.6625 34.7909 38.5105 33.4789 39.2305C33.9109 39.5505 34.5509 40.2385 34.8229 40.6705C36.1509 39.9025 37.1589 39.0385 37.9269 38.1105C38.6149 38.7665 39.2069 39.3905 39.6229 39.9025L41.0469 38.4625C40.5509 37.9185 39.8309 37.2305 39.0309 36.5105C40.2469 34.3345 40.5029 32.0305 40.5509 30.1905L41.0949 30.1425L41.1109 28.3665L40.5509 28.3985V27.7425ZM43.3029 37.2945V29.2145H45.8309V37.2945H43.3029ZM41.4949 27.4225V40.2865H43.3029V39.1025H45.8309V40.0305H47.7189V27.4225H41.4949ZM53.0309 25.7585C52.2469 28.0145 50.8709 30.2545 49.4629 31.6625C49.7989 32.1425 50.3109 33.1825 50.4869 33.6465C50.8549 33.2465 51.2389 32.7985 51.6069 32.3025V40.6705H53.5109V29.2625C54.0229 28.2865 54.4549 27.3105 54.8229 26.3345L53.0309 25.7585ZM58.4229 32.3505V34.8465H56.6469V32.3505H58.4229ZM60.1989 36.4945V30.7025H54.8709V37.5345H56.6469V36.4945H60.1989ZM64.5349 27.1505H54.6789V28.9745H61.6549V38.4305C61.6549 38.7345 61.5589 38.8305 61.2389 38.8305C60.9189 38.8305 59.7989 38.8305 58.7589 38.7825C59.0309 39.3425 59.3349 40.1745 59.3989 40.7345C60.8869 40.7345 61.9749 40.6705 62.6469 40.3825C63.3349 40.0785 63.5749 39.5665 63.5749 38.4625V28.9745H64.5349V27.1505ZM80.2949 26.7985H76.6149C76.4709 26.3825 76.2309 25.9185 75.9909 25.5185L74.4069 25.9985C74.5349 26.2225 74.6469 26.5105 74.7589 26.7985H70.9829V28.1585H80.2949V26.7985ZM70.8229 28.4465H68.1669L69.3029 27.9825C69.1429 27.4225 68.7429 26.5105 68.3589 25.8545L67.0149 26.3345C67.3669 26.9905 67.7029 27.8545 67.8469 28.4465H65.5749V29.9345H70.8229V28.4465ZM70.3109 30.6545H66.2309V32.0945H70.3109V30.6545ZM66.2309 34.2545H70.3109V32.8305H66.2309V34.2545ZM69.0469 36.4945V38.3825H67.3989V36.4945H69.0469ZM70.4069 35.0385H66.0709V40.5105H67.3989V39.8385H70.4069V35.0385ZM74.7589 34.8945H76.4549V35.4065H74.7589V34.8945ZM74.7589 33.2305H76.4549V33.7585H74.7589V33.2305ZM72.9029 29.5825H73.9269V30.4145H72.9029V29.5825ZM77.3189 29.5825H78.3909V30.4145H77.3189V29.5825ZM79.3669 36.7345C78.9829 37.0065 78.3749 37.3745 77.8149 37.6625C77.5589 37.3745 77.3349 37.0545 77.1429 36.7025H80.4869V35.4065H78.1669V34.8945H79.9429V33.7585H78.1669V33.2305H80.1349V32.0945H78.1669V31.3905H79.8309V28.5905H75.9589V31.3905H76.4549V32.0945H74.7589V31.3905H75.3509V28.5905H71.5429V31.3905H73.0789V32.0945H71.3189V33.2305H73.0789V33.7585H71.5269V34.8945H73.0789V35.4065H70.8069V36.7025H73.2069C72.3909 37.1345 71.4309 37.4705 70.4869 37.6945C70.7429 37.9505 71.1749 38.5745 71.3509 38.8785C71.8629 38.7185 72.3589 38.5105 72.8549 38.2865C72.7909 38.9745 72.3749 39.4065 72.1029 39.6305C72.3589 39.8545 72.7429 40.4145 72.8869 40.7025C73.1749 40.5265 73.6709 40.3665 76.2309 39.8705C76.1829 39.5025 76.1509 38.8945 76.1669 38.4625L74.3109 38.7665V37.5025C74.6949 37.2625 75.0629 36.9905 75.3669 36.7025H75.5749C76.3429 38.6545 77.6709 40.0305 79.7989 40.6705C79.9909 40.2705 80.4229 39.6625 80.7749 39.3265C80.0069 39.1505 79.3509 38.8785 78.7749 38.5105C79.3029 38.2705 79.8629 37.9825 80.3269 37.6465L79.3669 36.7345ZM84.8709 25.8385C84.0709 28.1105 82.6789 30.3825 81.2389 31.8225C81.5589 32.2865 82.0869 33.3265 82.2629 33.8065C82.6149 33.4225 82.9829 32.9905 83.3349 32.5105V40.6865H85.1589V29.6785C85.7509 28.6225 86.2629 27.5025 86.6789 26.3985L84.8709 25.8385ZM87.8309 32.8945C87.4629 34.6705 86.7909 36.4785 85.8789 37.5985C86.3429 37.8385 87.1429 38.3185 87.5109 38.6225C88.4069 37.3265 89.2229 35.3105 89.6869 33.2785L87.8309 32.8945ZM94.4869 30.3985C94.4069 31.1025 94.3109 31.7745 94.2309 32.2705L95.8469 32.5425C96.0709 31.6145 96.3429 30.1265 96.5349 28.8305L95.1909 28.5745L94.8869 28.6385H89.3829C89.6709 27.8545 89.9269 27.0705 90.1349 26.2545L88.2789 25.8385C87.7349 28.0305 86.7749 30.2385 85.5589 31.5985C85.9909 31.8865 86.7589 32.5105 87.0949 32.8465C87.6229 32.1745 88.1509 31.3265 88.5989 30.3985H90.4549V38.5585C90.4549 38.7665 90.3749 38.8305 90.1669 38.8305C89.9429 38.8305 89.2709 38.8305 88.5989 38.8145C88.8869 39.3265 89.1749 40.1745 89.2549 40.7345C90.2789 40.7345 91.0469 40.6545 91.6069 40.3505C92.1829 40.0305 92.3429 39.5025 92.3429 38.5905V30.3985H94.4869ZM92.9189 33.3105C93.6869 34.9585 94.3589 37.1505 94.5349 38.5745L96.3589 37.9505C96.1349 36.5105 95.4469 34.3825 94.6149 32.7345L92.9189 33.3105ZM99.9909 37.3905V34.2545H102.535V37.3905H99.9909ZM102.535 32.6065H99.9909V30.0145H102.535V32.6065ZM107.607 28.2385C107.847 27.5665 108.071 26.8945 108.231 26.2065L106.423 25.7905C105.959 27.6625 105.191 29.5985 104.263 30.9425V28.3505H101.783C102.055 27.6625 102.343 26.8625 102.615 26.0625L100.535 25.7745C100.471 26.5265 100.279 27.5505 100.071 28.3505H98.2629V40.2385H99.9909V39.0705H104.263V31.5985C104.695 31.8865 105.239 32.2545 105.495 32.4945C105.991 31.8065 106.487 30.9265 106.903 29.9665H110.327C110.151 35.6145 109.943 38.0145 109.479 38.5265C109.271 38.7345 109.095 38.7985 108.775 38.7985C108.359 38.7985 107.415 38.7985 106.391 38.7025C106.727 39.2305 106.983 40.0305 107.015 40.5585C107.959 40.5905 108.919 40.6065 109.527 40.5265C110.167 40.4145 110.615 40.2385 111.063 39.6465C111.719 38.7985 111.895 36.2545 112.103 29.1025C112.119 28.8785 112.119 28.2385 112.119 28.2385H107.607ZM109.463 35.5345C108.967 34.6065 107.911 33.0865 107.111 31.9825L105.623 32.8305C106.407 33.9985 107.399 35.5665 107.847 36.5265L109.463 35.5345ZM124.407 34.9745V36.0305H117.767V34.9745H124.407ZM117.767 38.6225V37.4705H124.407V38.6225H117.767ZM115.863 40.7505H117.767V40.1905H124.407V40.7345H126.407V33.3905H115.863V40.7505ZM123.479 28.7505C123.303 29.3745 123.015 30.1265 122.759 30.7185H119.463C119.351 30.1425 119.031 29.3585 118.647 28.7505H123.479ZM124.839 30.7185C125.095 30.2225 125.367 29.6625 125.639 29.0705L124.167 28.7505H127.479V27.0705H122.327C122.167 26.5905 121.927 26.0465 121.655 25.5985L119.671 25.9185C119.847 26.2545 120.039 26.6705 120.167 27.0705H114.775V28.7505H118.295L116.743 29.0545C116.999 29.5505 117.239 30.1745 117.383 30.7185H113.879V32.4145H128.231V30.7185H124.839ZM134.727 33.6785C134.631 32.8945 134.407 31.7425 134.151 30.8305L132.951 31.1025C133.031 31.4225 133.111 31.7745 133.175 32.1425L131.911 32.2705C132.919 31.1505 133.927 29.8225 134.679 28.5105L133.335 27.7745C133.127 28.2385 132.855 28.7025 132.599 29.1505L131.767 29.2145C132.327 28.3985 132.871 27.4065 133.271 26.4785L131.799 25.9665C131.447 27.1825 130.743 28.4305 130.519 28.7665C130.295 29.1025 130.087 29.3425 129.847 29.3905C130.023 29.7745 130.263 30.4625 130.343 30.7665C130.519 30.6705 130.807 30.5905 131.751 30.4625C131.351 31.0225 130.999 31.4545 130.839 31.6465C130.439 32.1105 130.135 32.4145 129.799 32.4945C129.975 32.8625 130.215 33.5985 130.295 33.8705C130.567 33.7425 131.015 33.6305 133.383 33.3105C133.415 33.5505 133.447 33.7745 133.463 33.9665L134.727 33.6785ZM134.007 36.6065C133.031 37.5345 131.175 38.3345 129.399 38.6865C129.799 39.0545 130.359 39.7905 130.647 40.2545C132.551 39.7265 134.423 38.5585 135.543 37.1825L134.007 36.6065ZM144.247 36.1265V34.5585H138.055V33.7905H136.151V34.5585H129.815V36.1265H136.151V40.6705H138.055V36.1265H144.247ZM138.871 37.5985C140.295 38.3825 142.183 39.5825 143.063 40.3665L144.279 39.0065C143.319 38.2385 141.383 37.1185 139.991 36.4145L138.871 37.5985ZM137.639 29.6305H136.439V28.5585H137.639V29.6305ZM137.639 32.0465H136.439V30.9265H137.639V32.0465ZM137.591 27.1665L138.103 25.9505L136.375 25.6625C136.343 26.0945 136.231 26.6545 136.103 27.1665H134.823V33.4385H139.319V27.1665H137.591ZM142.551 31.3105C142.631 31.6145 142.711 31.9505 142.791 32.3025L141.543 32.4145C142.583 31.3105 143.607 29.9505 144.407 28.6385L143.031 27.8545C142.823 28.2865 142.583 28.7185 142.359 29.1185L141.287 29.2145C141.847 28.3825 142.423 27.3745 142.807 26.3825L141.271 25.9505C140.919 27.1825 140.199 28.4625 139.975 28.7985C139.767 29.1345 139.543 29.3745 139.319 29.4385C139.495 29.8225 139.735 30.5265 139.815 30.8465C140.007 30.7345 140.327 30.6545 141.431 30.4945C141.015 31.0865 140.647 31.5345 140.471 31.7265C140.071 32.1745 139.767 32.4785 139.431 32.5585C139.607 32.9425 139.847 33.6945 139.927 33.9985C140.199 33.8545 140.663 33.7585 143.047 33.5025C143.079 33.7265 143.111 33.9345 143.127 34.1265L144.407 33.7905C144.279 33.0385 144.007 31.8865 143.735 31.0065L142.551 31.3105ZM151.351 35.1665C151.175 34.9585 150.727 34.4465 150.279 33.9505C150.663 33.5665 151.143 33.0705 151.671 32.6065L150.567 31.5665C150.327 32.0145 149.863 32.6385 149.479 33.0865L149.239 32.8465V32.6865C149.927 31.5665 150.519 30.3665 150.951 29.1505L150.023 28.3985L149.735 28.4785H148.743L149.783 27.8545C149.495 27.2945 148.967 26.4305 148.487 25.7905L147.047 26.5265C147.415 27.1185 147.879 27.8865 148.151 28.4785H145.703V30.1905H148.823C147.991 31.9345 146.647 33.6305 145.335 34.6225C145.575 34.9745 145.975 35.9665 146.103 36.4945C146.567 36.0945 147.015 35.6465 147.479 35.1025V40.7185H149.239V34.8785C149.687 35.5185 150.151 36.1905 150.407 36.6385L151.351 35.1665ZM155.031 29.6785V31.9185H153.431V29.6785H155.031ZM157.815 33.5825C157.463 34.5905 156.951 35.5025 156.327 36.2705C155.687 35.4865 155.159 34.5745 154.775 33.5825H157.815ZM158.839 31.8545L158.519 31.9185H156.807V29.6785H158.311C158.183 30.2705 158.039 30.8305 157.895 31.2465L159.495 31.6145C159.831 30.7505 160.231 29.3745 160.519 28.1425L159.175 27.8705L158.887 27.9185H156.807V25.7745H155.031V27.9185H151.687V32.2065C151.687 34.4145 151.527 37.4065 149.767 39.4225C150.135 39.6465 150.855 40.3025 151.127 40.6545C152.615 38.9585 153.159 36.4465 153.351 34.2545C153.815 35.4865 154.391 36.5745 155.127 37.5185C154.247 38.2385 153.255 38.7985 152.151 39.1505C152.503 39.5185 152.935 40.2385 153.159 40.7025C154.327 40.2225 155.399 39.6145 156.327 38.8145C157.223 39.5985 158.279 40.2225 159.527 40.6705C159.783 40.1585 160.295 39.4065 160.695 39.0385C159.495 38.7025 158.471 38.1745 157.607 37.5025C158.711 36.1425 159.511 34.4305 159.975 32.2865L158.839 31.8545ZM173.687 30.5745H174.583V31.9025H173.687V30.5745ZM172.615 31.9025H171.751V30.5745H172.615V31.9025ZM170.695 31.9025H169.847V30.5745H170.695V31.9025ZM168.455 29.2305V33.2625H176.039V29.2305H172.743C172.791 28.9905 172.823 28.7185 172.871 28.4465H176.279V26.9585H173.079L173.207 25.9825L171.559 25.8705C171.527 26.2065 171.495 26.5745 171.447 26.9585H168.263V28.4465H171.239C171.207 28.7185 171.159 28.9905 171.111 29.2305H168.455ZM165.015 34.3345C164.151 34.5265 162.823 34.6545 161.751 34.7185C161.879 35.0385 162.023 35.4705 162.071 35.7585C162.343 35.7745 162.663 35.7585 162.999 35.7585V36.5265H162.103V37.6945H162.999V38.4945C162.503 38.5265 162.055 38.5585 161.655 38.5905L161.783 39.9505C162.887 39.8385 164.183 39.6945 165.495 39.5345L165.479 38.2705L164.391 38.3825V37.6945H165.223V36.5265H164.391V35.6465C164.823 35.6145 165.239 35.5505 165.607 35.4705L165.015 34.3345ZM164.215 32.5585V31.6785H165.783V32.4785L164.215 32.5585ZM165.783 27.9025V28.6385H164.215V27.9025H165.783ZM164.215 29.7905H165.783V30.5265H164.215V29.7905ZM176.711 39.2465C176.503 38.3665 175.831 37.1025 175.031 36.1905L173.751 36.7665C174.135 37.2305 174.487 37.7745 174.743 38.3345C174.343 38.2225 173.783 37.9985 173.527 37.7905C173.479 38.9105 173.399 39.0705 173.031 39.0705H171.831C171.399 39.0705 171.351 39.0225 171.351 38.6385V36.7345C171.799 37.2945 172.215 37.9025 172.439 38.3505L173.703 37.6145C173.399 37.0225 172.727 36.1425 172.039 35.5025H176.487V33.9025H168.023V35.5025H171.687L170.711 35.9985C170.855 36.1425 170.999 36.3185 171.159 36.4945H169.767V37.0065L168.583 36.4945C168.359 37.3425 167.943 38.3505 167.511 39.0385V27.9025H168.183V26.3985H161.751V27.9025H162.519V32.6385L161.719 32.6705L161.863 34.1585C162.999 34.0785 164.375 33.9985 165.783 33.8705V40.7025H167.511V39.2785L168.647 40.0465C169.127 39.2625 169.495 38.1585 169.767 37.2625V38.6705C169.767 40.0305 170.087 40.4785 171.607 40.4785H173.223C174.279 40.4785 174.711 40.0785 174.903 38.5745C175.111 39.0385 175.271 39.4865 175.335 39.8545L176.711 39.2465ZM181.703 33.0065H188.391V33.9985H181.703V33.0065ZM181.703 30.4625H188.391V31.4545H181.703V30.4625ZM181.703 27.9345H188.391V28.9265H181.703V27.9345ZM188.423 38.7825C187.815 38.7825 187.719 38.7185 187.719 38.2065V35.6625H190.327V26.2705H179.863V35.6625H181.815C181.543 37.4065 180.855 38.4785 177.575 39.0865C177.943 39.4865 178.455 40.2705 178.631 40.7825C182.583 39.8865 183.527 38.2065 183.863 35.6625H185.799V38.2225C185.799 40.0145 186.247 40.5905 188.151 40.5905H190.263C191.847 40.5905 192.343 39.9345 192.551 37.4065C192.055 37.2785 191.207 36.9585 190.807 36.6545C190.727 38.5105 190.631 38.7825 190.087 38.7825H188.423ZM199.831 35.2145H201.895C201.655 32.9905 205.143 32.7185 205.143 30.3665C205.143 28.2385 203.447 27.1665 201.127 27.1665C199.415 27.1665 198.007 27.9345 196.999 29.1185L198.311 30.3345C199.047 29.5025 199.879 29.0705 200.871 29.0705C202.119 29.0705 202.887 29.6145 202.887 30.5745C202.887 32.1265 199.495 32.7025 199.831 35.2145ZM199.207 37.8865C199.207 38.8145 199.911 39.4705 200.871 39.4705C201.831 39.4705 202.535 38.8145 202.535 37.8865C202.535 36.9585 201.831 36.3185 200.871 36.3185C199.911 36.3185 199.207 36.9585 199.207 37.8865ZM213.44 42.0945H217.104V26.4785H213.44V27.7265H215.344V40.8145H213.44V42.0945Z" fill="#202020"/>
<path d="M37.132 68.4565V67.0705H38.77V68.4565H37.132ZM41.08 67.0705V68.4565H39.526V67.0705H41.08ZM36.908 60.9665H38.406V62.7445H36.908V60.9665ZM39.12 60.9665H40.688V62.7445H39.12V60.9665ZM41.402 60.9665H42.998V62.7445H41.402V60.9665ZM37.692 64.4805C37.888 64.1585 38.07 63.8225 38.224 63.4865H43.824V60.2245H36.096V63.4865H37.286C36.768 64.5365 35.956 65.5025 35.088 66.1745C35.032 64.8165 34.85 63.4865 34.262 62.2405C34.822 61.5405 35.326 60.8125 35.718 60.0985L34.92 59.6925C34.64 60.2525 34.262 60.8405 33.814 61.4145C33.45 60.8405 33.002 60.2945 32.414 59.7485L31.77 60.2385C32.4 60.8545 32.876 61.4705 33.226 62.1285C32.694 62.7445 32.092 63.3185 31.49 63.7945C31.7 63.9345 31.994 64.1865 32.148 64.3685C32.652 63.9485 33.142 63.4725 33.618 62.9685C33.87 63.6125 34.01 64.2705 34.108 64.9565C33.506 66.2025 32.414 67.5045 31.476 68.1905C31.686 68.3725 31.952 68.6945 32.092 68.9045C32.82 68.3025 33.59 67.3505 34.206 66.3705C34.22 66.6225 34.22 66.8745 34.22 67.1265C34.22 68.9465 34.108 70.8085 33.744 71.2565C33.646 71.3965 33.534 71.4665 33.338 71.4805C33.044 71.5225 32.54 71.5225 31.966 71.4805C32.134 71.7185 32.204 72.0825 32.218 72.3625C32.736 72.3905 33.254 72.3765 33.674 72.3065C34.01 72.2645 34.248 72.1245 34.43 71.8725C34.962 71.1445 35.102 69.1705 35.102 67.1265C35.102 66.8185 35.102 66.5105 35.088 66.2025C35.298 66.3285 35.62 66.6085 35.774 66.7485C36.25 66.3425 36.726 65.8385 37.16 65.2645H43.236C43.124 69.5345 42.97 71.0325 42.704 71.3825C42.592 71.5505 42.466 71.5645 42.284 71.5645C42.144 71.5645 41.864 71.5645 41.542 71.5505L42.242 71.2845C42.06 70.7245 41.626 69.8985 41.15 69.2685L40.506 69.5065C40.66 69.7305 40.814 69.9825 40.954 70.2345L39.526 70.3465V69.1145H41.85V66.3985H39.526V65.5585H38.77V66.3985H36.39V69.1145H38.77V70.4025C37.622 70.5005 36.572 70.5845 35.774 70.6405L35.872 71.4525C37.3 71.3125 39.316 71.1305 41.304 70.9205C41.402 71.1445 41.486 71.3685 41.542 71.5505C41.402 71.5505 41.248 71.5365 41.08 71.5225C41.206 71.7465 41.29 72.1105 41.304 72.3485C41.85 72.3765 42.368 72.3905 42.662 72.3485C43.026 72.3065 43.25 72.2225 43.46 71.9285C43.838 71.4385 43.964 69.8005 44.118 64.9285C44.118 64.7885 44.132 64.4805 44.132 64.4805H37.692ZM48.556 61.7645H58.314V63.7245H59.252V60.8965H54.03C53.862 60.4905 53.568 59.9585 53.316 59.5525L52.364 59.8325C52.574 60.1405 52.77 60.5465 52.91 60.8965H47.646V63.7245H48.556V61.7645ZM57.474 64.6205C56.69 65.3625 55.43 66.3145 54.338 67.0145C54.03 66.2165 53.554 65.4465 52.868 64.7885C53.232 64.5365 53.568 64.2845 53.876 64.0185H57.446V63.2065H49.34V64.0185H52.644C51.314 64.9565 49.368 65.6985 47.59 66.1465C47.758 66.3145 48.01 66.6925 48.108 66.8885C49.452 66.4685 50.908 65.8945 52.182 65.1945C52.448 65.4745 52.7 65.7685 52.896 66.0905C51.678 67.0145 49.326 68.0365 47.576 68.4565C47.744 68.6525 47.954 68.9885 48.052 69.1985C49.718 68.6665 51.902 67.6725 53.274 66.7205C53.442 67.0845 53.568 67.4345 53.68 67.7845C52.28 69.0585 49.564 70.3885 47.324 70.9065C47.506 71.1165 47.716 71.4525 47.814 71.7045C49.844 71.1025 52.28 69.8845 53.862 68.6525C54.016 69.8705 53.75 70.9205 53.288 71.2425C53.022 71.4805 52.756 71.5225 52.378 71.5225C52.098 71.5225 51.608 71.4945 51.104 71.4525C51.258 71.7045 51.356 72.0685 51.356 72.3205C51.804 72.3485 52.238 72.3625 52.56 72.3625C53.162 72.3485 53.526 72.2505 53.946 71.9005C54.73 71.3265 55.08 69.5625 54.576 67.7565C54.814 67.6165 55.066 67.4765 55.304 67.3085C56.06 69.3385 57.418 71.0045 59.238 71.8025C59.378 71.5645 59.644 71.2145 59.854 71.0465C58.062 70.3605 56.676 68.7505 56.018 66.8465C56.802 66.3285 57.6 65.7405 58.244 65.2225L57.474 64.6205ZM68.394 67.9805H69.22L69.528 62.4365L69.556 60.8545H68.044L68.072 62.4365L68.394 67.9805ZM68.8 71.3825C69.374 71.3825 69.864 70.9905 69.864 70.3325C69.864 69.7025 69.374 69.2965 68.8 69.2965C68.226 69.2965 67.736 69.7025 67.736 70.3325C67.736 70.9905 68.226 71.3825 68.8 71.3825ZM80.126 69.8425C80.966 70.3605 81.96 71.1165 82.464 71.6625L83.122 71.0325C82.618 70.5005 81.596 69.7725 80.756 69.2965L80.126 69.8425ZM84.62 66.1045H86.622L86.286 66.4125C86.65 66.5245 87.056 66.6785 87.434 66.8605C86.496 66.8745 85.544 66.8885 84.62 66.9025V66.1045ZM80.266 65.4465V64.5225H83.724V65.4465H80.266ZM80.266 62.9965H83.724V63.9065H80.266V62.9965ZM88.176 62.9965V63.9065H84.62V62.9965H88.176ZM88.176 65.4465H84.62V64.5225H88.176V65.4465ZM90.514 68.4565H87.14V67.5465H86.3L88.61 67.4765C88.932 67.6725 89.212 67.8685 89.422 68.0505L89.982 67.4905C89.38 67.0425 88.302 66.4825 87.294 66.1045H89.086V62.3385H84.62V61.4985H89.94V60.7425H84.62V59.6505H83.724V60.7425H78.306V61.4985H83.724V62.3385H79.384V66.1045H83.724V66.9165C81.708 66.9445 79.846 66.9585 78.446 66.9585L78.488 67.7145C80.518 67.6865 83.346 67.6305 86.244 67.5465V68.4565H77.9V69.2405H86.244V71.3405C86.244 71.5085 86.174 71.5645 85.95 71.5785C85.726 71.5785 84.956 71.5785 84.074 71.5505C84.2 71.8025 84.326 72.1385 84.368 72.3765C85.502 72.3765 86.188 72.3765 86.608 72.2365C87.028 72.1105 87.14 71.8585 87.14 71.3545V69.2405H90.514V68.4565ZM97.682 69.7865C96.744 70.4025 94.924 70.9625 93.468 71.2145C93.664 71.3825 93.93 71.6905 94.042 71.9145C95.498 71.5785 97.388 70.8785 98.382 70.1225L97.682 69.7865ZM101 70.2345C102.372 70.7245 104.192 71.4385 105.13 71.8865L105.69 71.2705C104.71 70.8225 102.904 70.1505 101.546 69.7165L101 70.2345ZM101.896 62.9405C101.7 63.3605 101.336 63.9905 101.028 64.3965L101.532 64.5505H97.64L98.186 64.3965C98.06 64.0045 97.724 63.3885 97.402 62.9405H101.896ZM100.048 68.2465V67.1265H104.458V66.3845H100.048V65.3065H105.144V64.5505H101.868C102.19 64.1725 102.526 63.6685 102.862 63.1785L102.008 62.9405H105.648V62.1565H103.422C103.8 61.6105 104.276 60.8125 104.668 60.0845L103.73 59.8185C103.478 60.4485 103.002 61.3865 102.61 61.9745L103.156 62.1565H101.378V59.6365H100.496V62.1565H98.704V59.6365H97.836V62.1565H96.044L96.772 61.8765C96.548 61.3025 96.044 60.4345 95.54 59.7905L94.756 60.0705C95.218 60.7145 95.708 61.5825 95.918 62.1565H93.594V62.9405H97.262L96.52 63.1365C96.814 63.5705 97.136 64.1305 97.262 64.5505H94.154V65.3065H99.124V66.3845H94.868V67.1265H99.124V68.2465H93.552V69.0445H99.124V72.3905H100.048V69.0445H105.704V68.2465H100.048ZM119.004 63.5845H114.146V62.9125H119.004V63.5845ZM119.004 64.7885H114.146V64.1025H119.004V64.7885ZM119.004 66.0065H114.146V65.3205H119.004V66.0065ZM113.278 62.3665V66.5385H119.9V62.3665H116.512C116.638 62.1425 116.764 61.8905 116.89 61.6245H120.992V60.9385H118.626C118.864 60.6025 119.13 60.2245 119.368 59.8605L118.5 59.6365C118.318 60.0005 118.01 60.5465 117.73 60.9385H115.336L115.588 60.8545C115.462 60.5045 115.126 59.9725 114.818 59.6085L114.062 59.8605C114.328 60.1825 114.58 60.5885 114.734 60.9385H112.34V61.6245H115.966C115.882 61.8765 115.77 62.1285 115.686 62.3665H113.278ZM110.842 61.0365C110.702 60.6725 110.422 60.0845 110.198 59.6225L109.442 59.8605C109.638 60.3365 109.904 60.9525 110.044 61.3305L110.842 61.0365ZM111.08 70.1365C111.85 70.5985 112.76 71.2985 113.166 71.8305L113.838 71.2285C113.39 70.7105 112.48 70.0385 111.71 69.6045L111.08 70.1365ZM118.304 68.0085H117.408V68.8205H108.826V69.5625H117.408V71.3405C117.408 71.5225 117.338 71.5785 117.1 71.5925C116.89 71.6065 116.092 71.6065 115.154 71.5785C115.28 71.8165 115.434 72.1385 115.476 72.3765C116.638 72.3765 117.352 72.3905 117.772 72.2505C118.192 72.1105 118.304 71.8725 118.304 71.3545V69.5625H121.104V68.8205H118.304V68.0085ZM111.668 63.4305L111.542 63.4865H110.492C110.87 62.8565 111.276 62.1005 111.64 61.4285H108.714V62.1425H110.38C110.002 62.8705 109.554 63.6405 109.204 64.2005H111.108C110.814 64.9705 110.366 65.7685 109.89 66.2865H109.904C109.512 66.5525 109.134 66.9165 108.756 67.3225L109.288 68.0505C109.834 67.3225 110.422 66.6785 110.8 66.6785C111.08 66.6785 111.472 67.0285 111.99 67.3225C112.914 67.8125 114.146 67.9105 115.784 67.9105C117.226 67.9105 119.872 67.8405 121.146 67.7565C121.16 67.5185 121.3 67.1125 121.384 66.8745C119.928 67.0425 117.59 67.1265 115.798 67.1265C114.258 67.1265 113.012 67.0705 112.172 66.6225C111.626 66.3285 111.346 66.0765 111.024 65.9925C111.5 65.3065 111.892 64.4525 112.158 63.6405L111.668 63.4305ZM128.006 67.7005V70.2065H125.43V67.7005H128.006ZM127.894 62.5345V64.7045H125.43V62.5345H127.894ZM125.43 65.5165H128.72V61.7225H126.606C126.872 61.1345 127.166 60.4205 127.39 59.7905L126.382 59.6225C126.256 60.2385 126.004 61.0925 125.766 61.7225H124.576V71.9705H125.43V71.0185H128.86V66.8745H125.43V65.5165ZM136.728 61.2325V60.3785H129.308V61.2325H132.556V63.0385H129.854V70.3045H130.708V63.8785H132.556V72.3625H133.438V63.8785H135.426V69.2685C135.426 69.4085 135.384 69.4645 135.23 69.4645C135.09 69.4645 134.628 69.4645 134.082 69.4505C134.194 69.6745 134.32 70.0245 134.348 70.2625C135.118 70.2625 135.594 70.2485 135.902 70.1085C136.224 69.9685 136.294 69.7025 136.294 69.2685V63.0385H133.438V61.2325H136.728ZM145.324 67.0985C145.002 66.6925 143.56 65.0405 143.084 64.5925V64.4245H145.408V63.5565H143.084V61.2045C143.882 61.0365 144.638 60.8125 145.24 60.5745L144.68 59.8325C143.504 60.3365 141.404 60.7705 139.668 61.0505C139.766 61.2465 139.878 61.5685 139.92 61.7785C140.648 61.6805 141.432 61.5545 142.188 61.4005V63.5565H139.682V64.4245H142.034C141.376 66.1045 140.242 67.9525 139.206 68.9465C139.388 69.1565 139.626 69.5485 139.724 69.7865C140.578 68.8765 141.502 67.3505 142.188 65.7965V72.3485H143.084V65.5445C143.672 66.2865 144.456 67.3645 144.764 67.8545L145.324 67.0985ZM152.156 71.5365C151.722 69.9825 150.658 67.3925 149.692 65.3905L148.852 65.6845C149.412 66.8885 150 68.3305 150.462 69.6185L146.038 70.2625C147.116 67.4205 148.138 63.6125 148.768 60.1685L147.788 59.9865C147.214 63.5285 145.996 67.5185 145.604 68.5825C145.212 69.6885 144.89 70.4865 144.596 70.5985C144.708 70.8645 144.862 71.3125 144.904 71.5225C145.282 71.3265 145.856 71.2145 150.77 70.4445C150.952 70.9905 151.106 71.5085 151.218 71.9285L152.156 71.5365ZM158.134 62.4785H159.044V61.4285H160.752V60.6305H159.044V59.6225H158.134V60.6305H155.096V61.4285H158.134V62.4785ZM159.716 69.0165H160.948V70.0805H159.716V69.0165ZM160.948 65.4045V66.4405H159.716V65.4045H160.948ZM162.46 68.3865H159.716V67.0705H162.46V68.3865ZM165.89 64.7465C165.666 65.9225 165.344 67.0005 164.924 67.9805C164.742 66.8605 164.602 65.4885 164.532 63.8085H167.472V62.9965H166.548L166.898 62.7025C166.604 62.3525 166.002 61.9045 165.498 61.6245L164.938 62.0585C165.372 62.2965 165.848 62.6885 166.156 62.9965H164.504C164.504 62.7025 164.49 62.3945 164.49 62.0865H164.154V61.4285H167.374V60.6305H164.154V59.6365H163.23V60.6305H161.48V61.4285H163.23V62.4365H163.65L163.664 62.9965H157.448V65.4885H156.202V63.0525H155.474V66.2725H157.448V66.7765C157.448 67.0005 157.448 67.2385 157.434 67.4765H154.844V68.2745H155.642V68.9465C155.642 69.8145 155.516 71.0745 154.746 71.9845C154.928 72.0825 155.194 72.2645 155.334 72.3905C156.202 71.3825 156.356 69.9545 156.356 68.9745V68.2745H157.406C157.322 69.5485 157.112 70.9205 156.524 71.9985C156.72 72.0825 157.084 72.2785 157.224 72.4185C158.106 70.8225 158.246 68.4985 158.246 66.7765V63.8085H163.706C163.818 65.9925 164.042 67.7985 164.35 69.1565C164.042 69.7025 163.692 70.1925 163.3 70.6405V70.0805H161.634V69.0165H163.16V66.4405H161.634V65.4045H163.174V64.7465H159.002V70.7385H163.216C162.838 71.1585 162.432 71.5085 161.998 71.8445C162.194 71.9705 162.544 72.2505 162.698 72.4185C163.426 71.8165 164.084 71.0885 164.644 70.2485C165.092 71.6765 165.708 72.4045 166.436 72.4045C167.178 72.4045 167.486 72.0545 167.626 70.2485C167.416 70.1785 167.15 69.9965 166.954 69.8285C166.884 71.1865 166.744 71.5645 166.492 71.5785C166.044 71.5785 165.582 70.8365 165.19 69.3245C165.876 68.0505 166.394 66.5665 166.73 64.8865L165.89 64.7465ZM182.102 60.9245H177.356C177.202 60.4905 176.95 59.9445 176.656 59.5245L175.746 59.7205C175.97 60.0705 176.194 60.5325 176.32 60.9245H171.21V61.7645H182.102V60.9245ZM180.016 67.1405V68.6945H173.296V67.1405H180.016ZM173.296 71.0745V69.4505H180.016V71.0745H173.296ZM172.372 72.4045H173.296V71.8725H180.016V72.3765H180.968V66.3285H172.372V72.4045ZM179.176 64.2145C179.526 63.5845 179.904 62.7865 180.254 62.0865L179.246 61.8345C179.008 62.5205 178.56 63.5425 178.196 64.2145H174.374L174.962 64.0605C174.836 63.4585 174.458 62.5485 174.024 61.8905L173.142 62.0865C173.534 62.7305 173.87 63.5985 173.996 64.2145H170.412V65.0685H182.802V64.2145H179.176ZM198.174 66.4965C198.048 65.9225 197.754 65.0545 197.502 64.3685L196.872 64.5785C196.956 64.8585 197.068 65.1665 197.166 65.4885L195.402 65.6845C196.326 64.6065 197.264 63.2345 198.02 61.8485L197.306 61.4705C197.096 61.9045 196.872 62.3385 196.62 62.7725L195.136 62.9265C195.668 62.1005 196.214 61.0225 196.634 59.9445L195.85 59.6925C195.5 60.8825 194.8 62.1425 194.59 62.4785C194.394 62.8005 194.212 63.0385 194.044 63.0665C194.142 63.2765 194.24 63.6685 194.282 63.8365C194.464 63.7525 194.758 63.6825 196.186 63.4865C195.696 64.2285 195.248 64.8165 195.052 65.0545C194.716 65.4885 194.436 65.7825 194.198 65.8385C194.296 66.0345 194.422 66.4265 194.45 66.5805C194.66 66.4825 195.01 66.4125 197.348 66.1045C197.404 66.3425 197.46 66.5525 197.488 66.7205L198.174 66.4965ZM192.966 63.2485H191.034V61.7225H192.966V63.2485ZM192.966 65.5025H191.034V63.9625H192.966V65.5025ZM193.806 60.9805H192.098C192.224 60.6165 192.378 60.1545 192.532 59.7485L191.65 59.5805C191.608 59.9585 191.482 60.5325 191.356 60.9805H190.222V66.2445H193.806V60.9805ZM189.928 66.4265C189.858 65.8105 189.634 64.8585 189.396 64.1305L188.752 64.2845C188.836 64.5925 188.934 64.9425 189.004 65.2925L187.17 65.5165C188.108 64.4385 189.046 63.0525 189.816 61.6805L189.116 61.3165C188.892 61.7785 188.626 62.2405 188.374 62.6885L187.1 62.8145C187.618 62.0305 188.15 60.9945 188.542 59.9865L187.8 59.7065C187.45 60.8405 186.764 62.0585 186.554 62.3665C186.372 62.6885 186.204 62.8985 186.022 62.9265C186.106 63.1365 186.232 63.5285 186.274 63.6825C186.428 63.5985 186.694 63.5425 187.94 63.3745C187.464 64.1025 187.044 64.6905 186.848 64.9145C186.498 65.3345 186.246 65.6285 186.008 65.6845C186.092 65.8805 186.232 66.2725 186.26 66.4405C186.456 66.3145 186.806 66.2445 189.144 65.9085C189.186 66.1605 189.214 66.3985 189.242 66.5945L189.928 66.4265ZM189.984 68.7505C189.032 69.7865 187.156 70.7105 185.546 71.1445C185.756 71.3265 186.022 71.6625 186.162 71.9145C187.814 71.3825 189.732 70.2905 190.754 69.0865L189.984 68.7505ZM193.386 69.2825C194.842 70.0385 196.69 71.2145 197.586 71.9985L198.174 71.2845C197.236 70.5285 195.388 69.3945 193.932 68.6525L193.386 69.2825ZM192.462 67.4765V66.6085H191.538V67.4765H185.784V68.2885H191.538V72.3765H192.462V68.2885H198.202V67.4765H192.462ZM211.166 61.7645C210.62 61.1205 209.472 60.2665 208.492 59.6785L207.89 60.2245C208.87 60.8125 209.99 61.7225 210.522 62.3805L211.166 61.7645ZM206.364 69.0445C207.036 67.9665 207.344 66.1745 207.526 64.7185L206.77 64.5505C206.602 65.9645 206.28 67.6725 205.622 68.6805L206.364 69.0445ZM204.74 61.4425C204.488 60.9385 203.928 60.2245 203.396 59.6785L202.724 60.1405C203.214 60.6585 203.76 61.4285 204.012 61.9325L204.74 61.4425ZM206.112 67.1125C205.846 66.8185 204.866 65.8385 204.362 65.3625C205.09 64.4525 205.72 63.4165 206.154 62.3665L205.65 62.0025L205.468 62.0445H201.212V62.8985H204.978C204.068 64.6905 202.402 66.4125 200.862 67.3645C200.988 67.5325 201.198 67.9805 201.282 68.2465C201.954 67.8125 202.64 67.2245 203.284 66.5665V72.3765H204.194V66.2865C204.67 66.8185 205.244 67.4905 205.51 67.8545L206.112 67.1125ZM213.896 68.6385C213.742 67.4905 213.182 65.7825 212.482 64.4665L211.726 64.6765C212.244 63.4305 212.692 62.1005 213.098 60.6865L212.202 60.4905C211.474 63.2205 210.48 65.6565 209.15 67.6865V62.7165H208.268V68.8905C207.47 69.8845 206.574 70.7665 205.538 71.4945C205.748 71.6485 206.126 71.9565 206.294 72.1245C207.008 71.5785 207.666 70.9625 208.268 70.2905V70.8225C208.268 71.9985 208.548 72.3065 209.654 72.3065H211.53C212.538 72.3065 212.776 71.7325 212.874 69.7585C212.636 69.7025 212.286 69.5485 212.076 69.3805C212.02 71.1165 211.936 71.4805 211.46 71.4805H209.752C209.248 71.4805 209.15 71.3825 209.15 70.8505V69.2125C210.144 67.8965 210.998 66.3845 211.712 64.6905C212.356 66.0205 212.902 67.7425 213.042 68.8765L213.896 68.6385ZM220.994 66.6365L220.896 65.7825L219.3 66.2445V63.3465H220.882V62.4785H219.3V59.6365H218.376V62.4785H216.556V63.3465H218.376V66.5105C217.62 66.7205 216.934 66.9025 216.374 67.0425L216.654 67.9525L218.376 67.4345V71.2285C218.376 71.4385 218.306 71.5085 218.11 71.5085C217.942 71.5225 217.326 71.5225 216.654 71.5085C216.766 71.7605 216.906 72.1245 216.948 72.3625C217.9 72.3625 218.46 72.3345 218.81 72.1945C219.146 72.0405 219.3 71.7885 219.3 71.2285V67.1545L220.994 66.6365ZM227.238 65.7545C226.706 67.0845 225.866 68.2185 224.858 69.1145C223.934 68.1905 223.206 67.0425 222.73 65.7545H227.238ZM227.812 64.8585L227.644 64.9005H225.32V62.7305H228.722V61.8625H225.32V59.6225H224.41V61.8625H221.064V62.7305H224.41V64.9005H221.372V65.7545H221.792C222.338 67.2945 223.136 68.6105 224.144 69.7025C222.982 70.5565 221.638 71.1725 220.266 71.5505C220.448 71.7465 220.686 72.1245 220.798 72.3905C222.226 71.9425 223.612 71.2705 224.83 70.3465C225.88 71.2565 227.14 71.9565 228.61 72.4045C228.75 72.1525 229.016 71.7885 229.212 71.5925C227.784 71.2145 226.552 70.5845 225.53 69.7305C226.804 68.5545 227.812 67.0425 228.4 65.1245L227.812 64.8585ZM244.332 64.6205V63.6685H238.494C238.704 62.1705 238.718 60.7705 238.732 59.6505H237.752C237.738 60.7425 237.752 62.1565 237.528 63.6685H232.124V64.6205H237.36C236.786 67.3085 235.386 70.0805 231.872 71.6065C232.11 71.8025 232.418 72.1245 232.572 72.3765C236.058 70.7805 237.556 67.9805 238.214 65.2085C239.292 68.4845 241.126 71.0745 243.856 72.3625C244.024 72.0825 244.318 71.7045 244.542 71.4945C241.84 70.3605 239.992 67.7705 238.998 64.6205H244.332ZM251.752 65.8665C251.234 66.0345 250.688 66.1885 250.17 66.3425V63.3465H251.752V62.4785H250.17V59.6365H249.274V62.4785H247.258V63.3465H249.274V66.5945C248.462 66.8185 247.72 67.0285 247.132 67.1685L247.314 68.0925L249.274 67.5045V71.1445C249.274 71.3545 249.204 71.4245 248.994 71.4245C248.826 71.4245 248.196 71.4385 247.51 71.4105C247.622 71.6625 247.762 72.0405 247.804 72.2785C248.77 72.2785 249.33 72.2645 249.694 72.1105C250.03 71.9565 250.17 71.7185 250.17 71.1445V67.2385C250.73 67.0705 251.304 66.9025 251.864 66.7205L251.752 65.8665ZM253.306 62.9825H258.192V64.2565H253.306V62.9825ZM253.306 61.0225H258.192V62.2685H253.306V61.0225ZM253.866 66.0065C254.09 65.6845 254.286 65.3345 254.468 64.9985H259.06V60.2805H252.466V64.9985H253.502C252.788 66.2305 251.738 67.3925 250.674 68.1765C250.87 68.3585 251.178 68.7365 251.29 68.9185C251.612 68.6525 251.92 68.3725 252.242 68.0365V69.9265C252.242 70.9345 252.536 71.2705 253.586 71.2705H256.596C257.1 71.2705 257.576 71.2565 257.8 71.2005C257.772 71.0045 257.744 70.6685 257.716 70.4445C257.45 70.5005 256.89 70.5145 256.568 70.5145H253.572C253.138 70.5145 253.04 70.3745 253.04 69.9405V67.3085H252.886C253.026 67.1545 253.152 67.0005 253.278 66.8325H258.92C258.738 69.9265 258.584 71.0885 258.29 71.4105C258.164 71.5365 258.038 71.5645 257.814 71.5645C257.576 71.5645 256.946 71.5505 256.274 71.4945C256.414 71.7325 256.512 72.0825 256.526 72.3345C257.184 72.3765 257.828 72.3905 258.164 72.3625C258.556 72.3345 258.794 72.2365 259.018 71.9565C259.396 71.5085 259.592 70.1645 259.788 66.4405C259.802 66.3145 259.816 66.0065 259.816 66.0065H253.866ZM255.602 67.0005C255.336 68.0505 254.552 69.1145 253.46 69.7165C253.614 69.8425 253.824 70.0945 253.936 70.2485C254.608 69.8845 255.182 69.3385 255.602 68.7085C256.246 69.1985 256.96 69.8145 257.352 70.2205L257.856 69.7305C257.408 69.2965 256.624 68.6525 255.938 68.1485C256.12 67.8125 256.246 67.4765 256.344 67.1405L255.602 67.0005ZM264.044 62.2965H268.51V65.1945H269.42V62.2965H273.956V64.2845H274.894V61.6525H269.42V60.8545H274.348V60.1965H263.68V60.8545H268.51V61.6525H263.148V64.2845H264.044V62.2965ZM273.62 64.4105C272.85 64.1445 271.436 63.8505 270.358 63.7245L270.148 64.2565C271.24 64.4105 272.64 64.7465 273.41 65.0125L273.62 64.4105ZM272.934 62.4085C272.248 62.6605 271.044 63.0945 270.246 63.2905L270.554 63.7245C271.366 63.5425 272.528 63.2625 273.326 62.9125L272.934 62.4085ZM264.702 64.9705C265.626 64.8025 266.69 64.6065 267.782 64.3825L267.754 63.8085C266.508 64.0045 265.304 64.1725 264.436 64.2845L264.702 64.9705ZM264.842 62.9125C265.724 63.1085 266.83 63.4585 267.418 63.7525L267.684 63.2065C267.082 62.9265 265.976 62.6045 265.122 62.4365L264.842 62.9125ZM269.84 69.2965C270.512 69.0445 271.184 68.7365 271.8 68.3585C272.416 68.7505 273.116 69.0585 273.844 69.2965H269.84ZM270.274 71.3685V69.9265H273.27V71.3685H270.274ZM270.554 66.2585H273.228C272.864 66.7345 272.36 67.1685 271.786 67.5465C271.254 67.1965 270.778 66.8185 270.428 66.3985L270.554 66.2585ZM264.492 66.1045H267.278V67.4485H264.492V66.1045ZM273.858 65.5725L273.718 65.6145H271.1C271.226 65.4185 271.366 65.2225 271.492 65.0265L270.722 64.9005C270.26 65.6845 269.392 66.5525 268.202 67.2105C268.37 67.3085 268.608 67.5465 268.748 67.7145C269.196 67.4345 269.602 67.1545 269.952 66.8325C270.288 67.2385 270.68 67.6165 271.142 67.9385C270.204 68.4565 269.14 68.8345 268.146 69.0725L268.16 69.0865H266.326V68.0925H268.09V65.4465H263.708V68.0925H265.514V71.2425L264.366 71.3685V68.5965H263.624V71.4385L262.798 71.5225L262.91 72.2925C264.408 72.1245 266.508 71.8865 268.538 71.6625L268.524 70.9485L266.326 71.1725V69.7725H268.188V69.1005C268.342 69.2685 268.496 69.5205 268.566 69.6885C268.86 69.6185 269.154 69.5345 269.462 69.4365V72.3765H270.274V72.0125H273.27V72.3625H274.096V69.3805C274.404 69.4645 274.712 69.5485 275.034 69.6185C275.132 69.3945 275.37 69.0865 275.538 68.9465C274.446 68.7505 273.382 68.3865 272.458 67.9245C273.256 67.3645 273.928 66.6645 274.376 65.8525L273.858 65.5725Z" fill="white"/>
</svg>
