<svg width="298" height="101" viewBox="0 0 298 101" fill="none" xmlns="http://www.w3.org/2000/svg">
<path d="M179.716 15.3707H9.32031V50.5124H179.716V15.3707Z" fill="#00FF63"/>
<path d="M179.388 15.7279V50.1551H9.6776V15.7279H179.388ZM180.132 14.9837H9.00781V50.8398H180.132V15.0134V14.9837Z" fill="black"/>
<path d="M181.295 14.8498H169.448V50.1477H181.295V14.8498Z" fill="black"/>
<path d="M180.856 15.2963V49.7235H169.887V15.2963H180.856ZM181.735 14.4181H169.016V50.5942H181.735V14.4181Z" fill="#00FF63"/>
<path d="M166.337 32.7927L176.436 22.6937L186.535 32.7927L191.335 28L181.236 17.8936L191.335 7.79463L186.535 2.99446L176.436 13.1009L166.337 2.99446L161.537 7.79463L171.643 17.8936L161.537 27.9925L166.337 32.7927Z" fill="#00FF63" stroke="black" stroke-width="1.1" stroke-miterlimit="10"/>
<path d="M164.335 30.7908L174.434 20.6918L184.54 30.7908L189.333 25.9981L179.234 15.8991L189.333 5.79271L184.54 0.999985L174.434 11.0989L164.335 0.999985L159.542 5.79271L169.641 15.8991L159.542 25.9981L164.335 30.7908Z" fill="#00FF63" stroke="black" stroke-width="1.1" stroke-miterlimit="10"/>
<path d="M9.67751 50.2891H1V58.9666H9.67751V50.2891Z" fill="black" stroke="black" stroke-width="0.59" stroke-miterlimit="10"/>
<path d="M18.355 41.6116H9.67749V50.2891H18.355V41.6116Z" fill="black" stroke="black" stroke-width="0.59" stroke-miterlimit="10"/>
<path d="M9.67751 32.9415H1V41.619H9.67751V32.9415Z" fill="black" stroke="black" stroke-width="0.59" stroke-miterlimit="10"/>
<path d="M18.355 24.264H9.67749V32.9415H18.355V24.264Z" fill="black" stroke="black" stroke-width="0.59" stroke-miterlimit="10"/>
<path d="M9.67751 15.594H1V24.2715H9.67751V15.594Z" fill="black" stroke="black" stroke-width="0.59" stroke-miterlimit="10"/>
<path d="M18.355 6.91645H9.67749V15.594H18.355V6.91645Z" fill="black" stroke="black" stroke-width="0.59" stroke-miterlimit="10"/>
<path d="M297.717 49.6491H9.17139V100.696H297.717V49.6491Z" fill="black"/>
<path d="M296.988 50.3785V99.6769H9.45427V50.3785H296.988ZM298 49.3738H8.44214V100.689H298V49.3738Z" fill="#00FF63"/>
<path d="M28.616 41.768H32.28V40.488H30.376V27.4H32.28V26.152H28.616V41.768ZM37.7989 27.992L36.8709 28.76C37.2389 29.096 37.6869 29.56 38.0229 29.96H35.2709C35.7829 29.384 36.2949 28.728 36.7589 27.992H37.7989ZM39.1429 32.216H36.3909V31.384H39.1429V32.216ZM36.3909 34.248V33.576H39.1429V34.248H36.3909ZM37.8149 36.408C38.0069 36.712 38.2309 37.032 38.4389 37.368L36.3909 37.816V35.672H40.9189V29.96H38.6789L39.6709 29.128C39.4149 28.808 38.9669 28.36 38.5349 27.992H40.9669V26.392H37.6229C37.7029 26.216 37.7829 26.056 37.8469 25.88L35.9749 25.32C35.4629 26.632 34.5349 27.96 33.5589 28.808C33.8469 29.112 34.3429 29.752 34.6469 30.2V37.208C34.6469 37.928 34.2789 38.392 33.9749 38.616C34.2629 38.936 34.6949 39.672 34.8229 40.088C35.1909 39.864 35.7989 39.688 39.3189 38.824C39.5589 39.256 39.7829 39.656 39.9269 39.992L41.4789 39.192C41.0309 38.248 40.1029 36.84 39.3189 35.736L37.8149 36.408ZM42.3749 29.96C42.7749 29.384 43.1749 28.728 43.5269 27.992H44.7269L43.9269 28.648C44.3589 29.032 44.8549 29.56 45.1749 29.96H42.3749ZM48.3749 26.392H44.1989C44.2629 26.2 44.3269 25.992 44.3909 25.8L42.4549 25.32C42.0549 26.808 41.2709 28.28 40.3589 29.208C40.7589 29.496 41.3989 30.12 41.7509 30.504V40.344H43.5429V31.688H46.0389V36.536C46.0389 36.744 45.9589 36.808 45.7189 36.808C45.4949 36.824 44.6949 36.824 43.9749 36.792C44.1989 37.272 44.4549 38.024 44.5189 38.536C45.6869 38.536 46.5029 38.52 47.0789 38.232C47.7029 37.944 47.8469 37.464 47.8469 36.584V29.96H45.5589L46.6949 29C46.4869 28.728 46.0869 28.344 45.7029 27.992H48.3749V26.392ZM53.2549 37.368V35.48H60.6629V37.368H53.2549ZM60.6629 31.8V33.688H53.2549V31.8H60.6629ZM60.6629 28.168V30.008H53.2549V28.168H60.6629ZM51.3349 26.312V40.216H53.2549V39.224H60.6629V40.216H62.6789V26.312H51.3349ZM67.7349 29.88C67.6069 28.968 67.2709 27.56 66.9669 26.488L65.6549 26.808C65.9429 27.88 66.2469 29.304 66.3429 30.232L67.7349 29.88ZM73.8309 36.744C73.8469 36.488 73.8629 36.232 73.8789 35.976H77.9749V36.744H73.8309ZM77.9749 33.992V34.744H73.8789V33.992H77.9749ZM79.7349 32.6H72.1669V35.448C72.1669 36.696 72.0709 38.2 71.1429 39.32C71.4949 39.528 72.1989 40.184 72.4709 40.52C73.0789 39.816 73.4469 38.904 73.6389 37.976H77.9749V38.648C77.9749 38.824 77.9109 38.888 77.7029 38.888C77.5109 38.888 76.8389 38.888 76.2469 38.872C76.4549 39.288 76.6789 39.928 76.7429 40.376C77.7509 40.392 78.5029 40.36 79.0309 40.12C79.5909 39.88 79.7349 39.464 79.7349 38.664V32.6ZM76.8069 30.584V29.88H79.9749V28.616H76.8069V27.976H80.2949V26.616H76.8069V25.448H74.9669V26.616H71.6549V26.968L70.2309 26.52C70.0549 27.416 69.7189 28.664 69.3989 29.56V25.464H67.7349V30.76H65.6869V32.52H67.7349V33.432L66.8869 33.128C66.6629 34.344 66.0549 35.816 65.4149 36.632C65.6869 37.176 66.0389 38.024 66.1989 38.584C66.8709 37.8 67.3829 36.456 67.7349 35.096V40.392H69.3989V34.44C69.7989 35.192 70.2949 36.248 70.5349 36.872L71.7349 35.496C71.4789 35.112 70.3909 33.544 70.0709 33.176L69.3989 33.64V32.52H71.1109V30.76H69.3989V29.912L70.4549 30.312C70.7909 29.56 71.2389 28.424 71.6549 27.368V27.976H74.9669V28.616H72.0549V29.88H74.9669V30.584H71.4149V31.944H80.5029V30.584H76.8069ZM90.8389 28.92H92.6949V28.024H96.1669V26.36H92.6949V25.464H90.8389V26.36H89.3029V28.024H90.8389V28.92ZM85.3029 28.92H87.1589V28.024H88.7909V26.36H87.1589V25.464H85.3029V26.36H81.9109V28.024H85.3029V28.92ZM84.1989 31.128V31.816H82.1989V33.416H84.1989V34.184H85.9589V33.416H87.4309V31.816H85.9589V31.128H84.1989ZM96.3429 36.104V34.456H89.9429V30.84H95.8949V29.288H82.2149V30.84H88.0549V34.456H81.8149V36.104H88.0549V36.904H82.7429V38.472H88.0549V40.392H89.9429V38.472H95.2709V36.904H89.9429V36.104H96.3429ZM93.8789 34.184V33.336H95.7989V31.736H93.8789V31.128H92.1189V31.736H90.5669V33.336H92.1189V34.184H93.8789ZM109.511 31.816V32.408H105.351V31.816H109.511ZM105.319 34.168C105.335 33.944 105.351 33.736 105.351 33.528H109.511V34.168H105.319ZM109.975 37.432V38.568H106.471V37.432H109.975ZM111.207 35.48V30.488H103.543V33.112C103.543 34.92 103.399 37.496 101.911 39.288C102.343 39.48 103.127 40.024 103.447 40.328C104.135 39.464 104.583 38.424 104.871 37.304V40.392H106.471V39.928H109.975V40.36H111.639V36.072H105.127C105.159 35.88 105.191 35.672 105.223 35.48H111.207ZM106.263 28.536C106.695 28.184 107.095 27.8 107.463 27.432C107.863 27.784 108.311 28.168 108.791 28.536H106.263ZM107.127 25.256C106.103 26.728 104.279 28.024 102.471 28.84V28.488H101.223V25.464H99.3509V28.488H97.6709V30.248H99.3509V33.128C98.6629 33.288 98.0549 33.432 97.5109 33.544L98.0069 35.368L99.3509 35.016V38.296C99.3509 38.504 99.3029 38.568 99.0949 38.568C98.9349 38.568 98.4069 38.568 97.8949 38.552C98.1189 39.048 98.3429 39.8 98.3909 40.28C99.3989 40.28 100.087 40.232 100.567 39.928C101.079 39.64 101.223 39.176 101.223 38.312V34.52C101.767 34.392 102.295 34.232 102.823 34.088L102.583 32.344L101.223 32.68V30.248H102.471V29.368C102.727 29.8 102.999 30.344 103.111 30.616C103.927 30.2 104.743 29.688 105.543 29.112V29.816H109.351V28.952C110.167 29.512 111.047 30.04 111.863 30.424C112.007 29.96 112.327 29.176 112.615 28.76C111.143 28.232 109.479 27.272 108.407 26.296C108.503 26.152 108.599 26.04 108.695 25.896L107.127 25.256ZM124.567 38.36C124.071 38.36 123.991 38.28 123.991 37.752V33.864H128.167V32.024H122.023V29.432H126.919V27.608H122.023V25.448H120.087V27.608H118.023C118.199 27.064 118.359 26.552 118.503 26.056L116.551 25.672C116.215 27.304 115.463 29.464 114.423 30.776C114.871 30.952 115.671 31.336 116.103 31.608C116.551 31.016 116.967 30.248 117.335 29.432H120.087V32.024H113.959V33.864H117.735C117.495 35.976 116.887 37.768 113.703 38.808C114.135 39.208 114.663 39.976 114.887 40.488C118.567 39.096 119.383 36.712 119.735 33.864H122.071V37.752C122.071 39.56 122.487 40.152 124.279 40.152H126.119C127.607 40.152 128.119 39.464 128.311 36.936C127.799 36.808 126.967 36.488 126.583 36.168C126.519 38.056 126.423 38.36 125.943 38.36H124.567ZM140.727 34.616H134.935V33.928H140.727V34.616ZM134.935 38.424V37.688H140.727V38.424H134.935ZM140.727 36.504H134.935V35.8H140.727V36.504ZM144.151 31.832V30.328H136.231C136.327 30.104 136.423 29.864 136.503 29.64H143.287V28.2H137.015C137.095 27.944 137.175 27.688 137.239 27.432C139.431 27.32 141.527 27.144 143.223 26.856L142.103 25.496C139.415 25.944 134.791 26.136 130.887 26.136C131.047 26.52 131.223 27.144 131.239 27.56C132.487 27.576 133.815 27.56 135.143 27.512C135.095 27.752 135.031 27.976 134.967 28.2H131.063V29.64H134.455C134.359 29.864 134.263 30.104 134.151 30.328H129.943V31.832H133.351C132.391 33.336 131.111 34.664 129.447 35.56C129.815 35.944 130.375 36.648 130.647 37.096C131.575 36.552 132.391 35.896 133.111 35.176V40.44H134.935V39.864H140.727V40.44H142.647V32.488H135.159C135.287 32.264 135.415 32.056 135.527 31.832H144.151ZM149.44 41.768H153.104V26.152H149.44V27.4H151.344V40.488H149.44V41.768Z" fill="#202020"/>
<path d="M36.516 63.1785C36.516 64.7325 36.376 66.6645 35.2 68.4985C34.556 67.9665 33.884 67.4485 33.24 66.9865C33.52 65.9225 33.828 64.5925 34.108 63.2485C34.878 63.1925 35.69 63.1505 36.516 63.0945V63.1785ZM37.426 61.5125H36.516V62.1985L34.262 62.3245C34.43 61.4285 34.57 60.5465 34.668 59.7345L33.702 59.6785C33.618 60.5045 33.478 61.4425 33.324 62.3665L31.518 62.4505L31.63 63.3885L33.156 63.3045C32.848 64.7885 32.512 66.2305 32.19 67.2525C32.974 67.8265 33.856 68.5265 34.668 69.2265C33.94 70.1085 32.932 70.9485 31.546 71.6905C31.77 71.8585 32.064 72.1805 32.19 72.3905C33.59 71.6205 34.612 70.7665 35.368 69.8565C36.026 70.4585 36.6 71.0325 36.992 71.4945L37.664 70.7805C37.23 70.3045 36.614 69.7165 35.928 69.1005C37.258 67.0985 37.426 64.9285 37.426 63.2065V63.0385L38.028 62.9965L38.042 62.1285L37.426 62.1705V61.5125ZM39.484 70.1085V62.0305H42.648V70.1085H39.484ZM38.588 61.1485V72.0405H39.484V70.9905H42.648V71.8305H43.558V61.1485H38.588ZM50.208 59.6505C49.466 61.7645 48.276 63.8505 46.988 65.2085C47.156 65.4185 47.436 65.8945 47.52 66.1045C47.982 65.5865 48.444 64.9845 48.878 64.3265V72.3765H49.802V62.7725C50.292 61.8485 50.726 60.8825 51.076 59.9165L50.208 59.6505ZM55.038 64.7885V67.8965H52.476V64.7885H55.038ZM55.906 68.7225V63.9625H51.594V69.7165H52.476V68.7225H55.906ZM59.812 61.0085H51.146V61.9045H57.838V71.0465C57.838 71.3265 57.74 71.4105 57.46 71.4105C57.138 71.4385 56.102 71.4385 54.94 71.3965C55.094 71.6905 55.248 72.0825 55.29 72.3625C56.676 72.3765 57.586 72.3485 58.09 72.1945C58.566 72.0405 58.762 71.7605 58.762 71.0465V61.9045H59.812V61.0085ZM63.928 62.1565H73.602V64.2705H74.554V61.2605H69.584C69.374 60.7425 68.996 60.0565 68.66 59.5245L67.736 59.7765C68.016 60.2245 68.296 60.7845 68.492 61.2605H63.004V64.2705H63.928V62.1565ZM72.608 64.5925V63.7245H64.964V64.5925H72.608ZM71.558 71.2985C70.97 71.2985 70.858 71.2285 70.858 70.8225V67.1965H74.946V66.3145H62.64V67.1965H66.434C66.238 69.7585 65.636 71.0045 62.472 71.6485C62.654 71.8165 62.892 72.1805 62.962 72.4045C66.392 71.6485 67.162 70.1505 67.386 67.1965H69.92V70.8365C69.92 71.8725 70.256 72.1525 71.474 72.1525H73.672C74.75 72.1525 75.03 71.6905 75.142 69.7865C74.876 69.7165 74.498 69.5765 74.288 69.4225C74.232 71.0465 74.148 71.2985 73.602 71.2985H71.558ZM89.702 61.3445C89.142 60.8545 88.05 60.1685 87.154 59.7345L86.608 60.3085C87.49 60.7705 88.596 61.4845 89.128 61.9745L89.702 61.3445ZM88.666 64.1165C88.19 65.5725 87.56 66.8745 86.776 68.0085C86.398 66.6505 86.118 64.9145 85.978 62.9685H90.444V62.0585H85.908C85.866 61.2885 85.852 60.4765 85.852 59.6505H84.886C84.886 60.4625 84.914 61.2745 84.956 62.0585H79.076V65.9505C79.076 67.7425 78.95 70.1365 77.774 71.8445C77.998 71.9565 78.39 72.2925 78.544 72.4745C79.818 70.6405 80.028 67.8965 80.028 65.9645V65.7125H82.716C82.66 68.2465 82.59 69.1565 82.394 69.3805C82.296 69.5065 82.156 69.5205 81.96 69.5205C81.708 69.5205 81.092 69.5205 80.42 69.4645C80.574 69.7025 80.672 70.0525 80.686 70.3325C81.372 70.3745 82.016 70.3745 82.38 70.3465C82.758 70.3045 82.982 70.2205 83.178 69.9545C83.472 69.6045 83.556 68.4425 83.626 65.2785V64.8585H80.028V62.9685H85.026C85.194 65.2645 85.53 67.3085 86.076 68.9185C85.138 69.9965 84.032 70.8785 82.758 71.5505C82.968 71.7325 83.29 72.1105 83.43 72.3065C84.564 71.6485 85.558 70.8505 86.426 69.9125C87.084 71.3825 87.938 72.2785 89.016 72.2785C90.038 72.2785 90.388 71.5785 90.556 69.2405C90.318 69.1705 89.968 68.9605 89.758 68.7505C89.674 70.6125 89.492 71.3405 89.086 71.3405C88.33 71.3405 87.658 70.5145 87.126 69.0865C88.162 67.7565 88.974 66.1745 89.576 64.3545L88.666 64.1165ZM93.272 65.3625V66.3705H105.984V65.3625H93.272ZM118.64 66.1185H111.346V64.6345H118.64V66.1185ZM111.346 70.7245V69.1565H118.64V70.7245H111.346ZM118.64 68.4005H111.346V66.8745H118.64V68.4005ZM121.244 62.4365V61.5685H117.618C118.052 61.0785 118.5 60.4765 118.906 59.8885L117.884 59.6085C117.576 60.1965 117.03 61.0085 116.582 61.5685H112.788L113.39 61.2465C113.138 60.7705 112.592 60.0845 112.074 59.5805L111.276 59.9305C111.71 60.4345 112.214 61.0925 112.48 61.5685H108.784V62.4365H114.482C114.384 62.8705 114.258 63.3885 114.118 63.8085H110.436V72.3905H111.346V71.5645H118.64V72.3905H119.592V63.8085H115.098C115.252 63.4025 115.406 62.8985 115.56 62.4365H121.244ZM128.174 63.5425C128.132 64.9425 127.95 66.6505 127.138 68.2885C126.55 67.8265 125.962 67.3645 125.402 66.9445C125.654 66.0065 125.92 64.8445 126.158 63.6685L128.174 63.5425ZM129.868 63.4305V62.5905L129.056 62.6325V61.6385H128.174V62.6885L126.34 62.7865C126.522 61.7225 126.704 60.6585 126.816 59.7065L125.892 59.6645C125.794 60.6305 125.626 61.7365 125.444 62.8145C124.898 62.8285 124.422 62.8565 124.002 62.8705L124.1 63.7805L125.262 63.7105C124.982 65.0545 124.674 66.3145 124.38 67.2525C125.108 67.7845 125.92 68.4425 126.676 69.0865C126.074 70.0385 125.22 70.9625 124.044 71.7885C124.24 71.9285 124.562 72.2085 124.716 72.4185C125.878 71.5785 126.732 70.6545 127.362 69.7165C128.02 70.3185 128.608 70.8925 129 71.3685L129.602 70.5845C129.182 70.1085 128.552 69.5065 127.838 68.9045C128.804 67.0145 129.014 65.0825 129.056 63.4865L129.868 63.4305ZM136.77 65.5725H133.634V64.1585C134.614 63.3185 135.636 62.1425 136.308 61.1065L135.664 60.6445L135.44 60.7005H130.036V61.5545H134.796C134.236 62.3805 133.424 63.3185 132.682 63.9205V65.5725H129.392V66.4545H132.682V71.2425C132.682 71.4385 132.612 71.5085 132.388 71.5225C132.164 71.5225 131.408 71.5225 130.568 71.5085C130.694 71.7605 130.862 72.1385 130.918 72.3905C131.996 72.4045 132.64 72.3765 133.06 72.2365C133.48 72.0825 133.634 71.8165 133.634 71.2425V66.4545H136.77V65.5725ZM151.12 62.7445C150.952 63.6825 150.728 64.7185 150.504 65.3905L151.246 65.6145C151.582 64.7185 151.904 63.2765 152.128 62.0585L151.512 61.8625L151.372 61.9045H148.11C148.292 61.2185 148.446 60.5045 148.572 59.7765L147.662 59.6225C147.354 61.7085 146.766 63.7245 145.828 65.0265C146.066 65.1245 146.458 65.3625 146.626 65.4885C147.116 64.7465 147.536 63.8085 147.872 62.7445H151.12ZM142.818 68.3165V69.8565H140.984V68.3165H142.818ZM143.588 70.5565V67.6165H140.2V71.1865H140.984V70.5565H143.588ZM146.724 66.6785V65.8525H145.38V61.1625H146.458V60.3505H139.584V61.1625H144.54V65.8525H139.43V66.6785H144.624V71.4105C144.624 71.5645 144.582 71.6205 144.4 71.6205C144.218 71.6345 143.63 71.6345 142.972 71.6205C143.084 71.8305 143.196 72.1105 143.252 72.3345C144.134 72.3345 144.694 72.3205 145.03 72.1945C145.366 72.0825 145.464 71.8865 145.464 71.4245V66.6785H146.724ZM142.804 64.2005H141.054V62.7305H142.804V64.2005ZM140.34 62.0445V64.8865H143.56V62.0445H140.34ZM149.468 63.6265H148.6V64.5505C148.6 66.5665 148.39 69.5205 145.702 71.7885C145.884 71.9425 146.192 72.2505 146.332 72.4605C147.928 71.0885 148.726 69.4645 149.104 67.9105C149.664 69.8145 150.476 71.1725 151.862 72.4185C151.974 72.1665 152.24 71.8725 152.478 71.7045C150.742 70.2485 149.93 68.5685 149.44 65.7405C149.454 65.3345 149.468 64.9425 149.468 64.5645V63.6265ZM160.066 68.6245C161.48 68.1065 162.418 66.9865 162.418 65.4885C162.418 64.5365 162.026 63.9345 161.284 63.9345C160.752 63.9345 160.276 64.2565 160.276 64.8865C160.276 65.5305 160.724 65.8385 161.27 65.8385C161.354 65.8385 161.452 65.8385 161.536 65.8105C161.466 66.8185 160.864 67.4905 159.772 67.9525L160.066 68.6245ZM41.458 83.1305C41.178 83.1305 41.122 83.0185 41.122 82.6685V80.6385H40.282V82.6545C40.282 83.5925 40.52 83.9145 41.472 83.9145H43.334C43.684 83.9145 44.048 83.9145 44.23 83.8445C44.202 83.6485 44.16 83.2845 44.16 83.0605C43.936 83.1165 43.544 83.1305 43.306 83.1305H41.458ZM36.502 80.2465H42.914V81.8285H43.81V79.4205H35.648V81.8705H36.502V80.2465ZM38.084 80.6385C37.93 82.3465 37.384 83.1585 35.06 83.5925C35.242 83.7605 35.466 84.1105 35.536 84.3065C38.084 83.7465 38.756 82.6965 38.952 80.6385H38.084ZM35.158 80.3585C34.64 79.8825 33.646 79.2385 32.848 78.8605L32.316 79.4905C33.1 79.9105 34.094 80.5965 34.598 81.0865L35.158 80.3585ZM34.374 84.0405C33.884 83.5785 32.876 82.9765 32.092 82.6265L31.574 83.2705C32.358 83.6625 33.338 84.3065 33.842 84.7685L34.374 84.0405ZM34.206 86.0005C33.52 87.5685 32.568 89.4165 31.938 90.4805L32.722 91.0685C33.436 89.7945 34.262 88.0445 34.892 86.6025L34.206 86.0005ZM44.076 86.3365V85.4825H40.1V83.9425H39.19V85.4825H35.396V86.3365H38.518C37.664 87.7925 36.236 89.0665 34.738 89.6825C34.948 89.8645 35.228 90.2005 35.382 90.4245C36.866 89.6965 38.266 88.3805 39.19 86.8125V91.3765H40.1V86.7565C41.024 88.2545 42.466 89.6265 43.838 90.3825C43.964 90.1305 44.258 89.8225 44.468 89.6545C43.068 88.9965 41.64 87.7225 40.772 86.3365H44.076ZM58.44 79.5465C58.104 80.2185 57.516 81.2125 57.068 81.8005L57.74 82.1225C58.202 81.5485 58.79 80.6805 59.28 79.9245L58.44 79.5465ZM59.462 84.2505C58.692 83.5225 57.18 82.4725 55.906 81.7025C56.088 80.8765 56.158 79.8825 56.186 78.6365H55.318C55.248 82.1365 54.912 83.4805 51.902 84.2365C52.084 84.4045 52.336 84.7545 52.42 84.9925C54.226 84.4745 55.164 83.7465 55.668 82.5145C56.872 83.2845 58.216 84.2925 58.902 84.9785L59.462 84.2505ZM57.656 88.2265C58.146 87.6245 58.762 86.6865 59.266 85.8745L58.412 85.5245C58.09 86.2385 57.474 87.3025 56.998 87.9325L57.656 88.2265ZM54.366 88.0305C54.016 87.4145 53.302 86.3225 52.728 85.4825L52.07 85.9025C52.63 86.7425 53.33 87.8765 53.68 88.5345L54.366 88.0305ZM54.478 81.9685C54.156 81.3805 53.47 80.3445 52.896 79.5465L52.252 79.9665C52.798 80.7645 53.47 81.8565 53.792 82.4865L54.478 81.9685ZM50.236 80.4285C50.054 79.9525 49.662 79.1965 49.312 78.6225L48.556 78.9165C48.892 79.4765 49.284 80.2605 49.438 80.7505L50.236 80.4285ZM52.056 81.0165H47.03V81.8005H52.056V81.0165ZM51.524 83.5785V82.8365H47.576V83.5785H51.524ZM51.524 84.6425H47.576V85.3985H51.524V84.6425ZM50.74 87.2885V89.7385H48.458V87.2885H50.74ZM51.58 90.5225V86.5045H47.632V91.1945H48.458V90.5225H51.58ZM56.074 84.3905H55.192V85.8465C55.192 87.2045 54.94 89.2765 51.524 90.7325C51.748 90.9005 52.028 91.1945 52.14 91.3765C54.366 90.3685 55.346 89.1225 55.766 87.9185C56.438 89.5705 57.53 90.7465 59.168 91.3485C59.308 91.0965 59.56 90.7465 59.77 90.5645C57.754 89.9485 56.592 88.4225 56.06 86.3085C56.074 86.1405 56.074 86.0005 56.074 85.8465V84.3905ZM74.302 79.9245H69.556C69.402 79.4905 69.15 78.9445 68.856 78.5245L67.946 78.7205C68.17 79.0705 68.394 79.5325 68.52 79.9245H63.41V80.7645H74.302V79.9245ZM72.216 86.1405V87.6945H65.496V86.1405H72.216ZM65.496 90.0745V88.4505H72.216V90.0745H65.496ZM64.572 91.4045H65.496V90.8725H72.216V91.3765H73.168V85.3285H64.572V91.4045ZM71.376 83.2145C71.726 82.5845 72.104 81.7865 72.454 81.0865L71.446 80.8345C71.208 81.5205 70.76 82.5425 70.396 83.2145H66.574L67.162 83.0605C67.036 82.4585 66.658 81.5485 66.224 80.8905L65.342 81.0865C65.734 81.7305 66.07 82.5985 66.196 83.2145H62.612V84.0685H75.002V83.2145H71.376ZM90.374 85.4965C90.248 84.9225 89.954 84.0545 89.702 83.3685L89.072 83.5785C89.156 83.8585 89.268 84.1665 89.366 84.4885L87.602 84.6845C88.526 83.6065 89.464 82.2345 90.22 80.8485L89.506 80.4705C89.296 80.9045 89.072 81.3385 88.82 81.7725L87.336 81.9265C87.868 81.1005 88.414 80.0225 88.834 78.9445L88.05 78.6925C87.7 79.8825 87 81.1425 86.79 81.4785C86.594 81.8005 86.412 82.0385 86.244 82.0665C86.342 82.2765 86.44 82.6685 86.482 82.8365C86.664 82.7525 86.958 82.6825 88.386 82.4865C87.896 83.2285 87.448 83.8165 87.252 84.0545C86.916 84.4885 86.636 84.7825 86.398 84.8385C86.496 85.0345 86.622 85.4265 86.65 85.5805C86.86 85.4825 87.21 85.4125 89.548 85.1045C89.604 85.3425 89.66 85.5525 89.688 85.7205L90.374 85.4965ZM85.166 82.2485H83.234V80.7225H85.166V82.2485ZM85.166 84.5025H83.234V82.9625H85.166V84.5025ZM86.006 79.9805H84.298C84.424 79.6165 84.578 79.1545 84.732 78.7485L83.85 78.5805C83.808 78.9585 83.682 79.5325 83.556 79.9805H82.422V85.2445H86.006V79.9805ZM82.128 85.4265C82.058 84.8105 81.834 83.8585 81.596 83.1305L80.952 83.2845C81.036 83.5925 81.134 83.9425 81.204 84.2925L79.37 84.5165C80.308 83.4385 81.246 82.0525 82.016 80.6805L81.316 80.3165C81.092 80.7785 80.826 81.2405 80.574 81.6885L79.3 81.8145C79.818 81.0305 80.35 79.9945 80.742 78.9865L80 78.7065C79.65 79.8405 78.964 81.0585 78.754 81.3665C78.572 81.6885 78.404 81.8985 78.222 81.9265C78.306 82.1365 78.432 82.5285 78.474 82.6825C78.628 82.5985 78.894 82.5425 80.14 82.3745C79.664 83.1025 79.244 83.6905 79.048 83.9145C78.698 84.3345 78.446 84.6285 78.208 84.6845C78.292 84.8805 78.432 85.2725 78.46 85.4405C78.656 85.3145 79.006 85.2445 81.344 84.9085C81.386 85.1605 81.414 85.3985 81.442 85.5945L82.128 85.4265ZM82.184 87.7505C81.232 88.7865 79.356 89.7105 77.746 90.1445C77.956 90.3265 78.222 90.6625 78.362 90.9145C80.014 90.3825 81.932 89.2905 82.954 88.0865L82.184 87.7505ZM85.586 88.2825C87.042 89.0385 88.89 90.2145 89.786 90.9985L90.374 90.2845C89.436 89.5285 87.588 88.3945 86.132 87.6525L85.586 88.2825ZM84.662 86.4765V85.6085H83.738V86.4765H77.984V87.2885H83.738V91.3765H84.662V87.2885H90.402V86.4765H84.662ZM99.11 78.6785C99.068 80.7785 99.11 87.6945 93.286 90.6065C93.552 90.8025 93.86 91.0825 94.014 91.3205C97.542 89.4865 99.012 86.1965 99.628 83.3405C100.3 85.9725 101.77 89.5845 105.368 91.2785C105.508 91.0125 105.788 90.7045 106.04 90.4945C101.098 88.2825 100.244 82.3185 100.034 80.6945C100.104 79.8685 100.118 79.1685 100.132 78.6785H99.11ZM114.552 83.6345V84.5865H110.66V83.6345H114.552ZM110.604 86.2525C110.632 85.9025 110.646 85.5525 110.66 85.2305H114.552V86.2525H110.604ZM115.42 86.9665V82.9205H109.792V84.8665C109.792 86.4345 109.638 88.6885 108.546 90.3685C108.756 90.4525 109.148 90.6485 109.33 90.7885C110.044 89.6825 110.38 88.2825 110.534 86.9665H115.42ZM111.248 81.5485V82.1785H114.202V81.5485H111.248ZM114.902 88.3665V89.9345H111.374V88.3665H114.902ZM110.576 91.2785H111.374V90.6765H114.902V91.2505H115.742V87.6525H110.576V91.2785ZM112.438 78.7625C111.626 80.1765 110.1 81.3665 108.56 82.1225C108.728 82.3185 108.994 82.7525 109.092 82.9625C110.352 82.2625 111.654 81.2545 112.606 80.0785C113.726 80.7785 115.028 81.6745 115.714 82.2485L116.218 81.4925C115.518 80.9325 114.188 80.0785 113.096 79.4205C113.166 79.2945 113.236 79.1825 113.306 79.0705L112.438 78.7625ZM117.968 80.2045H117.086V87.8625H117.968V80.2045ZM119.732 78.7065V90.1165C119.732 90.3685 119.634 90.4385 119.396 90.4385C119.186 90.4525 118.416 90.4525 117.548 90.4385C117.688 90.7045 117.814 91.1105 117.87 91.3625C119.018 91.3625 119.69 91.3345 120.096 91.1805C120.474 91.0125 120.642 90.7325 120.642 90.1025V78.7065H119.732ZM127.488 78.6785C126.69 80.8345 125.374 82.9345 123.974 84.2925C124.156 84.5025 124.422 84.9925 124.52 85.2025C125.024 84.6845 125.542 84.0825 126.004 83.4105V91.3625H126.942V81.9685C127.488 81.0025 127.978 79.9805 128.384 78.9585L127.488 78.6785ZM136.798 81.8705V80.9745H130.876C131.156 80.3445 131.436 79.7005 131.674 79.0425L130.778 78.8185C130.092 80.8625 128.958 82.8925 127.684 84.1945C127.908 84.3485 128.258 84.6705 128.412 84.8245C129.126 84.0265 129.826 83.0045 130.428 81.8705H131.464V91.3765H132.402V87.9325H136.672V87.0505H132.402V84.8385H136.49V83.9705H132.402V81.8705H136.798ZM145.282 82.2485L144.344 82.4165V78.6225H143.42V79.8685H139.962V80.6385H143.42V82.5565C141.978 82.8085 140.62 83.0465 139.612 83.2005L139.766 83.9985C141.264 83.7325 143.322 83.3265 145.324 82.9625L145.282 82.2485ZM150.084 84.2365H141.656V86.7565C141.656 88.0445 141.474 89.6405 140.088 90.8305C140.284 90.9425 140.634 91.2925 140.76 91.4745C142.286 90.1865 142.566 88.2405 142.566 86.7705V85.0345H149.132V87.6525C146.822 88.0865 144.372 88.5205 142.776 88.7585L143.084 89.5845C144.75 89.3045 147.018 88.8705 149.132 88.4365V90.3125C149.132 90.5085 149.062 90.5785 148.838 90.5925C148.628 90.5925 147.816 90.5925 146.99 90.5645C147.102 90.8025 147.256 91.1525 147.298 91.4045C148.404 91.4045 149.118 91.4045 149.538 91.2505C149.944 91.1105 150.084 90.8585 150.084 90.3265V84.2365ZM142.86 86.2525C144.442 86.5465 146.416 87.1345 147.48 87.6105L147.802 86.8825C146.752 86.3925 144.75 85.8605 143.21 85.6085L142.86 86.2525ZM148.25 82.8085C147.606 82.8085 147.494 82.7245 147.494 82.3605V80.6385H151.036V79.8685H147.494V78.6365H146.556V82.3605C146.556 83.3545 146.892 83.6205 148.166 83.6205H150.588C151.582 83.6205 151.876 83.2565 151.974 81.9265C151.708 81.8705 151.344 81.7305 151.134 81.6045C151.092 82.6405 150.994 82.8085 150.504 82.8085H148.25ZM157.7 78.6365C157.112 79.6305 155.95 80.8205 154.914 81.5905C155.068 81.7445 155.32 82.0665 155.432 82.2485C156.552 81.4085 157.798 80.1205 158.54 78.9585L157.7 78.6365ZM158.036 81.4365C157.252 82.9205 155.992 84.4045 154.774 85.3845C154.956 85.5665 155.222 86.0005 155.334 86.1825C155.796 85.7905 156.286 85.3145 156.734 84.7965V91.4465H157.616V83.7045C158.078 83.0745 158.526 82.4025 158.876 81.7305L158.036 81.4365ZM165.078 86.5745C164.532 87.4705 163.748 88.2125 162.81 88.8285C162.082 88.3525 161.438 87.8205 160.906 87.2185C161.102 87.0085 161.284 86.7985 161.452 86.5745H165.078ZM165.764 85.7485L165.596 85.7905H162.054C162.306 85.4265 162.544 85.0205 162.754 84.6285C163.58 84.5865 164.644 84.5165 165.946 84.4325C166.24 84.8805 166.52 85.2725 166.702 85.5945L167.458 85.1465C166.982 84.3345 165.974 83.0465 165.12 82.1225L164.406 82.5005C164.742 82.8645 165.078 83.2985 165.428 83.7325L160.738 83.9845C162.488 83.0605 164.266 81.8845 165.974 80.4845L165.12 79.9945C164.532 80.5405 163.86 81.0585 163.202 81.5345L160.612 81.6185C161.522 80.9605 162.474 80.1205 163.342 79.2105L162.432 78.7905C161.564 79.8545 160.318 80.8905 159.94 81.1565C159.576 81.4225 159.282 81.6185 159.03 81.6605C159.128 81.8985 159.282 82.3465 159.324 82.5565C159.534 82.4725 159.898 82.4165 162.082 82.3045C161.284 82.8365 160.598 83.2565 160.262 83.4385C159.604 83.8165 159.1 84.0685 158.722 84.1105C158.82 84.3485 158.96 84.8105 159.002 84.9925C159.268 84.9085 159.618 84.8385 161.718 84.6985C161.354 85.3565 160.878 85.9725 160.36 86.5325C160.178 86.2805 160.024 86.0565 159.898 85.7905L159.128 86.0705C159.324 86.4205 159.534 86.7705 159.786 87.0925C159.38 87.4565 158.974 87.7645 158.554 88.0445C158.736 88.2125 159.072 88.5485 159.198 88.7305C159.576 88.4505 159.968 88.1425 160.332 87.7785C160.822 88.3385 161.382 88.8565 162.012 89.3045C160.836 89.9205 159.52 90.3545 158.218 90.6205C158.4 90.8165 158.61 91.1805 158.68 91.4185C160.122 91.0825 161.55 90.5785 162.81 89.8365C164 90.5505 165.344 91.0685 166.814 91.4045C166.926 91.1525 167.178 90.8025 167.388 90.5925C166.016 90.3405 164.756 89.8925 163.636 89.3045C164.798 88.4645 165.75 87.4005 166.338 86.0565L165.764 85.7485ZM180.156 80.6525C179.568 80.0505 178.378 79.1965 177.44 78.6225L176.88 79.2385C177.832 79.8405 179.008 80.7505 179.568 81.3525L180.156 80.6525ZM175.298 87.7365C175.872 86.6305 176.194 84.7405 176.348 83.3125L175.634 83.1445C175.494 84.5445 175.158 86.3645 174.57 87.4565L175.298 87.7365ZM174.878 86.1825C174.654 85.7905 173.604 84.2645 173.268 83.8165V83.5085H174.92V82.6265H173.268V80.0645C173.87 79.8965 174.444 79.7005 174.906 79.5045L174.304 78.7485C173.45 79.1825 171.924 79.5745 170.622 79.8405C170.72 80.0505 170.86 80.3585 170.902 80.5685C171.378 80.4845 171.896 80.3865 172.4 80.2605V82.6265H170.44V83.5085H172.302C171.812 85.1325 170.93 87.0085 170.132 88.0165C170.3 88.2545 170.538 88.6605 170.664 88.9125C171.28 88.0725 171.91 86.7285 172.4 85.3565V91.4045H173.268V84.9645C173.646 85.6505 174.108 86.5045 174.276 86.9385L174.878 86.1825ZM178.686 90.4525C178.154 90.4525 178.07 90.3405 178.07 89.7945V88.3665C179.862 86.0285 181.164 83.1025 182.13 79.6725L181.234 79.4905C180.478 82.2765 179.456 84.7685 178.07 86.8265V81.5905H177.174V88.0305C176.39 88.9825 175.536 89.8225 174.542 90.5225C174.766 90.6625 175.144 90.9705 175.298 91.1525C175.97 90.6345 176.6 90.0605 177.174 89.4165V89.7805C177.174 90.9565 177.468 91.2645 178.588 91.2645H180.492C181.514 91.2645 181.766 90.6905 181.864 88.7165C181.612 88.6605 181.262 88.5065 181.066 88.3385C180.996 90.0885 180.926 90.4525 180.436 90.4525H178.686ZM180.814 83.6765C181.43 85.0065 181.99 86.7285 182.172 87.8765L182.998 87.6245C182.83 86.4905 182.256 84.7825 181.612 83.4525L180.814 83.6765ZM197.306 80.4565H192.798C192.574 79.8965 192.196 79.1405 191.86 78.5665L191.006 78.8325C191.272 79.3365 191.566 79.9385 191.776 80.4565H186.82V81.3245H197.306V80.4565ZM198.216 84.8945V84.0125H194.534C194.884 83.3125 195.276 82.4165 195.598 81.6325L194.632 81.3805C194.408 82.1645 193.974 83.2565 193.596 84.0125H189.634L190.39 83.7465C190.236 83.1445 189.802 82.1645 189.382 81.4365L188.528 81.7025C188.934 82.4165 189.312 83.3965 189.466 84.0125H185.812V84.8945H191.496V87.1485H186.484V88.0305H191.496V91.3905H192.448V88.0305H197.614V87.1485H192.448V84.8945H198.216ZM206.994 86.9805H207.82L208.128 81.4365L208.156 79.8545H206.644L206.672 81.4365L206.994 86.9805ZM207.4 90.3825C207.974 90.3825 208.464 89.9905 208.464 89.3325C208.464 88.7025 207.974 88.2965 207.4 88.2965C206.826 88.2965 206.336 88.7025 206.336 89.3325C206.336 89.9905 206.826 90.3825 207.4 90.3825Z" fill="white"/>
</svg>
