<svg width="298" height="101" viewBox="0 0 298 101" fill="none" xmlns="http://www.w3.org/2000/svg">
<path d="M249.716 15.3707H9.32028V50.5124H249.716V15.3707Z" fill="#00FF63"/>
<path d="M249.388 15.7279V50.1552H9.67751V15.7279H249.388ZM250.132 14.9837H9.00772V50.8398H250.132V15.0135V14.9837Z" fill="black"/>
<path d="M261.295 14.8498H249.448V50.1477H261.295V14.8498Z" fill="black"/>
<path d="M260.856 15.2963V49.7235H249.887V15.2963H260.856ZM261.735 14.4181H249.016V50.5942H261.735V14.4181Z" fill="#00FF63"/>
<path d="M246.337 32.7927L256.436 22.6937L266.535 32.7927L271.335 28L261.236 17.8936L271.335 7.79461L266.535 2.99445L256.436 13.1008L246.337 2.99445L241.537 7.79461L251.643 17.8936L241.537 27.9925L246.337 32.7927Z" fill="#00FF63" stroke="black" stroke-width="1.1" stroke-miterlimit="10"/>
<path d="M244.335 30.7908L254.434 20.6918L264.54 30.7908L269.333 25.9981L259.234 15.8991L269.333 5.79272L264.54 1L254.434 11.099L244.335 1L239.542 5.79272L249.641 15.8991L239.542 25.9981L244.335 30.7908Z" fill="#00FF63" stroke="black" stroke-width="1.1" stroke-miterlimit="10"/>
<path d="M9.67751 50.2891H1V58.9666H9.67751V50.2891Z" fill="black" stroke="black" stroke-width="0.59" stroke-miterlimit="10"/>
<path d="M18.355 41.6116H9.67752V50.2891H18.355V41.6116Z" fill="black" stroke="black" stroke-width="0.59" stroke-miterlimit="10"/>
<path d="M9.67751 32.9415H1V41.619H9.67751V32.9415Z" fill="black" stroke="black" stroke-width="0.59" stroke-miterlimit="10"/>
<path d="M18.355 24.264H9.67752V32.9415H18.355V24.264Z" fill="black" stroke="black" stroke-width="0.59" stroke-miterlimit="10"/>
<path d="M9.67751 15.594H1V24.2715H9.67751V15.594Z" fill="black" stroke="black" stroke-width="0.59" stroke-miterlimit="10"/>
<path d="M18.355 6.91644H9.67752V15.594H18.355V6.91644Z" fill="black" stroke="black" stroke-width="0.59" stroke-miterlimit="10"/>
<path d="M297.717 49.6491H9.17145V100.696H297.717V49.6491Z" fill="black"/>
<path d="M296.988 50.3785V99.6769H9.45427V50.3785H296.988ZM298 49.3737H8.44214V100.689H298V49.3737Z" fill="#00FF63"/>
<path d="M28.616 42.0945H32.28V40.8145H30.376V27.7265H32.28V26.4785H28.616V42.0945ZM40.4799 39.3265H42.8479V29.4545H46.2079V27.4865H37.1519V29.4545H40.4799V39.3265ZM52.3319 39.5505C55.4679 39.5505 57.6279 37.1985 57.6279 33.3585C57.6279 29.5185 55.4679 27.2625 52.3319 27.2625C49.1959 27.2625 47.0359 29.5025 47.0359 33.3585C47.0359 37.1985 49.1959 39.5505 52.3319 39.5505ZM52.3319 37.5025C50.5719 37.5025 49.4519 35.8865 49.4519 33.3585C49.4519 30.8145 50.5719 29.2945 52.3319 29.2945C54.0919 29.2945 55.2119 30.8145 55.2119 33.3585C55.2119 35.8865 54.0919 37.5025 52.3319 37.5025ZM59.9404 39.3265H62.3084V35.1185H63.8924C66.4364 35.1185 68.4684 33.9025 68.4684 31.1985C68.4684 28.3985 66.4524 27.4865 63.8284 27.4865H59.9404V39.3265ZM62.3084 33.2465V29.3585H63.6524C65.2844 29.3585 66.1484 29.8225 66.1484 31.1985C66.1484 32.5585 65.3644 33.2465 63.7324 33.2465H62.3084ZM70.4683 39.3265H77.5883V37.4225H75.3643V27.4865H73.6203C72.8683 27.9505 72.0523 28.2545 70.8683 28.4785V29.9345H73.0123V37.4225H70.4683V39.3265ZM94.5071 27.9985H92.6511V27.3105H94.5071V27.9985ZM96.2831 26.3345H91.0031V28.9745H96.2831V26.3345ZM88.1391 27.9985H86.3311V27.3105H88.1391V27.9985ZM89.8991 26.3345H84.6671V28.9745H89.8991V26.3345ZM85.5631 31.0225H97.3391V29.4705H83.8191V33.1505C83.8191 35.1025 83.7231 37.7905 82.5551 39.6945C82.9551 39.8705 83.7071 40.4465 83.9951 40.7665C85.3231 38.6705 85.5631 35.3905 85.5631 33.1665V31.0225ZM91.0031 35.4385C91.3551 35.6785 91.9631 36.2385 92.2191 36.5265C92.3791 36.3345 92.5391 36.1265 92.6831 35.9025C92.9231 36.5105 93.1951 37.0705 93.4991 37.6145C92.8591 38.3825 92.0271 38.9745 91.0031 39.4385V35.4385ZM87.7711 38.4785V37.6465H89.4511V38.3185L87.7711 38.4785ZM89.4511 34.4625V35.1185H87.7711V34.4625H89.4511ZM87.7711 36.0305H89.4511V36.7185H87.7711V36.0305ZM95.1151 33.9185C94.9551 34.7505 94.7311 35.4865 94.4111 36.1425C94.0591 35.5345 93.7871 34.8465 93.5631 34.1425L93.6591 33.9185H95.1151ZM97.3551 33.9185V32.4625H94.0911C94.1871 32.1425 94.2511 31.8065 94.3151 31.4705L92.7151 31.1825C92.4591 32.8145 91.8831 34.3985 91.0031 35.4065V34.4625H91.5311V33.2625H89.4351V32.6705H91.3391V31.5185H86.0751V32.6705H87.8351V33.2625H85.7391V34.4625H86.2511V38.6065L85.1791 38.6865L85.3871 40.0625C86.5391 39.9505 87.9791 39.7745 89.4511 39.5985V40.7185H91.0031V39.4545C91.3391 39.7585 91.8991 40.4145 92.0911 40.7505C93.0191 40.2705 93.8031 39.6945 94.4591 38.9905C95.0831 39.7265 95.8351 40.3345 96.6991 40.7825C96.9551 40.3185 97.4671 39.6625 97.8511 39.3105C96.9391 38.9265 96.1391 38.3505 95.4831 37.6145C96.0911 36.5905 96.5391 35.3585 96.8271 33.9185H97.3551ZM107.259 33.8065H109.051V34.7825H107.259V33.8065ZM113.419 34.7825H110.827V33.8065H112.795V32.4145H110.827V31.5665H109.051V32.4145H107.259V31.5665H105.531V32.4145H103.595V33.8065H105.531V34.7825H103.035V36.1745H105.883C105.195 36.6545 104.171 37.0865 103.179 37.3905C103.595 37.6465 104.267 38.2225 104.603 38.5425C105.659 38.0945 106.955 37.3425 107.755 36.6065L106.523 36.1745H109.659L108.715 36.7985C109.691 37.2785 110.715 37.9825 111.291 38.4625L112.987 37.6785C112.363 37.2305 111.339 36.6545 110.379 36.1745H113.419V34.7825ZM111.467 27.4865V28.2065H109.995V27.4865H111.467ZM112.091 31.3425C112.523 31.3425 113.003 31.3105 113.259 31.2305C113.211 30.8785 113.163 30.3505 113.131 29.9505C112.875 30.0305 112.347 30.0465 112.043 30.0465H110.395C110.059 30.0465 109.995 29.8865 109.995 29.4545V29.3585H113.067V26.3185H108.507V29.4225C108.507 30.7985 108.843 31.3425 110.299 31.3425H112.091ZM106.379 27.4705V28.1905H104.923V27.4705H106.379ZM104.923 30.1105V29.3425H107.963V26.3025H103.451V29.3585C103.451 29.9985 103.179 30.2705 102.923 30.3985C103.163 30.7345 103.467 31.4225 103.547 31.8065C103.851 31.6465 104.379 31.5345 107.563 31.0385C107.595 30.7025 107.723 30.0945 107.867 29.7105L104.923 30.1105ZM102.395 28.5105C102.155 27.7905 101.739 26.6865 101.435 25.8225L99.7071 26.2865C99.9951 27.1665 100.411 28.3345 100.619 29.0705L102.395 28.5105ZM101.931 32.9745L101.659 33.0225H101.483C101.851 31.9025 102.235 30.6225 102.555 29.5025H98.8591V31.1985H100.251C99.8831 32.4465 99.4831 33.7265 99.1311 34.6705H101.067C100.795 35.8065 100.331 36.9585 99.7071 37.8065C99.3391 38.1105 98.9391 38.5105 98.5551 38.9745L99.8191 40.7825C100.219 39.8705 100.795 38.7825 101.147 38.7825C101.483 38.7825 102.059 39.3105 102.715 39.6785C103.883 40.3505 105.227 40.5265 107.339 40.5265C109.211 40.5265 112.043 40.4145 113.355 40.3345C113.387 39.8225 113.691 38.8945 113.899 38.3825C112.123 38.6385 109.275 38.7985 107.435 38.7985C105.579 38.7985 104.075 38.7025 102.971 38.0465C102.491 37.7585 102.155 37.5025 101.867 37.3265C102.427 36.1745 102.795 34.7985 103.019 33.4225L101.931 32.9745ZM118.251 31.5345C119.707 30.5105 121.131 29.2625 122.187 28.0305C123.227 29.2625 124.555 30.4945 126.027 31.5345H118.251ZM123.147 36.6865H127.339V35.0385H123.147V33.2145H126.571V31.9025C127.227 32.3345 127.899 32.7185 128.587 33.0385C128.875 32.4945 129.467 31.7105 129.867 31.2945C127.147 30.3025 124.587 28.2865 123.211 26.2705H117.739V28.0305H119.867C118.363 29.4545 116.379 30.7825 114.603 31.5025C115.035 31.9185 115.499 32.5745 115.771 33.0385C116.427 32.7025 117.115 32.3025 117.803 31.8385V33.2145H121.163V35.0385H117.019V36.6865H121.163V38.6225H115.451V40.3185H129.067V38.6225H123.147V36.6865ZM143.819 32.8305C144.427 32.8305 145.099 32.7985 145.435 32.6865C145.371 32.2545 145.291 31.5665 145.259 31.0705C144.907 31.1505 144.235 31.1985 143.787 31.1985H141.451C140.939 31.1985 140.843 30.9745 140.843 30.3825V29.3265H144.779V27.6945H140.843V25.8065H138.955V30.3505C138.955 32.1265 139.467 32.8305 141.387 32.8305H143.819ZM133.483 34.5425C134.091 35.0385 134.827 35.6625 135.227 36.0785L135.995 35.3265V35.8545C135.035 36.3665 134.091 36.8465 133.371 37.1665C133.451 36.4465 133.483 35.7265 133.483 35.1185V34.5425ZM135.995 33.1025V34.9105C135.515 34.4945 134.827 33.9345 134.283 33.5505L133.483 34.2385V33.1025H135.995ZM137.787 31.5025H131.723V35.1025C131.723 36.4945 131.659 38.2545 130.811 39.5025C131.147 39.7265 131.867 40.4145 132.139 40.7825C132.747 39.9505 133.099 38.8625 133.275 37.7745L133.675 38.8945C134.395 38.4305 135.195 37.8865 135.995 37.3105V38.9425C135.995 39.1505 135.931 39.2145 135.723 39.2145C135.531 39.2145 134.907 39.2145 134.331 39.1825C134.571 39.5985 134.827 40.2225 134.907 40.6705C135.883 40.6705 136.603 40.6385 137.115 40.3985C137.643 40.1425 137.787 39.7425 137.787 38.9585V31.5025ZM135.355 27.5185C135.563 27.9025 135.787 28.3505 136.027 28.8145L133.691 28.9905C134.395 28.1905 135.115 27.2625 135.659 26.3345L133.739 25.7905C133.147 27.0545 132.171 28.2865 131.851 28.6385C131.531 28.9905 131.259 29.2145 130.971 29.2785C131.163 29.7585 131.467 30.6225 131.563 30.9905C132.027 30.7985 132.683 30.7025 136.731 30.3025C136.891 30.6865 137.035 31.0225 137.131 31.3105L138.795 30.6385C138.411 29.6785 137.563 28.1105 136.891 26.9585L135.355 27.5185ZM141.579 38.9425C140.955 38.9425 140.843 38.8625 140.843 38.3025V36.5585H144.891V34.8785H140.843V33.2785H138.955V38.3025C138.955 40.0465 139.419 40.6065 141.307 40.6065H143.579C145.099 40.6065 145.595 39.9825 145.787 37.8865C145.291 37.7745 144.523 37.4865 144.139 37.1985C144.059 38.6705 143.947 38.9425 143.403 38.9425H141.579ZM157.563 34.9745V36.0305H150.923V34.9745H157.563ZM150.923 38.6225V37.4705H157.563V38.6225H150.923ZM149.019 40.7505H150.923V40.1905H157.563V40.7345H159.563V33.3905H149.019V40.7505ZM156.635 28.7505C156.459 29.3745 156.171 30.1265 155.915 30.7185H152.619C152.507 30.1425 152.187 29.3585 151.803 28.7505H156.635ZM157.995 30.7185C158.251 30.2225 158.523 29.6625 158.795 29.0705L157.323 28.7505H160.635V27.0705H155.483C155.323 26.5905 155.083 26.0465 154.811 25.5985L152.827 25.9185C153.003 26.2545 153.195 26.6705 153.323 27.0705H147.931V28.7505H151.451L149.899 29.0545C150.155 29.5505 150.395 30.1745 150.539 30.7185H147.035V32.4145H161.387V30.7185H157.995ZM167.883 33.6785C167.787 32.8945 167.563 31.7425 167.307 30.8305L166.107 31.1025C166.187 31.4225 166.267 31.7745 166.331 32.1425L165.067 32.2705C166.075 31.1505 167.083 29.8225 167.835 28.5105L166.491 27.7745C166.283 28.2385 166.011 28.7025 165.755 29.1505L164.923 29.2145C165.483 28.3985 166.027 27.4065 166.427 26.4785L164.955 25.9665C164.603 27.1825 163.899 28.4305 163.675 28.7665C163.451 29.1025 163.243 29.3425 163.003 29.3905C163.179 29.7745 163.419 30.4625 163.499 30.7665C163.675 30.6705 163.963 30.5905 164.907 30.4625C164.507 31.0225 164.155 31.4545 163.995 31.6465C163.595 32.1105 163.291 32.4145 162.955 32.4945C163.131 32.8625 163.371 33.5985 163.451 33.8705C163.723 33.7425 164.171 33.6305 166.539 33.3105C166.571 33.5505 166.603 33.7745 166.619 33.9665L167.883 33.6785ZM167.163 36.6065C166.187 37.5345 164.331 38.3345 162.555 38.6865C162.955 39.0545 163.515 39.7905 163.803 40.2545C165.707 39.7265 167.579 38.5585 168.699 37.1825L167.163 36.6065ZM177.403 36.1265V34.5585H171.211V33.7905H169.307V34.5585H162.971V36.1265H169.307V40.6705H171.211V36.1265H177.403ZM172.027 37.5985C173.451 38.3825 175.339 39.5825 176.219 40.3665L177.435 39.0065C176.475 38.2385 174.539 37.1185 173.147 36.4145L172.027 37.5985ZM170.795 29.6305H169.595V28.5585H170.795V29.6305ZM170.795 32.0465H169.595V30.9265H170.795V32.0465ZM170.747 27.1665L171.259 25.9505L169.531 25.6625C169.499 26.0945 169.387 26.6545 169.259 27.1665H167.979V33.4385H172.475V27.1665H170.747ZM175.707 31.3105C175.787 31.6145 175.867 31.9505 175.947 32.3025L174.699 32.4145C175.739 31.3105 176.763 29.9505 177.563 28.6385L176.187 27.8545C175.979 28.2865 175.739 28.7185 175.515 29.1185L174.443 29.2145C175.003 28.3825 175.579 27.3745 175.963 26.3825L174.427 25.9505C174.075 27.1825 173.355 28.4625 173.131 28.7985C172.923 29.1345 172.699 29.3745 172.475 29.4385C172.651 29.8225 172.891 30.5265 172.971 30.8465C173.163 30.7345 173.483 30.6545 174.587 30.4945C174.171 31.0865 173.803 31.5345 173.627 31.7265C173.227 32.1745 172.923 32.4785 172.587 32.5585C172.763 32.9425 173.003 33.6945 173.083 33.9985C173.355 33.8545 173.819 33.7585 176.203 33.5025C176.235 33.7265 176.267 33.9345 176.283 34.1265L177.563 33.7905C177.435 33.0385 177.163 31.8865 176.891 31.0065L175.707 31.3105ZM192.731 25.9025H191.003V32.2385C191.003 32.4465 190.923 32.5105 190.699 32.5105C190.475 32.5265 189.707 32.5265 188.987 32.4945C189.195 32.9105 189.451 33.5345 189.547 33.9985C190.635 33.9985 191.435 33.9825 191.995 33.7425C192.571 33.4865 192.731 33.1025 192.731 32.2865V25.9025ZM189.595 26.5585H187.899V31.8385H189.595V26.5585ZM191.211 35.8865C190.619 36.3185 189.819 36.7985 189.083 37.1825C188.651 36.7985 188.251 36.3825 187.931 35.8865H191.211ZM180.347 28.6545C180.491 28.4625 180.635 28.2385 180.763 28.0145H182.299V28.6545H180.347ZM191.787 35.8865H193.403V34.3825H187.531C187.371 33.9505 187.147 33.4545 186.907 33.0705L186.539 33.1665C186.699 32.9905 186.747 32.7185 186.747 32.3185V30.4945H183.915V29.9345H186.987V28.6545H183.915V28.0145H186.555V26.7985H183.915V25.7745H182.299V26.7985H181.371C181.467 26.5745 181.547 26.3825 181.627 26.1585L180.235 25.8065C179.963 26.6225 179.515 27.4865 178.971 28.0945C179.243 28.2225 179.659 28.4625 179.979 28.6545H178.987V29.9345H182.299V30.4945H179.627V33.6305H181.067V31.6465H182.299V33.9985H183.915V31.6465H185.227V32.3185C185.227 32.4465 185.179 32.4945 185.035 32.4945C184.923 32.4945 184.555 32.4945 184.187 32.4785C184.331 32.7825 184.555 33.1985 184.635 33.5665C184.811 33.5665 184.987 33.5665 185.147 33.5665H185.131C185.259 33.8225 185.387 34.0945 185.499 34.3825H179.019V35.8865H183.691C182.315 36.5425 180.507 36.9905 178.763 37.2305C179.099 37.5825 179.547 38.2065 179.771 38.6065C180.587 38.4625 181.419 38.2705 182.203 38.0145V38.0625C182.203 38.8785 181.787 39.2785 181.499 39.5025C181.675 39.7265 181.963 40.2865 182.059 40.6705L182.075 40.8145C182.395 40.6065 182.955 40.4465 186.763 39.5825C186.763 39.2465 186.811 38.5745 186.891 38.1585L183.915 38.7665V37.3425C184.779 36.9585 185.579 36.5105 186.219 35.9825C187.419 38.4465 189.419 39.8865 192.651 40.5105C192.875 40.0625 193.323 39.3745 193.675 39.0065C192.411 38.8305 191.339 38.5105 190.411 38.0625C191.227 37.6785 192.107 37.1825 192.859 36.6865L191.787 35.8865ZM198.235 25.8385C197.435 28.1105 196.043 30.3825 194.587 31.8225C194.923 32.3025 195.467 33.3905 195.643 33.8545C195.963 33.5025 196.299 33.1025 196.635 32.7025V40.7025H198.555V29.7425C199.147 28.6705 199.675 27.5345 200.091 26.4145L198.235 25.8385ZM209.707 30.1905V28.3825H203.499C203.803 27.7265 204.059 27.0705 204.283 26.3985L202.443 25.9345C201.723 28.2225 200.459 30.5265 199.051 31.9665C199.451 32.2705 200.203 32.9425 200.507 33.2945C201.227 32.4625 201.963 31.3745 202.603 30.1905H203.211V40.7185H205.163V37.1665H209.515V35.4065H205.163V33.5985H209.307V31.8705H205.163V30.1905H209.707ZM216.955 25.7905C216.891 28.4945 217.195 35.6625 210.699 39.1345C211.339 39.5665 211.947 40.1745 212.283 40.6865C215.611 38.7345 217.291 35.8385 218.171 33.0225C219.099 35.7745 220.875 38.8945 224.427 40.5905C224.683 40.0465 225.227 39.4065 225.819 38.9425C220.235 36.4785 219.259 30.4465 219.035 28.2865C219.099 27.3265 219.131 26.4625 219.147 25.7905H216.955ZM230.596 42.0945H234.26V26.4785H230.596V27.7265H232.5V40.8145H230.596V42.0945Z" fill="#202020"/>
<path d="M39.75 63.3745C39.414 62.9965 38.756 62.4085 38.168 61.9465C38.42 61.2745 38.63 60.5465 38.784 59.7765L37.874 59.6365C37.468 61.7645 36.628 63.5705 35.312 64.7045C35.522 64.8445 35.872 65.1805 36.012 65.3485C36.754 64.6485 37.37 63.7525 37.86 62.7025C38.406 63.1645 38.98 63.7245 39.302 64.1025L39.75 63.3745ZM34.5 59.6365C33.884 60.6305 32.624 61.8345 31.518 62.5905C31.672 62.7305 31.924 63.0665 32.05 63.2485C33.24 62.4225 34.542 61.1345 35.34 59.9585L34.5 59.6365ZM34.85 62.4365C34.01 63.9205 32.652 65.3905 31.35 66.3705C31.504 66.5665 31.798 66.9865 31.896 67.1825C32.442 66.7345 33.016 66.1885 33.562 65.6005V72.4325H34.43V64.5785C34.892 63.9765 35.326 63.3605 35.676 62.7305L34.85 62.4365ZM40.52 68.2745H43.698V67.4625H40.52V65.0545H39.932C40.632 64.4665 41.192 63.7105 41.626 62.8145C42.466 63.5845 43.348 64.5225 43.81 65.1525L44.468 64.5085C43.95 63.8365 42.886 62.7865 41.962 62.0305C42.214 61.3445 42.396 60.5885 42.522 59.7625L41.626 59.6505C41.318 61.8205 40.534 63.5005 39.106 64.5365C39.288 64.6625 39.61 64.8865 39.778 65.0545H39.666V71.0465C38.728 70.6405 38.028 69.8005 37.594 68.2185C37.706 67.5885 37.79 66.9025 37.832 66.1465L36.936 66.0765C36.81 68.6665 36.292 70.5705 34.85 71.7465C35.06 71.8865 35.438 72.1945 35.578 72.3345C36.376 71.6065 36.908 70.6965 37.272 69.5765C38.168 71.7185 39.624 72.2365 41.738 72.2365H44.104C44.132 72.0125 44.272 71.5925 44.412 71.3965C43.978 71.3965 42.088 71.4105 41.794 71.3965C41.346 71.3965 40.912 71.3685 40.52 71.2985V68.2745ZM50.306 61.3725C50.11 60.8685 49.676 60.1405 49.298 59.5805L48.626 59.9585C48.976 60.5185 49.41 61.3025 49.606 61.8065L50.306 61.3725ZM50.754 68.2885V70.7385H48.5V68.2885H50.754ZM51.58 67.5045H47.688V72.1945H48.5V71.5225H51.58V67.5045ZM47.702 66.3985H51.566V65.6425H47.702V66.3985ZM47.702 63.8365V64.5785H51.552V63.8365H47.702ZM47.142 62.7865H52.056V62.0165H47.142V62.7865ZM56.102 65.4605V68.2605H53.792V65.4605H56.102ZM56.928 69.0725V64.6485H52.98V70.0245H53.792V69.0725H56.928ZM57.614 62.5625H52.448V63.3745H57.614V62.5625ZM59.28 60.3505H52.112V61.2185H58.426V71.1445C58.426 71.3825 58.342 71.4525 58.104 71.4665C57.866 71.4665 57.054 71.4805 56.172 71.4525C56.312 71.7045 56.452 72.1245 56.494 72.3905C57.6 72.3905 58.342 72.3765 58.748 72.2085C59.14 72.0545 59.28 71.7605 59.28 71.1585V60.3505ZM70.886 70.5705V67.3645H73.504V70.5705H70.886ZM64.124 67.3645H66.602V70.5705H64.124V67.3645ZM66.602 63.3325V66.4685H64.124V63.3325H66.602ZM69.976 67.3645V70.5705H67.512V67.3645H69.976ZM69.976 63.3325V66.4685H67.512V63.3325H69.976ZM73.504 63.3325V66.4685H70.886V63.3325H73.504ZM70.886 62.4225V59.7765H69.976V62.4225H67.512V59.7765H66.602V62.4225H63.242V72.4045H64.124V71.4805H73.504V72.3345H74.414V62.4225H70.886ZM83.752 64.6345V65.5865H79.86V64.6345H83.752ZM79.804 67.2525C79.832 66.9025 79.846 66.5525 79.86 66.2305H83.752V67.2525H79.804ZM84.62 67.9665V63.9205H78.992V65.8665C78.992 67.4345 78.838 69.6885 77.746 71.3685C77.956 71.4525 78.348 71.6485 78.53 71.7885C79.244 70.6825 79.58 69.2825 79.734 67.9665H84.62ZM80.448 62.5485V63.1785H83.402V62.5485H80.448ZM84.102 69.3665V70.9345H80.574V69.3665H84.102ZM79.776 72.2785H80.574V71.6765H84.102V72.2505H84.942V68.6525H79.776V72.2785ZM81.638 59.7625C80.826 61.1765 79.3 62.3665 77.76 63.1225C77.928 63.3185 78.194 63.7525 78.292 63.9625C79.552 63.2625 80.854 62.2545 81.806 61.0785C82.926 61.7785 84.228 62.6745 84.914 63.2485L85.418 62.4925C84.718 61.9325 83.388 61.0785 82.296 60.4205C82.366 60.2945 82.436 60.1825 82.506 60.0705L81.638 59.7625ZM87.168 61.2045H86.286V68.8625H87.168V61.2045ZM88.932 59.7065V71.1165C88.932 71.3685 88.834 71.4385 88.596 71.4385C88.386 71.4525 87.616 71.4525 86.748 71.4385C86.888 71.7045 87.014 72.1105 87.07 72.3625C88.218 72.3625 88.89 72.3345 89.296 72.1805C89.674 72.0125 89.842 71.7325 89.842 71.1025V59.7065H88.932ZM96.688 59.6785C95.89 61.8345 94.574 63.9345 93.174 65.2925C93.356 65.5025 93.622 65.9925 93.72 66.2025C94.224 65.6845 94.742 65.0825 95.204 64.4105V72.3625H96.142V62.9685C96.688 62.0025 97.178 60.9805 97.584 59.9585L96.688 59.6785ZM105.998 62.8705V61.9745H100.076C100.356 61.3445 100.636 60.7005 100.874 60.0425L99.978 59.8185C99.292 61.8625 98.158 63.8925 96.884 65.1945C97.108 65.3485 97.458 65.6705 97.612 65.8245C98.326 65.0265 99.026 64.0045 99.628 62.8705H100.664V72.3765H101.602V68.9325H105.872V68.0505H101.602V65.8385H105.69V64.9705H101.602V62.8705H105.998ZM113.082 67.7565H115.924V66.9165H113.082V65.3625H112.186V66.9165H109.428V67.7565H112.186V70.1925C110.94 70.4165 109.806 70.6125 108.938 70.7665L109.134 71.6345C110.968 71.2985 113.628 70.7805 116.106 70.2905L116.05 69.4785C115.07 69.6745 114.062 69.8425 113.082 70.0245V67.7565ZM109.05 61.4005H111.36C110.898 62.4365 110.282 63.3605 110.058 63.6545C109.82 63.9765 109.61 64.2285 109.386 64.2705C109.512 64.5085 109.652 64.9565 109.708 65.1525C110.016 65.0125 110.52 64.9565 114.958 64.5085C115.182 64.8445 115.364 65.1525 115.49 65.4045L116.19 64.9425C115.784 64.1585 114.846 62.8845 114.062 61.9465L113.39 62.3525C113.74 62.7865 114.118 63.2905 114.482 63.7945L110.702 64.1305C111.304 63.3465 111.892 62.3805 112.396 61.4005H116.19V60.5745H109.05V61.4005ZM117.884 60.8265H117.016V69.2405H117.884V60.8265ZM119.774 59.8745V70.8505C119.774 71.0745 119.718 71.1305 119.48 71.1445C119.242 71.1585 118.472 71.1585 117.632 71.1305C117.786 71.3965 117.94 71.8165 117.996 72.0685C118.99 72.0685 119.718 72.0405 120.138 71.8865C120.53 71.7325 120.684 71.4525 120.684 70.8365V59.8745H119.774ZM136.602 65.6285C136.042 64.8585 134.95 63.5565 134.11 62.6185L133.396 63.0245C133.746 63.4165 134.11 63.8785 134.488 64.3125L129.49 64.6205C130.106 63.9345 130.736 63.1645 131.31 62.3245H136.532V61.4705H131.912C132.22 61.0085 132.528 60.5185 132.808 60.0425L131.898 59.6785C131.576 60.2805 131.212 60.8965 130.834 61.4705H127.796V62.3245H130.26C129.728 63.0665 129.266 63.6545 129.042 63.8925C128.636 64.3825 128.3 64.7185 128.034 64.7745C128.118 65.0265 128.272 65.4745 128.328 65.6705C128.72 65.5025 129.336 65.4605 135.076 65.0825C135.37 65.4745 135.65 65.8385 135.846 66.1325L136.602 65.6285ZM127.558 61.5545C127.082 61.0085 126.046 60.2805 125.22 59.8045L124.66 60.4485C125.514 60.9525 126.522 61.7225 126.984 62.2685L127.558 61.5545ZM127.068 65.0685C126.522 64.5925 125.402 63.9765 124.534 63.5985L124.03 64.2845C124.926 64.6905 126.004 65.3625 126.55 65.8385L127.068 65.0685ZM127.04 67.0565C126.242 68.6385 125.15 70.4865 124.394 71.5645L125.178 72.1945C125.99 70.9065 126.984 69.1425 127.712 67.6725L127.04 67.0565ZM129.07 67.6445C129.07 68.9465 128.902 70.5145 127.278 71.7185C127.488 71.8445 127.81 72.1385 127.95 72.3345C129.714 70.9905 129.924 69.1985 129.924 67.6725V66.1885H129.07V67.6445ZM131.562 71.7745H132.388V66.2585H131.562V71.7745ZM135.174 71.3545C134.978 71.3545 134.95 71.2425 134.95 70.8505V66.1745H134.082V70.8365C134.082 71.7325 134.25 72.0685 135.104 72.0685H136.056C136.308 72.0685 136.56 72.0685 136.7 72.0265C136.672 71.8165 136.672 71.5085 136.644 71.2985C136.49 71.3405 136.21 71.3545 136.042 71.3545H135.174ZM151.708 60.4905H144.862V61.3585H151.708V60.4905ZM142.58 59.6225C141.88 60.6305 140.522 61.8905 139.36 62.6605C139.528 62.8425 139.78 63.2065 139.906 63.4025C141.152 62.5205 142.566 61.1905 143.476 59.9725L142.58 59.6225ZM143.154 62.6045C142.188 64.1865 140.648 65.8105 139.22 66.8325C139.402 67.0145 139.738 67.4205 139.878 67.6025C140.424 67.1685 140.984 66.6505 141.544 66.0765V72.4185H142.468V65.0545C143.042 64.3685 143.588 63.6545 144.036 62.9265L143.154 62.6045ZM152.114 64.3125H144.26V65.2085H149.034V71.1445C149.034 71.3825 148.936 71.4525 148.684 71.4525C148.418 71.4805 147.494 71.4805 146.458 71.4385C146.598 71.7045 146.724 72.0825 146.766 72.3345C148.166 72.3345 148.922 72.3345 149.384 72.1945C149.818 72.0405 149.972 71.7465 149.972 71.1585V65.2085H152.114V64.3125ZM166.52 62.7445C166.352 63.6825 166.128 64.7185 165.904 65.3905L166.646 65.6145C166.982 64.7185 167.304 63.2765 167.528 62.0585L166.912 61.8625L166.772 61.9045H163.51C163.692 61.2185 163.846 60.5045 163.972 59.7765L163.062 59.6225C162.754 61.7085 162.166 63.7245 161.228 65.0265C161.466 65.1245 161.858 65.3625 162.026 65.4885C162.516 64.7465 162.936 63.8085 163.272 62.7445H166.52ZM158.218 68.3165V69.8565H156.384V68.3165H158.218ZM158.988 70.5565V67.6165H155.6V71.1865H156.384V70.5565H158.988ZM162.124 66.6785V65.8525H160.78V61.1625H161.858V60.3505H154.984V61.1625H159.94V65.8525H154.83V66.6785H160.024V71.4105C160.024 71.5645 159.982 71.6205 159.8 71.6205C159.618 71.6345 159.03 71.6345 158.372 71.6205C158.484 71.8305 158.596 72.1105 158.652 72.3345C159.534 72.3345 160.094 72.3205 160.43 72.1945C160.766 72.0825 160.864 71.8865 160.864 71.4245V66.6785H162.124ZM158.204 64.2005H156.454V62.7305H158.204V64.2005ZM155.74 62.0445V64.8865H158.96V62.0445H155.74ZM164.868 63.6265H164V64.5505C164 66.5665 163.79 69.5205 161.102 71.7885C161.284 71.9425 161.592 72.2505 161.732 72.4605C163.328 71.0885 164.126 69.4645 164.504 67.9105C165.064 69.8145 165.876 71.1725 167.262 72.4185C167.374 72.1665 167.64 71.8725 167.878 71.7045C166.142 70.2485 165.33 68.5685 164.84 65.7405C164.854 65.3345 164.868 64.9425 164.868 64.5645V63.6265ZM181.01 62.3805H176.432V60.9805H181.01V62.3805ZM181.01 64.5225H176.432V63.0945H181.01V64.5225ZM181.948 60.2105H175.536V65.2785H181.948V60.2105ZM173.394 61.8345V67.8125H171.63V61.8345H173.394ZM174.262 60.9805H170.776V70.0245H171.63V68.6805H174.262V60.9805ZM175.998 71.0045V69.4085H181.514V71.0045H175.998ZM181.514 67.1125V68.6105H175.998V67.1125H181.514ZM175.088 66.3005V72.3765H175.998V71.8165H181.514V72.3065H182.466V66.3005H175.088ZM187.926 69.8425C188.766 70.3605 189.76 71.1165 190.264 71.6625L190.922 71.0325C190.418 70.5005 189.396 69.7725 188.556 69.2965L187.926 69.8425ZM192.42 66.1045H194.422L194.086 66.4125C194.45 66.5245 194.856 66.6785 195.234 66.8605C194.296 66.8745 193.344 66.8885 192.42 66.9025V66.1045ZM188.066 65.4465V64.5225H191.524V65.4465H188.066ZM188.066 62.9965H191.524V63.9065H188.066V62.9965ZM195.976 62.9965V63.9065H192.42V62.9965H195.976ZM195.976 65.4465H192.42V64.5225H195.976V65.4465ZM198.314 68.4565H194.94V67.5465H194.1L196.41 67.4765C196.732 67.6725 197.012 67.8685 197.222 68.0505L197.782 67.4905C197.18 67.0425 196.102 66.4825 195.094 66.1045H196.886V62.3385H192.42V61.4985H197.74V60.7425H192.42V59.6505H191.524V60.7425H186.106V61.4985H191.524V62.3385H187.184V66.1045H191.524V66.9165C189.508 66.9445 187.646 66.9585 186.246 66.9585L186.288 67.7145C188.318 67.6865 191.146 67.6305 194.044 67.5465V68.4565H185.7V69.2405H194.044V71.3405C194.044 71.5085 193.974 71.5645 193.75 71.5785C193.526 71.5785 192.756 71.5785 191.874 71.5505C192 71.8025 192.126 72.1385 192.168 72.3765C193.302 72.3765 193.988 72.3765 194.408 72.2365C194.828 72.1105 194.94 71.8585 194.94 71.3545V69.2405H198.314V68.4565ZM205.482 69.7865C204.544 70.4025 202.724 70.9625 201.268 71.2145C201.464 71.3825 201.73 71.6905 201.842 71.9145C203.298 71.5785 205.188 70.8785 206.182 70.1225L205.482 69.7865ZM208.8 70.2345C210.172 70.7245 211.992 71.4385 212.93 71.8865L213.49 71.2705C212.51 70.8225 210.704 70.1505 209.346 69.7165L208.8 70.2345ZM209.696 62.9405C209.5 63.3605 209.136 63.9905 208.828 64.3965L209.332 64.5505H205.44L205.986 64.3965C205.86 64.0045 205.524 63.3885 205.202 62.9405H209.696ZM207.848 68.2465V67.1265H212.258V66.3845H207.848V65.3065H212.944V64.5505H209.668C209.99 64.1725 210.326 63.6685 210.662 63.1785L209.808 62.9405H213.448V62.1565H211.222C211.6 61.6105 212.076 60.8125 212.468 60.0845L211.53 59.8185C211.278 60.4485 210.802 61.3865 210.41 61.9745L210.956 62.1565H209.178V59.6365H208.296V62.1565H206.504V59.6365H205.636V62.1565H203.844L204.572 61.8765C204.348 61.3025 203.844 60.4345 203.34 59.7905L202.556 60.0705C203.018 60.7145 203.508 61.5825 203.718 62.1565H201.394V62.9405H205.062L204.32 63.1365C204.614 63.5705 204.936 64.1305 205.062 64.5505H201.954V65.3065H206.924V66.3845H202.668V67.1265H206.924V68.2465H201.352V69.0445H206.924V72.3905H207.848V69.0445H213.504V68.2465H207.848ZM220.35 62.3805H222.604V61.5125H218.544C218.726 60.9665 218.88 60.3925 219.006 59.7905L218.11 59.6225C217.76 61.3305 217.172 63.0105 216.346 64.1165C216.556 64.2285 216.948 64.4945 217.102 64.6485C217.55 64.0325 217.928 63.2485 218.264 62.3805H219.426V64.7605C219.426 64.9145 219.426 65.0965 219.412 65.2785H216.486V66.1605H219.37C219.188 68.0365 218.516 70.1085 216.346 71.6625C216.542 71.8025 216.878 72.1525 216.976 72.3485C218.628 71.1865 219.496 69.6605 219.916 68.1205C220.686 68.9885 221.862 70.3745 222.324 71.0325L222.94 70.2485C222.534 69.7445 220.784 67.7985 220.14 67.1685C220.21 66.8325 220.252 66.4825 220.294 66.1605H223.024V65.2785H220.336C220.35 65.0965 220.35 64.9285 220.35 64.7745V62.3805ZM224.396 69.9825V61.7225H227.504V69.9825H224.396ZM223.486 60.8405V71.9845H224.396V70.8645H227.504V71.8445H228.442V60.8405H223.486ZM244.108 62.8145C243.926 62.1985 243.45 61.2045 242.988 60.4625L242.26 60.7565C242.722 61.4985 243.17 62.5065 243.352 63.1365L244.108 62.8145ZM240.482 61.1625H239.026C238.872 60.7425 238.592 60.1685 238.326 59.7345L237.584 59.9585C237.794 60.3225 238.018 60.7705 238.144 61.1625H236.212V61.9185H240.482V61.1625ZM234.672 61.4285C234.476 60.9665 234.028 60.2105 233.622 59.6645L232.964 59.9445C233.356 60.5045 233.79 61.2745 233.986 61.7505L234.672 61.4285ZM234.784 68.3305V70.8085H233.16V68.3305H234.784ZM235.512 67.5605H232.432V72.2365H233.16V71.5645H235.512V67.5605ZM232.446 66.4405H235.512V65.6845H232.446V66.4405ZM232.446 64.5785H235.512V63.8225H232.446V64.5785ZM231.984 62.7865H235.848V62.0165H231.984V62.7865ZM239.418 66.2305V67.5885H237.332V66.2305H239.418ZM237.332 69.6745V68.2745H239.418V69.6745H237.332ZM239.418 70.3745V70.7525H240.216V65.5305H236.548V71.3545H237.332V70.3745H239.418ZM243.422 65.5165C243.114 66.4825 242.708 67.3925 242.232 68.2185C242.078 67.2385 241.966 66.0345 241.882 64.7045H244.374V63.8925H241.826C241.77 62.5765 241.728 61.1345 241.714 59.6505H240.874C240.902 61.1345 240.944 62.5625 241.014 63.8925H239.53C239.684 63.4025 239.866 62.7725 240.048 62.1985L239.264 62.0585C239.166 62.5765 238.984 63.3605 238.816 63.8925H237.892C237.836 63.4025 237.668 62.6465 237.5 62.0725L236.8 62.1705C236.94 62.7165 237.094 63.3885 237.15 63.8925H235.946V64.7045H241.056C241.168 66.4685 241.336 67.9945 241.56 69.2405C240.832 70.2485 240.006 71.1025 239.124 71.7465C239.32 71.8865 239.572 72.0965 239.684 72.2505C240.426 71.7045 241.14 71.0045 241.784 70.2065C242.162 71.5505 242.666 72.3205 243.38 72.3345C243.828 72.3485 244.248 71.8165 244.514 69.9265C244.346 69.8425 244.024 69.6325 243.87 69.4505C243.772 70.6125 243.604 71.2845 243.394 71.2845C243.002 71.2705 242.68 70.5565 242.428 69.3665C243.128 68.3165 243.73 67.1545 244.164 65.8665L243.422 65.5165ZM31.672 84.3625V85.3705H44.384V84.3625H31.672ZM58.188 81.9825C57.908 82.9485 57.474 84.0265 57.11 84.7125C57.334 84.8105 57.698 84.9925 57.894 85.1045C58.384 84.1665 59 82.7105 59.35 81.3665L58.678 81.0025L58.496 81.0585H53.246C53.47 80.3445 53.666 79.5885 53.834 78.8185L52.826 78.6505C52.406 80.8485 51.65 83.0185 50.586 84.3905C50.838 84.5025 51.3 84.7545 51.496 84.9085C52.042 84.1245 52.532 83.1165 52.952 81.9825H58.188ZM51.104 80.8625H47.464V81.7585H51.104V80.8625ZM51.552 86.6165H47.156V87.5405H51.552V86.6165ZM55.178 82.5845H54.198V83.6205C54.198 85.6645 53.904 88.5905 49.83 90.6905C50.04 90.8585 50.376 91.2085 50.516 91.4185C53.288 89.9625 54.436 88.1005 54.884 86.3225C55.696 88.6885 57.04 90.4245 59.21 91.2925C59.35 91.0265 59.63 90.6625 59.826 90.4805C57.25 89.5845 55.822 87.3165 55.164 84.3345C55.178 84.0825 55.178 83.8585 55.178 83.6345V82.5845ZM67.596 84.6005L65.594 85.1745V82.3605H67.582V81.4785H65.594V78.6365H64.67V81.4785H62.528V82.3605H64.67V85.4265C63.816 85.6785 63.032 85.9025 62.402 86.0425L62.696 86.9805C63.284 86.7985 63.956 86.6165 64.67 86.3925V90.0885C64.67 90.2985 64.586 90.3685 64.39 90.3685C64.222 90.3685 63.62 90.3685 62.934 90.3545C63.06 90.6065 63.2 90.9845 63.228 91.2365C64.194 91.2365 64.754 91.2085 65.118 91.0545C65.454 90.9145 65.594 90.6625 65.594 90.0885V86.0985L67.722 85.4405L67.596 84.6005ZM75.198 79.8265H67.638V80.7505H71.698V89.9625C71.698 90.2285 71.586 90.3125 71.32 90.3125C71.026 90.3405 70.004 90.3405 68.954 90.2985C69.122 90.5785 69.29 91.0265 69.332 91.3065C70.676 91.3065 71.53 91.3065 72.02 91.1245C72.496 90.9565 72.678 90.6485 72.678 89.9765V80.7505H75.198V79.8265ZM88.4 81.4085C88.274 85.4265 88.12 86.8545 87.84 87.2045C87.714 87.3585 87.588 87.3865 87.364 87.3865C87.14 87.3865 86.552 87.3865 85.922 87.3305C86.062 87.5685 86.146 87.9465 86.174 88.2125C86.818 88.2545 87.434 88.2545 87.798 88.2265C88.162 88.1845 88.428 88.0865 88.666 87.7925C89.044 87.2885 89.198 85.6785 89.352 80.9745C89.366 80.8485 89.366 80.5125 89.366 80.5125H81.54C81.862 79.9665 82.156 79.4065 82.422 78.8185L81.484 78.5525C80.672 80.4705 79.286 82.2765 77.76 83.4105C77.984 83.5785 78.362 83.9285 78.53 84.0825C79.384 83.3825 80.224 82.4725 80.966 81.4085H88.4ZM84.732 83.7745V86.1545H80.896V83.7745H84.732ZM82.66 90.2005C81.162 90.2005 80.896 90.0045 80.896 89.2485V87.0085H85.628V82.9345H79.972V89.2485C79.972 90.7185 80.616 91.0825 82.73 91.0825H88.148C90.01 91.0825 90.402 90.5645 90.584 88.7445C90.332 88.7025 89.926 88.5625 89.702 88.4085C89.562 89.8785 89.352 90.2005 88.148 90.2005H82.66ZM93.86 87.5405C93.72 88.7025 93.496 89.9625 93.16 90.8305C93.37 90.9005 93.762 91.0265 93.944 91.1245C94.238 90.2425 94.518 88.8985 94.686 87.6805L93.86 87.5405ZM95.372 87.6385C95.54 88.6045 95.694 89.8785 95.736 90.7185L96.506 90.5645C96.464 89.7245 96.296 88.4785 96.114 87.5125L95.372 87.6385ZM96.814 87.3865C97.122 88.1985 97.444 89.3045 97.57 90.0045L98.312 89.7525C98.158 89.0525 97.822 87.9885 97.5 87.1625L96.814 87.3865ZM96.702 84.0825C96.856 84.5165 97.038 84.9925 97.178 85.4685L94.728 85.8045C95.876 84.5305 96.996 82.8925 97.92 81.2685L97.108 80.7925C96.8 81.4085 96.436 82.0525 96.072 82.6265L94.49 82.7665C95.302 81.6885 96.114 80.3025 96.758 78.9585L95.89 78.5945C95.288 80.1065 94.266 81.7305 93.958 82.1505C93.664 82.5845 93.412 82.8645 93.188 82.9205C93.286 83.1585 93.412 83.6065 93.468 83.7885C93.664 83.6905 93.986 83.6205 95.526 83.4525C94.994 84.2365 94.518 84.8525 94.28 85.1045C93.874 85.6085 93.538 85.9585 93.258 86.0285C93.356 86.2525 93.51 86.7145 93.566 86.8965C93.818 86.7705 94.238 86.6725 97.388 86.1965C97.472 86.5185 97.542 86.7985 97.584 87.0225L98.368 86.7705C98.214 86.0425 97.822 84.8105 97.416 83.8725L96.702 84.0825ZM104.15 86.5605V89.8225H100.062V86.5605H104.15ZM99.152 91.4325H100.062V90.6625H104.15V91.3905H105.088V85.7205H99.152V91.4325ZM101.784 78.6785C101.084 80.5825 99.628 82.4865 97.822 83.7325C98.032 83.8865 98.354 84.1945 98.494 84.3905C98.942 84.0545 99.39 83.6765 99.782 83.2845V84.0545H104.36V83.1865H99.88C100.776 82.3045 101.518 81.2825 102.092 80.1765C103.016 81.7865 104.374 83.3545 105.606 84.2225C105.76 83.9845 106.082 83.6345 106.32 83.4665C104.92 82.6265 103.394 80.9185 102.512 79.3085C102.568 79.1825 102.624 79.0425 102.68 78.9165L101.784 78.6785ZM111.794 78.6785C110.996 80.8345 109.68 82.9345 108.28 84.2925C108.462 84.5025 108.728 84.9785 108.826 85.2025C109.33 84.6565 109.848 84.0265 110.324 83.3405V91.3625H111.22V81.9545C111.78 81.0025 112.27 79.9665 112.676 78.9445L111.794 78.6785ZM114.356 84.5445C113.95 86.2245 113.278 87.9045 112.396 88.9825C112.62 89.1085 113.012 89.3745 113.194 89.5005C114.048 88.3245 114.804 86.5745 115.252 84.7265L114.356 84.5445ZM120.32 82.2205C120.194 82.9485 120.054 83.7185 119.942 84.2365L120.726 84.3905C120.922 83.6625 121.174 82.4725 121.342 81.4645L120.726 81.3105L120.572 81.3525H114.72C115.014 80.5685 115.252 79.7285 115.462 78.9025L114.552 78.6925C114.09 80.7645 113.32 82.7805 112.27 84.0965C112.494 84.2365 112.858 84.5445 113.026 84.6845C113.516 83.9985 113.978 83.1725 114.384 82.2205H116.61V90.2285C116.61 90.4105 116.554 90.4665 116.372 90.4665C116.19 90.4665 115.574 90.4805 114.902 90.4525C115.042 90.7325 115.182 91.1245 115.238 91.4045C116.106 91.4045 116.68 91.3765 117.058 91.2085C117.408 91.0545 117.52 90.7745 117.52 90.2285V82.2205H120.32ZM118.626 84.7125C119.41 86.1965 120.124 88.1705 120.362 89.4445L121.244 89.1505C121.006 87.8625 120.264 85.9305 119.452 84.4465L118.626 84.7125Z" fill="white"/>
</svg>
