<svg width="239" height="39" viewBox="0 0 239 39" fill="none" xmlns="http://www.w3.org/2000/svg">
<path d="M231.925 19.5153L237.567 13.8729L234.225 10.5303L224.975 19.7804L234.069 28.8751L237.412 25.5326L231.925 20.0456L231.66 19.7804L231.925 19.5153Z" fill="white" stroke="#00FF63" stroke-width="0.75"/>
<path d="M217.476 19.5152L223.123 13.8727L219.78 10.5303L210.53 19.7804L219.625 28.8751L222.967 25.5327L217.476 20.0457L217.211 19.7804L217.476 19.5152Z" fill="white" stroke="#00FF63" stroke-width="0.75"/>
<path d="M6.17275 19.8901L0.53033 25.5325L3.87285 28.8751L13.123 19.625L4.02832 10.5303L0.685793 13.8728L6.17275 19.3598L6.43792 19.625L6.17275 19.8901Z" fill="white" stroke="#00FF63" stroke-width="0.75"/>
<path d="M20.6214 19.8902L14.9746 25.5326L18.3171 28.8751L27.5672 19.625L18.4725 10.5303L15.1301 13.8727L20.6214 19.3597L20.8869 19.625L20.6214 19.8902Z" fill="white" stroke="#00FF63" stroke-width="0.75"/>
<rect x="41.5" y="0.5" width="156" height="38" fill="white" stroke="#00FF63"/>
<path d="M69.916 14.576H71.884V13.488H69.916V12.576H68.732V15.488H69.916V14.576ZM70.54 17.84H69.324V16.592H70.54V17.84ZM71.452 15.76H68.46V18.672H71.452V15.76ZM66.3 15.472H67.468V12.576H66.3V13.488H64.124V14.592H66.3V15.472ZM73.42 19.456H76.812V20.768H73.42V19.456ZM73.42 16.944H76.812V18.256H73.42V16.944ZM73.42 14.48H76.812V15.744H73.42V14.48ZM66.54 24.512H68.268V25.456H66.54V24.512ZM68.268 21.712H66.54V20.912H68.268V21.712ZM68.268 23.536H66.54V22.704H68.268V23.536ZM65.596 16.576H66.796V17.856H65.596V16.576ZM76.956 25.904C76.748 25.904 76.716 25.856 76.716 25.488V22.096H78.124V13.152H72.172V22.096H73.42C73.26 23.712 72.86 25.04 71.516 25.92V25.456H69.436V24.512H71.356V23.536H69.436V22.704H71.26V21.712H69.436V20.912H71.564V19.872H69.532C69.404 19.52 69.148 19.056 68.908 18.704L67.98 19.088C68.124 19.328 68.268 19.6 68.396 19.872H66.716C66.86 19.568 66.988 19.28 67.1 18.976L66.172 18.672H67.708V15.76H64.732V18.672H66.124C65.66 19.92 64.876 21.136 64.06 21.984C64.236 22.224 64.572 22.768 64.7 23.008C64.94 22.736 65.18 22.448 65.42 22.096V27.264H66.54V26.512H71.372C71.58 26.768 71.788 27.056 71.9 27.296C73.9 26.192 74.476 24.368 74.7 22.096H75.548V25.504C75.548 26.736 75.756 27.104 76.764 27.104H77.58C78.444 27.104 78.748 26.576 78.844 24.32C78.524 24.224 77.996 24.016 77.756 23.808C77.724 25.696 77.676 25.904 77.436 25.904H76.956ZM91.484 21.664H85.084V20.752H91.484V21.664ZM85.084 25.536V24.56H91.484V25.536H85.084ZM85.084 22.656H91.484V23.568H85.084V22.656ZM94.508 18.672V17.488H86.364C86.508 17.184 86.652 16.848 86.78 16.528H93.612V15.36H87.18C87.292 15.024 87.404 14.704 87.5 14.368C89.724 14.24 91.852 14.032 93.5 13.744L92.604 12.672C90.012 13.152 85.292 13.376 81.42 13.392C81.564 13.696 81.692 14.192 81.708 14.528C83.036 14.528 84.444 14.496 85.852 14.448C85.772 14.752 85.692 15.056 85.58 15.36H81.628V16.528H85.18C85.036 16.848 84.892 17.184 84.732 17.488H80.492V18.672H84.092C83.116 20.288 81.788 21.696 80.06 22.672C80.348 22.944 80.78 23.488 80.972 23.84C81.996 23.248 82.892 22.512 83.66 21.696V27.312H85.084V26.704H91.484V27.312H92.972V19.6H85.26C85.452 19.296 85.612 18.992 85.788 18.672H94.508ZM100.332 14.912L99.404 15.648C99.836 16.064 100.364 16.672 100.652 17.104H97.34C97.932 16.512 98.524 15.744 99.02 14.912H100.332ZM101.884 19.36H98.62V18.256H101.884V19.36ZM98.62 21.44V20.448H101.884V21.44H98.62ZM100.444 23.344C100.684 23.68 100.956 24.08 101.228 24.48L98.62 25.056V22.592H103.292V17.104H100.844L101.804 16.288C101.532 15.92 101.004 15.328 100.556 14.912H103.436V13.648H99.724C99.836 13.392 99.932 13.168 100.028 12.912L98.588 12.464C98.076 13.84 97.148 15.168 96.156 16.016C96.46 16.32 96.956 16.992 97.148 17.296L97.26 17.184V24.448C97.26 25.136 96.892 25.536 96.636 25.728C96.86 25.984 97.196 26.576 97.308 26.896C97.628 26.688 98.204 26.544 101.948 25.616C102.236 26.064 102.476 26.512 102.652 26.848L103.884 26.192C103.404 25.296 102.428 23.872 101.612 22.8L100.444 23.344ZM110.732 13.648H106.14C106.236 13.376 106.316 13.136 106.396 12.864L104.892 12.48C104.508 13.984 103.788 15.44 102.876 16.368C103.196 16.624 103.804 17.184 104.028 17.44C104.636 16.784 105.18 15.904 105.628 14.912H107.084L106.3 15.552C106.812 16.016 107.388 16.672 107.628 17.104H104.332V27.232H105.724V18.448H108.7V23.76C108.7 23.968 108.636 24.032 108.38 24.048C108.156 24.048 107.324 24.048 106.476 24.032C106.668 24.4 106.844 25.008 106.908 25.392C108.124 25.392 108.924 25.376 109.452 25.152C109.98 24.928 110.124 24.512 110.124 23.776V17.104H107.66L108.732 16.208C108.46 15.856 107.964 15.312 107.516 14.912H110.732V13.648ZM115.468 24.64V22.352H123.372V24.64H115.468ZM123.372 18.64V20.944H115.468V18.64H123.372ZM123.372 14.96V17.232H115.468V14.96H123.372ZM113.964 13.504V27.152H115.468V26.096H123.372V27.152H124.94V13.504H113.964ZM130.3 15.744H140.604V18.032H142.14V14.32H136.588C136.364 13.728 135.996 12.992 135.644 12.416L134.14 12.864C134.38 13.296 134.636 13.84 134.812 14.32H128.812V18.032H130.3V15.744ZM139.676 18.576V17.216H131.244V18.576H139.676ZM138.812 25.664C138.204 25.664 138.108 25.6 138.108 25.12V21.536H142.54V20.144H128.444V21.536H132.572C132.396 24.144 131.804 25.376 128.236 26.016C128.508 26.32 128.892 26.896 129.02 27.28C133.068 26.448 133.868 24.736 134.092 21.536H136.604V25.12C136.604 26.592 136.988 27.024 138.62 27.024H140.876C142.236 27.024 142.636 26.464 142.796 24.224C142.412 24.128 141.788 23.888 141.452 23.632C141.388 25.392 141.292 25.664 140.748 25.664H138.812ZM146.06 16.176H147.484V17.184H146.06V16.176ZM150.14 16.176V17.184H148.796V16.176H150.14ZM148.796 18.672V18.112H149.276L148.796 18.672ZM156.22 15.488C155.98 16.272 155.628 16.928 155.164 17.52C154.604 16.864 154.172 16.176 153.868 15.488H156.22ZM147.484 20.72H148.796V18.864C149.5 19.248 150.316 19.776 150.732 20.176L151.356 19.328C150.956 18.96 150.14 18.448 149.452 18.112H151.372V16.544C151.676 16.784 152.124 17.28 152.316 17.536C152.604 17.248 152.876 16.928 153.148 16.576C153.452 17.184 153.852 17.808 154.332 18.4C153.548 19.056 152.556 19.536 151.404 19.888C151.676 20.128 152.092 20.688 152.252 20.96C153.388 20.544 154.396 20.016 155.212 19.296C155.996 20.016 156.94 20.608 158.044 20.992C158.22 20.656 158.62 20.096 158.876 19.84C157.788 19.52 156.86 19.008 156.108 18.416C156.78 17.616 157.276 16.656 157.628 15.488H158.668V14.288H154.428C154.62 13.84 154.78 13.36 154.908 12.896L153.58 12.576C153.164 14.128 152.396 15.552 151.372 16.464V15.248H148.796V14.56H151.708V13.472H148.796V12.576H147.484V13.472H144.476V14.56H147.484V15.248H144.892V18.112H147.004C146.268 18.864 145.18 19.6 144.172 19.968C144.444 20.192 144.828 20.624 145.02 20.912C145.852 20.528 146.764 19.84 147.484 19.088V20.72ZM152.204 24.512H156.556V23.376H152.204V22.352H157.708V21.12H145.324V22.352H150.732V25.6H148.22V23.072H146.812V25.6H144.3V26.848H158.716V25.6H152.204V24.512ZM164.412 17.328H162.476V12.672H161.148V19.056C161.148 21.44 161.036 24.432 160.124 26.48C160.444 26.672 160.924 27.088 161.164 27.376C161.98 25.792 162.3 23.68 162.412 21.6H164.332V27.248H165.676V20.272H162.46C162.476 19.856 162.476 19.456 162.476 19.056V18.64H165.756V13.024H164.412V17.328ZM172.812 18.72C172.492 20.16 171.996 21.44 171.356 22.56C170.7 21.424 170.22 20.128 169.868 18.72H172.812ZM173.516 17.312L173.26 17.36H168.588V14.848H174.3V13.504H167.196V19.184C167.196 21.44 167.068 24.48 165.932 26.544C166.3 26.72 166.844 27.104 167.116 27.36C168.412 25.104 168.588 21.808 168.588 19.2V18.72C169.02 20.656 169.66 22.384 170.508 23.808C169.724 24.8 168.796 25.584 167.772 26.096C168.092 26.368 168.492 26.928 168.7 27.312C169.708 26.736 170.588 26 171.372 25.072C172.108 25.952 172.956 26.688 173.964 27.216C174.204 26.832 174.652 26.272 174.988 26C173.916 25.504 173.004 24.768 172.252 23.856C173.308 22.208 174.06 20.144 174.444 17.6L173.516 17.312Z" fill="#2C2F31"/>
</svg>
