<svg width="194" height="39" viewBox="0 0 194 39" fill="none" xmlns="http://www.w3.org/2000/svg">
<path d="M186.925 19.5153L192.567 13.8729L189.225 10.5303L179.975 19.7804L189.069 28.8751L192.412 25.5326L186.925 20.0456L186.66 19.7804L186.925 19.5153Z" fill="white" stroke="#00FF63" stroke-width="0.75"/>
<path d="M172.476 19.5152L178.123 13.8727L174.78 10.5303L165.53 19.7804L174.625 28.8751L177.967 25.5327L172.476 20.0457L172.211 19.7804L172.476 19.5152Z" fill="white" stroke="#00FF63" stroke-width="0.75"/>
<path d="M6.17275 19.8901L0.53033 25.5325L3.87285 28.8751L13.123 19.625L4.02832 10.5303L0.685793 13.8728L6.17275 19.3598L6.43792 19.625L6.17275 19.8901Z" fill="white" stroke="#00FF63" stroke-width="0.75"/>
<path d="M20.6214 19.8902L14.9746 25.5326L18.3171 28.8751L27.5672 19.625L18.4725 10.5303L15.1301 13.8727L20.6214 19.3597L20.8869 19.625L20.6214 19.8902Z" fill="white" stroke="#00FF63" stroke-width="0.75"/>
<rect x="39.5" y="0.5" width="115" height="38" fill="white" stroke="#00FF63"/>
<path d="M73.54 14.992C73.364 14.32 72.996 13.264 72.692 12.464L71.22 12.832C71.508 13.648 71.86 14.736 71.988 15.44L73.54 14.992ZM78.98 15.504H66.068V17.008H78.98V15.504ZM71.188 24.16C70.916 22.384 70.292 19.76 69.668 17.68L68.164 18.048C68.74 20.096 69.38 22.8 69.604 24.56L71.188 24.16ZM74.724 25.12C75.508 23.168 76.404 20.368 77.028 18.032L75.348 17.712C74.868 20 73.956 23.136 73.124 25.12H65.38V26.624H79.636V25.12H74.724ZM87.044 14.72V16.496H83.7V14.72H87.044ZM83.7 19.696V17.824H87.044V19.696H83.7ZM85.476 22.288C85.764 22.752 86.036 23.264 86.324 23.792L83.7 24.592V21.024H88.532V13.392H82.18V24.272C82.18 24.864 81.78 25.168 81.476 25.328C81.732 25.68 81.988 26.4 82.084 26.848C82.468 26.56 83.044 26.32 86.948 25.008C87.22 25.568 87.428 26.096 87.588 26.496L88.948 25.76C88.532 24.688 87.556 22.96 86.74 21.664L85.476 22.288ZM95.14 13.504H89.732V27.264H91.22V14.864H93.684V22.608C93.684 22.816 93.62 22.88 93.396 22.896C93.204 22.912 92.516 22.912 91.812 22.88C92.02 23.264 92.196 23.888 92.244 24.288C93.332 24.288 94.052 24.272 94.548 24.016C95.012 23.792 95.14 23.36 95.14 22.624V13.504ZM102.388 19.424L100.724 19.888V17.072H102.388V15.696H100.724V12.592H99.3V15.696H97.22V17.072H99.3V20.272C98.436 20.496 97.636 20.704 96.996 20.864L97.364 22.304C97.972 22.128 98.612 21.936 99.3 21.744V25.616C99.3 25.856 99.204 25.92 98.996 25.92C98.804 25.936 98.132 25.936 97.46 25.904C97.652 26.288 97.844 26.896 97.892 27.248C98.964 27.264 99.652 27.216 100.116 26.992C100.564 26.768 100.724 26.384 100.724 25.632V21.312C101.332 21.136 101.94 20.96 102.564 20.768L102.388 19.424ZM107.828 24.672V21.744H110.052V24.672H107.828ZM104.276 21.744H106.42V24.672H104.276V21.744ZM106.42 17.6V20.368H104.276V17.6H106.42ZM110.052 17.6V20.368H107.828V17.6H110.052ZM107.828 16.176V12.608H106.42V16.176H102.868V27.232H104.276V26.096H110.052V27.12H111.54V16.176H107.828ZM115.668 18.544H116.772V21.632H118.116V12.624H116.772V15.136H115.252V12.976H114.004V16.304H116.772V17.376H113.3V18.544H114.34V18.592C114.34 19.216 114.18 20.4 113.204 21.152C113.54 21.312 114.084 21.616 114.356 21.824C115.428 20.912 115.668 19.424 115.668 18.64V18.544ZM125.316 14.256C124.916 14.688 124.404 15.072 123.812 15.408C123.46 15.008 123.028 14.608 122.58 14.256H125.316ZM127.812 23.92V22.688H124.964L125.316 22.32C125.028 22.016 124.484 21.6 123.988 21.248C124.436 21.232 124.788 21.2 125.076 21.088C125.524 20.912 125.652 20.624 125.652 19.984V18.656H127.572V17.648H125.652V16.528H124.244V17.648H119.652C122.836 17.152 125.764 16.112 127.108 13.744L126.324 13.328L126.084 13.376H123.476C123.748 13.184 123.972 12.992 124.212 12.8L122.964 12.512C122.116 13.2 120.644 13.84 118.724 14.288C118.98 14.48 119.332 14.864 119.492 15.136C120.196 14.928 120.852 14.704 121.46 14.464C121.972 14.864 122.5 15.392 122.884 15.824C121.62 16.336 120.132 16.656 118.628 16.816C118.82 17.024 119.06 17.376 119.172 17.648H118.676V18.656H120.42L119.78 19.152C120.388 19.552 121.108 20.176 121.444 20.64L122.404 19.856C122.116 19.488 121.556 19.008 120.996 18.656H124.244V19.936C124.244 20.112 124.18 20.144 124.004 20.16C123.828 20.176 123.204 20.176 122.564 20.144C122.74 20.48 122.916 20.912 122.964 21.264H123.54L123.028 21.76C123.396 22.016 123.86 22.368 124.196 22.688H121.14C121.172 22.512 121.172 22.352 121.172 22.192V21.152H119.7V22.16C119.7 22.32 119.684 22.496 119.652 22.688H113.236V23.92H118.964C118.132 24.768 116.452 25.6 113.108 26.112C113.412 26.448 113.78 26.992 113.956 27.328C118.356 26.608 120.116 25.248 120.804 23.92H121.428L120.932 24.672C122.964 25.424 125.78 26.576 127.172 27.264L127.876 26.08C126.564 25.488 124.196 24.592 122.308 23.92H127.812ZM121.716 15.216C120.708 15.28 119.86 15.344 119.124 15.376L119.252 16.208C120.036 16.128 120.852 16.064 121.732 15.968L121.716 15.216Z" fill="#2C2F31"/>
</svg>
