<svg width="194" height="39" viewBox="0 0 194 39" fill="none" xmlns="http://www.w3.org/2000/svg">
<path d="M186.925 19.5153L192.567 13.8729L189.225 10.5303L179.975 19.7804L189.069 28.8751L192.412 25.5326L186.925 20.0456L186.66 19.7804L186.925 19.5153Z" fill="white" stroke="#00FF63" stroke-width="0.75"/>
<path d="M172.476 19.5152L178.123 13.8727L174.78 10.5303L165.53 19.7804L174.625 28.8751L177.967 25.5327L172.476 20.0457L172.211 19.7804L172.476 19.5152Z" fill="white" stroke="#00FF63" stroke-width="0.75"/>
<path d="M6.17275 19.8901L0.53033 25.5325L3.87285 28.8751L13.123 19.625L4.02832 10.5303L0.685793 13.8728L6.17275 19.3598L6.43792 19.625L6.17275 19.8901Z" fill="white" stroke="#00FF63" stroke-width="0.75"/>
<path d="M20.6216 19.8902L14.9748 25.5326L18.3172 28.8751L27.5673 19.625L18.4727 10.5303L15.1302 13.8727L20.6216 19.3597L20.887 19.625L20.6216 19.8902Z" fill="white" stroke="#00FF63" stroke-width="0.75"/>
<rect x="39.5" y="0.5" width="115" height="38" fill="white" stroke="#00FF63"/>
<path d="M73.54 14.992C73.364 14.32 72.996 13.264 72.692 12.464L71.22 12.832C71.508 13.648 71.86 14.736 71.988 15.44L73.54 14.992ZM78.98 15.504H66.068V17.008H78.98V15.504ZM71.188 24.16C70.916 22.384 70.292 19.76 69.668 17.68L68.164 18.048C68.74 20.096 69.38 22.8 69.604 24.56L71.188 24.16ZM74.724 25.12C75.508 23.168 76.404 20.368 77.028 18.032L75.348 17.712C74.868 20 73.956 23.136 73.124 25.12H65.38V26.624H79.636V25.12H74.724ZM87.044 14.72V16.496H83.7V14.72H87.044ZM83.7 19.696V17.824H87.044V19.696H83.7ZM85.476 22.288C85.764 22.752 86.036 23.264 86.324 23.792L83.7 24.592V21.024H88.532V13.392H82.18V24.272C82.18 24.864 81.78 25.168 81.476 25.328C81.732 25.68 81.988 26.4 82.084 26.848C82.468 26.56 83.044 26.32 86.948 25.008C87.22 25.568 87.428 26.096 87.588 26.496L88.948 25.76C88.532 24.688 87.556 22.96 86.74 21.664L85.476 22.288ZM95.14 13.504H89.732V27.264H91.22V14.864H93.684V22.608C93.684 22.816 93.62 22.88 93.396 22.896C93.204 22.912 92.516 22.912 91.812 22.88C92.02 23.264 92.196 23.888 92.244 24.288C93.332 24.288 94.052 24.272 94.548 24.016C95.012 23.792 95.14 23.36 95.14 22.624V13.504ZM101.62 21.584L99.492 22.256V14.336H98.036V22.064C98.036 22.704 97.716 22.992 97.476 23.152C97.684 23.488 97.956 24.144 98.052 24.512C98.388 24.256 98.884 23.984 101.62 23.024V27.28H103.092V12.832H101.62V21.584ZM106.164 17.008H109.236C108.932 18.864 108.468 20.464 107.78 21.808C107.028 20.48 106.452 18.96 106.036 17.344L106.164 17.008ZM111.796 17.008V15.6H106.612C106.868 14.704 107.076 13.776 107.236 12.832L105.716 12.576C105.284 15.296 104.484 17.856 103.124 19.44C103.444 19.744 103.972 20.4 104.18 20.704C104.564 20.24 104.932 19.696 105.236 19.088C105.716 20.56 106.276 21.936 106.98 23.136C106.084 24.384 104.916 25.36 103.412 26.08C103.716 26.368 104.228 26.992 104.388 27.312C105.796 26.544 106.916 25.584 107.812 24.432C108.676 25.568 109.716 26.512 110.916 27.2C111.14 26.816 111.588 26.256 111.94 26C110.644 25.344 109.572 24.384 108.66 23.168C109.652 21.488 110.292 19.456 110.724 17.008H111.796ZM116.676 15.856H118.148V14.848H120.084V13.616H118.148V12.56H116.676V13.616H113.476V14.848H116.676V15.856ZM119.108 23.504H120.228V24.496H119.108V23.504ZM120.228 19.504V20.448H119.108V19.504H120.228ZM121.636 22.576H119.108V21.376H121.636V22.576ZM125.684 18.512C125.476 19.696 125.172 20.784 124.788 21.792C124.596 20.64 124.468 19.28 124.388 17.696H127.684V16.432H126.804L127.22 16.096C126.932 15.696 126.292 15.216 125.748 14.896L124.868 15.568C125.236 15.792 125.636 16.128 125.956 16.432H124.356C124.34 16.112 124.34 15.776 124.34 15.456H124.292V14.848H127.556V13.616H124.292V12.56H122.82V13.616H120.804V14.848H122.82V15.728H123.012L123.044 16.432H116.084V19.136H114.964V16.56H113.844V20.336H116.084V20.944V21.488H113.172V22.704H113.988V23.264C113.988 24.208 113.86 25.664 113.044 26.672C113.3 26.784 113.7 27.088 113.908 27.28C114.9 26.144 115.076 24.416 115.076 23.296V22.704H116.036C115.956 24.08 115.716 25.552 115.108 26.672C115.428 26.784 116.004 27.104 116.244 27.312C117.172 25.568 117.332 22.912 117.332 20.976V17.696H123.108C123.236 20.096 123.492 22.096 123.86 23.632C123.54 24.144 123.204 24.624 122.82 25.056V24.496H121.236V23.504H122.708V20.448H121.236V19.504H122.676V18.528H118.02V25.488H122.404C122.084 25.808 121.716 26.128 121.332 26.384C121.636 26.592 122.196 27.056 122.404 27.296C123.124 26.72 123.78 26.048 124.356 25.264C124.852 26.576 125.524 27.28 126.324 27.28C127.332 27.28 127.764 26.864 127.956 24.624C127.62 24.512 127.22 24.256 126.932 23.984C126.868 25.52 126.708 25.968 126.436 25.968C126.036 25.968 125.604 25.28 125.22 23.904C126.02 22.432 126.612 20.704 127.028 18.736L125.684 18.512Z" fill="#2C2F31"/>
</svg>
