<svg width="194" height="39" viewBox="0 0 194 39" fill="none" xmlns="http://www.w3.org/2000/svg">
<path d="M186.925 19.5153L192.567 13.8729L189.225 10.5303L179.975 19.7804L189.069 28.8751L192.412 25.5326L186.925 20.0456L186.66 19.7804L186.925 19.5153Z" stroke="#00FF63" stroke-width="0.75"/>
<path d="M172.476 19.5152L178.123 13.8727L174.78 10.5303L165.53 19.7804L174.625 28.8751L177.967 25.5327L172.476 20.0457L172.211 19.7804L172.476 19.5152Z" stroke="#00FF63" stroke-width="0.75"/>
<path d="M6.17275 19.8901L0.53033 25.5325L3.87285 28.8751L13.123 19.625L4.02832 10.5303L0.685793 13.8728L6.17275 19.3598L6.43792 19.625L6.17275 19.8901Z" stroke="#00FF63" stroke-width="0.75"/>
<path d="M20.6216 19.8902L14.9748 25.5326L18.3172 28.8751L27.5673 19.625L18.4727 10.5303L15.1302 13.8727L20.6216 19.3597L20.887 19.625L20.6216 19.8902Z" stroke="#00FF63" stroke-width="0.75"/>
<rect x="39.5" y="0.5" width="115" height="38" stroke="#00FF63"/>
<path d="M73.348 15.088C73.188 14.4 72.836 13.36 72.516 12.544L71.364 12.848C71.668 13.664 72.004 14.752 72.132 15.44L73.348 15.088ZM78.948 15.632H66.1V16.8H78.948V15.632ZM71.076 24.368C70.788 22.528 70.116 19.808 69.492 17.664L68.308 17.952C68.916 20.048 69.588 22.848 69.812 24.672L71.076 24.368ZM74.436 25.36C75.252 23.344 76.212 20.304 76.868 17.92L75.524 17.664C75.012 20 74.02 23.312 73.156 25.36H65.412V26.544H79.588V25.36H74.436ZM87.204 14.528V16.608H83.46V14.528H87.204ZM83.46 19.888V17.68H87.204V19.888H83.46ZM85.572 22.256C85.86 22.752 86.196 23.328 86.516 23.904L83.46 24.896V20.96H88.372V13.456H82.276V24.528C82.276 25.136 81.876 25.408 81.604 25.536C81.796 25.84 82.02 26.416 82.1 26.752C82.436 26.496 82.964 26.272 86.996 24.848C87.3 25.44 87.556 26.016 87.732 26.448L88.804 25.856C88.356 24.8 87.396 23.072 86.58 21.776L85.572 22.256ZM95.076 13.552H89.844V27.232H91.012V14.672H93.908V22.704C93.908 22.928 93.828 22.992 93.604 22.992C93.396 23.008 92.66 23.008 91.828 22.976C92.004 23.312 92.132 23.792 92.18 24.112C93.348 24.128 94.068 24.112 94.5 23.904C94.932 23.712 95.076 23.376 95.076 22.704V13.552ZM101.7 21.68L99.252 22.496V14.384H98.084V22.208C98.084 22.832 97.764 23.136 97.54 23.28C97.7 23.536 97.94 24.064 98.02 24.368C98.324 24.112 98.788 23.888 101.7 22.816V27.248H102.868V12.864H101.7V21.68ZM105.892 16.832H109.348C109.012 18.848 108.5 20.592 107.732 22.032C106.884 20.56 106.26 18.864 105.796 17.072L105.892 16.832ZM111.732 16.832V15.712H106.26C106.516 14.784 106.756 13.808 106.932 12.816L105.716 12.608C105.268 15.376 104.436 17.984 103.06 19.6C103.3 19.824 103.748 20.352 103.908 20.592C104.372 20 104.804 19.312 105.172 18.544C105.652 20.224 106.292 21.76 107.092 23.104C106.148 24.432 104.916 25.488 103.316 26.272C103.556 26.512 103.972 26.992 104.1 27.248C105.604 26.432 106.804 25.408 107.764 24.144C108.676 25.408 109.748 26.448 111.06 27.168C111.22 26.848 111.604 26.432 111.876 26.192C110.5 25.52 109.364 24.448 108.42 23.136C109.444 21.424 110.1 19.36 110.548 16.832H111.732ZM116.9 15.888H118.068V14.752H120.02V13.728H118.068V12.608H116.9V13.728H113.524V14.752H116.9V15.888ZM118.9 23.408H120.212V24.544H118.9V23.408ZM120.212 19.312V20.416H118.9V19.312H120.212ZM121.86 22.624H118.9V21.216H121.86V22.624ZM125.812 18.496C125.572 19.792 125.22 20.976 124.772 22.064C124.564 20.816 124.404 19.312 124.324 17.488H127.684V16.464H126.644L127.076 16.128C126.756 15.728 126.068 15.216 125.508 14.912L124.788 15.456C125.268 15.728 125.764 16.128 126.116 16.464H124.292C124.292 16.128 124.276 15.792 124.276 15.424H123.988V14.752H127.556V13.728H123.988V12.608H122.82V13.728H120.804V14.752H122.82V15.808H123.22L123.236 16.464H116.164V19.28H114.852V16.544H113.924V20.256H116.164V20.848C116.164 21.072 116.164 21.328 116.164 21.568H113.22V22.576H114.1V23.28C114.1 24.256 113.956 25.696 113.108 26.72C113.316 26.832 113.668 27.072 113.828 27.232C114.82 26.096 114.996 24.432 114.996 23.312V22.576H116.116C116.036 24 115.796 25.536 115.14 26.736C115.38 26.832 115.86 27.104 116.036 27.264C117.028 25.472 117.188 22.816 117.188 20.848V17.488H123.284C123.428 19.952 123.684 22 124.02 23.552C123.684 24.144 123.3 24.688 122.868 25.168V24.544H121.076V23.408H122.74V20.416H121.076V19.312H122.74V18.496H118.004V25.376H122.676C122.276 25.792 121.844 26.176 121.38 26.528C121.636 26.704 122.084 27.056 122.276 27.264C123.076 26.608 123.78 25.808 124.42 24.928C124.932 26.448 125.62 27.248 126.436 27.248C127.332 27.248 127.7 26.848 127.876 24.72C127.604 24.64 127.268 24.4 127.044 24.208C126.964 25.76 126.804 26.176 126.516 26.192C126.052 26.192 125.54 25.392 125.108 23.776C125.892 22.32 126.5 20.608 126.884 18.672L125.812 18.496Z" fill="white"/>
</svg>
