<svg width="239" height="39" viewBox="0 0 239 39" fill="none" xmlns="http://www.w3.org/2000/svg">
<path d="M231.925 19.5153L237.567 13.8729L234.225 10.5303L224.975 19.7804L234.069 28.8751L237.412 25.5326L231.925 20.0456L231.66 19.7804L231.925 19.5153Z" stroke="#00FF63" stroke-width="0.75"/>
<path d="M217.476 19.5152L223.123 13.8727L219.78 10.5303L210.53 19.7804L219.625 28.8751L222.967 25.5327L217.476 20.0457L217.211 19.7804L217.476 19.5152Z" stroke="#00FF63" stroke-width="0.75"/>
<path d="M6.17275 19.8901L0.53033 25.5325L3.87285 28.8751L13.123 19.625L4.02832 10.5303L0.685793 13.8728L6.17275 19.3598L6.43792 19.625L6.17275 19.8901Z" stroke="#00FF63" stroke-width="0.75"/>
<path d="M20.6214 19.8902L14.9746 25.5326L18.3171 28.8751L27.5672 19.625L18.4725 10.5303L15.1301 13.8727L20.6214 19.3597L20.8869 19.625L20.6214 19.8902Z" stroke="#00FF63" stroke-width="0.75"/>
<rect x="41.5" y="0.5" width="156" height="38" stroke="#00FF63"/>
<path d="M69.868 14.528H71.98V13.616H69.868V12.624H68.892V15.504H69.868V14.528ZM70.716 17.888H69.308V16.512H70.716V17.888ZM71.484 15.792H68.556V18.608H71.484V15.792ZM66.444 15.488H67.42V12.624H66.444V13.616H64.156V14.528H66.444V15.488ZM65.548 16.512H66.908V17.904H65.548V16.512ZM64.796 18.624H67.692V15.792H64.796V18.624ZM73.292 19.392H77.116V20.976H73.292V19.392ZM73.292 16.832H77.116V18.416H73.292V16.832ZM73.292 14.288H77.116V15.84H73.292V14.288ZM66.412 24.4H68.412V25.52H66.412V24.4ZM68.412 21.76H66.412V20.8H68.412V21.76ZM68.412 23.568H66.412V22.576H68.412V23.568ZM76.94 26.064C76.716 26.064 76.684 26.016 76.684 25.68V22.048H78.188V13.2H72.268V22.048H73.676C73.5 23.824 73.036 25.248 71.58 26.128V25.52H69.356V24.4H71.372V23.568H69.356V22.576H71.308V21.76H69.356V20.8H71.612V19.936H69.532C69.372 19.568 69.116 19.104 68.844 18.752L68.076 19.088C68.252 19.344 68.428 19.648 68.556 19.936H66.636C66.78 19.6 66.924 19.296 67.052 18.96L66.22 18.704C65.74 19.984 64.94 21.232 64.076 22.096C64.252 22.288 64.54 22.72 64.636 22.896C64.94 22.576 65.212 22.224 65.5 21.84V27.232H66.412V26.384H71.18C71.404 26.576 71.724 26.976 71.868 27.264C73.884 26.192 74.492 24.368 74.716 22.048H75.708V25.68C75.708 26.752 75.916 27.072 76.812 27.072H77.66C78.476 27.072 78.732 26.56 78.812 24.32C78.524 24.24 78.108 24.08 77.9 23.904C77.868 25.84 77.82 26.064 77.548 26.064H76.94ZM91.772 21.728H84.828V20.624H91.772V21.728ZM84.828 25.68V24.496H91.772V25.68H84.828ZM91.772 23.664H84.828V22.544H91.772V23.664ZM94.508 18.576V17.584H86.124C86.316 17.2 86.492 16.8 86.652 16.416H93.58V15.456H86.988C87.116 15.056 87.244 14.672 87.356 14.272C89.644 14.144 91.82 13.936 93.42 13.6L92.668 12.736C90.14 13.248 85.308 13.504 81.436 13.536C81.548 13.792 81.66 14.176 81.676 14.448C83.052 14.448 84.556 14.416 86.044 14.336C85.948 14.72 85.836 15.088 85.708 15.456H81.66V16.416H85.356C85.212 16.8 85.02 17.2 84.828 17.584H80.492V18.576H84.268C83.276 20.24 81.9 21.728 80.108 22.768C80.332 22.976 80.684 23.408 80.844 23.68C81.932 23.024 82.876 22.224 83.692 21.328V27.264H84.828V26.64H91.772V27.264H92.94V19.68H84.972C85.212 19.328 85.42 18.944 85.628 18.576H94.508ZM103.468 14.832V13.808H99.42C99.564 13.488 99.692 13.184 99.82 12.864L98.684 12.544C98.156 13.936 97.228 15.296 96.236 16.176C96.476 16.4 96.876 16.928 97.02 17.184C97.692 16.56 98.316 15.728 98.86 14.832H103.468ZM99.452 15.536C99.9 16.016 100.444 16.688 100.7 17.12L101.564 16.4C101.308 15.984 100.748 15.36 100.268 14.912L99.452 15.536ZM102.108 18.144V19.456H98.444V18.144H102.108ZM98.444 21.6V20.368H102.108V21.6H98.444ZM100.54 23.312C100.844 23.696 101.164 24.144 101.484 24.608L98.444 25.28V22.544H103.228V17.2H97.34V24.672C97.34 25.344 96.972 25.712 96.732 25.84C96.924 26.08 97.196 26.544 97.292 26.816C97.612 26.608 98.108 26.48 102.076 25.504C102.396 25.984 102.668 26.448 102.86 26.8L103.852 26.272C103.356 25.376 102.348 23.952 101.484 22.864L100.54 23.312ZM110.06 17.2H104.428V27.216H105.548V18.288H108.924V23.952C108.924 24.16 108.844 24.24 108.588 24.24C108.348 24.256 107.484 24.256 106.54 24.224C106.7 24.544 106.86 25.008 106.908 25.344C108.156 25.344 108.956 25.328 109.452 25.136C109.932 24.944 110.06 24.608 110.06 23.952V17.2ZM108.46 16.352C108.188 15.936 107.58 15.296 107.084 14.848L106.268 15.488C106.764 15.952 107.34 16.624 107.612 17.056L108.46 16.352ZM105.804 13.808C105.916 13.488 106.012 13.168 106.108 12.848L104.924 12.56C104.524 14.08 103.82 15.536 102.908 16.48C103.18 16.688 103.644 17.104 103.852 17.328C104.428 16.672 104.972 15.792 105.388 14.832H110.732V13.808H105.804ZM115.244 24.88V22.256H123.612V24.88H115.244ZM123.612 18.496V21.12H115.244V18.496H123.612ZM123.612 14.768V17.36H115.244V14.768H123.612ZM114.076 13.616V27.136H115.244V26.048H123.612V27.136H124.844V13.616H114.076ZM130.044 15.584H140.876V17.952H142.092V14.448H136.46C136.236 13.872 135.82 13.088 135.436 12.48L134.252 12.816C134.524 13.296 134.828 13.92 135.052 14.448H128.876V17.952H130.044V15.584ZM139.788 18.384V17.28H131.164V18.384H139.788ZM138.7 25.872C138.044 25.872 137.932 25.792 137.932 25.328V21.36H142.524V20.224H128.476V21.36H132.732C132.54 24.192 131.868 25.552 128.268 26.256C128.492 26.48 128.796 26.944 128.892 27.248C132.86 26.4 133.692 24.672 133.932 21.36H136.748V25.344C136.748 26.608 137.116 26.976 138.572 26.976H141.02C142.284 26.976 142.62 26.432 142.764 24.224C142.428 24.144 141.948 23.968 141.676 23.76C141.612 25.584 141.516 25.872 140.908 25.872H138.7ZM145.9 16.128H147.628V17.296H145.9V16.128ZM150.268 16.128V17.296H148.684V16.128H150.268ZM147.628 20.848H148.684V18.8C149.436 19.2 150.316 19.776 150.78 20.192L151.308 19.488C150.812 19.072 149.9 18.496 149.132 18.144L148.684 18.688V18.096H151.292V15.344H148.684V14.528H151.692V13.616H148.684V12.608H147.628V13.616H144.46V14.528H147.628V15.344H144.924V18.096H147.244C146.492 18.96 145.276 19.792 144.188 20.192C144.412 20.384 144.716 20.752 144.876 20.976C145.82 20.544 146.86 19.76 147.628 18.928V20.848ZM152.076 24.464H156.652V23.536H152.076V22.288H157.708V21.296H145.372V22.288H150.908V25.776H148.076V23.136H146.94V25.776H144.316V26.8H158.732V25.776H152.076V24.464ZM153.756 15.408L156.524 15.392C156.252 16.336 155.804 17.152 155.244 17.824C154.572 17.056 154.076 16.224 153.756 15.408ZM158.684 15.392V14.4H154.236C154.46 13.904 154.636 13.392 154.796 12.864L153.708 12.624C153.276 14.224 152.476 15.728 151.436 16.672C151.66 16.864 152.076 17.264 152.236 17.472C152.556 17.152 152.876 16.768 153.18 16.368C153.5 17.088 153.964 17.824 154.556 18.512C153.724 19.232 152.684 19.776 151.452 20.176C151.66 20.368 152.012 20.816 152.14 21.024C153.34 20.576 154.396 20.016 155.26 19.264C156.044 20 157.02 20.64 158.172 21.072C158.3 20.816 158.62 20.368 158.844 20.16C157.708 19.776 156.748 19.216 155.98 18.544C156.716 17.696 157.276 16.656 157.66 15.392H158.684ZM164.524 17.456H162.3V12.672H161.228V19.168C161.228 21.632 161.116 24.528 160.204 26.624C160.476 26.784 160.876 27.12 161.068 27.328C161.868 25.696 162.156 23.568 162.252 21.456H164.476V27.216H165.58V20.384H162.284C162.3 19.984 162.3 19.568 162.3 19.168V18.528H165.612V13.056H164.524V17.456ZM173.052 18.544C172.7 20.224 172.092 21.728 171.324 22.944C170.556 21.68 170.012 20.176 169.612 18.544H173.052ZM173.628 17.408L173.436 17.456H168.348V14.656H174.268V13.568H167.228V19.328C167.228 21.632 167.1 24.56 165.98 26.64C166.284 26.784 166.7 27.088 166.924 27.296C168.172 25.056 168.348 21.92 168.348 19.328V18.544H168.604C169.052 20.608 169.692 22.432 170.636 23.92C169.772 24.976 168.78 25.776 167.708 26.288C167.948 26.512 168.284 26.96 168.444 27.264C169.516 26.688 170.476 25.904 171.324 24.896C172.092 25.872 173.02 26.656 174.14 27.2C174.316 26.896 174.7 26.448 174.956 26.208C173.788 25.712 172.828 24.944 172.028 23.952C173.132 22.32 173.948 20.224 174.348 17.648L173.628 17.408Z" fill="white"/>
</svg>
