<svg width="195" height="39" viewBox="0 0 195 39" fill="none" xmlns="http://www.w3.org/2000/svg">
<path d="M187.075 19.8901L181.433 25.5325L184.775 28.8751L194.025 19.625L184.931 10.5303L181.588 13.8728L187.075 19.3598L187.34 19.625L187.075 19.8901Z" fill="white" stroke="#00FF63" stroke-width="0.75"/>
<path d="M158.173 19.8901L152.53 25.5325L155.873 28.8751L165.123 19.625L156.028 10.5303L152.686 13.8728L158.173 19.3598L158.438 19.625L158.173 19.8901Z" fill="white" stroke="#00FF63" stroke-width="0.75"/>
<path d="M172.621 19.8902L166.975 25.5326L170.317 28.8751L179.567 19.625L170.473 10.5303L167.13 13.8727L172.621 19.3597L172.887 19.625L172.621 19.8902Z" fill="white" stroke="#00FF63" stroke-width="0.75"/>
<rect width="140" height="39" fill="#00FF63"/>
<path d="M26.848 16.624H24.784V14.384H26.848V16.624ZM24.784 23.536V20.912H26.848V23.216L24.784 23.536ZM26.848 19.92H24.784V17.632H26.848V19.92ZM28.976 14.384V13.296H22.832V14.384H23.728V23.696L22.816 23.824L23.056 24.944C24.144 24.752 25.488 24.512 26.848 24.272V27.232H27.936V14.384H28.976ZM35.92 20.016L35.728 20.08H29.456V21.136H35.088C34.384 22.208 33.36 23.456 32.496 24.288C32.016 23.84 31.504 23.392 31.088 23.024L30.288 23.68C31.504 24.768 33.152 26.352 33.952 27.264L34.832 26.496C34.448 26.096 33.904 25.568 33.328 25.04C34.448 23.856 35.888 22.048 36.688 20.544L35.92 20.016ZM32.464 12.64C31.648 14.592 30.048 16.768 28.208 18.176C28.464 18.368 28.848 18.752 29.04 18.976C29.568 18.544 30.064 18.048 30.56 17.52V18.496H35.104V17.456H30.624C31.44 16.544 32.176 15.52 32.768 14.48C33.84 16.176 35.376 17.888 36.72 18.864C36.896 18.56 37.248 18.144 37.52 17.936C36.048 17.024 34.304 15.216 33.264 13.536C33.36 13.36 33.44 13.168 33.52 13.008L32.464 12.64ZM53.232 20.832H44.848V21.872H53.232V20.832ZM47.616 22.432C48.288 23.104 49.04 24.144 49.36 24.832L50.208 24.352C49.904 23.712 49.136 22.72 48.4 22.048L47.616 22.432ZM42.352 21.088C41.504 21.264 40.096 21.408 38.96 21.472C39.056 21.696 39.168 21.984 39.216 22.176C39.6 22.176 40.032 22.16 40.464 22.128V23.296H39.216V24.112H40.464V25.36C39.84 25.44 39.264 25.504 38.768 25.552L38.896 26.464C40.032 26.32 41.408 26.112 42.8 25.92L42.784 25.072C42.288 25.136 41.824 25.2 41.376 25.264V24.112H42.528V23.296H41.376V22.048C41.904 21.984 42.4 21.904 42.832 21.824L42.352 21.088ZM43.136 15.488H40.848V14.288H43.136V15.488ZM40.848 18.272H43.136V19.44C42.336 19.488 41.568 19.552 40.848 19.6V18.272ZM43.136 17.456H40.848V16.288H43.136V17.456ZM49.616 18.992H48.336V17.04H49.616V18.992ZM50.384 17.04H51.728V18.992H50.384V17.04ZM47.568 18.992H46.32V17.04H47.568V18.992ZM45.072 14.288V14.976H48.24C48.176 15.392 48.112 15.776 48.048 16.128H45.408V19.888H52.688V16.128H49.056C49.12 15.776 49.2 15.392 49.264 14.976H53.008V14.016H49.424C49.488 13.584 49.552 13.136 49.616 12.736L48.576 12.656C48.528 13.072 48.464 13.552 48.4 14.016H45.12L45.136 13.296H38.8V14.288H39.776V19.664L38.752 19.728L38.88 20.704C40.08 20.624 41.6 20.496 43.136 20.352V27.232H44.24V14.288H45.072ZM45.184 26.496C45.728 25.696 46.192 24.464 46.48 23.52L45.648 23.184C45.392 24.064 44.912 25.28 44.368 25.984L45.184 26.496ZM48.416 26.032C47.904 26.032 47.824 25.984 47.824 25.648V23.232H46.8V25.664C46.8 26.688 47.104 26.96 48.304 26.96H50.288C51.232 26.96 51.536 26.576 51.648 24.96C51.36 24.896 50.944 24.752 50.72 24.576C50.672 25.872 50.592 26.032 50.16 26.032H48.416ZM50.784 23.232C51.6 24.144 52.304 25.408 52.544 26.288L53.456 25.872C53.184 25.008 52.448 23.76 51.616 22.848L50.784 23.232ZM68.288 14.064H62.912C62.768 13.568 62.464 12.944 62.128 12.496L60.96 12.72C61.2 13.12 61.424 13.616 61.584 14.064H55.84V15.136H68.288V14.064ZM65.808 21.28V22.944H58.288V21.28H65.808ZM58.288 25.632V23.888H65.808V25.632H58.288ZM57.12 27.248H58.288V26.656H65.808V27.216H67.024V20.256H57.12V27.248ZM65.056 17.792C65.424 17.12 65.856 16.256 66.208 15.488L64.928 15.184C64.672 15.936 64.192 17.056 63.792 17.792H59.648L60.16 17.664C60.032 16.992 59.6 15.984 59.12 15.248L58 15.504C58.4 16.192 58.768 17.12 58.912 17.792H54.928V18.88H69.072V17.792H65.056ZM85.104 20.48C84.96 19.808 84.64 18.8 84.368 18L83.568 18.24C83.664 18.56 83.776 18.912 83.888 19.28L81.984 19.488C83.04 18.272 84.096 16.736 84.96 15.2L84.064 14.704C83.824 15.2 83.568 15.696 83.28 16.176L81.696 16.32C82.288 15.408 82.896 14.192 83.376 13.024L82.384 12.704C81.984 14.032 81.216 15.472 80.96 15.824C80.736 16.208 80.544 16.464 80.336 16.496C80.448 16.768 80.592 17.248 80.64 17.456C80.848 17.36 81.184 17.28 82.72 17.072C82.176 17.872 81.696 18.512 81.488 18.768C81.104 19.248 80.784 19.584 80.496 19.648C80.624 19.888 80.784 20.4 80.832 20.592C81.072 20.48 81.488 20.4 84.096 20.064C84.16 20.32 84.224 20.544 84.256 20.752L85.104 20.48ZM79.04 16.704H76.96V15.056H79.04V16.704ZM79.04 19.248H76.96V17.584H79.04V19.248ZM80.096 14.128H78.176C78.336 13.712 78.512 13.2 78.656 12.752L77.552 12.544C77.504 12.992 77.376 13.616 77.232 14.128H75.92V20.176H80.096V14.128ZM75.632 20.384C75.536 19.68 75.296 18.576 75.04 17.744L74.224 17.936C74.32 18.272 74.416 18.672 74.496 19.056L72.544 19.296C73.6 18.08 74.64 16.544 75.504 15.024L74.64 14.544C74.384 15.056 74.096 15.584 73.808 16.08L72.432 16.224C73.024 15.328 73.616 14.176 74.064 13.072L73.12 12.72C72.72 14 71.968 15.376 71.728 15.712C71.52 16.08 71.312 16.304 71.104 16.352C71.216 16.608 71.376 17.104 71.424 17.296C71.616 17.184 71.92 17.136 73.264 16.944C72.736 17.744 72.272 18.368 72.064 18.608C71.664 19.104 71.376 19.44 71.088 19.488C71.2 19.744 71.36 20.224 71.408 20.432C71.632 20.304 72.048 20.208 74.656 19.824C74.72 20.112 74.736 20.384 74.768 20.608L75.632 20.384ZM75.568 23.088C74.512 24.224 72.416 25.264 70.576 25.712C70.832 25.952 71.184 26.384 71.36 26.704C73.248 26.096 75.392 24.88 76.56 23.488L75.568 23.088ZM79.616 23.744C81.28 24.608 83.328 25.92 84.352 26.8L85.088 25.904C84.032 25.056 81.952 23.792 80.336 22.96L79.616 23.744ZM78.592 21.552V20.576H77.408V21.552H70.896V22.56H77.408V27.2H78.592V22.56H85.104V21.552H78.592ZM90.592 12.672C89.696 15.104 88.224 17.488 86.64 19.024C86.864 19.28 87.216 19.936 87.328 20.208C87.872 19.648 88.416 19.008 88.912 18.304V27.2H90.096V16.464C90.72 15.36 91.296 14.192 91.728 13.04L90.592 12.672ZM101.328 16.416V15.28H94.672C94.992 14.576 95.296 13.856 95.552 13.12L94.416 12.816C93.632 15.152 92.336 17.456 90.896 18.944C91.168 19.136 91.632 19.536 91.824 19.744C92.624 18.848 93.408 17.696 94.096 16.416H95.2V27.216H96.4V23.344H101.184V22.224H96.4V19.808H100.96V18.704H96.4V16.416H101.328ZM113.2 17.456H106.848V14.432H113.2V17.456ZM114.4 13.296H105.696V18.592H114.4V13.296ZM107.856 21.424V25.216H104.512V21.424H107.856ZM103.376 27.232H104.512V26.368H107.856V27.088H109.024V20.272H103.376V27.232ZM111.92 25.216V21.424H115.552V25.216H111.92ZM110.768 20.272V27.232H111.92V26.368H115.552V27.12H116.72V20.272H110.768Z" fill="#2C2F31"/>
</svg>
