<svg width="163" height="40" viewBox="0 0 163 40" fill="none" xmlns="http://www.w3.org/2000/svg">
<rect width="163" height="40" fill="#00FF63"/>
<path d="M15.638 27H20.39C23.324 27 25.556 25.758 25.556 23.076C25.556 21.276 24.494 20.268 23.054 19.926V19.836C24.188 19.44 24.872 18.18 24.872 16.956C24.872 14.472 22.784 13.68 20.048 13.68H15.638V27ZM18.302 19.098V15.714H19.886C21.488 15.714 22.28 16.182 22.28 17.352C22.28 18.414 21.542 19.098 19.85 19.098H18.302ZM18.302 24.948V21.078H20.156C21.992 21.078 22.964 21.618 22.964 22.914C22.964 24.3 21.974 24.948 20.156 24.948H18.302ZM33.002 27.252C36.26 27.252 38.15 25.434 38.15 21.006V13.68H35.594V21.24C35.594 24.012 34.586 24.948 33.002 24.948C31.436 24.948 30.482 24.012 30.482 21.24V13.68H27.818V21.006C27.818 25.434 29.762 27.252 33.002 27.252ZM43.2708 27H45.9348V22.122L49.9488 13.68H47.1768L45.8448 16.92C45.4668 17.91 45.0708 18.846 44.6568 19.872H44.5848C44.1708 18.846 43.8108 17.91 43.4328 16.92L42.1008 13.68H39.2748L43.2708 22.122V27ZM58.2039 27H60.8679V15.894H64.6479V13.68H54.4599V15.894H58.2039V27ZM66.8079 27H69.4719V13.68H66.8079V27ZM78.1853 27.252C79.9133 27.252 81.3353 26.568 82.4333 25.29L81.0293 23.634C80.3093 24.408 79.4093 24.948 78.2753 24.948C76.1693 24.948 74.8013 23.202 74.8013 20.304C74.8013 17.442 76.3133 15.714 78.3293 15.714C79.3373 15.714 80.1113 16.182 80.7773 16.83L82.1813 15.138C81.3173 14.238 79.9673 13.428 78.2753 13.428C74.9093 13.428 72.0833 16.002 72.0833 20.394C72.0833 24.84 74.8193 27.252 78.1853 27.252ZM84.5794 27H87.2434V23.256L88.9894 21.024L92.4274 27H95.3614L90.5734 18.918L94.6414 13.68H91.7074L87.2974 19.458H87.2434V13.68H84.5794V27ZM96.9193 27H105.289V24.768H99.5833V21.204H104.263V18.972H99.5833V15.894H105.091V13.68H96.9193V27ZM110.639 27H113.303V15.894H117.083V13.68H106.895V15.894H110.639V27Z" fill="#2C2F31"/>
<path d="M130.885 26.1885L128.818 24.1223L132.584 20.357L132.937 20.0034L132.584 19.6499L128.707 15.7732L130.773 13.7071L137.07 20.0034L130.885 26.1885Z" stroke="#2C2F31"/>
<path d="M142.108 26.1885L140.042 24.1223L143.807 20.357L144.161 20.0034L143.807 19.6499L139.93 15.7732L141.997 13.7071L148.293 20.0034L142.108 26.1885Z" stroke="#2C2F31"/>
</svg>
