<svg width="194" height="39" viewBox="0 0 194 39" fill="none" xmlns="http://www.w3.org/2000/svg">
<path d="M186.925 19.5153L192.567 13.8729L189.225 10.5303L179.975 19.7804L189.069 28.8751L192.412 25.5326L186.925 20.0456L186.66 19.7804L186.925 19.5153Z" stroke="#00FF63" stroke-width="0.75"/>
<path d="M172.476 19.5152L178.123 13.8727L174.78 10.5303L165.53 19.7804L174.625 28.8751L177.967 25.5327L172.476 20.0457L172.211 19.7804L172.476 19.5152Z" stroke="#00FF63" stroke-width="0.75"/>
<path d="M6.17275 19.8901L0.53033 25.5325L3.87285 28.8751L13.123 19.625L4.02832 10.5303L0.685793 13.8728L6.17275 19.3598L6.43792 19.625L6.17275 19.8901Z" stroke="#00FF63" stroke-width="0.75"/>
<path d="M20.6214 19.8902L14.9746 25.5326L18.3171 28.8751L27.5672 19.625L18.4725 10.5303L15.1301 13.8727L20.6214 19.3597L20.8869 19.625L20.6214 19.8902Z" stroke="#00FF63" stroke-width="0.75"/>
<rect x="39.5" y="0.5" width="115" height="38" stroke="#00FF63"/>
<path d="M73.348 15.088C73.188 14.4 72.836 13.36 72.516 12.544L71.364 12.848C71.668 13.664 72.004 14.752 72.132 15.44L73.348 15.088ZM78.948 15.632H66.1V16.8H78.948V15.632ZM71.076 24.368C70.788 22.528 70.116 19.808 69.492 17.664L68.308 17.952C68.916 20.048 69.588 22.848 69.812 24.672L71.076 24.368ZM74.436 25.36C75.252 23.344 76.212 20.304 76.868 17.92L75.524 17.664C75.012 20 74.02 23.312 73.156 25.36H65.412V26.544H79.588V25.36H74.436ZM87.204 14.528V16.608H83.46V14.528H87.204ZM83.46 19.888V17.68H87.204V19.888H83.46ZM85.572 22.256C85.86 22.752 86.196 23.328 86.516 23.904L83.46 24.896V20.96H88.372V13.456H82.276V24.528C82.276 25.136 81.876 25.408 81.604 25.536C81.796 25.84 82.02 26.416 82.1 26.752C82.436 26.496 82.964 26.272 86.996 24.848C87.3 25.44 87.556 26.016 87.732 26.448L88.804 25.856C88.356 24.8 87.396 23.072 86.58 21.776L85.572 22.256ZM95.076 13.552H89.844V27.232H91.012V14.672H93.908V22.704C93.908 22.928 93.828 22.992 93.604 22.992C93.396 23.008 92.66 23.008 91.828 22.976C92.004 23.312 92.132 23.792 92.18 24.112C93.348 24.128 94.068 24.112 94.5 23.904C94.932 23.712 95.076 23.376 95.076 22.704V13.552ZM102.372 19.536C101.764 19.712 101.172 19.904 100.58 20.08V16.928H102.356V15.824H100.58V12.624H99.428V15.824H97.22V16.928H99.428V20.384C98.516 20.656 97.684 20.896 97.012 21.072L97.332 22.224L99.428 21.568V25.856C99.428 26.08 99.348 26.16 99.124 26.16C98.932 26.16 98.26 26.16 97.54 26.144C97.7 26.464 97.86 26.928 97.908 27.232C98.964 27.232 99.604 27.2 100.004 27.024C100.42 26.832 100.58 26.512 100.58 25.856V21.216L102.532 20.608L102.372 19.536ZM107.7 24.912V21.648H110.34V24.912H107.7ZM104.052 21.648H106.564V24.912H104.052V21.648ZM106.564 17.408V20.528H104.052V17.408H106.564ZM110.34 17.408V20.528H107.7V17.408H110.34ZM107.7 16.272V12.64H106.564V16.272H102.916V27.184H104.052V26.048H110.34V27.072H111.508V16.272H107.7ZM125.524 14.176C125.044 14.72 124.452 15.152 123.748 15.536C123.348 15.072 122.82 14.592 122.276 14.176H125.524ZM126.356 13.392L126.148 13.44H123.172C123.476 13.232 123.748 13.024 123.988 12.8L122.948 12.576C122.1 13.296 120.596 14 118.644 14.512C118.852 14.656 119.156 14.976 119.3 15.2C120.084 14.96 120.772 14.704 121.428 14.416C121.988 14.848 122.564 15.408 122.98 15.888C121.62 16.448 120.068 16.784 118.484 16.96C118.676 17.152 118.884 17.472 118.98 17.712C122.292 17.248 125.556 16.192 126.98 13.744L126.356 13.392ZM121.748 15.328C120.676 15.392 119.748 15.456 118.964 15.504L119.092 16.208C119.908 16.144 120.788 16.08 121.764 15.984L121.748 15.328ZM115.572 18.48H116.852V21.664H117.956V12.656H116.852V15.328H115.124V13.008H114.1V16.288H116.852V17.504H113.348V18.48H114.5V18.624C114.5 19.296 114.308 20.48 113.3 21.264C113.556 21.392 114.004 21.632 114.212 21.792C115.316 20.896 115.572 19.472 115.572 18.656V18.48ZM127.78 23.776V22.768H124.788L125.124 22.416C124.82 22.096 124.196 21.632 123.7 21.296C124.26 21.28 124.676 21.248 124.948 21.152C125.38 20.992 125.492 20.752 125.492 20.192V18.576H127.508V17.728H125.492V16.56H124.356V17.728H118.58V18.576H120.484L119.812 19.104C120.452 19.52 121.204 20.16 121.54 20.624L122.324 19.984C121.972 19.536 121.268 18.96 120.628 18.576H124.356V20.16C124.356 20.336 124.308 20.384 124.1 20.4C123.924 20.4 123.284 20.4 122.548 20.368C122.692 20.656 122.836 21.008 122.884 21.296H123.444L122.964 21.728C123.38 22.032 123.892 22.432 124.244 22.768H120.98C120.996 22.56 121.012 22.384 121.012 22.192V21.184H119.844V22.16C119.844 22.352 119.828 22.544 119.78 22.768H113.284V23.776H119.3C118.532 24.72 116.852 25.696 113.156 26.304C113.412 26.56 113.7 26.992 113.828 27.264C118.34 26.496 120.068 25.104 120.692 23.776H121.444L120.948 24.496C123.028 25.296 125.86 26.496 127.268 27.216L127.844 26.272C126.404 25.584 123.716 24.512 121.716 23.776H127.78Z" fill="white"/>
</svg>
