<svg width="195" height="39" viewBox="0 0 195 39" fill="none" xmlns="http://www.w3.org/2000/svg">
<path d="M187.075 19.8901L181.433 25.5325L184.775 28.8751L194.025 19.625L184.931 10.5303L181.588 13.8728L187.075 19.3598L187.34 19.625L187.075 19.8901Z" fill="white" stroke="#00FF63" stroke-width="0.75"/>
<path d="M158.173 19.8901L152.53 25.5325L155.873 28.8751L165.123 19.625L156.028 10.5303L152.686 13.8728L158.173 19.3598L158.438 19.625L158.173 19.8901Z" fill="white" stroke="#00FF63" stroke-width="0.75"/>
<path d="M172.621 19.8902L166.975 25.5326L170.317 28.8751L179.567 19.625L170.473 10.5303L167.13 13.8727L172.621 19.3597L172.887 19.625L172.621 19.8902Z" fill="white" stroke="#00FF63" stroke-width="0.75"/>
<rect width="140" height="39" fill="#00FF63"/>
<path d="M34.752 17.824C34.384 18.928 33.824 19.904 33.152 20.768C32.336 20.048 31.488 19.344 30.72 18.736L29.92 19.408C30.72 20.064 31.6 20.816 32.448 21.584C31.408 22.688 30.176 23.52 28.88 24C29.12 24.24 29.44 24.688 29.584 24.992C30.944 24.416 32.224 23.536 33.312 22.384C34.32 23.328 35.2 24.256 35.792 24.96L36.672 24.16C36.032 23.424 35.088 22.496 34.032 21.536C35.008 20.288 35.76 18.784 36.208 16.976L35.456 16.704L35.232 16.752H29.312V14.56H36.016V13.472H28.16V17.152C28.16 19.232 28.048 22.24 26.864 24.4C27.136 24.512 27.664 24.816 27.872 24.992C28.992 22.928 29.264 20.032 29.312 17.824H34.752ZM25.744 15.376C25.536 14.72 25.168 13.664 24.88 12.864L23.824 13.152C24.064 13.984 24.448 15.056 24.624 15.728L25.744 15.376ZM26.48 19.984L26.288 20.032H24.944C25.408 18.944 25.92 17.616 26.32 16.48H22.736V17.552H24.848C24.416 18.784 23.872 20.128 23.44 21.072H25.664C25.376 22.192 24.912 23.424 24.416 24.304C23.856 24.544 23.2 25.28 22.544 26.208L23.36 27.296C23.84 26.272 24.384 25.28 24.736 25.28C25.104 25.28 25.68 25.824 26.32 26.208C27.504 26.912 28.88 27.088 30.976 27.088C32.848 27.088 35.856 26.992 37.04 26.912C37.056 26.56 37.264 26 37.392 25.68C35.632 25.872 33.04 26.016 31.008 26.016C29.12 26.016 27.696 25.904 26.576 25.216C26.08 24.912 25.728 24.656 25.44 24.464C26.096 23.28 26.64 21.696 27.024 20.224L26.48 19.984ZM47.888 21.664H44.016V18.016H47.888V21.664ZM42.88 16.944V22.72H49.056V16.944H42.88ZM40.576 25.232V14.464H51.376V25.232H40.576ZM39.376 13.28V27.216H40.576V26.352H51.376V27.216H52.64V13.28H39.376ZM58.608 14.544C58.304 14 57.696 13.152 57.168 12.528L56.288 13.04C56.784 13.68 57.392 14.592 57.664 15.168L58.608 14.544ZM58.672 22.624V25.264H56.208V22.624H58.672ZM59.632 21.632H55.296V27.008H56.208V26.256H59.632V21.632ZM55.296 20.448H59.52V19.504H55.296V20.448ZM59.52 17.424H55.296V18.368H59.52V17.424ZM54.72 16.304H60.016V15.328H54.72V16.304ZM65.168 23.68V22.496H67.216V23.68H65.168ZM62.112 22.496H64.064V23.68H62.112V22.496ZM64.064 20.512V21.664H62.112V20.512H64.064ZM67.216 20.512V21.664H65.168V20.512H67.216ZM63.44 16.704H65.84V17.808H63.44V16.704ZM63.44 14.864H65.84V15.824H63.44V14.864ZM69.312 23.68H68.352V19.616H65.168V18.704H69.264V17.808H66.944V16.704H68.64V15.824H66.944V14.864H68.912V13.952H66.944V12.64H65.84V13.952H63.44V12.64H62.336V13.952H60.384V14.864H62.336V15.824H60.816V16.704H62.336V17.808H60.032V18.704H64.064V19.616H60.992V23.68H60.048V24.592H60.992V27.248H62.112V24.592H67.216V25.984C67.216 26.192 67.152 26.24 66.912 26.256C66.72 26.272 65.936 26.272 65.104 26.24C65.248 26.528 65.392 26.928 65.424 27.216C66.624 27.216 67.36 27.216 67.792 27.04C68.224 26.864 68.352 26.576 68.352 25.984V24.592H69.312V23.68ZM75.2 21.904V24.64H72.416V21.904H75.2ZM75.056 16.032V18.384H72.416V16.032H75.056ZM72.416 19.392H76.112V15.008H73.76C74.048 14.352 74.384 13.52 74.64 12.8L73.36 12.608C73.216 13.312 72.944 14.272 72.672 15.008H71.328V26.736H72.416V25.664H76.272V20.88H72.416V19.392ZM85.232 14.528V13.456H76.752V14.528H80.4V16.496H77.344V24.832H78.432V17.584H80.4V27.2H81.52V17.584H83.648V23.568C83.648 23.728 83.6 23.792 83.424 23.792C83.264 23.792 82.768 23.792 82.192 23.776C82.32 24.064 82.48 24.512 82.512 24.816C83.376 24.816 83.92 24.8 84.288 24.624C84.656 24.448 84.752 24.112 84.752 23.584V16.496H81.52V14.528H85.232ZM90.48 20.928C90.48 22.736 90.16 24.832 87.184 26.384C87.488 26.576 87.952 26.976 88.144 27.248C91.344 25.52 91.696 23.072 91.696 20.944V18.896H90.48V20.928ZM96.432 27.264H97.648V18.88H96.432V27.264ZM93.984 12.528C92.544 15.008 89.536 17.408 86.544 18.4C86.816 18.704 87.104 19.184 87.264 19.52C89.776 18.528 92.304 16.64 94 14.48C95.648 16.608 98.176 18.448 100.72 19.328C100.928 18.992 101.28 18.48 101.568 18.24C98.88 17.456 96.128 15.552 94.672 13.584C94.752 13.44 94.848 13.312 94.928 13.168L93.984 12.528ZM103.392 22.848C103.232 24.128 102.992 25.536 102.624 26.528C102.896 26.608 103.376 26.768 103.6 26.896C103.92 25.904 104.24 24.384 104.4 23.008L103.392 22.848ZM105.2 22.96C105.376 24.048 105.552 25.488 105.6 26.432L106.576 26.224C106.528 25.296 106.336 23.888 106.128 22.8L105.2 22.96ZM106.896 22.672C107.232 23.6 107.6 24.816 107.728 25.6L108.672 25.28C108.528 24.496 108.144 23.312 107.792 22.384L106.896 22.672ZM106.784 18.896C106.96 19.36 107.152 19.888 107.312 20.416L104.576 20.768C105.888 19.328 107.184 17.488 108.272 15.68L107.232 15.04C106.864 15.744 106.448 16.464 106.016 17.12L104.256 17.28C105.168 16.064 106.08 14.528 106.8 13.024L105.712 12.544C105.04 14.288 103.872 16.128 103.52 16.592C103.184 17.072 102.88 17.408 102.624 17.472C102.752 17.76 102.928 18.32 102.992 18.56C103.216 18.448 103.568 18.368 105.296 18.176C104.704 19.024 104.176 19.696 103.92 19.968C103.44 20.544 103.056 20.96 102.72 21.024C102.848 21.344 103.024 21.904 103.088 22.16C103.408 21.984 103.92 21.872 107.568 21.344C107.664 21.68 107.744 22 107.792 22.256L108.784 21.936C108.608 21.088 108.144 19.68 107.696 18.608L106.784 18.896ZM115.12 21.872V25.456H110.608V21.872H115.12ZM109.44 27.232H110.608V26.512H115.12V27.168H116.32V20.8H109.44V27.232ZM109.04 13.44V14.496H111.76C111.52 16.464 110.896 18.224 108.88 19.184C109.136 19.392 109.472 19.792 109.632 20.064C111.904 18.88 112.624 16.864 112.912 14.496H115.6C115.472 17.088 115.312 18.112 115.072 18.368C114.944 18.512 114.8 18.544 114.56 18.544C114.304 18.544 113.648 18.528 112.944 18.464C113.136 18.768 113.248 19.232 113.28 19.568C113.984 19.6 114.672 19.616 115.056 19.568C115.488 19.52 115.76 19.424 116.016 19.104C116.416 18.672 116.576 17.36 116.752 13.952C116.768 13.776 116.768 13.44 116.768 13.44H109.04Z" fill="#2C2F31"/>
</svg>
