<svg width="30" height="30" viewBox="0 0 30 30" fill="none" xmlns="http://www.w3.org/2000/svg">
<path d="M21.3928 8.35749C19.6543 6.94493 17.3724 6.18433 15.1993 6.18433C12.9175 6.18433 10.7443 6.94493 9.00576 8.35749C7.26723 9.66139 6.28931 11.5086 6.28931 13.5731C6.28931 15.4203 7.15857 17.2675 8.57113 18.5714C10.0923 19.8753 11.9395 20.6359 13.8954 20.7445V23.7869C13.8954 24.0043 14.1127 24.1129 14.2214 24.1129C14.33 24.1129 14.33 24.1129 14.4387 24.0043L19.9802 19.7666C21.0668 19.006 22.0447 18.0281 22.8053 17.0501C23.566 16.0722 24.0006 14.877 24.0006 13.5731C24.0006 11.5086 23.0227 9.66139 21.3928 8.35749Z" fill="white"/>
<path d="M17.5892 11.4C17.5892 11.074 17.3719 10.8567 17.1546 10.8567C16.9373 10.8567 16.72 11.074 16.72 11.4C16.72 12.0519 16.72 12.5952 16.72 13.2472C16.72 13.3558 16.72 13.4645 16.72 13.5731C16.6113 13.4645 16.6113 13.3558 16.5026 13.3558C15.9594 12.5952 15.4161 11.9433 14.8728 11.1827C14.7641 10.9653 14.5468 10.8567 14.3295 10.9653C14.1122 10.9653 13.8949 11.1827 14.0035 11.4C14.0035 12.5952 14.0035 13.6818 14.0035 14.877C14.0035 15.0944 14.1122 15.203 14.2208 15.3117C14.5468 15.4203 14.8728 15.203 14.8728 14.7684C14.8728 14.2251 14.8728 13.6818 14.8728 13.0299V12.8125C14.9814 12.8125 14.9814 12.9212 15.0901 13.0299C15.6334 13.7905 16.1767 14.4424 16.72 15.203C16.8286 15.4203 17.0459 15.529 17.2633 15.4203C17.4806 15.3117 17.5892 15.0944 17.5892 14.877C17.5892 13.6818 17.5892 12.5952 17.5892 11.4Z" fill="#202020"/>
<path d="M19.3285 11.8346C19.4372 11.8346 19.5458 11.8346 19.6545 11.8346C19.9804 11.8346 20.3064 11.8346 20.6324 11.8346C20.741 11.8346 20.8497 11.8346 20.9584 11.726C21.1757 11.6173 21.2843 11.4 21.1757 11.1827C21.1757 10.9653 20.9584 10.8567 20.741 10.8567C20.1978 10.8567 19.5458 10.8567 19.0025 10.8567C18.5679 10.8567 18.4592 11.074 18.4592 11.4C18.4592 12.4866 18.4592 13.5731 18.4592 14.6597C18.4592 15.0944 18.6765 15.203 19.0025 15.203C19.5458 15.203 20.0891 15.203 20.6324 15.203C20.741 15.203 20.8497 15.203 20.8497 15.203C21.067 15.0944 21.1757 14.877 21.1757 14.6597C21.1757 14.5511 21.067 14.4424 20.9584 14.3337C20.8497 14.3337 20.741 14.3337 20.6324 14.3337C20.1978 14.3337 19.7631 14.3337 19.4372 14.3337V13.6818C19.5458 13.6818 19.5458 13.6818 19.6545 13.6818C20.0891 13.6818 20.4151 13.6818 20.8497 13.6818C21.1757 13.6818 21.393 13.4645 21.393 13.2472C21.393 13.0299 21.1757 12.8125 20.8497 12.8125C20.6324 12.8125 20.4151 12.8125 20.1978 12.8125C19.2198 12.7039 19.2198 12.7039 19.3285 11.8346C19.3285 11.8346 19.3285 11.9433 19.3285 11.8346Z" fill="#202020"/>
<path d="M11.3956 14.551C11.2869 14.551 11.1783 14.551 11.1783 14.551H9.98305V14.1164C9.98305 13.2472 9.98305 12.3779 9.98305 11.5086C9.98305 11.1826 9.76573 10.9653 9.54842 10.9653C9.3311 10.9653 9.00513 11.1826 9.00513 11.5086C9.00513 12.5952 9.00513 13.7904 9.00513 14.877C9.00513 15.0943 9.11379 15.4203 9.43976 15.4203H9.54842C9.87439 15.4203 11.0696 15.4203 11.3956 15.4203C11.6129 15.4203 11.8302 15.203 11.8302 14.9857C11.8302 14.7684 11.6129 14.551 11.3956 14.551Z" fill="#202020"/>
<path d="M13.2435 11.4C13.2435 11.074 13.1349 10.9653 12.8089 10.9653C12.4829 10.9653 12.3743 11.074 12.3743 11.4C12.3743 12.5952 12.3743 13.7904 12.3743 14.9857C12.3743 15.3117 12.4829 15.4203 12.8089 15.4203C13.1349 15.4203 13.2435 15.3117 13.2435 14.9857C13.2435 14.4424 13.2435 13.7904 13.2435 13.2472C13.2435 12.7039 13.2435 11.9433 13.2435 11.4Z" fill="#202020"/>
</svg>
