<svg width="351" height="102" viewBox="0 0 351 102" fill="none" xmlns="http://www.w3.org/2000/svg">
<path d="M285.2 20.3101H12.18V67.5301H285.2V20.3101Z" fill="#00FF63"/>
<path d="M284.76 20.79V67.05H12.66V20.79H284.76ZM285.76 19.79H11.76V67.97H285.76V19.83V19.79Z" fill="black"/>
<path d="M300.76 19.61H284.84V67.04H300.76V19.61Z" fill="black"/>
<path d="M300.17 20.21V66.47H285.43V20.21H300.17ZM301.35 19.03H284.26V67.64H301.35V19.03Z" fill="#00FF63"/>
<path d="M280.66 43.7199L294.23 30.1499L307.8 43.7199L314.25 37.2799L300.68 23.6999L314.25 10.1299L307.8 3.67993L294.23 17.2599L280.66 3.67993L274.21 10.1299L287.79 23.6999L274.21 37.2699L280.66 43.7199Z" fill="#00FF63" stroke="black" stroke-width="1.1" stroke-miterlimit="10"/>
<path d="M277.97 41.03L291.54 27.46L305.12 41.03L311.56 34.59L297.99 21.02L311.56 7.44L305.12 1L291.54 14.57L277.97 1L271.53 7.44L285.1 21.02L271.53 34.59L277.97 41.03Z" fill="#00FF63" stroke="black" stroke-width="1.1" stroke-miterlimit="10"/>
<path d="M12.66 67.23H1V78.89H12.66V67.23Z" fill="black" stroke="black" stroke-width="0.59" stroke-miterlimit="10"/>
<path d="M24.32 55.5699H12.66V67.2299H24.32V55.5699Z" fill="black" stroke="black" stroke-width="0.59" stroke-miterlimit="10"/>
<path d="M12.66 43.9199H1V55.5799H12.66V43.9199Z" fill="black" stroke="black" stroke-width="0.59" stroke-miterlimit="10"/>
<path d="M24.32 32.26H12.66V43.92H24.32V32.26Z" fill="black" stroke="black" stroke-width="0.59" stroke-miterlimit="10"/>
<path d="M12.66 20.61H1V32.27H12.66V20.61Z" fill="black" stroke="black" stroke-width="0.59" stroke-miterlimit="10"/>
<path d="M24.32 8.94995H12.66V20.61H24.32V8.94995Z" fill="black" stroke="black" stroke-width="0.59" stroke-miterlimit="10"/>
<path d="M349.7 66.37H11.98V101.37H349.7V66.37Z" fill="black"/>
<path d="M348.72 67.35V100H12.36V67.35H348.72ZM350.08 66H11V101.36H350.08V66Z" fill="#00FF63"/>
<path d="M35.02 57.46H39.6V55.86H37.22V39.5H39.6V37.94H35.02V57.46ZM47.5786 42.74C47.5386 44.54 47.2386 46.74 46.1586 48.86C45.5386 48.32 44.8986 47.78 44.3186 47.28C44.6386 45.96 44.9786 44.44 45.2786 42.9L47.5786 42.74ZM49.9386 39.52H47.5986V40.46L45.6786 40.56C45.8586 39.46 46.0186 38.34 46.1386 37.32L43.5986 37.18C43.5186 38.28 43.3786 39.48 43.1986 40.68C42.4386 40.72 41.7386 40.76 41.0986 40.78L41.3386 43.14L42.7986 43.04C42.4586 44.86 42.0586 46.58 41.6586 47.9C42.6386 48.78 43.7786 49.78 44.8786 50.78C43.9786 51.92 42.7386 52.98 41.0986 53.88C41.6386 54.28 42.4386 55.14 42.7786 55.68C44.4386 54.72 45.6986 53.64 46.6586 52.48C47.5186 53.3 48.2586 54.08 48.7786 54.72L50.5586 52.92C49.9386 52.24 49.0386 51.38 48.0386 50.48C49.5586 47.76 49.8786 44.88 49.9386 42.58L50.6186 42.52L50.6386 40.3L49.9386 40.34V39.52ZM53.3786 51.46V41.36H56.5386V51.46H53.3786ZM51.1186 39.12V55.2H53.3786V53.72H56.5386V54.88H58.8986V39.12H51.1186ZM65.5386 37.04C64.5586 39.86 62.8386 42.66 61.0786 44.42C61.4986 45.02 62.1386 46.32 62.3586 46.9C62.8186 46.4 63.2986 45.84 63.7586 45.22V55.68H66.1386V41.42C66.7786 40.2 67.3186 38.98 67.7786 37.76L65.5386 37.04ZM72.2786 45.28V48.4H70.0586V45.28H72.2786ZM74.4986 50.46V43.22H67.8386V51.76H70.0586V50.46H74.4986ZM79.9186 38.78H67.5986V41.06H76.3186V52.88C76.3186 53.26 76.1986 53.38 75.7986 53.38C75.3986 53.38 73.9986 53.38 72.6986 53.32C73.0386 54.02 73.4186 55.06 73.4986 55.76C75.3586 55.76 76.7186 55.68 77.5586 55.32C78.4186 54.94 78.7186 54.3 78.7186 52.92V41.06H79.9186V38.78ZM99.6186 38.34H95.0186C94.8386 37.82 94.5386 37.24 94.2386 36.74L92.2586 37.34C92.4186 37.62 92.5586 37.98 92.6986 38.34H87.9786V40.04H99.6186V38.34ZM87.7786 40.4H84.4586L85.8786 39.82C85.6786 39.12 85.1786 37.98 84.6986 37.16L83.0186 37.76C83.4586 38.58 83.8786 39.66 84.0586 40.4H81.2186V42.26H87.7786V40.4ZM87.1386 43.16H82.0386V44.96H87.1386V43.16ZM82.0386 47.66H87.1386V45.88H82.0386V47.66ZM85.5586 50.46V52.82H83.4986V50.46H85.5586ZM87.2586 48.64H81.8386V55.48H83.4986V54.64H87.2586V48.64ZM92.6986 48.46H94.8186V49.1H92.6986V48.46ZM92.6986 46.38H94.8186V47.04H92.6986V46.38ZM90.3786 41.82H91.6586V42.86H90.3786V41.82ZM95.8986 41.82H97.2386V42.86H95.8986V41.82ZM98.4586 50.76C97.9786 51.1 97.2186 51.56 96.5186 51.92C96.1986 51.56 95.9186 51.16 95.6786 50.72H99.8586V49.1H96.9586V48.46H99.1786V47.04H96.9586V46.38H99.4186V44.96H96.9586V44.08H99.0386V40.58H94.1986V44.08H94.8186V44.96H92.6986V44.08H93.4386V40.58H88.6786V44.08H90.5986V44.96H88.3986V46.38H90.5986V47.04H88.6586V48.46H90.5986V49.1H87.7586V50.72H90.7586C89.7386 51.26 88.5386 51.68 87.3586 51.96C87.6786 52.28 88.2186 53.06 88.4386 53.44C89.0786 53.24 89.6986 52.98 90.3186 52.7C90.2386 53.56 89.7186 54.1 89.3786 54.38C89.6986 54.66 90.1786 55.36 90.3586 55.72C90.7186 55.5 91.3386 55.3 94.5386 54.68C94.4786 54.22 94.4386 53.46 94.4586 52.92L92.1386 53.3V51.72C92.6186 51.42 93.0786 51.08 93.4586 50.72H93.7186C94.6786 53.16 96.3386 54.88 98.9986 55.68C99.2386 55.18 99.7786 54.42 100.219 54C99.2586 53.78 98.4386 53.44 97.7186 52.98C98.3786 52.68 99.0786 52.32 99.6586 51.9L98.4586 50.76ZM105.339 37.14C104.339 39.98 102.599 42.82 100.799 44.62C101.199 45.2 101.859 46.5 102.079 47.1C102.519 46.62 102.979 46.08 103.419 45.48V55.7H105.699V41.94C106.439 40.62 107.079 39.22 107.599 37.84L105.339 37.14ZM109.039 45.96C108.579 48.18 107.739 50.44 106.599 51.84C107.179 52.14 108.179 52.74 108.639 53.12C109.759 51.5 110.779 48.98 111.359 46.44L109.039 45.96ZM117.359 42.84C117.259 43.72 117.139 44.56 117.039 45.18L119.059 45.52C119.339 44.36 119.679 42.5 119.919 40.88L118.239 40.56L117.859 40.64H110.979C111.339 39.66 111.659 38.68 111.919 37.66L109.599 37.14C108.919 39.88 107.719 42.64 106.199 44.34C106.739 44.7 107.699 45.48 108.119 45.9C108.779 45.06 109.439 44 109.999 42.84H112.319V53.04C112.319 53.3 112.219 53.38 111.959 53.38C111.679 53.38 110.839 53.38 109.999 53.36C110.359 54 110.719 55.06 110.819 55.76C112.099 55.76 113.059 55.66 113.759 55.28C114.479 54.88 114.679 54.22 114.679 53.08V42.84H117.359ZM115.399 46.48C116.359 48.54 117.199 51.28 117.419 53.06L119.699 52.28C119.419 50.48 118.559 47.82 117.519 45.76L115.399 46.48ZM124.239 51.58V47.66H127.419V51.58H124.239ZM127.419 45.6H124.239V42.36H127.419V45.6ZM133.759 40.14C134.059 39.3 134.339 38.46 134.539 37.6L132.279 37.08C131.699 39.42 130.739 41.84 129.579 43.52V40.28H126.479C126.819 39.42 127.179 38.42 127.519 37.42L124.919 37.06C124.839 38 124.599 39.28 124.339 40.28H122.079V55.14H124.239V53.68H129.579V44.34C130.119 44.7 130.799 45.16 131.119 45.46C131.739 44.6 132.359 43.5 132.879 42.3H137.159C136.939 49.36 136.679 52.36 136.099 53C135.839 53.26 135.619 53.34 135.219 53.34C134.699 53.34 133.519 53.34 132.239 53.22C132.659 53.88 132.979 54.88 133.019 55.54C134.199 55.58 135.399 55.6 136.159 55.5C136.959 55.36 137.519 55.14 138.079 54.4C138.899 53.34 139.119 50.16 139.379 41.22C139.399 40.94 139.399 40.14 139.399 40.14H133.759ZM136.079 49.26C135.459 48.1 134.139 46.2 133.139 44.82L131.279 45.88C132.259 47.34 133.499 49.3 134.059 50.5L136.079 49.26ZM154.759 48.56V49.88H146.459V48.56H154.759ZM146.459 53.12V51.68H154.759V53.12H146.459ZM144.079 55.78H146.459V55.08H154.759V55.76H157.259V46.58H144.079V55.78ZM153.599 40.78C153.379 41.56 153.019 42.5 152.699 43.24H148.579C148.439 42.52 148.039 41.54 147.559 40.78H153.599ZM155.299 43.24C155.619 42.62 155.959 41.92 156.299 41.18L154.459 40.78H158.599V38.68H152.159C151.959 38.08 151.659 37.4 151.319 36.84L148.839 37.24C149.059 37.66 149.299 38.18 149.459 38.68H142.719V40.78H147.119L145.179 41.16C145.499 41.78 145.799 42.56 145.979 43.24H141.599V45.36H159.539V43.24H155.299ZM167.659 46.94C167.539 45.96 167.259 44.52 166.939 43.38L165.439 43.72C165.539 44.12 165.639 44.56 165.719 45.02L164.139 45.18C165.399 43.78 166.659 42.12 167.599 40.48L165.919 39.56C165.659 40.14 165.319 40.72 164.999 41.28L163.959 41.36C164.659 40.34 165.339 39.1 165.839 37.94L163.999 37.3C163.559 38.82 162.679 40.38 162.399 40.8C162.119 41.22 161.859 41.52 161.559 41.58C161.779 42.06 162.079 42.92 162.179 43.3C162.399 43.18 162.759 43.08 163.939 42.92C163.439 43.62 162.999 44.16 162.799 44.4C162.299 44.98 161.919 45.36 161.499 45.46C161.719 45.92 162.019 46.84 162.119 47.18C162.459 47.02 163.019 46.88 165.979 46.48C166.019 46.78 166.059 47.06 166.079 47.3L167.659 46.94ZM166.759 50.6C165.539 51.76 163.219 52.76 160.999 53.2C161.499 53.66 162.199 54.58 162.559 55.16C164.939 54.5 167.279 53.04 168.679 51.32L166.759 50.6ZM179.559 50V48.04H171.819V47.08H169.439V48.04H161.519V50H169.439V55.68H171.819V50H179.559ZM172.839 51.84C174.619 52.82 176.979 54.32 178.079 55.3L179.599 53.6C178.399 52.64 175.979 51.24 174.239 50.36L172.839 51.84ZM171.299 41.88H169.799V40.54H171.299V41.88ZM171.299 44.9H169.799V43.5H171.299V44.9ZM171.239 38.8L171.879 37.28L169.719 36.92C169.679 37.46 169.539 38.16 169.379 38.8H167.779V46.64H173.399V38.8H171.239ZM177.439 43.98C177.539 44.36 177.639 44.78 177.739 45.22L176.179 45.36C177.479 43.98 178.759 42.28 179.759 40.64L178.039 39.66C177.779 40.2 177.479 40.74 177.199 41.24L175.859 41.36C176.559 40.32 177.279 39.06 177.759 37.82L175.839 37.28C175.399 38.82 174.499 40.42 174.219 40.84C173.959 41.26 173.679 41.56 173.399 41.64C173.619 42.12 173.919 43 174.019 43.4C174.259 43.26 174.659 43.16 176.039 42.96C175.519 43.7 175.059 44.26 174.839 44.5C174.339 45.06 173.959 45.44 173.539 45.54C173.759 46.02 174.059 46.96 174.159 47.34C174.499 47.16 175.079 47.04 178.059 46.72C178.099 47 178.139 47.26 178.159 47.5L179.759 47.08C179.599 46.14 179.259 44.7 178.919 43.6L177.439 43.98ZM188.439 48.8C188.219 48.54 187.659 47.9 187.099 47.28C187.579 46.8 188.179 46.18 188.839 45.6L187.459 44.3C187.159 44.86 186.579 45.64 186.099 46.2L185.799 45.9V45.7C186.659 44.3 187.399 42.8 187.939 41.28L186.779 40.34L186.419 40.44H185.179L186.479 39.66C186.119 38.96 185.459 37.88 184.859 37.08L183.059 38C183.519 38.74 184.099 39.7 184.439 40.44H181.379V42.58H185.279C184.239 44.76 182.559 46.88 180.919 48.12C181.219 48.56 181.719 49.8 181.879 50.46C182.459 49.96 183.019 49.4 183.599 48.72V55.74H185.799V48.44C186.359 49.24 186.939 50.08 187.259 50.64L188.439 48.8ZM193.039 41.94V44.74H191.039V41.94H193.039ZM196.519 46.82C196.079 48.08 195.439 49.22 194.659 50.18C193.859 49.2 193.199 48.06 192.719 46.82H196.519ZM197.799 44.66L197.399 44.74H195.259V41.94H197.139C196.979 42.68 196.799 43.38 196.619 43.9L198.619 44.36C199.039 43.28 199.539 41.56 199.899 40.02L198.219 39.68L197.859 39.74H195.259V37.06H193.039V39.74H188.859V45.1C188.859 47.86 188.659 51.6 186.459 54.12C186.919 54.4 187.819 55.22 188.159 55.66C190.019 53.54 190.699 50.4 190.939 47.66C191.519 49.2 192.239 50.56 193.159 51.74C192.059 52.64 190.819 53.34 189.439 53.78C189.879 54.24 190.419 55.14 190.699 55.72C192.159 55.12 193.499 54.36 194.659 53.36C195.779 54.34 197.099 55.12 198.659 55.68C198.979 55.04 199.619 54.1 200.119 53.64C198.619 53.22 197.339 52.56 196.259 51.72C197.639 50.02 198.639 47.88 199.219 45.2L197.799 44.66ZM216.359 43.06H217.479V44.72H216.359V43.06ZM215.019 44.72H213.939V43.06H215.019V44.72ZM212.619 44.72H211.559V43.06H212.619V44.72ZM209.819 41.38V46.42H219.299V41.38H215.179C215.239 41.08 215.279 40.74 215.339 40.4H219.599V38.54H215.599L215.759 37.32L213.699 37.18C213.659 37.6 213.619 38.06 213.559 38.54H209.579V40.4H213.299C213.259 40.74 213.199 41.08 213.139 41.38H209.819ZM205.519 47.76C204.439 48 202.779 48.16 201.439 48.24C201.599 48.64 201.779 49.18 201.839 49.54C202.179 49.56 202.579 49.54 202.999 49.54V50.5H201.879V51.96H202.999V52.96C202.379 53 201.819 53.04 201.319 53.08L201.479 54.78C202.859 54.64 204.479 54.46 206.119 54.26L206.099 52.68L204.739 52.82V51.96H205.779V50.5H204.739V49.4C205.279 49.36 205.799 49.28 206.259 49.18L205.519 47.76ZM204.519 45.54V44.44H206.479V45.44L204.519 45.54ZM206.479 39.72V40.64H204.519V39.72H206.479ZM204.519 42.08H206.479V43H204.519V42.08ZM220.139 53.9C219.879 52.8 219.039 51.22 218.039 50.08L216.439 50.8C216.919 51.38 217.359 52.06 217.679 52.76C217.179 52.62 216.479 52.34 216.159 52.08C216.099 53.48 215.999 53.68 215.539 53.68H214.039C213.499 53.68 213.439 53.62 213.439 53.14V50.76C213.999 51.46 214.519 52.22 214.799 52.78L216.379 51.86C215.999 51.12 215.159 50.02 214.299 49.22H219.859V47.22H209.279V49.22H213.859L212.639 49.84C212.819 50.02 212.999 50.24 213.199 50.46H211.459V51.1L209.979 50.46C209.699 51.52 209.179 52.78 208.639 53.64V39.72H209.479V37.84H201.439V39.72H202.399V45.64L201.399 45.68L201.579 47.54C202.999 47.44 204.719 47.34 206.479 47.18V55.72H208.639V53.94L210.059 54.9C210.659 53.92 211.119 52.54 211.459 51.42V53.18C211.459 54.88 211.859 55.44 213.759 55.44H215.779C217.099 55.44 217.639 54.94 217.879 53.06C218.139 53.64 218.339 54.2 218.419 54.66L220.139 53.9ZM226.379 46.1H234.739V47.34H226.379V46.1ZM226.379 42.92H234.739V44.16H226.379V42.92ZM226.379 39.76H234.739V41H226.379V39.76ZM234.779 53.32C234.019 53.32 233.899 53.24 233.899 52.6V49.42H237.159V37.68H224.079V49.42H226.519C226.179 51.6 225.319 52.94 221.219 53.7C221.679 54.2 222.319 55.18 222.539 55.82C227.479 54.7 228.659 52.6 229.079 49.42H231.499V52.62C231.499 54.86 232.059 55.58 234.439 55.58H237.079C239.059 55.58 239.679 54.76 239.939 51.6C239.319 51.44 238.259 51.04 237.759 50.66C237.659 52.98 237.539 53.32 236.859 53.32H234.779ZM249.039 48.86H251.619C251.319 46.08 255.679 45.74 255.679 42.8C255.679 40.14 253.559 38.8 250.659 38.8C248.519 38.8 246.759 39.76 245.499 41.24L247.139 42.76C248.059 41.72 249.099 41.18 250.339 41.18C251.899 41.18 252.859 41.86 252.859 43.06C252.859 45 248.619 45.72 249.039 48.86ZM248.259 52.2C248.259 53.36 249.139 54.18 250.339 54.18C251.539 54.18 252.419 53.36 252.419 52.2C252.419 51.04 251.539 50.24 250.339 50.24C249.139 50.24 248.259 51.04 248.259 52.2ZM261.519 57.46H266.099V37.94H261.519V39.5H263.899V55.86H261.519V57.46Z" fill="#202020"/>
<path d="M31.008 87.72V86.136H32.88V87.72H31.008ZM35.52 86.136V87.72H33.744V86.136H35.52ZM30.752 79.16H32.464V81.192H30.752V79.16ZM33.28 79.16H35.072V81.192H33.28V79.16ZM35.888 79.16H37.712V81.192H35.888V79.16ZM31.648 83.176C31.872 82.808 32.08 82.424 32.256 82.04H38.656V78.312H29.824V82.04H31.184C30.592 83.24 29.664 84.344 28.672 85.112C28.608 83.56 28.4 82.04 27.728 80.616C28.368 79.816 28.944 78.984 29.392 78.168L28.48 77.704C28.16 78.344 27.728 79.016 27.216 79.672C26.8 79.016 26.288 78.392 25.616 77.768L24.88 78.328C25.6 79.032 26.144 79.736 26.544 80.488C25.936 81.192 25.248 81.848 24.56 82.392C24.8 82.552 25.136 82.84 25.312 83.048C25.888 82.568 26.448 82.024 26.992 81.448C27.28 82.184 27.44 82.936 27.552 83.72C26.864 85.144 25.616 86.632 24.544 87.416C24.784 87.624 25.088 87.992 25.248 88.232C26.08 87.544 26.96 86.456 27.664 85.336C27.68 85.624 27.68 85.912 27.68 86.2C27.68 88.28 27.552 90.408 27.136 90.92C27.024 91.08 26.896 91.16 26.672 91.176C26.336 91.224 25.76 91.224 25.104 91.176C25.296 91.448 25.376 91.864 25.392 92.184C25.984 92.216 26.576 92.2 27.056 92.12C27.44 92.072 27.712 91.912 27.92 91.624C28.528 90.792 28.688 88.536 28.688 86.2C28.688 85.848 28.688 85.496 28.672 85.144C28.912 85.288 29.28 85.608 29.456 85.768C30 85.304 30.544 84.728 31.04 84.072H37.984C37.856 88.952 37.68 90.664 37.376 91.064C37.248 91.256 37.104 91.272 36.896 91.272C36.736 91.272 36.416 91.272 36.048 91.256L36.848 90.952C36.64 90.312 36.144 89.368 35.6 88.648L34.864 88.92C35.04 89.176 35.216 89.464 35.376 89.752L33.744 89.88V88.472H36.4V85.368H33.744V84.408H32.88V85.368H30.16V88.472H32.88V89.944C31.568 90.056 30.368 90.152 29.456 90.216L29.568 91.144C31.2 90.984 33.504 90.776 35.776 90.536C35.888 90.792 35.984 91.048 36.048 91.256C35.888 91.256 35.712 91.24 35.52 91.224C35.664 91.48 35.76 91.896 35.776 92.168C36.4 92.2 36.992 92.216 37.328 92.168C37.744 92.12 38 92.024 38.24 91.688C38.672 91.128 38.816 89.256 38.992 83.688C38.992 83.528 39.008 83.176 39.008 83.176H31.648ZM45.984 80.072H57.136V82.312H58.208V79.08H52.24C52.048 78.616 51.712 78.008 51.424 77.544L50.336 77.864C50.576 78.216 50.8 78.68 50.96 79.08H44.944V82.312H45.984V80.072ZM56.176 83.336C55.28 84.184 53.84 85.272 52.592 86.072C52.24 85.16 51.696 84.28 50.912 83.528C51.328 83.24 51.712 82.952 52.064 82.648H56.144V81.72H46.88V82.648H50.656C49.136 83.72 46.912 84.568 44.88 85.08C45.072 85.272 45.36 85.704 45.472 85.928C47.008 85.448 48.672 84.792 50.128 83.992C50.432 84.312 50.72 84.648 50.944 85.016C49.552 86.072 46.864 87.24 44.864 87.72C45.056 87.944 45.296 88.328 45.408 88.568C47.312 87.96 49.808 86.824 51.376 85.736C51.568 86.152 51.712 86.552 51.84 86.952C50.24 88.408 47.136 89.928 44.576 90.52C44.784 90.76 45.024 91.144 45.136 91.432C47.456 90.744 50.24 89.352 52.048 87.944C52.224 89.336 51.92 90.536 51.392 90.904C51.088 91.176 50.784 91.224 50.352 91.224C50.032 91.224 49.472 91.192 48.896 91.144C49.072 91.432 49.184 91.848 49.184 92.136C49.696 92.168 50.192 92.184 50.56 92.184C51.248 92.168 51.664 92.056 52.144 91.656C53.04 91 53.44 88.984 52.864 86.92C53.136 86.76 53.424 86.6 53.696 86.408C54.56 88.728 56.112 90.632 58.192 91.544C58.352 91.272 58.656 90.872 58.896 90.68C56.848 89.896 55.264 88.056 54.512 85.88C55.408 85.288 56.32 84.616 57.056 84.024L56.176 83.336ZM70.576 87.176H71.52L71.872 80.84L71.904 79.032H70.176L70.208 80.84L70.576 87.176ZM71.04 91.064C71.696 91.064 72.256 90.616 72.256 89.864C72.256 89.144 71.696 88.68 71.04 88.68C70.384 88.68 69.824 89.144 69.824 89.864C69.824 90.616 70.384 91.064 71.04 91.064ZM85.904 89.304C86.864 89.896 88 90.76 88.576 91.384L89.328 90.664C88.752 90.056 87.584 89.224 86.624 88.68L85.904 89.304ZM91.04 85.032H93.328L92.944 85.384C93.36 85.512 93.824 85.688 94.256 85.896C93.184 85.912 92.096 85.928 91.04 85.944V85.032ZM86.064 84.28V83.224H90.016V84.28H86.064ZM86.064 81.48H90.016V82.52H86.064V81.48ZM95.104 81.48V82.52H91.04V81.48H95.104ZM95.104 84.28H91.04V83.224H95.104V84.28ZM97.776 87.72H93.92V86.68H92.96L95.6 86.6C95.968 86.824 96.288 87.048 96.528 87.256L97.168 86.616C96.48 86.104 95.248 85.464 94.096 85.032H96.144V80.728H91.04V79.768H97.12V78.904H91.04V77.656H90.016V78.904H83.824V79.768H90.016V80.728H85.056V85.032H90.016V85.96C87.712 85.992 85.584 86.008 83.984 86.008L84.032 86.872C86.352 86.84 89.584 86.776 92.896 86.68V87.72H83.36V88.616H92.896V91.016C92.896 91.208 92.816 91.272 92.56 91.288C92.304 91.288 91.424 91.288 90.416 91.256C90.56 91.544 90.704 91.928 90.752 92.2C92.048 92.2 92.832 92.2 93.312 92.04C93.792 91.896 93.92 91.608 93.92 91.032V88.616H97.776V87.72ZM107.888 89.24C106.816 89.944 104.736 90.584 103.072 90.872C103.296 91.064 103.6 91.416 103.728 91.672C105.392 91.288 107.552 90.488 108.688 89.624L107.888 89.24ZM111.68 89.752C113.248 90.312 115.328 91.128 116.4 91.64L117.04 90.936C115.92 90.424 113.856 89.656 112.304 89.16L111.68 89.752ZM112.704 81.416C112.48 81.896 112.064 82.616 111.712 83.08L112.288 83.256H107.84L108.464 83.08C108.32 82.632 107.936 81.928 107.568 81.416H112.704ZM110.592 87.48V86.2H115.632V85.352H110.592V84.12H116.416V83.256H112.672C113.04 82.824 113.424 82.248 113.808 81.688L112.832 81.416H116.992V80.52H114.448C114.88 79.896 115.424 78.984 115.872 78.152L114.8 77.848C114.512 78.568 113.968 79.64 113.52 80.312L114.144 80.52H112.112V77.64H111.104V80.52H109.056V77.64H108.064V80.52H106.016L106.848 80.2C106.592 79.544 106.016 78.552 105.44 77.816L104.544 78.136C105.072 78.872 105.632 79.864 105.872 80.52H103.216V81.416H107.408L106.56 81.64C106.896 82.136 107.264 82.776 107.408 83.256H103.856V84.12H109.536V85.352H104.672V86.2H109.536V87.48H103.168V88.392H109.536V92.216H110.592V88.392H117.056V87.48H110.592ZM134.176 82.152H128.624V81.384H134.176V82.152ZM134.176 83.528H128.624V82.744H134.176V83.528ZM134.176 84.92H128.624V84.136H134.176V84.92ZM127.632 80.76V85.528H135.2V80.76H131.328C131.472 80.504 131.616 80.216 131.76 79.912H136.448V79.128H133.744C134.016 78.744 134.32 78.312 134.592 77.896L133.6 77.64C133.392 78.056 133.04 78.68 132.72 79.128H129.984L130.272 79.032C130.128 78.632 129.744 78.024 129.392 77.608L128.528 77.896C128.832 78.264 129.12 78.728 129.296 79.128H126.56V79.912H130.704C130.608 80.2 130.48 80.488 130.384 80.76H127.632ZM124.848 79.24C124.688 78.824 124.368 78.152 124.112 77.624L123.248 77.896C123.472 78.44 123.776 79.144 123.936 79.576L124.848 79.24ZM125.12 89.64C126 90.168 127.04 90.968 127.504 91.576L128.272 90.888C127.76 90.296 126.72 89.528 125.84 89.032L125.12 89.64ZM133.376 87.208H132.352V88.136H122.544V88.984H132.352V91.016C132.352 91.224 132.272 91.288 132 91.304C131.76 91.32 130.848 91.32 129.776 91.288C129.92 91.56 130.096 91.928 130.144 92.2C131.472 92.2 132.288 92.216 132.768 92.056C133.248 91.896 133.376 91.624 133.376 91.032V88.984H136.576V88.136H133.376V87.208ZM125.792 81.976L125.648 82.04H124.448C124.88 81.32 125.344 80.456 125.76 79.688H122.416V80.504H124.32C123.888 81.336 123.376 82.216 122.976 82.856H125.152C124.816 83.736 124.304 84.648 123.76 85.24H123.776C123.328 85.544 122.896 85.96 122.464 86.424L123.072 87.256C123.696 86.424 124.368 85.688 124.8 85.688C125.12 85.688 125.568 86.088 126.16 86.424C127.216 86.984 128.624 87.096 130.496 87.096C132.144 87.096 135.168 87.016 136.624 86.92C136.64 86.648 136.8 86.184 136.896 85.912C135.232 86.104 132.56 86.2 130.512 86.2C128.752 86.2 127.328 86.136 126.368 85.624C125.744 85.288 125.424 85 125.056 84.904C125.6 84.12 126.048 83.144 126.352 82.216L125.792 81.976ZM146.384 86.856V89.72H143.44V86.856H146.384ZM146.256 80.952V83.432H143.44V80.952H146.256ZM143.44 84.36H147.2V80.024H144.784C145.088 79.352 145.424 78.536 145.68 77.816L144.528 77.624C144.384 78.328 144.096 79.304 143.824 80.024H142.464V91.736H143.44V90.648H147.36V85.912H143.44V84.36ZM156.352 79.464V78.488H147.872V79.464H151.584V81.528H148.496V89.832H149.472V82.488H151.584V92.184H152.592V82.488H154.864V88.648C154.864 88.808 154.816 88.872 154.64 88.872C154.48 88.872 153.952 88.872 153.328 88.856C153.456 89.112 153.6 89.512 153.632 89.784C154.512 89.784 155.056 89.768 155.408 89.608C155.776 89.448 155.856 89.144 155.856 88.648V81.528H152.592V79.464H156.352ZM168.096 86.168C167.728 85.704 166.08 83.816 165.536 83.304V83.112H168.192V82.12H165.536V79.432C166.448 79.24 167.312 78.984 168 78.712L167.36 77.864C166.016 78.44 163.616 78.936 161.632 79.256C161.744 79.48 161.872 79.848 161.92 80.088C162.752 79.976 163.648 79.832 164.512 79.656V82.12H161.648V83.112H164.336C163.584 85.032 162.288 87.144 161.104 88.28C161.312 88.52 161.584 88.968 161.696 89.24C162.672 88.2 163.728 86.456 164.512 84.68V92.168H165.536V84.392C166.208 85.24 167.104 86.472 167.456 87.032L168.096 86.168ZM175.904 91.24C175.408 89.464 174.192 86.504 173.088 84.216L172.128 84.552C172.768 85.928 173.44 87.576 173.968 89.048L168.912 89.784C170.144 86.536 171.312 82.184 172.032 78.248L170.912 78.04C170.256 82.088 168.864 86.648 168.416 87.864C167.968 89.128 167.6 90.04 167.264 90.168C167.392 90.472 167.568 90.984 167.616 91.224C168.048 91 168.704 90.872 174.32 89.992C174.528 90.616 174.704 91.208 174.832 91.688L175.904 91.24ZM184.656 80.888H185.696V79.688H187.648V78.776H185.696V77.624H184.656V78.776H181.184V79.688H184.656V80.888ZM186.464 88.36H187.872V89.576H186.464V88.36ZM187.872 84.232V85.416H186.464V84.232H187.872ZM189.6 87.64H186.464V86.136H189.6V87.64ZM193.52 83.48C193.264 84.824 192.896 86.056 192.416 87.176C192.208 85.896 192.048 84.328 191.968 82.408H195.328V81.48H194.272L194.672 81.144C194.336 80.744 193.648 80.232 193.072 79.912L192.432 80.408C192.928 80.68 193.472 81.128 193.824 81.48H191.936C191.936 81.144 191.92 80.792 191.92 80.44H191.536V79.688H195.216V78.776H191.536V77.64H190.48V78.776H188.48V79.688H190.48V80.84H190.96L190.976 81.48H183.872V84.328H182.448V81.544H181.616V85.224H183.872V85.8C183.872 86.056 183.872 86.328 183.856 86.6H180.896V87.512H181.808V88.28C181.808 89.272 181.664 90.712 180.784 91.752C180.992 91.864 181.296 92.072 181.456 92.216C182.448 91.064 182.624 89.432 182.624 88.312V87.512H183.824C183.728 88.968 183.488 90.536 182.816 91.768C183.04 91.864 183.456 92.088 183.616 92.248C184.624 90.424 184.784 87.768 184.784 85.8V82.408H191.024C191.152 84.904 191.408 86.968 191.76 88.52C191.408 89.144 191.008 89.704 190.56 90.216V89.576H188.656V88.36H190.4V85.416H188.656V84.232H190.416V83.48H185.648V90.328H190.464C190.032 90.808 189.568 91.208 189.072 91.592C189.296 91.736 189.696 92.056 189.872 92.248C190.704 91.56 191.456 90.728 192.096 89.768C192.608 91.4 193.312 92.232 194.144 92.232C194.992 92.232 195.344 91.832 195.504 89.768C195.264 89.688 194.96 89.48 194.736 89.288C194.656 90.84 194.496 91.272 194.208 91.288C193.696 91.288 193.168 90.44 192.72 88.712C193.504 87.256 194.096 85.56 194.48 83.64L193.52 83.48ZM213.968 79.112H208.544C208.368 78.616 208.08 77.992 207.744 77.512L206.704 77.736C206.96 78.136 207.216 78.664 207.36 79.112H201.52V80.072H213.968V79.112ZM211.584 86.216V87.992H203.904V86.216H211.584ZM203.904 90.712V88.856H211.584V90.712H203.904ZM202.848 92.232H203.904V91.624H211.584V92.2H212.672V85.288H202.848V92.232ZM210.624 82.872C211.024 82.152 211.456 81.24 211.856 80.44L210.704 80.152C210.432 80.936 209.92 82.104 209.504 82.872H205.136L205.808 82.696C205.664 82.008 205.232 80.968 204.736 80.216L203.728 80.44C204.176 81.176 204.56 82.168 204.704 82.872H200.608V83.848H214.768V82.872H210.624ZM234.256 85.48C234.112 84.824 233.776 83.832 233.488 83.048L232.768 83.288C232.864 83.608 232.992 83.96 233.104 84.328L231.088 84.552C232.144 83.32 233.216 81.752 234.08 80.168L233.264 79.736C233.024 80.232 232.768 80.728 232.48 81.224L230.784 81.4C231.392 80.456 232.016 79.224 232.496 77.992L231.6 77.704C231.2 79.064 230.4 80.504 230.16 80.888C229.936 81.256 229.728 81.528 229.536 81.56C229.648 81.8 229.76 82.248 229.808 82.44C230.016 82.344 230.352 82.264 231.984 82.04C231.424 82.888 230.912 83.56 230.688 83.832C230.304 84.328 229.984 84.664 229.712 84.728C229.824 84.952 229.968 85.4 230 85.576C230.24 85.464 230.64 85.384 233.312 85.032C233.376 85.304 233.44 85.544 233.472 85.736L234.256 85.48ZM228.304 81.768H226.096V80.024H228.304V81.768ZM228.304 84.344H226.096V82.584H228.304V84.344ZM229.264 79.176H227.312C227.456 78.76 227.632 78.232 227.808 77.768L226.8 77.576C226.752 78.008 226.608 78.664 226.464 79.176H225.168V85.192H229.264V79.176ZM224.832 85.4C224.752 84.696 224.496 83.608 224.224 82.776L223.488 82.952C223.584 83.304 223.696 83.704 223.776 84.104L221.68 84.36C222.752 83.128 223.824 81.544 224.704 79.976L223.904 79.56C223.648 80.088 223.344 80.616 223.056 81.128L221.6 81.272C222.192 80.376 222.8 79.192 223.248 78.04L222.4 77.72C222 79.016 221.216 80.408 220.976 80.76C220.768 81.128 220.576 81.368 220.368 81.4C220.464 81.64 220.608 82.088 220.656 82.264C220.832 82.168 221.136 82.104 222.56 81.912C222.016 82.744 221.536 83.416 221.312 83.672C220.912 84.152 220.624 84.488 220.352 84.552C220.448 84.776 220.608 85.224 220.64 85.416C220.864 85.272 221.264 85.192 223.936 84.808C223.984 85.096 224.016 85.368 224.048 85.592L224.832 85.4ZM224.896 88.056C223.808 89.24 221.664 90.296 219.824 90.792C220.064 91 220.368 91.384 220.528 91.672C222.416 91.064 224.608 89.816 225.776 88.44L224.896 88.056ZM228.784 88.664C230.448 89.528 232.56 90.872 233.584 91.768L234.256 90.952C233.184 90.088 231.072 88.792 229.408 87.944L228.784 88.664ZM227.728 86.6V85.608H226.672V86.6H220.096V87.528H226.672V92.2H227.728V87.528H234.288V86.6H227.728ZM251.024 80.072C250.4 79.336 249.088 78.36 247.968 77.688L247.28 78.312C248.4 78.984 249.68 80.024 250.288 80.776L251.024 80.072ZM245.536 88.392C246.304 87.16 246.656 85.112 246.864 83.448L246 83.256C245.808 84.872 245.44 86.824 244.688 87.976L245.536 88.392ZM243.68 79.704C243.392 79.128 242.752 78.312 242.144 77.688L241.376 78.216C241.936 78.808 242.56 79.688 242.848 80.264L243.68 79.704ZM245.248 86.184C244.944 85.848 243.824 84.728 243.248 84.184C244.08 83.144 244.8 81.96 245.296 80.76L244.72 80.344L244.512 80.392H239.648V81.368H243.952C242.912 83.416 241.008 85.384 239.248 86.472C239.392 86.664 239.632 87.176 239.728 87.48C240.496 86.984 241.28 86.312 242.016 85.56V92.2H243.056V85.24C243.6 85.848 244.256 86.616 244.56 87.032L245.248 86.184ZM254.144 87.928C253.968 86.616 253.328 84.664 252.528 83.16L251.664 83.4C252.256 81.976 252.768 80.456 253.232 78.84L252.208 78.616C251.376 81.736 250.24 84.52 248.72 86.84V81.16H247.712V88.216C246.8 89.352 245.776 90.36 244.592 91.192C244.832 91.368 245.264 91.72 245.456 91.912C246.272 91.288 247.024 90.584 247.712 89.816V90.424C247.712 91.768 248.032 92.12 249.296 92.12H251.44C252.592 92.12 252.864 91.464 252.976 89.208C252.704 89.144 252.304 88.968 252.064 88.776C252 90.76 251.904 91.176 251.36 91.176H249.408C248.832 91.176 248.72 91.064 248.72 90.456V88.584C249.856 87.08 250.832 85.352 251.648 83.416C252.384 84.936 253.008 86.904 253.168 88.2L254.144 87.928ZM264.176 85.64L264.064 84.664L262.24 85.192V81.88H264.048V80.888H262.24V77.64H261.184V80.888H259.104V81.88H261.184V85.496C260.32 85.736 259.536 85.944 258.896 86.104L259.216 87.144L261.184 86.552V90.888C261.184 91.128 261.104 91.208 260.88 91.208C260.688 91.224 259.984 91.224 259.216 91.208C259.344 91.496 259.504 91.912 259.552 92.184C260.64 92.184 261.28 92.152 261.68 91.992C262.064 91.816 262.24 91.528 262.24 90.888V86.232L264.176 85.64ZM271.312 84.632C270.704 86.152 269.744 87.448 268.592 88.472C267.536 87.416 266.704 86.104 266.16 84.632H271.312ZM271.968 83.608L271.776 83.656H269.12V81.176H273.008V80.184H269.12V77.624H268.08V80.184H264.256V81.176H268.08V83.656H264.608V84.632H265.088C265.712 86.392 266.624 87.896 267.776 89.144C266.448 90.12 264.912 90.824 263.344 91.256C263.552 91.48 263.824 91.912 263.952 92.216C265.584 91.704 267.168 90.936 268.56 89.88C269.76 90.92 271.2 91.72 272.88 92.232C273.04 91.944 273.344 91.528 273.568 91.304C271.936 90.872 270.528 90.152 269.36 89.176C270.816 87.832 271.968 86.104 272.64 83.912L271.968 83.608ZM292.768 83.336V82.248H286.096C286.336 80.536 286.352 78.936 286.368 77.656H285.248C285.232 78.904 285.248 80.52 284.992 82.248H278.816V83.336H284.8C284.144 86.408 282.544 89.576 278.528 91.32C278.8 91.544 279.152 91.912 279.328 92.2C283.312 90.376 285.024 87.176 285.776 84.008C287.008 87.752 289.104 90.712 292.224 92.184C292.416 91.864 292.752 91.432 293.008 91.192C289.92 89.896 287.808 86.936 286.672 83.336H292.768ZM303.168 84.76C302.576 84.952 301.952 85.128 301.36 85.304V81.88H303.168V80.888H301.36V77.64H300.336V80.888H298.032V81.88H300.336V85.592C299.408 85.848 298.56 86.088 297.888 86.248L298.096 87.304L300.336 86.632V90.792C300.336 91.032 300.256 91.112 300.016 91.112C299.824 91.112 299.104 91.128 298.32 91.096C298.448 91.384 298.608 91.816 298.656 92.088C299.76 92.088 300.4 92.072 300.816 91.896C301.2 91.72 301.36 91.448 301.36 90.792V86.328C302 86.136 302.656 85.944 303.296 85.736L303.168 84.76ZM304.944 81.464H310.528V82.92H304.944V81.464ZM304.944 79.224H310.528V80.648H304.944V79.224ZM305.584 84.92C305.84 84.552 306.064 84.152 306.272 83.768H311.52V78.376H303.984V83.768H305.168C304.352 85.176 303.152 86.504 301.936 87.4C302.16 87.608 302.512 88.04 302.64 88.248C303.008 87.944 303.36 87.624 303.728 87.24V89.4C303.728 90.552 304.064 90.936 305.264 90.936H308.704C309.28 90.936 309.824 90.92 310.08 90.856C310.048 90.632 310.016 90.248 309.984 89.992C309.68 90.056 309.04 90.072 308.672 90.072H305.248C304.752 90.072 304.64 89.912 304.64 89.416V86.408H304.464C304.624 86.232 304.768 86.056 304.912 85.864H311.36C311.152 89.4 310.976 90.728 310.64 91.096C310.496 91.24 310.352 91.272 310.096 91.272C309.824 91.272 309.104 91.256 308.336 91.192C308.496 91.464 308.608 91.864 308.624 92.152C309.376 92.2 310.112 92.216 310.496 92.184C310.944 92.152 311.216 92.04 311.472 91.72C311.904 91.208 312.128 89.672 312.352 85.416C312.368 85.272 312.384 84.92 312.384 84.92H305.584ZM307.568 86.056C307.264 87.256 306.368 88.472 305.12 89.16C305.296 89.304 305.536 89.592 305.664 89.768C306.432 89.352 307.088 88.728 307.568 88.008C308.304 88.568 309.12 89.272 309.568 89.736L310.144 89.176C309.632 88.68 308.736 87.944 307.952 87.368C308.16 86.984 308.304 86.6 308.416 86.216L307.568 86.056ZM319.136 80.68H324.24V83.992H325.28V80.68H330.464V82.952H331.536V79.944H325.28V79.032H330.912V78.28H318.72V79.032H324.24V79.944H318.112V82.952H319.136V80.68ZM330.08 83.096C329.2 82.792 327.584 82.456 326.352 82.312L326.112 82.92C327.36 83.096 328.96 83.48 329.84 83.784L330.08 83.096ZM329.296 80.808C328.512 81.096 327.136 81.592 326.224 81.816L326.576 82.312C327.504 82.104 328.832 81.784 329.744 81.384L329.296 80.808ZM319.888 83.736C320.944 83.544 322.16 83.32 323.408 83.064L323.376 82.408C321.952 82.632 320.576 82.824 319.584 82.952L319.888 83.736ZM320.048 81.384C321.056 81.608 322.32 82.008 322.992 82.344L323.296 81.72C322.608 81.4 321.344 81.032 320.368 80.84L320.048 81.384ZM325.76 88.68C326.528 88.392 327.296 88.04 328 87.608C328.704 88.056 329.504 88.408 330.336 88.68H325.76ZM326.256 91.048V89.4H329.68V91.048H326.256ZM326.576 85.208H329.632C329.216 85.752 328.64 86.248 327.984 86.68C327.376 86.28 326.832 85.848 326.432 85.368L326.576 85.208ZM319.648 85.032H322.832V86.568H319.648V85.032ZM330.352 84.424L330.192 84.472H327.2C327.344 84.248 327.504 84.024 327.648 83.8L326.768 83.656C326.24 84.552 325.248 85.544 323.888 86.296C324.08 86.408 324.352 86.68 324.512 86.872C325.024 86.552 325.488 86.232 325.888 85.864C326.272 86.328 326.72 86.76 327.248 87.128C326.176 87.72 324.96 88.152 323.824 88.424L323.84 88.44H321.744V87.304H323.76V84.28H318.752V87.304H320.816V90.904L319.504 91.048V87.88H318.656V91.128L317.712 91.224L317.84 92.104C319.552 91.912 321.952 91.64 324.272 91.384L324.256 90.568L321.744 90.824V89.224H323.872V88.456C324.048 88.648 324.224 88.936 324.304 89.128C324.64 89.048 324.976 88.952 325.328 88.84V92.2H326.256V91.784H329.68V92.184H330.624V88.776C330.976 88.872 331.328 88.968 331.696 89.048C331.808 88.792 332.08 88.44 332.272 88.28C331.024 88.056 329.808 87.64 328.752 87.112C329.664 86.472 330.432 85.672 330.944 84.744L330.352 84.424Z" fill="white"/>
</svg>
