<svg width="361" height="102" viewBox="0 0 361 102" fill="none" xmlns="http://www.w3.org/2000/svg">
<path d="M325.2 20.3101H12.18V67.5301H325.2V20.3101Z" fill="#00FF63"/>
<path d="M324.76 20.79V67.05H12.66V20.79H324.76ZM325.76 19.79H11.76V67.97H325.76V19.83V19.79Z" fill="black"/>
<path d="M340.76 19.6099H324.84V67.0399H340.76V19.6099Z" fill="black"/>
<path d="M340.17 20.21V66.47H325.43V20.21H340.17ZM341.35 19.03H324.26V67.64H341.35V19.03Z" fill="#00FF63"/>
<path d="M320.66 43.7199L334.23 30.1499L347.8 43.7199L354.25 37.2799L340.68 23.6999L354.25 10.1299L347.8 3.67993L334.23 17.2599L320.66 3.67993L314.21 10.1299L327.79 23.6999L314.21 37.2699L320.66 43.7199Z" fill="#00FF63" stroke="black" stroke-width="1.1" stroke-miterlimit="10"/>
<path d="M317.97 41.03L331.54 27.46L345.12 41.03L351.56 34.59L337.99 21.02L351.56 7.44L345.12 1L331.54 14.57L317.97 1L311.53 7.44L325.1 21.02L311.53 34.59L317.97 41.03Z" fill="#00FF63" stroke="black" stroke-width="1.1" stroke-miterlimit="10"/>
<path d="M12.66 67.23H1V78.89H12.66V67.23Z" fill="black" stroke="black" stroke-width="0.59" stroke-miterlimit="10"/>
<path d="M24.32 55.5698H12.66V67.2298H24.32V55.5698Z" fill="black" stroke="black" stroke-width="0.59" stroke-miterlimit="10"/>
<path d="M12.66 43.9199H1V55.5799H12.66V43.9199Z" fill="black" stroke="black" stroke-width="0.59" stroke-miterlimit="10"/>
<path d="M24.32 32.26H12.66V43.92H24.32V32.26Z" fill="black" stroke="black" stroke-width="0.59" stroke-miterlimit="10"/>
<path d="M12.66 20.6099H1V32.2699H12.66V20.6099Z" fill="black" stroke="black" stroke-width="0.59" stroke-miterlimit="10"/>
<path d="M24.32 8.94995H12.66V20.61H24.32V8.94995Z" fill="black" stroke="black" stroke-width="0.59" stroke-miterlimit="10"/>
<path d="M359.7 66.3701H11.98V101.37H359.7V66.3701Z" fill="black"/>
<path d="M358.72 67.35V100H12.36V67.35H358.72ZM360.08 66H11V101.36H360.08V66Z" fill="#00FF63"/>
<path d="M45.02 57.46H49.6V55.86H47.22V39.5H49.6V37.94H45.02V57.46ZM69.4386 44.88V42.42H61.5786C61.7786 40.56 61.7986 38.72 61.8186 37.08H59.2186C59.1986 38.72 59.2186 40.54 59.0186 42.42H51.7386V44.88H58.6186C57.8386 48.32 55.9386 51.64 51.3586 53.68C52.0586 54.18 52.7586 55.04 53.1386 55.7C57.3786 53.66 59.5386 50.54 60.6186 47.2C62.1786 51.06 64.4986 53.98 68.1186 55.68C68.4986 55 69.2786 53.94 69.8786 53.44C66.1386 51.92 63.7186 48.78 62.3986 44.88H69.4386ZM76.4786 49.34V51.78H74.1586V49.34H76.4786ZM76.2786 44.04H74.1586V42H76.2786V44.04ZM74.1586 46.04H78.3786V40H75.8586C76.2186 39.2 76.5986 38.22 76.9186 37.28L74.2786 37.06C74.1986 37.92 73.9586 39.04 73.7186 40H72.0586V55.02H74.1586V53.78H78.5786V47.34H74.1586V46.04ZM89.7386 40.14V37.98H78.9186V40.14H83.2386V41.92H79.5986V52.66H81.7586V44.06H83.2386V55.72H85.4586V44.06H87.0386V50.52C87.0386 50.72 86.9786 50.78 86.7986 50.78C86.6386 50.78 86.1386 50.78 85.6386 50.76C85.9186 51.3 86.1986 52.18 86.2386 52.8C87.2586 52.8 87.9586 52.78 88.5186 52.42C89.0986 52.06 89.2386 51.48 89.2386 50.56V41.92H85.4586V40.14H89.7386ZM105.019 46.46H95.8986V45.24H105.019V46.46ZM95.8986 52.74V51.38H105.019V52.74H95.8986ZM105.019 49.56H95.8986V48.26H105.019V49.56ZM109.619 41.92V39.72H105.139C105.659 39.1 106.219 38.36 106.739 37.6L103.999 37C103.659 37.82 103.039 38.9 102.459 39.72H97.8786L98.7586 39.26C98.3586 38.6 97.5586 37.62 96.8186 36.9L94.6986 37.86C95.1786 38.42 95.7386 39.1 96.1386 39.72H91.5586V41.92H99.1586C99.0586 42.34 98.9586 42.76 98.8186 43.18H93.5386V55.76H95.8986V54.82H105.019V55.76H107.499V43.18H101.459C101.639 42.78 101.839 42.36 102.019 41.92H109.619ZM121.519 50.46H123.959V52.34H121.519V50.46ZM123.959 44.46H121.519V42.68H123.959V44.46ZM123.959 48.36H121.519V46.56H123.959V48.36ZM129.819 52.34H126.179V50.46H129.119V48.36H126.179V46.56H129.159V44.46H126.179V42.68H129.379V40.5H125.579L126.779 39.98C126.519 39.22 125.959 38.06 125.419 37.24L123.359 38.04C123.799 38.8 124.239 39.74 124.499 40.5H121.779C122.159 39.6 122.519 38.7 122.839 37.78L120.599 37.18C119.699 40.12 118.079 43.02 116.259 44.82C116.499 45.02 116.799 45.32 117.099 45.62L115.799 45.96V42.94H117.779V40.76H115.799V37.08H113.499V40.76H111.279V42.94H113.499V46.58C112.579 46.82 111.739 47.02 111.039 47.18L111.579 49.44L113.499 48.92V53C113.499 53.28 113.399 53.34 113.159 53.34C112.919 53.36 112.219 53.36 111.519 53.34C111.819 54.02 112.099 55.02 112.159 55.66C113.459 55.66 114.339 55.58 114.959 55.18C115.599 54.78 115.799 54.16 115.799 53.02V48.24C116.459 48.06 117.119 47.86 117.739 47.66L117.519 46.08C117.679 46.28 117.839 46.46 117.959 46.6C118.399 46.12 118.819 45.58 119.239 45V55.76H121.519V54.52H129.819V52.34ZM144.759 48.56V49.88H136.459V48.56H144.759ZM136.459 53.12V51.68H144.759V53.12H136.459ZM134.079 55.78H136.459V55.08H144.759V55.76H147.259V46.58H134.079V55.78ZM143.599 40.78C143.379 41.56 143.019 42.5 142.699 43.24H138.579C138.439 42.52 138.039 41.54 137.559 40.78H143.599ZM145.299 43.24C145.619 42.62 145.959 41.92 146.299 41.18L144.459 40.78H148.599V38.68H142.159C141.959 38.08 141.659 37.4 141.319 36.84L138.839 37.24C139.059 37.66 139.299 38.18 139.459 38.68H132.719V40.78H137.119L135.179 41.16C135.499 41.78 135.799 42.56 135.979 43.24H131.599V45.36H149.539V43.24H145.299ZM157.659 46.94C157.539 45.96 157.259 44.52 156.939 43.38L155.439 43.72C155.539 44.12 155.639 44.56 155.719 45.02L154.139 45.18C155.399 43.78 156.659 42.12 157.599 40.48L155.919 39.56C155.659 40.14 155.319 40.72 154.999 41.28L153.959 41.36C154.659 40.34 155.339 39.1 155.839 37.94L153.999 37.3C153.559 38.82 152.679 40.38 152.399 40.8C152.119 41.22 151.859 41.52 151.559 41.58C151.779 42.06 152.079 42.92 152.179 43.3C152.399 43.18 152.759 43.08 153.939 42.92C153.439 43.62 152.999 44.16 152.799 44.4C152.299 44.98 151.919 45.36 151.499 45.46C151.719 45.92 152.019 46.84 152.119 47.18C152.459 47.02 153.019 46.88 155.979 46.48C156.019 46.78 156.059 47.06 156.079 47.3L157.659 46.94ZM156.759 50.6C155.539 51.76 153.219 52.76 150.999 53.2C151.499 53.66 152.199 54.58 152.559 55.16C154.939 54.5 157.279 53.04 158.679 51.32L156.759 50.6ZM169.559 50V48.04H161.819V47.08H159.439V48.04H151.519V50H159.439V55.68H161.819V50H169.559ZM162.839 51.84C164.619 52.82 166.979 54.32 168.079 55.3L169.599 53.6C168.399 52.64 165.979 51.24 164.239 50.36L162.839 51.84ZM161.299 41.88H159.799V40.54H161.299V41.88ZM161.299 44.9H159.799V43.5H161.299V44.9ZM161.239 38.8L161.879 37.28L159.719 36.92C159.679 37.46 159.539 38.16 159.379 38.8H157.779V46.64H163.399V38.8H161.239ZM167.439 43.98C167.539 44.36 167.639 44.78 167.739 45.22L166.179 45.36C167.479 43.98 168.759 42.28 169.759 40.64L168.039 39.66C167.779 40.2 167.479 40.74 167.199 41.24L165.859 41.36C166.559 40.32 167.279 39.06 167.759 37.82L165.839 37.28C165.399 38.82 164.499 40.42 164.219 40.84C163.959 41.26 163.679 41.56 163.399 41.64C163.619 42.12 163.919 43 164.019 43.4C164.259 43.26 164.659 43.16 166.039 42.96C165.519 43.7 165.059 44.26 164.839 44.5C164.339 45.06 163.959 45.44 163.539 45.54C163.759 46.02 164.059 46.96 164.159 47.34C164.499 47.16 165.079 47.04 168.059 46.72C168.099 47 168.139 47.26 168.159 47.5L169.759 47.08C169.599 46.14 169.259 44.7 168.919 43.6L167.439 43.98ZM178.699 40.36H175.239L176.519 39.64C176.239 38.9 175.619 37.8 175.079 36.98L173.319 37.84C173.779 38.6 174.259 39.6 174.559 40.36H171.219V42.24H178.699V40.36ZM177.999 43.14H172.079V44.94H177.999V43.14ZM172.079 47.62H177.999V45.82H172.079V47.62ZM176.159 52.72H173.959V50.48H176.159V52.72ZM180.179 44.9C180.179 48.22 179.979 51.58 178.119 54.32V48.58H172.019V55.48H173.959V54.64H177.899L177.819 54.74C178.459 54.98 179.479 55.54 179.999 55.9C182.179 52.78 182.419 48.74 182.419 44.92V37.92H180.179V44.9ZM183.639 53.76H185.779V38.9H183.639V53.76ZM187.039 37.74V55.7H189.379V37.74H187.039ZM191.979 50.2C191.859 51.92 191.619 53.78 191.139 55C191.619 55.12 192.499 55.38 192.879 55.6C193.299 54.34 193.619 52.34 193.779 50.48L191.979 50.2ZM194.179 50.46C194.379 51.94 194.579 53.84 194.599 55.1L196.279 54.78C196.219 53.52 196.019 51.64 195.799 50.18L194.179 50.46ZM200.939 44.58C201.299 45.34 201.619 46.36 201.679 47.04L202.899 46.68C202.799 46.02 202.459 45 202.099 44.28L200.939 44.58ZM200.659 43.98H202.999V47.26H200.659V43.98ZM207.219 44.54L205.919 44.18C205.759 44.92 205.399 46.02 205.119 46.72L206.219 47.08C206.519 46.44 206.879 45.56 207.219 44.66V47.26H204.899V43.98H207.219V44.54ZM209.179 49.12V42.12H205.079V41.02H209.539V38.98H205.079V37.08H202.819V38.98H198.419V40.98L196.579 39.88C196.179 40.78 195.719 41.72 195.219 42.56L193.919 42.66C194.899 41.22 195.839 39.5 196.539 37.84L194.459 36.98C193.819 39.1 192.579 41.32 192.179 41.88C191.799 42.48 191.479 42.86 191.099 42.98C191.339 43.54 191.679 44.54 191.799 44.96C192.079 44.82 192.519 44.72 193.979 44.54C193.479 45.34 193.019 45.92 192.759 46.2C192.139 46.96 191.719 47.42 191.239 47.52C191.479 48.1 191.839 49.16 191.939 49.56C192.379 49.38 193.079 49.2 196.819 48.64C196.879 48.98 196.919 49.3 196.959 49.56L198.699 49.02C198.579 47.96 198.099 46.2 197.659 44.86L195.999 45.3C196.139 45.76 196.299 46.3 196.419 46.84L194.459 47.08C195.939 45.3 197.399 43.14 198.499 41.02H202.819V42.12H198.819V49.12H201.799C200.979 50.56 199.739 51.94 198.459 52.76C198.279 51.8 197.959 50.6 197.679 49.64L196.179 50.08C196.539 51.32 196.899 52.96 197.019 54.04L198.579 53.56C198.919 54 199.239 54.48 199.439 54.86C200.659 53.98 201.899 52.6 202.879 51.12V55.74H205.139V50.42C206.119 52.08 207.319 53.66 208.399 54.66C208.759 54.14 209.479 53.4 209.959 53C208.699 52.1 207.279 50.6 206.239 49.12H209.179ZM214.139 51.26H218.379V49.46H214.139V51.26ZM216.639 41.76H215.799V39.8H216.639V41.76ZM218.939 46.6C218.899 46.64 218.839 46.64 218.679 46.64H218.279C218.119 46.64 218.079 46.62 218.079 46.3V43.72H218.939V46.6ZM213.539 52.56V47.94C213.839 48.12 214.339 48.54 214.539 48.78C215.619 47.8 215.859 46.36 215.859 45.18V43.72H216.759V46.34C216.759 47.68 217.059 48.02 218.099 48.02H218.899H218.939V52.56H213.539ZM214.539 43.72V45.18C214.539 46.02 214.419 47.04 213.539 47.84V43.72H214.539ZM211.439 39.8H213.959V41.76H211.719V55.68H213.539V54.4H218.939V55.4H220.859V41.76H218.479V39.8H220.979V37.82H211.459L211.439 39.8ZM224.819 53.28C224.099 53.28 223.999 53.14 223.999 52.36V46.54H229.199V37.98H221.559V40.24H226.899V44.28H221.639V52.38C221.639 54.78 222.319 55.48 224.479 55.48H227.119C229.099 55.48 229.719 54.46 229.959 51.08C229.339 50.92 228.339 50.52 227.839 50.14C227.739 52.78 227.619 53.28 226.919 53.28H224.819ZM242.219 40.74C242.639 41.26 243.099 41.74 243.599 42.24H237.859C238.359 41.74 238.799 41.26 239.199 40.74H242.219ZM237.059 53.18C237.799 52.68 238.539 52.12 239.199 51.54H243.859L242.799 52.06C243.099 52.34 243.419 52.66 243.739 53L237.059 53.18ZM245.479 44.02V43.86C246.499 44.64 247.539 45.32 248.559 45.8C248.899 45.26 249.599 44.42 250.099 43.98C248.319 43.26 246.359 42.06 244.899 40.74H249.379V38.76H240.579C240.819 38.34 241.019 37.92 241.239 37.52L238.799 37.06C238.539 37.64 238.239 38.18 237.859 38.76H231.759V40.74H236.259C234.939 42.06 233.239 43.26 231.059 44.22C231.559 44.62 232.239 45.46 232.539 45.98C233.599 45.48 234.539 44.92 235.399 44.3V49.58H231.759V51.54H235.919C235.259 52.06 234.699 52.46 234.419 52.62C233.939 52.96 233.539 53.18 233.099 53.26C233.359 53.86 233.699 54.94 233.819 55.42C234.659 55.12 235.799 55.12 245.339 54.7C245.679 55.1 245.979 55.46 246.199 55.74L248.339 54.62C247.679 53.78 246.419 52.54 245.339 51.54H249.339V49.58H237.839V48.76H245.499V47.2H237.839V46.38H245.499V44.82H237.839V44.02H245.479ZM261.859 51.96V41.62H268.579V39.14H252.599V41.62H259.139V51.96H251.519V54.36H269.699V51.96H261.859ZM276.699 48.16H284.559V49.32H276.699V48.16ZM284.559 39.86V40.96H276.699V39.86H284.559ZM284.559 45.38V46.48H276.699V45.38H284.559ZM284.559 43.7H276.699V42.64H284.559V43.7ZM289.699 51.46V49.32H287.079V37.98H274.319V49.32H271.499V51.46H276.439C275.139 52.38 272.999 53.38 271.199 53.96C271.719 54.42 272.519 55.18 272.899 55.66C274.899 54.98 277.379 53.76 278.939 52.6L277.319 51.46H283.319L282.179 52.68C284.319 53.6 286.659 54.86 287.999 55.72L289.879 54.04C288.599 53.3 286.539 52.3 284.579 51.46H289.699ZM296.05 57.46H300.63V37.94H296.05V39.5H298.43V55.86H296.05V57.46Z" fill="#202020"/>
<path d="M65.288 79.112H59.864C59.688 78.616 59.4 77.992 59.064 77.512L58.024 77.736C58.28 78.136 58.536 78.664 58.68 79.112H52.84V80.072H65.288V79.112ZM62.904 86.216V87.992H55.224V86.216H62.904ZM55.224 90.712V88.856H62.904V90.712H55.224ZM54.168 92.232H55.224V91.624H62.904V92.2H63.992V85.288H54.168V92.232ZM61.944 82.872C62.344 82.152 62.776 81.24 63.176 80.44L62.024 80.152C61.752 80.936 61.24 82.104 60.824 82.872H56.456L57.128 82.696C56.984 82.008 56.552 80.968 56.056 80.216L55.048 80.44C55.496 81.176 55.88 82.168 56.024 82.872H51.928V83.848H66.088V82.872H61.944ZM86.856 85.48C86.712 84.824 86.376 83.832 86.088 83.048L85.368 83.288C85.464 83.608 85.592 83.96 85.704 84.328L83.688 84.552C84.744 83.32 85.816 81.752 86.68 80.168L85.864 79.736C85.624 80.232 85.368 80.728 85.08 81.224L83.384 81.4C83.992 80.456 84.616 79.224 85.096 77.992L84.2 77.704C83.8 79.064 83 80.504 82.76 80.888C82.536 81.256 82.328 81.528 82.136 81.56C82.248 81.8 82.36 82.248 82.408 82.44C82.616 82.344 82.952 82.264 84.584 82.04C84.024 82.888 83.512 83.56 83.288 83.832C82.904 84.328 82.584 84.664 82.312 84.728C82.424 84.952 82.568 85.4 82.6 85.576C82.84 85.464 83.24 85.384 85.912 85.032C85.976 85.304 86.04 85.544 86.072 85.736L86.856 85.48ZM80.904 81.768H78.696V80.024H80.904V81.768ZM80.904 84.344H78.696V82.584H80.904V84.344ZM81.864 79.176H79.912C80.056 78.76 80.232 78.232 80.408 77.768L79.4 77.576C79.352 78.008 79.208 78.664 79.064 79.176H77.768V85.192H81.864V79.176ZM77.432 85.4C77.352 84.696 77.096 83.608 76.824 82.776L76.088 82.952C76.184 83.304 76.296 83.704 76.376 84.104L74.28 84.36C75.352 83.128 76.424 81.544 77.304 79.976L76.504 79.56C76.248 80.088 75.944 80.616 75.656 81.128L74.2 81.272C74.792 80.376 75.4 79.192 75.848 78.04L75 77.72C74.6 79.016 73.816 80.408 73.576 80.76C73.368 81.128 73.176 81.368 72.968 81.4C73.064 81.64 73.208 82.088 73.256 82.264C73.432 82.168 73.736 82.104 75.16 81.912C74.616 82.744 74.136 83.416 73.912 83.672C73.512 84.152 73.224 84.488 72.952 84.552C73.048 84.776 73.208 85.224 73.24 85.416C73.464 85.272 73.864 85.192 76.536 84.808C76.584 85.096 76.616 85.368 76.648 85.592L77.432 85.4ZM77.496 88.056C76.408 89.24 74.264 90.296 72.424 90.792C72.664 91 72.968 91.384 73.128 91.672C75.016 91.064 77.208 89.816 78.376 88.44L77.496 88.056ZM81.384 88.664C83.048 89.528 85.16 90.872 86.184 91.768L86.856 90.952C85.784 90.088 83.672 88.792 82.008 87.944L81.384 88.664ZM80.328 86.6V85.608H79.272V86.6H72.696V87.528H79.272V92.2H80.328V87.528H86.888V86.6H80.328ZM100.088 83.352V84.44H95.64V83.352H100.088ZM95.576 86.344C95.608 85.944 95.624 85.544 95.64 85.176H100.088V86.344H95.576ZM101.08 87.16V82.536H94.648V84.76C94.648 86.552 94.472 89.128 93.224 91.048C93.464 91.144 93.912 91.368 94.12 91.528C94.936 90.264 95.32 88.664 95.496 87.16H101.08ZM96.312 80.968V81.688H99.688V80.968H96.312ZM100.488 88.76V90.552H96.456V88.76H100.488ZM95.544 92.088H96.456V91.4H100.488V92.056H101.448V87.944H95.544V92.088ZM97.672 77.784C96.744 79.4 95 80.76 93.24 81.624C93.432 81.848 93.736 82.344 93.848 82.584C95.288 81.784 96.776 80.632 97.864 79.288C99.144 80.088 100.632 81.112 101.416 81.768L101.992 80.904C101.192 80.264 99.672 79.288 98.424 78.536C98.504 78.392 98.584 78.264 98.664 78.136L97.672 77.784ZM103.992 79.432H102.984V88.184H103.992V79.432ZM106.008 77.72V90.76C106.008 91.048 105.896 91.128 105.624 91.128C105.384 91.144 104.504 91.144 103.512 91.128C103.672 91.432 103.816 91.896 103.88 92.184C105.192 92.184 105.96 92.152 106.424 91.976C106.856 91.784 107.048 91.464 107.048 90.744V77.72H106.008ZM118.072 77.688C117.16 80.152 115.656 82.552 114.056 84.104C114.264 84.344 114.568 84.904 114.68 85.144C115.256 84.552 115.848 83.864 116.376 83.096V92.184H117.448V81.448C118.072 80.344 118.632 79.176 119.096 78.008L118.072 77.688ZM128.712 81.336V80.312H121.944C122.264 79.592 122.584 78.856 122.856 78.104L121.832 77.848C121.048 80.184 119.752 82.504 118.296 83.992C118.552 84.168 118.952 84.536 119.128 84.712C119.944 83.8 120.744 82.632 121.432 81.336H122.616V92.2H123.688V88.264H128.568V87.256H123.688V84.728H128.36V83.736H123.688V81.336H128.712ZM139.752 78.248L139.592 78.296H135.752V92.2H136.712V79.272H139.176C138.824 80.328 138.328 81.736 137.832 82.904C139.032 84.216 139.336 85.32 139.336 86.216C139.336 86.712 139.24 87.176 138.984 87.352C138.856 87.448 138.68 87.48 138.472 87.496C138.216 87.528 137.88 87.512 137.496 87.48C137.672 87.752 137.768 88.168 137.784 88.424C138.136 88.456 138.536 88.456 138.872 88.408C139.176 88.376 139.464 88.28 139.688 88.12C140.12 87.816 140.296 87.112 140.296 86.312C140.296 85.304 140.008 84.136 138.824 82.792C139.368 81.512 139.96 79.96 140.44 78.664L139.752 78.248ZM142.328 82.232H147.224V84.344H142.328V82.232ZM147.224 79.288V81.336H142.328V79.288H147.224ZM148.504 85.864C147.848 86.472 146.792 87.24 145.912 87.8C145.48 87.048 145.16 86.2 144.904 85.288H148.264V78.344H141.288V90.248C141.288 90.904 140.984 91.192 140.728 91.32C140.904 91.544 141.128 91.96 141.208 92.216C141.512 92.008 141.976 91.848 145.304 90.936C145.272 90.712 145.24 90.28 145.256 89.976L142.328 90.696V85.288H143.976C144.776 88.456 146.296 90.92 148.824 92.088C149 91.8 149.32 91.384 149.544 91.176C148.232 90.648 147.176 89.736 146.36 88.552C147.288 88.008 148.392 87.288 149.208 86.6L148.504 85.864ZM167.064 79.736H158.904V78.808H167.064V79.736ZM167.064 81.336H158.904V80.392H167.064V81.336ZM168.104 78.152H157.88V82.008H168.104V78.152ZM170.12 82.712H155.896V83.528H170.12V82.712ZM158.6 87.576V86.6H162.472V87.576H158.6ZM158.6 85H162.472V85.944H158.6V85ZM167.544 85.944H163.48V85H167.544V85.944ZM167.544 87.576H163.48V86.6H167.544V87.576ZM163.48 90.968V89.976H168.952V89.208H163.48V88.264H168.584V84.296H157.592V88.264H162.472V89.208H157.112V89.976H162.472V90.968H155.8V91.8H170.216V90.968H163.48ZM181.256 82.104C181.208 83.704 181 85.656 180.072 87.528C179.4 87 178.728 86.472 178.088 85.992C178.376 84.92 178.68 83.592 178.952 82.248L181.256 82.104ZM183.192 81.976V81.016L182.264 81.064V79.928H181.256V81.128L179.16 81.24C179.368 80.024 179.576 78.808 179.704 77.72L178.648 77.672C178.536 78.776 178.344 80.04 178.136 81.272C177.512 81.288 176.968 81.32 176.488 81.336L176.6 82.376L177.928 82.296C177.608 83.832 177.256 85.272 176.92 86.344C177.752 86.952 178.68 87.704 179.544 88.44C178.856 89.528 177.88 90.584 176.536 91.528C176.76 91.688 177.128 92.008 177.304 92.248C178.632 91.288 179.608 90.232 180.328 89.16C181.08 89.848 181.752 90.504 182.2 91.048L182.888 90.152C182.408 89.608 181.688 88.92 180.872 88.232C181.976 86.072 182.216 83.864 182.264 82.04L183.192 81.976ZM191.08 84.424H187.496V82.808C188.616 81.848 189.784 80.504 190.552 79.32L189.816 78.792L189.56 78.856H183.384V79.832H188.824C188.184 80.776 187.256 81.848 186.408 82.536V84.424H182.648V85.432H186.408V90.904C186.408 91.128 186.328 91.208 186.072 91.224C185.816 91.224 184.952 91.224 183.992 91.208C184.136 91.496 184.328 91.928 184.392 92.216C185.624 92.232 186.36 92.2 186.84 92.04C187.32 91.864 187.496 91.56 187.496 90.904V85.432H191.08V84.424ZM210.328 80.872H208.744V79.704H210.328V80.872ZM210.328 82.792H208.744V81.576H210.328V82.792ZM204.184 81.576H205.72V82.792H204.184V81.576ZM204.184 79.704H205.72V80.872H204.184V79.704ZM207.976 81.576V82.792H206.488V81.576H207.976ZM206.488 80.872V79.704H207.976V80.872H206.488ZM211.256 78.968H208.856V77.64H207.976V78.968H206.488V77.64H205.608V78.968H203.288V83.528H211.256V78.968ZM211.736 84.344H202.76V85.176H211.736V84.344ZM204.696 86.776H209.8V88.248H204.696V86.776ZM210.744 89V86.04H203.784V89H210.744ZM200.872 79.704C200.616 79.16 200.056 78.312 199.496 77.704L198.712 78.216C199.24 78.824 199.8 79.688 200.04 80.264L200.872 79.704ZM202.696 86.456C202.408 86.104 201.272 84.776 200.728 84.184C201.448 83.128 202.088 81.944 202.52 80.744L201.944 80.344L201.752 80.392H197.512V81.368H201.24C200.344 83.368 198.728 85.368 197.192 86.472C197.352 86.664 197.608 87.176 197.688 87.48C198.328 87 198.968 86.376 199.576 85.656V92.2H200.552V85.336C201.08 86.024 201.736 86.872 202.024 87.32L202.696 86.456ZM209.048 91.032C209.32 90.552 209.624 89.992 209.928 89.432L208.952 89.16C208.776 89.688 208.44 90.472 208.136 91.032H206.344C206.184 90.52 205.88 89.768 205.592 89.192L204.76 89.432C204.984 89.928 205.224 90.536 205.384 91.032H202.376V91.88H211.896V91.032H209.048ZM232.408 83.336V82.248H225.736C225.976 80.536 225.992 78.936 226.008 77.656H224.888C224.872 78.904 224.888 80.52 224.632 82.248H218.456V83.336H224.44C223.784 86.408 222.184 89.576 218.168 91.32C218.44 91.544 218.792 91.912 218.968 92.2C222.952 90.376 224.664 87.176 225.416 84.008C226.648 87.752 228.744 90.712 231.864 92.184C232.056 91.864 232.392 91.432 232.648 91.192C229.56 89.896 227.448 86.936 226.312 83.336H232.408ZM247.48 79.944C247.272 79.304 246.76 78.328 246.344 77.56L245.32 77.96C245.736 78.728 246.216 79.768 246.44 80.408L247.48 79.944ZM253.08 81.48V80.44H239.384V81.48H243.768C243.576 85.16 243.16 89.368 239.016 91.416C239.288 91.608 239.624 91.976 239.784 92.248C242.824 90.664 244.024 87.992 244.536 85.144H250.344C250.056 88.888 249.752 90.456 249.288 90.872C249.096 91.032 248.888 91.064 248.536 91.064C248.12 91.064 247 91.048 245.864 90.936C246.056 91.224 246.2 91.656 246.232 91.976C247.304 92.04 248.344 92.072 248.888 92.04C249.48 91.992 249.848 91.896 250.184 91.528C250.824 90.904 251.128 89.192 251.464 84.648C251.48 84.488 251.496 84.12 251.496 84.12H244.696C244.808 83.24 244.888 82.36 244.936 81.48H253.08ZM264.872 84.584L263.016 85.144V81.88H264.856V80.872H263.016V77.64H261.992V80.872H259.736V81.88H261.992V85.432C261.064 85.72 260.2 85.96 259.512 86.152L259.816 87.192C260.472 86.984 261.208 86.76 261.992 86.504V90.952C261.992 91.176 261.896 91.256 261.688 91.256C261.496 91.256 260.824 91.256 260.072 91.24C260.216 91.528 260.376 91.944 260.424 92.216C261.464 92.216 262.088 92.2 262.488 92.024C262.872 91.848 263.016 91.576 263.016 90.936V86.184L265 85.544L264.872 84.584ZM270.136 90.024V86.6H272.936V90.024H270.136ZM266.456 86.6H269.128V90.024H266.456V86.6ZM269.128 82.328V85.592H266.456V82.328H269.128ZM272.936 82.328V85.592H270.136V82.328H272.936ZM270.136 81.304V77.656H269.128V81.304H265.448V92.168H266.456V91.032H272.936V92.056H273.992V81.304H270.136Z" fill="white"/>
</svg>
