<svg width="288" height="341" viewBox="0 0 288 341" fill="none" xmlns="http://www.w3.org/2000/svg">
<path d="M68.2 328.56V329.88H59.9V328.56H68.2ZM59.9 333.12V331.68H68.2V333.12H59.9ZM57.52 335.78H59.9V335.08H68.2V335.76H70.7V326.58H57.52V335.78ZM67.04 320.78C66.82 321.56 66.46 322.5 66.14 323.24H62.02C61.88 322.52 61.48 321.54 61 320.78H67.04ZM68.74 323.24C69.06 322.62 69.4 321.92 69.74 321.18L67.9 320.78H72.04V318.68H65.6C65.4 318.08 65.1 317.4 64.76 316.84L62.28 317.24C62.5 317.66 62.74 318.18 62.9 318.68H56.16V320.78H60.56L58.62 321.16C58.94 321.78 59.24 322.56 59.42 323.24H55.04V325.36H72.98V323.24H68.74ZM81.1 326.94C80.98 325.96 80.7 324.52 80.38 323.38L78.88 323.72C78.98 324.12 79.08 324.56 79.16 325.02L77.58 325.18C78.84 323.78 80.1 322.12 81.04 320.48L79.36 319.56C79.1 320.14 78.76 320.72 78.44 321.28L77.4 321.36C78.1 320.34 78.78 319.1 79.28 317.94L77.44 317.3C77 318.82 76.12 320.38 75.84 320.8C75.56 321.22 75.3 321.52 75 321.58C75.22 322.06 75.52 322.92 75.62 323.3C75.84 323.18 76.2 323.08 77.38 322.92C76.88 323.62 76.44 324.16 76.24 324.4C75.74 324.98 75.36 325.36 74.94 325.46C75.16 325.92 75.46 326.84 75.56 327.18C75.9 327.02 76.46 326.88 79.42 326.48C79.46 326.78 79.5 327.06 79.52 327.3L81.1 326.94ZM80.2 330.6C78.98 331.76 76.66 332.76 74.44 333.2C74.94 333.66 75.64 334.58 76 335.16C78.38 334.5 80.72 333.04 82.12 331.32L80.2 330.6ZM93 330V328.04H85.26V327.08H82.88V328.04H74.96V330H82.88V335.68H85.26V330H93ZM86.28 331.84C88.06 332.82 90.42 334.32 91.52 335.3L93.04 333.6C91.84 332.64 89.42 331.24 87.68 330.36L86.28 331.84ZM84.74 321.88H83.24V320.54H84.74V321.88ZM84.74 324.9H83.24V323.5H84.74V324.9ZM84.68 318.8L85.32 317.28L83.16 316.92C83.12 317.46 82.98 318.16 82.82 318.8H81.22V326.64H86.84V318.8H84.68ZM90.88 323.98C90.98 324.36 91.08 324.78 91.18 325.22L89.62 325.36C90.92 323.98 92.2 322.28 93.2 320.64L91.48 319.66C91.22 320.2 90.92 320.74 90.64 321.24L89.3 321.36C90 320.32 90.72 319.06 91.2 317.82L89.28 317.28C88.84 318.82 87.94 320.42 87.66 320.84C87.4 321.26 87.12 321.56 86.84 321.64C87.06 322.12 87.36 323 87.46 323.4C87.7 323.26 88.1 323.16 89.48 322.96C88.96 323.7 88.5 324.26 88.28 324.5C87.78 325.06 87.4 325.44 86.98 325.54C87.2 326.02 87.5 326.96 87.6 327.34C87.94 327.16 88.52 327.04 91.5 326.72C91.54 327 91.58 327.26 91.6 327.5L93.2 327.08C93.04 326.14 92.7 324.7 92.36 323.6L90.88 323.98ZM99.04 330.24V331.56H97.42V330.24H99.04ZM100.88 333.2V328.62H95.5V333.9H97.42V333.2H100.88ZM103.9 324.66C104.46 324.96 105.28 325.44 105.68 325.76H103.9V324.66ZM109.6 322.98H107.48V324.5C107.48 326.94 107.14 330.8 104.02 333.68V333.6V327.8H105.88V325.76H105.72C106.36 324.78 106.9 323.48 107.36 322.04H111.02C110.84 323.3 110.6 324.58 110.4 325.46L112.26 326C112.7 324.56 113.2 322.28 113.52 320.3L111.92 319.86L111.6 319.96H107.94C108.14 319.12 108.3 318.28 108.44 317.42L106.18 317.04C105.8 319.8 105.04 322.56 103.9 324.34V319.8H105.06V317.8H94.86V319.8H101.8V325.76H94.64V327.8H101.92V333.56C101.92 333.78 101.84 333.84 101.58 333.86C101.34 333.86 100.48 333.86 99.74 333.82C99.98 334.3 100.28 334.98 100.38 335.5C101.64 335.5 102.54 335.48 103.18 335.22C103.62 335.04 103.84 334.8 103.94 334.4C104.38 334.8 104.84 335.38 105.06 335.8C106.96 334.18 108.1 332.26 108.74 330.36C109.56 332.5 110.68 334.16 112.38 335.7C112.66 335.06 113.3 334.36 113.88 333.94C111.52 332.02 110.36 329.74 109.56 325.98C109.58 325.46 109.6 325 109.6 324.54V322.98ZM98.8 323.44H97.28V322.12H98.8V323.44ZM95.6 320.58V324.96H100.6V320.58H95.6ZM129.48 320.76H124.74V319.56H129.48V320.76ZM129.48 323.66H124.74V322.44H129.48V323.66ZM131.9 317.74H122.46V325.46H131.9V317.74ZM118.94 320.98V328.34H117.52V320.98H118.94ZM121.12 318.8H115.38V332.3H117.52V330.52H121.12V318.8ZM124.24 333.02V331.7H130.1V333.02H124.24ZM130.1 328.54V329.76H124.24V328.54H130.1ZM121.88 326.54V335.74H124.24V335.02H130.1V335.64H132.56V326.54H121.88ZM141.34 325.56L139.5 326.02V323.06H141.46V320.86H139.5V317.06H137.14V320.86H134.84V323.06H137.14V326.6C136.18 326.84 135.32 327.04 134.58 327.18L135.2 329.44L137.14 328.96V333.08C137.14 333.38 137.06 333.48 136.76 333.48C136.5 333.48 135.68 333.48 134.9 333.46C135.18 334.08 135.48 335.02 135.58 335.62C136.98 335.62 137.94 335.56 138.6 335.2C139.28 334.82 139.5 334.26 139.5 333.1V328.32C140.22 328.14 140.94 327.94 141.64 327.74L141.34 325.56ZM149.7 326.64C149.1 328 148.24 329.18 147.2 330.18C146.2 329.16 145.4 327.96 144.84 326.64H149.7ZM151.2 324.4L150.78 324.5H148.38V322.1H152.86V319.9H148.38V317.04H146.02V319.9H141.72V322.1H146.02V324.5H142.08V326.64H143.12L142.52 326.82C143.24 328.66 144.18 330.24 145.36 331.58C143.96 332.48 142.34 333.12 140.58 333.54C141.02 334.06 141.6 335.06 141.86 335.7C143.8 335.12 145.56 334.32 147.12 333.24C148.5 334.36 150.16 335.18 152.1 335.76C152.44 335.14 153.12 334.18 153.62 333.7C151.84 333.26 150.3 332.6 149 331.68C150.68 330 151.96 327.82 152.72 325.04L151.2 324.4ZM159.78 321.94H162.04V319.58H154.72V321.94H157.36V329.56C156.28 329.76 155.28 329.92 154.46 330.06L154.98 332.5C157.12 332.06 159.94 331.48 162.58 330.86L162.36 328.6C161.5 328.76 160.64 328.94 159.78 329.1V321.94ZM173.3 320.62V318.22H162.32V320.62H164.78C164.36 322.88 163.8 325.3 163.32 327H170.24C170 330.62 169.72 332.44 169.2 332.88C168.92 333.1 168.62 333.12 168.16 333.12C167.48 333.12 165.9 333.1 164.32 332.98C164.86 333.68 165.26 334.7 165.3 335.44C166.74 335.48 168.2 335.52 169.04 335.44C170.02 335.34 170.7 335.14 171.32 334.42C172.12 333.54 172.48 331.28 172.78 325.76L172.84 324.7H166.44C166.72 323.44 167.02 322 167.26 320.62H173.3ZM188 326.4H189.38L189.22 326.48C189.44 326.68 189.68 326.9 189.92 327.14L188 327.16V326.4ZM183.46 325.08V324.26H185.7V325.08H183.46ZM183.46 322.2H185.7V323.02H183.46V322.2ZM190.28 322.2V323.02H188V322.2H190.28ZM190.28 325.08H188V324.26H190.28V325.08ZM190.8 328.78L191.4 328.76C191.58 329 191.76 329.22 191.88 329.42L193.58 328.48C193.16 327.88 192.42 327.1 191.68 326.4H192.56V320.9H188V320.14H193.14V318.42H188V317.2H185.7V318.42H180.82L181.04 317.84L178.78 317.12C177.76 319.98 176.04 322.82 174.24 324.62C174.64 325.18 175.28 326.5 175.5 327.08C175.96 326.6 176.42 326.06 176.86 325.48V335.7H179.12V321.96C179.62 321.06 180.08 320.12 180.48 319.2V320.14H185.7V320.9H181.28V326.4H185.7V327.2C183.72 327.22 181.9 327.24 180.48 327.24L180.68 329.02C182.8 328.98 185.62 328.92 188.52 328.84V329.7H180.06V331.5H182.84L181.82 332.14C182.7 332.96 183.7 334.12 184.16 334.88L186.04 333.68C185.62 333.06 184.82 332.22 184.06 331.5H188.52V333.5C188.52 333.72 188.42 333.8 188.12 333.82C187.84 333.82 186.82 333.82 185.9 333.78C186.18 334.36 186.46 335.16 186.56 335.76C188 335.76 189.06 335.76 189.82 335.46C190.6 335.16 190.8 334.62 190.8 333.56V331.5H193.34V329.7H190.8V328.78ZM199.24 320.46C198.94 319.62 198.44 318.3 198.08 317.26L195.9 317.88C196.26 318.94 196.74 320.34 197 321.24L199.24 320.46ZM204.96 326.96C204.48 328.38 203.3 329.88 200.32 330.96C200.88 331.42 201.64 332.26 201.98 332.76C204.56 331.6 206.06 330.12 206.84 328.6C208.42 330.04 210.14 331.64 211.04 332.7L212.7 331.04C211.68 329.98 209.78 328.36 208.18 326.96H213.08V324.8H207.72V322.62H212.44V320.46H210.12C210.66 319.62 211.24 318.68 211.76 317.76L209.36 317.06C208.98 318.08 208.36 319.42 207.72 320.46H204.74L205.84 319.98C205.48 319.24 204.72 317.98 204.16 317.1L202.16 317.88C202.6 318.68 203.16 319.68 203.52 320.46H201V322.62H205.26V324.8H200.5V326.22L199.76 325.9L199.42 326H198.28C198.76 324.64 199.28 323.08 199.7 321.72H194.78V323.84H196.9C196.4 325.34 195.88 326.92 195.42 328.04H198.1C197.78 329.22 197.36 330.46 196.88 331.42C196.14 331.76 195.24 332.52 194.4 333.54L196 335.82C196.44 334.68 197.12 333.32 197.58 333.32C197.98 333.32 198.68 333.98 199.52 334.44C200.96 335.28 202.62 335.5 205.28 335.5C207.62 335.5 211.12 335.36 212.78 335.26C212.82 334.62 213.2 333.46 213.48 332.82C211.26 333.14 207.68 333.34 205.38 333.34C203.04 333.34 201.18 333.22 199.82 332.4C199.44 332.18 199.14 331.96 198.88 331.78C199.6 330.4 200.2 328.7 200.62 326.96H204.96ZM221.04 319.78V320.82H218V319.78H221.04ZM218 323.66V322.52H221.04V323.66H218ZM223.26 317.86H215.64V335.74H218V325.56H223.26V317.86ZM226.92 323.7V322.52H230.08V323.7H226.92ZM230.08 319.78V320.82H226.92V319.78H230.08ZM232.48 317.86H224.66V325.62H230.08V332.82C230.08 333.2 229.94 333.34 229.52 333.34C229.1 333.34 227.62 333.36 226.36 333.28C226.72 333.92 227.1 335.04 227.2 335.72C229.14 335.72 230.46 335.68 231.32 335.28C232.2 334.92 232.48 334.22 232.48 332.86V317.86Z" fill="#00FF63"/>
<rect x="43.25" y="317.25" width="2.5" height="20.5" stroke="#00FF63" stroke-width="0.5"/>
<rect x="242.25" y="317.25" width="2.5" height="20.5" stroke="#00FF63" stroke-width="0.5"/>
<g clip-path="url(#clip0_91_3308)">
<path d="M143.97 285.742C106.713 285.825 70.9401 271.148 44.4767 244.923C17.873 218.788 2.7132 183.174 2.31859 145.882C1.86412 108.307 16.3319 72.0856 42.5483 45.1636C68.7647 18.2415 104.589 2.81702 142.163 2.27354H144.09C181.342 2.19102 217.11 16.8675 243.568 43.0916C270.172 69.2269 285.332 104.842 285.726 142.133C286.024 160.753 282.625 179.247 275.727 196.545C268.829 213.842 258.569 229.6 245.541 242.906C232.587 256.281 217.109 266.954 200.002 274.307C182.896 281.66 164.501 285.546 145.882 285.742H143.97Z" fill="url(#paint0_linear_91_3308)"/>
<path d="M144.045 4.51687C180.694 4.44674 215.881 18.8894 241.912 44.6875C268.144 70.3806 283.111 105.432 283.528 142.148C283.963 179.125 269.711 214.765 243.9 241.247C218.09 267.729 182.828 282.892 145.852 283.408H143.97C107.32 283.483 72.1316 269.039 46.103 243.237C19.9 217.531 4.96087 182.482 4.56212 145.777C4.1117 108.799 18.3479 73.1534 44.1473 46.6596C69.9466 20.1659 105.202 4.98822 142.178 4.45664H144.075L144.045 4.51687ZM144.075 -0.0603027H142.118C103.931 0.44746 67.5097 16.1038 40.866 43.4647C14.2223 70.8256 -0.461328 107.65 0.0451833 145.837C0.551737 183.687 15.9398 219.815 42.8802 246.406C69.8205 272.997 106.147 287.912 144 287.925H145.942C164.851 287.675 183.526 283.703 200.9 276.236C218.273 268.769 234.006 257.952 247.199 244.404C260.392 230.856 270.787 214.842 277.79 197.276C284.793 179.71 288.268 160.936 288.015 142.028C287.512 104.179 272.128 68.0506 245.19 41.4592C218.252 14.8678 181.927 -0.0478091 144.075 -0.0603027Z" fill="black"/>
<path d="M227.054 227.05C272.923 181.181 272.923 106.812 227.054 60.9428C181.185 15.0736 106.816 15.0736 60.9469 60.9428C15.0777 106.812 15.0777 181.181 60.9469 227.05C106.816 272.919 181.185 272.919 227.054 227.05Z" fill="black" stroke="white" stroke-width="0.5" stroke-miterlimit="10"/>
<g opacity="0.8">
<path opacity="0.8" d="M180.753 216.888V229.295H178.916V216.888H175.242V218.665H177.079V225.742H175.242V227.518H177.079V234.61H178.916V231.057H180.753V238.148H186.263V216.888H180.753Z" fill="white"/>
<path opacity="0.8" d="M169.732 223.98H171.568V216.888H167.895V223.98H168.542V229.295H167.895V238.148H171.568V234.61H169.732V223.98Z" fill="white"/>
<path opacity="0.8" d="M164.206 227.518H166.088V216.888H164.251L164.206 227.518Z" fill="white"/>
<path opacity="0.8" d="M160.532 222.203H162.384V216.888H160.532V218.665H159.915V220.427H160.532V222.203Z" fill="white"/>
<path opacity="0.8" d="M164.206 229.295H162.384V225.742H160.532V231.057H162.384V234.61H164.206V238.148H166.088V232.833H164.251L164.206 229.295Z" fill="white"/>
<path opacity="0.8" d="M158.695 238.148H162.384V236.387H160.532V231.057H158.695V238.148Z" fill="white"/>
<path opacity="0.8" d="M156.858 220.427V225.742H156.151V216.888H155.548V225.742H154.991V218.665H153.154V216.888H151.317V220.427H153.154V225.742H151.317V231.057H153.154V238.148H154.991V229.295H153.154V227.518H156.828V238.148H157.415V231.057H158.665V220.427H156.858Z" fill="white"/>
<path opacity="0.8" d="M145.837 238.148H147.674V234.61H145.837V238.148Z" fill="white"/>
<path opacity="0.8" d="M144 231.057V234.61H145.837V231.057H144Z" fill="white"/>
<path opacity="0.8" d="M149.526 227.518H147.689V234.61H151.363V231.057H149.526V227.518Z" fill="white"/>
<path opacity="0.8" d="M149.526 216.888H147.689V225.742H149.526V216.888Z" fill="white"/>
<path opacity="0.8" d="M138.489 216.888H136.652V220.427H138.489V216.888Z" fill="white"/>
<path opacity="0.8" d="M131.142 220.427H132.964V216.888H129.29V238.148H131.127V236.387H132.964V232.833H131.127V231.057H132.964V229.295H131.127V225.742H132.964V223.98H131.127L131.142 220.427Z" fill="white"/>
<path opacity="0.8" d="M125.631 216.888H123.794V223.98H125.631V216.888Z" fill="white"/>
<path opacity="0.8" d="M121.957 223.98V216.888H120.12V229.295H119.413V216.888H119.021V229.295H118.299V231.057H119.021V234.61H118.299V236.387H116.401V223.98H118.238V216.888H114.565V238.148H120.075V236.387H121.912V238.148H123.749V234.61H121.912V229.295H123.749V223.98H121.957ZM120.12 234.61H119.413V231.057H120.135L120.12 234.61Z" fill="white"/>
<path opacity="0.8" d="M101.737 238.148H107.262V216.888H101.737V238.148Z" fill="white"/>
<path opacity="0.8" d="M145.174 216.888H144.256V229.762H145.174V216.888Z" fill="white"/>
<path opacity="0.8" d="M142.57 216.888H141.952V238.148H142.57V216.888Z" fill="white"/>
<path opacity="0.8" d="M140.04 231.057H138.534V223.98H136.698V220.427H132.964V223.98H134.8V238.148H135.418V227.518H136.637V238.148H138.474V234.61H140.311V216.888H140.025L140.04 231.057Z" fill="white"/>
<path opacity="0.8" d="M126.595 229.295H123.794V231.057H125.631V238.148H127.468V216.888H126.595V229.295Z" fill="white"/>
<path opacity="0.8" d="M141.275 216.888H140.883V238.148H141.275V216.888Z" fill="white"/>
<path opacity="0.8" d="M174.324 216.888H173.932V227.518H172.698V216.888H172.306V227.518H171.568V231.057H172.306V238.148H172.698V231.057H173.405V238.148H177.079V236.387H175.242V227.518H174.324V216.888Z" fill="white"/>
<path opacity="0.8" d="M143.458 216.888H143.066V238.148H143.458V216.888Z" fill="white"/>
<path opacity="0.8" d="M109.972 216.888H109.355V238.148H109.972V216.888Z" fill="white"/>
<path opacity="0.8" d="M108.678 216.888H108.286V238.148H108.678V216.888Z" fill="white"/>
<path opacity="0.8" d="M110.861 216.888H110.469V238.148H110.861V216.888Z" fill="white"/>
<path opacity="0.8" d="M113.074 216.888H112.457V238.148H113.074V216.888Z" fill="white"/>
<path opacity="0.8" d="M111.779 216.888H111.388V238.148H111.779V216.888Z" fill="white"/>
<path opacity="0.8" d="M113.947 216.888H113.556V238.148H113.947V216.888Z" fill="white"/>
<path opacity="0.8" d="M167.232 216.888H166.841V238.148H167.232V216.888Z" fill="white"/>
<path opacity="0.8" d="M128.447 216.888H128.055V238.148H128.447V216.888Z" fill="white"/>
</g>
<path d="M241.415 79.8896H46.5847V208.11H241.415V79.8896Z" stroke="white" stroke-width="0.5" stroke-miterlimit="10"/>
<path d="M75.4781 239.383V48.542" stroke="white" stroke-width="0.5" stroke-miterlimit="10"/>
<path d="M212.507 48.542V239.383" stroke="white" stroke-width="0.5" stroke-miterlimit="10"/>
<path d="M95.3224 59.0664H96.0602V64.1705H98.4993V64.7879H95.3224V59.0664Z" fill="white"/>
<path d="M100.306 64.8029V62.3788L98.4843 59.0664H99.3275L100.14 60.6473C100.351 61.0689 100.532 61.4152 100.713 61.8217C100.882 61.4201 101.073 61.028 101.285 60.6473L102.113 59.0664H102.956L101.029 62.3487V64.7879L100.306 64.8029Z" fill="white"/>
<path d="M103.98 59.1568C104.477 59.0688 104.981 59.0285 105.486 59.0363C106.077 58.9737 106.67 59.1408 107.142 59.5031C107.286 59.6443 107.4 59.813 107.478 59.9992C107.555 60.1855 107.595 60.3854 107.594 60.5871C107.607 60.9231 107.507 61.2539 107.311 61.5268C107.114 61.7997 106.832 61.9989 106.509 62.0928C106.735 62.2007 106.931 62.3633 107.078 62.5657C107.225 62.7681 107.319 63.004 107.353 63.2521C107.452 63.7663 107.598 64.2702 107.789 64.7578H107.036C106.856 64.3167 106.725 63.8573 106.645 63.3876C106.479 62.6047 106.178 62.3036 105.501 62.2735H104.808V64.7578H104.055L103.98 59.1568ZM104.733 61.7615H105.486C106.269 61.7615 106.78 61.3249 106.78 60.6775C106.78 60.0301 106.238 59.6085 105.455 59.6085C105.215 59.5829 104.973 59.5829 104.733 59.6085V61.7615Z" fill="white"/>
<path d="M109.731 59.0664V64.7879H108.979V59.0664H109.731Z" fill="white"/>
<path d="M115.453 64.6223C114.975 64.8139 114.462 64.9061 113.947 64.8933C113.563 64.9163 113.178 64.8564 112.819 64.7174C112.46 64.5785 112.136 64.3638 111.867 64.0881C111.598 63.8124 111.392 63.482 111.263 63.1195C111.134 62.757 111.084 62.3709 111.117 61.9874C111.095 61.5862 111.158 61.185 111.302 60.8098C111.445 60.4346 111.666 60.0939 111.95 59.8098C112.234 59.5257 112.575 59.3047 112.95 59.161C113.326 59.0174 113.727 58.9544 114.128 58.9761C114.593 58.9555 115.057 59.0431 115.483 59.2321L115.302 59.8343C114.938 59.6738 114.541 59.5966 114.143 59.6085C113.835 59.5914 113.528 59.6414 113.242 59.7551C112.955 59.8689 112.697 60.0435 112.485 60.267C112.273 60.4905 112.112 60.7575 112.014 61.0493C111.915 61.3412 111.881 61.651 111.915 61.9573C111.881 62.2596 111.914 62.5655 112.011 62.8537C112.108 63.142 112.267 63.4056 112.476 63.6263C112.685 63.8471 112.94 64.0195 113.223 64.1317C113.506 64.2439 113.809 64.2931 114.113 64.276C114.527 64.2793 114.937 64.1973 115.317 64.0351L115.453 64.6223Z" fill="white"/>
<path d="M116.703 63.8997C117.101 64.1446 117.56 64.2749 118.028 64.2761C118.78 64.2761 119.217 63.8847 119.217 63.2975C119.217 62.7103 118.916 62.4543 118.148 62.1532C117.38 61.852 116.642 61.3401 116.642 60.5421C116.661 60.32 116.724 60.104 116.828 59.907C116.932 59.7099 117.075 59.5359 117.248 59.3953C117.421 59.2547 117.62 59.1505 117.835 59.0888C118.049 59.0272 118.273 59.0094 118.494 59.0365C118.934 59.0196 119.37 59.1183 119.759 59.3225L119.563 59.9248C119.225 59.7445 118.847 59.6513 118.464 59.6538C117.681 59.6538 117.395 60.1206 117.395 60.512C117.395 60.9035 117.742 61.31 118.525 61.6111C119.307 61.9123 120.03 62.4543 120.03 63.2975C120.03 64.1406 119.368 64.9537 118.012 64.9537C117.485 64.9693 116.964 64.8391 116.507 64.5773L116.703 63.8997Z" fill="white"/>
<path d="M127.227 64.8031L126.685 64.246C126.463 64.4587 126.201 64.6254 125.914 64.7365C125.627 64.8477 125.321 64.901 125.014 64.8934C124.791 64.9143 124.567 64.8887 124.354 64.8181C124.142 64.7475 123.947 64.6335 123.782 64.4833C123.616 64.3332 123.483 64.1503 123.392 63.9461C123.301 63.7419 123.253 63.521 123.252 63.2974C123.261 62.9383 123.373 62.5891 123.572 62.2906C123.772 61.9921 124.053 61.7564 124.381 61.6111C124.09 61.2754 123.92 60.8509 123.9 60.4066C123.897 60.2122 123.935 60.0195 124.011 59.8405C124.087 59.6616 124.199 59.5004 124.341 59.3673C124.482 59.2342 124.65 59.132 124.833 59.0672C125.017 59.0025 125.211 58.9766 125.405 58.9913C125.57 58.983 125.734 59.0086 125.888 59.0664C126.042 59.1242 126.183 59.2129 126.302 59.3272C126.42 59.4415 126.514 59.5789 126.577 59.7309C126.641 59.8829 126.672 60.0462 126.67 60.2109C126.67 60.8131 126.324 61.2949 125.405 61.7165L126.806 63.3276C127.099 62.8069 127.288 62.2342 127.363 61.6412H128.04C127.957 62.4097 127.671 63.1423 127.212 63.7642L128.161 64.773L127.227 64.8031ZM126.324 63.8244L124.713 62.0177C124.501 62.1323 124.323 62.2989 124.194 62.5018C124.065 62.7046 123.989 62.937 123.975 63.177C123.971 63.3317 123.998 63.4856 124.056 63.6292C124.114 63.7727 124.2 63.9029 124.31 64.0116C124.42 64.1204 124.552 64.2053 124.696 64.2611C124.84 64.317 124.995 64.3426 125.149 64.3363C125.369 64.3341 125.587 64.2877 125.788 64.1997C125.99 64.1118 126.172 63.9841 126.324 63.8244ZM124.577 60.3313C124.6 60.7127 124.754 61.0745 125.014 61.3552C125.601 61.0239 125.962 60.7077 125.962 60.2259C125.971 60.1333 125.96 60.0399 125.93 59.9516C125.901 59.8634 125.854 59.7821 125.792 59.7129C125.729 59.6437 125.654 59.588 125.569 59.5494C125.485 59.5107 125.393 59.4899 125.3 59.4882C125.196 59.4916 125.093 59.5167 124.999 59.5619C124.905 59.607 124.821 59.6713 124.753 59.7506C124.685 59.8299 124.634 59.9225 124.604 60.0225C124.574 60.1225 124.565 60.2276 124.577 60.3313Z" fill="white"/>
<path d="M135.433 64.6223C134.956 64.8177 134.443 64.9101 133.927 64.8933C133.543 64.9163 133.158 64.8564 132.799 64.7174C132.44 64.5785 132.115 64.3638 131.847 64.0881C131.578 63.8124 131.372 63.482 131.243 63.1195C131.113 62.757 131.064 62.3709 131.097 61.9874C131.075 61.5862 131.138 61.185 131.282 60.8098C131.425 60.4346 131.646 60.0939 131.93 59.8098C132.214 59.5257 132.555 59.3047 132.93 59.161C133.306 59.0174 133.707 58.9544 134.108 58.9761C134.573 58.9555 135.037 59.0431 135.463 59.2321L135.282 59.8343C134.917 59.6752 134.521 59.5981 134.123 59.6085C133.815 59.5914 133.508 59.6414 133.222 59.7551C132.935 59.8689 132.677 60.0435 132.465 60.267C132.253 60.4905 132.092 60.7575 131.994 61.0493C131.895 61.3412 131.861 61.651 131.895 61.9573C131.859 62.2601 131.89 62.5671 131.986 62.8566C132.082 63.146 132.24 63.4108 132.45 63.6321C132.66 63.8534 132.916 64.0258 133.2 64.1371C133.484 64.2484 133.789 64.2958 134.093 64.276C134.506 64.2764 134.916 64.1945 135.297 64.0351L135.433 64.6223Z" fill="white"/>
<path d="M141.501 61.882C141.55 62.2586 141.518 62.6414 141.408 63.0048C141.297 63.3682 141.11 63.7037 140.859 63.9888C140.608 64.274 140.299 64.5022 139.953 64.6582C139.606 64.8142 139.231 64.8943 138.851 64.8933C138.485 64.8891 138.124 64.8085 137.792 64.6565C137.459 64.5046 137.162 64.2847 136.919 64.011C136.677 63.7372 136.494 63.4158 136.384 63.0673C136.273 62.7187 136.236 62.3509 136.276 61.9874C136.236 61.6125 136.275 61.2334 136.389 60.8741C136.504 60.5149 136.691 60.1833 136.94 59.9003C137.189 59.6172 137.494 59.389 137.836 59.2299C138.178 59.0708 138.549 58.9844 138.926 58.9761C139.292 58.9802 139.653 59.0608 139.985 59.2128C140.318 59.3647 140.615 59.5846 140.857 59.8584C141.1 60.1321 141.282 60.4536 141.393 60.8021C141.504 61.1506 141.541 61.5184 141.501 61.882ZM136.984 61.9723C136.984 63.1919 137.646 64.291 138.821 64.291C139.995 64.291 140.642 63.2069 140.642 61.9121C140.642 60.6172 140.055 59.5783 138.821 59.5783C137.586 59.5783 137.059 60.7076 137.059 61.9723H136.984Z" fill="white"/>
<path d="M142.886 59.1417C143.384 59.0631 143.887 59.0278 144.391 59.0363C144.963 58.9921 145.53 59.1581 145.987 59.5031C146.158 59.6524 146.293 59.8382 146.381 60.0468C146.47 60.2554 146.51 60.4812 146.499 60.7076C146.511 60.9309 146.477 61.1543 146.4 61.364C146.322 61.5737 146.202 61.7654 146.048 61.9272C145.815 62.1458 145.54 62.3146 145.24 62.4233C144.939 62.5321 144.62 62.5784 144.301 62.5595C144.101 62.5762 143.899 62.5762 143.699 62.5595V64.8481H142.961L142.886 59.1417ZM143.624 61.9121C143.829 61.9299 144.036 61.9299 144.241 61.9121C145.129 61.9121 145.747 61.4905 145.747 60.6925C145.747 59.8945 145.204 59.5783 144.391 59.5783C144.157 59.5465 143.919 59.5465 143.684 59.5783L143.624 61.9121Z" fill="white"/>
<path d="M152.537 62.2886C152.537 61.4906 152.447 60.527 152.447 59.8193C152.246 60.4818 152.005 61.2045 151.724 61.9875L150.7 64.7729H150.143L149.225 62.0477C148.96 61.3186 148.739 60.5745 148.562 59.8193C148.562 60.527 148.562 61.4906 148.457 62.3488L148.306 64.803H147.598L148.005 59.0815H148.938L149.917 61.8519C150.158 62.5445 150.354 63.1769 150.504 63.7792C150.655 63.192 150.851 62.5747 151.107 61.8519L152.13 59.0815H153.079L153.425 64.803H152.703L152.537 62.2886Z" fill="white"/>
<path d="M154.991 59.1417C155.464 59.0673 155.943 59.032 156.422 59.0363C156.993 58.9921 157.56 59.1581 158.018 59.5031C158.188 59.6524 158.323 59.8382 158.411 60.0468C158.5 60.2554 158.54 60.4812 158.529 60.7076C158.541 60.9309 158.507 61.1543 158.43 61.364C158.352 61.5737 158.232 61.7654 158.078 61.9272C157.845 62.1458 157.57 62.3146 157.27 62.4233C156.969 62.5321 156.65 62.5784 156.331 62.5595C156.131 62.5762 155.929 62.5762 155.729 62.5595V64.8481H154.991V59.1417ZM155.729 61.9121C155.934 61.9299 156.141 61.9299 156.346 61.9121C157.235 61.9121 157.852 61.4905 157.852 60.6925C157.852 59.8945 157.31 59.5783 156.497 59.5783C156.262 59.5465 156.024 59.5465 155.789 59.5783L155.729 61.9121Z" fill="white"/>
<path d="M164.838 61.882C164.885 62.2594 164.851 62.6426 164.739 63.0059C164.626 63.3693 164.438 63.7045 164.186 63.9894C163.933 64.2742 163.624 64.5021 163.277 64.658C162.93 64.8138 162.554 64.894 162.173 64.8933C161.808 64.8869 161.448 64.8047 161.117 64.652C160.785 64.4993 160.489 64.2793 160.247 64.0061C160.005 63.7329 159.823 63.4124 159.711 63.0649C159.599 62.7174 159.561 62.3504 159.598 61.9874C159.559 61.6112 159.598 61.2309 159.713 60.8707C159.828 60.5104 160.017 60.1781 160.268 59.8948C160.518 59.6116 160.825 59.3836 161.169 59.2254C161.513 59.0673 161.885 58.9823 162.263 58.9761C162.629 58.9802 162.99 59.0608 163.323 59.2128C163.655 59.3647 163.952 59.5846 164.195 59.8584C164.437 60.1321 164.62 60.4536 164.731 60.8021C164.841 61.1506 164.878 61.5184 164.838 61.882ZM160.321 61.9723C160.321 63.1919 160.984 64.291 162.143 64.291C163.302 64.291 163.98 63.2069 163.98 61.9121C163.98 60.6172 163.393 59.5783 162.158 59.5783C160.923 59.5783 160.396 60.7076 160.396 61.9723H160.321Z" fill="white"/>
<path d="M166.088 63.8997C166.487 64.1425 166.945 64.2726 167.413 64.2761C168.181 64.2761 168.617 63.8847 168.617 63.2975C168.617 62.7103 168.316 62.4543 167.533 62.1532C166.75 61.852 166.028 61.3401 166.028 60.5421C166.046 60.32 166.109 60.104 166.214 59.907C166.318 59.7099 166.46 59.5359 166.633 59.3953C166.806 59.2547 167.006 59.1505 167.22 59.0888C167.434 59.0272 167.658 59.0094 167.879 59.0365C168.319 59.0196 168.755 59.1183 169.144 59.3225L168.949 59.9248C168.61 59.7445 168.233 59.6513 167.849 59.6538C167.067 59.6538 166.765 60.1206 166.765 60.512C166.765 60.9035 167.127 61.31 167.91 61.6111C168.693 61.9123 169.415 62.4543 169.415 63.2975C169.415 64.1406 168.768 64.9537 167.413 64.9537C166.886 64.9693 166.365 64.8391 165.907 64.5773L166.088 63.8997Z" fill="white"/>
<path d="M173.812 62.0777H171.583V64.1404H174.068V64.7577H170.846V59.0664H173.857V59.6837H171.508V61.4905H173.736L173.812 62.0777Z" fill="white"/>
<path d="M178.419 59.6988H176.627V59.0664H180.873V59.6837H179.112V64.7879H178.374L178.419 59.6988Z" fill="white"/>
<path d="M182.65 59.0664V64.7879H181.912V59.0664H182.65Z" fill="white"/>
<path d="M184.427 59.1417C184.925 59.0631 185.428 59.0278 185.932 59.0363C186.503 58.9921 187.071 59.1581 187.528 59.5031C187.699 59.6524 187.833 59.8382 187.922 60.0468C188.011 60.2554 188.051 60.4812 188.04 60.7076C188.052 60.9309 188.018 61.1543 187.94 61.364C187.863 61.5737 187.743 61.7654 187.588 61.9272C187.356 62.1458 187.081 62.3146 186.78 62.4233C186.48 62.5321 186.161 62.5784 185.842 62.5595C185.641 62.5762 185.44 62.5762 185.24 62.5595V64.8481H184.502L184.427 59.1417ZM185.164 61.9121C185.37 61.9299 185.576 61.9299 185.782 61.9121C186.67 61.9121 187.287 61.4905 187.287 60.6925C187.287 59.8945 186.745 59.5783 185.932 59.5783C185.698 59.5465 185.459 59.5465 185.225 59.5783L185.164 61.9121Z" fill="white"/>
<path d="M189.275 63.8997C189.673 64.1446 190.132 64.2749 190.6 64.2761C191.353 64.2761 191.804 63.8847 191.804 63.2975C191.804 62.7103 191.503 62.4543 190.72 62.1532C189.937 61.852 189.215 61.3401 189.215 60.5421C189.233 60.32 189.296 60.104 189.401 59.907C189.505 59.7099 189.647 59.5359 189.82 59.3953C189.993 59.2547 190.193 59.1505 190.407 59.0888C190.621 59.0272 190.845 59.0094 191.066 59.0365C191.506 59.0196 191.942 59.1183 192.331 59.3225L192.121 59.9248C191.788 59.7439 191.415 59.6506 191.036 59.6538C190.253 59.6538 189.952 60.1206 189.952 60.512C189.952 60.9035 190.299 61.31 191.097 61.6111C191.895 61.9123 192.602 62.4543 192.602 63.2975C192.602 64.1406 191.955 64.9537 190.6 64.9537C190.073 64.9693 189.552 64.8391 189.094 64.5773L189.275 63.8997Z" fill="white"/>
<path d="M199.604 52.532H88.5621V53.9322H199.604V52.532Z" fill="white"/>
<path d="M199.604 70.5095H88.5621V71.9098H199.604V70.5095Z" fill="white"/>
<path d="M223.829 98.2133C224.018 98.0043 224.251 97.8403 224.512 97.7335C224.773 97.6266 225.054 97.5796 225.335 97.5959C225.616 97.5828 225.896 97.6313 226.156 97.7379C226.416 97.8445 226.65 98.0068 226.841 98.2133C227.044 98.4308 227.202 98.6866 227.305 98.9658C227.409 99.2449 227.455 99.5419 227.443 99.8394C227.454 100.132 227.406 100.424 227.303 100.698C227.199 100.972 227.042 101.223 226.841 101.435C226.651 101.644 226.417 101.808 226.157 101.917C225.897 102.027 225.617 102.078 225.335 102.068C225.053 102.081 224.771 102.031 224.511 101.922C224.25 101.812 224.017 101.646 223.829 101.435C223.443 100.995 223.238 100.425 223.257 99.8394C223.235 99.2444 223.439 98.6632 223.829 98.2133V98.2133Z" stroke="white" stroke-width="0.25" stroke-miterlimit="10"/>
<path d="M233.842 126.58H218.379V122.816H227.654L218.379 119.353V116.341L227.669 112.863H218.379V109.099H233.842V113.616L223.137 117.952L233.842 122.243V126.58Z" stroke="white" stroke-width="0.25" stroke-miterlimit="10"/>
<path d="M233.842 132.994H224.582C223.812 132.944 223.052 133.192 222.459 133.686C222.194 133.944 221.989 134.257 221.859 134.603C221.729 134.95 221.677 135.32 221.706 135.689C221.68 136.059 221.733 136.431 221.863 136.779C221.993 137.128 222.196 137.444 222.459 137.706C222.749 137.958 223.086 138.15 223.45 138.272C223.815 138.393 224.199 138.441 224.582 138.414H233.842V142.178H224.612C223.384 142.219 222.169 141.917 221.104 141.305C220.176 140.738 219.429 139.918 218.951 138.941C218.459 137.902 218.212 136.763 218.228 135.613C218.204 134.484 218.446 133.364 218.936 132.346C219.415 131.388 220.17 130.596 221.104 130.073C222.174 129.475 223.388 129.184 224.612 129.23H233.842V132.994Z" stroke="white" stroke-width="0.25" stroke-miterlimit="10"/>
<path d="M218.785 147.388C219.12 146.534 219.682 145.79 220.411 145.235C221.172 144.691 222.082 144.396 223.016 144.391V148.396C222.518 148.419 222.048 148.635 221.706 148.999C221.393 149.361 221.232 149.83 221.255 150.309C221.23 150.782 221.368 151.249 221.646 151.634C221.771 151.795 221.934 151.924 222.121 152.008C222.307 152.092 222.511 152.129 222.715 152.115C222.889 152.123 223.062 152.093 223.223 152.028C223.384 151.963 223.529 151.864 223.649 151.739C223.917 151.468 224.127 151.145 224.266 150.79C224.481 150.269 224.667 149.736 224.823 149.194C225.071 148.353 225.383 147.533 225.757 146.74C226.068 146.095 226.533 145.537 227.112 145.114C227.804 144.634 228.634 144.396 229.475 144.437C230.119 144.4 230.762 144.517 231.352 144.779C231.941 145.041 232.459 145.44 232.863 145.942C233.72 147.119 234.151 148.553 234.083 150.007C234.154 151.481 233.724 152.935 232.863 154.133C232.454 154.648 231.934 155.065 231.343 155.354C230.752 155.644 230.103 155.797 229.445 155.804V151.724C229.67 151.722 229.893 151.672 230.098 151.579C230.302 151.486 230.485 151.35 230.635 151.182C230.929 150.811 231.079 150.345 231.056 149.872C231.073 149.474 230.945 149.083 230.695 148.773C230.563 148.633 230.401 148.524 230.221 148.453C230.041 148.383 229.849 148.353 229.656 148.366C229.415 148.361 229.178 148.423 228.97 148.545C228.763 148.668 228.594 148.846 228.482 149.059C228.107 149.764 227.804 150.506 227.578 151.272C227.31 152.1 226.988 152.91 226.615 153.696C226.293 154.335 225.83 154.891 225.26 155.322C224.604 155.795 223.809 156.034 223.001 156C222.152 156.01 221.317 155.78 220.592 155.337C219.845 154.862 219.25 154.183 218.876 153.38C218.434 152.439 218.217 151.408 218.243 150.369C218.234 149.35 218.418 148.338 218.785 147.388V147.388Z" stroke="white" stroke-width="0.25" stroke-miterlimit="10"/>
<path d="M233.842 162.143H218.379V158.439H233.842V162.143Z" stroke="white" stroke-width="0.25" stroke-miterlimit="10"/>
<path d="M230.198 165.23C231.378 165.865 232.35 166.827 232.999 168C233.687 169.226 234.036 170.614 234.007 172.02C234.043 173.715 233.513 175.373 232.502 176.733C231.532 178.045 230.129 178.973 228.542 179.353V175.212C229.164 174.936 229.689 174.48 230.048 173.902C230.388 173.317 230.565 172.652 230.56 171.975C230.578 171.444 230.479 170.916 230.268 170.429C230.057 169.942 229.74 169.508 229.34 169.159C228.437 168.402 227.28 168.015 226.103 168.075C224.925 168.013 223.768 168.401 222.866 169.159C222.466 169.508 222.149 169.942 221.938 170.429C221.727 170.916 221.627 171.444 221.646 171.975C221.64 172.652 221.817 173.317 222.158 173.902C222.513 174.483 223.039 174.941 223.664 175.212V179.353C222.076 178.973 220.674 178.045 219.704 176.733C218.699 175.369 218.17 173.714 218.198 172.02C218.177 170.615 218.525 169.229 219.207 168C219.854 166.831 220.82 165.87 221.992 165.23C223.244 164.551 224.65 164.209 226.073 164.236C227.511 164.202 228.933 164.545 230.198 165.23V165.23Z" stroke="white" stroke-width="0.25" stroke-miterlimit="10"/>
<path d="M223.829 186.7C224.017 186.489 224.25 186.323 224.511 186.214C224.771 186.104 225.053 186.054 225.335 186.068C225.617 186.058 225.897 186.109 226.157 186.218C226.417 186.327 226.651 186.492 226.841 186.7C227.044 186.918 227.202 187.174 227.305 187.453C227.409 187.732 227.455 188.029 227.443 188.326C227.454 188.619 227.406 188.911 227.303 189.185C227.199 189.459 227.042 189.71 226.841 189.922C226.65 190.129 226.416 190.291 226.156 190.398C225.896 190.504 225.616 190.553 225.335 190.54C225.054 190.556 224.773 190.509 224.512 190.402C224.251 190.295 224.018 190.131 223.829 189.922C223.443 189.482 223.238 188.912 223.257 188.326C223.235 187.731 223.439 187.15 223.829 186.7V186.7Z" stroke="white" stroke-width="0.25" stroke-miterlimit="10"/>
<path d="M64.2008 189.832C64.0127 190.043 63.7801 190.209 63.5196 190.318C63.2591 190.428 62.9773 190.478 62.6951 190.464C62.4133 190.474 62.1326 190.423 61.8726 190.314C61.6126 190.205 61.3795 190.04 61.1895 189.832C60.7887 189.387 60.5778 188.804 60.6022 188.206C60.5809 187.617 60.7919 187.044 61.1895 186.61C61.3802 186.403 61.6138 186.241 61.8739 186.134C62.134 186.028 62.4143 185.979 62.6951 185.992C62.9763 185.976 63.2576 186.023 63.5182 186.13C63.7787 186.237 64.012 186.401 64.2008 186.61C64.5984 187.044 64.8093 187.617 64.788 188.206C64.8124 188.804 64.6016 189.387 64.2008 189.832V189.832Z" stroke="white" stroke-width="0.25" stroke-miterlimit="10"/>
<path d="M54.2032 161.45H69.7265V165.215H60.4517L69.7265 168.678V171.689L60.4215 175.167H69.7265V178.931H54.2484V174.414L64.9535 170.063L54.2484 165.772L54.2032 161.45Z" stroke="white" stroke-width="0.25" stroke-miterlimit="10"/>
<path d="M54.2032 155.006H63.4629C64.2354 155.056 64.9985 154.815 65.601 154.329C65.8623 154.065 66.0645 153.749 66.1943 153.401C66.3241 153.053 66.3785 152.682 66.3539 152.311C66.3766 151.941 66.3212 151.57 66.1916 151.222C66.0619 150.875 65.8607 150.558 65.601 150.294C65.0067 149.79 64.2403 149.536 63.4629 149.586H54.2032V145.822H63.4328C64.661 145.778 65.8768 146.081 66.9411 146.695C67.8776 147.263 68.6304 148.089 69.1091 149.074C69.6018 150.108 69.8491 151.241 69.8318 152.386C69.8509 153.517 69.6034 154.636 69.1091 155.654C68.6417 156.618 67.8905 157.417 66.9561 157.942C65.8759 158.526 64.6598 158.811 63.4328 158.77H54.2032V155.006Z" stroke="white" stroke-width="0.25" stroke-miterlimit="10"/>
<path d="M69.2747 140.612C68.9452 141.468 68.3818 142.214 67.6487 142.765C66.8918 143.316 65.9796 143.611 65.0439 143.609V139.604C65.5388 139.579 66.0065 139.37 66.3538 139.016C66.6639 138.646 66.825 138.174 66.8056 137.691C66.8344 137.22 66.7017 136.753 66.4292 136.367C66.3007 136.209 66.1371 136.083 65.9515 135.999C65.766 135.916 65.5634 135.876 65.3601 135.885C65.1843 135.876 65.0087 135.905 64.8451 135.97C64.6815 136.035 64.5336 136.134 64.4115 136.261C64.1476 136.535 63.9383 136.857 63.7943 137.21C63.5816 137.732 63.3955 138.265 63.2371 138.806C62.9938 139.646 62.6868 140.466 62.3186 141.26C61.9978 141.903 61.5282 142.461 60.9486 142.886C60.2614 143.364 59.4358 143.602 58.5997 143.563C57.956 143.6 57.3128 143.483 56.7236 143.221C56.1343 142.959 55.6161 142.56 55.212 142.058C54.357 140.874 53.9273 139.436 53.9925 137.978C53.9218 136.504 54.3515 135.05 55.212 133.852C55.6179 133.336 56.1344 132.919 56.7234 132.629C57.3123 132.34 57.9587 132.187 58.6148 132.181V136.261C58.3922 136.265 58.1729 136.316 57.9708 136.409C57.7686 136.502 57.588 136.637 57.4404 136.803C57.1429 137.174 56.9882 137.638 57.0038 138.113C56.9869 138.511 57.1153 138.902 57.3652 139.212C57.4999 139.354 57.6638 139.466 57.8458 139.539C58.0278 139.611 58.2233 139.644 58.4191 139.634C58.6589 139.635 58.8942 139.569 59.0989 139.444C59.3036 139.319 59.4697 139.14 59.5784 138.926C59.9625 138.225 60.2656 137.482 60.4818 136.713C60.7547 135.884 61.0817 135.074 61.4605 134.289C61.7727 133.649 62.2319 133.091 62.8005 132.663C63.4605 132.187 64.2616 131.949 65.0741 131.985C65.9183 131.978 66.7476 132.207 67.468 132.648C68.2148 133.123 68.8102 133.802 69.1845 134.605C69.6371 135.543 69.859 136.575 69.8318 137.616C69.8469 138.642 69.6576 139.661 69.2747 140.612V140.612Z" stroke="white" stroke-width="0.25" stroke-miterlimit="10"/>
<path d="M54.2032 125.857H69.7265V129.621H54.2484L54.2032 125.857Z" stroke="white" stroke-width="0.25" stroke-miterlimit="10"/>
<path d="M57.8319 122.77C56.6584 122.126 55.6884 121.166 55.0314 120C54.3548 118.77 54.0122 117.384 54.0376 115.98C54.0092 114.286 54.5382 112.631 55.5433 111.267C56.5189 109.954 57.9263 109.026 59.5182 108.647V112.788C58.8967 113.064 58.3722 113.521 58.0125 114.098C57.6667 114.681 57.4896 115.348 57.5007 116.025C57.4839 116.556 57.5829 117.084 57.7909 117.573C57.9989 118.062 58.311 118.5 58.7053 118.856C59.6159 119.598 60.7684 119.979 61.9422 119.925C63.121 119.981 64.2792 119.601 65.1945 118.856C65.5887 118.5 65.9007 118.062 66.1087 117.573C66.3167 117.084 66.4159 116.556 66.3991 116.025C66.4102 115.348 66.2328 114.681 65.887 114.098C65.5274 113.521 65.0029 113.064 64.3814 112.788V108.647C65.9704 109.023 67.3739 109.952 68.3412 111.267C69.3463 112.631 69.8753 114.286 69.8469 115.98C69.8749 117.386 69.5268 118.774 68.8382 120C68.1912 121.169 67.2252 122.13 66.0528 122.77C64.8014 123.449 63.3955 123.791 61.9724 123.764C60.5293 123.798 59.1023 123.456 57.8319 122.77V122.77Z" stroke="white" stroke-width="0.25" stroke-miterlimit="10"/>
<path d="M64.2007 101.3C64.0127 101.511 63.78 101.677 63.5195 101.786C63.2591 101.896 62.9773 101.946 62.695 101.932C62.4132 101.943 62.1326 101.891 61.8726 101.782C61.6126 101.673 61.3794 101.508 61.1894 101.3C60.8321 100.854 60.6549 100.29 60.6926 99.719C60.6722 99.1262 60.8827 98.5486 61.2798 98.1079C61.4724 97.9038 61.7063 97.7432 61.9659 97.6368C62.2256 97.5303 62.505 97.4805 62.7855 97.4906C63.0663 97.4775 63.3466 97.5259 63.6067 97.6326C63.8668 97.7392 64.1004 97.9015 64.2911 98.1079C64.6882 98.5486 64.8988 99.1262 64.8783 99.719C64.8666 100.314 64.6235 100.881 64.2007 101.3V101.3Z" stroke="white" stroke-width="0.25" stroke-miterlimit="10"/>
<path d="M148.366 18.1128C148.168 17.9185 148.015 17.6827 147.919 17.4224C147.823 17.1621 147.785 16.8837 147.809 16.6072C147.808 16.3208 147.869 16.0376 147.988 15.7775C148.108 15.5173 148.283 15.2866 148.502 15.1015C148.97 14.7169 149.569 14.528 150.173 14.5746C150.471 14.5768 150.765 14.6378 151.039 14.7541C151.313 14.8704 151.561 15.0396 151.769 15.2521C151.959 15.4521 152.107 15.6887 152.203 15.9476C152.298 16.2065 152.34 16.4821 152.326 16.7577C152.32 17.0313 152.254 17.3001 152.131 17.5448C152.009 17.7895 151.834 18.0041 151.619 18.1731C151.163 18.5588 150.573 18.7483 149.978 18.7C149.385 18.7189 148.808 18.5086 148.366 18.1128Z" fill="#060606"/>
<path d="M180.03 26.4241L174.414 24.8131L172.743 27.2071L168.903 26.1079L178.675 12.5571L182.921 13.7767L184.05 30.3388L180.166 29.2246L180.03 26.4241ZM179.895 23.3225L179.624 17.2999L176.191 22.2836L179.895 23.3225Z" fill="#060606"/>
<path d="M216.602 36.7077C215.811 37.1376 214.909 37.3211 214.012 37.2347C212.933 37.1123 211.9 36.7299 211.001 36.1205L208.999 34.8708L205.987 39.6437L202.75 37.6412L211.031 24.3313L216.271 27.5986C217.22 28.1435 218.026 28.9075 218.62 29.8269C219.11 30.5829 219.357 31.4709 219.327 32.3715C219.278 33.2774 218.993 34.1547 218.499 34.916C218.036 35.6698 217.381 36.2878 216.602 36.7077ZM213.937 33.8169C214.195 33.7506 214.436 33.6322 214.645 33.4691C214.855 33.3059 215.029 33.1015 215.157 32.8683C215.311 32.6529 215.419 32.4079 215.473 32.1487C215.528 31.8895 215.528 31.6219 215.473 31.3627C215.287 30.801 214.887 30.3356 214.359 30.0678L212.597 28.9687L210.519 32.2962L212.281 33.3953C212.516 33.5711 212.783 33.6988 213.067 33.7712C213.351 33.8435 213.647 33.859 213.937 33.8169Z" fill="#060606"/>
<path d="M241.475 58.7351C240.601 58.9386 239.686 58.8863 238.841 58.5846C237.797 58.1961 236.865 57.5546 236.131 56.7176L234.504 54.9861L230.409 58.8405L227.819 56.0551L239.232 45.3198L243.463 49.8368C244.236 50.611 244.818 51.5543 245.164 52.5921C245.435 53.4496 245.435 54.3695 245.164 55.227C244.876 56.1019 244.355 56.8823 243.659 57.4854C243.049 58.0808 242.298 58.5109 241.475 58.7351ZM239.624 55.2571C239.903 55.2721 240.183 55.226 240.443 55.122C240.703 55.018 240.937 54.8586 241.129 54.6548C241.331 54.4821 241.497 54.2704 241.616 54.0325C241.735 53.7945 241.805 53.5351 241.822 53.2696C241.77 52.6908 241.501 52.1529 241.069 51.764L239.654 50.2583L236.793 52.9535L238.208 54.4591C238.568 54.8871 239.071 55.1705 239.624 55.2571Z" fill="#060606"/>
<path d="M260.356 78.8055L257.586 80.3112L260.055 84.8281L257.48 86.3337L255.011 81.8168L252 83.4881L254.801 88.532L252.136 90.0377L247.483 81.6361L261.184 74.1079L265.837 82.4943L263.157 84L260.356 78.8055Z" fill="#060606"/>
<path d="M276 114.775C275.676 116.089 274.987 117.285 274.013 118.223C272.961 119.192 271.673 119.867 270.278 120.181C268.897 120.55 267.444 120.55 266.063 120.181C264.756 119.815 263.584 119.078 262.69 118.058C261.715 116.919 261.033 115.56 260.703 114.098L259.302 108.391L274.509 104.657L276 110.258C276.382 111.74 276.382 113.294 276 114.775ZM265.807 116.04C266.34 116.339 266.929 116.527 267.537 116.591C268.146 116.656 268.76 116.597 269.345 116.417C269.955 116.312 270.538 116.083 271.056 115.743C271.574 115.404 272.016 114.962 272.356 114.444C272.657 113.906 272.844 113.311 272.906 112.697C272.969 112.084 272.904 111.464 272.718 110.876L272.296 109.114L263.458 111.297L263.879 113.059C263.992 113.659 264.225 114.229 264.564 114.736C264.903 115.244 265.341 115.677 265.852 116.01L265.807 116.04Z" fill="#060606"/>
<path d="M280.517 147.147L271.152 146.755C270.369 146.671 269.584 146.886 268.954 147.357C268.678 147.612 268.46 147.922 268.315 148.267C268.169 148.613 268.1 148.985 268.11 149.36C268.074 149.734 268.115 150.112 268.232 150.47C268.348 150.827 268.538 151.157 268.788 151.438C269.368 151.974 270.136 152.261 270.926 152.236L280.291 152.627L280.125 156.437L270.791 156.06C269.547 156.048 268.332 155.688 267.282 155.021C266.36 154.405 265.634 153.538 265.189 152.522C264.73 151.454 264.529 150.294 264.602 149.134C264.626 147.992 264.92 146.873 265.46 145.867C265.977 144.913 266.77 144.136 267.734 143.639C268.853 143.098 270.093 142.86 271.333 142.946L280.667 143.337L280.517 147.147Z" fill="#060606"/>
<path d="M265.822 176.296C266.044 176.158 266.293 176.067 266.552 176.028C266.81 175.989 267.074 176.004 267.327 176.07C267.599 176.14 267.853 176.268 268.071 176.444C268.29 176.621 268.467 176.843 268.592 177.094C268.728 177.359 268.81 177.649 268.833 177.946C268.856 178.243 268.821 178.542 268.728 178.826C268.661 179.114 268.538 179.387 268.364 179.627C268.191 179.868 267.972 180.071 267.719 180.226C267.481 180.374 267.214 180.47 266.936 180.506C266.658 180.543 266.376 180.519 266.108 180.437C265.843 180.37 265.595 180.246 265.382 180.075C265.169 179.903 264.995 179.688 264.873 179.443C264.601 178.906 264.552 178.284 264.738 177.711C264.816 177.416 264.952 177.138 265.138 176.895C265.324 176.652 265.557 176.449 265.822 176.296Z" fill="#060606"/>
<path d="M257.42 220.442L243.87 212.552L245.782 209.255L253.897 213.982L247.558 206.228L249.064 203.563L258.971 205.265L250.841 200.522L252.768 197.225L266.319 205.114L264.045 209.014L252.467 207.343L259.634 216.572L257.42 220.442Z" fill="#060606"/>
<path d="M237.967 244.02L231.689 237.079C231.207 236.454 230.498 236.043 229.716 235.935C229.342 235.913 228.968 235.973 228.62 236.111C228.271 236.249 227.957 236.461 227.699 236.733C227.403 236.964 227.16 237.255 226.986 237.587C226.812 237.92 226.711 238.285 226.69 238.66C226.709 239.451 227.039 240.203 227.608 240.753L233.887 247.709L231.056 250.268L224.808 243.327C223.948 242.427 223.354 241.307 223.092 240.09C222.877 239.009 222.987 237.888 223.408 236.868C223.85 235.793 224.535 234.834 225.41 234.068C226.245 233.286 227.25 232.708 228.346 232.381C229.382 232.066 230.488 232.066 231.523 232.381C232.693 232.796 233.732 233.513 234.534 234.459L240.798 241.4L237.967 244.02Z" fill="#060606"/>
<path d="M200.883 251.157C201.81 251.071 202.743 251.243 203.578 251.654C204.416 252.092 205.095 252.782 205.521 253.626L201.892 255.448C201.647 255.009 201.243 254.681 200.763 254.53C200.288 254.417 199.788 254.486 199.362 254.725C198.921 254.912 198.558 255.247 198.339 255.674C198.242 255.857 198.192 256.061 198.192 256.269C198.192 256.476 198.242 256.68 198.339 256.863C198.413 257.026 198.522 257.17 198.657 257.287C198.792 257.404 198.95 257.49 199.122 257.541C199.486 257.657 199.869 257.703 200.251 257.676C200.672 257.676 201.229 257.571 201.952 257.45C202.822 257.291 203.703 257.195 204.587 257.164C205.313 257.168 206.03 257.338 206.68 257.661C207.428 258.066 208.02 258.706 208.366 259.483C208.692 260.056 208.874 260.699 208.895 261.358C208.916 262.016 208.776 262.67 208.487 263.262C207.816 264.593 206.711 265.655 205.355 266.274C204.057 267.005 202.548 267.27 201.079 267.026C200.436 266.888 199.833 266.608 199.312 266.207C198.791 265.806 198.366 265.294 198.068 264.708L201.756 262.856C201.863 263.056 202.011 263.232 202.19 263.372C202.369 263.512 202.575 263.613 202.795 263.669C203.261 263.773 203.748 263.703 204.166 263.473C204.534 263.308 204.829 263.013 204.994 262.645C205.068 262.46 205.098 262.261 205.082 262.062C205.067 261.864 205.005 261.672 204.903 261.501C204.795 261.281 204.628 261.096 204.42 260.966C204.213 260.836 203.974 260.765 203.729 260.763C202.926 260.749 202.125 260.814 201.335 260.959C200.458 261.094 199.572 261.169 198.685 261.184C197.965 261.186 197.253 261.021 196.607 260.703C195.876 260.326 195.296 259.709 194.966 258.956C194.57 258.197 194.397 257.34 194.469 256.487C194.567 255.593 194.911 254.743 195.463 254.033C196.112 253.202 196.948 252.537 197.902 252.09C198.826 251.588 199.838 251.271 200.883 251.157Z" fill="#060606"/>
<path d="M175.589 276.858L171.749 261.681L175.453 260.748L179.292 275.88L175.589 276.858Z" fill="#060606"/>
<path d="M152.537 276.768C151.91 277.968 150.954 278.966 149.782 279.644C148.548 280.35 147.153 280.723 145.731 280.728C144.02 280.803 142.331 280.311 140.929 279.327C139.587 278.361 138.627 276.954 138.218 275.353H142.404C142.695 275.979 143.167 276.503 143.759 276.858C144.352 277.204 145.031 277.371 145.716 277.34C146.255 277.351 146.789 277.244 147.28 277.025C147.772 276.807 148.21 276.482 148.562 276.075C149.304 275.142 149.675 273.968 149.601 272.778C149.639 271.582 149.225 270.415 148.442 269.511C148.078 269.116 147.632 268.806 147.135 268.603C146.638 268.4 146.102 268.309 145.566 268.336C144.882 268.341 144.211 268.528 143.624 268.878C143.052 269.24 142.601 269.764 142.329 270.384H138.128C138.489 268.771 139.405 267.338 140.718 266.334C142.098 265.328 143.768 264.8 145.476 264.828C146.895 264.789 148.3 265.116 149.556 265.777C150.752 266.412 151.741 267.379 152.402 268.562C153.113 269.814 153.482 271.232 153.47 272.672C153.509 274.094 153.188 275.503 152.537 276.768Z" fill="#060606"/>
<path d="M117.516 267.297C117.666 267.515 117.77 267.76 117.821 268.019C117.873 268.278 117.872 268.545 117.817 268.803C117.76 269.078 117.647 269.338 117.483 269.566C117.32 269.795 117.111 269.986 116.868 270.128C116.339 270.432 115.711 270.513 115.122 270.354C114.82 270.306 114.53 270.197 114.272 270.034C114.013 269.871 113.79 269.657 113.616 269.405C113.457 269.175 113.348 268.914 113.297 268.639C113.245 268.364 113.251 268.082 113.315 267.809C113.374 267.539 113.489 267.285 113.653 267.062C113.816 266.839 114.024 266.652 114.263 266.514C114.781 266.223 115.392 266.147 115.965 266.304C116.278 266.354 116.577 266.468 116.844 266.639C117.111 266.81 117.339 267.034 117.516 267.297Z" fill="#060606"/>
<path d="M83.774 258.836C84.5124 258.32 85.3881 258.037 86.2885 258.023C87.3986 258.003 88.4959 258.262 89.4805 258.775L91.6186 259.784L94.0276 254.71L97.4755 256.336L90.7602 270.489L85.1744 267.839C84.1717 267.41 83.2883 266.743 82.5998 265.897C82.0228 265.207 81.6753 264.355 81.606 263.458C81.5557 262.549 81.737 261.643 82.1329 260.823C82.495 260.027 83.0612 259.342 83.774 258.836ZM86.7853 261.41C86.5359 261.502 86.3082 261.644 86.1165 261.828C85.9247 262.012 85.7731 262.234 85.6711 262.479C85.4341 262.945 85.3856 263.484 85.5357 263.985C85.7947 264.513 86.2398 264.926 86.7853 265.144L88.6674 266.033L90.3537 262.479L88.4716 261.591C88.2128 261.446 87.9272 261.355 87.6321 261.324C87.3369 261.293 87.0387 261.322 86.7554 261.41H86.7853Z" fill="#060606"/>
<path d="M64.3212 234.535L62.951 241.159L63.6586 241.747L67.4981 237.23L70.3888 239.714L60.2257 251.624L55.3474 247.468C54.502 246.784 53.8269 245.913 53.3751 244.924C52.995 244.106 52.8793 243.19 53.0439 242.304C53.2012 241.442 53.5918 240.64 54.1732 239.985C54.8186 239.23 55.6893 238.702 56.6573 238.479C57.7023 238.245 58.7959 238.373 59.759 238.841L61.0388 231.779L64.3212 234.535ZM61.8971 243.794L60.1053 242.289C59.7024 241.894 59.1638 241.668 58.5997 241.656C58.0694 241.726 57.5879 242.002 57.2596 242.424C57.08 242.611 56.9416 242.834 56.8534 243.078C56.7653 243.321 56.7293 243.581 56.7478 243.84C56.8391 244.401 57.1473 244.904 57.6059 245.24L59.4128 246.745L61.8971 243.794Z" fill="#060606"/>
<path d="M44.3112 214.058C44.4182 215.446 44.1421 216.836 43.5132 218.078C42.8695 219.379 41.8797 220.479 40.6524 221.255C39.4526 222.07 38.0513 222.539 36.6023 222.61C35.2177 222.687 33.8383 222.385 32.6123 221.737C31.3786 221.072 30.3404 220.096 29.601 218.906C28.8105 217.732 28.3384 216.373 28.2308 214.961C28.1302 213.583 28.406 212.204 29.0289 210.971C29.6844 209.681 30.6785 208.593 31.9047 207.824C33.1055 207.007 34.5047 206.528 35.9548 206.439C37.338 206.358 38.7173 206.655 39.9448 207.297C41.1722 207.964 42.2088 208.933 42.9561 210.113C43.7419 211.288 44.2089 212.648 44.3112 214.058ZM37.3551 210.203C36.1575 210.043 34.9443 210.35 33.9674 211.062C32.925 211.679 32.1556 212.669 31.8143 213.832C31.6797 214.374 31.6654 214.94 31.772 215.489C31.8786 216.037 32.1037 216.556 32.4316 217.009C32.7152 217.497 33.1021 217.916 33.5651 218.239C34.0281 218.561 34.5559 218.779 35.1117 218.876C36.3179 219.027 37.536 218.709 38.5145 217.988C39.558 217.378 40.3283 216.392 40.6675 215.232C40.8015 214.685 40.8159 214.115 40.7094 213.561C40.6028 213.008 40.378 212.484 40.0503 212.025C39.7618 211.543 39.3709 211.129 38.9053 210.815C38.4396 210.5 37.9103 210.291 37.3551 210.203Z" fill="#060606"/>
<path d="M13.295 179.082C13.5475 177.752 14.1864 176.527 15.1318 175.558C16.1385 174.543 17.3954 173.81 18.7755 173.435C20.135 173.004 21.5847 172.941 22.9762 173.255C24.2999 173.564 25.5039 174.255 26.4392 175.242C27.4668 176.333 28.2068 177.663 28.5924 179.112L30.2486 184.743L15.1921 189.139L13.5508 183.508C13.0991 182.077 13.0112 180.555 13.295 179.082ZM23.4129 177.38C22.8668 177.104 22.2703 176.941 21.6595 176.902C21.0486 176.864 20.4363 176.949 19.8596 177.154C19.2596 177.29 18.6937 177.547 18.1966 177.91C17.6995 178.272 17.2816 178.732 16.9687 179.262C16.6926 179.811 16.5316 180.411 16.4954 181.025C16.4591 181.638 16.5484 182.253 16.7578 182.831L17.2699 184.562L26.0025 182.018L25.4907 180.286C25.3552 179.688 25.1016 179.123 24.7448 178.624C24.388 178.125 23.9352 177.702 23.4129 177.38Z" fill="#060606"/>
<path d="M7.54322 147.267L16.9085 147.117C17.695 147.162 18.4679 146.897 19.0614 146.379C19.3204 146.111 19.5201 145.792 19.6472 145.441C19.7743 145.091 19.826 144.718 19.7992 144.346C19.8166 143.968 19.7545 143.591 19.6171 143.238C19.4796 142.885 19.27 142.565 19.0013 142.299C18.391 141.795 17.6065 141.551 16.818 141.621L7.45297 141.772V137.962L16.803 137.812C18.0418 137.747 19.2736 138.034 20.3563 138.64C21.3124 139.195 22.0865 140.017 22.5846 141.004C23.1047 142.042 23.3779 143.186 23.3826 144.346C23.418 145.493 23.1862 146.632 22.7052 147.674C22.2446 148.659 21.493 149.478 20.552 150.023C19.4766 150.64 18.2534 150.952 17.0138 150.926L7.66378 151.077L7.54322 147.267Z" fill="#060606"/>
<path d="M14.695 112.743C13.7349 111.784 13.0668 110.573 12.7679 109.25C12.469 107.862 12.5312 106.421 12.9486 105.064C13.3874 103.411 14.3616 101.949 15.7189 100.908C17.0441 99.9166 18.6727 99.4163 20.3261 99.493L19.1368 103.513C18.4618 103.611 17.832 103.91 17.3299 104.371C16.8274 104.836 16.4627 105.43 16.276 106.088C16.106 106.597 16.0501 107.138 16.1126 107.671C16.175 108.205 16.3542 108.718 16.6373 109.174C17.3028 110.17 18.3187 110.88 19.483 111.162C20.6062 111.559 21.8382 111.516 22.931 111.041C23.4191 110.815 23.8505 110.482 24.1942 110.068C24.538 109.654 24.7854 109.169 24.9184 108.647C25.1059 107.988 25.1059 107.289 24.9184 106.63C24.7445 105.975 24.3773 105.387 23.8645 104.943L25.0538 100.923C26.4842 101.745 27.5776 103.047 28.1405 104.597C28.6845 106.219 28.6845 107.974 28.1405 109.596C27.7867 110.983 27.0695 112.252 26.0627 113.27C25.0955 114.217 23.8788 114.87 22.5546 115.152C21.1447 115.447 19.6823 115.375 18.3086 114.941C16.9341 114.533 15.6889 113.776 14.695 112.743Z" fill="#060606"/>
<path d="M31.2571 65.3901L33.847 67.0313L31.6335 70.5394L42.2936 77.2697L40.246 80.4918L29.5859 73.7615L27.3726 77.2697L24.783 75.6436L31.2571 65.3901Z" fill="#060606"/>
<path d="M47.8946 47.1116L59.0666 58.0877L56.4015 60.7979L45.2145 49.8368L47.8946 47.1116Z" fill="#060606"/>
<path d="M76.3061 42.8056C74.915 42.8812 73.5297 42.574 72.301 41.9173C71.0148 41.2112 69.9433 40.1708 69.1995 38.906C68.4114 37.6877 67.9739 36.2761 67.9348 34.8257C67.893 33.4363 68.2313 32.0619 68.9133 30.8507C69.6029 29.6158 70.5984 28.5788 71.8042 27.8395C73.001 27.0886 74.3686 26.6535 75.7791 26.5747C77.1606 26.5 78.5359 26.8073 79.7541 27.463C81.0102 28.1779 82.0505 29.2182 82.7654 30.4743C83.5511 31.6946 83.9932 33.1042 84.0451 34.5546C84.0987 35.9367 83.7705 37.3067 83.0966 38.5145C82.4109 39.7523 81.4145 40.7902 80.2057 41.5258C79.0384 42.2826 77.6948 42.7235 76.3061 42.8056ZM80.3262 35.9398C80.5059 34.7474 80.226 33.5311 79.5433 32.5371C78.9538 31.4819 77.9847 30.6905 76.833 30.3238C76.2918 30.1778 75.7256 30.1493 75.1724 30.2402C74.6193 30.3311 74.092 30.5393 73.626 30.8507C73.1364 31.1302 72.7125 31.5113 72.3826 31.9684C72.0528 32.4255 71.8247 32.948 71.7138 33.5007C71.5298 34.7002 71.8157 35.9245 72.5118 36.9185C73.1013 37.9737 74.0703 38.7651 75.2221 39.1318C75.7665 39.2789 76.3363 39.3066 76.8924 39.213C77.4485 39.1195 77.9778 38.9069 78.4442 38.5898C78.9201 38.3045 79.3291 37.9202 79.6434 37.463C79.9578 37.0058 80.17 36.4863 80.2659 35.9398H80.3262Z" fill="#060606"/>
<path d="M119.91 25.4455L116.221 26.4091L107.594 18.6852L110.048 28.0352L106.359 28.9989L102.369 13.8972L106.073 12.9336L114.7 20.6877L112.231 11.3075L115.935 10.3289L119.91 25.4455Z" fill="#060606"/>
<path d="M164.145 100.984C163.651 98.609 162.613 96.381 161.114 94.4742C159.614 92.5674 157.694 91.0334 155.503 89.9924C155.304 89.854 155.078 89.7596 154.84 89.7157C154.601 89.6718 154.356 89.6793 154.121 89.7378C153.886 89.7962 153.666 89.9042 153.476 90.0546C153.286 90.205 153.13 90.3943 153.019 90.6097C152.903 90.8235 152.837 91.0601 152.824 91.3027C152.811 91.5452 152.852 91.7876 152.945 92.0123C153.037 92.2369 153.178 92.4384 153.357 92.602C153.537 92.7657 153.75 92.8874 153.982 92.9585C155.754 93.76 157.305 94.9784 158.503 96.5096C159.701 98.0408 160.511 99.8394 160.863 101.752C162.059 107.661 162.227 113.732 161.36 119.699C161.17 122.216 160.105 124.586 158.349 126.399C158.102 126.665 157.801 126.874 157.465 127.012C157.13 127.15 156.769 127.213 156.406 127.197C149.029 127.197 141.636 127.061 134.258 127.197C133.326 127.25 132.399 127.025 131.595 126.551C130.791 126.076 130.146 125.374 129.741 124.532C129.1 123.495 128.646 122.354 128.401 121.159C127.302 115.04 127.302 108.774 128.401 102.655C128.752 99.9178 129.99 97.3711 131.927 95.4049C133.863 93.4388 136.39 92.1616 139.122 91.7691C141.804 91.2548 144.545 91.1079 147.267 91.3324C147.67 91.4272 148.093 91.3706 148.457 91.1735C148.821 90.9764 149.099 90.6525 149.24 90.2634C149.339 90.018 149.375 89.752 149.347 89.4889C149.319 89.2258 149.226 88.9738 149.077 88.755C148.929 88.5362 148.728 88.3575 148.494 88.2345C148.26 88.1116 147.999 88.0483 147.734 88.0501C145.413 87.8518 143.077 87.8871 140.763 88.1555C132.331 88.9385 126.76 93.877 125.164 102.128C124.176 107.925 124.06 113.837 124.818 119.669C125.007 123.215 126.58 126.545 129.199 128.943C130.049 129.643 130.694 130.558 131.066 131.593C131.895 133.987 133.566 136.11 133.28 138.896C133.235 139.135 133.244 139.381 133.306 139.617C133.369 139.852 133.482 140.07 133.639 140.256C133.796 140.442 133.993 140.591 134.215 140.692C134.436 140.792 134.678 140.842 134.921 140.838C135.87 140.838 136.562 140.1 136.562 138.896C136.562 138.173 136.758 137.977 137.48 137.977C142.419 137.977 147.368 137.977 152.326 137.977C153.079 137.977 153.214 138.218 153.214 138.911C153.214 153.967 153.214 169.024 153.214 184.08C153.214 185.586 152.763 186.038 151.227 186.053H139.182C136.848 186.053 136.622 185.827 136.622 183.538V147.312C136.622 145.521 136.11 144.708 134.966 144.708C133.822 144.708 133.295 145.521 133.295 147.312V183.644C133.295 184.005 133.295 184.381 133.295 184.743C133.296 185.618 133.552 186.473 134.03 187.205C134.509 187.938 135.189 188.515 135.99 188.868C136.193 188.944 136.365 189.087 136.477 189.273C136.589 189.459 136.635 189.677 136.607 189.892C136.607 191.142 136.607 192.406 136.607 193.656C136.718 195.305 137.323 196.883 138.344 198.183C139.364 199.483 140.753 200.445 142.329 200.943C142.66 201.049 143.081 200.943 143.307 201.335H146.183C146.304 201.064 146.56 201.169 146.755 201.109C148.316 200.759 149.74 199.96 150.85 198.809C151.961 197.658 152.71 196.207 153.004 194.635C153.217 193.099 153.273 191.545 153.169 189.997C153.169 189.606 153.079 189.184 153.576 188.959C154.573 188.528 155.406 187.787 155.948 186.846C156.491 185.904 156.715 184.813 156.587 183.734C156.587 168.427 156.587 153.104 156.587 137.767C156.529 137.292 156.57 136.81 156.708 136.351C157.596 134.273 158.469 132.211 159.388 130.163C159.525 129.905 159.727 129.687 159.975 129.531C162.031 127.879 163.53 125.634 164.266 123.102C165.08 120.161 165.46 117.118 165.395 114.068C165.568 109.67 165.147 105.269 164.145 100.984ZM149.661 190.163C149.661 191.307 149.661 192.452 149.661 193.581C149.566 194.81 149.011 195.958 148.107 196.795C147.203 197.632 146.015 198.098 144.783 198.098C143.535 198.121 142.325 197.666 141.402 196.826C140.478 195.986 139.91 194.825 139.814 193.581C139.709 192.406 139.814 191.232 139.814 190.058C139.814 189.546 140.01 189.455 140.462 189.455C141.967 189.455 143.473 189.455 144.888 189.455C146.304 189.455 147.689 189.455 149.089 189.455C149.526 189.395 149.676 189.606 149.661 190.163ZM153.696 134.364C153.531 134.77 153.184 134.71 152.853 134.71H136.472C136.02 134.71 135.734 134.71 135.538 134.168C135.071 132.964 134.544 131.804 134.033 130.509H155.368C154.765 131.834 154.223 133.099 153.696 134.349V134.364Z" fill="url(#paint1_linear_91_3308)"/>
<path d="M119.142 168.406C119.563 167.888 119.819 167.254 119.875 166.588C119.932 165.922 119.786 165.255 119.458 164.672C119.153 164.075 118.675 163.584 118.087 163.261C117.499 162.939 116.828 162.801 116.161 162.866C114.459 162.866 112.773 162.971 111.071 163.061C110.488 163.127 109.897 163.029 109.366 162.78C108.834 162.53 108.382 162.137 108.06 161.646C107.097 160.336 106.118 159.056 105.169 157.731C104.818 157.139 104.298 156.666 103.675 156.371C103.053 156.076 102.357 155.973 101.676 156.075C100.957 156.178 100.289 156.506 99.767 157.012C99.2451 157.518 98.8963 158.175 98.7704 158.891C98.3338 160.396 97.852 161.992 97.4455 163.558C97.3136 164.135 97.0263 164.664 96.6149 165.089C96.2035 165.513 95.6835 165.817 95.1116 165.967C93.8469 166.359 92.6273 166.901 91.3475 167.217C90.5911 167.357 89.8797 167.678 89.2741 168.153C88.6685 168.627 88.1867 169.241 87.8696 169.942V171.704C88.37 172.81 89.2152 173.723 90.2786 174.309C91.4078 175.001 92.4617 175.814 93.5909 176.507C94.1403 176.817 94.592 177.275 94.8953 177.828C95.1986 178.381 95.3413 179.009 95.3074 179.639C95.3074 181.265 95.3074 182.876 95.3074 184.502C95.2566 185.171 95.4074 185.839 95.7402 186.422C96.073 187.004 96.5724 187.473 97.1744 187.769C97.7826 188.093 98.4759 188.222 99.1601 188.139C99.8443 188.055 100.486 187.763 100.999 187.302C102.294 186.263 103.619 185.27 104.913 184.291C105.357 183.901 105.898 183.638 106.479 183.532C107.06 183.426 107.658 183.48 108.211 183.689C109.717 184.201 111.373 184.652 112.954 185.194C113.59 185.462 114.293 185.526 114.967 185.377C115.641 185.229 116.252 184.876 116.718 184.366C117.193 183.871 117.506 183.243 117.617 182.565C117.727 181.888 117.629 181.193 117.335 180.572C116.748 179.066 116.221 177.455 115.634 175.905C115.408 175.376 115.33 174.796 115.406 174.226C115.483 173.656 115.713 173.118 116.07 172.667C117.2 171.192 118.163 169.792 119.142 168.406ZM112.743 177.214C113.345 178.72 113.842 180.226 114.399 181.731C114.083 182.033 113.827 181.807 113.571 181.731L109.46 180.452C108.364 180.052 107.18 179.952 106.032 180.161C104.884 180.37 103.812 180.881 102.926 181.641C101.616 182.695 100.276 183.719 98.7101 184.954V179.518C98.7429 178.351 98.4646 177.196 97.9037 176.172C97.3427 175.148 96.5194 174.292 95.5182 173.691C94.1029 172.773 92.7177 171.809 91.1668 170.77C92.8532 170.213 94.3739 169.656 95.9097 169.265C97.1303 168.949 98.2382 168.298 99.1082 167.385C99.9783 166.472 100.576 165.335 100.833 164.1C101.21 162.595 101.721 160.999 102.218 159.282C103.242 160.667 104.236 161.887 105.124 163.197C105.813 164.299 106.799 165.184 107.968 165.752C109.137 166.319 110.442 166.545 111.734 166.404C113.24 166.314 114.866 166.404 116.507 166.404C115.588 167.699 114.655 169.069 113.676 170.379C112.906 171.322 112.412 172.459 112.247 173.665C112.082 174.871 112.254 176.1 112.743 177.214Z" fill="url(#paint2_linear_91_3308)"/>
<path d="M175.332 143.383C173.435 143.112 171.026 142.765 168.617 142.449C168.226 142.449 167.759 142.178 167.473 142.57C167.187 142.961 167.473 143.398 167.729 143.774C168.662 145.491 169.596 147.192 170.59 148.878C171.33 150.056 171.741 151.41 171.781 152.8C171.821 154.19 171.487 155.565 170.816 156.783C169.912 158.545 169.054 160.336 168.181 162.128C168.015 162.474 167.669 162.836 167.97 163.257C168.271 163.679 168.783 163.438 169.204 163.363C171.373 162.941 173.541 162.504 175.709 162.113C176.838 161.893 178.003 161.95 179.105 162.281C180.207 162.611 181.211 163.205 182.033 164.01C183.704 165.516 185.285 167.127 186.911 168.693C187.152 168.934 187.378 169.325 187.829 169.144C188.281 168.964 188.221 168.572 188.266 168.211C188.552 165.862 188.793 163.513 189.154 161.179C189.326 160.099 189.744 159.073 190.376 158.18C191.008 157.288 191.837 156.552 192.798 156.03C192.983 155.891 193.195 155.792 193.421 155.742C193.647 155.691 193.881 155.689 194.107 155.736C194.334 155.783 194.548 155.878 194.735 156.015C194.922 156.151 195.078 156.326 195.192 156.527C195.309 156.716 195.385 156.927 195.417 157.147C195.449 157.366 195.436 157.59 195.378 157.805C195.321 158.019 195.219 158.22 195.081 158.393C194.943 158.567 194.771 158.711 194.575 158.816C193.862 159.244 193.272 159.849 192.861 160.571C192.449 161.294 192.231 162.11 192.226 162.941C192.06 164.929 191.789 166.901 191.548 168.964C191.5 169.725 191.226 170.455 190.762 171.06C190.299 171.666 189.666 172.121 188.944 172.366C188.229 172.636 187.449 172.682 186.707 172.499C185.965 172.317 185.296 171.913 184.788 171.343L180.105 166.826C179.576 166.254 178.903 165.834 178.156 165.609C177.41 165.384 176.617 165.362 175.859 165.546C173.736 166.013 171.598 166.374 169.476 166.811C168.739 167.015 167.959 166.997 167.232 166.759C166.506 166.52 165.867 166.072 165.395 165.471C164.894 164.871 164.589 164.133 164.522 163.354C164.454 162.576 164.628 161.796 165.019 161.119C165.967 159.207 166.886 157.28 167.865 155.383C168.271 154.655 168.471 153.831 168.445 152.998C168.418 152.165 168.165 151.355 167.714 150.655C166.645 148.848 165.666 146.996 164.703 145.159C164.279 144.527 164.052 143.783 164.052 143.021C164.052 142.26 164.279 141.516 164.703 140.883C165.107 140.234 165.7 139.723 166.402 139.419C167.104 139.115 167.882 139.033 168.632 139.182C170.59 139.468 172.577 139.694 174.534 140.055C175.489 140.293 176.492 140.248 177.422 139.928C178.352 139.607 179.169 139.024 179.774 138.248C181.054 136.743 182.469 135.237 183.824 133.852C184.308 133.238 184.97 132.788 185.719 132.564C186.469 132.341 187.269 132.354 188.01 132.602C188.756 132.834 189.415 133.283 189.903 133.892C190.391 134.501 190.686 135.242 190.75 136.02C191.112 138.128 191.503 140.236 191.834 142.344C191.935 143.116 192.239 143.848 192.715 144.464C193.191 145.081 193.823 145.56 194.545 145.852C196.622 146.801 198.715 147.704 200.748 148.728C201.352 149.013 201.872 149.45 202.256 149.997C202.64 150.543 202.875 151.18 202.939 151.845C203.003 152.51 202.893 153.18 202.619 153.79C202.346 154.4 201.919 154.928 201.38 155.322C201.21 155.497 201.006 155.633 200.78 155.723C200.554 155.813 200.312 155.854 200.069 155.844C199.826 155.834 199.588 155.773 199.371 155.665C199.153 155.557 198.96 155.404 198.805 155.217C198.664 155.035 198.562 154.825 198.505 154.601C198.449 154.377 198.439 154.144 198.478 153.916C198.516 153.688 198.601 153.471 198.727 153.278C198.854 153.084 199.019 152.919 199.212 152.793C199.95 152.146 199.588 151.829 198.941 151.528L193.325 148.954C192.034 148.431 190.907 147.572 190.062 146.464C189.217 145.357 188.685 144.043 188.522 142.66C188.221 140.657 187.814 138.67 187.468 136.637C187.468 136.276 187.468 135.87 186.971 135.749C186.474 135.629 186.324 136.005 186.083 136.261L181.792 140.898C180.978 141.781 179.972 142.464 178.852 142.895C177.732 143.325 176.528 143.492 175.332 143.383Z" fill="url(#paint3_linear_91_3308)"/>
<path d="M115.739 109.4C116.145 108.913 116.387 108.31 116.43 107.678C116.473 107.045 116.316 106.415 115.98 105.877C115.679 105.339 115.221 104.906 114.666 104.636C114.111 104.367 113.487 104.275 112.878 104.371C111.629 104.447 110.379 104.492 109.129 104.612C108.69 104.666 108.244 104.595 107.842 104.409C107.441 104.223 107.099 103.928 106.856 103.558C106.178 102.625 105.35 101.752 104.763 100.833C104.422 100.264 103.914 99.8138 103.307 99.5443C102.701 99.2748 102.026 99.1991 101.375 99.3275C100.718 99.4623 100.12 99.8039 99.6704 100.302C99.2208 100.801 98.9423 101.43 98.8757 102.098C98.6348 103.167 98.2583 104.221 98.0626 105.305C97.982 105.816 97.7537 106.292 97.4059 106.674C97.0581 107.057 96.6061 107.329 96.1054 107.458C94.9159 107.849 93.7566 108.301 92.5822 108.738C92.0192 108.926 91.5244 109.277 91.16 109.746C90.7957 110.214 90.5779 110.781 90.5344 111.373C90.4815 111.948 90.5953 112.527 90.8623 113.039C91.1292 113.552 91.5381 113.977 92.04 114.264C93.094 114.956 94.133 115.664 95.2171 116.281C95.6587 116.513 96.0258 116.865 96.2761 117.297C96.5265 117.728 96.6499 118.222 96.6323 118.72C96.6323 119.895 96.6324 121.084 96.7227 122.258C96.6892 122.881 96.8415 123.5 97.1605 124.037C97.4796 124.573 97.9508 125.002 98.5144 125.27C99.0837 125.548 99.7264 125.64 100.351 125.532C100.975 125.424 101.55 125.121 101.993 124.668C102.926 123.885 103.89 123.162 104.793 122.334C105.14 122 105.576 121.773 106.048 121.679C106.521 121.586 107.01 121.63 107.458 121.807C108.964 122.274 110.469 122.65 111.583 122.981C112.099 123.068 112.629 123.019 113.119 122.838C113.61 122.658 114.046 122.353 114.383 121.954C114.721 121.554 114.948 121.074 115.043 120.56C115.138 120.045 115.098 119.515 114.926 119.021C114.489 117.696 113.977 116.402 113.42 115.122C113.213 114.688 113.133 114.205 113.189 113.729C113.245 113.252 113.435 112.8 113.736 112.427C114.429 111.448 115.062 110.394 115.739 109.4ZM109.807 113.375C109.566 115.573 110.921 117.35 111.463 119.398C109.37 119.082 107.473 117.892 105.305 118.329C103.137 118.765 101.872 120.632 100.065 121.792C99.7942 119.654 100.261 117.501 99.1918 115.573C98.1228 113.646 95.9547 113.014 94.3136 111.614C96.2408 110.65 98.4542 110.469 99.9298 108.813C101.405 107.157 101.435 104.989 102.113 102.956C103.619 104.462 104.462 106.57 106.524 107.473C108.587 108.376 110.59 107.684 112.728 107.759C111.885 109.701 110.048 111.147 109.807 113.375Z" fill="url(#paint4_linear_91_3308)"/>
<path d="M149.526 151.935C149.452 150.698 148.903 149.538 147.994 148.696C147.085 147.854 145.886 147.396 144.647 147.418C143.4 147.392 142.19 147.846 141.268 148.686C140.346 149.527 139.782 150.69 139.694 151.935C139.588 153.184 139.694 154.434 139.694 155.699C139.694 156.964 139.603 158.213 139.694 159.448C139.782 160.693 140.346 161.856 141.268 162.696C142.19 163.537 143.4 163.991 144.647 163.965C145.886 163.986 147.085 163.529 147.994 162.687C148.903 161.845 149.452 160.685 149.526 159.448C149.657 156.945 149.657 154.437 149.526 151.935ZM144.632 150.79C145.058 150.79 145.468 150.958 145.772 151.256C146.076 151.555 146.25 151.96 146.258 152.386C146.275 152.808 146.128 153.219 145.847 153.534C145.566 153.849 145.173 154.042 144.753 154.073C144.532 154.087 144.31 154.056 144.102 153.982C143.893 153.908 143.702 153.791 143.54 153.641C143.378 153.49 143.248 153.307 143.159 153.105C143.07 152.902 143.023 152.683 143.021 152.462C143.013 152.241 143.05 152.022 143.13 151.816C143.21 151.61 143.332 151.424 143.487 151.267C143.642 151.11 143.828 150.987 144.033 150.905C144.238 150.823 144.457 150.784 144.678 150.79H144.632ZM144.753 160.713C144.522 160.734 144.29 160.706 144.071 160.631C143.852 160.557 143.652 160.436 143.482 160.279C143.313 160.121 143.179 159.929 143.089 159.716C143 159.503 142.956 159.273 142.961 159.041C142.961 158.861 142.961 158.665 142.961 158.484C142.871 157.581 142.961 156.979 144.12 157.4C144.355 157.362 144.594 157.362 144.828 157.4C145.31 157.596 146.198 156.587 146.334 157.882C146.514 159.704 145.957 160.622 144.798 160.713H144.753Z" fill="url(#paint5_linear_91_3308)"/>
<path d="M134.469 117.787C134.582 117.47 134.586 117.124 134.48 116.805C134.373 116.485 134.163 116.211 133.882 116.025C133.455 115.764 132.97 115.614 132.471 115.588C131.971 115.562 131.473 115.66 131.021 115.874C130.71 116.008 130.453 116.243 130.292 116.541C130.131 116.839 130.075 117.182 130.133 117.516C130.238 118.494 130.991 119.021 132.467 119.021C132.895 119.113 133.343 119.036 133.716 118.806C134.089 118.576 134.359 118.211 134.469 117.787ZM158.379 115.874C157.939 115.673 157.459 115.577 156.976 115.593C156.492 115.608 156.019 115.736 155.594 115.965C155.321 116.128 155.108 116.374 154.984 116.666C154.859 116.958 154.83 117.281 154.901 117.591C155.036 118.524 155.744 118.976 157.069 118.976C158.394 118.976 159.267 118.419 159.282 117.38C159.301 117.063 159.22 116.749 159.05 116.481C158.879 116.213 158.629 116.006 158.334 115.89L158.379 115.874ZM134.755 122.605C134.584 122.704 134.434 122.837 134.314 122.994C134.194 123.152 134.106 123.332 134.056 123.524C134.006 123.715 133.994 123.915 134.021 124.111C134.048 124.307 134.113 124.497 134.213 124.667C134.405 125.037 134.716 125.331 135.096 125.501C135.477 125.67 135.903 125.706 136.306 125.601C136.663 125.684 137.037 125.655 137.376 125.518C137.716 125.38 138.005 125.141 138.203 124.833C138.443 124.514 138.546 124.112 138.489 123.717C138.433 123.321 138.222 122.965 137.902 122.725C137.426 122.43 136.88 122.265 136.32 122.247C135.76 122.228 135.205 122.357 134.71 122.62L134.755 122.605ZM153.185 122.289C151.679 122.289 150.926 122.906 150.941 123.975C150.956 125.044 151.739 125.616 153.44 125.616C153.704 125.626 153.968 125.595 154.223 125.526C154.61 125.433 154.944 125.191 155.153 124.852C155.362 124.514 155.428 124.106 155.338 123.719C155.172 122.785 154.449 122.304 153.139 122.304L153.185 122.289ZM143.323 97.8368C143.751 98.0586 144.226 98.1744 144.708 98.1744C145.19 98.1744 145.665 98.0586 146.093 97.8368C146.365 97.6981 146.589 97.4797 146.734 97.2107C146.879 96.9418 146.939 96.635 146.906 96.3312C146.816 95.3375 146.078 94.8256 144.708 94.8256C143.338 94.8256 142.585 95.3074 142.509 96.3312C142.469 96.6326 142.521 96.9391 142.658 97.2106C142.795 97.482 143.011 97.7056 143.277 97.8519L143.323 97.8368ZM137.631 108.949C137.18 108.734 136.684 108.629 136.184 108.642C135.685 108.655 135.195 108.786 134.755 109.024C134.486 109.189 134.276 109.436 134.154 109.727C134.032 110.019 134.006 110.342 134.078 110.65C134.228 111.583 134.951 112.035 136.261 112.035C137.571 112.035 138.369 111.508 138.459 110.529C138.501 110.209 138.438 109.884 138.281 109.602C138.124 109.32 137.88 109.096 137.586 108.964L137.631 108.949ZM146.198 122.59C145.727 122.369 145.213 122.255 144.693 122.255C144.172 122.255 143.658 122.369 143.187 122.59C142.896 122.764 142.672 123.031 142.552 123.348C142.432 123.665 142.422 124.013 142.524 124.336C142.628 124.776 142.902 125.157 143.285 125.397C143.669 125.637 144.131 125.715 144.572 125.616C145.957 125.616 146.65 125.225 146.846 124.336C146.924 124.011 146.9 123.67 146.775 123.36C146.651 123.05 146.434 122.786 146.153 122.605L146.198 122.59ZM134.785 97.7917C135.207 98.0252 135.679 98.1539 136.162 98.167C136.644 98.1801 137.122 98.0772 137.556 97.867C137.845 97.742 138.088 97.5296 138.25 97.2595C138.412 96.9894 138.485 96.6752 138.459 96.3613C138.459 95.3375 137.646 94.8557 136.231 94.8557C134.816 94.8557 134.198 95.2923 134.078 96.2409C134.018 96.5382 134.049 96.8468 134.167 97.1262C134.285 97.4057 134.485 97.6429 134.74 97.8067L134.785 97.7917ZM154.735 97.7917C155.065 97.5709 155.295 97.2287 155.374 96.8396C155.453 96.4504 155.375 96.0458 155.157 95.7139C154.963 95.3716 154.662 95.1031 154.299 94.9505C153.937 94.7979 153.534 94.7699 153.154 94.8707C152.793 94.7826 152.412 94.8075 152.065 94.9421C151.718 95.0768 151.42 95.3146 151.212 95.6235C150.977 95.942 150.877 96.3401 150.933 96.7317C150.99 97.1234 151.198 97.4771 151.513 97.7164C151.989 98.0148 152.538 98.1743 153.099 98.177C153.661 98.1796 154.212 98.0253 154.69 97.7314L154.735 97.7917ZM153.124 108.783C152.733 108.699 152.324 108.746 151.962 108.918C151.6 109.089 151.305 109.375 151.122 109.731C150.982 109.992 150.921 110.288 150.948 110.582C150.974 110.877 151.087 111.157 151.272 111.388C151.512 111.671 151.821 111.887 152.17 112.014C152.518 112.141 152.894 112.174 153.26 112.11C154.63 112.11 155.383 111.478 155.353 110.394C155.323 109.31 154.585 108.753 153.079 108.753L153.124 108.783ZM132.331 105.109C133.837 105.109 134.499 104.582 134.53 103.513C134.56 102.444 133.792 101.782 132.346 101.782C130.901 101.782 130.088 102.444 130.118 103.513C130.148 104.582 130.886 105.049 132.286 105.049L132.331 105.109ZM138.354 103.694C138.474 104.688 139.137 105.094 140.477 105.109C142.208 105.109 143.142 104.085 142.6 102.79C142.28 102.315 141.806 101.963 141.259 101.793C140.711 101.623 140.122 101.646 139.589 101.857C139.391 101.891 139.202 101.965 139.033 102.073C138.864 102.182 138.718 102.323 138.605 102.488C138.491 102.654 138.411 102.84 138.371 103.037C138.33 103.234 138.33 103.437 138.369 103.634L138.354 103.694ZM146.665 103.995C147.011 105.019 147.87 105.184 148.788 105.094C149.706 105.004 150.67 104.928 150.926 103.799C151.016 103.474 150.993 103.127 150.862 102.816C150.731 102.505 150.499 102.246 150.203 102.083C149.738 101.842 149.221 101.717 148.698 101.717C148.174 101.717 147.657 101.842 147.192 102.083C146.904 102.283 146.696 102.578 146.602 102.916C146.509 103.255 146.536 103.615 146.68 103.935L146.665 103.995ZM154.886 103.995C155.006 104.41 155.28 104.763 155.653 104.982C156.026 105.2 156.468 105.267 156.888 105.169C158.394 105.169 159.117 104.703 159.222 103.664C159.259 103.349 159.203 103.03 159.062 102.746C158.92 102.463 158.698 102.227 158.424 102.068C157.949 101.849 157.429 101.745 156.906 101.764C156.383 101.782 155.872 101.922 155.413 102.173C155.158 102.366 154.971 102.634 154.879 102.94C154.787 103.246 154.795 103.573 154.901 103.874L154.886 103.995ZM144.783 108.843C143.383 108.843 142.78 109.159 142.524 109.987C142.402 110.3 142.387 110.645 142.482 110.966C142.578 111.288 142.778 111.569 143.051 111.764C143.507 112.026 144.021 112.171 144.546 112.187C145.071 112.203 145.592 112.088 146.063 111.854C146.373 111.68 146.611 111.401 146.735 111.067C146.859 110.734 146.861 110.367 146.74 110.033C146.64 109.613 146.383 109.247 146.022 109.009C145.661 108.771 145.224 108.68 144.798 108.753L144.783 108.843ZM142.615 116.868C142.223 115.814 141.275 115.754 140.311 115.784C139.908 115.728 139.497 115.814 139.151 116.029C138.804 116.243 138.544 116.572 138.414 116.959C137.993 118.223 138.866 119.112 140.507 119.112C142.148 119.112 143.021 117.787 142.63 116.748L142.615 116.868ZM150.324 116.161C149.847 115.887 149.307 115.743 148.758 115.743C148.208 115.743 147.669 115.887 147.192 116.161C146.9 116.365 146.689 116.666 146.598 117.01C146.507 117.355 146.542 117.721 146.695 118.043C146.854 118.437 147.151 118.76 147.53 118.952C147.91 119.143 148.347 119.189 148.758 119.082C149.691 119.157 150.504 118.991 150.851 118.028C151.033 117.693 151.081 117.302 150.986 116.933C150.891 116.564 150.66 116.245 150.339 116.04L150.324 116.161Z" fill="url(#paint6_linear_91_3308)"/>
</g>
<defs>
<linearGradient id="paint0_linear_91_3308" x1="144" y1="285.742" x2="144" y2="2.25848" gradientUnits="userSpaceOnUse">
<stop stop-color="#00FF36"/>
<stop offset="0.05" stop-color="#0CFC33"/>
<stop offset="0.13" stop-color="#2CF52D"/>
<stop offset="0.23" stop-color="#60E922"/>
<stop offset="0.37" stop-color="#A8D812"/>
<stop offset="0.51" stop-color="#FFC400"/>
<stop offset="0.79" stop-color="#FFE91B"/>
<stop offset="1" stop-color="#FFFF2B"/>
</linearGradient>
<linearGradient id="paint1_linear_91_3308" x1="144.632" y1="201.395" x2="144.632" y2="87.9448" gradientUnits="userSpaceOnUse">
<stop stop-color="#00FF36"/>
<stop offset="0.05" stop-color="#0CFC33"/>
<stop offset="0.13" stop-color="#2CF52D"/>
<stop offset="0.23" stop-color="#60E922"/>
<stop offset="0.37" stop-color="#A8D812"/>
<stop offset="0.51" stop-color="#FFC400"/>
<stop offset="0.79" stop-color="#FFE91B"/>
<stop offset="1" stop-color="#FFFF2B"/>
</linearGradient>
<linearGradient id="paint2_linear_91_3308" x1="103.92" y1="188.161" x2="103.92" y2="156.03" gradientUnits="userSpaceOnUse">
<stop stop-color="#00FF36"/>
<stop offset="0.05" stop-color="#0CFC33"/>
<stop offset="0.13" stop-color="#2CF52D"/>
<stop offset="0.23" stop-color="#60E922"/>
<stop offset="0.37" stop-color="#A8D812"/>
<stop offset="0.51" stop-color="#FFC400"/>
<stop offset="0.79" stop-color="#FFE91B"/>
<stop offset="1" stop-color="#FFFF2B"/>
</linearGradient>
<linearGradient id="paint3_linear_91_3308" x1="183.433" y1="172.547" x2="183.433" y2="132.316" gradientUnits="userSpaceOnUse">
<stop stop-color="#00FF36"/>
<stop offset="0.05" stop-color="#0CFC33"/>
<stop offset="0.13" stop-color="#2CF52D"/>
<stop offset="0.23" stop-color="#60E922"/>
<stop offset="0.37" stop-color="#A8D812"/>
<stop offset="0.51" stop-color="#FFC400"/>
<stop offset="0.79" stop-color="#FFE91B"/>
<stop offset="1" stop-color="#FFFF2B"/>
</linearGradient>
<linearGradient id="paint4_linear_91_3308" x1="103.468" y1="125.586" x2="103.468" y2="99.207" gradientUnits="userSpaceOnUse">
<stop stop-color="#00FF36"/>
<stop offset="0.05" stop-color="#0CFC33"/>
<stop offset="0.13" stop-color="#2CF52D"/>
<stop offset="0.23" stop-color="#60E922"/>
<stop offset="0.37" stop-color="#A8D812"/>
<stop offset="0.51" stop-color="#FFC400"/>
<stop offset="0.79" stop-color="#FFE91B"/>
<stop offset="1" stop-color="#FFFF2B"/>
</linearGradient>
<linearGradient id="paint5_linear_91_3308" x1="144.677" y1="164.04" x2="144.677" y2="147.463" gradientUnits="userSpaceOnUse">
<stop stop-color="#00FF36"/>
<stop offset="0.05" stop-color="#0CFC33"/>
<stop offset="0.13" stop-color="#2CF52D"/>
<stop offset="0.23" stop-color="#60E922"/>
<stop offset="0.37" stop-color="#A8D812"/>
<stop offset="0.51" stop-color="#FFC400"/>
<stop offset="0.79" stop-color="#FFE91B"/>
<stop offset="1" stop-color="#FFFF2B"/>
</linearGradient>
<linearGradient id="paint6_linear_91_3308" x1="144.663" y1="125.646" x2="144.663" y2="94.7804" gradientUnits="userSpaceOnUse">
<stop stop-color="#00FF36"/>
<stop offset="0.05" stop-color="#0CFC33"/>
<stop offset="0.13" stop-color="#2CF52D"/>
<stop offset="0.23" stop-color="#60E922"/>
<stop offset="0.37" stop-color="#A8D812"/>
<stop offset="0.51" stop-color="#FFC400"/>
<stop offset="0.79" stop-color="#FFE91B"/>
<stop offset="1" stop-color="#FFFF2B"/>
</linearGradient>
<clipPath id="clip0_91_3308">
<rect width="288" height="288" fill="white"/>
</clipPath>
</defs>
</svg>
