<svg width="400" height="60" viewBox="0 0 400 60" fill="none" xmlns="http://www.w3.org/2000/svg">
<g clip-path="url(#clip0_141_4039)">
<rect width="400" height="60" fill="white"/>
<path d="M110.921 33.998L110.448 34.2815L110.455 34.2927L110.921 33.998ZM107.057 32.822L107.093 33.3716L107.111 33.3704L107.129 33.368L107.057 32.822ZM105.839 32.948L105.761 32.4027L105.288 32.4703V32.948H105.839ZM105.839 50V50.5508H106.389V50H105.839ZM99.5806 50H99.0298V50.5508H99.5806V50ZM99.5806 28.664L99.4404 28.1313L99.0298 28.2394V28.664H99.5806ZM101.429 28.244L101.537 28.7841L101.545 28.7825L101.552 28.7807L101.429 28.244ZM103.697 27.824L103.775 28.3693L103.782 28.3682L103.79 28.3668L103.697 27.824ZM106.175 27.53L106.211 28.0796L106.22 28.079L106.229 28.0781L106.175 27.53ZM112.517 28.034L112.3 28.5403L112.308 28.544L112.317 28.5474L112.517 28.034ZM114.995 29.462L114.633 29.8777L114.962 30.1637L115.316 29.9093L114.995 29.462ZM118.061 27.95L117.898 27.4238L117.894 27.4249L118.061 27.95ZM125.621 28.16L125.395 28.6623L125.402 28.6657L125.41 28.6688L125.621 28.16ZM128.351 30.218L128.791 29.8875L128.791 29.8875L128.351 30.218ZM130.115 50V50.5508H130.665V50H130.115ZM123.857 50H123.306V50.5508H123.857V50ZM123.059 33.998L122.586 34.2815L122.593 34.2927L123.059 33.998ZM118.985 32.99L118.84 32.4585L118.833 32.4604L118.985 32.99ZM117.515 33.62L117.217 33.1566L116.866 33.3819L116.988 33.7804L117.515 33.62ZM117.893 35.678L117.343 35.7202L117.344 35.7219L117.893 35.678ZM117.977 50V50.5508H118.527V50H117.977ZM111.719 50H111.168V50.5508H111.719V50ZM112.269 38.282C112.269 36.2492 112.007 34.684 111.386 33.7033L110.455 34.2927C110.898 34.992 111.168 36.2828 111.168 38.282H112.269ZM111.393 33.7146C110.761 32.6607 109.665 32.1872 108.275 32.1872V33.2888C109.405 33.2888 110.073 33.6553 110.448 34.2814L111.393 33.7146ZM108.275 32.1872C107.856 32.1872 107.426 32.217 106.984 32.276L107.129 33.368C107.527 33.315 107.909 33.2888 108.275 33.2888V32.1872ZM107.02 32.2724C106.587 32.3012 106.167 32.3446 105.761 32.4027L105.917 33.4933C106.294 33.4394 106.686 33.3987 107.093 33.3716L107.02 32.2724ZM105.288 32.948V50H106.389V32.948H105.288ZM105.839 49.4492H99.5806V50.5508H105.839V49.4492ZM100.131 50V28.664H99.0298V50H100.131ZM99.7208 29.1967C100.24 29.0602 100.844 28.9226 101.537 28.7841L101.321 27.7039C100.613 27.8454 99.9857 27.9878 99.4404 28.1313L99.7208 29.1967ZM101.552 28.7807C102.264 28.6164 103.005 28.4792 103.775 28.3693L103.619 27.2787C102.82 27.3928 102.049 27.5356 101.305 27.7073L101.552 28.7807ZM103.79 28.3668C104.583 28.2301 105.39 28.1344 106.211 28.0796L106.138 26.9804C105.279 27.0376 104.434 27.1379 103.603 27.2812L103.79 28.3668ZM106.229 28.0781C107.052 27.9958 107.86 27.9548 108.653 27.9548V26.8532C107.822 26.8532 106.977 26.8961 106.12 26.9819L106.229 28.0781ZM108.653 27.9548C110.208 27.9548 111.414 28.1605 112.3 28.5403L112.734 27.5277C111.66 27.0675 110.29 26.8532 108.653 26.8532V27.9548ZM112.317 28.5474C113.281 28.9222 114.048 29.3688 114.633 29.8777L115.356 29.0463C114.653 28.4352 113.768 27.9298 112.716 27.5206L112.317 28.5474ZM115.316 29.9093C116.161 29.3022 117.13 28.8231 118.227 28.4751L117.894 27.4249C116.696 27.8049 115.62 28.3338 114.673 29.0147L115.316 29.9093ZM118.223 28.4762C119.36 28.1245 120.382 27.9548 121.295 27.9548V26.8532C120.247 26.8532 119.114 27.0475 117.898 27.4238L118.223 28.4762ZM121.295 27.9548C123.012 27.9548 124.37 28.2011 125.395 28.6623L125.847 27.6577C124.632 27.1109 123.105 26.8532 121.295 26.8532V27.9548ZM125.41 28.6688C126.477 29.1113 127.303 29.7399 127.91 30.5485L128.791 29.8875C128.054 28.9041 127.06 28.1607 125.832 27.6512L125.41 28.6688ZM127.91 30.5485C128.527 31.3718 128.959 32.3583 129.197 33.5204L130.276 33.2996C130.01 31.9977 129.518 30.8562 128.791 29.8875L127.91 30.5485ZM129.197 33.5204C129.44 34.7096 129.564 36.0439 129.564 37.526H130.665C130.665 35.9841 130.537 34.5744 130.276 33.2996L129.197 33.5204ZM129.564 37.526V50H130.665V37.526H129.564ZM130.115 49.4492H123.857V50.5508H130.115V49.4492ZM124.407 50V38.282H123.306V50H124.407ZM124.407 38.282C124.407 36.2492 124.145 34.684 123.524 33.7033L122.593 34.2927C123.036 34.992 123.306 36.2828 123.306 38.282H124.407ZM123.531 33.7146C122.899 32.6607 121.803 32.1872 120.413 32.1872V33.2888C121.543 33.2888 122.211 33.6553 122.586 34.2814L123.531 33.7146ZM120.413 32.1872C120.002 32.1872 119.469 32.287 118.84 32.4586L119.13 33.5214C119.733 33.357 120.152 33.2888 120.413 33.2888V32.1872ZM118.833 32.4604C118.209 32.6388 117.666 32.868 117.217 33.1566L117.812 34.0833C118.148 33.868 118.585 33.6772 119.136 33.5196L118.833 32.4604ZM116.988 33.7804C117.171 34.3828 117.29 35.029 117.343 35.7202L118.442 35.6358C118.383 34.871 118.25 34.1452 118.042 33.4596L116.988 33.7804ZM117.344 35.7219C117.398 36.4053 117.426 37.1465 117.426 37.946H118.527C118.527 37.1215 118.499 36.3507 118.442 35.6341L117.344 35.7219ZM117.426 37.946V50H118.527V37.946H117.426ZM117.977 49.4492H111.719V50.5508H117.977V49.4492ZM112.269 50V38.282H111.168V50H112.269ZM154.655 49.244L154.809 49.7731L155.206 49.658V49.244H154.655ZM150.539 50.084L150.458 49.5392L150.449 49.5407L150.539 50.084ZM140.543 49.748L140.335 50.2578L140.339 50.2594L140.543 49.748ZM137.603 47.648L137.171 47.9889L137.176 47.9954L137.603 47.648ZM135.587 27.908V27.3572H135.037V27.908H135.587ZM141.845 27.908H142.396V27.3572H141.845V27.908ZM142.643 43.826L142.17 44.1072L142.17 44.1072L142.643 43.826ZM147.053 45.128L147.084 45.678L147.099 45.6771L147.114 45.6755L147.053 45.128ZM148.397 44.96L148.475 45.5053L148.948 45.4377V44.96H148.397ZM148.397 27.908V27.3572H147.847V27.908H148.397ZM154.655 27.908H155.206V27.3572H154.655V27.908ZM154.502 48.7149C153.471 49.0135 152.125 49.2892 150.458 49.5393L150.621 50.6287C152.314 50.3748 153.712 50.0905 154.809 49.7731L154.502 48.7149ZM150.449 49.5407C148.801 49.8153 147.068 49.9532 145.247 49.9532V51.0548C147.123 51.0548 148.918 50.9127 150.63 50.6273L150.449 49.5407ZM145.247 49.9532C143.417 49.9532 141.923 49.7066 140.748 49.2366L140.339 50.2594C141.684 50.7974 143.326 51.0548 145.247 51.0548V49.9532ZM140.752 49.2382C139.592 48.7637 138.692 48.1147 138.031 47.3006L137.176 47.9954C137.97 48.9733 139.031 49.7243 140.335 50.2578L140.752 49.2382ZM138.036 47.3071C137.362 46.4511 136.876 45.4326 136.585 44.2412L135.514 44.5028C135.839 45.8314 136.389 46.9969 137.171 47.9889L138.036 47.3071ZM136.585 44.2412C136.289 43.0304 136.138 41.689 136.138 40.214H135.037C135.037 41.763 135.194 43.1936 135.514 44.5028L136.585 44.2412ZM136.138 40.214V27.908H135.037V40.214H136.138ZM135.587 28.4588H141.845V27.3572H135.587V28.4588ZM141.295 27.908V39.458H142.396V27.908H141.295ZM141.295 39.458C141.295 41.4961 141.559 43.0781 142.17 44.1072L143.117 43.5448C142.664 42.7819 142.396 41.4519 142.396 39.458H141.295ZM142.17 44.1072C142.838 45.233 144.061 45.7208 145.625 45.7208V44.6192C144.278 44.6192 143.513 44.211 143.117 43.5448L142.17 44.1072ZM145.625 45.7208C146.085 45.7208 146.571 45.7065 147.084 45.678L147.023 44.578C146.528 44.6055 146.062 44.6192 145.625 44.6192V45.7208ZM147.114 45.6755C147.622 45.619 148.076 45.5623 148.475 45.5053L148.32 44.4147C147.935 44.4697 147.492 44.525 146.993 44.5805L147.114 45.6755ZM148.948 44.96V27.908H147.847V44.96H148.948ZM148.397 28.4588H154.655V27.3572H148.397V28.4588ZM154.105 27.908V49.244H155.206V27.908H154.105ZM169.308 45.17L169.542 45.6684L169.542 45.6684L169.308 45.17ZM169.098 42.566L168.802 43.0307L168.81 43.0356L168.818 43.0402L169.098 42.566ZM166.284 41.264L166.479 40.7487L166.476 40.7476L166.284 41.264ZM163.596 40.13L163.349 40.6227L163.356 40.6261L163.596 40.13ZM161.58 38.744L161.19 39.1336L161.2 39.1434L161.58 38.744ZM160.278 36.77L160.788 36.5622L160.788 36.5622L160.278 36.77ZM162.126 29.126L162.465 29.56L162.465 29.56L162.126 29.126ZM172.332 27.698L172.221 28.2378L172.233 28.2399L172.332 27.698ZM175.272 28.454L175.809 28.5745L175.913 28.1106L175.47 27.9399L175.272 28.454ZM174.18 33.326L174 33.8465L174.582 34.0483L174.717 33.4465L174.18 33.326ZM171.786 32.654L171.661 33.1904L171.665 33.1913L171.786 32.654ZM166.62 35.258L166.282 35.6928L166.298 35.7052L166.314 35.7163L166.62 35.258ZM167.628 35.846L167.369 36.332L167.387 36.3421L167.407 36.3506L167.628 35.846ZM169.308 36.518L169.114 37.0338L169.118 37.0351L169.308 36.518ZM172.71 38.03L172.44 38.5102L172.451 38.5164L172.71 38.03ZM174.81 39.626L174.392 39.9845L174.401 39.9952L174.41 40.0054L174.81 39.626ZM175.902 41.516L175.371 41.6645L175.374 41.6743L175.377 41.6839L175.902 41.516ZM173.76 48.908L173.451 48.4521L173.447 48.4545L173.76 48.908ZM161.916 50.084L161.777 50.617L161.78 50.6177L161.916 50.084ZM159.228 49.244L158.688 49.1325L158.599 49.5671L159.004 49.7474L159.228 49.244ZM160.278 44.162L160.48 43.6496L159.871 43.4092L159.738 44.0505L160.278 44.162ZM163.554 45.17L163.433 45.7076L163.446 45.7101L163.554 45.17ZM166.872 46.0568C168.027 46.0568 168.947 45.9485 169.542 45.6684L169.073 44.6716C168.717 44.8395 168.013 44.9552 166.872 44.9552V46.0568ZM169.542 45.6684C169.879 45.5101 170.148 45.2671 170.326 44.9414C170.501 44.6224 170.573 44.2555 170.573 43.868H169.471C169.471 44.1245 169.423 44.2966 169.36 44.4116C169.301 44.5199 169.213 44.6059 169.073 44.6716L169.542 45.6684ZM170.573 43.868C170.573 43.0931 170.084 42.5088 169.378 42.0918L168.818 43.0402C169.344 43.3512 169.471 43.6349 169.471 43.868H170.573ZM169.394 42.1013C168.729 41.6787 167.75 41.2289 166.479 40.7487L166.089 41.7793C167.338 42.2511 168.234 42.6693 168.802 43.0307L169.394 42.1013ZM166.476 40.7476C165.509 40.3887 164.63 40.0174 163.835 39.6339L163.356 40.6261C164.186 41.0266 165.098 41.4113 166.092 41.7804L166.476 40.7476ZM163.842 39.6373C163.1 39.2665 162.475 38.8345 161.959 38.3446L161.2 39.1434C161.805 39.7175 162.523 40.2095 163.35 40.6227L163.842 39.6373ZM161.969 38.3545C161.463 37.848 161.069 37.2523 160.788 36.5622L159.768 36.9778C160.103 37.7997 160.577 38.52 161.19 39.1335L161.969 38.3545ZM160.788 36.5622C160.514 35.8889 160.367 35.0533 160.367 34.04H159.265C159.265 35.1547 159.426 36.1391 159.768 36.9778L160.788 36.5622ZM160.367 34.04C160.367 32.1257 161.068 30.6525 162.465 29.56L161.787 28.692C160.104 30.0075 159.265 31.8103 159.265 34.04H160.367ZM162.465 29.56C163.878 28.4556 165.857 27.8708 168.468 27.8708V26.7692C165.702 26.7692 163.454 27.3884 161.787 28.692L162.465 29.56ZM168.468 27.8708C169.777 27.8708 171.028 27.9936 172.221 28.2377L172.442 27.1583C171.172 26.8984 169.846 26.7692 168.468 26.7692V27.8708ZM172.233 28.2399C173.449 28.461 174.392 28.7056 175.074 28.9681L175.47 27.9399C174.696 27.6424 173.679 27.383 172.43 27.1561L172.233 28.2399ZM174.734 28.3335L173.642 33.2055L174.717 33.4465L175.809 28.5745L174.734 28.3335ZM174.36 32.8055C173.61 32.5459 172.792 32.3165 171.907 32.1167L171.665 33.1913C172.516 33.3835 173.294 33.6021 174 33.8465L174.36 32.8055ZM171.911 32.1176C171.022 31.9101 170.027 31.8092 168.93 31.8092V32.9108C169.961 32.9108 170.87 33.0059 171.661 33.1904L171.911 32.1176ZM168.93 31.8092C167.917 31.8092 167.069 31.9471 166.457 32.2883C166.142 32.4635 165.881 32.6974 165.701 32.9986C165.52 33.3005 165.439 33.64 165.439 33.998H166.541C166.541 33.81 166.582 33.6717 166.646 33.5642C166.711 33.4559 166.817 33.3485 166.993 33.2507C167.361 33.0459 167.983 32.9108 168.93 32.9108V31.8092ZM165.439 33.998C165.439 34.3112 165.491 34.6111 165.61 34.887L166.622 34.453C166.572 34.3369 166.541 34.1888 166.541 33.998H165.439ZM165.61 34.887C165.744 35.2008 165.99 35.4658 166.282 35.6928L166.958 34.8232C166.746 34.6582 166.656 34.5312 166.622 34.453L165.61 34.887ZM166.314 35.7163C166.587 35.8983 166.941 36.1037 167.369 36.332L167.887 35.36C167.475 35.1402 167.156 34.9537 166.925 34.7997L166.314 35.7163ZM167.407 36.3506C167.867 36.552 168.437 36.7797 169.114 37.0338L169.501 36.0022C168.835 35.7523 168.285 35.532 167.849 35.3413L167.407 36.3506ZM169.118 37.0351C170.473 37.5328 171.578 38.0251 172.44 38.5101L172.98 37.5499C172.05 37.0269 170.887 36.5112 169.498 36.0009L169.118 37.0351ZM172.451 38.5164C173.305 38.9696 173.944 39.4622 174.392 39.9845L175.228 39.2675C174.668 38.6138 173.907 38.0424 172.968 37.5435L172.451 38.5164ZM174.41 40.0054C174.885 40.5045 175.201 41.0564 175.371 41.6645L176.432 41.3675C176.211 40.5756 175.799 39.8675 175.209 39.2466L174.41 40.0054ZM175.377 41.6839C175.58 42.3177 175.687 43.071 175.687 43.952H176.789C176.789 42.985 176.672 42.1143 176.426 41.3481L175.377 41.6839ZM175.687 43.952C175.687 45.9736 174.936 47.4454 173.451 48.4521L174.069 49.3639C175.888 48.1306 176.789 46.2984 176.789 43.952H175.687ZM173.447 48.4545C171.951 49.4861 169.768 50.0372 166.83 50.0372V51.1388C169.883 51.1388 172.32 50.5699 174.073 49.3615L173.447 48.4545ZM166.83 50.0372C164.897 50.0372 163.309 49.8711 162.052 49.5503L161.78 50.6177C163.155 50.9689 164.842 51.1388 166.83 51.1388V50.0372ZM162.055 49.551C160.767 49.215 159.91 48.9445 159.452 48.7406L159.004 49.7474C159.554 49.9915 160.489 50.281 161.777 50.617L162.055 49.551ZM159.767 49.3555L160.817 44.2735L159.738 44.0505L158.688 49.1325L159.767 49.3555ZM160.076 44.6744C161.166 45.1048 162.285 45.4492 163.433 45.7074L163.675 44.6326C162.582 44.3868 161.518 44.0592 160.48 43.6496L160.076 44.6744ZM163.446 45.7101C164.6 45.9409 165.742 46.0568 166.872 46.0568V44.9552C165.818 44.9552 164.748 44.8471 163.662 44.6299L163.446 45.7101ZM187.173 50V50.5508H187.723V50H187.173ZM180.915 50H180.364V50.5508H180.915V50ZM180.915 27.908V27.3572H180.364V27.908H180.915ZM187.173 27.908H187.723V27.3572H187.173V27.908ZM186.627 24.254L186.992 24.6666L186.993 24.6657L186.627 24.254ZM181.377 24.254L181.003 24.6588L181.011 24.6662L181.019 24.6733L181.377 24.254ZM181.377 18.836L181.742 19.2486L181.743 19.2477L181.377 18.836ZM186.627 18.836L186.253 19.2408L186.261 19.2482L186.269 19.2553L186.627 18.836ZM187.173 49.4492H180.915V50.5508H187.173V49.4492ZM181.465 50V27.908H180.364V50H181.465ZM180.915 28.4588H187.173V27.3572H180.915V28.4588ZM186.622 27.908V50H187.723V27.908H186.622ZM187.21 21.524C187.21 22.5382 186.883 23.2895 186.261 23.8423L186.993 24.6657C187.883 23.8745 188.311 22.8058 188.311 21.524H187.21ZM186.262 23.8414C185.638 24.3928 184.902 24.6692 184.023 24.6692V25.7708C185.16 25.7708 186.159 25.4032 186.992 24.6666L186.262 23.8414ZM184.023 24.6692C183.143 24.6692 182.389 24.3924 181.734 23.8347L181.019 24.6733C181.877 25.4036 182.886 25.7708 184.023 25.7708V24.6692ZM181.75 23.8492C181.153 23.2984 180.835 22.545 180.835 21.524H179.734C179.734 22.799 180.144 23.8656 181.003 24.6588L181.75 23.8492ZM180.835 21.524C180.835 20.5024 181.153 19.7689 181.742 19.2486L181.012 18.4234C180.144 19.1911 179.734 20.2496 179.734 21.524H180.835ZM181.743 19.2477C182.398 18.665 183.15 18.3788 184.023 18.3788V17.2772C182.879 17.2772 181.867 17.663 181.011 18.4243L181.743 19.2477ZM184.023 18.3788C184.895 18.3788 185.629 18.6645 186.253 19.2408L187 18.4312C186.169 17.6635 185.166 17.2772 184.023 17.2772V18.3788ZM186.269 19.2553C186.883 19.7778 187.21 20.5094 187.21 21.524H188.311C188.311 20.2426 187.882 19.1822 186.984 18.4167L186.269 19.2553ZM192.761 34.46L192.245 34.2677L192.243 34.2734L192.761 34.46ZM195.029 30.764L195.429 31.1426L195.434 31.1372L195.029 30.764ZM198.599 28.244L198.821 28.7482L198.821 28.7482L198.599 28.244ZM206.621 27.656L206.498 28.193L206.506 28.1947L206.513 28.1961L206.621 27.656ZM209.477 28.538L210.01 28.6769L210.13 28.2166L209.692 28.0309L209.477 28.538ZM208.175 33.536L207.979 34.0507L208.553 34.2695L208.708 33.6749L208.175 33.536ZM206.243 32.948L206.115 33.4836L206.115 33.4836L206.243 32.948ZM199.733 34.418L199.304 34.0726L199.299 34.0791L199.733 34.418ZM199.649 43.574L199.213 43.9099L199.218 43.9168L199.649 43.574ZM206.579 45.002L206.667 45.5458L206.667 45.5458L206.579 45.002ZM208.973 44.33L209.516 44.2366L209.398 43.5521L208.759 43.8227L208.973 44.33ZM209.855 49.454L210.07 49.9613L210.472 49.7911L210.398 49.3606L209.855 49.454ZM207.125 50.252L207.015 49.7124L207.125 50.252ZM198.305 49.706L198.091 50.2134L198.099 50.2168L198.305 49.706ZM194.693 47.228L194.282 47.5947L194.288 47.6007L194.693 47.228ZM192.635 43.574L192.107 43.7295L192.111 43.7419L192.635 43.574ZM192.556 38.954C192.556 37.417 192.799 35.9825 193.28 34.6466L192.243 34.2734C191.716 35.7375 191.454 37.299 191.454 38.954H192.556ZM193.277 34.6523C193.785 33.2887 194.504 32.1213 195.429 31.1425L194.629 30.3855C193.595 31.4787 192.801 32.7753 192.245 34.2677L193.277 34.6523ZM195.434 31.1372C196.36 30.1322 197.487 29.3354 198.821 28.7482L198.377 27.7398C196.912 28.3846 195.658 29.2678 194.624 30.3908L195.434 31.1372ZM198.821 28.7482C200.14 28.1678 201.659 27.8708 203.387 27.8708V26.7692C201.532 26.7692 199.858 27.0882 198.377 27.7398L198.821 28.7482ZM203.387 27.8708C204.529 27.8708 205.565 27.9796 206.498 28.193L206.744 27.119C205.718 26.8844 204.598 26.7692 203.387 26.7692V27.8708ZM206.513 28.1961C207.456 28.3848 208.372 28.6677 209.262 29.0451L209.692 28.0309C208.734 27.6243 207.746 27.3192 206.729 27.1159L206.513 28.1961ZM208.944 28.3991L207.642 33.3971L208.708 33.6749L210.01 28.6769L208.944 28.3991ZM208.371 33.0213C207.758 32.7878 207.092 32.5851 206.372 32.4124L206.115 33.4836C206.795 33.6469 207.416 33.8362 207.979 34.0507L208.371 33.0213ZM206.372 32.4124C205.622 32.2325 204.794 32.1452 203.891 32.1452V33.2468C204.724 33.2468 205.464 33.3275 206.115 33.4836L206.372 32.4124ZM203.891 32.1452C201.923 32.1452 200.359 32.7625 199.304 34.0726L200.162 34.7634C200.956 33.7775 202.164 33.2468 203.891 33.2468V32.1452ZM199.299 34.0791C198.308 35.3487 197.838 36.9909 197.838 38.954H198.94C198.94 37.1651 199.366 35.7833 200.167 34.7569L199.299 34.0791ZM197.838 38.954C197.838 41.0114 198.272 42.6871 199.213 43.9098L200.086 43.2382C199.346 42.2769 198.94 40.8726 198.94 38.954H197.838ZM199.218 43.9168C200.236 45.1974 201.937 45.7628 204.143 45.7628V44.6612C202.093 44.6612 200.799 44.1346 200.08 43.2312L199.218 43.9168ZM204.143 45.7628C204.933 45.7628 205.775 45.6897 206.667 45.5458L206.492 44.4582C205.648 44.5943 204.866 44.6612 204.143 44.6612V45.7628ZM206.667 45.5458C207.574 45.3995 208.415 45.1643 209.188 44.8373L208.759 43.8227C208.076 44.1117 207.321 44.3245 206.492 44.4582L206.667 45.5458ZM208.43 44.4234L209.312 49.5474L210.398 49.3606L209.516 44.2366L208.43 44.4234ZM209.641 48.9467C208.957 49.2361 208.084 49.493 207.015 49.7124L207.236 50.7916C208.35 50.563 209.298 50.2879 210.07 49.9613L209.641 48.9467ZM207.015 49.7124C205.965 49.9277 204.799 50.0372 203.513 50.0372V51.1388C204.86 51.1388 206.102 51.0243 207.236 50.7916L207.015 49.7124ZM203.513 50.0372C201.549 50.0372 199.886 49.7504 198.512 49.1952L198.099 50.2168C199.636 50.8376 201.446 51.1388 203.513 51.1388V50.0372ZM198.52 49.1987C197.127 48.6096 195.991 47.8265 195.099 46.8553L194.288 47.6007C195.299 48.7015 196.571 49.5704 198.091 50.2133L198.52 49.1987ZM195.104 46.8614C194.235 45.8863 193.586 44.7371 193.16 43.4061L192.111 43.7419C192.581 45.2109 193.304 46.4977 194.282 47.5946L195.104 46.8614ZM193.164 43.4186C192.76 42.0462 192.556 40.5591 192.556 38.954H191.454C191.454 40.6529 191.67 42.2458 192.107 43.7294L193.164 43.4186ZM223.935 22.406L223.847 21.8622L223.384 21.9368V22.406H223.935ZM230.193 21.398H230.744V20.7513L230.105 20.8542L230.193 21.398ZM230.193 27.908H229.642V28.4588H230.193V27.908ZM237.711 27.908H238.262V27.3572H237.711V27.908ZM237.711 33.116V33.6668H238.262V33.116H237.711ZM230.193 33.116V32.5652H229.642V33.116H230.193ZM230.865 44.036L230.387 44.3093L230.39 44.3156L230.394 44.3219L230.865 44.036ZM235.737 45.044L235.824 45.5879L235.833 45.5866L235.841 45.5849L235.737 45.044ZM237.711 44.498L238.253 44.3999L238.135 43.7471L237.515 43.9833L237.711 44.498ZM238.593 49.37L238.801 49.8801L239.215 49.7115L239.135 49.2719L238.593 49.37ZM236.073 50.168L235.943 49.6327L235.943 49.6327L236.073 50.168ZM228.429 49.832L228.214 50.3391L228.225 50.3434L228.429 49.832ZM225.741 47.9L225.311 48.2442L225.317 48.2512L225.741 47.9ZM224.313 44.876L223.774 44.9914L223.777 45.0036L224.313 44.876ZM224.023 22.9498L230.281 21.9418L230.105 20.8542L223.847 21.8622L224.023 22.9498ZM229.642 21.398V27.908H230.744V21.398H229.642ZM230.193 28.4588H237.711V27.3572H230.193V28.4588ZM237.16 27.908V33.116H238.262V27.908H237.16ZM237.711 32.5652H230.193V33.6668H237.711V32.5652ZM229.642 33.116V40.886H230.744V33.116H229.642ZM229.642 40.886C229.642 42.2569 229.874 43.4125 230.387 44.3093L231.343 43.7627C230.96 43.0915 230.744 42.1471 230.744 40.886H229.642ZM230.394 44.3219C231.016 45.3456 232.195 45.7628 233.679 45.7628V44.6612C232.363 44.6612 231.666 44.2944 231.336 43.7501L230.394 44.3219ZM233.679 45.7628C234.382 45.7628 235.097 45.7043 235.824 45.5879L235.65 44.5001C234.977 44.6077 234.32 44.6612 233.679 44.6612V45.7628ZM235.841 45.5849C236.595 45.4399 237.285 45.2499 237.907 45.0127L237.515 43.9833C236.962 44.1941 236.335 44.3681 235.633 44.5031L235.841 45.5849ZM237.169 44.5961L238.051 49.4681L239.135 49.2719L238.253 44.3999L237.169 44.5961ZM238.385 48.8599C237.658 49.156 236.845 49.4141 235.943 49.6327L236.203 50.7033C237.149 50.4739 238.016 50.2 238.801 49.8801L238.385 48.8599ZM235.943 49.6327C235.075 49.8431 233.988 49.9532 232.671 49.9532V51.0548C234.042 51.0548 235.223 50.9409 236.203 50.7033L235.943 49.6327ZM232.671 49.9532C231.006 49.9532 229.668 49.7341 228.634 49.3206L228.225 50.3434C229.431 50.8259 230.92 51.0548 232.671 51.0548V49.9532ZM228.645 49.3251C227.593 48.8782 226.773 48.2831 226.165 47.5488L225.317 48.2512C226.053 49.1409 227.025 49.8338 228.214 50.3389L228.645 49.3251ZM226.171 47.5559C225.556 46.7868 225.112 45.8552 224.849 44.7484L223.777 45.0036C224.074 46.2488 224.582 47.3332 225.311 48.2441L226.171 47.5559ZM224.852 44.7606C224.609 43.6288 224.486 42.3662 224.486 40.97H223.384C223.384 42.4298 223.513 43.7712 223.774 44.9914L224.852 44.7606ZM224.486 40.97V22.406H223.384V40.97H224.486ZM261.895 43.7L262.414 43.8833L262.415 43.8802L261.895 43.7ZM259.711 47.396L260.111 47.7743L260.116 47.7687L259.711 47.396ZM256.267 49.748L256.055 49.2395L256.051 49.2411L256.267 49.748ZM247.363 49.748L247.147 50.2549L247.151 50.2565L247.363 49.748ZM243.961 47.396L243.555 47.7687L243.56 47.7742L243.961 47.396ZM241.735 43.7L241.217 43.889L241.219 43.8923L241.735 43.7ZM241.735 34.166L241.222 33.9649L241.219 33.9737L241.735 34.166ZM244.003 30.512L243.608 30.128L243.602 30.1338L244.003 30.512ZM247.447 28.16L247.235 27.6515L247.231 27.6531L247.447 28.16ZM256.183 28.16L255.967 28.6669L255.971 28.6685L256.183 28.16ZM259.627 30.512L259.226 30.8902L259.226 30.8902L259.627 30.512ZM261.853 34.166L261.337 34.3583L261.337 34.3583L261.853 34.166ZM255.091 34.376L254.634 34.6842L254.639 34.6908L254.643 34.6972L255.091 34.376ZM248.497 34.376L248.944 34.6973L248.948 34.6919L248.497 34.376ZM248.497 43.532L248.042 43.8427L248.046 43.8479L248.497 43.532ZM255.091 43.532L254.636 43.2213L254.634 43.2238L255.091 43.532ZM262.1 38.912C262.1 40.5944 261.856 42.1286 261.374 43.5198L262.415 43.8802C262.942 42.3594 263.202 40.7016 263.202 38.912H262.1ZM261.375 43.5167C260.894 44.8799 260.203 46.0462 259.305 47.0233L260.116 47.7687C261.123 46.6738 261.887 45.3761 262.414 43.8833L261.375 43.5167ZM259.31 47.0178C258.414 47.9668 257.331 48.7077 256.055 49.2395L256.479 50.2565C257.89 49.6683 259.104 48.8412 260.111 47.7742L259.31 47.0178ZM256.051 49.2411C254.813 49.768 253.404 50.0372 251.815 50.0372V51.1388C253.53 51.1388 255.089 50.848 256.483 50.2549L256.051 49.2411ZM251.815 50.0372C250.255 50.0372 248.844 49.7685 247.575 49.2395L247.151 50.2565C248.569 50.8475 250.127 51.1388 251.815 51.1388V50.0372ZM247.579 49.2411C246.33 48.7099 245.26 47.9689 244.361 47.0178L243.56 47.7742C244.566 48.8391 245.764 49.6661 247.147 50.2549L247.579 49.2411ZM244.366 47.0233C243.467 46.0439 242.76 44.8746 242.251 43.5077L241.219 43.8923C241.773 45.3814 242.551 46.6761 243.555 47.7687L244.366 47.0233ZM242.252 43.511C241.745 42.1223 241.488 40.5912 241.488 38.912H240.386C240.386 40.7048 240.661 42.3657 241.217 43.889L242.252 43.511ZM241.488 38.912C241.488 37.2326 241.745 35.7168 242.251 34.3583L241.219 33.9737C240.661 35.4712 240.386 37.1194 240.386 38.912H241.488ZM242.248 34.3671C242.785 32.9978 243.505 31.8417 244.403 30.8902L243.602 30.1338C242.597 31.1983 241.805 32.4782 241.222 33.9649L242.248 34.3671ZM244.398 30.896C245.326 29.9414 246.413 29.1987 247.663 28.6669L247.231 27.6531C245.849 28.2413 244.64 29.0666 243.608 30.128L244.398 30.896ZM247.659 28.6685C248.931 28.1385 250.314 27.8708 251.815 27.8708V26.7692C250.18 26.7692 248.651 27.0615 247.235 27.6515L247.659 28.6685ZM251.815 27.8708C253.345 27.8708 254.727 28.1391 255.967 28.6669L256.399 27.6531C255.007 27.0609 253.476 26.7692 251.815 26.7692V27.8708ZM255.971 28.6685C257.247 29.2003 258.33 29.9412 259.226 30.8902L260.027 30.1338C259.02 29.0668 257.806 28.2397 256.395 27.6515L255.971 28.6685ZM259.226 30.8902C260.123 31.8395 260.828 32.9925 261.337 34.3583L262.369 33.9737C261.814 32.4835 261.035 31.2005 260.027 30.1338L259.226 30.8902ZM261.337 34.3583C261.843 35.7168 262.1 37.2326 262.1 38.912H263.202C263.202 37.1194 262.927 35.4712 262.369 33.9737L261.337 34.3583ZM256.818 38.912C256.818 36.9132 256.413 35.2733 255.538 34.0547L254.643 34.6972C255.337 35.6627 255.716 37.0468 255.716 38.912H256.818ZM255.547 34.0678C254.682 32.7861 253.414 32.1452 251.815 32.1452V33.2468C253.072 33.2468 253.987 33.7259 254.634 34.6842L255.547 34.0678ZM251.815 32.1452C250.217 32.1452 248.938 32.7853 248.046 34.0601L248.948 34.6919C249.624 33.7267 250.557 33.2468 251.815 33.2468V32.1452ZM248.049 34.0547C247.175 35.2733 246.77 36.9132 246.77 38.912H247.872C247.872 37.0468 248.251 35.6627 248.944 34.6972L248.049 34.0547ZM246.77 38.912C246.77 40.913 247.175 42.5738 248.042 43.8426L248.952 43.2214C248.25 42.1942 247.872 40.775 247.872 38.912H246.77ZM248.046 43.8479C248.938 45.1227 250.217 45.7628 251.815 45.7628V44.6612C250.557 44.6612 249.624 44.1813 248.948 43.2161L248.046 43.8479ZM251.815 45.7628C253.414 45.7628 254.682 45.1219 255.547 43.8402L254.634 43.2238C253.987 44.1821 253.072 44.6612 251.815 44.6612V45.7628ZM255.546 43.8426C256.412 42.5738 256.818 40.913 256.818 38.912H255.716C255.716 40.775 255.337 42.1942 254.636 43.2214L255.546 43.8426ZM287.407 43.7L287.926 43.8833L287.927 43.8802L287.407 43.7ZM285.223 47.396L285.623 47.7743L285.628 47.7687L285.223 47.396ZM281.779 49.748L281.567 49.2395L281.563 49.2411L281.779 49.748ZM272.875 49.748L272.659 50.2549L272.663 50.2565L272.875 49.748ZM269.473 47.396L269.067 47.7687L269.072 47.7742L269.473 47.396ZM267.247 43.7L266.729 43.889L266.73 43.8923L267.247 43.7ZM267.247 34.166L266.734 33.9649L266.73 33.9737L267.247 34.166ZM269.515 30.512L269.12 30.128L269.114 30.1338L269.515 30.512ZM272.959 28.16L272.747 27.6515L272.743 27.6531L272.959 28.16ZM281.695 28.16L281.479 28.6669L281.483 28.6685L281.695 28.16ZM285.139 30.512L284.738 30.8902L284.738 30.8902L285.139 30.512ZM287.365 34.166L286.848 34.3583L286.848 34.3583L287.365 34.166ZM280.603 34.376L280.146 34.6842L280.15 34.6908L280.155 34.6972L280.603 34.376ZM274.009 34.376L274.456 34.6973L274.46 34.6919L274.009 34.376ZM274.009 43.532L273.554 43.8427L273.557 43.8479L274.009 43.532ZM280.603 43.532L280.148 43.2213L280.146 43.2238L280.603 43.532ZM287.612 38.912C287.612 40.5944 287.368 42.1286 286.886 43.5198L287.927 43.8802C288.454 42.3594 288.713 40.7016 288.713 38.912H287.612ZM286.887 43.5167C286.406 44.8799 285.715 46.0462 284.817 47.0233L285.628 47.7687C286.634 46.6738 287.399 45.3761 287.926 43.8833L286.887 43.5167ZM284.822 47.0178C283.926 47.9668 282.843 48.7077 281.567 49.2395L281.99 50.2565C283.402 49.6683 284.615 48.8412 285.623 47.7742L284.822 47.0178ZM281.563 49.2411C280.325 49.768 278.916 50.0372 277.327 50.0372V51.1388C279.041 51.1388 280.6 50.848 281.994 50.2549L281.563 49.2411ZM277.327 50.0372C275.767 50.0372 274.356 49.7685 273.086 49.2395L272.663 50.2565C274.081 50.8475 275.638 51.1388 277.327 51.1388V50.0372ZM273.09 49.2411C271.842 48.7099 270.771 47.9689 269.873 47.0178L269.072 47.7742C270.078 48.8391 271.275 49.6661 272.659 50.2549L273.09 49.2411ZM269.878 47.0233C268.978 46.0439 268.272 44.8746 267.763 43.5077L266.73 43.8923C267.285 45.3814 268.063 46.6761 269.067 47.7687L269.878 47.0233ZM267.764 43.511C267.257 42.1223 266.999 40.5912 266.999 38.912H265.898C265.898 40.7048 266.173 42.3657 266.729 43.889L267.764 43.511ZM266.999 38.912C266.999 37.2326 267.257 35.7168 267.763 34.3583L266.73 33.9737C266.173 35.4712 265.898 37.1194 265.898 38.912H266.999ZM267.759 34.3671C268.296 32.9978 269.016 31.8417 269.915 30.8902L269.114 30.1338C268.109 31.1983 267.317 32.4782 266.734 33.9649L267.759 34.3671ZM269.91 30.896C270.838 29.9414 271.924 29.1987 273.174 28.6669L272.743 27.6531C271.361 28.2413 270.152 29.0666 269.12 30.128L269.91 30.896ZM273.17 28.6685C274.442 28.1385 275.826 27.8708 277.327 27.8708V26.7692C275.692 26.7692 274.163 27.0615 272.747 27.6515L273.17 28.6685ZM277.327 27.8708C278.857 27.8708 280.239 28.1391 281.479 28.6669L281.91 27.6531C280.519 27.0609 278.988 26.7692 277.327 26.7692V27.8708ZM281.483 28.6685C282.759 29.2003 283.842 29.9412 284.738 30.8902L285.539 30.1338C284.531 29.0668 283.318 28.2397 281.906 27.6515L281.483 28.6685ZM284.738 30.8902C285.635 31.8395 286.34 32.9925 286.848 34.3583L287.881 33.9737C287.326 32.4835 286.546 31.2005 285.539 30.1338L284.738 30.8902ZM286.848 34.3583C287.355 35.7168 287.612 37.2326 287.612 38.912H288.713C288.713 37.1194 288.439 35.4712 287.881 33.9737L286.848 34.3583ZM282.329 38.912C282.329 36.9132 281.925 35.2733 281.05 34.0547L280.155 34.6972C280.848 35.6627 281.228 37.0468 281.228 38.912H282.329ZM281.059 34.0678C280.194 32.7861 278.925 32.1452 277.327 32.1452V33.2468C278.584 33.2468 279.499 33.7259 280.146 34.6842L281.059 34.0678ZM277.327 32.1452C275.728 32.1452 274.45 32.7853 273.557 34.0601L274.46 34.6919C275.135 33.7267 276.069 33.2468 277.327 33.2468V32.1452ZM273.561 34.0547C272.686 35.2733 272.282 36.9132 272.282 38.912H273.383C273.383 37.0468 273.763 35.6627 274.456 34.6972L273.561 34.0547ZM272.282 38.912C272.282 40.913 272.687 42.5738 273.554 43.8426L274.463 43.2214C273.762 42.1942 273.383 40.775 273.383 38.912H272.282ZM273.557 43.8479C274.45 45.1227 275.728 45.7628 277.327 45.7628V44.6612C276.069 44.6612 275.135 44.1813 274.46 43.2161L273.557 43.8479ZM277.327 45.7628C278.925 45.7628 280.194 45.1219 281.059 43.8402L280.146 43.2238C279.499 44.1821 278.584 44.6612 277.327 44.6612V45.7628ZM281.057 43.8426C281.924 42.5738 282.329 40.913 282.329 38.912H281.228C281.228 40.775 280.849 42.1942 280.148 43.2214L281.057 43.8426ZM301.83 50.42L301.822 50.9708L302.294 50.978L302.373 50.5127L301.83 50.42ZM297.378 49.832L297.208 50.3559L297.212 50.3571L297.378 49.832ZM294.69 48.32L294.293 48.7011L294.301 48.7096L294.309 48.7177L294.69 48.32ZM293.346 45.926L292.81 46.0522L292.812 46.0616L292.815 46.0709L293.346 45.926ZM293.01 18.416L292.923 17.8722L292.459 17.9468V18.416H293.01ZM299.268 17.408H299.819V16.7613L299.181 16.8642L299.268 17.408ZM299.394 42.986L299.936 42.8845L299.936 42.8845L299.394 42.986ZM299.856 44.12L299.411 44.444L299.42 44.4567L299.43 44.4688L299.856 44.12ZM300.906 44.876L301.127 44.3713L301.127 44.3713L300.906 44.876ZM302.712 45.254L303.255 45.3467L303.357 44.7494L302.753 44.7047L302.712 45.254ZM301.839 49.8692C300.048 49.8417 298.623 49.6487 297.545 49.3069L297.212 50.3571C298.43 50.7433 299.973 50.9423 301.822 50.9708L301.839 49.8692ZM297.549 49.3081C296.487 48.9632 295.67 48.4958 295.071 47.9223L294.309 48.7177C295.055 49.4322 296.029 49.9728 297.208 50.3559L297.549 49.3081ZM295.088 47.9389C294.509 47.3352 294.106 46.6191 293.878 45.7811L292.815 46.0709C293.09 47.0809 293.583 47.9608 294.293 48.7011L295.088 47.9389ZM293.883 45.7998C293.67 44.8965 293.561 43.8758 293.561 42.734H292.459C292.459 43.9442 292.575 45.0515 292.81 46.0522L293.883 45.7998ZM293.561 42.734V18.416H292.459V42.734H293.561ZM293.098 18.9598L299.356 17.9518L299.181 16.8642L292.923 17.8722L293.098 18.9598ZM298.717 17.408V41.474H299.819V17.408H298.717ZM298.717 41.474C298.717 42.0607 298.761 42.5995 298.853 43.0875L299.936 42.8845C299.859 42.4765 299.819 42.0073 299.819 41.474H298.717ZM298.853 43.0875C298.949 43.6003 299.13 44.0581 299.411 44.444L300.302 43.796C300.134 43.5659 300.008 43.2677 299.936 42.8845L298.853 43.0875ZM299.43 44.4688C299.748 44.858 300.176 45.1576 300.686 45.3806L301.127 44.3713C300.741 44.2024 300.468 43.998 300.283 43.7712L299.43 44.4688ZM300.686 45.3806C301.213 45.6114 301.884 45.745 302.672 45.8033L302.753 44.7047C302.029 44.651 301.496 44.5326 301.127 44.3713L300.686 45.3806ZM302.169 45.1613L301.287 50.3273L302.373 50.5127L303.255 45.3467L302.169 45.1613Z" fill="#BDBDBD"/>
</g>
<defs>
<clipPath id="clip0_141_4039">
<rect width="400" height="60" fill="white"/>
</clipPath>
</defs>
</svg>
