<svg width="74" height="144" viewBox="0 0 74 144" fill="none" xmlns="http://www.w3.org/2000/svg">
<path d="M43 8.68556L43 14.7085L68.1092 14.7085L68.1092 23.2546L73.1148 23.2546L73.1148 0.220869L68.1092 0.220869L68.1092 8.68556L43 8.68556ZM55.4122 31.9667L58.7085 32.862C61.8421 33.7573 65.2605 34.6526 68.5569 35.4258L68.5569 35.5886C65.3012 36.4839 61.8421 37.2978 58.7085 38.2338L55.4122 39.1291L55.4122 31.9667ZM43 42.5475L43 48.8554L73.1148 39.1698L73.1148 32.0887L43 22.4439L43 28.5482L50.7322 30.6644L50.7322 40.4314L43 42.5475ZM43 52.3806L43 58.4036L73.1148 58.4036L73.1148 52.3806L43 52.3806ZM0.43026 14.9934C0.43026 18.9002 1.97669 22.1151 4.86609 24.5976L8.61009 21.4233C6.86017 19.7955 5.6393 17.7607 5.6393 15.1969C5.6393 10.4355 9.58678 7.34261 16.1388 7.34261C22.6094 7.34261 26.5162 10.761 26.5162 15.319C26.5162 17.5979 25.4581 19.3478 23.993 20.8536L27.8184 24.0278C29.8532 22.0744 31.6845 19.0223 31.6845 15.1969C31.6845 7.58678 25.865 1.19756 15.9353 1.19756C5.88348 1.19756 0.43026 7.3833 0.43026 14.9934ZM0.999999 29.4496L0.999998 35.4725L14.0226 35.4725L14.0226 46.8673L0.999998 46.8673L0.999998 52.8496L31.1148 52.8496L31.1148 46.8673L19.2723 46.8673L19.2723 35.4725L31.1148 35.4725L31.1148 29.4496L0.999999 29.4496ZM0.430258 71.8071C0.430257 79.173 4.54052 83.446 14.5516 83.446L31.1148 83.446L31.1148 77.6672L14.0226 77.6672C7.75548 77.6672 5.6393 75.3883 5.6393 71.8071C5.6393 68.2665 7.75548 66.1097 14.0226 66.1097L31.1148 66.1097L31.1148 60.0867L14.5516 60.0867C4.54052 60.0867 0.430258 64.4818 0.430258 71.8071ZM0.999996 90.6918L0.999996 96.3891L13.0866 96.3891C16.5457 96.3891 20.3304 95.9415 23.5861 95.6566L23.5861 95.8601L17.1155 98.9123L0.999995 107.621L0.999995 113.725L31.1148 113.725L31.1148 108.028L19.1096 108.028C15.6911 108.028 11.703 108.476 8.56939 108.801L8.56939 108.598L15.0807 105.586L31.1148 96.8368L31.1148 90.6918L0.999996 90.6918ZM0.430255 134.115C0.430255 138.307 2.05808 141.847 4.05217 143.882L17.6445 143.882L17.6445 133.179L12.7203 133.179L12.7203 138.51L6.77878 138.51C6.04626 137.655 5.6393 136.19 5.6393 134.725C5.6393 128.825 9.58678 125.813 16.1388 125.813C22.6094 125.813 26.5162 129.313 26.5162 134.318C26.5162 137.045 25.4174 138.754 23.993 140.219L27.8184 143.434C29.8125 141.481 31.6845 138.469 31.6845 134.115C31.6845 126.098 25.865 119.668 15.9353 119.668C5.88347 119.668 0.430255 125.894 0.430255 134.115Z" fill="#00FF63"/>
</svg>
