<svg width="707" height="339" viewBox="0 0 707 339" fill="none" xmlns="http://www.w3.org/2000/svg">
<line x1="600.5" y1="6.55671e-08" x2="600.5" y2="337" stroke="#00FF63" stroke-width="3"/>
<path d="M633 199.157L633 197.719L631.562 197.719L631.562 199.157L633 199.157ZM633 200.197L631.562 200.197L631.562 201.634L633 201.634L633 200.197ZM639.34 200.197L640.778 200.197L640.778 198.759L639.34 198.759L639.34 200.197ZM639.34 208.117L637.902 208.117L637.902 209.554L639.34 209.554L639.34 208.117ZM640.3 208.117L640.3 209.554L641.738 209.554L641.738 208.117L640.3 208.117ZM640.3 200.197L640.3 198.759L638.862 198.759L638.862 200.197L640.3 200.197ZM646.04 200.197L647.477 200.197L647.477 198.759L646.04 198.759L646.04 200.197ZM646.04 209.017L644.603 209.017L644.603 210.454L646.04 210.454L646.04 209.017ZM647 209.017L647 210.454L648.438 210.454L648.438 209.017L647 209.017ZM647 199.157L648.438 199.157L648.438 197.719L647 197.719L647 199.157ZM631.562 199.157L631.562 200.197L634.437 200.197L634.437 199.157L631.562 199.157ZM633 201.634L639.34 201.634L639.34 198.759L633 198.759L633 201.634ZM637.903 200.197L637.902 208.117L640.777 208.117L640.778 200.197L637.903 200.197ZM639.34 209.554L640.3 209.554L640.3 206.679L639.34 206.679L639.34 209.554ZM641.738 208.117L641.738 200.197L638.862 200.197L638.862 208.117L641.738 208.117ZM640.3 201.634L646.04 201.634L646.04 198.759L640.3 198.759L640.3 201.634ZM644.603 200.197L644.603 209.017L647.477 209.017L647.477 200.197L644.603 200.197ZM646.04 210.454L647 210.454L647 207.579L646.04 207.579L646.04 210.454ZM648.438 209.017L648.438 199.157L645.562 199.157L645.562 209.017L648.438 209.017ZM647 197.719L633 197.719L633 200.594L647 200.594L647 197.719ZM633 217.222L633 215.784L631.562 215.784L631.562 217.222L633 217.222ZM633 218.262L631.562 218.262L631.562 219.699L633 219.699L633 218.262ZM647 218.262L647 219.699L648.437 219.699L648.438 218.262L647 218.262ZM647 217.222L648.438 217.222L648.438 215.784L647 215.784L647 217.222ZM631.562 217.222L631.562 218.262L634.437 218.262L634.437 217.222L631.562 217.222ZM633 219.699L647 219.699L647 216.824L633 216.824L633 219.699ZM648.438 218.262L648.438 217.222L645.562 217.222L645.562 218.262L648.438 218.262ZM647 215.784L633 215.784L633 218.659L647 218.659L647 215.784ZM633 227.37L633 225.932L631.562 225.932L631.562 227.37L633 227.37ZM633 236.63L631.562 236.63L631.562 238.067L633 238.067L633 236.63ZM633.96 236.63L633.96 238.067L635.397 238.067L635.397 236.63L633.96 236.63ZM633.96 228.41L633.96 226.972L632.522 226.972L632.522 228.41L633.96 228.41ZM647 228.41L647 229.847L648.437 229.847L648.437 228.41L647 228.41ZM647 227.37L648.437 227.37L648.437 225.932L647 225.932L647 227.37ZM631.562 227.37L631.562 236.63L634.437 236.63L634.437 227.37L631.562 227.37ZM633 238.067L633.96 238.067L633.96 235.192L633 235.192L633 238.067ZM635.397 236.63L635.397 228.41L632.522 228.41L632.522 236.63L635.397 236.63ZM633.96 229.847L647 229.847L647 226.972L633.96 226.972L633.96 229.847ZM648.437 228.41L648.437 227.37L645.562 227.37L645.562 228.41L648.437 228.41ZM647 225.932L633 225.932L633 228.807L647 228.807L647 225.932ZM633 244.553L633 243.115L631.562 243.115L631.562 244.553L633 244.553ZM633 245.553L631.562 245.553L631.562 246.99L633 246.99L633 245.553ZM645.16 245.553L645.974 246.737L649.789 244.115L645.16 244.115L645.16 245.553ZM637.1 251.093L636.286 249.908L635.662 250.336L635.662 251.093L637.1 251.093ZM637.1 251.173L635.662 251.173L635.662 251.929L636.286 252.357L637.1 251.173ZM645.16 256.713L645.16 258.15L649.789 258.15L645.974 255.528L645.16 256.713ZM633 256.713L633 255.275L631.562 255.275L631.562 256.713L633 256.713ZM633 257.753L631.562 257.753L631.562 259.19L633 259.19L633 257.753ZM647 257.753L647 259.19L648.437 259.19L648.437 257.753L647 257.753ZM647 256.773L648.437 256.773L648.437 256.011L647.807 255.583L647 256.773ZM638.72 251.153L637.913 249.963L636.16 251.153L637.913 252.342L638.72 251.153ZM647 245.533L647.807 246.722L648.437 246.294L648.437 245.533L647 245.533ZM647 244.553L648.437 244.553L648.437 243.115L647 243.115L647 244.553ZM631.562 244.553L631.562 245.553L634.437 245.553L634.437 244.553L631.562 244.553ZM633 246.99L645.16 246.99L645.16 244.115L633 244.115L633 246.99ZM644.346 244.368L636.286 249.908L637.914 252.277L645.974 246.737L644.346 244.368ZM635.662 251.093L635.662 251.173L638.537 251.173L638.537 251.093L635.662 251.093ZM636.286 252.357L644.346 257.897L645.974 255.528L637.914 249.988L636.286 252.357ZM645.16 255.275L633 255.275L633 258.15L645.16 258.15L645.16 255.275ZM631.562 256.713L631.562 257.753L634.437 257.753L634.437 256.713L631.562 256.713ZM633 259.19L647 259.19L647 256.315L633 256.315L633 259.19ZM648.437 257.753L648.437 256.773L645.562 256.773L645.562 257.753L648.437 257.753ZM647.807 255.583L639.527 249.963L637.913 252.342L646.193 257.962L647.807 255.583ZM639.527 252.342L647.807 246.722L646.193 244.343L637.913 249.963L639.527 252.342ZM648.437 245.533L648.437 244.553L645.562 244.553L645.562 245.533L648.437 245.533ZM647 243.115L633 243.115L633 245.99L647 245.99L647 243.115ZM631.322 283.912C631.322 289.047 635.491 292.41 640 292.41L640 289.535C636.869 289.535 634.197 287.257 634.197 283.912L631.322 283.912ZM640 292.41L640.04 292.41L640.04 289.535L640 289.535L640 292.41ZM640.04 292.41C644.548 292.41 648.677 289.088 648.677 283.952L645.802 283.952C645.802 287.296 643.172 289.535 640.04 289.535L640.04 292.41ZM648.677 283.952C648.677 278.817 644.509 275.455 640 275.455L640 278.33C643.131 278.33 645.802 280.607 645.802 283.952L648.677 283.952ZM640 275.455L639.96 275.455L639.96 278.33L640 278.33L640 275.455ZM639.96 275.455C635.452 275.455 631.322 278.776 631.322 283.912L634.197 283.912C634.197 280.568 636.828 278.33 639.96 278.33L639.96 275.455ZM635.137 283.952C635.137 281.382 637.234 279.41 640 279.41L640 276.535C635.846 276.535 632.262 279.602 632.262 283.952L635.137 283.952ZM640 279.41L640.04 279.41L640.04 276.535L640 276.535L640 279.41ZM640.04 279.41C642.807 279.41 644.862 281.343 644.862 283.912L647.737 283.912C647.737 279.561 644.193 276.535 640.04 276.535L640.04 279.41ZM644.862 283.912C644.862 286.482 642.766 288.455 640 288.455L640 291.33C644.154 291.33 647.737 288.262 647.737 283.912L644.862 283.912ZM640 288.455L639.96 288.455L639.96 291.33L640 291.33L640 288.455ZM639.96 288.455C637.193 288.455 635.137 286.521 635.137 283.952L632.262 283.952C632.262 288.303 635.807 291.33 639.96 291.33L639.96 288.455ZM633 300.804L633 299.367L631.562 299.367L631.562 300.804L633 300.804ZM633 301.824L631.562 301.824L631.562 303.262L633 303.262L633 301.824ZM647.1 301.824L647.1 303.262L648.537 303.262L648.537 301.824L647.1 301.824ZM647.1 301.024L648.537 301.024L648.537 300.768L648.449 300.527L647.1 301.024ZM645.92 297.824L647.269 297.327L646.783 296.01L645.455 296.464L645.92 297.824ZM645.1 298.104L644.635 296.744L643.276 297.208L643.739 298.568L645.1 298.104ZM646.02 300.804L646.02 302.242L648.028 302.242L647.381 300.341L646.02 300.804ZM631.562 300.804L631.562 301.824L634.437 301.824L634.437 300.804L631.562 300.804ZM633 303.262L647.1 303.262L647.1 300.387L633 300.387L633 303.262ZM648.537 301.824L648.537 301.024L645.662 301.024L645.662 301.824L648.537 301.824ZM648.449 300.527L647.269 297.327L644.571 298.322L645.751 301.522L648.449 300.527ZM645.455 296.464L644.635 296.744L645.565 299.465L646.385 299.185L645.455 296.464ZM643.739 298.568L644.659 301.268L647.381 300.341L646.461 297.641L643.739 298.568ZM646.02 299.367L633 299.367L633 302.242L646.02 302.242L646.02 299.367Z" fill="#00FF63"/>
<rect x="1.5" y="1.5" width="678" height="336" stroke="#00FF63" stroke-width="3"/>
<path d="M687.513 107.525C683.73 111.311 681.13 116.213 679.498 122.341C677.866 116.201 675.261 111.297 671.474 107.513C667.688 103.729 662.785 101.129 656.655 99.4964C662.782 97.8644 667.685 95.2597 671.471 91.4742C675.257 87.6887 677.864 82.7862 679.496 76.6565C681.131 82.795 683.738 87.699 687.525 91.4834C691.311 95.266 696.213 97.866 702.341 99.4963C696.201 101.131 691.297 103.738 687.513 107.525Z" fill="#2C2F31" stroke="#00FF63" stroke-width="2"/>
<path d="M679.392 104.192C682.043 104.192 684.192 102.043 684.192 99.3918C684.192 96.7408 682.043 94.5918 679.392 94.5918C676.741 94.5918 674.592 96.7408 674.592 99.3918C674.592 102.043 676.741 104.192 679.392 104.192Z" fill="#00FF63"/>
<path d="M626.309 22.5H652.691C655.347 22.5 657.5 24.6532 657.5 27.3092V53.6908C657.5 56.3468 655.347 58.5 652.691 58.5H626.309C623.653 58.5 621.5 56.3468 621.5 53.6908V27.3092C621.5 24.6532 623.653 22.5 626.309 22.5Z" stroke="#00FF63"/>
<path d="M628.32 28.5474H630.105V32.7588H634.94V28.5474H636.72V38.6767H634.94V34.4057H630.105V38.6767H628.32V28.5474Z" fill="#00FF63"/>
<path d="M640.615 33.6397V33.6122C640.608 32.9141 640.742 32.2217 641.009 31.5765C641.276 30.9313 641.67 30.3467 642.168 29.8575C642.666 29.3683 643.258 28.9848 643.908 28.7297C644.558 28.4746 645.253 28.3534 645.951 28.3732C646.643 28.3546 647.333 28.4761 647.977 28.7306C648.622 28.985 649.208 29.3671 649.701 29.8538C650.194 30.3405 650.584 30.9219 650.847 31.5631C651.11 32.2042 651.24 32.8918 651.231 33.5847V33.6122C651.238 34.3083 651.105 34.9988 650.839 35.6424C650.574 36.286 650.182 36.8696 649.686 37.3584C649.19 37.8473 648.601 38.2314 647.954 38.4878C647.307 38.7443 646.614 38.8679 645.918 38.8512C645.224 38.873 644.532 38.7537 643.885 38.5007C643.238 38.2477 642.648 37.8661 642.153 37.3791C641.657 36.892 641.265 36.3095 641.001 35.6668C640.737 35.0241 640.606 34.3346 640.615 33.6397ZM649.332 33.6397V33.6122C649.349 33.1474 649.274 32.6837 649.109 32.2487C648.944 31.8137 648.694 31.4163 648.372 31.08C648.051 30.7436 647.665 30.4753 647.238 30.2909C646.811 30.1065 646.351 30.0097 645.886 30.0064C643.877 30.0064 642.473 31.612 642.473 33.5847V33.6122C642.455 34.077 642.531 34.5407 642.696 34.9757C642.861 35.4107 643.111 35.8081 643.433 36.1444C643.754 36.4807 644.14 36.7491 644.567 36.9335C644.994 37.1179 645.453 37.2147 645.918 37.218C646.381 37.2179 646.839 37.124 647.264 36.9421C647.69 36.7602 648.074 36.4941 648.394 36.1597C648.714 35.8254 648.962 35.4297 649.125 34.9966C649.288 34.5635 649.361 34.1019 649.341 33.6397H649.332Z" fill="#00FF63"/>
<path d="M628.32 42.6357H630.105V51.1503H635.431V52.7697H628.32V42.6357Z" fill="#00FF63"/>
<path d="M645.217 42.5581H646.868L651.327 52.7655H649.442L648.414 50.3203H643.625L642.583 52.7655H640.748L645.217 42.5581ZM647.786 48.7422L646.038 44.6867L644.299 48.7422H647.786Z" fill="#00FF63"/>
</svg>
