<svg width="471" height="102" viewBox="0 0 471 102" fill="none" xmlns="http://www.w3.org/2000/svg">
<path d="M230.2 20.3101H12.18V67.5301H230.2V20.3101Z" fill="#00FF63"/>
<path d="M214.76 20.79V67.05H12.66V20.79H214.76ZM215.76 19.79H11.76V67.97H215.76V19.83V19.79Z" fill="black"/>
<path d="M230.76 19.6099H214.84V67.0399H230.76V19.6099Z" fill="black"/>
<path d="M230.17 20.2103V66.4703H215.43V20.2103H230.17ZM231.35 19.0303H214.26V67.6403H231.35V19.0303V19.0303Z" fill="#00FF63"/>
<path d="M210.66 43.7197L224.23 30.1497L237.8 43.7197L244.25 37.2797L230.68 23.6997L244.25 10.1297L237.8 3.67969L224.23 17.2597L210.66 3.67969L204.21 10.1297L217.79 23.6997L204.21 37.2697L210.66 43.7197Z" fill="#00FF63" stroke="black" stroke-width="1.1" stroke-miterlimit="10"/>
<path d="M207.97 41.03L221.54 27.46L235.12 41.03L241.56 34.59L227.99 21.02L241.56 7.44L235.12 1L221.54 14.57L207.97 1L201.53 7.44L215.1 21.02L201.53 34.59L207.97 41.03Z" fill="#00FF63" stroke="black" stroke-width="1.1" stroke-miterlimit="10"/>
<path d="M12.66 67.23H1V78.89H12.66V67.23Z" fill="black" stroke="black" stroke-width="0.59" stroke-miterlimit="10"/>
<path d="M24.32 55.5698H12.66V67.2298H24.32V55.5698Z" fill="black" stroke="black" stroke-width="0.59" stroke-miterlimit="10"/>
<path d="M12.66 43.9199H1V55.5799H12.66V43.9199Z" fill="black" stroke="black" stroke-width="0.59" stroke-miterlimit="10"/>
<path d="M24.32 32.2598H12.66V43.9198H24.32V32.2598Z" fill="black" stroke="black" stroke-width="0.59" stroke-miterlimit="10"/>
<path d="M12.66 20.6099H1V32.2699H12.66V20.6099Z" fill="black" stroke="black" stroke-width="0.59" stroke-miterlimit="10"/>
<path d="M24.32 8.9502H12.66V20.6102H24.32V8.9502Z" fill="black" stroke="black" stroke-width="0.59" stroke-miterlimit="10"/>
<path d="M469.7 66.3701H11.98V101.37H469.7V66.3701Z" fill="black"/>
<path d="M468.72 67.35V100H12.36V67.35H468.72ZM470.08 66H11V101.36H470.08V66Z" fill="#00FF63"/>
<path d="M37.02 57.46H41.6V55.86H39.22V39.5H41.6V37.94H37.02V57.46ZM48.4986 40.24L47.3386 41.2C47.7986 41.62 48.3586 42.2 48.7786 42.7H45.3386C45.9786 41.98 46.6186 41.16 47.1986 40.24H48.4986ZM50.1786 45.52H46.7386V44.48H50.1786V45.52ZM46.7386 48.06V47.22H50.1786V48.06H46.7386ZM48.5186 50.76C48.7586 51.14 49.0386 51.54 49.2986 51.96L46.7386 52.52V49.84H52.3986V42.7H49.5986L50.8386 41.66C50.5186 41.26 49.9586 40.7 49.4186 40.24H52.4586V38.24H48.2786C48.3786 38.02 48.4786 37.82 48.5586 37.6L46.2186 36.9C45.5786 38.54 44.4186 40.2 43.1986 41.26C43.5586 41.64 44.1786 42.44 44.5586 43V51.76C44.5586 52.66 44.0986 53.24 43.7186 53.52C44.0786 53.92 44.6186 54.84 44.7786 55.36C45.2386 55.08 45.9986 54.86 50.3986 53.78C50.6986 54.32 50.9786 54.82 51.1586 55.24L53.0986 54.24C52.5386 53.06 51.3786 51.3 50.3986 49.92L48.5186 50.76ZM54.2186 42.7C54.7186 41.98 55.2186 41.16 55.6586 40.24H57.1586L56.1586 41.06C56.6986 41.54 57.3186 42.2 57.7186 42.7H54.2186ZM61.7186 38.24H56.4986C56.5786 38 56.6586 37.74 56.7386 37.5L54.3186 36.9C53.8186 38.76 52.8386 40.6 51.6986 41.76C52.1986 42.12 52.9986 42.9 53.4386 43.38V55.68H55.6786V44.86H58.7986V50.92C58.7986 51.18 58.6986 51.26 58.3986 51.26C58.1186 51.28 57.1186 51.28 56.2186 51.24C56.4986 51.84 56.8186 52.78 56.8986 53.42C58.3586 53.42 59.3786 53.4 60.0986 53.04C60.8786 52.68 61.0586 52.08 61.0586 50.98V42.7H58.1986L59.6186 41.5C59.3586 41.16 58.8586 40.68 58.3786 40.24H61.7186V38.24ZM67.8186 51.96V49.6H77.0786V51.96H67.8186ZM77.0786 45V47.36H67.8186V45H77.0786ZM77.0786 40.46V42.76H67.8186V40.46H77.0786ZM65.4186 38.14V55.52H67.8186V54.28H77.0786V55.52H79.5986V38.14H65.4186ZM85.9186 42.6C85.7586 41.46 85.3386 39.7 84.9586 38.36L83.3186 38.76C83.6786 40.1 84.0586 41.88 84.1786 43.04L85.9186 42.6ZM93.5386 51.18C93.5586 50.86 93.5786 50.54 93.5986 50.22H98.7186V51.18H93.5386ZM98.7186 47.74V48.68H93.5986V47.74H98.7186ZM100.919 46H91.4586V49.56C91.4586 51.12 91.3386 53 90.1786 54.4C90.6186 54.66 91.4986 55.48 91.8386 55.9C92.5986 55.02 93.0586 53.88 93.2986 52.72H98.7186V53.56C98.7186 53.78 98.6386 53.86 98.3786 53.86C98.1386 53.86 97.2986 53.86 96.5586 53.84C96.8186 54.36 97.0986 55.16 97.1786 55.72C98.4386 55.74 99.3786 55.7 100.039 55.4C100.739 55.1 100.919 54.58 100.919 53.58V46ZM97.2586 43.48V42.6H101.219V41.02H97.2586V40.22H101.619V38.52H97.2586V37.06H94.9586V38.52H90.8186V38.96L89.0386 38.4C88.8186 39.52 88.3986 41.08 87.9986 42.2V37.08H85.9186V43.7H83.3586V45.9H85.9186V47.04L84.8586 46.66C84.5786 48.18 83.8186 50.02 83.0186 51.04C83.3586 51.72 83.7986 52.78 83.9986 53.48C84.8386 52.5 85.4786 50.82 85.9186 49.12V55.74H87.9986V48.3C88.4986 49.24 89.1186 50.56 89.4186 51.34L90.9186 49.62C90.5986 49.14 89.2386 47.18 88.8386 46.72L87.9986 47.3V45.9H90.1386V43.7H87.9986V42.64L89.3186 43.14C89.7386 42.2 90.2986 40.78 90.8186 39.46V40.22H94.9586V41.02H91.3186V42.6H94.9586V43.48H90.5186V45.18H101.879V43.48H97.2586ZM114.799 41.4H117.119V40.28H121.459V38.2H117.119V37.08H114.799V38.2H112.879V40.28H114.799V41.4ZM107.879 41.4H110.199V40.28H112.239V38.2H110.199V37.08H107.879V38.2H103.639V40.28H107.879V41.4ZM106.499 44.16V45.02H103.999V47.02H106.499V47.98H108.699V47.02H110.539V45.02H108.699V44.16H106.499ZM121.679 50.38V48.32H113.679V43.8H121.119V41.86H104.019V43.8H111.319V48.32H103.519V50.38H111.319V51.38H104.679V53.34H111.319V55.74H113.679V53.34H120.339V51.38H113.679V50.38H121.679ZM118.599 47.98V46.92H120.999V44.92H118.599V44.16H116.399V44.92H114.459V46.92H116.399V47.98H118.599ZM138.139 45.02V45.76H132.939V45.02H138.139ZM132.899 47.96C132.919 47.68 132.939 47.42 132.939 47.16H138.139V47.96H132.899ZM138.719 52.04V53.46H134.339V52.04H138.719ZM140.259 49.6V43.36H130.679V46.64C130.679 48.9 130.499 52.12 128.639 54.36C129.179 54.6 130.159 55.28 130.559 55.66C131.419 54.58 131.979 53.28 132.339 51.88V55.74H134.339V55.16H138.719V55.7H140.799V50.34H132.659C132.699 50.1 132.739 49.84 132.779 49.6H140.259ZM134.079 40.92C134.619 40.48 135.119 40 135.579 39.54C136.079 39.98 136.639 40.46 137.239 40.92H134.079ZM135.159 36.82C133.879 38.66 131.599 40.28 129.339 41.3V40.86H127.779V37.08H125.439V40.86H123.339V43.06H125.439V46.66C124.579 46.86 123.819 47.04 123.139 47.18L123.759 49.46L125.439 49.02V53.12C125.439 53.38 125.379 53.46 125.119 53.46C124.919 53.46 124.259 53.46 123.619 53.44C123.899 54.06 124.179 55 124.239 55.6C125.499 55.6 126.359 55.54 126.959 55.16C127.599 54.8 127.779 54.22 127.779 53.14V48.4C128.459 48.24 129.119 48.04 129.779 47.86L129.479 45.68L127.779 46.1V43.06H129.339V41.96C129.659 42.5 129.999 43.18 130.139 43.52C131.159 43 132.179 42.36 133.179 41.64V42.52H137.939V41.44C138.959 42.14 140.059 42.8 141.079 43.28C141.259 42.7 141.659 41.72 142.019 41.2C140.179 40.54 138.099 39.34 136.759 38.12C136.879 37.94 136.999 37.8 137.119 37.62L135.159 36.82ZM156.959 53.2C156.339 53.2 156.239 53.1 156.239 52.44V47.58H161.459V45.28H153.779V42.04H159.899V39.76H153.779V37.06H151.359V39.76H148.779C148.999 39.08 149.199 38.44 149.379 37.82L146.939 37.34C146.519 39.38 145.579 42.08 144.279 43.72C144.839 43.94 145.839 44.42 146.379 44.76C146.939 44.02 147.459 43.06 147.919 42.04H151.359V45.28H143.699V47.58H148.419C148.119 50.22 147.359 52.46 143.379 53.76C143.919 54.26 144.579 55.22 144.859 55.86C149.459 54.12 150.479 51.14 150.919 47.58H153.839V52.44C153.839 54.7 154.359 55.44 156.599 55.44H158.899C160.759 55.44 161.399 54.58 161.639 51.42C160.999 51.26 159.959 50.86 159.479 50.46C159.399 52.82 159.279 53.2 158.679 53.2H156.959ZM177.159 48.52H169.919V47.66H177.159V48.52ZM169.919 53.28V52.36H177.159V53.28H169.919ZM177.159 50.88H169.919V50H177.159V50.88ZM181.439 45.04V43.16H171.539C171.659 42.88 171.779 42.58 171.879 42.3H180.359V40.5H172.519C172.619 40.18 172.719 39.86 172.799 39.54C175.539 39.4 178.159 39.18 180.279 38.82L178.879 37.12C175.519 37.68 169.739 37.92 164.859 37.92C165.059 38.4 165.279 39.18 165.299 39.7C166.859 39.72 168.519 39.7 170.179 39.64C170.119 39.94 170.039 40.22 169.959 40.5H165.079V42.3H169.319C169.199 42.58 169.079 42.88 168.939 43.16H163.679V45.04H167.939C166.739 46.92 165.139 48.58 163.059 49.7C163.519 50.18 164.219 51.06 164.559 51.62C165.719 50.94 166.739 50.12 167.639 49.22V55.8H169.919V55.08H177.159V55.8H179.559V45.86H170.199C170.359 45.58 170.519 45.32 170.659 45.04H181.439ZM188.05 57.46H192.63V37.94H188.05V39.5H190.43V55.86H188.05V57.46Z" fill="#202020"/>
<path d="M46.152 88.528V89.664H51.16V88.528H46.152ZM45.496 78.288V90.88H46.648V79.44H50.584V90.64H51.768V78.288H45.496ZM37.688 79.84V80.992H43.64V79.84H37.688ZM40.408 76.56C39.784 79.616 38.728 83.936 37.96 86.4L38.984 86.896C39.784 84.24 40.872 79.904 41.576 76.704L40.408 76.56ZM38.52 85.792C40.584 86.912 43.032 88.672 44.152 90L44.856 88.976C43.72 87.664 41.256 85.984 39.176 84.912L38.52 85.792ZM43.304 79.84V80.096C42.856 85.776 40.952 88.976 37.912 90.304C38.168 90.56 38.488 91.008 38.648 91.296C41.976 89.632 43.96 86.4 44.456 79.952L43.72 79.808L43.496 79.84H43.304ZM62.744 78.128V79.28H72.712V78.128H62.744ZM70.344 78.544V89.632C70.344 89.952 70.248 90.032 69.912 90.048C69.544 90.064 68.376 90.08 67.096 90.032C67.272 90.384 67.464 90.928 67.528 91.264C69.096 91.28 70.152 91.248 70.744 91.056C71.32 90.848 71.544 90.496 71.544 89.632V78.544H70.344ZM63.224 81.536V88.192H64.344V81.536H63.224ZM63.736 81.536V82.608H67.112V86H63.736V87.072H68.248V81.536H63.736ZM61.576 76.576C60.744 78.976 59.384 81.36 57.912 82.896C58.12 83.168 58.472 83.808 58.584 84.08C60.216 82.304 61.752 79.6 62.712 76.928L61.576 76.576ZM60.072 80.752V91.264H61.272V79.6L61.256 79.584L60.072 80.752ZM81.272 81.216V82.304H89.976V81.216H81.272ZM78.536 84.16V85.296H92.728V84.16H78.536ZM82.744 84.944C82.472 87.552 81.784 89.392 78.184 90.288C78.44 90.528 78.76 91.008 78.888 91.312C82.792 90.224 83.688 88.064 84.024 84.944H82.744ZM86.792 84.848V89.36C86.792 90.64 87.176 91.008 88.648 91.008C88.968 91.008 90.808 91.008 91.128 91.008C92.408 91.008 92.76 90.448 92.888 88.256C92.568 88.16 92.056 87.968 91.8 87.776C91.752 89.616 91.64 89.904 91.032 89.904C90.616 89.904 89.096 89.904 88.776 89.904C88.104 89.904 87.992 89.824 87.992 89.344V84.848H86.792ZM84.968 76.576V79.12H86.232V76.576H84.968ZM78.904 78.288V81.68H80.12V79.424H91.096V81.68H92.36V78.288H78.904ZM100.68 82.56V83.68H104.664V82.56H100.68ZM104.184 82.56V82.768C104.136 86.224 104.056 87.424 103.816 87.712C103.704 87.856 103.544 87.872 103.32 87.872C103.048 87.872 102.344 87.872 101.624 87.808C101.8 88.112 101.928 88.576 101.96 88.928C102.744 88.96 103.464 88.976 103.88 88.928C104.328 88.88 104.584 88.768 104.84 88.48C105.176 88.032 105.272 86.688 105.352 83.072C105.352 82.912 105.352 82.56 105.352 82.56H104.184ZM108.696 77.376C109.704 77.904 110.936 78.72 111.544 79.28L112.296 78.464C111.672 77.904 110.408 77.136 109.416 76.624L108.696 77.376ZM110.984 81.712C109.784 85.568 107.528 88.496 104.28 90.224C104.536 90.464 104.984 90.96 105.16 91.2C108.44 89.264 110.824 86.176 112.184 82L110.984 81.712ZM100.776 79.28V80.464H113.16V79.28H100.776ZM100.008 79.28V83.776C100.008 85.872 99.864 88.624 98.536 90.592C98.824 90.736 99.336 91.152 99.544 91.392C101 89.296 101.256 86.064 101.256 83.792V79.28H100.008ZM106.648 76.592C106.712 84.256 108.152 91.168 111.416 91.168C112.632 91.168 113.08 90.384 113.304 87.648C112.984 87.536 112.536 87.264 112.264 86.992C112.168 89.12 111.96 89.952 111.512 89.952C109.432 89.952 107.864 83.952 107.896 76.592H106.648ZM118.984 83.104V84.416H133.624V83.104H118.984ZM142.216 84.032V85.008H151.016V84.032H142.216ZM142.216 86.656V87.616H151.016V86.656H142.216ZM142.216 89.296V90.368H151.064V89.296H142.216ZM139.448 78.784V79.904H153.768V78.784H139.448ZM141.272 81.392V91.28H142.472V82.448H150.68V91.28H151.912V81.392H141.272ZM146.008 79.36C145.88 80.112 145.608 81.2 145.336 81.92L146.504 82.096C146.792 81.408 147.176 80.4 147.48 79.456L146.008 79.36ZM149.816 76.544C149.448 77.264 148.792 78.272 148.248 78.928L149.288 79.264C149.864 78.656 150.568 77.76 151.144 76.896L149.816 76.544ZM142.232 76.976C142.792 77.584 143.432 78.432 143.704 78.992L144.824 78.416C144.504 77.872 143.88 77.072 143.288 76.512L142.232 76.976ZM166.072 77.392V78.512H173.096V77.392H166.072ZM165.528 83.008V84.16H174.328V83.008H165.528ZM169.304 80.88V89.76C169.304 90 169.224 90.08 168.952 90.096C168.664 90.112 167.768 90.112 166.76 90.08C166.92 90.4 167.128 90.928 167.192 91.248C168.472 91.264 169.304 91.232 169.832 91.04C170.328 90.848 170.504 90.496 170.504 89.776V80.88H169.304ZM172.664 77.392V77.664C172.024 78.704 170.696 80.208 169.544 81.072C169.752 81.232 170.088 81.552 170.264 81.776C171.544 80.816 173.032 79.264 173.992 77.904L173.208 77.328L172.952 77.392H172.664ZM159.608 79.872V80.992H164.872V79.872H159.608ZM162.024 76.576C161.48 79.616 160.52 83.904 159.816 86.352L160.824 86.88C161.544 84.224 162.552 79.904 163.16 76.704L162.024 76.576ZM160.408 85.84C162.2 86.88 164.264 88.512 165.224 89.712L165.944 88.736C164.984 87.552 162.872 86.016 161.08 85.008L160.408 85.84ZM164.472 79.872V80.112C164.072 85.552 162.408 88.944 159.736 90.352C159.992 90.592 160.328 91.024 160.488 91.312C163.432 89.552 165.176 86.16 165.608 79.968L164.888 79.824L164.664 79.872H164.472ZM188.856 79.44V80.544H193.832V79.44H188.856ZM180.008 77.472V78.496H188.056V77.472H180.008ZM190.888 79.92H190.296V82.912C190.296 84.192 189.88 88.24 186.856 90.304C187.064 90.544 187.4 91.04 187.544 91.296C189.928 89.632 190.728 86.608 190.888 85.36C191.048 86.576 191.816 89.696 194.104 91.296C194.264 91.008 194.632 90.512 194.84 90.272C191.912 88.24 191.464 84.144 191.464 82.912V79.92H190.888ZM188.952 76.624C188.632 79.088 188.04 81.472 187.016 83.008C187.304 83.136 187.832 83.472 188.024 83.632C189.048 81.984 189.72 79.456 190.12 76.8L188.952 76.624ZM193.48 79.44V79.648C193.336 80.848 193.048 82.432 192.76 83.344L193.736 83.568C194.088 82.576 194.424 80.944 194.648 79.584L193.848 79.392L193.656 79.44H193.48ZM185.8 78.016V82.624C185.8 82.768 185.736 82.816 185.544 82.832C185.368 82.848 184.712 82.848 183.992 82.832C184.136 83.088 184.296 83.472 184.344 83.744C185.352 83.744 185.976 83.744 186.376 83.584C186.776 83.424 186.888 83.168 186.888 82.624V78.016H185.8ZM181.24 79.344V80.16H183.64V81.648H181.24V82.464H184.568V79.344H181.24ZM180.712 79.344V83.04H181.624V79.344H180.712ZM181.176 86.192V87.04H183.704V88.64H181.176V89.488H184.632V86.192H181.176ZM180.616 86.192V90.16H181.544V86.192H180.616ZM179.864 84.192V85.2H188.216V84.192H179.864ZM185.8 84.704V90.048C185.8 90.24 185.736 90.272 185.528 90.288C185.352 90.304 184.696 90.304 183.96 90.288C184.088 90.576 184.248 90.992 184.296 91.264C185.304 91.264 185.944 91.264 186.36 91.104C186.776 90.928 186.888 90.64 186.888 90.064V84.704H185.8ZM202.072 91.712C203.752 91.136 204.84 89.824 204.84 88.096C204.84 86.976 204.36 86.24 203.464 86.24C202.824 86.24 202.248 86.64 202.248 87.392C202.248 88.16 202.792 88.544 203.448 88.544C203.752 88.544 204.072 88.464 204.296 88.176L203.432 86.96L203.736 88.32C203.736 89.52 203.016 90.336 201.704 90.88L202.072 91.712ZM224.904 84.704V85.792H235.064V84.704H224.904ZM230.808 78.192V81.344C230.808 82.432 231.08 82.72 232.248 82.72C232.472 82.72 233.64 82.72 233.88 82.72C234.76 82.72 235.064 82.352 235.176 80.896C234.872 80.816 234.424 80.672 234.184 80.496C234.152 81.584 234.088 81.744 233.752 81.744C233.512 81.744 232.568 81.744 232.392 81.744C231.976 81.744 231.928 81.68 231.928 81.328V78.192H230.808ZM225.128 77.28V80.224H226.2V78.304H233.848V79.952H234.952V77.28H225.128ZM229.272 82.896V91.28H230.44V82.896H229.272ZM228.152 78.208C228.024 80.624 227.544 81.776 224.888 82.416C225.096 82.624 225.4 83.04 225.496 83.312C228.488 82.512 229.128 81.056 229.288 78.208H228.152ZM230.92 85.216L230.04 85.536C231 87.504 232.76 89.504 234.456 90.496C234.648 90.176 235.032 89.744 235.32 89.52C233.608 88.704 231.816 86.928 230.92 85.216ZM228.904 85.12C227.928 87.024 226.024 88.848 224.12 89.696C224.376 89.92 224.712 90.336 224.888 90.608C226.856 89.6 228.792 87.616 229.848 85.44L228.904 85.12ZM221.24 77.616C222.264 78.112 223.464 78.896 224.056 79.488L224.776 78.512C224.168 77.952 222.936 77.2 221.944 76.752L221.24 77.616ZM220.504 82.016C221.528 82.4 222.792 83.024 223.416 83.552L224.056 82.496C223.416 82 222.136 81.408 221.112 81.088L220.504 82.016ZM220.92 90.368L221.96 91.104C222.808 89.632 223.784 87.664 224.536 86L223.608 85.296C222.792 87.072 221.688 89.152 220.92 90.368ZM250.36 80.64C251.848 81.552 253.784 82.864 254.712 83.728L255.512 82.816C254.52 81.968 252.584 80.704 251.112 79.856L250.36 80.64ZM251.208 83.216H250.6V85.52C250.6 86.448 250.024 89.04 246.296 90.336C246.52 90.576 246.856 91.04 246.984 91.296C249.816 90.272 250.952 88.256 251.192 87.28C251.432 88.24 252.504 90.336 254.968 91.296C255.128 91.024 255.464 90.56 255.688 90.272C252.344 89.04 251.8 86.432 251.8 85.52V83.216H251.208ZM250.696 76.576C250.552 79.984 250.088 81.904 246.792 82.896C247.048 83.136 247.352 83.568 247.464 83.856C251.08 82.64 251.688 80.416 251.88 76.576H250.696ZM248.328 77.632C248.184 78.672 247.72 79.728 247.064 80.288L247.992 80.736C248.744 80.08 249.176 78.912 249.336 77.856L248.328 77.632ZM248.168 84.528C247.96 85.664 247.448 86.768 246.664 87.328L247.624 87.904C248.504 87.2 249.016 85.952 249.224 84.736L248.168 84.528ZM254.04 77.552C253.752 78.336 253.16 79.472 252.696 80.16L253.592 80.528C254.072 79.872 254.68 78.864 255.192 77.968L254.04 77.552ZM254.216 84.416C253.864 85.264 253.224 86.48 252.728 87.216L253.64 87.6C254.184 86.896 254.84 85.776 255.384 84.832L254.216 84.416ZM241.56 81.408V82.368H246.248V81.408H241.56ZM241.608 77.136V78.096H246.184V77.136H241.608ZM241.56 83.552V84.512H246.248V83.552H241.56ZM240.808 79.232V80.224H246.776V79.232H240.808ZM242.088 85.712V86.704H245.192V89.376H242.088V90.384H246.248V85.712H242.088ZM241.544 85.712V91.12H242.584V85.712H241.544ZM262.296 78.032V79.104H274.856V78.032H262.296ZM261.384 81.776V82.864H275.656V81.776H261.384ZM264.328 86.96V87.92H272.808V86.96H264.328ZM264.344 89.68V90.704H272.824V89.68H264.344ZM267.864 76.56V78.624H269.112V76.56H267.864ZM263.736 84.256V91.296H264.936V85.28H272.264V91.264H273.512V84.256H263.736ZM271.464 79.056C271.224 79.808 270.744 80.88 270.344 81.568L271.464 81.872C271.864 81.232 272.344 80.256 272.76 79.376L271.464 79.056ZM264.504 79.376C264.952 80.128 265.352 81.168 265.464 81.872L266.696 81.552C266.568 80.88 266.152 79.872 265.656 79.12L264.504 79.376ZM281.736 85.712V86.784H295.944V85.712H281.736ZM288.184 84.224V91.248H289.4V84.224H288.184ZM287.64 86.128C286.328 87.824 283.752 89.344 281.416 90.064C281.688 90.304 282.04 90.768 282.232 91.072C284.568 90.224 287.176 88.512 288.632 86.576L287.64 86.128ZM289.96 86.16L288.952 86.64C290.408 88.528 293.016 90.16 295.448 90.96C295.624 90.64 295.992 90.176 296.248 89.936C293.816 89.28 291.256 87.824 289.96 86.16ZM287.56 81.728H290.072V83.488H287.56V81.728ZM287.56 79.088H290.072V80.816H287.56V79.088ZM286.52 78.144V84.432H291.128V78.144H286.52ZM288.392 76.56C288.296 77.136 288.072 77.984 287.88 78.544L288.824 78.752C289.064 78.24 289.336 77.472 289.592 76.752L288.392 76.56ZM281.848 79.68C282.648 80.336 283.592 81.264 284.008 81.904L284.568 81.024C284.152 80.416 283.192 79.52 282.376 78.912L281.848 79.68ZM284.76 82.032C285.224 82.944 285.672 84.176 285.8 84.944L286.648 84.608C286.504 83.872 286.04 82.672 285.56 81.776L284.76 82.032ZM285.16 78.896C284.504 80.352 283.336 82.4 282.408 83.648L283.192 84.016C284.12 82.784 285.256 80.848 286.104 79.264L285.16 78.896ZM283.912 76.672C283.592 77.6 282.984 78.912 282.52 79.728L283.32 80.08C283.816 79.28 284.392 78.064 284.872 77.024L283.912 76.672ZM281.704 83.552L281.832 84.592C283 84.4 284.424 84.208 285.896 83.968L285.88 83.104C284.296 83.28 282.792 83.456 281.704 83.552ZM291.032 79.552C291.88 80.288 292.84 81.328 293.256 82.032L293.88 81.2C293.448 80.528 292.472 79.52 291.64 78.816L291.032 79.552ZM294.008 81.904C294.552 82.912 295.08 84.224 295.24 85.072L296.136 84.704C295.96 83.888 295.4 82.576 294.84 81.6L294.008 81.904ZM294.408 78.88C293.752 80.352 292.536 82.416 291.592 83.68L292.376 84.048C293.336 82.8 294.504 80.848 295.352 79.264L294.408 78.88ZM293.24 76.624C292.92 77.552 292.296 78.864 291.816 79.68L292.616 80.032C293.128 79.232 293.72 78.032 294.216 76.976L293.24 76.624ZM291.096 83.552L291.24 84.592C292.408 84.432 293.864 84.24 295.336 84.048L295.32 83.168C293.736 83.312 292.216 83.456 291.096 83.552ZM308.328 77.056C308.216 79.184 308.216 86.88 301.688 90.208C302.056 90.48 302.456 90.848 302.664 91.152C309.288 87.552 309.528 79.568 309.656 77.056H308.328ZM309.608 77.376L308.456 77.488C308.568 78.96 309.016 87.904 315.8 91.152C315.992 90.816 316.36 90.416 316.712 90.144C310.12 87.12 309.656 78.624 309.608 77.376ZM325.096 79.632V80.512H329V79.632H325.096ZM324.936 89.68V90.592H329.928V89.68H324.936ZM324.216 83.216V84.016H329.56V83.216H324.216ZM323.704 81.392V84C323.704 85.84 323.496 88.352 322.008 90.176C322.232 90.32 322.664 90.704 322.824 90.928C324.456 88.944 324.76 86.048 324.76 84.032V81.392H323.704ZM324.296 81.392V82.288H328.984V84.96H324.264V85.856H330.072V81.392H324.296ZM324.504 86.848V91.264H325.544V87.76H329.24V91.152H330.312V86.848H324.504ZM331.384 78.496V87.36H332.536V78.496H331.384ZM334.984 76.864V89.712C334.984 90 334.872 90.096 334.568 90.096C334.28 90.112 333.32 90.128 332.232 90.08C332.408 90.432 332.6 90.976 332.648 91.28C334.088 91.296 334.952 91.264 335.448 91.056C335.944 90.864 336.152 90.512 336.152 89.696V76.864H334.984ZM326.232 76.72C325.448 78.032 323.992 79.664 322.008 80.848C322.248 81.024 322.616 81.408 322.776 81.68C324.888 80.304 326.36 78.624 327.272 77.328V76.976H326.888V76.72H326.232ZM326.456 76.72V77.568H326.696C327.864 78.416 329.32 79.824 330.072 80.656L330.872 79.76C330.056 78.912 328.536 77.616 327.32 76.72H326.456ZM349.592 79.248L349.032 80.4H357.176V79.248H349.592ZM351.592 82.72V83.824H356.808V82.72H351.592ZM351.576 86.24V87.376H357.032V86.24H351.576ZM350.984 79.616V91.28H352.216V79.616H350.984ZM350.2 76.752C349.416 79.104 348.12 81.44 346.664 82.928C346.936 83.12 347.416 83.552 347.592 83.76C349.064 82.112 350.456 79.6 351.368 77.056L350.2 76.752ZM346.36 76.624C345.448 79.056 343.96 81.456 342.36 83.008C342.584 83.296 342.952 83.936 343.064 84.224C344.808 82.432 346.456 79.696 347.512 76.992L346.36 76.624ZM344.648 80.752V91.264H345.864V79.568L345.832 79.552L344.648 80.752ZM365.272 83.04V91.296H366.488V83.952H374.216V83.04H365.272ZM373.864 83.04V89.936C373.864 90.16 373.784 90.24 373.512 90.256C373.256 90.272 372.328 90.272 371.384 90.224C371.544 90.528 371.736 90.976 371.784 91.296C373.08 91.296 373.912 91.296 374.408 91.12C374.92 90.944 375.08 90.624 375.08 89.952V83.04H373.864ZM366.152 85.312V86.208H374.264V85.312H366.152ZM363.384 77.952V78.928H368.088V77.952H363.384ZM362.984 81.088L363.16 82.112C364.568 81.856 366.36 81.52 368.136 81.168L368.088 80.256C366.184 80.576 364.28 80.896 362.984 81.088ZM366.152 87.632V88.528H374.312V87.632H366.152ZM367.384 76.56V82.496H368.584V76.56H367.384ZM375.752 77.28C374.728 77.808 372.952 78.384 371.416 78.784C371.544 79.008 371.704 79.392 371.768 79.632C373.368 79.264 375.256 78.72 376.584 78.144L375.752 77.28ZM370.904 76.56V80.784C370.904 82.032 371.288 82.368 372.84 82.368C373.144 82.368 375.208 82.368 375.56 82.368C376.744 82.368 377.096 81.936 377.224 80.384C376.904 80.304 376.424 80.144 376.152 79.952C376.104 81.136 375.992 81.312 375.448 81.312C375 81.312 373.272 81.312 372.968 81.312C372.248 81.312 372.12 81.248 372.12 80.8V76.56H370.904ZM391.416 83.088C390.488 84.736 388.808 86.208 387.08 87.136C387.336 87.344 387.736 87.808 387.896 88.032C389.656 86.96 391.432 85.312 392.504 83.424L391.416 83.088ZM391.512 76.56C390.936 77.44 389.912 78.64 389.128 79.392L389.976 79.888C390.776 79.168 391.768 78.08 392.568 77.104L391.512 76.56ZM394.6 77.792C393.288 79.44 391.032 81.632 389.288 82.976L390.104 83.504C391.864 82.192 394.088 80.112 395.688 78.384L394.6 77.792ZM387.8 79.152C389.048 79.968 390.504 81.184 391.192 81.984L391.96 81.12C391.256 80.304 389.752 79.168 388.536 78.384L387.8 79.152ZM394.408 81.056C395.416 82.144 396.52 83.648 396.984 84.608L398.008 84.016C397.496 83.056 396.36 81.584 395.336 80.544L394.408 81.056ZM387.272 82.64L387.368 83.728C389.752 83.664 393.272 83.552 396.632 83.44L396.68 82.448C393.208 82.544 389.56 82.608 387.272 82.64ZM390.376 85.568L389.4 85.904C390.952 88.624 393.816 90.512 397.272 91.312C397.432 90.992 397.752 90.544 398.008 90.288C394.616 89.632 391.752 87.904 390.376 85.568ZM390.744 84.88L389.912 85.84H395.512V84.88H390.744ZM395.128 84.88V85.072C393.864 87.888 390.456 89.648 387.032 90.304C387.256 90.544 387.528 91.024 387.64 91.328C391.288 90.496 394.84 88.624 396.328 85.2L395.56 84.832L395.352 84.88H395.128ZM386.712 79.824C385.768 81.52 384.248 83.2 382.76 84.288C382.984 84.544 383.336 85.104 383.448 85.36C385.016 84.08 386.696 82.144 387.8 80.224L386.712 79.824ZM386.344 76.576C385.64 77.712 384.2 79.072 382.952 79.92C383.16 80.144 383.464 80.56 383.624 80.8C384.984 79.84 386.488 78.336 387.416 76.992L386.344 76.576ZM385.272 82.8V91.344H386.408V81.904L386.248 81.824L385.272 82.8ZM411.48 79.808V89.296C411.48 90.784 411.832 91.184 413.176 91.184C413.464 91.184 415.064 91.184 415.352 91.184C416.616 91.184 416.92 90.448 417.048 88.112C416.728 88.016 416.264 87.824 415.976 87.6C415.912 89.632 415.832 90.08 415.272 90.08C414.936 90.08 413.592 90.08 413.32 90.08C412.744 90.08 412.648 89.952 412.648 89.312V79.808H411.48ZM409.768 82.144C409.624 83.84 409.272 85.808 408.52 86.992L409.448 87.44C410.248 86.192 410.584 84.096 410.744 82.336L409.768 82.144ZM415.72 82.224C416.472 83.712 417.112 85.696 417.272 86.992L418.36 86.672C418.184 85.392 417.544 83.424 416.744 81.936L415.72 82.224ZM411.048 77.392C412.232 78.064 413.592 79.088 414.232 79.84L415.032 78.992C414.376 78.24 412.968 77.264 411.8 76.64L411.048 77.392ZM406.024 77.792V91.28H407.176V77.792H406.024ZM403.464 81.104V82.208H409.16V81.104H403.464ZM405.944 81.552C405.432 83.504 404.28 86 403.24 87.296C403.432 87.584 403.736 88.08 403.864 88.4C404.968 86.912 406.12 84.064 406.68 81.84L405.944 81.552ZM408.296 76.832C407.176 77.344 405.144 77.808 403.416 78.096C403.56 78.352 403.72 78.736 403.784 79.008C405.592 78.752 407.72 78.32 409.144 77.744L408.296 76.832ZM407.096 82.784L406.536 83.216C406.984 83.744 408.088 85.296 408.44 85.936L409.16 85.072C408.856 84.656 407.48 83.136 407.096 82.784ZM416.344 77.392C415.192 82.656 412.616 87.072 407.992 89.984C408.28 90.16 408.68 90.56 408.856 90.816C413.624 87.696 416.152 83.248 417.464 77.648L416.344 77.392ZM425.08 78.608V79.728H437.208V78.608H425.08ZM423.944 82.72V83.856H438.216V82.72H423.944ZM424.712 86.352V87.504H437.544V86.352H424.712ZM430.408 76.56V79.088H431.656V76.56H430.408ZM430.408 83.808V91.296H431.656V83.808H430.408ZM427.224 80.128C427.688 80.928 428.184 82.016 428.376 82.688L429.496 82.288C429.304 81.616 428.776 80.576 428.28 79.776L427.224 80.128ZM434.024 79.712C433.688 80.656 433.064 82 432.552 82.832L433.576 83.136C434.12 82.352 434.76 81.104 435.288 80.048L434.024 79.712ZM450.872 86.144H451.912L452.232 79.936L452.28 78.032H450.504L450.552 79.936L450.872 86.144ZM451.4 90.08C451.96 90.08 452.424 89.68 452.424 89.04C452.424 88.4 451.96 87.968 451.4 87.968C450.824 87.968 450.36 88.4 450.36 89.04C450.36 89.68 450.824 90.08 451.4 90.08Z" fill="white"/>
</svg>
