<?xml version="1.0" encoding="utf-8"?>
<!-- Generator: Adobe Illustrator 26.0.3, SVG Export Plug-In . SVG Version: 6.00 Build 0)  -->
<svg version="1.1" id="圖層_1" xmlns="http://www.w3.org/2000/svg" xmlns:xlink="http://www.w3.org/1999/xlink" x="0px" y="0px"
	 viewBox="0 0 184 271" style="enable-background:new 0 0 184 271;" xml:space="preserve">
<style type="text/css">
	.st0{fill:none;stroke:#00FF63;}
	.st1{fill:#00FF63;}
	.st2{fill:none;stroke:#00FF63;stroke-width:2.95;stroke-miterlimit:10;}
	.st3{fill:#00FF63;stroke:#00FF63;stroke-width:0.5309;}
	.st4{fill:none;stroke:#00FF63;stroke-width:3;}
	.st5{fill-rule:evenodd;clip-rule:evenodd;fill:#FFFFFF;filter:url(#Adobe_OpacityMaskFilter);}
	.st6{mask:url(#path-1-inside-1_131_4093_00000003103990163145960070000011012572930970684545_);fill:#00FF63;}
</style>
<path class="st0" d="M182.9,177.5c0,1.2-0.4,2.4-1,3.4c-0.7,1-1.6,1.8-2.7,2.2c-1.1,0.5-2.3,0.6-3.5,0.3c-1.2-0.2-2.2-0.8-3.1-1.6
	c-0.8-0.8-1.4-1.9-1.6-3.1c-0.2-1.2-0.1-2.4,0.3-3.5c0.5-1.1,1.2-2,2.2-2.7c1-0.7,2.2-1,3.4-1c1.6,0,3.1,0.6,4.3,1.8
	C182.2,174.4,182.9,175.9,182.9,177.5z"/>
<path class="st0" d="M9.7,186.2L9.7,186.2L9.7,186.2L9.7,186.2L9.7,186.2l8.3-0.1h0l0,0c0.1,0,0.2,0,0.3,0.1c0.1,0,0.1,0.1,0.2,0.2
	h0l0,0l8.7,19.7l0.1,0.3h0.3h0.2h0.3l0.1-0.3l8.5-19.7l0,0l0,0c0-0.1,0.1-0.1,0.2-0.2c0.1,0,0.2-0.1,0.2-0.1l0,0h0h8.1h0l0,0l0,0v0
	v36.6v0l0,0l0,0h0h-7.7h0l0,0l0,0v0v-19.4v-0.5h-0.5h-0.3h-0.3l-0.1,0.3l-6,14.1l0,0l0,0c0,0.1-0.1,0.2-0.2,0.3
	c-0.1,0.1-0.2,0.1-0.3,0.1h-4.3c-0.1,0-0.3-0.1-0.4-0.1c-0.1-0.1-0.2-0.2-0.3-0.3l-6-14.1l-0.1-0.3h-0.3h-0.3h-0.5v0.5v19.4v0l0,0
	l0,0h0H9.9H9.8l-0.1,0.1c0,0,0,0,0,0c0,0,0,0,0,0c0,0,0,0,0,0c0,0,0,0,0,0l0,0h0h0h0l-0.5-0.1h0.5V186.2z"/>
<path class="st0" d="M52.3,186.2L52.3,186.2L52.3,186.2L52.3,186.2L52.3,186.2l8.7-0.1h0l0,0l0,0v0v23.1c-0.1,1.7,0.5,3.4,1.6,4.7
	l0,0l0,0c0.5,0.6,1.2,1,1.9,1.3c0.7,0.3,1.5,0.4,2.3,0.4c0.8,0,1.6-0.1,2.3-0.4c0.7-0.3,1.4-0.7,1.9-1.3l0,0l0,0
	c1.1-1.3,1.6-3,1.5-4.7v-23.1v0l0,0l0,0h0h8.6h0l0,0l0,0v0v22.6c0,4.8-1.3,8.4-3.9,10.9c-2.6,2.5-6.1,3.8-10.6,3.8
	c-4.6,0-8.1-1.3-10.6-3.8c-2.5-2.5-3.9-6.1-3.9-10.9V186.2z"/>
<path class="st0" d="M121.8,222.8L121.8,222.8L121.8,222.8L121.8,222.8l0-36.6v0l0,0l0,0h0h8.6h0l0,0l0,0v0v36.6v0l0,0l0,0h0H121.8
	L121.8,222.8z"/>
<path class="st0" d="M137.9,214.6c-1.5-6.6-1.5-13.5,0-20.1c0.8-2.7,2.5-5.1,4.8-6.7c2.5-1.5,5.4-2.3,8.3-2.3c2.9,0,5.8,0.7,8.3,2.2
	c2.2,1.5,4,3.6,4.9,6.1l0,0l0,0c0,0,0,0,0,0c0,0,0,0,0,0c0,0,0,0,0,0s0,0,0,0l0,0l0,0l-7.4,3.2l0,0l0,0c0,0,0,0,0,0c0,0,0,0,0,0
	s0,0,0,0c0,0,0,0,0,0l0,0l0,0c-0.6-1.2-1.3-2.2-2.2-2.9c-0.9-0.7-2-1-3.1-1c-1.1-0.1-2.3,0.2-3.2,0.9c-0.9,0.7-1.6,1.6-1.9,2.7
	c-0.2,0.6-0.3,1.6-0.4,2.8c-0.1,1.3-0.1,2.9-0.1,4.9c0,2,0.1,3.6,0.1,4.9c0.1,1.2,0.2,2.2,0.4,2.8c0.3,1.1,0.9,2.1,1.9,2.7
	c0.9,0.7,2,1,3.2,0.9c1.2,0,2.2-0.3,3.1-1c0.9-0.7,1.6-1.6,2.2-2.9l0,0l0,0c0,0,0,0,0,0c0,0,0,0,0,0s0,0,0,0c0,0,0,0,0,0l0,0l0,0
	l7.4,3.2l0,0l0,0c0,0,0,0,0,0c0,0,0,0,0,0c0,0,0,0,0,0c0,0,0,0,0,0c0,0,0,0,0,0l0,0l0,0c-0.9,2.5-2.7,4.6-4.9,6.1
	c-2.5,1.4-5.4,2.2-8.3,2.2c-2.9,0-5.8-0.8-8.3-2.3C140.3,219.6,138.6,217.2,137.9,214.6z"/>
<path class="st1" d="M15.2,243.6h-3.4v5.9H9.5v-15h5.7c0.6,0,1.2,0.1,1.8,0.3c0.6,0.2,1.1,0.5,1.6,1c0.4,0.4,0.8,0.9,1,1.5
	c0.2,0.6,0.4,1.2,0.4,1.8s-0.1,1.2-0.4,1.8c-0.2,0.6-0.6,1.1-1,1.5c-0.4,0.4-1,0.8-1.6,1C16.4,243.6,15.8,243.7,15.2,243.6
	L15.2,243.6z M15.1,236.5h-3.3v5h3.3c0.3,0,0.7,0,1-0.1c0.3-0.1,0.6-0.3,0.9-0.5s0.5-0.5,0.6-0.8c0.1-0.3,0.2-0.7,0.2-1
	c0-0.3-0.1-0.7-0.2-1c-0.1-0.3-0.3-0.6-0.6-0.8c-0.3-0.2-0.6-0.4-0.9-0.5C15.8,236.6,15.4,236.5,15.1,236.5L15.1,236.5z"/>
<path class="st1" d="M31.1,249.5l-3.2-6.3h-2.8v6.3h-2.3v-15h5.8c0.6-0.1,1.2,0,1.8,0.2c0.6,0.2,1.1,0.5,1.5,0.9
	c0.4,0.4,0.8,0.9,1,1.5c0.2,0.6,0.3,1.2,0.3,1.8c0,0.9-0.3,1.8-0.8,2.5c-0.5,0.7-1.3,1.2-2.2,1.5l3.5,6.7L31.1,249.5z M28.5,236.5
	h-3.4v4.7h3.4c0.3,0,0.6,0,0.9-0.1c0.3-0.1,0.6-0.3,0.8-0.5c0.2-0.2,0.4-0.5,0.6-0.8c0.1-0.3,0.2-0.6,0.2-0.9s-0.1-0.6-0.2-0.9
	c-0.1-0.3-0.3-0.6-0.6-0.8c-0.2-0.2-0.5-0.4-0.8-0.5C29.1,236.6,28.8,236.5,28.5,236.5L28.5,236.5z"/>
<path class="st1" d="M45.5,248.1c-1.1,1-2.5,1.6-4,1.6s-2.9-0.6-4-1.6c-1.5-1.5-1.5-3.1-1.5-6s0-4.6,1.5-6c1.1-1,2.5-1.6,4-1.6
	s2.9,0.6,4,1.6c1.5,1.5,1.4,3.1,1.4,6C46.9,244.9,46.9,246.6,45.5,248.1z M43.7,237.3c-0.6-0.6-1.4-0.9-2.2-0.9
	c-0.8,0-1.6,0.3-2.2,0.9c-0.7,0.8-0.9,1.7-0.9,4.7c0,3,0.1,3.9,0.9,4.7c0.3,0.3,0.6,0.5,1,0.7s0.8,0.2,1.2,0.2
	c0.4,0,0.8-0.1,1.2-0.2s0.7-0.4,1-0.7c0.7-0.8,0.9-1.6,0.9-4.7C44.6,239,44.5,238.1,43.7,237.3L43.7,237.3z"/>
<path class="st1" d="M59.4,248.1c-0.5,0.5-1.1,0.9-1.8,1.1c-0.7,0.2-1.4,0.4-2.1,0.3h-5.3v-15h5.3c0.7,0,1.4,0.1,2.1,0.3
	c0.7,0.2,1.3,0.6,1.8,1.1c1.6,1.6,1.5,3.8,1.5,6C61,244.1,61.1,246.5,59.4,248.1z M57.9,237.6c-0.3-0.3-0.7-0.6-1.2-0.8
	c-0.4-0.2-0.9-0.2-1.4-0.2h-2.8v10.9h2.8c0.5,0,0.9,0,1.4-0.2c0.4-0.2,0.8-0.4,1.2-0.8c0.8-0.9,0.8-2.5,0.8-4.6
	C58.7,239.9,58.7,238.4,57.9,237.6z"/>
<path class="st1" d="M69.5,249.7c-0.7,0-1.4-0.1-2.1-0.3c-0.7-0.2-1.3-0.6-1.8-1.1c-0.5-0.5-0.9-1.1-1.2-1.7
	c-0.3-0.6-0.4-1.3-0.4-2.1v-10h2.3v9.9c0,0.4,0,0.8,0.2,1.2s0.4,0.8,0.7,1.1c0.3,0.3,0.6,0.6,1,0.7c0.4,0.2,0.8,0.3,1.2,0.3
	s0.8-0.1,1.2-0.3c0.4-0.2,0.7-0.4,1-0.7c0.3-0.3,0.5-0.7,0.7-1.1c0.1-0.4,0.2-0.8,0.2-1.2v-9.9h2.3v10c0,0.7-0.1,1.4-0.4,2.1
	c-0.3,0.6-0.7,1.2-1.2,1.7c-0.5,0.5-1.1,0.9-1.8,1.1C70.9,249.6,70.2,249.7,69.5,249.7z"/>
<path class="st1" d="M83.5,249.7c-0.7,0-1.5-0.1-2.2-0.4c-0.7-0.3-1.3-0.7-1.8-1.2c-1.5-1.5-1.5-3.1-1.5-6s0-4.6,1.5-6
	c1.1-1.1,2.6-1.6,4.1-1.6c1.5,0,3,0.7,4,1.8l-1.5,1.5c-0.3-0.4-0.7-0.7-1.2-0.9c-0.5-0.2-1-0.3-1.5-0.3c-0.4,0-0.8,0.1-1.2,0.2
	c-0.4,0.2-0.7,0.4-1,0.7c-0.7,0.8-0.9,1.7-0.9,4.7c0,3,0.1,3.9,0.9,4.7c0.3,0.3,0.6,0.5,1,0.7c0.4,0.2,0.8,0.2,1.2,0.2
	c0.5,0,1-0.1,1.5-0.3c0.5-0.2,0.9-0.5,1.2-0.9l1.5,1.5c-0.5,0.6-1.2,1-1.9,1.3C85,249.5,84.2,249.7,83.5,249.7L83.5,249.7z"/>
<path class="st1" d="M95.4,236.5v13h-2.3v-13H89v-2h10.6v2H95.4z"/>
<path class="st1" d="M102.1,249.5v-15h2.3v15H102.1z"/>
<path class="st1" d="M117.2,248.1c-1.1,1-2.5,1.6-4,1.6c-1.5,0-2.9-0.6-4-1.6c-1.5-1.5-1.5-3.1-1.5-6s0-4.6,1.5-6
	c1.1-1,2.5-1.6,4-1.6c1.5,0,2.9,0.6,4,1.6c1.5,1.5,1.4,3.1,1.4,6C118.6,244.9,118.6,246.6,117.2,248.1z M115.5,237.3
	c-0.6-0.6-1.4-0.9-2.2-0.9c-0.8,0-1.6,0.3-2.2,0.9c-0.7,0.8-0.9,1.7-0.9,4.7c0,3,0.1,3.9,0.9,4.7c0.3,0.3,0.6,0.5,1,0.7
	c0.4,0.2,0.8,0.2,1.2,0.2c0.4,0,0.8-0.1,1.2-0.2c0.4-0.2,0.7-0.4,1-0.7c0.7-0.8,0.9-1.6,0.9-4.7C116.4,239,116.2,238.1,115.5,237.3
	L115.5,237.3z"/>
<path class="st1" d="M131.2,249.5l-7-10.6v10.6h-2.3v-15h2.1l7,10.6v-10.6h2.3v15L131.2,249.5z"/>
<path class="st0" d="M8.5,122L8.5,122c0-0.1,0-0.1,0.1-0.2l9.1-10.2c0.9-0.9,1.5-2.2,1.6-3.5c0-0.8-0.2-1.6-0.7-2.2l0,0l0,0
	c-0.3-0.3-0.6-0.5-1-0.7c-0.4-0.1-0.7-0.2-1.1-0.2c-0.9,0-1.6,0.3-2.2,0.9c-0.5,0.6-0.8,1.4-0.9,2.3l-4.7-0.7c0-0.9,0.3-1.8,0.7-2.6
	c0.4-0.8,1-1.6,1.7-2.2c1.6-1.3,3.6-2,5.7-2l0,0l0,0c2.1-0.1,4.1,0.6,5.7,2c0.7,0.6,1.3,1.4,1.6,2.3c0.4,0.9,0.5,1.8,0.5,2.8l0,0
	c0,2.3-1,4.6-2.7,6.2l0,0l0,0l-6.2,6.9l-0.1,0.1v0.2v0.1v0.5h0.5h8.5v4.4H8.5L8.5,122z M8.3,126.4L8,126.3L8.3,126.4L8.3,126.4
	L8.3,126.4l0.1-0.1h0c0,0,0,0,0,0c0,0,0,0.1,0,0.1l-0.1,0L8.3,126.4L8.3,126.4L8.3,126.4L8.3,126.4z M13.3,108.4
	C13.3,108.4,13.3,108.4,13.3,108.4L13.3,108.4z M13.5,108.3C13.5,108.3,13.5,108.3,13.5,108.3C13.5,108.3,13.5,108.3,13.5,108.3z
	 M24.6,121.7C24.6,121.7,24.6,121.7,24.6,121.7L24.6,121.7z M24.6,126.3C24.6,126.3,24.6,126.3,24.6,126.3L24.6,126.3z"/>
<path class="st0" d="M29.6,113.7L29.6,113.7c0-2,0-3.6,0.1-4.9c0.1-1.3,0.2-2.2,0.4-2.8l0,0l0,0c0.5-1.6,1.5-2.9,2.8-3.8
	c1.5-0.9,3.3-1.4,5-1.4c1.8,0,3.5,0.5,5,1.4c1.3,0.9,2.3,2.3,2.8,3.8c0.7,5.1,0.7,10.4,0,15.5c-0.5,1.5-1.5,2.9-2.8,3.8
	c-1.5,0.9-3.3,1.4-5,1.4c-1.8,0-3.5-0.5-5-1.4c-1.3-0.9-2.3-2.3-2.8-3.9l-0.5,0.1l0.5-0.2c-0.2-0.5-0.3-1.5-0.4-2.8
	C29.7,117.3,29.6,115.7,29.6,113.7z M40.6,120.7L40.6,120.7l0-0.2c0.4-4.5,0.4-9.1,0-13.6l0-0.1l0-0.1c-0.2-0.5-0.6-0.9-1-1.2
	s-1-0.5-1.5-0.5c-0.6,0-1.1,0.2-1.5,0.5c-0.5,0.3-0.8,0.7-1,1.2l0,0.1l0,0.1c-0.4,4.5-0.4,9.1,0,13.6l0.5,0l-0.5,0.2
	c0.2,0.5,0.6,0.9,1,1.2c0.5,0.3,1,0.5,1.5,0.5c0.6,0,1.1-0.2,1.5-0.5S40.4,121.2,40.6,120.7z"/>
<path class="st0" d="M24.6,161.2H8.5v-4.2c0-0.1,0-0.2,0.1-0.2l9.1-10.2c0.9-0.9,1.5-2.2,1.6-3.5c0-0.8-0.2-1.6-0.7-2.2l0,0l0,0
	c-0.3-0.3-0.6-0.5-1-0.7c-0.4-0.1-0.7-0.2-1.1-0.2c-0.9,0-1.6,0.3-2.2,0.9c-0.5,0.6-0.8,1.4-0.9,2.3l-4.7-0.7c0-0.9,0.3-1.8,0.7-2.7
	c0.4-0.8,1-1.6,1.7-2.2c1.6-1.3,3.7-2,5.7-1.9l0,0l0,0c2.1-0.1,4.1,0.6,5.7,2c0.7,0.6,1.3,1.4,1.6,2.3c0.4,0.9,0.5,1.8,0.5,2.8l0,0
	c0,2.3-1,4.6-2.7,6.2l0,0l0,0l-6.2,6.9l-0.1,0.1v0.2v0.1v0.5h0.5h8.5V161.2z M13.3,143.5C13.3,143.5,13.3,143.5,13.3,143.5
	L13.3,143.5z M13.5,143.3C13.5,143.3,13.5,143.3,13.5,143.3C13.5,143.3,13.5,143.3,13.5,143.3z"/>
<path class="st0" d="M46.1,161.2H30v-4.2l0,0l0,0c0-0.1,0-0.1,0.1-0.2l9.1-10.2c0.9-0.9,1.5-2.2,1.5-3.5c0-0.8-0.2-1.6-0.7-2.2l0,0
	l0,0c-0.3-0.3-0.6-0.5-1-0.6c-0.4-0.1-0.7-0.2-1.1-0.2c-0.9,0-1.6,0.3-2.2,0.9c-0.5,0.6-0.8,1.4-0.9,2.3l-4.7-0.7
	c0-0.9,0.3-1.8,0.7-2.7c0.4-0.8,1-1.6,1.7-2.2c1.6-1.3,3.7-2,5.7-1.9h0h0c2.1-0.1,4.1,0.6,5.6,2c0.7,0.6,1.3,1.4,1.6,2.3
	c0.4,0.9,0.6,1.8,0.5,2.8l0,0c0,2.3-1,4.6-2.7,6.2l0,0l0,0l-6.2,6.9l-0.1,0.1v0.2v0.1v0.5h0.5h8.6V161.2z M34.8,143.5
	C34.8,143.5,34.8,143.5,34.8,143.5C34.8,143.5,34.8,143.5,34.8,143.5z M35,143.3C35,143.3,35,143.3,35,143.3
	C35,143.3,35,143.3,35,143.3z"/>
<path class="st2" d="M45.1,92h6.7v6.7"/>
<path class="st2" d="M51.8,131.5v8.8"/>
<path class="st0" d="M69.3,95.5h57.4c2.7,0,4.8,2.2,4.8,4.8v57.4c0,2.7-2.2,4.8-4.8,4.8H69.3c-2.7,0-4.8-2.2-4.8-4.8v-57.4
	C64.5,97.7,66.7,95.5,69.3,95.5z"/>
<path class="st3" d="M80.5,117.8v7.6h-2.7v-18.1h2.7v7.5v0.3h0.3h8.9h0.3v-0.3v-7.5h2.7v18.1h-2.7v-7.6v-0.3h-0.3h-8.9h-0.3V117.8z"
	/>
<path class="st3" d="M100.3,116.3L100.3,116.3c0-1.2,0.2-2.5,0.7-3.6c0.5-1.2,1.2-2.2,2.1-3.1c0.9-0.9,1.9-1.6,3.1-2
	c1.2-0.5,2.4-0.7,3.7-0.6h0h0c1.2,0,2.5,0.2,3.6,0.6c1.2,0.5,2.2,1.1,3.1,2c0.9,0.9,1.6,1.9,2,3.1c0.5,1.1,0.7,2.4,0.7,3.6l0,0v0
	v0.1v0c0,1.2-0.2,2.5-0.7,3.6s-1.2,2.2-2.1,3.1c-0.9,0.9-1.9,1.6-3.1,2c-1.2,0.5-2.4,0.7-3.6,0.6h0h0c-1.2,0-2.5-0.2-3.6-0.6
	c-1.2-0.5-2.2-1.1-3.1-2c-0.9-0.9-1.6-1.9-2.1-3.1S100.3,117.6,100.3,116.3l-0.3,0.1L100.3,116.3L100.3,116.3z M116.3,116.1
	L116.3,116.1c0-0.8-0.1-1.6-0.4-2.4c-0.3-0.8-0.8-1.6-1.4-2.2c-0.6-0.6-1.4-1.2-2.2-1.5c-0.8-0.4-1.7-0.5-2.6-0.5h0
	c-3.9,0-6.5,3.1-6.5,6.8v0c0,0.9,0.1,1.8,0.4,2.6c0.3,0.8,0.8,1.6,1.4,2.2c0.6,0.6,1.4,1.2,2.2,1.5c0.8,0.4,1.7,0.5,2.6,0.5h0
	c0.9,0,1.8-0.2,2.6-0.5c0.8-0.3,1.6-0.9,2.2-1.5c0.6-0.6,1.1-1.4,1.4-2.2c0.3-0.8,0.5-1.7,0.4-2.6L116.3,116.1z"/>
<path class="st3" d="M80.7,148.8h9.5v2.4H77.7v-18.1h2.7v15.4v0.3H80.7z"/>
<path class="st3" d="M114.6,146.9l-0.1-0.2h-0.2h-8.8h-0.2l-0.1,0.2l-1.8,4.3h-2.8l8-18.2h2.7l8,18.2h-2.9L114.6,146.9z
	 M113.2,144.4h0.4l-0.2-0.4l-3.2-7.5L110,136l-0.2,0.6l-3.2,7.5l-0.2,0.4h0.4H113.2z"/>
<line class="st4" x1="0" y1="72.5" x2="177" y2="72.5"/>
<line class="st4" x1="0" y1="269.5" x2="177" y2="269.5"/>
<path class="st0" d="M116.5,211.9L116.5,211.9c0,1.6-0.3,3.2-0.9,4.6c-0.7,1.5-1.7,2.7-2.9,3.7c-1.1,0.9-2.4,1.6-3.9,2.2
	c-2.1,0.7-4.5,1.1-7.3,1.1c-2.9,0-5.8-0.5-8.5-1.5h0c-2.3-0.8-4.5-2-6.3-3.7l0,0l0,0l0-0.1l0,0l5-5.9l0,0c2.7,2.5,6.2,3.9,9.9,3.9
	c1.5,0.1,2.9-0.3,4.2-1.1l0,0c0.5-0.3,0.9-0.8,1.2-1.3c0.3-0.5,0.4-1.1,0.4-1.7c0-0.5-0.1-0.9-0.3-1.3c-0.2-0.4-0.5-0.8-0.9-1.1l0,0
	l0,0c-1.2-0.7-2.5-1.1-3.9-1.2l-2-0.3c-2.1-0.3-3.9-0.8-5.4-1.4c-1.5-0.6-2.8-1.4-3.8-2.3c-2-1.9-3-4.4-3-7.6v0
	c-0.1-1.5,0.2-3.1,0.9-4.5c0.6-1.4,1.6-2.7,2.8-3.6c1.2-1,2.7-1.8,4.3-2.3s3.5-0.8,5.6-0.8h0c4.7-0.2,9.4,1.3,13.2,4.1l0,0h0
	c0,0,0,0,0,0c0,0,0,0,0,0s0,0,0,0c0,0,0,0,0,0l0,0l0,0l-4.2,6l0,0l0,0c0,0,0,0,0,0c0,0,0,0,0,0h0c-2.6-1.8-5.6-2.9-8.7-2.9h0
	c-1.2-0.1-2.4,0.3-3.4,0.9l0,0c-0.4,0.3-0.7,0.7-1,1.2c-0.2,0.5-0.3,1-0.3,1.5c0,0.5,0.1,1,0.3,1.4c0.2,0.4,0.6,0.8,1,1.1l0,0
	c1.2,0.7,2.5,1.1,3.9,1.2l2,0.3c2.1,0.3,3.8,0.8,5.4,1.4c1.5,0.6,2.8,1.4,3.7,2.3C115.5,205.9,116.5,208.5,116.5,211.9z"/>
<defs>
	<filter id="Adobe_OpacityMaskFilter" filterUnits="userSpaceOnUse" x="18" y="0" width="141" height="57.5">
		<feColorMatrix  type="matrix" values="1 0 0 0 0  0 1 0 0 0  0 0 1 0 0  0 0 0 1 0"/>
	</filter>
</defs>
<mask maskUnits="userSpaceOnUse" x="18" y="0" width="141" height="57.5" id="path-1-inside-1_131_4093_00000003103990163145960070000011012572930970684545_">
	<path class="st5" d="M77.5,1c-0.4,0-0.9,0.1-1.3,0.2c-0.4,0.2-0.8,0.4-1.1,0.7S74.6,2.6,74.4,3s-0.3,0.8-0.3,1.3v52.2h6.5V4.3
		c0-0.9-0.3-1.7-0.9-2.3C79.2,1.4,78.3,1,77.5,1z M43.1,6.4c0.4-0.2,0.8-0.2,1.2-0.2c0.9,0,1.7,0.3,2.3,1c0.6,0.6,1,1.4,1,2.3v47.1
		h-6.5V9.4c0-0.4,0.1-0.9,0.2-1.2c0.2-0.4,0.4-0.8,0.7-1.1C42.3,6.8,42.7,6.5,43.1,6.4z M33.3,33.9c-0.4,0-0.9,0.1-1.2,0.2
		c-0.4,0.2-0.8,0.4-1.1,0.7c-0.3,0.3-0.5,0.7-0.7,1.1c-0.2,0.4-0.2,0.8-0.2,1.2v19.3h6.5V37.2c0-0.4-0.1-0.9-0.2-1.2
		c-0.2-0.4-0.4-0.8-0.7-1.1c-0.3-0.3-0.7-0.5-1.1-0.7C34.2,34,33.7,33.9,33.3,33.9z M22.3,46.3c-0.9,0-1.7,0.3-2.3,1
		c-0.6,0.6-1,1.4-1,2.3v6.9h6.5v-6.9c0-0.4-0.1-0.9-0.2-1.3c-0.2-0.4-0.4-0.8-0.7-1.1c-0.3-0.3-0.7-0.5-1.1-0.7
		C23.1,46.4,22.7,46.3,22.3,46.3z M55.4,26.8c-0.9,0-1.7,0.4-2.3,1c-0.6,0.6-0.9,1.4-0.9,2.3v26.4h6.5V30.1c0-0.4-0.1-0.9-0.3-1.3
		c-0.2-0.4-0.4-0.8-0.7-1.1c-0.3-0.3-0.7-0.5-1.1-0.7C56.3,26.9,55.8,26.8,55.4,26.8z M68.7,43.2c-0.6-0.6-1.4-1-2.3-1
		c-0.9,0-1.7,0.3-2.3,1s-1,1.4-1,2.3v10.9h6.5V45.5C69.7,44.7,69.3,43.8,68.7,43.2z M87.3,21.6c0.4-0.2,0.8-0.2,1.2-0.2
		c0.4,0,0.9,0.1,1.2,0.2c0.4,0.2,0.8,0.4,1.1,0.7c0.3,0.3,0.5,0.7,0.7,1.1c0.2,0.4,0.2,0.8,0.2,1.2v31.9h-6.5V24.6
		c0-0.4,0.1-0.9,0.2-1.2c0.2-0.4,0.4-0.8,0.7-1.1C86.5,22,86.9,21.8,87.3,21.6z M99.6,1c-0.9,0-1.7,0.3-2.3,1c-0.6,0.6-1,1.4-1,2.3
		v52.2h6.5V4.3c0-0.4-0.1-0.9-0.2-1.2s-0.4-0.8-0.7-1.1c-0.3-0.3-0.7-0.5-1.1-0.7C100.4,1.1,100,1,99.6,1z M109.4,42.5
		c0.4-0.2,0.8-0.2,1.2-0.2c0.9,0,1.7,0.3,2.3,1c0.6,0.6,1,1.4,1,2.3v10.9h-6.5V45.5c0-0.4,0.1-0.9,0.2-1.2c0.2-0.4,0.4-0.8,0.7-1.1
		C108.6,42.9,109,42.7,109.4,42.5z M121.6,26.8c0.9,0,1.7,0.3,2.3,0.9c0.6,0.6,1,1.4,1,2.3v26.4h-6.5V30c0-0.9,0.4-1.7,1-2.3
		C120,27.1,120.8,26.8,121.6,26.8z M131.5,6.4c0.4-0.2,0.8-0.2,1.2-0.2c0.4,0,0.9,0.1,1.2,0.2c0.4,0.2,0.8,0.4,1.1,0.7
		s0.5,0.7,0.7,1.1c0.2,0.4,0.2,0.8,0.2,1.2v47.1h-6.5V9.4c0-0.4,0.1-0.9,0.2-1.2c0.2-0.4,0.4-0.8,0.7-1.1
		C130.7,6.8,131.1,6.5,131.5,6.4z M143.7,33.9c-0.9,0-1.7,0.3-2.3,1c-0.6,0.6-1,1.4-1,2.3v19.3h6.5V37.2c0-0.4-0.1-0.9-0.2-1.2
		c-0.2-0.4-0.4-0.8-0.7-1.1c-0.3-0.3-0.7-0.5-1.1-0.7C144.6,34,144.2,33.9,143.7,33.9z M152.5,47.3c0.6-0.6,1.4-1,2.3-1
		c0.4,0,0.9,0.1,1.3,0.3c0.4,0.2,0.8,0.4,1.1,0.7c0.3,0.3,0.5,0.7,0.7,1.1c0.2,0.4,0.2,0.8,0.2,1.3v6.9h-6.5v-6.9
		C151.5,48.7,151.9,47.9,152.5,47.3z"/>
</mask>
<path class="st6" d="M76.2,1.2l-0.4-0.9l0,0L76.2,1.2z M77.5,1l0-1v0L77.5,1z M75.2,1.9l-0.7-0.7l0,0L75.2,1.9z M74.2,4.3h1v0
	L74.2,4.3z M74.2,56.5h-1v1h1V56.5z M80.7,56.5v1h1v-1H80.7z M80.7,4.3l-1,0v0H80.7z M79.8,2l0.7-0.7l0,0L79.8,2z M44.3,6.1l0,1h0
	V6.1z M43.1,6.4l-0.4-0.9l0,0L43.1,6.4z M47.6,56.5v1h1v-1H47.6z M41.1,56.5h-1v1h1V56.5z M41.1,9.4h1l0,0H41.1z M41.3,8.1l-0.9-0.4
	l0,0L41.3,8.1z M33.3,33.9l0,1h0L33.3,33.9z M31,34.8l-0.7-0.7l0,0L31,34.8z M30,37.2h1v0L30,37.2z M30,56.5h-1v1h1V56.5z
	 M36.6,56.5v1h1v-1H36.6z M36.6,37.2h-1l0,0H36.6z M20,47.3l-0.7-0.7l0,0L20,47.3z M22.3,46.3v1h0L22.3,46.3z M19,56.5h-1v1h1V56.5z
	 M25.5,56.5v1h1v-1H25.5z M25.5,49.6l-1,0v0H25.5z M53.1,27.8l-0.7-0.7l0,0L53.1,27.8z M55.4,26.8l0,1l0,0L55.4,26.8z M52.2,30.1h1
	v0L52.2,30.1z M52.2,56.5h-1v1h1V56.5z M58.7,56.5v1h1v-1H58.7z M58.7,30.1l-1,0v0H58.7z M58.4,28.8l-0.9,0.4l0,0L58.4,28.8z
	 M57.7,27.7l0.7-0.7l0,0L57.7,27.7z M56.7,27l0.4-0.9l0,0L56.7,27z M66.4,42.3v-1h0L66.4,42.3z M63.2,45.5h1l0,0H63.2z M63.2,56.4
	h-1v1h1V56.4z M69.7,56.4v1h1v-1H69.7z M88.5,21.4l0,1h0L88.5,21.4z M87.3,21.6l-0.4-0.9l0,0L87.3,21.6z M91.5,23.4l0.9-0.4v0
	L91.5,23.4z M91.8,56.5v1h1v-1H91.8z M85.3,56.5h-1v1h1V56.5z M85.3,24.6h1v0L85.3,24.6z M85.5,23.4L84.6,23l0,0L85.5,23.4z M97.3,2
	l-0.7-0.7l0,0L97.3,2z M99.6,1v1l0,0V1z M96.3,56.5h-1v1h1V56.5z M102.8,56.5v1h1v-1H102.8z M102.8,4.3l-1,0v0H102.8z M100.8,1.2
	l0.4-0.9l0,0L100.8,1.2z M110.6,42.3v1l0,0V42.3z M113.9,56.5v1h1v-1H113.9z M107.4,56.5h-1v1h1V56.5z M107.4,45.5h1v0L107.4,45.5z
	 M121.6,26.8v-1h0L121.6,26.8z M124.9,30h1v0v0L124.9,30z M124.9,56.4v1h1v-1H124.9z M118.4,56.4h-1v1h1V56.4z M118.4,30l-1,0l0,0v0
	H118.4z M132.7,6.1l0,1l0,0L132.7,6.1z M131.5,6.4l-0.4-0.9l0,0L131.5,6.4z M133.9,6.4l0.4-0.9l0,0L133.9,6.4z M135,7.1l0.7-0.7l0,0
	L135,7.1z M135.7,8.1l0.9-0.4l0,0L135.7,8.1z M135.9,9.4l-1,0v0H135.9z M135.9,56.5v1h1v-1H135.9z M129.4,56.5h-1v1h1V56.5z
	 M129.7,8.1l-0.9-0.4l0,0L129.7,8.1z M130.4,7.1l-0.7-0.7l0,0L130.4,7.1z M143.7,33.9v1h0L143.7,33.9z M140.5,56.5h-1v1h1V56.5z
	 M147,56.5v1h1v-1H147z M154.8,46.3v1l0,0V46.3z M158,49.6l-1,0v0H158z M158,56.5v1h1v-1H158z M151.5,56.5h-1v1h1V56.5z M76.6,2.2
	C76.9,2.1,77.2,2,77.5,2l0-2c-0.6,0-1.1,0.1-1.6,0.3L76.6,2.2z M75.9,2.7c0.2-0.2,0.5-0.4,0.7-0.5l-0.8-1.9c-0.5,0.2-1,0.5-1.4,0.9
	L75.9,2.7z M75.4,3.4c0.1-0.3,0.3-0.5,0.5-0.7l-1.4-1.4c-0.4,0.4-0.7,0.9-0.9,1.4L75.4,3.4z M75.2,4.3c0-0.3,0.1-0.6,0.2-0.9
	l-1.8-0.8c-0.2,0.5-0.3,1.1-0.3,1.6L75.2,4.3z M75.2,56.5V4.3h-2v52.2H75.2z M80.7,55.5h-6.5v2h6.5V55.5z M79.7,4.3v52.2h2V4.3H79.7
	z M79.1,2.7c0.4,0.4,0.7,1,0.6,1.6l2,0c0-1.1-0.4-2.2-1.2-3L79.1,2.7z M77.5,2c0.6,0,1.2,0.2,1.6,0.7l1.4-1.4
	c-0.8-0.8-1.9-1.3-3-1.3L77.5,2z M44.4,5.1c-0.6,0-1.1,0.1-1.6,0.3l0.8,1.8c0.3-0.1,0.6-0.2,0.9-0.2L44.4,5.1z M47.4,6.4
	c-0.8-0.8-1.9-1.2-3-1.2v2c0.6,0,1.2,0.2,1.6,0.7L47.4,6.4z M48.6,9.4c0-1.1-0.4-2.2-1.2-3l-1.4,1.4c0.4,0.4,0.7,1,0.7,1.6H48.6z
	 M48.6,56.5V9.4h-2v47.1H48.6z M41.1,57.5h6.5v-2h-6.5V57.5z M40.1,9.4v47.1h2V9.4H40.1z M40.4,7.8c-0.2,0.5-0.3,1.1-0.3,1.6h2
	c0-0.3,0.1-0.6,0.2-0.9L40.4,7.8z M41.3,6.4c-0.4,0.4-0.7,0.9-0.9,1.4l1.8,0.8c0.1-0.3,0.3-0.5,0.5-0.7L41.3,6.4z M42.7,5.4
	c-0.5,0.2-1,0.5-1.4,0.9l1.4,1.4c0.2-0.2,0.5-0.4,0.7-0.5L42.7,5.4z M32.4,35.1c0.3-0.1,0.6-0.2,0.9-0.2l0-2c-0.6,0-1.1,0.1-1.6,0.3
	L32.4,35.1z M31.7,35.6c0.2-0.2,0.5-0.4,0.7-0.5l-0.8-1.8c-0.5,0.2-1,0.5-1.4,0.9L31.7,35.6z M31.2,36.3c0.1-0.3,0.3-0.5,0.5-0.7
	l-1.4-1.4c-0.4,0.4-0.7,0.9-0.9,1.4L31.2,36.3z M31,37.1c0-0.3,0.1-0.6,0.2-0.9l-1.8-0.8C29.2,36,29,36.6,29,37.2L31,37.1z M31,56.5
	V37.2h-2v19.3H31z M36.6,55.5H30v2h6.5V55.5z M35.6,37.2v19.3h2V37.2H35.6z M35.4,36.3c0.1,0.3,0.2,0.6,0.2,0.9h2
	c0-0.6-0.1-1.1-0.3-1.6L35.4,36.3z M34.9,35.6c0.2,0.2,0.4,0.5,0.5,0.7l1.8-0.8c-0.2-0.5-0.5-1-0.9-1.4L34.9,35.6z M34.2,35.1
	c0.3,0.1,0.5,0.3,0.7,0.5l1.4-1.4c-0.4-0.4-0.9-0.7-1.4-0.9L34.2,35.1z M33.3,34.9c0.3,0,0.6,0.1,0.9,0.2l0.8-1.8
	c-0.5-0.2-1.1-0.3-1.6-0.3L33.3,34.9z M20.7,48c0.4-0.4,1-0.7,1.6-0.7v-2c-1.1,0-2.2,0.4-3,1.2L20.7,48z M20,49.6
	c0-0.6,0.2-1.2,0.7-1.6l-1.4-1.4c-0.8,0.8-1.2,1.9-1.2,3H20z M20,56.5v-6.9h-2v6.9H20z M25.5,55.5H19v2h6.5V55.5z M24.5,49.6v6.9h2
	v-6.9H24.5z M24.3,48.7c0.1,0.3,0.2,0.6,0.2,0.9l2,0c0-0.6-0.1-1.1-0.3-1.6L24.3,48.7z M23.9,48c0.2,0.2,0.4,0.5,0.5,0.7l1.9-0.7
	c-0.2-0.5-0.5-1-0.9-1.4L23.9,48z M23.1,47.5c0.3,0.1,0.5,0.3,0.7,0.5l1.4-1.4c-0.4-0.4-0.9-0.7-1.4-0.9L23.1,47.5z M22.3,47.3
	c0.3,0,0.6,0.1,0.9,0.2l0.8-1.8c-0.5-0.2-1.1-0.3-1.6-0.3L22.3,47.3z M53.8,28.5c0.4-0.4,1-0.7,1.6-0.7l0-2c-1.1,0-2.2,0.5-3,1.3
	L53.8,28.5z M53.2,30c0-0.6,0.2-1.2,0.6-1.6l-1.4-1.4c-0.8,0.8-1.2,1.9-1.2,3L53.2,30z M53.2,56.5V30.1h-2v26.4H53.2z M58.7,55.5
	h-6.5v2h6.5V55.5z M57.7,30.1v26.4h2V30.1H57.7z M57.5,29.2c0.1,0.3,0.2,0.6,0.2,0.9l2,0c0-0.6-0.1-1.1-0.3-1.6L57.5,29.2z M57,28.4
	c0.2,0.2,0.4,0.5,0.5,0.7l1.8-0.8c-0.2-0.5-0.5-1-0.9-1.4L57,28.4z M56.3,28c0.3,0.1,0.5,0.3,0.7,0.5l1.4-1.4
	c-0.4-0.4-0.9-0.7-1.4-0.9L56.3,28z M55.4,27.8c0.3,0,0.6,0,0.9,0.2l0.7-1.9c-0.5-0.2-1.1-0.3-1.7-0.3L55.4,27.8z M66.4,43.3
	c0.6,0,1.2,0.2,1.6,0.7l1.4-1.4c-0.8-0.8-1.9-1.2-3-1.2V43.3z M64.8,43.9c0.4-0.4,1-0.7,1.6-0.7l0-2c-1.1,0-2.2,0.5-3,1.3L64.8,43.9
	z M64.2,45.5c0-0.6,0.2-1.2,0.7-1.6l-1.4-1.4c-0.8,0.8-1.2,1.9-1.2,3H64.2z M64.2,56.4V45.5h-2v10.9H64.2z M69.7,55.4h-6.5v2h6.5
	V55.4z M68.7,45.5v10.9h2V45.5H68.7z M68,43.9c0.4,0.4,0.7,1,0.7,1.6h2c0-1.1-0.4-2.2-1.2-3L68,43.9z M88.5,20.4
	c-0.6,0-1.1,0.1-1.6,0.3l0.8,1.8c0.3-0.1,0.6-0.2,0.9-0.2L88.5,20.4z M90.1,20.7c-0.5-0.2-1.1-0.3-1.6-0.3l0,2
	c0.3,0,0.6,0.1,0.9,0.2L90.1,20.7z M91.5,21.6c-0.4-0.4-0.9-0.7-1.4-0.9l-0.8,1.8c0.3,0.1,0.5,0.3,0.7,0.5L91.5,21.6z M92.5,23
	c-0.2-0.5-0.5-1-0.9-1.4L90.1,23c0.2,0.2,0.4,0.5,0.5,0.7L92.5,23z M92.8,24.6c0-0.6-0.1-1.1-0.3-1.6l-1.8,0.8
	c0.1,0.3,0.2,0.6,0.2,0.9H92.8z M92.8,56.5V24.6h-2v31.9H92.8z M85.3,57.5h6.5v-2h-6.5V57.5z M84.3,24.6v31.9h2V24.6H84.3z M84.6,23
	c-0.2,0.5-0.3,1.1-0.3,1.6l2,0c0-0.3,0.1-0.6,0.2-0.9L84.6,23z M85.5,21.6c-0.4,0.4-0.7,0.9-0.9,1.4l1.8,0.8
	c0.1-0.3,0.3-0.5,0.5-0.7L85.5,21.6z M86.9,20.7c-0.5,0.2-1,0.5-1.4,0.9l1.4,1.4c0.2-0.2,0.5-0.4,0.7-0.5L86.9,20.7z M98,2.7
	C98.4,2.2,99,2,99.6,2V0c-1.1,0-2.2,0.4-3,1.2L98,2.7z M97.3,4.3c0-0.6,0.2-1.2,0.7-1.6l-1.4-1.4c-0.8,0.8-1.2,1.9-1.2,3H97.3z
	 M97.3,56.5V4.3h-2v52.2H97.3z M102.8,55.5h-6.5v2h6.5V55.5z M101.8,4.3v52.2h2V4.3H101.8z M101.7,3.4c0.1,0.3,0.2,0.6,0.2,0.9l2,0
	c0-0.6-0.1-1.1-0.3-1.6L101.7,3.4z M101.2,2.7c0.2,0.2,0.4,0.5,0.5,0.7l1.8-0.8c-0.2-0.5-0.5-1-0.9-1.4L101.2,2.7z M100.4,2.2
	c0.3,0.1,0.5,0.3,0.7,0.5l1.4-1.4c-0.4-0.4-0.9-0.7-1.4-0.9L100.4,2.2z M99.6,2c0.3,0,0.6,0.1,0.9,0.2l0.8-1.8
	c-0.5-0.2-1.1-0.3-1.6-0.3V2z M110.6,41.3c-0.6,0-1.1,0.1-1.6,0.3l0.8,1.8c0.3-0.1,0.6-0.2,0.9-0.2V41.3z M113.6,42.5
	c-0.8-0.8-1.9-1.2-3-1.2v2c0.6,0,1.2,0.2,1.6,0.7L113.6,42.5z M114.9,45.5c0-1.1-0.4-2.2-1.2-3l-1.4,1.4c0.4,0.4,0.7,1,0.7,1.6
	H114.9z M114.9,56.5V45.5h-2v10.9H114.9z M107.4,57.5h6.5v-2h-6.5V57.5z M106.4,45.5v10.9h2V45.5H106.4z M106.7,43.9
	c-0.2,0.5-0.3,1.1-0.3,1.6l2,0c0-0.3,0.1-0.6,0.2-0.9L106.7,43.9z M107.6,42.5c-0.4,0.4-0.7,0.9-0.9,1.4l1.8,0.8
	c0.1-0.3,0.3-0.5,0.5-0.7L107.6,42.5z M109,41.6c-0.5,0.2-1,0.5-1.4,0.9l1.4,1.4c0.2-0.2,0.5-0.4,0.7-0.5L109,41.6z M124.6,27
	c-0.8-0.8-1.9-1.2-3-1.2v2c0.6,0,1.2,0.2,1.6,0.6L124.6,27z M125.9,30c0-1.1-0.5-2.2-1.3-3l-1.4,1.4c0.4,0.4,0.7,1,0.7,1.6L125.9,30
	z M125.9,56.4V30h-2v26.4H125.9z M118.4,57.4h6.5v-2h-6.5V57.4z M117.4,30v26.4h2V30H117.4z M118.7,27c-0.8,0.8-1.2,1.8-1.3,3l2,0
	c0-0.6,0.2-1.2,0.7-1.6L118.7,27z M121.6,25.8c-1.1,0-2.2,0.4-3,1.2l1.4,1.4c0.4-0.4,1-0.7,1.6-0.7L121.6,25.8z M132.7,5.1
	c-0.6,0-1.1,0.1-1.6,0.3l0.8,1.8c0.3-0.1,0.6-0.2,0.9-0.2L132.7,5.1z M134.3,5.5c-0.5-0.2-1.1-0.3-1.6-0.3l0,2
	c0.3,0,0.6,0.1,0.9,0.2L134.3,5.5z M135.7,6.4c-0.4-0.4-0.9-0.7-1.4-0.9l-0.8,1.8c0.3,0.1,0.5,0.3,0.7,0.5L135.7,6.4z M136.6,7.8
	c-0.2-0.5-0.5-1-0.9-1.4l-1.4,1.4c0.2,0.2,0.4,0.5,0.5,0.7L136.6,7.8z M136.9,9.4c0-0.6-0.1-1.1-0.3-1.6l-1.8,0.8
	c0.1,0.3,0.2,0.6,0.2,0.9L136.9,9.4z M136.9,56.5V9.4h-2v47.1H136.9z M129.4,57.5h6.5v-2h-6.5V57.5z M128.4,9.4v47.1h2V9.4H128.4z
	 M128.8,7.8c-0.2,0.5-0.3,1.1-0.3,1.6h2c0-0.3,0.1-0.6,0.2-0.9L128.8,7.8z M129.7,6.4c-0.4,0.4-0.7,0.9-0.9,1.4l1.8,0.8
	c0.1-0.3,0.3-0.5,0.5-0.7L129.7,6.4z M131.1,5.4c-0.5,0.2-1,0.5-1.4,0.9l1.4,1.4c0.2-0.2,0.5-0.4,0.7-0.5L131.1,5.4z M142.1,35.6
	c0.4-0.4,1-0.7,1.6-0.7v-2c-1.1,0-2.2,0.4-3,1.2L142.1,35.6z M141.5,37.2c0-0.6,0.2-1.2,0.7-1.6l-1.4-1.4c-0.8,0.8-1.2,1.9-1.2,3
	H141.5z M141.5,56.5V37.2h-2v19.3H141.5z M147,55.5h-6.5v2h6.5V55.5z M146,37.2v19.3h2V37.2H146z M145.8,36.3
	c0.1,0.3,0.2,0.6,0.2,0.9h2c0-0.6-0.1-1.1-0.3-1.6L145.8,36.3z M145.3,35.6c0.2,0.2,0.4,0.5,0.5,0.7l1.8-0.8c-0.2-0.5-0.5-1-0.9-1.4
	L145.3,35.6z M144.6,35.1c0.3,0.1,0.5,0.3,0.7,0.5l1.4-1.4c-0.4-0.4-0.9-0.7-1.4-0.9L144.6,35.1z M143.7,34.9c0.3,0,0.6,0.1,0.9,0.2
	l0.8-1.8c-0.5-0.2-1.1-0.3-1.6-0.3L143.7,34.9z M154.8,45.3c-1.1,0-2.2,0.4-3,1.2l1.4,1.4c0.4-0.4,1-0.7,1.6-0.7V45.3z M156.4,45.6
	c-0.5-0.2-1.1-0.3-1.6-0.3v2c0.3,0,0.6,0.1,0.9,0.2L156.4,45.6z M157.8,46.6c-0.4-0.4-0.9-0.7-1.4-0.9l-0.8,1.8
	c0.3,0.1,0.5,0.3,0.7,0.5L157.8,46.6z M158.7,48c-0.2-0.5-0.5-1-0.9-1.4l-1.4,1.4c0.2,0.2,0.4,0.5,0.5,0.7L158.7,48z M159,49.6
	c0-0.6-0.1-1.1-0.3-1.6l-1.9,0.7c0.1,0.3,0.2,0.6,0.2,0.9L159,49.6z M159,56.5v-6.9h-2v6.9H159z M151.5,57.5h6.5v-2h-6.5V57.5z
	 M150.5,49.6v6.9h2v-6.9H150.5z M151.8,46.6c-0.8,0.8-1.2,1.9-1.2,3h2c0-0.6,0.2-1.2,0.7-1.6L151.8,46.6z"/>
</svg>
