<svg width="31" height="125" viewBox="0 0 31 125" fill="none" xmlns="http://www.w3.org/2000/svg">
<path d="M-4.2337e-07 8.68556L-6.86641e-07 14.7085L25.1092 14.7085L25.1092 23.2546L30.1148 23.2546L30.1148 0.220869L25.1092 0.220869L25.1092 8.68556L-4.2337e-07 8.68556ZM12.4122 31.9667L15.7085 32.862C18.8421 33.7573 22.2605 34.6526 25.5569 35.4258L25.5569 35.5886C22.3012 36.4839 18.8421 37.2978 15.7085 38.2338L12.4122 39.1291L12.4122 31.9667ZM-1.90352e-06 42.5475L-2.17925e-06 48.8554L30.1148 39.1698L30.1148 32.0887L-1.02476e-06 22.4439L-1.29159e-06 28.5482L7.73217 30.6644L7.73217 40.4314L-1.90352e-06 42.5475ZM-2.33334e-06 52.3806L-2.59661e-06 58.4036L30.1148 58.4036L30.1148 52.3806L-2.33334e-06 52.3806ZM-2.9205e-06 65.8134L-3.18378e-06 71.8363L10.703 71.8363L10.703 75.8652C10.703 82.3358 13.7958 87.5041 20.6734 87.5041C27.7951 87.5041 30.1148 82.3765 30.1148 75.7024L30.1148 65.8134L-2.9205e-06 65.8134ZM15.4643 71.8363L25.3534 71.8363L25.3534 75.2547C25.3534 79.4057 24.1732 81.6033 20.6734 81.6033C17.2143 81.6033 15.4643 79.6092 15.4643 75.4582L15.4643 71.8363ZM-4.10699e-06 92.957L-4.93416e-06 111.881L5.04626 111.881L5.04626 98.98L13.104 98.98L13.104 109.561L18.1503 109.561L18.1503 98.98L25.1092 98.98L25.1092 111.433L30.1148 111.433L30.1148 92.957L-4.10699e-06 92.957ZM-5.20141e-06 117.994L-5.46468e-06 124.017L30.1148 124.017L30.1148 117.994L-5.20141e-06 117.994Z" fill="#00FF63"/>
</svg>
