<svg width="288" height="341" viewBox="0 0 288 341" fill="none" xmlns="http://www.w3.org/2000/svg">
<path d="M89.04 317.14C88.04 319.98 86.3 322.82 84.48 324.62C84.9 325.22 85.58 326.58 85.8 327.16C86.2 326.72 86.62 326.22 87.04 325.72V335.72H89.44V322.02C90.18 320.68 90.84 319.26 91.36 317.86L89.04 317.14ZM103.38 322.58V320.32H95.62C96 319.5 96.32 318.68 96.6 317.84L94.3 317.26C93.4 320.12 91.82 323 90.06 324.8C90.56 325.18 91.5 326.02 91.88 326.46C92.78 325.42 93.7 324.06 94.5 322.58H95.26V335.74H97.7V331.3H103.14V329.1H97.7V326.84H102.88V324.68H97.7V322.58H103.38ZM109.64 330.48V332.72H107.78V330.48H109.64ZM111.68 328.58H105.72V335.48H107.78V334.64H111.68V328.58ZM105.72 327.62H111.64V325.82H105.72V327.62ZM105.72 323.14V324.94H111.6V323.14H105.72ZM110.04 319.64C109.76 318.88 109.18 317.8 108.68 316.96L106.94 317.84C107.38 318.58 107.86 319.6 108.14 320.34H104.9V322.24H112.26V320.34H108.8L110.04 319.64ZM117 326.5V329.08H115.14V326.5H117ZM119.02 331.08V324.5H113.16V332.26H115.14V331.08H119.02ZM119.6 321.3H112.66V323.3H119.6V321.3ZM122.64 317.94H112.26V320.12H120.48V332.96C120.48 333.3 120.36 333.42 120.02 333.42C119.68 333.42 118.52 333.44 117.48 333.38C117.78 334 118.1 335.08 118.18 335.74C119.82 335.74 120.94 335.68 121.68 335.3C122.42 334.9 122.64 334.26 122.64 333V317.94ZM137.48 332.24V328.92H140V332.24H137.48ZM128 328.92H130.4V332.24H128V328.92ZM130.4 323.32V326.66H128V323.32H130.4ZM135.14 328.92V332.24H132.74V328.92H135.14ZM135.14 323.32V326.66H132.74V323.32H135.14ZM140 323.32V326.66H137.48V323.32H140ZM137.48 321V317.26H135.14V321H132.74V317.26H130.4V321H125.74V335.68H128V334.58H140V335.66H142.34V321H137.48ZM159.38 319.78C158.54 319 156.82 317.78 155.68 316.98L154.22 318.6C155.42 319.52 157.08 320.82 157.86 321.64L159.38 319.78ZM151.46 328.82C151.42 328.96 151.36 329.08 151.32 329.2L153.18 329.82C153.76 328.18 154.1 325.42 154.26 323.32L152.5 322.92C152.38 324.54 152.12 326.4 151.72 327.94C151.2 327.22 150.04 325.7 149.62 325.2V324.92H151.76V322.7H149.62V319.78C150.42 319.6 151.16 319.36 151.84 319.08L150.46 317.16C149.04 317.8 146.92 318.4 145 318.76C145.26 319.28 145.56 320.06 145.66 320.58C146.24 320.5 146.82 320.4 147.42 320.28V322.7H145.02V324.92H147.18C146.52 326.84 145.52 328.98 144.48 330.28C144.86 330.88 145.4 331.92 145.64 332.62C146.28 331.74 146.88 330.52 147.42 329.18V335.74H149.62V328.02C149.98 328.8 150.34 329.56 150.54 330.1L151.46 328.82ZM157.76 333.38C157.14 333.38 157.06 333.24 157.06 332.4V330.84C158.18 329.26 159.2 327.5 160.06 325.62C160.6 327.26 161.12 329.14 161.3 330.46L163.46 329.82C163.18 328.24 162.5 325.92 161.76 324.08L160.58 324.4C161.28 322.66 161.92 320.76 162.46 318.78L160.18 318.3C159.42 321.34 158.38 324.12 157.06 326.56V321.78H154.78V329.98C153.62 331.38 152.34 332.6 150.86 333.62C151.4 334 152.38 334.82 152.78 335.26C153.48 334.7 154.18 334.12 154.84 333.46C155 334.98 155.68 335.48 157.4 335.48H159.68C161.46 335.48 162.06 334.52 162.3 331.54C161.66 331.38 160.76 331 160.26 330.64C160.18 332.9 160.06 333.38 159.48 333.38H157.76ZM171.34 325.56L169.5 326.02V323.06H171.46V320.86H169.5V317.06H167.14V320.86H164.84V323.06H167.14V326.6C166.18 326.84 165.32 327.04 164.58 327.18L165.2 329.44L167.14 328.96V333.08C167.14 333.38 167.06 333.48 166.76 333.48C166.5 333.48 165.68 333.48 164.9 333.46C165.18 334.08 165.48 335.02 165.58 335.62C166.98 335.62 167.94 335.56 168.6 335.2C169.28 334.82 169.5 334.26 169.5 333.1V328.32C170.22 328.14 170.94 327.94 171.64 327.74L171.34 325.56ZM179.7 326.64C179.1 328 178.24 329.18 177.2 330.18C176.2 329.16 175.4 327.96 174.84 326.64H179.7ZM181.2 324.4L180.78 324.5H178.38V322.1H182.86V319.9H178.38V317.04H176.02V319.9H171.72V322.1H176.02V324.5H172.08V326.64H173.12L172.52 326.82C173.24 328.66 174.18 330.24 175.36 331.58C173.96 332.48 172.34 333.12 170.58 333.54C171.02 334.06 171.6 335.06 171.86 335.7C173.8 335.12 175.56 334.32 177.12 333.24C178.5 334.36 180.16 335.18 182.1 335.76C182.44 335.14 183.12 334.18 183.62 333.7C181.84 333.26 180.3 332.6 179 331.68C180.68 330 181.96 327.82 182.72 325.04L181.2 324.4ZM193.96 325.44V327.64H190.16V325.44H193.96ZM192.56 333.12C190.48 333.12 190.16 332.94 190.16 331.78V329.76H196.28V323.36H188.64C189.02 322.9 189.4 322.42 189.78 321.9H199.3C199.16 326.44 199 328.14 198.68 328.56C198.52 328.78 198.34 328.86 198.06 328.84C197.72 328.86 197.12 328.84 196.44 328.78C196.8 329.38 197.04 330.36 197.06 331.04C197.98 331.08 198.82 331.06 199.36 330.96C199.96 330.86 200.42 330.66 200.82 330.06C201.38 329.28 201.56 326.94 201.74 320.66C201.76 320.36 201.78 319.66 201.78 319.66H191.22C191.6 319 191.94 318.36 192.24 317.68L189.78 316.94C188.7 319.6 186.7 322.14 184.56 323.7C185.1 324.12 186.08 325.02 186.5 325.5C186.92 325.14 187.36 324.72 187.8 324.3V331.82C187.8 334.62 188.88 335.34 192.56 335.34H199.08C202.16 335.34 202.96 334.52 203.36 331.7C202.7 331.6 201.66 331.24 201.08 330.88C200.86 332.78 200.56 333.12 198.92 333.12H192.56Z" fill="#00FF63"/>
<rect x="73.25" y="316.25" width="2.5" height="20.5" stroke="#00FF63" stroke-width="0.5"/>
<rect x="212.25" y="316.25" width="2.5" height="20.5" stroke="#00FF63" stroke-width="0.5"/>
<g clip-path="url(#clip0_91_3218)">
<path d="M143.955 285.742C106.703 285.824 70.9345 271.148 44.4767 244.923C17.8674 218.792 2.70662 183.175 2.31858 145.882C2.0183 127.263 5.41416 108.769 12.3095 91.4717C19.2048 74.174 29.4627 58.4157 42.4893 45.1092C55.4464 31.7342 70.9271 21.0616 88.036 13.7089C105.145 6.3562 123.542 2.46945 142.163 2.27355H144.075C181.332 2.19033 217.105 16.8666 243.568 43.0916C270.172 69.2269 285.332 104.842 285.726 142.133C286.016 160.751 282.612 179.242 275.712 196.536C268.812 213.83 258.552 229.586 245.526 242.891C232.572 256.266 217.094 266.939 199.987 274.292C182.881 281.645 164.486 285.531 145.867 285.727L143.955 285.742Z" fill="url(#paint0_linear_91_3218)"/>
<path d="M144.03 4.517C180.679 4.44686 215.866 18.8895 241.897 44.6876C268.095 70.3979 283.033 105.444 283.438 142.148C283.868 179.109 269.628 214.732 243.838 241.211C218.047 267.69 182.811 282.864 145.852 283.408H143.955C107.306 283.478 72.1192 269.035 46.0879 243.237C19.889 217.529 4.95518 182.48 4.56205 145.777C4.11163 108.799 18.3479 73.1535 44.1472 46.6597C69.9465 20.166 105.202 4.98834 142.178 4.45676H144.06L144.03 4.517ZM144.06 -0.0601807H142.118C103.931 0.447582 67.5096 16.104 40.8659 43.4648C14.2222 70.8257 -0.4614 107.65 0.0451108 145.837C0.543852 183.687 15.9274 219.817 42.8662 246.41C69.805 273.002 106.132 287.916 143.985 287.925H145.942C184.129 287.417 220.551 271.761 247.194 244.4C273.838 217.039 288.522 180.215 288.015 142.028C287.508 104.178 272.12 68.0493 245.18 41.4584C218.24 14.8674 181.913 -0.0477403 144.06 -0.0601807Z" fill="black"/>
<path d="M227.053 227.051C272.922 181.182 272.922 106.813 227.053 60.9439C181.184 15.0747 106.815 15.0747 60.9458 60.9439C15.0766 106.813 15.0767 181.182 60.9459 227.051C106.815 272.92 181.184 272.92 227.053 227.051Z" fill="black" stroke="white" stroke-width="0.5" stroke-miterlimit="10"/>
<g opacity="0.8">
<path opacity="0.8" d="M180.783 216.888V229.295H178.946V216.888H175.272V218.665H177.109V225.742H175.272V227.518H177.109V234.61H178.946V231.057H180.783V238.148H186.294V216.888H180.783Z" fill="white"/>
<path opacity="0.8" d="M169.716 223.98H171.553V216.888H167.88V223.98H168.542V229.295H167.88V238.148H171.553V234.61H169.716V223.98Z" fill="white"/>
<path opacity="0.8" d="M164.221 227.518H166.058V216.888H164.221V227.518Z" fill="white"/>
<path opacity="0.8" d="M160.532 222.203H162.369V216.888H160.532V218.665H159.915V220.427H160.532V222.203Z" fill="white"/>
<path opacity="0.8" d="M164.221 229.295H162.384V225.742H160.547V231.057H162.384V234.61H164.221V238.148H166.058V232.833H164.221V229.295Z" fill="white"/>
<path opacity="0.8" d="M158.695 238.148H162.369V236.387H160.532V231.057H158.695V238.148Z" fill="white"/>
<path opacity="0.8" d="M156.858 220.427V225.742H156.136V216.888H155.578V225.742H155.021V218.665H153.185V216.888H151.347V220.427H153.185V225.742H151.347V231.057H153.185V238.148H155.021V229.295H153.185V227.518H156.858V238.148H157.43V231.057H158.695V220.427H156.858Z" fill="white"/>
<path opacity="0.8" d="M145.837 238.148H147.659V234.61H145.822L145.837 238.148Z" fill="white"/>
<path opacity="0.8" d="M144 231.057V234.61H145.837V231.057H144Z" fill="white"/>
<path opacity="0.8" d="M149.511 227.518H147.659V234.61H151.332V231.057H149.496L149.511 227.518Z" fill="white"/>
<path opacity="0.8" d="M149.511 216.888H147.659V225.742H149.496L149.511 216.888Z" fill="white"/>
<path opacity="0.8" d="M138.489 216.888H136.652V220.427H138.489V216.888Z" fill="white"/>
<path opacity="0.8" d="M131.097 220.427H132.933V216.888H129.26V238.148H131.097V236.387H132.933V232.833H131.097V231.057H132.933V229.295H131.097V225.742H132.933V223.98H131.097V220.427Z" fill="white"/>
<path opacity="0.8" d="M125.616 216.888H123.779V223.98H125.616V216.888Z" fill="white"/>
<path opacity="0.8" d="M121.942 223.98V216.888H120.105V229.295H119.383V216.888H119.051V229.295H118.329V231.057H119.051V234.61H118.329V236.387H116.492V223.98H118.329V216.888H114.535V238.148H120.045V236.387H121.882V238.148H123.719V234.61H121.882V229.295H123.719V223.98H121.942ZM120.105 234.61H119.383V231.057H120.105V234.61Z" fill="white"/>
<path opacity="0.8" d="M101.737 238.148H107.247V216.888H101.737V238.148Z" fill="white"/>
<path opacity="0.8" d="M145.174 216.888H144.256V229.762H145.174V216.888Z" fill="white"/>
<path opacity="0.8" d="M142.57 216.888H141.952V238.148H142.57V216.888Z" fill="white"/>
<path opacity="0.8" d="M140.04 231.057H138.534V223.98H136.698V220.427H133.009V223.98H134.861V238.148H135.463V227.518H136.698V238.148H138.534V234.61H140.371V216.888H140.085L140.04 231.057Z" fill="white"/>
<path opacity="0.8" d="M126.58 229.295H123.779V231.057H125.616V238.148H127.453V216.888H126.58V229.295Z" fill="white"/>
<path opacity="0.8" d="M141.275 216.888H140.883V238.148H141.275V216.888Z" fill="white"/>
<path opacity="0.8" d="M174.309 216.888H173.917V227.518H172.698V216.888H172.306V227.518H171.553V231.057H172.306V238.148H172.698V231.057H173.39V238.148H177.064V236.387H175.227V227.518H174.309V216.888Z" fill="white"/>
<path opacity="0.8" d="M143.458 216.888H143.066V238.148H143.458V216.888Z" fill="white"/>
<path opacity="0.8" d="M109.972 216.888H109.355V238.148H109.972V216.888Z" fill="white"/>
<path opacity="0.8" d="M108.678 216.888H108.286V238.148H108.678V216.888Z" fill="white"/>
<path opacity="0.8" d="M110.861 216.888H110.469V238.148H110.861V216.888Z" fill="white"/>
<path opacity="0.8" d="M113.074 216.888H112.457V238.148H113.074V216.888Z" fill="white"/>
<path opacity="0.8" d="M111.779 216.888H111.388V238.148H111.779V216.888Z" fill="white"/>
<path opacity="0.8" d="M113.947 216.888H113.556V238.148H113.947V216.888Z" fill="white"/>
<path opacity="0.8" d="M167.232 216.888H166.841V238.148H167.232V216.888Z" fill="white"/>
<path opacity="0.8" d="M128.447 216.888H128.055V238.148H128.447V216.888Z" fill="white"/>
</g>
<path d="M241.415 79.8896H46.5847V208.11H241.415V79.8896Z" stroke="white" stroke-width="0.5" stroke-miterlimit="10"/>
<path d="M75.478 239.383V48.542" stroke="white" stroke-width="0.5" stroke-miterlimit="10"/>
<path d="M212.507 48.542V239.383" stroke="white" stroke-width="0.5" stroke-miterlimit="10"/>
<path d="M87.8244 59.1418C88.2923 59.0666 88.7657 59.0314 89.2396 59.0364C89.8153 58.9927 90.3876 59.1584 90.8507 59.5032C91.0185 59.6539 91.1501 59.8404 91.2361 60.0489C91.3221 60.2574 91.3602 60.4825 91.3475 60.7077C91.3685 61.1559 91.2117 61.5942 90.911 61.9273C90.6754 62.1463 90.3977 62.3153 90.095 62.424C89.7922 62.5327 89.4705 62.5789 89.1493 62.5597C88.954 62.5764 88.7575 62.5764 88.5621 62.5597V64.8482H87.8244V59.1418ZM88.5621 61.9122C88.7675 61.9307 88.9741 61.9307 89.1795 61.9122C90.0678 61.9122 90.6098 61.4907 90.6098 60.6927C90.6098 59.8947 90.0677 59.5785 89.2546 59.5785C89.0249 59.5463 88.7919 59.5463 88.5621 59.5785V61.9122Z" fill="white"/>
<path d="M92.7629 59.1568C93.2598 59.0688 93.764 59.0285 94.2686 59.0363C94.8601 58.9737 95.453 59.1408 95.9247 59.5031C96.0688 59.6443 96.1829 59.813 96.2605 59.9992C96.3381 60.1855 96.3775 60.3854 96.3763 60.5871C96.3897 60.9231 96.2903 61.2539 96.0938 61.5268C95.8974 61.7997 95.6152 61.9989 95.2923 62.0928C95.5181 62.2007 95.7136 62.3633 95.8608 62.5657C96.008 62.7681 96.1024 63.004 96.1356 63.2521C96.2349 63.7663 96.381 64.2702 96.5721 64.7578H95.8044C95.6396 64.3128 95.5136 63.8544 95.4279 63.3876C95.2623 62.6047 94.9461 62.3036 94.2836 62.2735H93.4555V64.7578H92.7177L92.7629 59.1568ZM93.5007 61.7615H94.2686C95.0515 61.7615 95.5634 61.3249 95.5634 60.6775C95.5634 60.0301 95.0214 59.6085 94.2384 59.6085C93.9932 59.5823 93.7459 59.5823 93.5007 59.6085V61.7615Z" fill="white"/>
<path d="M102.685 61.882C102.732 62.2594 102.698 62.6426 102.586 63.0059C102.473 63.3693 102.285 63.7045 102.033 63.9894C101.781 64.2742 101.471 64.5021 101.124 64.658C100.777 64.8138 100.4 64.894 100.02 64.8933C99.6551 64.8869 99.2955 64.8047 98.964 64.652C98.6324 64.4993 98.3361 64.2793 98.0941 64.0061C97.852 63.7329 97.6694 63.4124 97.5578 63.0649C97.4461 62.7174 97.4079 62.3504 97.4455 61.9874C97.4057 61.6112 97.4447 61.2309 97.56 60.8707C97.6752 60.5104 97.8642 60.1781 98.1149 59.8948C98.3655 59.6116 98.6724 59.3836 99.016 59.2254C99.3596 59.0673 99.7323 58.9823 100.11 58.9761C100.476 58.9802 100.837 59.0608 101.17 59.2128C101.502 59.3647 101.799 59.5846 102.042 59.8584C102.284 60.1321 102.467 60.4536 102.578 60.8021C102.688 61.1506 102.725 61.5184 102.685 61.882ZM98.1682 61.9723C98.1682 63.1919 98.8306 64.291 99.9899 64.291C101.149 64.291 101.827 63.2069 101.827 61.9121C101.827 60.6172 101.24 59.5783 100.005 59.5783C98.7704 59.5783 98.2435 60.7076 98.2435 61.9723H98.1682Z" fill="white"/>
<path d="M104.07 59.0664H107.082V59.6837H104.733V61.5808H107.006V62.1982H104.838V64.7879H104.1L104.07 59.0664Z" fill="white"/>
<path d="M111.599 62.0777H109.37V64.1404H111.854V64.7577H108.632V59.0664H111.734V59.6837H109.37V61.4905H111.599V62.0777Z" fill="white"/>
<path d="M113.149 63.8997C113.547 64.1468 114.006 64.2772 114.474 64.2761C115.227 64.2761 115.664 63.8847 115.664 63.2975C115.664 62.7103 115.363 62.4543 114.595 62.1532C113.827 61.852 113.089 61.3401 113.089 60.5421C113.108 60.32 113.171 60.104 113.275 59.907C113.379 59.7099 113.522 59.5359 113.695 59.3953C113.868 59.2547 114.067 59.1505 114.281 59.0888C114.495 59.0272 114.72 59.0094 114.941 59.0365C115.38 59.0196 115.816 59.1183 116.206 59.3225L116.01 59.9248C115.672 59.7445 115.294 59.6513 114.911 59.6538C114.128 59.6538 113.842 60.1206 113.842 60.512C113.842 60.9035 114.188 61.31 114.971 61.6111C115.754 61.9123 116.477 62.4543 116.477 63.2975C116.477 64.1406 115.829 64.9537 114.474 64.9537C113.947 64.9693 113.426 64.8391 112.969 64.5773L113.149 63.8997Z" fill="white"/>
<path d="M117.757 63.8997C118.155 64.1446 118.614 64.2749 119.082 64.2761C119.834 64.2761 120.286 63.8847 120.286 63.2975C120.286 62.7103 119.97 62.4543 119.202 62.1532C118.434 61.852 117.696 61.3401 117.696 60.5421C117.715 60.32 117.778 60.104 117.882 59.907C117.986 59.7099 118.129 59.5359 118.302 59.3953C118.475 59.2547 118.674 59.1505 118.889 59.0888C119.103 59.0272 119.327 59.0094 119.548 59.0365C119.988 59.0196 120.424 59.1183 120.813 59.3225L120.602 59.9248C120.27 59.7439 119.897 59.6506 119.518 59.6538C118.735 59.6538 118.434 60.1206 118.434 60.512C118.434 60.9035 118.78 61.31 119.578 61.6111C120.376 61.9123 121.084 62.4543 121.084 63.2975C121.084 64.1406 120.422 64.9537 119.082 64.9537C118.555 64.9693 118.034 64.8391 117.576 64.5773L117.757 63.8997Z" fill="white"/>
<path d="M123.207 59.0664V64.7879H122.469V59.0664H123.207Z" fill="white"/>
<path d="M129.832 61.882C129.879 62.2594 129.845 62.6426 129.733 63.0059C129.62 63.3693 129.431 63.7045 129.179 63.9894C128.927 64.2742 128.617 64.5021 128.27 64.658C127.923 64.8138 127.547 64.894 127.167 64.8933C126.801 64.8891 126.441 64.8085 126.108 64.6565C125.775 64.5046 125.478 64.2847 125.235 64.011C124.993 63.7372 124.811 63.4158 124.7 63.0673C124.589 62.7187 124.552 62.3509 124.592 61.9874C124.553 61.6112 124.591 61.2309 124.707 60.8707C124.822 60.5104 125.011 60.1781 125.262 59.8948C125.512 59.6116 125.819 59.3836 126.163 59.2254C126.506 59.0673 126.879 58.9823 127.257 58.9761C127.623 58.9802 127.984 59.0608 128.316 59.2128C128.649 59.3647 128.946 59.5846 129.189 59.8584C129.431 60.1321 129.614 60.4536 129.724 60.8021C129.835 61.1506 129.872 61.5184 129.832 61.882ZM125.315 61.9723C125.315 63.1919 125.978 64.291 127.152 64.291C128.326 64.291 128.989 63.2069 128.989 61.9121C128.989 60.6172 128.387 59.5783 127.152 59.5783C125.917 59.5783 125.375 60.7076 125.375 61.9723H125.315Z" fill="white"/>
<path d="M131.217 64.8029V59.0664H132.015L133.852 61.9572C134.242 62.5542 134.589 63.1781 134.891 63.8243C134.821 63.0434 134.791 62.2594 134.8 61.4754V59.0664H135.493V64.7879H134.755L132.933 61.882C132.535 61.2692 132.178 60.6304 131.865 59.9698C131.865 60.6775 131.865 61.3701 131.865 62.3186V64.7728L131.217 64.8029Z" fill="white"/>
<path d="M138.158 62.9962L137.556 64.803H136.803L138.745 59.0815H139.634L141.591 64.803H140.808L140.191 62.9962H138.158ZM140.04 62.4241L139.468 60.7679C139.348 60.4065 139.257 60.0602 139.182 59.729C139.092 60.0753 139.001 60.4216 138.881 60.7679L138.324 62.4241H140.04Z" fill="white"/>
<path d="M142.856 59.0664H143.594V64.1705H146.048V64.7879H142.856V59.0664Z" fill="white"/>
<path d="M149.42 63.8997C149.819 64.1446 150.278 64.2748 150.745 64.2761C151.498 64.2761 151.95 63.8846 151.95 63.2974C151.95 62.7102 151.634 62.4542 150.866 62.1531C150.098 61.852 149.36 61.3401 149.36 60.5421C149.379 60.3185 149.442 60.1011 149.547 59.903C149.652 59.7048 149.796 59.53 149.971 59.3892C150.146 59.2484 150.347 59.1446 150.563 59.0839C150.779 59.0233 151.005 59.0071 151.227 59.0364C151.666 59.0196 152.102 59.1182 152.492 59.3225L152.281 59.9248C151.948 59.7438 151.575 59.6505 151.197 59.6537C150.414 59.6537 150.113 60.1205 150.113 60.512C150.113 60.9034 150.459 61.3099 151.257 61.6111C152.055 61.9122 152.763 62.4542 152.763 63.2974C152.763 64.1406 152.1 64.9536 150.76 64.9536C150.233 64.9693 149.712 64.839 149.255 64.5772L149.42 63.8997Z" fill="white"/>
<path d="M154.871 59.0664V64.7879H154.133V59.0664H154.871Z" fill="white"/>
<path d="M156.587 64.8029V59.0664H157.4L159.237 61.9572C159.617 62.5576 159.959 63.1812 160.261 63.8243C160.261 63.0564 160.186 62.3186 160.186 61.4754V59.0664H160.878V64.7879H160.126L158.319 61.882C157.921 61.2659 157.559 60.6275 157.235 59.9698C157.235 60.6775 157.235 61.3701 157.235 62.3186V64.7728L156.587 64.8029Z" fill="white"/>
<path d="M166.976 64.5469C166.411 64.7509 165.815 64.8578 165.215 64.8631C164.431 64.9002 163.664 64.6301 163.076 64.1103C162.54 63.5299 162.254 62.762 162.278 61.9723C162.255 61.563 162.321 61.1535 162.47 60.7716C162.619 60.3897 162.848 60.0442 163.142 59.7587C163.436 59.4731 163.788 59.2541 164.174 59.1165C164.56 58.9789 164.972 58.9258 165.38 58.961C165.865 58.9459 166.347 59.0331 166.795 59.217L166.63 59.8192C166.226 59.6465 165.789 59.5643 165.35 59.5783C165.041 59.5533 164.731 59.5957 164.44 59.7026C164.149 59.8096 163.885 59.9784 163.666 60.1975C163.446 60.4166 163.278 60.6808 163.171 60.9716C163.064 61.2625 163.021 61.5731 163.046 61.8819C163.018 62.1839 163.055 62.4884 163.154 62.7747C163.254 63.0611 163.415 63.3225 163.625 63.5412C163.835 63.7599 164.09 63.9307 164.372 64.0419C164.654 64.1531 164.957 64.2021 165.26 64.1856C165.598 64.2054 165.936 64.1541 166.253 64.035V62.3336H165.079V61.7314H166.976V64.5469Z" fill="white"/>
<path d="M169.265 59.0664V64.7879H168.527V59.0664H169.265Z" fill="white"/>
<path d="M170.981 64.8029V59.0664H171.794L173.631 61.9572C174.011 62.5576 174.353 63.1812 174.655 63.8243C174.655 63.0564 174.655 62.3186 174.655 61.4754V59.0664H175.348V64.7879H174.595L172.773 61.882C172.38 61.2658 172.023 60.6273 171.704 59.9698C171.704 60.6775 171.704 61.3701 171.704 62.3186V64.7728L170.981 64.8029Z" fill="white"/>
<path d="M181.355 64.547C180.796 64.7527 180.205 64.8597 179.608 64.8632C178.82 64.9043 178.047 64.634 177.455 64.1104C176.919 63.53 176.633 62.7621 176.657 61.9724C176.637 61.5637 176.704 61.1553 176.854 60.7746C177.003 60.3938 177.233 60.0494 177.526 59.7644C177.82 59.4794 178.171 59.2603 178.556 59.1217C178.941 58.9832 179.351 58.9284 179.759 58.9611C180.274 58.9358 180.787 59.0231 181.265 59.2171L181.084 59.8193C180.685 59.6488 180.253 59.5666 179.819 59.5784C179.51 59.5534 179.2 59.5958 178.909 59.7027C178.618 59.8097 178.354 59.9785 178.135 60.1976C177.916 60.4167 177.747 60.6809 177.64 60.9717C177.533 61.2626 177.491 61.5732 177.516 61.882C177.484 62.1845 177.519 62.4901 177.618 62.7776C177.717 63.0652 177.878 63.3277 178.088 63.5469C178.299 63.7662 178.555 63.9369 178.838 64.0472C179.122 64.1575 179.426 64.2048 179.729 64.1857C180.067 64.2055 180.406 64.1542 180.723 64.0351V62.3337H179.548V61.7315H181.43L181.355 64.547Z" fill="white"/>
<path d="M185.887 59.6988H184.141V59.0664H188.387V59.6837H186.625V64.7879H185.887V59.6988Z" fill="white"/>
<path d="M190.193 59.0664V64.7879H189.44V59.0664H190.193Z" fill="white"/>
<path d="M191.895 59.1417C192.368 59.0673 192.846 59.032 193.325 59.0363C193.896 58.9921 194.464 59.1581 194.921 59.5031C195.091 59.6524 195.226 59.8382 195.315 60.0468C195.403 60.2554 195.444 60.4812 195.433 60.7076C195.445 60.9309 195.411 61.1543 195.333 61.364C195.255 61.5737 195.136 61.7654 194.981 61.9272C194.748 62.1458 194.473 62.3146 194.173 62.4233C193.873 62.5321 193.553 62.5784 193.235 62.5595C193.039 62.5768 192.843 62.5768 192.647 62.5595V64.8481H191.895V59.1417ZM192.647 61.9121C192.848 61.9306 193.049 61.9306 193.25 61.9121C194.153 61.9121 194.755 61.4905 194.755 60.6925C194.755 59.8945 194.213 59.5783 193.4 59.5783C193.171 59.5454 192.937 59.5454 192.708 59.5783L192.647 61.9121Z" fill="white"/>
<path d="M196.743 63.8997C197.142 64.1425 197.6 64.2726 198.068 64.2761C198.836 64.2761 199.272 63.8847 199.272 63.2975C199.272 62.7103 198.971 62.4543 198.188 62.1532C197.405 61.852 196.683 61.3401 196.683 60.5421C196.701 60.32 196.764 60.104 196.868 59.907C196.973 59.7099 197.115 59.5359 197.288 59.3953C197.461 59.2547 197.661 59.1505 197.875 59.0888C198.089 59.0272 198.313 59.0094 198.535 59.0365C198.974 59.0196 199.41 59.1183 199.799 59.3225L199.604 59.9248C199.265 59.7445 198.888 59.6513 198.504 59.6538C197.721 59.6538 197.42 60.1206 197.42 60.512C197.42 60.9035 197.782 61.31 198.565 61.6111C199.348 61.9123 200.07 62.4543 200.07 63.2975C200.07 64.1406 199.423 64.9537 198.068 64.9537C197.541 64.9693 197.02 64.8391 196.562 64.5773L196.743 63.8997Z" fill="white"/>
<path d="M199.604 52.532H88.5621V53.9322H199.604V52.532Z" fill="white"/>
<path d="M199.604 70.5095H88.5621V71.9098H199.604V70.5095Z" fill="white"/>
<path d="M115.679 149.405H119.051C118.957 150.084 118.826 150.758 118.66 151.423C118.144 153.029 117.039 154.379 115.566 155.201C114.093 156.023 112.362 156.254 110.725 155.849C109.073 155.427 107.64 154.398 106.714 152.966C105.787 151.534 105.435 149.806 105.726 148.125C106.735 141.576 112.758 137.947 119.383 139.89C126.911 142.103 130.69 149.782 128.266 157.641C127.197 161.041 125.078 164.015 122.213 166.136C119.348 168.257 115.885 169.415 112.321 169.445V170.529C112.321 176.296 112.321 182.078 112.321 187.844C112.315 188.97 112.08 190.082 111.63 191.114C111.181 192.146 110.527 193.076 109.708 193.847C108.888 194.619 107.921 195.216 106.864 195.602C105.807 195.989 104.682 196.157 103.558 196.095C101.419 195.972 99.4072 195.035 97.9372 193.475C96.4672 191.915 95.65 189.852 95.6536 187.709C95.6727 186.409 96.1946 185.167 97.1098 184.243C98.0249 183.32 99.2622 182.786 100.562 182.755C101.864 182.734 103.123 183.221 104.073 184.111C105.023 185.002 105.589 186.228 105.651 187.528C105.651 188.115 105.651 188.703 105.651 189.35H102.324C102.324 188.868 102.324 188.402 102.324 187.844C102.34 187.61 102.308 187.374 102.229 187.153C102.15 186.931 102.026 186.728 101.865 186.557C101.704 186.386 101.508 186.25 101.292 186.158C101.076 186.066 100.842 186.02 100.607 186.023C100.364 186.036 100.126 186.101 99.9095 186.213C99.6929 186.324 99.5025 186.481 99.3504 186.671C99.1984 186.861 99.0882 187.082 99.0271 187.318C98.9661 187.554 98.9556 187.8 98.9962 188.04C99.098 189.302 99.6693 190.481 100.598 191.342C101.526 192.203 102.744 192.685 104.01 192.693C105.279 192.706 106.504 192.227 107.427 191.357C108.351 190.487 108.901 189.293 108.964 188.025C108.964 181.732 108.964 175.438 108.964 169.069L107.051 168.602C102.412 167.339 98.3821 164.449 95.6979 160.46C93.0136 156.471 91.8541 151.649 92.4315 146.876C92.7638 143.385 93.8634 140.01 95.6516 136.994C97.4397 133.977 99.8722 131.393 102.775 129.425C104.582 128.131 106.389 126.836 108.241 125.601C108.502 125.454 108.713 125.231 108.847 124.963C108.981 124.695 109.032 124.393 108.994 124.095C108.994 115.513 108.994 106.931 108.994 98.3338C108.994 94.404 111.342 92.2359 115.287 92.522C118.274 92.7617 121.12 93.8953 123.454 95.7752C125.787 97.655 127.501 100.194 128.371 103.061C129.269 105.939 129.256 109.024 128.334 111.894C127.413 114.764 125.627 117.28 123.222 119.097C117.621 123.192 111.899 127.167 106.163 131.142C102.46 133.401 99.4858 136.678 97.5959 140.582C94.7653 147.056 94.5847 153.41 98.9962 159.343C100.98 162.076 103.773 164.116 106.981 165.173C110.189 166.23 113.648 166.25 116.868 165.23C123.192 162.941 127.001 155.97 125.27 149.872C124.593 147.527 123.073 145.514 121.003 144.222C118.932 142.929 116.457 142.448 114.053 142.871C112.683 143.215 111.457 143.983 110.549 145.064C109.641 146.145 109.097 147.485 108.994 148.893C108.91 149.765 109.163 150.636 109.701 151.327C110.238 152.018 111.019 152.478 111.884 152.612C112.741 152.714 113.604 152.486 114.297 151.974C114.991 151.462 115.464 150.705 115.618 149.857C115.618 149.797 115.634 149.631 115.679 149.405ZM112.276 122.921C115.754 120.376 119.157 118.208 122.168 115.588C123.84 114.039 124.988 112.009 125.455 109.778C125.922 107.547 125.683 105.226 124.773 103.137C123.932 101.085 122.518 99.3195 120.699 98.0511C118.881 96.7827 116.735 96.0654 114.519 95.985C113.014 95.985 112.291 96.6173 112.291 97.9724C112.276 106.208 112.276 114.399 112.276 122.951V122.921Z" fill="url(#paint1_linear_91_3218)"/>
<path d="M195.674 124.517C195.674 124.908 195.674 125.179 195.674 125.45C195.674 133.415 195.674 141.365 195.674 149.33C195.686 150.228 195.517 151.12 195.176 151.951C194.835 152.782 194.329 153.535 193.689 154.165C193.049 154.796 192.288 155.29 191.451 155.618C190.615 155.946 189.721 156.102 188.823 156.075C187.1 156.025 185.463 155.311 184.253 154.082C183.044 152.853 182.356 151.205 182.334 149.481C182.316 147.76 182.964 146.098 184.143 144.844C185.321 143.59 186.939 142.84 188.658 142.75C189.832 142.75 191.006 142.75 192.346 142.75V137.586L178.991 136.246V137.45C178.991 140.326 178.991 143.217 178.991 146.108C178.989 146.988 178.813 147.858 178.473 148.67C178.134 149.481 177.637 150.217 177.011 150.836C176.386 151.455 175.644 151.943 174.829 152.274C174.013 152.605 173.141 152.771 172.261 152.763C170.519 152.736 168.856 152.033 167.622 150.802C166.389 149.572 165.682 147.91 165.651 146.168C165.643 145.288 165.809 144.415 166.138 143.6C166.468 142.784 166.955 142.041 167.571 141.413C168.188 140.785 168.922 140.285 169.732 139.941C170.542 139.597 171.411 139.416 172.291 139.408H175.634V122.53L195.674 124.517ZM192.331 134.198V127.543L179.097 126.218V132.843L192.331 134.198Z" fill="url(#paint2_linear_91_3218)"/>
<path d="M139.001 172.773V152.417L158.951 156.406V169.822L142.389 166.509V168.647C142.389 172.261 142.389 175.874 142.389 179.488C142.39 181.147 141.774 182.747 140.661 183.976C139.548 185.206 138.017 185.979 136.366 186.143C134.724 186.281 133.088 185.807 131.773 184.812C130.459 183.817 129.558 182.371 129.245 180.753C129.062 179.813 129.084 178.844 129.31 177.913C129.536 176.983 129.959 176.112 130.553 175.36C131.146 174.608 131.894 173.993 132.747 173.557C133.6 173.121 134.536 172.874 135.493 172.833C136.517 172.743 137.691 172.773 139.001 172.773Z" fill="url(#paint3_linear_91_3218)"/>
<path d="M168.934 125.992H165.727V106.012C164.492 106.012 163.333 106.012 162.173 106.012C160.593 105.967 159.079 105.362 157.902 104.307C156.725 103.251 155.961 101.812 155.744 100.246C155.538 98.7018 155.876 97.1342 156.7 95.8124C157.525 94.4907 158.784 93.4975 160.261 93.0037C161.236 92.6715 162.275 92.5724 163.295 92.7142C164.316 92.856 165.289 93.2348 166.136 93.8203C166.984 94.4057 167.682 95.1816 168.176 96.0856C168.669 96.9897 168.944 97.9968 168.979 99.0262C169.069 107.91 168.979 116.808 168.979 125.706C169.009 125.782 168.964 125.842 168.934 125.992Z" fill="url(#paint4_linear_91_3218)"/>
<path d="M142.314 116.04V96.0903H145.581C145.616 96.234 145.641 96.3799 145.656 96.527C145.656 105.29 145.656 114.053 145.656 122.801C145.698 124.08 145.349 125.343 144.655 126.419C143.961 127.495 142.955 128.334 141.772 128.823C140.658 129.377 139.406 129.59 138.172 129.438C136.938 129.285 135.776 128.773 134.831 127.965C133.77 127.132 132.992 125.994 132.601 124.703C132.211 123.413 132.227 122.034 132.647 120.753C133.06 119.459 133.857 118.321 134.933 117.492C136.01 116.664 137.313 116.183 138.67 116.115C139.859 116.01 141.034 116.04 142.314 116.04Z" fill="url(#paint5_linear_91_3218)"/>
<path d="M142.735 191.006L141.922 187.995C158.846 182.996 170.62 172.457 176.823 155.714C177.29 155.849 177.802 155.985 178.329 156.151C178.856 156.316 179.322 156.482 179.834 156.647C175.724 170.981 161.646 186.354 142.735 191.006Z" fill="url(#paint6_linear_91_3218)"/>
<path d="M182.289 160.532L185.3 161.616C180.979 174.881 169.174 189.079 153.335 195.96L152.01 192.949C158.948 189.813 165.196 185.334 170.393 179.77C175.59 174.206 179.633 167.667 182.289 160.532Z" fill="url(#paint7_linear_91_3218)"/>
<path d="M147.478 117.245L149.405 114.791C155.116 119.191 159.234 125.334 161.136 132.288C163.038 139.241 162.62 146.626 159.945 153.32L156.934 152.176C161.466 138.444 158.364 126.821 147.478 117.245Z" fill="url(#paint8_linear_91_3218)"/>
<path d="M148.683 128.477C150.689 131.662 151.907 135.279 152.234 139.029C152.561 142.779 151.989 146.553 150.565 150.038L147.553 148.773C148.772 145.781 149.261 142.542 148.978 139.324C148.695 136.106 147.649 133.002 145.927 130.269L148.683 128.477Z" fill="url(#paint9_linear_91_3218)"/>
<path d="M174.248 101.586C178.7 106.675 182.263 112.478 184.788 118.75L181.701 119.985C179.31 114.071 175.951 108.596 171.764 103.784L174.248 101.586Z" fill="url(#paint10_linear_91_3218)"/>
<path d="M177.184 118.585L174.173 120.09L170.289 113.646L173.014 111.704L177.184 118.585Z" fill="url(#paint11_linear_91_3218)"/>
<path d="M223.829 98.2133C224.018 98.0043 224.252 97.8403 224.512 97.7335C224.773 97.6266 225.054 97.5796 225.335 97.5959C225.616 97.5828 225.896 97.6313 226.156 97.7379C226.416 97.8445 226.65 98.0068 226.841 98.2133C227.242 98.6577 227.452 99.2414 227.428 99.8394C227.449 100.428 227.238 101.001 226.841 101.435C226.651 101.644 226.418 101.808 226.158 101.917C225.898 102.027 225.617 102.078 225.335 102.068C225.053 102.081 224.771 102.031 224.511 101.922C224.25 101.812 224.017 101.646 223.829 101.435C223.432 101.001 223.221 100.428 223.242 99.8394C223.218 99.2414 223.429 98.6577 223.829 98.2133V98.2133Z" stroke="white" stroke-width="0.25" stroke-miterlimit="10"/>
<path d="M233.827 126.58H218.424V122.815H227.699L218.424 119.292V116.281L227.729 112.803H218.424V109.039H233.902V113.556L223.182 117.892L233.902 122.183L233.827 126.58Z" stroke="white" stroke-width="0.25" stroke-miterlimit="10"/>
<path d="M233.827 132.994H224.567C223.792 132.94 223.026 133.188 222.429 133.686C222.167 133.946 221.963 134.259 221.833 134.605C221.703 134.951 221.65 135.32 221.676 135.689C221.654 136.059 221.709 136.43 221.838 136.777C221.968 137.125 222.169 137.441 222.429 137.706C223.023 138.21 223.79 138.464 224.567 138.414H233.827V142.178H224.582C223.359 142.22 222.149 141.917 221.089 141.305C220.157 140.738 219.405 139.919 218.921 138.941C218.429 137.902 218.182 136.763 218.198 135.613C218.179 134.483 218.427 133.363 218.921 132.346C219.389 131.386 220.141 130.593 221.074 130.073C222.145 129.479 223.358 129.188 224.582 129.23H233.827V132.994Z" stroke="white" stroke-width="0.25" stroke-miterlimit="10"/>
<path d="M218.755 147.388C219.085 146.532 219.648 145.786 220.381 145.235C221.138 144.684 222.05 144.389 222.986 144.391V148.396C222.488 148.419 222.018 148.635 221.676 148.999C221.363 149.361 221.201 149.83 221.225 150.309C221.196 150.78 221.328 151.248 221.601 151.634C221.727 151.794 221.89 151.922 222.076 152.006C222.262 152.09 222.466 152.127 222.67 152.115C222.846 152.124 223.021 152.095 223.185 152.03C223.348 151.965 223.496 151.866 223.618 151.739C223.882 151.465 224.092 151.143 224.236 150.79C224.451 150.269 224.637 149.736 224.793 149.194C225.036 148.354 225.343 147.534 225.711 146.74C226.032 146.097 226.502 145.539 227.081 145.114C227.769 144.636 228.594 144.398 229.43 144.437C230.074 144.397 230.718 144.513 231.308 144.776C231.898 145.038 232.416 145.438 232.818 145.942C233.675 147.119 234.105 148.553 234.038 150.007C234.108 151.481 233.679 152.935 232.818 154.133C232.412 154.648 231.896 155.066 231.307 155.356C230.718 155.645 230.071 155.798 229.415 155.804V151.724C229.638 151.72 229.857 151.669 230.059 151.576C230.261 151.483 230.442 151.348 230.59 151.182C230.889 150.813 231.045 150.347 231.026 149.872C231.043 149.474 230.915 149.083 230.665 148.773C230.528 148.634 230.363 148.526 230.182 148.456C230 148.386 229.806 148.355 229.611 148.366C229.372 148.362 229.137 148.425 228.932 148.547C228.728 148.67 228.561 148.847 228.452 149.059C228.07 149.761 227.767 150.503 227.548 151.272C227.275 152.101 226.948 152.91 226.57 153.696C226.257 154.336 225.798 154.894 225.23 155.322C224.57 155.798 223.769 156.036 222.956 156C222.112 156.007 221.283 155.778 220.562 155.337C219.815 154.862 219.22 154.183 218.846 153.38C218.391 152.443 218.169 151.41 218.198 150.369C218.186 149.348 218.375 148.335 218.755 147.388V147.388Z" stroke="white" stroke-width="0.25" stroke-miterlimit="10"/>
<path d="M233.827 162.143H218.424V158.439H233.902L233.827 162.143Z" stroke="white" stroke-width="0.25" stroke-miterlimit="10"/>
<path d="M230.198 165.23C231.372 165.874 232.342 166.834 232.999 168C233.675 169.23 234.018 170.616 233.992 172.02C234.021 173.714 233.492 175.369 232.487 176.733C231.511 178.046 230.104 178.974 228.512 179.353V175.212C229.136 174.941 229.662 174.483 230.017 173.902C230.365 173.321 230.543 172.653 230.529 171.975C230.548 171.446 230.45 170.919 230.242 170.433C230.033 169.946 229.72 169.511 229.325 169.159C228.415 168.403 227.254 168.016 226.073 168.075C224.896 168.018 223.741 168.405 222.836 169.159C222.44 169.511 222.127 169.946 221.919 170.433C221.711 170.919 221.612 171.446 221.631 171.975C221.62 172.65 221.792 173.316 222.128 173.902C222.491 174.477 223.014 174.932 223.633 175.212V179.353C222.05 178.974 220.652 178.045 219.689 176.733C218.684 175.369 218.155 173.714 218.183 172.02C218.155 170.614 218.503 169.226 219.192 168C219.839 166.831 220.805 165.87 221.977 165.23C223.224 164.553 224.624 164.21 226.043 164.236C227.491 164.2 228.923 164.543 230.198 165.23V165.23Z" stroke="white" stroke-width="0.25" stroke-miterlimit="10"/>
<path d="M223.829 186.7C224.017 186.489 224.25 186.323 224.511 186.214C224.771 186.104 225.053 186.054 225.335 186.068C225.617 186.058 225.898 186.109 226.158 186.218C226.418 186.327 226.651 186.492 226.841 186.7C227.242 187.145 227.452 187.728 227.428 188.326C227.449 188.915 227.238 189.488 226.841 189.922C226.65 190.129 226.416 190.291 226.156 190.398C225.896 190.504 225.616 190.553 225.335 190.54C225.054 190.556 224.773 190.509 224.512 190.402C224.252 190.295 224.018 190.131 223.829 189.922C223.432 189.488 223.221 188.915 223.242 188.326C223.218 187.728 223.429 187.145 223.829 186.7V186.7Z" stroke="white" stroke-width="0.25" stroke-miterlimit="10"/>
<path d="M64.2006 189.832C64.0126 190.043 63.78 190.209 63.5195 190.318C63.259 190.428 62.9772 190.478 62.695 190.464C62.4132 190.474 62.1325 190.423 61.8725 190.314C61.6125 190.205 61.3794 190.04 61.1893 189.832C60.9861 189.614 60.8283 189.358 60.7249 189.079C60.6215 188.8 60.5747 188.503 60.5872 188.206C60.5762 187.913 60.6237 187.621 60.7271 187.347C60.8305 187.073 60.9877 186.822 61.1893 186.61C61.3801 186.403 61.6139 186.241 61.874 186.134C62.1341 186.028 62.4142 185.979 62.695 185.992C62.9762 185.976 63.2574 186.023 63.518 186.13C63.7786 186.237 64.0119 186.401 64.2006 186.61C64.5873 187.05 64.7919 187.62 64.7728 188.206C64.7951 188.801 64.5906 189.382 64.2006 189.832V189.832Z" stroke="white" stroke-width="0.25" stroke-miterlimit="10"/>
<path d="M54.2033 161.45H69.6662V165.215H60.3312L69.6061 168.678V171.689L60.3312 175.167H69.6211V178.931H54.1581V174.414L64.8633 170.063L54.1581 165.772L54.2033 161.45Z" stroke="white" stroke-width="0.25" stroke-miterlimit="10"/>
<path d="M54.2033 155.006H63.4629C64.2312 155.06 64.991 154.818 65.5859 154.329C65.8496 154.067 66.0535 153.751 66.1834 153.402C66.3134 153.054 66.3664 152.682 66.3388 152.311C66.3654 151.941 66.3119 151.569 66.182 151.22C66.0521 150.872 65.8488 150.556 65.5859 150.294C64.9955 149.794 64.2352 149.54 63.4629 149.586H54.2033V145.822H63.433C64.6609 145.78 65.8758 146.083 66.9411 146.695C67.8731 147.264 68.6208 148.09 69.094 149.074C69.5867 150.108 69.8342 151.241 69.8169 152.386C69.8413 153.516 69.5987 154.635 69.1091 155.654C68.6314 156.616 67.8763 157.413 66.9411 157.942C65.8668 158.527 64.6554 158.813 63.433 158.77H54.2033V155.006Z" stroke="white" stroke-width="0.25" stroke-miterlimit="10"/>
<path d="M69.2747 140.612C68.9349 141.462 68.3735 142.206 67.6487 142.765C66.8885 143.309 65.9785 143.604 65.0439 143.609V139.603C65.5388 139.579 66.0064 139.37 66.3538 139.016C66.6638 138.646 66.8249 138.174 66.8056 137.691C66.8301 137.218 66.6919 136.75 66.4141 136.366C66.2864 136.208 66.1229 136.081 65.9372 135.997C65.7514 135.914 65.5485 135.875 65.345 135.885C65.1695 135.879 64.9948 135.909 64.8316 135.974C64.6685 136.039 64.5202 136.136 64.3964 136.261C64.138 136.54 63.9293 136.86 63.7792 137.21C63.6287 137.586 63.448 138.128 63.2372 138.805C62.9897 139.646 62.6776 140.467 62.3037 141.26C61.9922 141.905 61.5268 142.463 60.9486 142.886C60.2567 143.366 59.4257 143.604 58.5846 143.563C57.9412 143.598 57.2988 143.479 56.7099 143.217C56.1211 142.956 55.6026 142.558 55.1969 142.058C54.3419 140.874 53.9122 139.436 53.9775 137.977C53.9067 136.504 54.3364 135.05 55.1969 133.852C55.6066 133.337 56.1259 132.919 56.7171 132.63C57.3083 132.341 57.9567 132.188 58.6148 132.181V136.261C58.3896 136.263 58.1675 136.313 57.9627 136.406C57.7578 136.499 57.5746 136.635 57.4253 136.803C57.1332 137.175 56.9839 137.64 57.0038 138.113C56.9868 138.511 57.1153 138.902 57.3652 139.212C57.497 139.354 57.6582 139.465 57.8377 139.538C58.0172 139.611 58.2105 139.644 58.404 139.634C58.646 139.636 58.8839 139.571 59.0912 139.446C59.2985 139.321 59.4671 139.141 59.5784 138.926C59.9497 138.219 60.2522 137.478 60.4818 136.713C60.7505 135.885 61.0724 135.075 61.4454 134.289C61.7666 133.65 62.2303 133.094 62.8005 132.662C63.4559 132.189 64.2514 131.951 65.059 131.985C65.9083 131.975 66.7432 132.204 67.468 132.647C68.2147 133.123 68.8102 133.802 69.1844 134.605C69.6249 135.546 69.8415 136.577 69.8169 137.616C69.8298 138.64 69.6456 139.657 69.2747 140.612V140.612Z" stroke="white" stroke-width="0.25" stroke-miterlimit="10"/>
<path d="M54.2033 125.857H69.6662V129.621H54.2033V125.857Z" stroke="white" stroke-width="0.25" stroke-miterlimit="10"/>
<path d="M57.8318 122.77C56.6519 122.135 55.6798 121.173 55.0313 120C54.3428 118.774 53.9946 117.386 54.0227 115.98C53.9875 114.285 54.5172 112.627 55.5283 111.267C56.4983 109.955 57.9006 109.027 59.488 108.647V112.788C58.8689 113.068 58.3455 113.524 57.9823 114.098C57.6429 114.683 57.4662 115.349 57.4705 116.025C57.4525 116.558 57.5526 117.088 57.7634 117.577C57.9743 118.066 58.2907 118.503 58.6901 118.856C59.5994 119.601 60.7531 119.982 61.9273 119.925C63.1019 119.985 64.2565 119.604 65.1643 118.856C65.5637 118.503 65.8801 118.066 66.091 117.577C66.3018 117.088 66.402 116.558 66.384 116.025C66.3882 115.349 66.2115 114.683 65.8721 114.098C65.5124 113.521 64.988 113.064 64.3664 112.788V108.647C65.9538 109.027 67.3563 109.955 68.3263 111.267C69.3313 112.631 69.8603 114.286 69.8319 115.98C69.8528 117.385 69.5049 118.771 68.8231 120C68.176 121.169 67.21 122.13 66.0377 122.77C64.7863 123.449 63.3804 123.791 61.9573 123.764C60.5191 123.798 59.0971 123.455 57.8318 122.77V122.77Z" stroke="white" stroke-width="0.25" stroke-miterlimit="10"/>
<path d="M64.2007 101.3C64.0126 101.511 63.78 101.677 63.5195 101.786C63.259 101.896 62.9772 101.946 62.695 101.932C62.4132 101.943 62.1326 101.891 61.8725 101.782C61.6125 101.673 61.3794 101.508 61.1894 101.3C60.9873 101.085 60.83 100.831 60.7266 100.555C60.6232 100.278 60.5759 99.984 60.5873 99.689C60.5759 99.3939 60.6232 99.0995 60.7266 98.823C60.83 98.5464 60.9873 98.2932 61.1894 98.0779C61.382 97.8738 61.616 97.7132 61.8757 97.6067C62.1353 97.5003 62.4146 97.4505 62.695 97.4606C62.9758 97.4475 63.2561 97.4959 63.5162 97.6026C63.7763 97.7092 64.0099 97.8714 64.2007 98.0779C64.6215 98.5201 64.8538 99.1087 64.8482 99.7191C64.8385 100.309 64.6073 100.873 64.2007 101.3Z" stroke="white" stroke-width="0.25" stroke-miterlimit="10"/>
<path d="M148.366 18.113C148.165 17.92 148.01 17.6848 147.911 17.4244C147.812 17.164 147.772 16.885 147.794 16.6073C147.799 16.3206 147.865 16.0383 147.987 15.7788C148.109 15.5193 148.284 15.2885 148.502 15.1017C148.968 14.7127 149.568 14.5233 150.173 14.5747C150.743 14.6024 151.28 14.8444 151.679 15.2522C151.874 15.4494 152.026 15.6852 152.124 15.9445C152.223 16.2038 152.266 16.4809 152.251 16.7579C152.241 17.0306 152.172 17.298 152.05 17.5422C151.928 17.7863 151.755 18.0014 151.543 18.1732C151.087 18.5574 150.497 18.7467 149.902 18.7002C149.335 18.7029 148.787 18.4934 148.366 18.113Z" fill="#060606"/>
<path d="M180.03 26.4241L174.399 24.8131L172.743 27.2071L168.903 26.1079L178.675 12.5571L182.921 13.7767L184.035 30.3388L180.166 29.2246L180.03 26.4241ZM179.895 23.3225L179.608 17.2999L176.191 22.2836L179.895 23.3225Z" fill="#060606"/>
<path d="M216.602 36.7077C215.809 37.1333 214.909 37.3166 214.012 37.2347C212.933 37.1146 211.899 36.7321 211.001 36.1205L208.984 34.8708L205.972 39.6437L202.735 37.6412L211.001 24.3313L216.256 27.5986C217.199 28.152 218.002 28.9144 218.605 29.8269C219.089 30.5857 219.335 31.4717 219.312 32.3715C219.249 33.3024 218.942 34.2004 218.424 34.9762C217.973 35.6983 217.346 36.2941 216.602 36.7077ZM213.937 33.8169C214.195 33.7506 214.436 33.6322 214.645 33.4691C214.855 33.3059 215.029 33.1015 215.157 32.8683C215.309 32.6522 215.415 32.4066 215.466 32.1473C215.518 31.888 215.516 31.6208 215.458 31.3627C215.369 31.083 215.224 30.8242 215.033 30.6018C214.841 30.3793 214.607 30.1977 214.344 30.0678L212.582 28.9687L210.519 32.2962L212.281 33.3953C212.747 33.7441 213.331 33.8955 213.907 33.8169H213.937Z" fill="#060606"/>
<path d="M241.461 58.7352C240.586 58.9387 239.671 58.8864 238.826 58.5846C237.785 58.1891 236.856 57.5487 236.115 56.7176L234.504 54.9861L230.409 58.8406L227.789 56.0702L239.202 45.335L243.433 49.8519C244.206 50.6262 244.788 51.5694 245.134 52.6072C245.396 53.466 245.396 54.3833 245.134 55.2421C244.85 56.1191 244.329 56.9005 243.629 57.5006C243.023 58.0909 242.277 58.516 241.461 58.7352ZM239.624 55.2572C239.888 55.2612 240.151 55.2096 240.395 55.1059C240.639 55.0022 240.858 54.8486 241.039 54.6549C241.247 54.487 241.416 54.2765 241.536 54.0375C241.655 53.7985 241.722 53.5367 241.731 53.2697C241.685 52.6926 241.421 52.1545 240.994 51.7641L239.488 50.2584L236.627 52.9535L238.058 54.4592C238.252 54.6901 238.491 54.8797 238.76 55.0167C239.029 55.1538 239.322 55.2355 239.624 55.2572Z" fill="#060606"/>
<path d="M260.356 78.8055L257.586 80.3112L260.055 84.8281L257.48 86.3337L254.996 81.8168L251.985 83.4881L254.786 88.532L252.105 90.0376L247.453 81.6361L261.154 74.1079L265.807 82.4943L263.142 84L260.356 78.8055Z" fill="#060606"/>
<path d="M276.03 114.775C275.718 116.094 275.027 117.293 274.043 118.223C272.995 119.198 271.706 119.873 270.309 120.181C268.933 120.55 267.484 120.55 266.108 120.181C264.798 119.823 263.624 119.084 262.735 118.058C261.76 116.919 261.078 115.56 260.748 114.098L259.348 108.391L274.555 104.657L275.955 110.349C276.347 111.795 276.373 113.316 276.03 114.775ZM265.852 116.04C266.386 116.339 266.974 116.527 267.582 116.591C268.191 116.656 268.806 116.597 269.39 116.417C270.001 116.312 270.583 116.083 271.101 115.743C271.619 115.404 272.062 114.962 272.401 114.444C272.702 113.906 272.889 113.311 272.952 112.697C273.014 112.084 272.949 111.464 272.763 110.876L272.326 109.114L263.488 111.297L263.925 113.059C264.032 113.655 264.257 114.223 264.589 114.73C264.92 115.237 265.349 115.672 265.852 116.01V116.04Z" fill="#060606"/>
<path d="M280.442 147.147L271.077 146.755C270.298 146.664 269.515 146.88 268.893 147.358C268.62 147.62 268.408 147.94 268.273 148.294C268.138 148.648 268.082 149.027 268.11 149.405C268.066 149.78 268.104 150.16 268.221 150.519C268.338 150.877 268.531 151.206 268.788 151.483C269.365 152.016 270.126 152.302 270.911 152.281L280.276 152.672L280.125 156.482L270.775 156.105C269.532 156.091 268.318 155.732 267.267 155.066C266.353 154.445 265.633 153.579 265.19 152.567C264.73 151.499 264.524 150.34 264.587 149.179C264.625 148.04 264.918 146.923 265.445 145.912C265.969 144.957 266.766 144.181 267.734 143.684C268.847 143.144 270.083 142.905 271.317 142.991L280.667 143.383L280.442 147.147Z" fill="#060606"/>
<path d="M265.807 176.296C266.03 176.16 266.278 176.069 266.537 176.031C266.795 175.992 267.059 176.005 267.312 176.07C267.585 176.143 267.84 176.271 268.06 176.447C268.28 176.624 268.462 176.844 268.592 177.094C268.728 177.359 268.81 177.649 268.833 177.946C268.856 178.243 268.821 178.542 268.728 178.825C268.587 179.406 268.225 179.909 267.719 180.226C267.481 180.374 267.214 180.47 266.936 180.506C266.658 180.543 266.376 180.519 266.108 180.437C265.841 180.37 265.591 180.247 265.375 180.075C265.16 179.904 264.983 179.688 264.858 179.443C264.601 178.902 264.553 178.285 264.723 177.711C264.887 177.117 265.276 176.609 265.807 176.296Z" fill="#060606"/>
<path d="M257.42 220.442L243.87 212.552L245.797 209.255L253.912 213.982L247.558 206.228L249.064 203.563L259.077 205.265L250.901 200.597L252.828 197.3L266.379 205.189L264.105 209.089L252.527 207.418L259.694 216.647L257.42 220.442Z" fill="#060606"/>
<path d="M237.998 244.02L231.719 237.079C231.24 236.457 230.538 236.047 229.762 235.935C229.387 235.912 229.013 235.971 228.664 236.109C228.315 236.247 228.001 236.46 227.744 236.733C227.447 236.963 227.202 237.255 227.026 237.587C226.849 237.919 226.745 238.285 226.72 238.66C226.743 239.453 227.079 240.205 227.654 240.753L233.932 247.709L231.102 250.268L224.838 243.327C223.968 242.435 223.372 241.312 223.122 240.09C222.911 239.01 223.015 237.891 223.423 236.868C223.865 235.793 224.551 234.834 225.425 234.068C226.283 233.277 227.314 232.699 228.437 232.381C229.472 232.066 230.578 232.066 231.614 232.381C232.784 232.795 233.823 233.512 234.625 234.459L240.888 241.4L237.998 244.02Z" fill="#060606"/>
<path d="M200.883 251.157C201.805 251.072 202.733 251.244 203.563 251.654C204.407 252.089 205.092 252.779 205.521 253.626L201.862 255.448C201.614 255.005 201.204 254.676 200.718 254.53C200.243 254.42 199.744 254.489 199.318 254.725C198.882 254.921 198.522 255.254 198.294 255.674C198.201 255.858 198.153 256.062 198.153 256.269C198.153 256.475 198.201 256.679 198.294 256.863C198.365 257.025 198.47 257.17 198.603 257.287C198.736 257.404 198.892 257.49 199.062 257.541C199.431 257.657 199.819 257.703 200.206 257.676C200.612 257.676 201.185 257.571 201.907 257.451C202.772 257.291 203.648 257.195 204.527 257.164C205.258 257.167 205.979 257.337 206.635 257.661C207.379 258.07 207.971 258.71 208.321 259.483C208.64 260.058 208.817 260.701 208.838 261.358C208.859 262.015 208.723 262.668 208.442 263.262C207.771 264.593 206.666 265.655 205.31 266.274C204.007 267.005 202.493 267.27 201.019 267.026C200.376 266.889 199.772 266.609 199.251 266.208C198.73 265.807 198.305 265.294 198.008 264.708L201.696 262.856C201.803 263.056 201.951 263.232 202.13 263.372C202.309 263.512 202.515 263.613 202.735 263.669C203.201 263.773 203.688 263.703 204.105 263.473C204.471 263.304 204.764 263.01 204.934 262.645C204.999 262.459 205.025 262.26 205.01 262.063C204.994 261.866 204.937 261.675 204.843 261.501C204.733 261.282 204.566 261.098 204.359 260.968C204.152 260.838 203.913 260.767 203.669 260.763C202.861 260.749 202.054 260.814 201.26 260.959C200.388 261.094 199.507 261.169 198.625 261.185C197.904 261.186 197.193 261.022 196.547 260.703C195.815 260.323 195.231 259.708 194.891 258.956C194.5 258.195 194.333 257.339 194.409 256.487C194.502 255.594 194.841 254.744 195.388 254.033C196.044 253.209 196.878 252.545 197.827 252.09C198.775 251.583 199.813 251.266 200.883 251.157Z" fill="#060606"/>
<path d="M175.589 276.858L171.749 261.681L175.453 260.748L179.277 275.88L175.589 276.858Z" fill="#060606"/>
<path d="M152.477 276.768C151.85 277.968 150.894 278.966 149.721 279.644C148.487 280.348 147.092 280.721 145.671 280.728C143.96 280.803 142.271 280.311 140.868 279.327C139.526 278.359 138.563 276.953 138.143 275.352H142.344C142.625 275.985 143.099 276.512 143.699 276.858C144.291 277.205 144.971 277.373 145.656 277.34C146.192 277.352 146.725 277.245 147.214 277.027C147.704 276.808 148.138 276.483 148.487 276.075C149.242 275.15 149.614 273.969 149.526 272.778C149.568 271.584 149.16 270.417 148.381 269.511C148.017 269.117 147.571 268.807 147.074 268.604C146.577 268.402 146.042 268.31 145.506 268.336C144.821 268.341 144.151 268.528 143.563 268.878C142.984 269.235 142.527 269.76 142.254 270.384H138.068C138.428 268.771 139.345 267.338 140.657 266.334C142.033 265.33 143.698 264.802 145.4 264.828C146.824 264.789 148.234 265.116 149.496 265.777C150.686 266.42 151.672 267.385 152.341 268.562C153.046 269.817 153.415 271.233 153.41 272.672C153.449 274.094 153.128 275.503 152.477 276.768Z" fill="#060606"/>
<path d="M117.546 267.297C117.694 267.515 117.796 267.761 117.845 268.02C117.894 268.279 117.89 268.546 117.832 268.803C117.778 269.079 117.666 269.34 117.502 269.569C117.338 269.797 117.127 269.988 116.883 270.128C116.624 270.279 116.338 270.376 116.04 270.415C115.743 270.454 115.441 270.433 115.152 270.354C114.544 270.249 114.003 269.908 113.646 269.405C113.489 269.174 113.382 268.913 113.333 268.638C113.284 268.363 113.293 268.08 113.36 267.809C113.414 267.537 113.527 267.28 113.691 267.057C113.855 266.833 114.065 266.648 114.309 266.514C114.826 266.223 115.437 266.147 116.01 266.304C116.319 266.358 116.615 266.474 116.879 266.645C117.142 266.815 117.369 267.037 117.546 267.297Z" fill="#060606"/>
<path d="M83.7592 258.836C84.5004 258.326 85.3741 258.043 86.2735 258.023C87.3885 258.003 88.4909 258.262 89.4806 258.775L91.6186 259.784L94.0276 254.71L97.4756 256.336L90.7603 270.489L85.1744 267.839C84.1699 267.406 83.2825 266.74 82.5848 265.897C82.0183 265.202 81.6769 264.352 81.6061 263.458C81.541 262.548 81.723 261.638 82.133 260.823C82.4945 260.031 83.0548 259.347 83.7592 258.836ZM86.7705 261.41C86.523 261.502 86.2974 261.645 86.1081 261.829C85.9188 262.013 85.77 262.234 85.6712 262.479C85.5475 262.708 85.4718 262.959 85.4485 263.218C85.4252 263.477 85.4548 263.738 85.5358 263.985C85.79 264.516 86.2367 264.931 86.7854 265.144L88.6674 266.033L90.3389 262.479L88.4717 261.591C88.21 261.446 87.9219 261.356 87.6244 261.325C87.3269 261.294 87.0263 261.323 86.7404 261.41H86.7705Z" fill="#060606"/>
<path d="M64.3212 234.534L62.951 241.159L63.6436 241.746L67.4831 237.229L70.389 239.714L60.2108 251.623L55.3475 247.468C54.5023 246.78 53.8231 245.91 53.3601 244.923C52.9912 244.103 52.8759 243.19 53.0289 242.304C53.1983 241.443 53.5932 240.643 54.1732 239.985C54.8187 239.23 55.6896 238.702 56.6575 238.479C57.7026 238.246 58.7956 238.373 59.7591 238.841L61.0388 231.779L64.3212 234.534ZM61.8369 243.794L60.0302 242.288C59.6299 241.889 59.0897 241.663 58.5245 241.656C58.2615 241.689 58.0074 241.774 57.7774 241.906C57.5474 242.037 57.3459 242.214 57.1845 242.424C57.0048 242.611 56.8665 242.833 56.7783 243.077C56.6901 243.321 56.6539 243.581 56.6724 243.839C56.7145 244.118 56.8123 244.386 56.9597 244.626C57.1071 244.867 57.3013 245.075 57.5308 245.24L59.3224 246.745L61.8369 243.794Z" fill="#060606"/>
<path d="M44.3112 214.058C44.4181 215.445 44.1421 216.836 43.5131 218.078C42.8643 219.376 41.8758 220.474 40.6525 221.255C39.4517 222.068 38.0508 222.537 36.6023 222.61C35.2175 222.688 33.8377 222.386 32.6123 221.736C31.3822 221.067 30.3452 220.092 29.601 218.906C28.8213 217.727 28.3549 216.37 28.2458 214.961C28.1406 213.583 28.4167 212.203 29.0439 210.971C29.6949 209.678 30.69 208.589 31.9197 207.824C33.1148 207.006 34.5094 206.528 35.9549 206.439C37.3386 206.352 38.7191 206.649 39.9447 207.297C41.1778 207.956 42.2162 208.927 42.956 210.113C43.7412 211.289 44.2081 212.648 44.3112 214.058ZM37.34 210.203C36.1472 210.044 34.9389 210.351 33.9674 211.061C32.9209 211.675 32.1502 212.666 31.8144 213.832C31.6777 214.373 31.6608 214.938 31.7648 215.487C31.8688 216.035 32.0911 216.555 32.4165 217.009C32.7033 217.497 33.093 217.917 33.5584 218.239C34.0238 218.562 34.5538 218.779 35.1117 218.876C36.3132 219.027 37.5269 218.709 38.4994 217.987C39.547 217.383 40.319 216.395 40.6525 215.232C40.7907 214.685 40.807 214.114 40.7003 213.56C40.5937 213.006 40.3666 212.482 40.0352 212.025C39.7499 211.54 39.3599 211.124 38.8936 210.809C38.4273 210.494 37.8965 210.287 37.34 210.203Z" fill="#060606"/>
<path d="M13.2799 179.082C13.5447 177.756 14.1819 176.534 15.1167 175.558C16.1358 174.564 17.3971 173.853 18.7755 173.496C20.1348 173.063 21.5847 173.001 22.9761 173.315C24.2986 173.628 25.5017 174.319 26.4392 175.302C27.4607 176.398 28.1999 177.726 28.5923 179.172L30.2335 184.803L15.177 189.2L13.5208 183.568C13.0703 182.116 12.9874 180.574 13.2799 179.082ZM23.4128 177.38C22.8667 177.104 22.2703 176.941 21.6594 176.902C21.0486 176.864 20.4362 176.949 19.8595 177.154C19.2595 177.29 18.6937 177.547 18.1966 177.91C17.6995 178.272 17.2815 178.733 16.9686 179.262C16.6925 179.811 16.5316 180.411 16.4953 181.025C16.4591 181.638 16.5485 182.253 16.758 182.831L17.2548 184.562L26.0025 182.018L25.4906 180.286C25.3552 179.688 25.1016 179.123 24.7448 178.624C24.388 178.125 23.9352 177.702 23.4128 177.38Z" fill="#060606"/>
<path d="M7.5432 147.267L16.9085 147.117C17.695 147.162 18.4679 146.897 19.0614 146.379C19.3209 146.112 19.5199 145.792 19.6446 145.442C19.7693 145.091 19.8168 144.717 19.7841 144.346C19.8034 143.969 19.7438 143.592 19.609 143.24C19.4741 142.887 19.2673 142.567 19.0013 142.299C18.3871 141.802 17.6057 141.559 16.818 141.621L7.45296 141.772V137.962L16.7879 137.812C18.0313 137.749 19.2674 138.036 20.3563 138.64C21.3092 139.199 22.0825 140.02 22.5848 141.004C23.0997 142.043 23.3675 143.187 23.3676 144.346C23.4151 145.492 23.188 146.633 22.7052 147.674C22.2398 148.655 21.4894 149.474 20.552 150.023C19.476 150.638 18.2532 150.951 17.0138 150.926L7.66377 151.077L7.5432 147.267Z" fill="#060606"/>
<path d="M14.6801 112.743C13.7249 111.783 13.0618 110.572 12.7679 109.25C12.4536 107.863 12.5159 106.418 12.9486 105.064C13.3821 103.408 14.3574 101.945 15.7189 100.908C17.0424 99.9131 18.6724 99.4124 20.3263 99.493L19.1217 103.513C18.4487 103.617 17.8207 103.915 17.315 104.371C16.8174 104.837 16.4578 105.431 16.276 106.088C16.1029 106.597 16.0455 107.138 16.108 107.672C16.1706 108.206 16.3513 108.719 16.6374 109.174C17.2971 110.169 18.3079 110.879 19.468 111.162C20.5964 111.558 21.8329 111.515 22.9311 111.041C23.4191 110.815 23.8505 110.482 24.1943 110.068C24.538 109.654 24.7854 109.169 24.9184 108.647C25.0983 107.987 25.0983 107.29 24.9184 106.63C24.7446 105.975 24.3774 105.387 23.8645 104.943L25.0539 100.923C26.4808 101.749 27.5731 103.049 28.1405 104.597C28.6845 106.219 28.6845 107.974 28.1405 109.596C27.7592 110.968 27.0215 112.215 26.0024 113.209C25.0409 114.156 23.8292 114.809 22.5094 115.092C21.0996 115.388 19.6372 115.315 18.2636 114.881C16.9073 114.483 15.6742 113.747 14.6801 112.743Z" fill="#060606"/>
<path d="M31.2571 65.3901L33.8319 67.0313L31.6186 70.5394L42.2786 77.2697L40.246 80.4918L29.5859 73.7615L27.3726 77.2697L24.783 75.6436L31.2571 65.3901Z" fill="#060606"/>
<path d="M47.8946 47.1116L59.0666 58.0877L56.4015 60.7979L45.2145 49.8368L47.8946 47.1116Z" fill="#060606"/>
<path d="M76.2911 42.8054C74.9046 42.883 73.5237 42.5755 72.3011 41.9171C71.0084 41.2197 69.9348 40.1773 69.1996 38.9058C68.4115 37.6875 67.974 36.2759 67.9349 34.8255C67.8953 33.4382 68.2279 32.0657 68.8983 30.8506C69.5893 29.6117 70.5908 28.574 71.8043 27.8393C73.001 27.0885 74.3686 26.6533 75.7792 26.5746C77.1602 26.5052 78.5341 26.8122 79.7541 27.4629C81.0117 28.1759 82.0524 29.2166 82.7654 30.4742C83.5574 31.6915 84.0001 33.1029 84.0452 34.5545C84.0988 35.9365 83.7706 37.3066 83.0966 38.5143C82.4214 39.7549 81.429 40.7941 80.2208 41.5256C79.0448 42.2874 77.6901 42.7285 76.2911 42.8054ZM80.3263 35.9397C80.5079 34.745 80.222 33.5263 79.5283 32.5369C78.9484 31.4797 77.9829 30.6868 76.8331 30.3236C76.292 30.1767 75.7256 30.1476 75.1723 30.2386C74.619 30.3295 74.0917 30.5382 73.6261 30.8506C73.1346 31.1277 72.7092 31.5081 72.379 31.9656C72.0489 32.4231 71.8221 32.9468 71.7141 33.5005C71.5301 34.7001 71.8158 35.9243 72.5119 36.9183C73.0941 37.9796 74.0659 38.7732 75.2221 39.1316C75.7667 39.2777 76.3361 39.3049 76.8921 39.2114C77.4481 39.1179 77.9775 38.9058 78.4442 38.5896C78.9314 38.3108 79.352 37.9294 79.677 37.4718C80.0019 37.0142 80.2235 36.4914 80.3263 35.9397Z" fill="#060606"/>
<path d="M119.91 25.4455L116.221 26.4091L107.593 18.6852L110.048 28.0352L106.359 28.9989L102.369 13.8972L106.058 12.9336L114.7 20.6877L112.231 11.3075L115.92 10.3289L119.91 25.4455Z" fill="#060606"/>
</g>
<defs>
<linearGradient id="paint0_linear_91_3218" x1="144" y1="285.742" x2="144" y2="2.25849" gradientUnits="userSpaceOnUse">
<stop stop-color="#00FF36"/>
<stop offset="0.05" stop-color="#0CFC33"/>
<stop offset="0.13" stop-color="#2CF52D"/>
<stop offset="0.23" stop-color="#60E922"/>
<stop offset="0.37" stop-color="#A8D812"/>
<stop offset="0.51" stop-color="#FFC400"/>
<stop offset="0.79" stop-color="#FFE91B"/>
<stop offset="1" stop-color="#FFFF2B"/>
</linearGradient>
<linearGradient id="paint1_linear_91_3218" x1="110.62" y1="196.125" x2="110.62" y2="92.6725" gradientUnits="userSpaceOnUse">
<stop stop-color="#00FF36"/>
<stop offset="0.05" stop-color="#0CFC33"/>
<stop offset="0.13" stop-color="#2CF52D"/>
<stop offset="0.23" stop-color="#60E922"/>
<stop offset="0.37" stop-color="#A8D812"/>
<stop offset="0.51" stop-color="#FFC400"/>
<stop offset="0.79" stop-color="#FFE91B"/>
<stop offset="1" stop-color="#FFFF2B"/>
</linearGradient>
<linearGradient id="paint2_linear_91_3218" x1="180.708" y1="156.075" x2="180.708" y2="122.514" gradientUnits="userSpaceOnUse">
<stop stop-color="#00FF36"/>
<stop offset="0.05" stop-color="#0CFC33"/>
<stop offset="0.13" stop-color="#2CF52D"/>
<stop offset="0.23" stop-color="#60E922"/>
<stop offset="0.37" stop-color="#A8D812"/>
<stop offset="0.51" stop-color="#FFC400"/>
<stop offset="0.79" stop-color="#FFE91B"/>
<stop offset="1" stop-color="#FFFF2B"/>
</linearGradient>
<linearGradient id="paint3_linear_91_3218" x1="143.97" y1="186.128" x2="143.97" y2="152.371" gradientUnits="userSpaceOnUse">
<stop stop-color="#00FF36"/>
<stop offset="0.05" stop-color="#0CFC33"/>
<stop offset="0.13" stop-color="#2CF52D"/>
<stop offset="0.23" stop-color="#60E922"/>
<stop offset="0.37" stop-color="#A8D812"/>
<stop offset="0.51" stop-color="#FFC400"/>
<stop offset="0.79" stop-color="#FFE91B"/>
<stop offset="1" stop-color="#FFFF2B"/>
</linearGradient>
<linearGradient id="paint4_linear_91_3218" x1="162.339" y1="125.992" x2="162.339" y2="92.6724" gradientUnits="userSpaceOnUse">
<stop stop-color="#00FF36"/>
<stop offset="0.05" stop-color="#0CFC33"/>
<stop offset="0.13" stop-color="#2CF52D"/>
<stop offset="0.23" stop-color="#60E922"/>
<stop offset="0.37" stop-color="#A8D812"/>
<stop offset="0.51" stop-color="#FFC400"/>
<stop offset="0.79" stop-color="#FFE91B"/>
<stop offset="1" stop-color="#FFFF2B"/>
</linearGradient>
<linearGradient id="paint5_linear_91_3218" x1="138.986" y1="129.41" x2="138.986" y2="96.0903" gradientUnits="userSpaceOnUse">
<stop stop-color="#00FF36"/>
<stop offset="0.05" stop-color="#0CFC33"/>
<stop offset="0.13" stop-color="#2CF52D"/>
<stop offset="0.23" stop-color="#60E922"/>
<stop offset="0.37" stop-color="#A8D812"/>
<stop offset="0.51" stop-color="#FFC400"/>
<stop offset="0.79" stop-color="#FFE91B"/>
<stop offset="1" stop-color="#FFFF2B"/>
</linearGradient>
<linearGradient id="paint6_linear_91_3218" x1="160.863" y1="191.006" x2="160.863" y2="155.639" gradientUnits="userSpaceOnUse">
<stop stop-color="#00FF36"/>
<stop offset="0.05" stop-color="#0CFC33"/>
<stop offset="0.13" stop-color="#2CF52D"/>
<stop offset="0.23" stop-color="#60E922"/>
<stop offset="0.37" stop-color="#A8D812"/>
<stop offset="0.51" stop-color="#FFC400"/>
<stop offset="0.79" stop-color="#FFE91B"/>
<stop offset="1" stop-color="#FFFF2B"/>
</linearGradient>
<linearGradient id="paint7_linear_91_3218" x1="168.662" y1="195.96" x2="168.662" y2="160.532" gradientUnits="userSpaceOnUse">
<stop stop-color="#00FF36"/>
<stop offset="0.05" stop-color="#0CFC33"/>
<stop offset="0.13" stop-color="#2CF52D"/>
<stop offset="0.23" stop-color="#60E922"/>
<stop offset="0.37" stop-color="#A8D812"/>
<stop offset="0.51" stop-color="#FFC400"/>
<stop offset="0.79" stop-color="#FFE91B"/>
<stop offset="1" stop-color="#FFFF2B"/>
</linearGradient>
<linearGradient id="paint8_linear_91_3218" x1="154.916" y1="153.32" x2="154.916" y2="114.791" gradientUnits="userSpaceOnUse">
<stop stop-color="#00FF36"/>
<stop offset="0.05" stop-color="#0CFC33"/>
<stop offset="0.13" stop-color="#2CF52D"/>
<stop offset="0.23" stop-color="#60E922"/>
<stop offset="0.37" stop-color="#A8D812"/>
<stop offset="0.51" stop-color="#FFC400"/>
<stop offset="0.79" stop-color="#FFE91B"/>
<stop offset="1" stop-color="#FFFF2B"/>
</linearGradient>
<linearGradient id="paint9_linear_91_3218" x1="149.089" y1="150.038" x2="149.089" y2="128.477" gradientUnits="userSpaceOnUse">
<stop stop-color="#00FF36"/>
<stop offset="0.05" stop-color="#0CFC33"/>
<stop offset="0.13" stop-color="#2CF52D"/>
<stop offset="0.23" stop-color="#60E922"/>
<stop offset="0.37" stop-color="#A8D812"/>
<stop offset="0.51" stop-color="#FFC400"/>
<stop offset="0.79" stop-color="#FFE91B"/>
<stop offset="1" stop-color="#FFFF2B"/>
</linearGradient>
<linearGradient id="paint10_linear_91_3218" x1="178.253" y1="119.985" x2="178.253" y2="101.586" gradientUnits="userSpaceOnUse">
<stop stop-color="#00FF36"/>
<stop offset="0.05" stop-color="#0CFC33"/>
<stop offset="0.13" stop-color="#2CF52D"/>
<stop offset="0.23" stop-color="#60E922"/>
<stop offset="0.37" stop-color="#A8D812"/>
<stop offset="0.51" stop-color="#FFC400"/>
<stop offset="0.79" stop-color="#FFE91B"/>
<stop offset="1" stop-color="#FFFF2B"/>
</linearGradient>
<linearGradient id="paint11_linear_91_3218" x1="173.752" y1="120.06" x2="173.752" y2="111.674" gradientUnits="userSpaceOnUse">
<stop stop-color="#00FF36"/>
<stop offset="0.05" stop-color="#0CFC33"/>
<stop offset="0.13" stop-color="#2CF52D"/>
<stop offset="0.23" stop-color="#60E922"/>
<stop offset="0.37" stop-color="#A8D812"/>
<stop offset="0.51" stop-color="#FFC400"/>
<stop offset="0.79" stop-color="#FFE91B"/>
<stop offset="1" stop-color="#FFFF2B"/>
</linearGradient>
<clipPath id="clip0_91_3218">
<rect width="288" height="288" fill="white"/>
</clipPath>
</defs>
</svg>
