<svg width="707" height="339" viewBox="0 0 707 339" fill="none" xmlns="http://www.w3.org/2000/svg">
<line x1="600.5" y1="6.55671e-08" x2="600.5" y2="337" stroke="#00FF63" stroke-width="3"/>
<path d="M633 199.108L633 197.67L631.562 197.67L631.562 199.108L633 199.108ZM633 200.148L631.562 200.148L631.562 201.585L633 201.585L633 200.148ZM639.34 200.148L640.778 200.148L640.778 198.71L639.34 198.71L639.34 200.148ZM639.34 208.068L637.902 208.068L637.902 209.505L639.34 209.505L639.34 208.068ZM640.3 208.068L640.3 209.505L641.738 209.505L641.738 208.068L640.3 208.068ZM640.3 200.148L640.3 198.71L638.862 198.71L638.862 200.148L640.3 200.148ZM646.04 200.148L647.477 200.148L647.477 198.71L646.04 198.71L646.04 200.148ZM646.04 208.968L644.603 208.968L644.603 210.405L646.04 210.405L646.04 208.968ZM647 208.968L647 210.405L648.438 210.405L648.438 208.968L647 208.968ZM647 199.108L648.438 199.108L648.438 197.67L647 197.67L647 199.108ZM631.562 199.108L631.562 200.148L634.437 200.148L634.437 199.108L631.562 199.108ZM633 201.585L639.34 201.585L639.34 198.71L633 198.71L633 201.585ZM637.903 200.148L637.902 208.068L640.777 208.068L640.778 200.148L637.903 200.148ZM639.34 209.505L640.3 209.505L640.3 206.63L639.34 206.63L639.34 209.505ZM641.738 208.068L641.738 200.148L638.862 200.148L638.862 208.068L641.738 208.068ZM640.3 201.585L646.04 201.585L646.04 198.71L640.3 198.71L640.3 201.585ZM644.603 200.148L644.603 208.968L647.477 208.968L647.477 200.148L644.603 200.148ZM646.04 210.405L647 210.405L647 207.53L646.04 207.53L646.04 210.405ZM648.438 208.968L648.438 199.108L645.562 199.108L645.562 208.968L648.438 208.968ZM647 197.67L633 197.67L633 200.545L647 200.545L647 197.67ZM633 217.173L633 215.735L631.562 215.735L631.562 217.173L633 217.173ZM633 218.213L631.562 218.213L631.562 219.65L633 219.65L633 218.213ZM647 218.213L647 219.65L648.437 219.65L648.438 218.213L647 218.213ZM647 217.173L648.438 217.173L648.438 215.735L647 215.735L647 217.173ZM631.562 217.173L631.562 218.213L634.437 218.213L634.437 217.173L631.562 217.173ZM633 219.65L647 219.65L647 216.775L633 216.775L633 219.65ZM648.438 218.213L648.438 217.173L645.562 217.173L645.562 218.213L648.438 218.213ZM647 215.735L633 215.735L633 218.61L647 218.61L647 215.735ZM633 227.321L633 225.884L631.562 225.884L631.562 227.321L633 227.321ZM633 236.581L631.562 236.581L631.562 238.019L633 238.019L633 236.581ZM633.96 236.581L633.96 238.019L635.397 238.019L635.397 236.581L633.96 236.581ZM633.96 228.361L633.96 226.924L632.522 226.924L632.522 228.361L633.96 228.361ZM647 228.361L647 229.799L648.437 229.799L648.437 228.361L647 228.361ZM647 227.321L648.437 227.321L648.437 225.884L647 225.884L647 227.321ZM631.562 227.321L631.562 236.581L634.437 236.581L634.437 227.321L631.562 227.321ZM633 238.019L633.96 238.019L633.96 235.144L633 235.144L633 238.019ZM635.397 236.581L635.397 228.361L632.522 228.361L632.522 236.581L635.397 236.581ZM633.96 229.799L647 229.799L647 226.924L633.96 226.924L633.96 229.799ZM648.437 228.361L648.437 227.321L645.562 227.321L645.562 228.361L648.437 228.361ZM647 225.884L633 225.884L633 228.759L647 228.759L647 225.884ZM633 244.504L633 243.066L631.562 243.066L631.562 244.504L633 244.504ZM633 245.504L631.562 245.504L631.562 246.941L633 246.941L633 245.504ZM645.16 245.504L645.974 246.688L649.789 244.066L645.16 244.066L645.16 245.504ZM637.1 251.044L636.286 249.859L635.662 250.288L635.662 251.044L637.1 251.044ZM637.1 251.124L635.662 251.124L635.662 251.88L636.286 252.308L637.1 251.124ZM645.16 256.664L645.16 258.101L649.789 258.101L645.974 255.479L645.16 256.664ZM633 256.664L633 255.226L631.562 255.226L631.562 256.664L633 256.664ZM633 257.704L631.562 257.704L631.562 259.141L633 259.141L633 257.704ZM647 257.704L647 259.141L648.437 259.141L648.437 257.704L647 257.704ZM647 256.724L648.437 256.724L648.437 255.962L647.807 255.534L647 256.724ZM638.72 251.104L637.913 249.914L636.16 251.104L637.913 252.293L638.72 251.104ZM647 245.484L647.807 246.673L648.437 246.245L648.437 245.484L647 245.484ZM647 244.504L648.437 244.504L648.437 243.066L647 243.066L647 244.504ZM631.562 244.504L631.562 245.504L634.437 245.504L634.437 244.504L631.562 244.504ZM633 246.941L645.16 246.941L645.16 244.066L633 244.066L633 246.941ZM644.346 244.319L636.286 249.859L637.914 252.228L645.974 246.688L644.346 244.319ZM635.662 251.044L635.662 251.124L638.537 251.124L638.537 251.044L635.662 251.044ZM636.286 252.308L644.346 257.848L645.974 255.479L637.914 249.939L636.286 252.308ZM645.16 255.226L633 255.226L633 258.101L645.16 258.101L645.16 255.226ZM631.562 256.664L631.562 257.704L634.437 257.704L634.437 256.664L631.562 256.664ZM633 259.141L647 259.141L647 256.266L633 256.266L633 259.141ZM648.437 257.704L648.437 256.724L645.562 256.724L645.562 257.704L648.437 257.704ZM647.807 255.534L639.527 249.914L637.913 252.293L646.193 257.913L647.807 255.534ZM639.527 252.293L647.807 246.673L646.193 244.294L637.913 249.914L639.527 252.293ZM648.437 245.484L648.437 244.504L645.562 244.504L645.562 245.484L648.437 245.484ZM647 243.066L633 243.066L633 245.941L647 245.941L647 243.066ZM631.322 283.863C631.322 288.998 635.491 292.361 640 292.361L640 289.486C636.869 289.486 634.197 287.208 634.197 283.863L631.322 283.863ZM640 292.361L640.04 292.361L640.04 289.486L640 289.486L640 292.361ZM640.04 292.361C644.548 292.361 648.677 289.039 648.677 283.903L645.802 283.903C645.802 287.248 643.172 289.486 640.04 289.486L640.04 292.361ZM648.677 283.903C648.677 278.768 644.509 275.406 640 275.406L640 278.281C643.131 278.281 645.802 280.558 645.802 283.903L648.677 283.903ZM640 275.406L639.96 275.406L639.96 278.281L640 278.281L640 275.406ZM639.96 275.406C635.452 275.406 631.322 278.728 631.322 283.863L634.197 283.863C634.197 280.519 636.828 278.281 639.96 278.281L639.96 275.406ZM635.137 283.903C635.137 281.334 637.234 279.361 640 279.361L640 276.486C635.846 276.486 632.262 279.553 632.262 283.903L635.137 283.903ZM640 279.361L640.04 279.361L640.04 276.486L640 276.486L640 279.361ZM640.04 279.361C642.807 279.361 644.862 281.294 644.862 283.863L647.737 283.863C647.737 279.512 644.193 276.486 640.04 276.486L640.04 279.361ZM644.862 283.863C644.862 286.433 642.766 288.406 640 288.406L640 291.281C644.154 291.281 647.737 288.214 647.737 283.863L644.862 283.863ZM640 288.406L639.96 288.406L639.96 291.281L640 291.281L640 288.406ZM639.96 288.406C637.193 288.406 635.137 286.472 635.137 283.903L632.262 283.903C632.262 288.254 635.807 291.281 639.96 291.281L639.96 288.406ZM633 298.135L633 296.698L631.562 296.698L631.562 298.135L633 298.135ZM633 307.695L631.562 307.695L631.562 309.133L633 309.133L633 307.695ZM634 307.695L634 309.133L635.437 309.133L635.437 307.695L634 307.695ZM634 299.775L635.065 298.81L632.562 296.049L632.562 299.775L634 299.775ZM637.88 304.055L636.815 305.021L636.817 305.023L637.88 304.055ZM644.2 298.415L644.988 297.213L643.795 296.431L643.004 297.618L644.2 298.415ZM643.68 299.195L642.484 298.398L641.699 299.575L642.863 300.378L643.68 299.195ZM638.5 303.355L637.434 304.32L637.438 304.325L638.5 303.355ZM633.78 298.135L634.846 297.171L634.418 296.698L633.78 296.698L633.78 298.135ZM631.562 298.135L631.562 307.695L634.437 307.695L634.437 298.135L631.562 298.135ZM633 309.133L634 309.133L634 306.258L633 306.258L633 309.133ZM635.437 307.695L635.437 299.775L632.562 299.775L632.562 307.695L635.437 307.695ZM632.935 300.741L636.815 305.021L638.945 303.09L635.065 298.81L632.935 300.741ZM636.817 305.023C639.029 307.452 640.699 308.993 643.32 308.993L643.32 306.118C642.101 306.118 641.211 305.578 638.943 303.088L636.817 305.023ZM643.32 308.993L643.36 308.993L643.36 306.118L643.32 306.118L643.32 308.993ZM643.36 308.993C646.436 308.993 648.637 306.463 648.637 303.395L645.762 303.395C645.762 305.088 644.644 306.118 643.36 306.118L643.36 308.993ZM648.637 303.395C648.637 301.924 648.29 300.7 647.598 299.649C646.924 298.628 645.988 297.869 644.988 297.213L643.412 299.617C644.272 300.181 644.836 300.683 645.197 301.232C645.54 301.751 645.762 302.407 645.762 303.395L648.637 303.395ZM643.004 297.618L642.484 298.398L644.876 299.993L645.396 299.213L643.004 297.618ZM642.863 300.378C643.633 300.91 644.118 301.368 644.415 301.812C644.691 302.225 644.842 302.68 644.842 303.295L647.717 303.295C647.717 302.131 647.409 301.116 646.805 300.213C646.222 299.342 645.407 298.641 644.497 298.012L642.863 300.378ZM644.842 303.295C644.842 304.326 644.169 305.018 643.28 305.018L643.28 307.893C646.031 307.893 647.717 305.624 647.717 303.295L644.842 303.295ZM643.28 305.018C642.48 305.018 641.66 304.684 639.562 302.386L637.438 304.325C639.54 306.626 641.12 307.893 643.28 307.893L643.28 305.018ZM639.566 302.391L634.846 297.171L632.714 299.1L637.434 304.32L639.566 302.391ZM633.78 296.698L633 296.698L633 299.573L633.78 299.573L633.78 296.698Z" fill="#00FF63"/>
<rect x="1.5" y="1.5" width="678" height="336" stroke="#00FF63" stroke-width="3"/>
<path d="M687.513 107.525C683.73 111.311 681.13 116.213 679.498 122.341C677.866 116.201 675.261 111.297 671.474 107.513C667.688 103.729 662.785 101.129 656.655 99.4964C662.782 97.8644 667.685 95.2597 671.471 91.4742C675.257 87.6887 677.864 82.7862 679.496 76.6565C681.131 82.795 683.738 87.699 687.525 91.4834C691.311 95.266 696.213 97.866 702.341 99.4963C696.201 101.131 691.297 103.738 687.513 107.525Z" fill="#2C2F31" stroke="#00FF63" stroke-width="2"/>
<path d="M679.392 104.192C682.043 104.192 684.192 102.043 684.192 99.3918C684.192 96.7408 682.043 94.5918 679.392 94.5918C676.741 94.5918 674.592 96.7408 674.592 99.3918C674.592 102.043 676.741 104.192 679.392 104.192Z" fill="#00FF63"/>
<path d="M626.309 22.5H652.691C655.347 22.5 657.5 24.6532 657.5 27.3092V53.6908C657.5 56.3468 655.347 58.5 652.691 58.5H626.309C623.653 58.5 621.5 56.3468 621.5 53.6908V27.3092C621.5 24.6532 623.653 22.5 626.309 22.5Z" stroke="#00FF63"/>
<path d="M628.321 28.5474H630.105V32.7588H634.94V28.5474H636.72V38.6767H634.94V34.4057H630.105V38.6767H628.321V28.5474Z" fill="#00FF63"/>
<path d="M640.615 33.6397V33.6122C640.608 32.9141 640.742 32.2217 641.009 31.5765C641.276 30.9313 641.67 30.3467 642.168 29.8575C642.666 29.3683 643.258 28.9848 643.908 28.7297C644.558 28.4746 645.253 28.3534 645.951 28.3732C646.643 28.3546 647.333 28.4761 647.977 28.7306C648.622 28.985 649.208 29.3671 649.701 29.8538C650.194 30.3405 650.584 30.9219 650.847 31.5631C651.11 32.2042 651.24 32.8918 651.231 33.5847V33.6122C651.238 34.3083 651.105 34.9988 650.839 35.6424C650.574 36.286 650.182 36.8696 649.686 37.3584C649.19 37.8473 648.601 38.2314 647.954 38.4878C647.307 38.7443 646.614 38.8679 645.918 38.8512C645.224 38.873 644.532 38.7537 643.885 38.5007C643.238 38.2477 642.649 37.8661 642.153 37.3791C641.657 36.892 641.265 36.3095 641.001 35.6668C640.737 35.0241 640.606 34.3346 640.615 33.6397ZM649.332 33.6397V33.6122C649.349 33.1474 649.274 32.6837 649.109 32.2487C648.944 31.8137 648.694 31.4163 648.372 31.08C648.051 30.7436 647.665 30.4753 647.238 30.2909C646.811 30.1065 646.352 30.0097 645.886 30.0064C643.877 30.0064 642.473 31.612 642.473 33.5847V33.6122C642.455 34.077 642.531 34.5407 642.696 34.9757C642.861 35.4107 643.111 35.8081 643.433 36.1444C643.754 36.4807 644.14 36.7491 644.567 36.9335C644.994 37.1179 645.453 37.2147 645.918 37.218C646.381 37.2179 646.839 37.124 647.264 36.9421C647.69 36.7602 648.074 36.4941 648.394 36.1597C648.714 35.8254 648.962 35.4297 649.125 34.9966C649.288 34.5635 649.361 34.1019 649.341 33.6397H649.332Z" fill="#00FF63"/>
<path d="M628.321 42.6357H630.105V51.1503H635.431V52.7697H628.321V42.6357Z" fill="#00FF63"/>
<path d="M645.217 42.5581H646.868L651.327 52.7655H649.442L648.414 50.3203H643.625L642.583 52.7655H640.748L645.217 42.5581ZM647.786 48.7422L646.038 44.6867L644.299 48.7422H647.786Z" fill="#00FF63"/>
</svg>
