<svg width="401" height="102" viewBox="0 0 401 102" fill="none" xmlns="http://www.w3.org/2000/svg">
<path d="M355.2 20.3101H12.18V67.5301H355.2V20.3101Z" fill="#00FF63"/>
<path d="M354.76 20.79V67.05H12.66V20.79H354.76ZM355.76 19.79H11.76V67.97H355.76V19.83V19.79Z" fill="black"/>
<path d="M370.76 19.6099H354.84V67.0399H370.76V19.6099Z" fill="black"/>
<path d="M370.17 20.21V66.47H355.43V20.21H370.17ZM371.35 19.03H354.26V67.64H371.35V19.03Z" fill="#00FF63"/>
<path d="M350.66 43.7199L364.23 30.1499L377.8 43.7199L384.25 37.2799L370.68 23.6999L384.25 10.1299L377.8 3.67993L364.23 17.2599L350.66 3.67993L344.21 10.1299L357.79 23.6999L344.21 37.2699L350.66 43.7199Z" fill="#00FF63" stroke="black" stroke-width="1.1" stroke-miterlimit="10"/>
<path d="M347.97 41.03L361.54 27.46L375.12 41.03L381.56 34.59L367.99 21.02L381.56 7.44L375.12 1L361.54 14.57L347.97 1L341.53 7.44L355.1 21.02L341.53 34.59L347.97 41.03Z" fill="#00FF63" stroke="black" stroke-width="1.1" stroke-miterlimit="10"/>
<path d="M12.66 67.23H1V78.89H12.66V67.23Z" fill="black" stroke="black" stroke-width="0.59" stroke-miterlimit="10"/>
<path d="M24.32 55.5698H12.66V67.2298H24.32V55.5698Z" fill="black" stroke="black" stroke-width="0.59" stroke-miterlimit="10"/>
<path d="M12.66 43.9199H1V55.5799H12.66V43.9199Z" fill="black" stroke="black" stroke-width="0.59" stroke-miterlimit="10"/>
<path d="M24.32 32.26H12.66V43.92H24.32V32.26Z" fill="black" stroke="black" stroke-width="0.59" stroke-miterlimit="10"/>
<path d="M12.66 20.6099H1V32.2699H12.66V20.6099Z" fill="black" stroke="black" stroke-width="0.59" stroke-miterlimit="10"/>
<path d="M24.32 8.94995H12.66V20.61H24.32V8.94995Z" fill="black" stroke="black" stroke-width="0.59" stroke-miterlimit="10"/>
<path d="M399.7 66.3701H11.98V101.37H399.7V66.3701Z" fill="black"/>
<path d="M398.72 67.35V100H12.36V67.35H398.72ZM400.08 66H11V101.36H400.08V66Z" fill="#00FF63"/>
<path d="M37.02 57.46H41.6V55.86H39.22V39.5H41.6V37.94H37.02V57.46ZM48.1986 50.48V52.72H46.3386V50.48H48.1986ZM50.2386 48.58H44.2786V55.48H46.3386V54.64H50.2386V48.58ZM44.2786 47.62H50.1986V45.82H44.2786V47.62ZM44.2786 43.14V44.94H50.1586V43.14H44.2786ZM48.5986 39.64C48.3186 38.88 47.7386 37.8 47.2386 36.96L45.4986 37.84C45.9386 38.58 46.4186 39.6 46.6986 40.34H43.4586V42.24H50.8186V40.34H47.3586L48.5986 39.64ZM55.5586 46.5V49.08H53.6986V46.5H55.5586ZM57.5786 51.08V44.5H51.7186V52.26H53.6986V51.08H57.5786ZM58.1586 41.3H51.2186V43.3H58.1586V41.3ZM61.1986 37.94H50.8186V40.12H59.0386V52.96C59.0386 53.3 58.9186 53.42 58.5786 53.42C58.2386 53.42 57.0786 53.44 56.0386 53.38C56.3386 54 56.6586 55.08 56.7386 55.74C58.3786 55.74 59.4986 55.68 60.2386 55.3C60.9786 54.9 61.1986 54.26 61.1986 53V37.94ZM76.0386 52.24V48.92H78.5586V52.24H76.0386ZM66.5586 48.92H68.9586V52.24H66.5586V48.92ZM68.9586 43.32V46.66H66.5586V43.32H68.9586ZM73.6986 48.92V52.24H71.2986V48.92H73.6986ZM73.6986 43.32V46.66H71.2986V43.32H73.6986ZM78.5586 43.32V46.66H76.0386V43.32H78.5586ZM76.0386 41V37.26H73.6986V41H71.2986V37.26H68.9586V41H64.2986V55.68H66.5586V54.58H78.5586V55.66H80.8986V41H76.0386ZM88.1786 41.28C88.6186 40.9 89.0586 40.48 89.4786 40.08C90.0786 40.46 90.7386 40.88 91.3786 41.28H88.1786ZM91.5386 44.98V45.76H86.9986V45.64V44.98H91.5386ZM86.9186 47.98C86.9386 47.7 86.9586 47.42 86.9586 47.16H91.5386V47.98H86.9186ZM92.0986 51.86V53.28H88.3986V51.86H92.0986ZM91.5186 42.68V41.38C92.3786 41.94 93.1586 42.46 93.6986 42.9L94.9186 40.9C93.9986 40.24 92.3386 39.26 90.8586 38.4C90.9786 38.24 91.0986 38.08 91.2186 37.9L89.0386 37.04C87.7586 38.96 85.4186 40.6 83.0986 41.58C83.4986 42.1 84.1186 43.3 84.3386 43.86L84.7986 43.62V45.64C84.7986 47.98 84.6386 51.56 83.0586 54.1C83.6386 54.28 84.6786 54.72 85.1386 55.02C85.7186 54 86.1386 52.78 86.4186 51.52V55.66H88.3986V55.04H92.0986V55.58H94.1786V50.24H86.6586C86.6986 50.04 86.7186 49.82 86.7586 49.62H93.6986V43.34H85.2586C85.9986 42.92 86.6986 42.42 87.3986 41.9V42.68H91.5186ZM97.5386 39.12H95.2986V50.28H97.5386V39.12ZM98.9186 37.12V52.86C98.9186 53.2 98.7786 53.3 98.4586 53.3C98.1386 53.3 97.0986 53.3 96.0786 53.28C96.3986 53.94 96.6786 55 96.7786 55.66C98.3786 55.66 99.5186 55.58 100.219 55.18C100.959 54.8 101.199 54.16 101.199 52.88V37.12H98.9186ZM107.599 37.14C106.599 39.98 104.859 42.82 103.039 44.62C103.459 45.22 104.139 46.58 104.359 47.16C104.759 46.72 105.179 46.22 105.599 45.72V55.72H107.999V42.02C108.739 40.68 109.399 39.26 109.919 37.86L107.599 37.14ZM121.939 42.58V40.32H114.179C114.559 39.5 114.879 38.68 115.159 37.84L112.859 37.26C111.959 40.12 110.379 43 108.619 44.8C109.119 45.18 110.059 46.02 110.439 46.46C111.339 45.42 112.259 44.06 113.059 42.58H113.819V55.74H116.259V51.3H121.699V49.1H116.259V46.84H121.439V44.68H116.259V42.58H121.939ZM132.099 36.4V56.4H133.019V36.4H132.099ZM156.759 48.56V49.88H148.459V48.56H156.759ZM148.459 53.12V51.68H156.759V53.12H148.459ZM146.079 55.78H148.459V55.08H156.759V55.76H159.259V46.58H146.079V55.78ZM155.599 40.78C155.379 41.56 155.019 42.5 154.699 43.24H150.579C150.439 42.52 150.039 41.54 149.559 40.78H155.599ZM157.299 43.24C157.619 42.62 157.959 41.92 158.299 41.18L156.459 40.78H160.599V38.68H154.159C153.959 38.08 153.659 37.4 153.319 36.84L150.839 37.24C151.059 37.66 151.299 38.18 151.459 38.68H144.719V40.78H149.119L147.179 41.16C147.499 41.78 147.799 42.56 147.979 43.24H143.599V45.36H161.539V43.24H157.299ZM169.659 46.94C169.539 45.96 169.259 44.52 168.939 43.38L167.439 43.72C167.539 44.12 167.639 44.56 167.719 45.02L166.139 45.18C167.399 43.78 168.659 42.12 169.599 40.48L167.919 39.56C167.659 40.14 167.319 40.72 166.999 41.28L165.959 41.36C166.659 40.34 167.339 39.1 167.839 37.94L165.999 37.3C165.559 38.82 164.679 40.38 164.399 40.8C164.119 41.22 163.859 41.52 163.559 41.58C163.779 42.06 164.079 42.92 164.179 43.3C164.399 43.18 164.759 43.08 165.939 42.92C165.439 43.62 164.999 44.16 164.799 44.4C164.299 44.98 163.919 45.36 163.499 45.46C163.719 45.92 164.019 46.84 164.119 47.18C164.459 47.02 165.019 46.88 167.979 46.48C168.019 46.78 168.059 47.06 168.079 47.3L169.659 46.94ZM168.759 50.6C167.539 51.76 165.219 52.76 162.999 53.2C163.499 53.66 164.199 54.58 164.559 55.16C166.939 54.5 169.279 53.04 170.679 51.32L168.759 50.6ZM181.559 50V48.04H173.819V47.08H171.439V48.04H163.519V50H171.439V55.68H173.819V50H181.559ZM174.839 51.84C176.619 52.82 178.979 54.32 180.079 55.3L181.599 53.6C180.399 52.64 177.979 51.24 176.239 50.36L174.839 51.84ZM173.299 41.88H171.799V40.54H173.299V41.88ZM173.299 44.9H171.799V43.5H173.299V44.9ZM173.239 38.8L173.879 37.28L171.719 36.92C171.679 37.46 171.539 38.16 171.379 38.8H169.779V46.64H175.399V38.8H173.239ZM179.439 43.98C179.539 44.36 179.639 44.78 179.739 45.22L178.179 45.36C179.479 43.98 180.759 42.28 181.759 40.64L180.039 39.66C179.779 40.2 179.479 40.74 179.199 41.24L177.859 41.36C178.559 40.32 179.279 39.06 179.759 37.82L177.839 37.28C177.399 38.82 176.499 40.42 176.219 40.84C175.959 41.26 175.679 41.56 175.399 41.64C175.619 42.12 175.919 43 176.019 43.4C176.259 43.26 176.659 43.16 178.039 42.96C177.519 43.7 177.059 44.26 176.839 44.5C176.339 45.06 175.959 45.44 175.539 45.54C175.759 46.02 176.059 46.96 176.159 47.34C176.499 47.16 177.079 47.04 180.059 46.72C180.099 47 180.139 47.26 180.159 47.5L181.759 47.08C181.599 46.14 181.259 44.7 180.919 43.6L179.439 43.98ZM183.739 44.92C184.039 44.78 184.499 44.66 186.079 44.48C185.499 45.34 184.999 46 184.719 46.3C184.139 47.06 183.699 47.52 183.219 47.64C183.439 48.18 183.779 49.18 183.879 49.56C184.319 49.36 184.979 49.18 188.939 48.54C188.979 48.74 189.019 48.92 189.039 49.08L190.679 48.4C190.519 47.42 189.959 45.84 189.379 44.66L187.819 45.24C188.059 45.74 188.279 46.32 188.479 46.9L186.259 47.2C187.779 45.38 189.259 43.14 190.379 40.98L188.639 39.86C188.219 40.8 187.719 41.74 187.219 42.62L185.819 42.72C186.779 41.3 187.699 39.56 188.399 37.9L186.479 37.12C185.779 39.22 184.559 41.44 184.159 41.98C183.779 42.58 183.459 42.96 183.079 43.06C183.319 43.58 183.639 44.56 183.739 44.96V44.92ZM183.799 50.2C183.679 51.8 183.439 53.58 182.999 54.76C183.479 54.86 184.319 55.12 184.699 55.34C185.099 54.14 185.419 52.24 185.559 50.48L183.799 50.2ZM185.939 50.46C186.139 51.76 186.339 53.46 186.359 54.62L188.059 54.18C187.999 53.04 187.779 51.36 187.539 50.06L185.939 50.46ZM198.599 49.98V48.46H199.479V49.98H198.599ZM196.499 49.98V48.46H197.319V49.98H196.499ZM194.359 49.98V48.46H195.219V49.98H194.359ZM198.719 42.5V43.82H193.039C193.039 43.44 193.039 43.08 193.039 42.74V42.5H198.719ZM201.279 46.56H192.939L192.979 45.62H200.819V40.68H193.039V39.98C195.759 39.72 198.659 39.32 200.879 38.66L199.159 37.08C197.219 37.7 193.899 38.16 190.939 38.4V42.76C190.939 45.2 190.879 48.68 190.259 51.76C190.059 51 189.819 50.18 189.539 49.48L188.019 49.98C188.359 51.02 188.759 52.42 188.919 53.3L189.999 52.9C189.879 53.48 189.719 54.02 189.519 54.54C190.019 54.72 190.999 55.26 191.399 55.62C192.019 53.96 192.419 51.9 192.659 49.84V55.74H194.359V51.82H195.219V55.48H196.499V51.82H197.319V55.38H198.599V51.82H199.479V53.86C199.479 54.02 199.439 54.06 199.319 54.06C199.199 54.06 198.959 54.06 198.679 54.04C198.899 54.5 199.079 55.14 199.119 55.62C199.819 55.62 200.339 55.6 200.739 55.32C201.179 55.04 201.279 54.64 201.279 53.88V46.56ZM216.039 52.24V48.92H218.559V52.24H216.039ZM206.559 48.92H208.959V52.24H206.559V48.92ZM208.959 43.32V46.66H206.559V43.32H208.959ZM213.699 48.92V52.24H211.299V48.92H213.699ZM213.699 43.32V46.66H211.299V43.32H213.699ZM218.559 43.32V46.66H216.039V43.32H218.559ZM216.039 41V37.26H213.699V41H211.299V37.26H208.959V41H204.299V55.68H206.559V54.58H218.559V55.66H220.899V41H216.039ZM232.099 36.4V56.4H233.019V36.4H232.099ZM258.179 41.58L256.779 42.4C257.079 42.76 257.399 43.18 257.739 43.6L252.559 43.88C253.179 43.16 253.799 42.4 254.399 41.58H258.179ZM261.939 45.54C261.219 44.5 259.819 42.84 258.779 41.58H261.539V39.46H255.859C256.199 38.92 256.519 38.4 256.799 37.86L254.479 36.96C254.079 37.82 253.599 38.66 253.139 39.46H249.139V41.58H251.759C251.299 42.22 250.919 42.7 250.679 42.94C250.079 43.64 249.659 44.06 249.159 44.2C249.419 44.78 249.779 45.92 249.899 46.38C250.639 46.1 251.719 46 259.139 45.48C259.479 45.96 259.779 46.42 259.999 46.76L261.939 45.54ZM249.019 39.46C248.239 38.7 246.599 37.82 245.379 37.28L244.039 39.02C245.319 39.62 246.899 40.62 247.619 41.36L249.019 39.46ZM248.259 44.72C247.439 44.04 245.739 43.2 244.479 42.72L243.239 44.54C244.519 45.08 246.159 46.02 246.939 46.7L248.259 44.72ZM247.379 47.6C246.179 49.92 244.659 52.4 243.599 53.9L245.619 55.5C246.799 53.56 248.059 51.28 249.119 49.2L247.379 47.6ZM250.679 48.54C250.679 50.28 250.419 52.46 248.179 54.1C248.719 54.42 249.519 55.18 249.859 55.66C252.499 53.64 252.819 50.84 252.819 48.62V46.68H250.679V48.54ZM254.039 54.86H256.119V46.86H254.039V54.86ZM259.899 53.46C259.639 53.46 259.619 53.24 259.619 52.6V46.68H257.439V52.58C257.439 54.48 257.799 55.28 259.679 55.28H260.679C261.079 55.28 261.499 55.26 261.799 55.14C261.719 54.64 261.659 53.9 261.619 53.34C261.359 53.42 260.939 53.46 260.659 53.46H259.899ZM281.219 38.2H271.499V40.46H281.219V38.2ZM267.659 37.06C266.699 38.46 264.799 40.26 263.139 41.32C263.559 41.78 264.159 42.74 264.459 43.26C266.359 41.94 268.519 39.88 269.959 38L267.659 37.06ZM268.419 41.38C267.139 43.64 264.959 45.96 262.919 47.36C263.399 47.86 264.199 48.94 264.539 49.42C265.079 48.98 265.619 48.48 266.179 47.94V55.76H268.559V45.32C269.359 44.32 270.099 43.28 270.699 42.26L268.419 41.38ZM281.719 43.7H270.659V45.96H276.559V52.92C276.559 53.22 276.419 53.3 276.059 53.3C275.699 53.32 274.379 53.32 273.239 53.26C273.559 53.94 273.859 54.98 273.959 55.68C275.739 55.68 277.019 55.64 277.859 55.28C278.739 54.92 278.979 54.26 278.979 52.98V45.96H281.719V43.7ZM287.599 50.24V51.56H285.979V50.24H287.599ZM289.439 53.2V48.62H284.059V53.9H285.979V53.2H289.439ZM292.459 44.66C293.019 44.96 293.839 45.44 294.239 45.76H292.459V44.66ZM298.159 42.98H296.039V44.5C296.039 46.94 295.699 50.8 292.579 53.68V53.6V47.8H294.439V45.76H294.279C294.919 44.78 295.459 43.48 295.919 42.04H299.579C299.399 43.3 299.159 44.58 298.959 45.46L300.819 46C301.259 44.56 301.759 42.28 302.079 40.3L300.479 39.86L300.159 39.96H296.499C296.699 39.12 296.859 38.28 296.999 37.42L294.739 37.04C294.359 39.8 293.599 42.56 292.459 44.34V39.8H293.619V37.8H283.419V39.8H290.359V45.76H283.199V47.8H290.479V53.56C290.479 53.78 290.399 53.84 290.139 53.86C289.899 53.86 289.039 53.86 288.299 53.82C288.539 54.3 288.839 54.98 288.939 55.5C290.199 55.5 291.099 55.48 291.739 55.22C292.179 55.04 292.399 54.8 292.499 54.4C292.939 54.8 293.399 55.38 293.619 55.8C295.519 54.18 296.659 52.26 297.299 50.36C298.119 52.5 299.239 54.16 300.939 55.7C301.219 55.06 301.859 54.36 302.439 53.94C300.079 52.02 298.919 49.74 298.119 45.98C298.139 45.46 298.159 45 298.159 44.54V42.98ZM287.359 43.44H285.839V42.12H287.359V43.44ZM284.159 40.58V44.96H289.159V40.58H284.159ZM318.039 40.76H313.299V39.56H318.039V40.76ZM318.039 43.66H313.299V42.44H318.039V43.66ZM320.459 37.74H311.019V45.46H320.459V37.74ZM307.499 40.98V48.34H306.079V40.98H307.499ZM309.679 38.8H303.939V52.3H306.079V50.52H309.679V38.8ZM312.799 53.02V51.7H318.659V53.02H312.799ZM318.659 48.54V49.76H312.799V48.54H318.659ZM310.439 46.54V55.74H312.799V55.02H318.659V55.64H321.119V46.54H310.439ZM328.05 57.46H332.63V37.94H328.05V39.5H330.43V55.86H328.05V57.46Z" fill="#202020"/>
<path d="M47 81.912C46.616 81.48 45.864 80.808 45.192 80.28C45.48 79.512 45.72 78.68 45.896 77.8L44.856 77.64C44.392 80.072 43.432 82.136 41.928 83.432C42.168 83.592 42.568 83.976 42.728 84.168C43.576 83.368 44.28 82.344 44.84 81.144C45.464 81.672 46.12 82.312 46.488 82.744L47 81.912ZM41 77.64C40.296 78.776 38.856 80.152 37.592 81.016C37.768 81.176 38.056 81.56 38.2 81.768C39.56 80.824 41.048 79.352 41.96 78.008L41 77.64ZM41.4 80.84C40.44 82.536 38.888 84.216 37.4 85.336C37.576 85.56 37.912 86.04 38.024 86.264C38.648 85.752 39.304 85.128 39.928 84.456V92.264H40.92V83.288C41.448 82.6 41.944 81.896 42.344 81.176L41.4 80.84ZM47.88 87.512H51.512V86.584H47.88V83.832H47.208C48.008 83.16 48.648 82.296 49.144 81.272C50.104 82.152 51.112 83.224 51.64 83.944L52.392 83.208C51.8 82.44 50.584 81.24 49.528 80.376C49.816 79.592 50.024 78.728 50.168 77.784L49.144 77.656C48.792 80.136 47.896 82.056 46.264 83.24C46.472 83.384 46.84 83.64 47.032 83.832H46.904V90.68C45.832 90.216 45.032 89.256 44.536 87.448C44.664 86.728 44.76 85.944 44.808 85.08L43.784 85C43.64 87.96 43.048 90.136 41.4 91.48C41.64 91.64 42.072 91.992 42.232 92.152C43.144 91.32 43.752 90.28 44.168 89C45.192 91.448 46.856 92.04 49.272 92.04H51.976C52.008 91.784 52.168 91.304 52.328 91.08C51.832 91.08 49.672 91.096 49.336 91.08C48.824 91.08 48.328 91.048 47.88 90.968V87.512ZM61.624 79.624C61.4 79.048 60.904 78.216 60.472 77.576L59.704 78.008C60.104 78.648 60.6 79.544 60.824 80.12L61.624 79.624ZM62.136 87.528V90.328H59.56V87.528H62.136ZM63.08 86.632H58.632V91.992H59.56V91.224H63.08V86.632ZM58.648 85.368H63.064V84.504H58.648V85.368ZM58.648 82.44V83.288H63.048V82.44H58.648ZM58.008 81.24H63.624V80.36H58.008V81.24ZM68.248 84.296V87.496H65.608V84.296H68.248ZM69.192 88.424V83.368H64.68V89.512H65.608V88.424H69.192ZM69.976 80.984H64.072V81.912H69.976V80.984ZM71.88 78.456H63.688V79.448H70.904V90.792C70.904 91.064 70.808 91.144 70.536 91.16C70.264 91.16 69.336 91.176 68.328 91.144C68.488 91.432 68.648 91.912 68.696 92.216C69.96 92.216 70.808 92.2 71.272 92.008C71.72 91.832 71.88 91.496 71.88 90.808V78.456ZM87.704 90.136V86.472H90.696V90.136H87.704ZM79.976 86.472H82.808V90.136H79.976V86.472ZM82.808 81.864V85.448H79.976V81.864H82.808ZM86.664 86.472V90.136H83.848V86.472H86.664ZM86.664 81.864V85.448H83.848V81.864H86.664ZM90.696 81.864V85.448H87.704V81.864H90.696ZM87.704 80.824V77.8H86.664V80.824H83.848V77.8H82.808V80.824H78.968V92.232H79.976V91.176H90.696V92.152H91.736V80.824H87.704ZM104.968 83.352V84.44H100.52V83.352H104.968ZM100.456 86.344C100.488 85.944 100.504 85.544 100.52 85.176H104.968V86.344H100.456ZM105.96 87.16V82.536H99.528V84.76C99.528 86.552 99.352 89.128 98.104 91.048C98.344 91.144 98.792 91.368 99 91.528C99.816 90.264 100.2 88.664 100.376 87.16H105.96ZM101.192 80.968V81.688H104.568V80.968H101.192ZM105.368 88.76V90.552H101.336V88.76H105.368ZM100.424 92.088H101.336V91.4H105.368V92.056H106.328V87.944H100.424V92.088ZM102.552 77.784C101.624 79.4 99.88 80.76 98.12 81.624C98.312 81.848 98.616 82.344 98.728 82.584C100.168 81.784 101.656 80.632 102.744 79.288C104.024 80.088 105.512 81.112 106.296 81.768L106.872 80.904C106.072 80.264 104.552 79.288 103.304 78.536C103.384 78.392 103.464 78.264 103.544 78.136L102.552 77.784ZM108.872 79.432H107.864V88.184H108.872V79.432ZM110.888 77.72V90.76C110.888 91.048 110.776 91.128 110.504 91.128C110.264 91.144 109.384 91.144 108.392 91.128C108.552 91.432 108.696 91.896 108.76 92.184C110.072 92.184 110.84 92.152 111.304 91.976C111.736 91.784 111.928 91.464 111.928 90.744V77.72H110.888ZM122.312 77.688C121.4 80.152 119.896 82.552 118.296 84.104C118.504 84.344 118.808 84.904 118.92 85.144C119.496 84.552 120.088 83.864 120.616 83.096V92.184H121.688V81.448C122.312 80.344 122.872 79.176 123.336 78.008L122.312 77.688ZM132.952 81.336V80.312H126.184C126.504 79.592 126.824 78.856 127.096 78.104L126.072 77.848C125.288 80.184 123.992 82.504 122.536 83.992C122.792 84.168 123.192 84.536 123.368 84.712C124.184 83.8 124.984 82.632 125.672 81.336H126.856V92.2H127.928V88.264H132.808V87.256H127.928V84.728H132.6V83.736H127.928V81.336H132.952ZM143.608 86.92H146.856V85.96H143.608V84.184H142.584V85.96H139.432V86.92H142.584V89.704C141.16 89.96 139.864 90.184 138.872 90.36L139.096 91.352C141.192 90.968 144.232 90.376 147.064 89.816L147 88.888C145.88 89.112 144.728 89.304 143.608 89.512V86.92ZM139 79.656H141.64C141.112 80.84 140.408 81.896 140.152 82.232C139.88 82.6 139.64 82.888 139.384 82.936C139.528 83.208 139.688 83.72 139.752 83.944C140.104 83.784 140.68 83.72 145.752 83.208C146.008 83.592 146.216 83.944 146.36 84.232L147.16 83.704C146.696 82.808 145.624 81.352 144.728 80.28L143.96 80.744C144.36 81.24 144.792 81.816 145.208 82.392L140.888 82.776C141.576 81.88 142.248 80.776 142.824 79.656H147.16V78.712H139V79.656ZM149.096 79H148.104V88.616H149.096V79ZM151.256 77.912V90.456C151.256 90.712 151.192 90.776 150.92 90.792C150.648 90.808 149.768 90.808 148.808 90.776C148.984 91.08 149.16 91.56 149.224 91.848C150.36 91.848 151.192 91.816 151.672 91.64C152.12 91.464 152.296 91.144 152.296 90.44V77.912H151.256ZM173.048 84.488C172.408 83.608 171.16 82.12 170.2 81.048L169.384 81.512C169.784 81.96 170.2 82.488 170.632 82.984L164.92 83.336C165.624 82.552 166.344 81.672 167 80.712H172.968V79.736H167.688C168.04 79.208 168.392 78.648 168.712 78.104L167.672 77.688C167.304 78.376 166.888 79.08 166.456 79.736H162.984V80.712H165.8C165.192 81.56 164.664 82.232 164.408 82.504C163.944 83.064 163.56 83.448 163.256 83.512C163.352 83.8 163.528 84.312 163.592 84.536C164.04 84.344 164.744 84.296 171.304 83.864C171.64 84.312 171.96 84.728 172.184 85.064L173.048 84.488ZM162.712 79.832C162.168 79.208 160.984 78.376 160.04 77.832L159.4 78.568C160.376 79.144 161.528 80.024 162.056 80.648L162.712 79.832ZM162.152 83.848C161.528 83.304 160.248 82.6 159.256 82.168L158.68 82.952C159.704 83.416 160.936 84.184 161.56 84.728L162.152 83.848ZM162.12 86.12C161.208 87.928 159.96 90.04 159.096 91.272L159.992 91.992C160.92 90.52 162.056 88.504 162.888 86.824L162.12 86.12ZM164.44 86.792C164.44 88.28 164.248 90.072 162.392 91.448C162.632 91.592 163 91.928 163.16 92.152C165.176 90.616 165.416 88.568 165.416 86.824V85.128H164.44V86.792ZM167.288 91.512H168.232V85.208H167.288V91.512ZM171.416 91.032C171.192 91.032 171.16 90.904 171.16 90.456V85.112H170.168V90.44C170.168 91.464 170.36 91.848 171.336 91.848H172.424C172.712 91.848 173 91.848 173.16 91.8C173.128 91.56 173.128 91.208 173.096 90.968C172.92 91.016 172.6 91.032 172.408 91.032H171.416ZM192.872 78.616H185.048V79.608H192.872V78.616ZM182.44 77.624C181.64 78.776 180.088 80.216 178.76 81.096C178.952 81.304 179.24 81.72 179.384 81.944C180.808 80.936 182.424 79.416 183.464 78.024L182.44 77.624ZM183.096 81.032C181.992 82.84 180.232 84.696 178.6 85.864C178.808 86.072 179.192 86.536 179.352 86.744C179.976 86.248 180.616 85.656 181.256 85V92.248H182.312V83.832C182.968 83.048 183.592 82.232 184.104 81.4L183.096 81.032ZM193.336 82.984H184.36V84.008H189.816V90.792C189.816 91.064 189.704 91.144 189.416 91.144C189.112 91.176 188.056 91.176 186.872 91.128C187.032 91.432 187.176 91.864 187.224 92.152C188.824 92.152 189.688 92.152 190.216 91.992C190.712 91.816 190.888 91.48 190.888 90.808V84.008H193.336V82.984ZM212.36 81.192C212.168 82.264 211.912 83.448 211.656 84.216L212.504 84.472C212.888 83.448 213.256 81.8 213.512 80.408L212.808 80.184L212.648 80.232H208.92C209.128 79.448 209.304 78.632 209.448 77.8L208.408 77.624C208.056 80.008 207.384 82.312 206.312 83.8C206.584 83.912 207.032 84.184 207.224 84.328C207.784 83.48 208.264 82.408 208.648 81.192H212.36ZM202.872 87.56V89.32H200.776V87.56H202.872ZM203.752 90.12V86.76H199.88V90.84H200.776V90.12H203.752ZM207.336 85.688V84.744H205.8V79.384H207.032V78.456H199.176V79.384H204.84V84.744H199V85.688H204.936V91.096C204.936 91.272 204.888 91.336 204.68 91.336C204.472 91.352 203.8 91.352 203.048 91.336C203.176 91.576 203.304 91.896 203.368 92.152C204.376 92.152 205.016 92.136 205.4 91.992C205.784 91.864 205.896 91.64 205.896 91.112V85.688H207.336ZM202.856 82.856H200.856V81.176H202.856V82.856ZM200.04 80.392V83.64H203.72V80.392H200.04ZM210.472 82.2H209.48V83.256C209.48 85.56 209.24 88.936 206.168 91.528C206.376 91.704 206.728 92.056 206.888 92.296C208.712 90.728 209.624 88.872 210.056 87.096C210.696 89.272 211.624 90.824 213.208 92.248C213.336 91.96 213.64 91.624 213.912 91.432C211.928 89.768 211 87.848 210.44 84.616C210.456 84.152 210.472 83.704 210.472 83.272V82.2ZM231.48 80.776H226.248V79.176H231.48V80.776ZM231.48 83.224H226.248V81.592H231.48V83.224ZM232.552 78.296H225.224V84.088H232.552V78.296ZM222.776 80.152V86.984H220.76V80.152H222.776ZM223.768 79.176H219.784V89.512H220.76V87.976H223.768V79.176ZM225.752 90.632V88.808H232.056V90.632H225.752ZM232.056 86.184V87.896H225.752V86.184H232.056ZM224.712 85.256V92.2H225.752V91.56H232.056V92.12H233.144V85.256H224.712ZM242.392 78.056V79.048H245.368C243.768 80.872 241.32 82.76 239.288 83.736C239.544 83.976 239.816 84.328 239.96 84.6C242.2 83.384 244.936 81.112 246.584 79.064C248.248 81.224 250.84 83.336 253.24 84.472C253.384 84.2 253.736 83.768 253.96 83.544C251.448 82.488 248.664 80.296 247.16 78.056H242.392ZM247.096 87.976H251.704V87.032H247.096V84.472H251.112V83.512H242.136V84.472H246.008V87.032H241.448V87.976H246.008V90.776H239.864V91.752H253.416V90.776H247.096V87.976ZM268.04 79.944C267.832 79.304 267.32 78.328 266.904 77.56L265.88 77.96C266.296 78.728 266.776 79.768 267 80.408L268.04 79.944ZM273.64 81.48V80.44H259.944V81.48H264.328C264.136 85.16 263.72 89.368 259.576 91.416C259.848 91.608 260.184 91.976 260.344 92.248C263.384 90.664 264.584 87.992 265.096 85.144H270.904C270.616 88.888 270.312 90.456 269.848 90.872C269.656 91.032 269.448 91.064 269.096 91.064C268.68 91.064 267.56 91.048 266.424 90.936C266.616 91.224 266.76 91.656 266.792 91.976C267.864 92.04 268.904 92.072 269.448 92.04C270.04 91.992 270.408 91.896 270.744 91.528C271.384 90.904 271.688 89.192 272.024 84.648C272.04 84.488 272.056 84.12 272.056 84.12H265.256C265.368 83.24 265.448 82.36 265.496 81.48H273.64ZM289.896 80.04C289.736 79.368 289.384 78.344 289.08 77.544L288.088 77.816C288.392 78.6 288.712 79.672 288.856 80.344L289.896 80.04ZM293.464 80.568H284.856V81.592H293.464V80.568ZM288.088 89.432C287.928 87.8 287.432 84.904 286.872 82.664L285.912 82.856C286.44 85.096 286.888 88.056 287.032 89.736L288.088 89.432ZM283.608 77.688C282.68 80.152 281.176 82.552 279.592 84.104C279.784 84.344 280.088 84.888 280.2 85.144C280.776 84.52 281.368 83.832 281.896 83.064V92.184H282.952V81.4C283.576 80.312 284.152 79.16 284.6 77.976L283.608 77.688ZM290.76 90.52C291.368 88.36 292.024 85.176 292.44 82.712L291.336 82.504C291.016 84.904 290.36 88.36 289.768 90.52H284.152V91.544H294.136V90.52H290.76ZM304.12 87.16V85.192H305.656V87.16H304.12ZM301.8 85.192H303.336V87.16H301.768C301.784 86.712 301.8 86.296 301.8 85.896V85.192ZM304.344 79.896C304.12 80.488 303.832 81.144 303.56 81.656H301.64C301.944 81.112 302.232 80.52 302.488 79.896H304.344ZM304.12 82.504H305.656V84.376H304.12V82.504ZM301.8 82.504H303.336V84.376H301.8V82.504ZM306.568 81.656H304.52C304.904 80.968 305.304 80.136 305.56 79.4L304.92 78.984L304.776 79.032H302.808C302.936 78.648 303.064 78.248 303.176 77.848L302.2 77.624C301.704 79.592 300.808 81.48 299.672 82.712C299.896 82.856 300.328 83.192 300.472 83.352C300.616 83.176 300.76 83 300.904 82.808V85.88C300.904 87.688 300.792 90.056 299.704 91.736C299.912 91.832 300.328 92.072 300.472 92.232C301.224 91.064 301.56 89.496 301.704 88.008H305.656V91C305.656 91.224 305.576 91.272 305.352 91.272C305.128 91.288 304.392 91.288 303.544 91.272C303.672 91.512 303.848 91.928 303.88 92.184C305.016 92.184 305.656 92.168 306.04 92.008C306.44 91.848 306.568 91.544 306.568 91V81.656ZM312.968 79.352C312.872 81.304 312.728 82.072 312.536 82.296C312.44 82.424 312.296 82.456 312.088 82.44C311.848 82.44 311.24 82.44 310.584 82.376C310.712 82.616 310.808 82.984 310.824 83.272C311.496 83.304 312.168 83.32 312.504 83.288C312.904 83.256 313.128 83.16 313.352 82.904C313.688 82.536 313.816 81.528 313.944 78.856C313.96 78.728 313.976 78.44 313.976 78.44H307.08V79.352H309.32C309.016 80.904 308.344 82.248 306.6 82.984C306.792 83.16 307.08 83.496 307.208 83.72C309.176 82.808 309.96 81.256 310.312 79.352H312.968ZM314.408 88.136H311.304V86.072H314.136V85.144H311.304V83.48H310.28V85.144H308.776C308.92 84.712 309.032 84.264 309.128 83.816L308.216 83.64C307.928 85 307.448 86.328 306.728 87.256C306.968 87.352 307.4 87.56 307.56 87.688C307.88 87.24 308.184 86.696 308.44 86.072H310.28V88.136H306.856V89.064H310.28V92.12H311.304V89.064H314.408V88.136ZM325.96 85.912C325.64 85.448 324.28 83.592 323.736 82.936V82.088H326.088V81.08H323.736V77.624H322.712V81.08H320.264V82.088H322.584C322.04 84.328 320.92 86.872 319.848 88.248C320.024 88.488 320.296 88.904 320.408 89.192C321.272 88.088 322.104 86.248 322.712 84.376V92.184H323.736V84.296C324.296 85.144 324.984 86.2 325.256 86.76L325.96 85.912ZM334.456 83.096H327.976V80.136C329.912 79.784 332.056 79.256 333.528 78.648L332.616 77.816C331.32 78.408 329 79.016 326.968 79.384V84.328C326.968 86.552 326.808 89.512 325.368 91.624C325.624 91.72 326.056 92.008 326.248 92.184C327.736 89.976 327.976 86.68 327.976 84.328V84.104H331.032V92.216H332.088V84.104H334.456V83.096Z" fill="white"/>
</svg>
