<svg width="297" height="29" viewBox="0 0 297 29" fill="none" xmlns="http://www.w3.org/2000/svg">
<path d="M47.8177 9.58309L23.4902 9.58309L23.4902 11.1475L47.8177 11.1475V9.58309Z" fill="#00FF63"/>
<path d="M206.9 27.4356L53.9577 27.4356V29L206.9 29V27.4356Z" fill="#00FF63"/>
<path d="M213.179 21.224L206.9 21.224V22.7884L213.179 22.7884V21.224Z" fill="#00FF63"/>
<path d="M268.905 3.96967L262.625 3.96967V5.53407L268.905 5.53407V3.96967Z" fill="#00FF63"/>
<path d="M45.2594 21.224L32.7002 21.224L32.7002 25.089L45.2594 25.089L45.2594 21.224Z" fill="#00FF63"/>
<path d="M297 20.6719H283.65V24.859H297V20.6719Z" fill="#00FF63"/>
<path d="M113.544 12.7119H109.636V16.5769H113.544V12.7119Z" fill="#00FF63"/>
<path d="M15.6291 18.0952L0 18.0952L0 21.178L15.6291 21.178V18.0952Z" fill="#00FF63"/>
<path d="M8.23325 0.288696L16.2803 0.288696L22.7924 10.8255L29.3511 0.288696L37.3983 0.288696L37.3983 27.4357L29.8163 27.4357V11.8377L22.7924 22.4663L15.8151 11.9298L15.8151 27.4357L8.37279 27.4357L8.23325 0.288696Z" fill="#00FF63"/>
<path d="M75.2152 0.104751L82.5646 0.104751L94.2399 27.4357H86.0998L84.0996 22.8345L73.4942 22.8345L71.5405 27.4357H63.5398L75.2152 0.104751ZM81.9134 16.7609L78.8434 9.03102L75.7268 16.7609L81.9134 16.7609Z" fill="#00FF63"/>
<path d="M117.916 23.3866L122.149 18.4173C124.659 20.4881 127.812 21.6417 131.08 21.6842C133.08 21.6842 134.197 20.9479 134.197 19.7976C134.197 18.6933 133.313 18.0951 129.545 17.2209C123.684 15.8866 119.172 14.2763 119.172 8.70888C119.172 3.69361 123.219 0.0126156 129.824 0.0126156C133.895 -0.143053 137.887 1.1461 141.081 3.64743L137.267 8.93888C135.033 7.31503 132.361 6.3859 129.592 6.27013C127.777 6.27013 126.847 7.05235 126.847 8.01859C126.847 9.26091 127.824 9.76707 131.499 10.6413C137.825 11.9756 141.732 14.0002 141.732 19.0615C141.732 24.6289 137.313 27.8957 130.661 27.8957C126.001 27.9719 121.471 26.3694 117.916 23.3866Z" fill="#00FF63"/>
<path d="M174.99 6.91438L166.757 6.91438V0.288696L190.899 0.288696V6.91438L182.666 6.91438V27.4357H175.084L174.99 6.91438Z" fill="#00FF63"/>
<path d="M217.645 0.288696L239.693 0.288696V6.68438L225.18 6.68438V10.8255L238.344 10.8255V16.7609L225.18 16.7609V21.04L239.879 21.04V27.4357L217.645 27.4357V0.288696Z" fill="#00FF63"/>
<path d="M267.277 0.288561L280.254 0.288561C281.867 0.163903 283.488 0.360438 285.022 0.866234C286.556 1.37203 287.971 2.17688 289.185 3.23337C290.012 4.06788 290.654 5.06342 291.07 6.15656C291.486 7.2497 291.668 8.41655 291.604 9.583C291.665 11.3849 291.156 13.1607 290.147 14.6621C289.138 16.1636 287.679 17.3156 285.976 17.9572L292.535 27.1595H283.929L278.394 18.9693L275.091 18.9693V27.1595H267.463L267.277 0.288561ZM279.882 13.3099C282.487 13.3099 283.976 12.0676 283.976 10.1351C283.976 8.01858 282.394 6.91425 279.836 6.91425L274.905 6.91425V13.402L279.882 13.3099Z" fill="#00FF63"/>
</svg>
