<svg width="29" height="348" viewBox="0 0 29 348" fill="none" xmlns="http://www.w3.org/2000/svg">
<g clip-path="url(#clip0_67_4510)">
<path d="M19.9316 63.0247L19.9316 45.783L18.3257 45.783L18.3257 63.0247L19.9316 63.0247Z" fill="#00FF63"/>
<path d="M1.60583 253.609L1.60583 93.4656L-2.67029e-05 93.4656L-3.3703e-05 253.609L1.60583 253.609Z" fill="#00FF63"/>
<path d="M7.98206 260.184L7.98206 253.609L6.37619 253.609L6.37619 260.184L7.98206 260.184Z" fill="#00FF63"/>
<path d="M7.98206 321.748L7.98206 315.173L6.37619 315.173L6.37619 321.748L7.98206 321.748Z" fill="#00FF63"/>
<path d="M7.55701 88.1568L7.55701 75.0063L3.58958 75.0063L3.58958 88.1568L7.55701 88.1568Z" fill="#00FF63"/>
<path d="M16.7671 155.857L16.7671 151.766L12.7997 151.766L12.7997 155.857L16.7671 155.857Z" fill="#00FF63"/>
<path d="M11.1938 9.78978L11.1938 0L8.02929 -1.38324e-07L8.02929 9.78978L11.1938 9.78978Z" fill="#00FF63"/>
<path d="M28.5276 5.94214L28.5276 18.2646C28.5276 25.5217 24.8908 30.1975 18.7507 30.1975C12.1856 30.1975 8.73773 24.986 8.73773 17.875L8.73773 13.9299L0.755636 13.9299L0.755636 5.94214L28.5276 5.94214ZM14.6889 17.6802C14.6889 20.5051 16.1059 22.2585 18.2785 22.2585C20.6873 22.2585 21.9152 20.505 21.9152 17.6314L21.9152 13.9299L14.5944 13.9299L14.6889 17.6802Z" fill="#00FF63"/>
<path d="M28.5278 58.2029L28.5278 71.743C28.6585 73.4311 28.4582 75.1291 27.9389 76.7357C27.4195 78.3423 26.5917 79.8246 25.5049 81.0943C24.6541 81.9709 23.6345 82.6536 22.5118 83.0982C21.389 83.5429 20.1881 83.7396 18.987 83.6757C17.1381 83.7331 15.3186 83.1906 13.7848 82.1245C12.2509 81.0584 11.0803 79.5226 10.4381 77.7338L0.708514 84.6011L0.708514 75.3959L9.1631 69.5999L9.1631 66.1419L0.708515 66.1419L0.708515 58.2029L28.5278 58.2029ZM15.1613 71.402C15.1613 74.0808 16.4366 75.6393 18.4675 75.6393C20.6874 75.6393 21.7738 74.032 21.7738 71.3532L21.7738 66.1419L15.114 66.1419L15.1613 71.402Z" fill="#00FF63"/>
<path d="M28.5276 112.363L28.5276 135.498L21.9624 135.498L21.9624 120.156L17.7118 120.156L17.7118 133.94L11.666 133.94L11.666 120.156L7.2263 120.156L7.2263 135.596L0.66108 135.596L0.661081 112.363L28.5276 112.363Z" fill="#00FF63"/>
<path d="M4.81738 162.092L9.91844 166.524C7.79939 169.133 6.63 172.423 6.6122 175.827C6.6122 177.97 7.32078 179.138 8.50156 179.138C9.63511 179.138 10.2963 178.164 11.1465 174.268C12.5162 168.18 14.1692 163.455 19.8842 163.455C25.0796 163.455 28.811 167.693 28.811 174.56C28.9696 178.837 27.647 183.032 25.0798 186.395L19.6481 182.402C21.315 180.063 22.2687 177.265 22.3876 174.365C22.3876 172.417 21.5846 171.492 20.5928 171.492C19.3175 171.492 18.7507 172.466 17.8533 176.362C16.4836 182.937 14.4053 187.077 9.20986 187.077C3.5421 187.077 0.141534 182.207 0.141534 175.437C0.0676781 170.549 1.73084 165.802 4.81738 162.092Z" fill="#00FF63"/>
<path d="M28.5276 215.619L28.5276 238.705L21.9624 238.705L21.9624 223.509L17.7118 223.509L17.7118 237.293L11.666 237.293L11.666 223.509L7.2263 223.509L7.2263 238.997L0.66108 238.997L0.661081 215.619L28.5276 215.619Z" fill="#00FF63"/>
<path d="M28.5276 267.587L28.5276 275.039L13.7915 286.826L28.5276 286.826L28.5276 294.716L0.66108 294.716L0.66108 287.703L15.9643 275.429L0.661081 275.429L0.661081 267.539L28.5276 267.587Z" fill="#00FF63"/>
<path d="M21.7736 331.538L21.7736 322.917L28.5276 322.917L28.5276 348.098L21.7736 348.098L21.7736 339.477L0.661081 339.477L0.661081 331.538L21.7736 331.538Z" fill="#00FF63"/>
</g>
<defs>
<clipPath id="clip0_67_4510">
<rect width="348" height="29" fill="white" transform="translate(29) rotate(90)"/>
</clipPath>
</defs>
</svg>
