<svg width="29" height="215" viewBox="0 0 29 215" fill="none" xmlns="http://www.w3.org/2000/svg">
<g clip-path="url(#clip0_65_4433)">
<path d="M5.12857 4.81714L10.2107 9.07309C8.1223 11.5839 6.95395 14.7364 6.9003 18.0059C6.9003 20.0637 7.59981 21.1394 8.81203 21.1394C9.97763 21.1394 10.5838 20.2508 11.4696 16.4626C12.7751 10.5698 14.4534 6.03316 20.0949 6.03317C25.1769 6.03317 28.8602 10.1021 28.8602 16.7432C29.0108 20.8272 27.7235 24.834 25.2237 28.0611L19.8618 24.2729C21.5161 22.014 22.458 19.31 22.5661 16.5093C22.5661 14.6853 21.7735 13.7499 20.7944 13.7499C19.5355 13.7499 18.976 14.7321 18.1368 18.4268C16.7381 24.7873 14.7331 28.7159 9.55789 28.7159C3.91641 28.7159 0.606197 24.039 0.606197 17.585C0.505819 12.9174 2.11471 8.37478 5.12857 4.81714Z" fill="#00FF63"/>
<path d="M28.5337 56.2158L28.5337 63.839L17.3905 63.839L28.5337 73.1927L28.5337 82.2658L16.738 71.8365L1.07221 82.64L1.07221 73.2863L11.2828 66.3645L8.15912 63.5584L1.07221 63.5584L1.07221 56.2158L28.5337 56.2158Z" fill="#00FF63"/>
<path d="M28.5337 108.737L28.5337 116.454L1.07221 116.454L1.07221 108.737L28.5337 108.737Z" fill="#00FF63"/>
<path d="M28.5337 145.123L28.5337 152.746L7.73966 152.746L7.73966 166.122L1.07221 166.122L1.07221 145.123L28.5337 145.123Z" fill="#00FF63"/>
<path d="M28.5337 193.248L28.5337 200.871L7.73966 200.871L7.73966 214.247L1.07221 214.247L1.07221 193.248L28.5337 193.248Z" fill="#00FF63"/>
<path d="M19.6286 58.4137L19.6286 49.481L18.0434 49.481L18.0434 58.4137L19.6286 58.4137Z" fill="#00FF63"/>
<path d="M1.53857 191.096L1.53857 37.3213L-0.0466356 37.3213L-0.0466423 191.096L1.53857 191.096Z" fill="#00FF63"/>
<path d="M7.83276 197.41L7.83276 191.096L6.24755 191.096L6.24755 197.41L7.83276 197.41Z" fill="#00FF63"/>
<path d="M20.5611 158.265L20.5611 151.951L18.9759 151.951L18.9759 158.265L20.5611 158.265Z" fill="#00FF63"/>
<path d="M17.2042 34.5152L17.2042 21.8877L13.2878 21.8877L13.2878 34.5152L17.2042 34.5152Z" fill="#00FF63"/>
<path d="M16.5048 97.2318L16.5048 93.3032L12.5884 93.3032L12.5884 97.2318L16.5048 97.2318Z" fill="#00FF63"/>
<path d="M6.99359 18.1929L6.99359 0L3.8698 -1.36545e-07L3.8698 18.1929L6.99359 18.1929Z" fill="#00FF63"/>
</g>
<defs>
<clipPath id="clip0_65_4433">
<rect width="214.013" height="29" fill="white" transform="translate(29) rotate(90)"/>
</clipPath>
</defs>
</svg>
