<svg width="342" height="29" viewBox="0 0 342 29" fill="none" xmlns="http://www.w3.org/2000/svg">
<path d="M36.836 9.51099L24.8418 9.51099V11.0628L36.836 11.0628V9.51099Z" fill="#00FF63"/>
<path d="M252.067 27.2202L96.1904 27.2202V28.7721L252.067 28.7721V27.2202Z" fill="#00FF63"/>
<path d="M208.405 21.0583H202.005V22.6102H208.405V21.0583Z" fill="#00FF63"/>
<path d="M301.371 21.0583H294.971V22.6102H301.371V21.0583Z" fill="#00FF63"/>
<path d="M102.591 4.99219L89.7905 4.99219V8.82617L102.591 8.82617V4.99219Z" fill="#00FF63"/>
<path d="M264.867 4.99219L252.067 4.99219V8.82617L264.867 8.82617V4.99219Z" fill="#00FF63"/>
<path d="M124.54 12.6145H120.558V16.4485H124.54V12.6145Z" fill="#00FF63"/>
<path d="M16.0238 17.9548L0 17.9548L0 21.0129L16.0238 21.0129V17.9548Z" fill="#00FF63"/>
<path d="M10.0505 0.427979L17.8255 0.427979L17.8255 20.8304L31.3367 20.8304V27.3572L10.0505 27.3572L10.0505 0.427979Z" fill="#00FF63"/>
<path d="M58.6436 0.427979L81.115 0.427979V6.81806L66.2288 6.81806V10.8803L79.6452 10.8803V16.7681L66.2288 16.7681V21.0128L81.2572 21.0128V27.3572L58.6436 27.3572L58.6436 0.427979Z" fill="#00FF63"/>
<path d="M108.042 13.984C108.002 12.1198 108.358 10.2675 109.088 8.5405C109.818 6.81346 110.906 5.24799 112.287 3.9403C113.667 2.63262 115.31 1.61013 117.116 0.935535C118.921 0.260945 120.851 -0.05143 122.786 0.0173343C125.095 -0.0973231 127.396 0.358274 129.47 1.34087C131.545 2.32347 133.324 3.80033 134.638 5.63129L128.807 10.1955C128.13 9.23209 127.219 8.44179 126.153 7.89308C125.088 7.34438 123.9 7.05377 122.691 7.0462C121.765 7.08072 120.856 7.294 120.017 7.67328C119.178 8.05257 118.427 8.59017 117.808 9.25423C117.189 9.91829 116.715 10.6953 116.413 11.5391C116.112 12.383 115.99 13.2763 116.054 14.1664C115.977 15.0639 116.089 15.9671 116.384 16.8216C116.679 17.6761 117.151 18.4643 117.772 19.1383C118.392 19.8123 119.148 20.3582 119.993 20.7432C120.839 21.1281 121.757 21.3441 122.691 21.378C123.948 21.3689 125.183 21.0648 126.29 20.4922C127.397 19.9195 128.342 19.0954 129.044 18.0916L134.828 22.1082C133.056 24.5763 130.516 26.4383 127.573 27.4255C124.631 28.4126 121.438 28.4738 118.457 27.6001C115.476 26.7264 112.861 24.9631 110.989 22.5648C109.117 20.1665 108.085 17.2576 108.042 14.2578V13.984Z" fill="#00FF63"/>
<path d="M168.961 7.00053L160.57 7.00053V0.427979L185.08 0.427979V7.00053L176.689 7.00053V27.3572L168.961 27.3572V7.00053Z" fill="#00FF63"/>
<path d="M212.055 15.5814V0.427979L219.925 0.427979V15.3989C219.925 19.2785 221.964 21.1499 225.093 21.1499C228.222 21.1499 230.26 19.3697 230.26 15.5814V0.427979L238.13 0.427979V15.3532C238.339 17.0561 238.142 18.7825 237.554 20.4011C236.966 22.0197 236.002 23.4878 234.736 24.6937C233.47 25.8997 231.934 26.8118 230.247 27.3603C228.559 27.9088 226.764 28.0794 224.998 27.8592C223.262 28.0696 221.5 27.8985 219.844 27.3586C218.187 26.8188 216.679 25.9243 215.433 24.7425C214.188 23.5607 213.236 22.1224 212.651 20.5356C212.066 18.9489 211.863 17.2549 212.055 15.5814Z" fill="#00FF63"/>
<path d="M266.669 0.427725L279.896 0.427725C281.567 0.32354 283.243 0.553699 284.818 1.10356C286.392 1.65342 287.832 2.51114 289.045 3.62276C289.882 4.44528 290.532 5.42529 290.956 6.50134C291.381 7.57738 291.569 8.72622 291.511 9.87578C291.573 11.6633 291.053 13.4248 290.025 14.9142C288.996 16.4036 287.51 17.5464 285.774 18.1828L292.411 27.5395H283.499L277.857 19.4152L274.444 19.4152V27.5395H266.716L266.669 0.427725ZM279.516 13.3447C282.171 13.3447 283.688 12.1579 283.688 10.1953C283.688 8.09575 282.076 7.00027 279.469 7.00027L274.396 7.00027V13.436L279.516 13.3447Z" fill="#00FF63"/>
<path d="M319.339 0.427979L341.811 0.427979V6.81806L326.972 6.81806V10.8803L340.389 10.8803V16.7681L326.972 16.7681V21.0128L341.953 21.0128V27.3572L319.292 27.3572L319.339 0.427979Z" fill="#00FF63"/>
</svg>
