<svg width="29" height="342" viewBox="0 0 29 342" fill="none" xmlns="http://www.w3.org/2000/svg">
<path d="M19.4138 36.836L19.4138 24.8418L17.8497 24.8418L17.8497 36.836L19.4138 36.836Z" fill="#00FF63"/>
<path d="M1.56414 252.067L1.56415 96.1904L4.17233e-06 96.1904L-2.64127e-06 252.067L1.56414 252.067Z" fill="#00FF63"/>
<path d="M7.77472 208.405L7.77472 202.005L6.21058 202.005L6.21058 208.405L7.77472 208.405Z" fill="#00FF63"/>
<path d="M7.77472 301.371L7.77472 294.971L6.21058 294.971L6.21058 301.371L7.77472 301.371Z" fill="#00FF63"/>
<path d="M23.9682 102.591L23.9682 89.7905L20.1038 89.7905L20.1038 102.591L23.9682 102.591Z" fill="#00FF63"/>
<path d="M23.9682 264.867L23.9682 252.067L20.1038 252.067L20.1038 264.867L23.9682 264.867Z" fill="#00FF63"/>
<path d="M16.2855 124.54L16.2855 120.558L12.4212 120.558L12.4212 124.54L16.2855 124.54Z" fill="#00FF63"/>
<path d="M10.903 16.0238L10.903 0L7.82073 -1.34731e-07L7.82073 16.0238L10.903 16.0238Z" fill="#00FF63"/>
<path d="M28.5687 10.0505L28.5687 17.8255L8.00464 17.8255L8.00464 31.3367L1.42607 31.3367L1.42607 10.0505L28.5687 10.0505Z" fill="#00FF63"/>
<path d="M28.5687 58.6436L28.5687 81.115L22.128 81.115L22.128 66.2288L18.0335 66.2288L18.0335 79.6452L12.0991 79.6452L12.0991 66.2288L7.82072 66.2288L7.82072 81.2572L1.42607 81.2572L1.42607 58.6436L28.5687 58.6436Z" fill="#00FF63"/>
<path d="M14.9053 108.042C16.7841 108.002 18.6511 108.358 20.3918 109.088C22.1326 109.818 23.7104 110.906 25.0285 112.287C26.3465 113.667 27.3771 115.31 28.0571 117.116C28.737 118.921 29.0518 120.851 28.9825 122.786C29.0981 125.095 28.6389 127.396 27.6485 129.47C26.6581 131.545 25.1696 133.324 23.3241 134.638L18.7237 128.807C19.6948 128.13 20.4913 127.219 21.0444 126.153C21.5974 125.088 21.8904 123.9 21.898 122.691C21.8632 121.765 21.6482 120.856 21.2659 120.017C20.8836 119.178 20.3418 118.427 19.6725 117.808C19.0031 117.189 18.2199 116.715 17.3694 116.413C16.5189 116.112 15.6185 115.99 14.7213 116.054V116.054C13.8168 115.977 12.9064 116.089 12.0452 116.384C11.1839 116.679 10.3895 117.151 9.71012 117.772C9.03078 118.392 8.48051 119.148 8.09251 119.993C7.7045 120.839 7.48677 121.757 7.45259 122.691C7.46184 123.948 7.76831 125.183 8.34549 126.29C8.92268 127.397 9.7533 128.342 10.765 129.044L6.71665 134.828C4.22904 133.056 2.35223 130.516 1.35726 127.573C0.362283 124.631 0.300583 121.438 1.1812 118.457C2.06183 115.476 3.83917 112.861 6.25644 110.989C8.67371 109.117 11.6057 108.085 14.6292 108.042L14.9053 108.042Z" fill="#00FF63"/>
<path d="M21.944 168.961L21.944 160.57L28.5687 160.57L28.5687 185.08L21.944 185.08L21.944 176.689L1.42607 176.689L1.42607 168.961L21.944 168.961Z" fill="#00FF63"/>
<path d="M13.2952 212.055L28.5687 212.055L28.5687 219.925L13.4791 219.925C9.56879 219.925 7.68257 221.964 7.68257 225.093C7.68257 228.222 9.47688 230.26 13.2952 230.26L28.5687 230.26L28.5687 238.13L13.5252 238.13C11.8088 238.339 10.0688 238.142 8.43733 237.554C6.80588 236.966 5.32615 236.002 4.11068 234.736C2.8952 233.47 1.97585 231.934 1.42298 230.247C0.870107 228.559 0.698174 226.764 0.920089 224.998C0.708025 223.262 0.88055 221.5 1.42466 219.844C1.96878 218.187 2.87037 216.679 4.06154 215.433C5.25271 214.188 6.70236 213.236 8.30171 212.651C9.90106 212.066 11.6084 211.863 13.2952 212.055V212.055Z" fill="#00FF63"/>
<path d="M28.5688 266.669L28.5688 279.896C28.6738 281.567 28.4418 283.243 27.8876 284.818C27.3334 286.392 26.4689 287.832 25.3484 289.045C24.5194 289.882 23.5316 290.532 22.4471 290.956C21.3625 291.381 20.2045 291.569 19.0459 291.511C17.2442 291.573 15.4687 291.053 13.9676 290.025C12.4664 288.996 11.3145 287.51 10.6731 285.774L1.24228 292.411L1.24228 283.499L9.43088 277.857L9.43088 274.444L1.24228 274.444L1.24228 266.716L28.5688 266.669ZM15.5495 279.516C15.5495 282.171 16.7456 283.688 18.7238 283.688C20.84 283.688 21.9442 282.076 21.9442 279.469L21.9442 274.396L15.4574 274.396L15.5495 279.516Z" fill="#00FF63"/>
<path d="M28.5686 319.339L28.5686 341.811L22.1279 341.811L22.1279 326.972L18.0335 326.972L18.0335 340.389L12.099 340.389L12.099 326.972L7.82066 326.972L7.82066 341.953L1.42601 341.953L1.42601 319.292L28.5686 319.339Z" fill="#00FF63"/>
</svg>
