<svg width="29" height="297" viewBox="0 0 29 297" fill="none" xmlns="http://www.w3.org/2000/svg">
<path d="M19.4169 47.8177L19.4169 23.4902L17.8525 23.4902L17.8525 47.8177L19.4169 47.8177Z" fill="#00FF63"/>
<path d="M1.56439 206.9L1.56439 53.9577L-2.35857e-06 53.9577L-9.04388e-06 206.9L1.56439 206.9Z" fill="#00FF63"/>
<path d="M7.77596 213.179L7.77596 206.9L6.21156 206.9L6.21156 213.179L7.77596 213.179Z" fill="#00FF63"/>
<path d="M25.0303 268.905L25.0303 262.625L23.4659 262.625L23.4659 268.905L25.0303 268.905Z" fill="#00FF63"/>
<path d="M7.77596 45.2594L7.77597 32.7002L3.91099 32.7002L3.91099 45.2594L7.77596 45.2594Z" fill="#00FF63"/>
<path d="M8.32809 297L8.32809 283.65L4.14103 283.65L4.14103 297L8.32809 297Z" fill="#00FF63"/>
<path d="M16.2881 113.544L16.2881 109.636L12.4231 109.636L12.4231 113.544L16.2881 113.544Z" fill="#00FF63"/>
<path d="M10.9048 15.6291L10.9048 -7.90968e-07L7.82198 -9.25721e-07L7.82198 15.6291L10.9048 15.6291Z" fill="#00FF63"/>
<path d="M28.7113 8.23325L28.7113 16.2803L18.1745 22.7924L28.7113 29.3511L28.7113 37.3983L1.56433 37.3983L1.56433 29.8163L17.1623 29.8163L6.53366 22.7924L17.0702 15.8151L1.56433 15.8151L1.56433 8.37279L28.7113 8.23325Z" fill="#00FF63"/>
<path d="M28.8952 75.2152L28.8952 82.5646L1.56432 94.2399L1.56432 86.0998L6.16549 84.0996L6.16549 73.4942L1.56432 71.5405L1.56432 63.5398L28.8952 75.2152ZM12.2391 81.9134L19.969 78.8434L12.2391 75.7268L12.2391 81.9134Z" fill="#00FF63"/>
<path d="M5.61339 117.916L10.5827 122.149C8.51188 124.659 7.35826 127.812 7.3158 131.08C7.3158 133.08 8.05214 134.197 9.20243 134.197C10.3067 134.197 10.9049 133.313 11.7791 129.545C13.1134 123.684 14.7237 119.172 20.2911 119.172C25.3064 119.172 28.9874 123.219 28.9874 129.824C29.143 133.895 27.8539 137.887 25.3526 141.081L20.0611 137.267C21.685 135.033 22.6141 132.361 22.7299 129.592C22.7299 127.777 21.9476 126.847 20.9814 126.847C19.7391 126.847 19.2329 127.824 18.3587 131.499C17.0244 137.825 14.9998 141.732 9.9385 141.732C4.37109 141.732 1.10434 137.313 1.10434 130.661C1.02808 126.001 2.63059 121.471 5.61339 117.916Z" fill="#00FF63"/>
<path d="M22.0856 174.99L22.0856 166.757L28.7113 166.757L28.7113 190.899L22.0856 190.899L22.0856 182.666L1.56432 182.666L1.56432 175.084L22.0856 174.99Z" fill="#00FF63"/>
<path d="M28.7113 217.645L28.7113 239.693L22.3156 239.693L22.3156 225.18L18.1745 225.18L18.1744 238.344L12.239 238.344L12.239 225.18L7.96 225.18L7.96 239.879L1.56432 239.879L1.56432 217.645L28.7113 217.645Z" fill="#00FF63"/>
<path d="M28.7114 267.277L28.7114 280.254C28.8361 281.867 28.6395 283.488 28.1338 285.022C27.628 286.556 26.8231 287.971 25.7666 289.185C24.9321 290.012 23.9366 290.654 22.8434 291.07C21.7503 291.486 20.5834 291.668 19.417 291.604C17.615 291.665 15.8393 291.156 14.3378 290.147C12.8364 289.138 11.6844 287.679 11.0428 285.976L1.84051 292.535L1.84051 283.929L10.0307 278.394L10.0307 275.091L1.84051 275.091L1.84051 267.463L28.7114 267.277ZM15.6901 279.882C15.6901 282.487 16.9324 283.976 18.8649 283.976C20.9814 283.976 22.0857 282.394 22.0857 279.836L22.0857 274.905L15.5979 274.905L15.6901 279.882Z" fill="#00FF63"/>
</svg>
