<svg width="74" height="126" viewBox="0 0 74 126" fill="none" xmlns="http://www.w3.org/2000/svg">
<path d="M43 2.7033L43 8.72626L51.4647 8.72626L56.511 12.6737L43 20.4466L43 27.08L61.2723 16.255L73.1148 25.4522L73.1148 18.8188L60.0515 8.84835L60.0515 8.72626L73.1148 8.72626L73.1148 2.7033L43 2.7033ZM55.4122 35.7819L58.7085 36.6772C61.8421 37.5725 65.2605 38.4678 68.5569 39.241L68.5569 39.4038C65.3012 40.2991 61.8421 41.113 58.7085 42.049L55.4122 42.9443L55.4122 35.7819ZM43 46.3627L43 52.6706L73.1148 42.985L73.1148 35.904L43 26.2591L43 32.3634L50.7322 34.4796L50.7322 44.2466L43 46.3627ZM42.4303 67.6835C42.4303 75.6598 48.4125 81.1537 58.1795 81.1537C67.9464 81.1537 73.6845 75.6598 73.6845 67.6835C73.6845 59.7071 67.9871 54.2132 58.1795 54.2132C48.4125 54.2132 42.4303 59.7071 42.4303 67.6835ZM47.6393 67.6835C47.6393 63.2069 51.7496 60.3582 58.1795 60.3582C64.6501 60.3582 68.5162 63.2069 68.5162 67.6835C68.5162 72.16 64.6501 75.0087 58.1795 75.0087C51.7496 75.0087 47.6393 72.16 47.6393 67.6835ZM43 87.0355L43 93.0585L56.0226 93.0585L56.0226 104.453L43 104.453L43 110.436L73.1148 110.436L73.1148 104.453L61.2723 104.453L61.2723 93.0585L73.1148 93.0585L73.1148 87.0355L43 87.0355ZM0.43026 11.697C0.43026 18.656 4.62191 22.7663 9.54609 22.7663C13.9005 22.7663 16.2202 20.3652 17.7259 16.7026L19.3944 12.7551C20.4118 10.1913 21.185 8.03443 23.3419 8.03443C25.336 8.03443 26.5162 9.74365 26.5162 12.3889C26.5162 14.8713 25.6209 16.8654 24.0337 18.7781L27.8184 21.8303C30.3009 19.3885 31.6845 15.8887 31.6845 12.3889C31.6845 6.28452 27.8998 1.97078 22.9757 1.97078C18.5805 1.97078 16.1388 5.02295 14.8772 8.07513L13.168 12.104C12.0285 14.7899 11.3367 16.6212 9.09843 16.6212C6.98226 16.6212 5.6393 14.9527 5.6393 11.8191C5.6393 9.17391 6.98226 6.32521 8.97635 4.16834L4.82539 0.709214C2.01739 3.6393 0.43026 7.66817 0.43026 11.697ZM0.999999 28.0983L0.999998 34.1213L31.1148 34.1213L31.1148 28.0983L0.999999 28.0983ZM0.430258 53.0887C0.430258 60.4546 4.54052 64.7276 14.5516 64.7276L31.1148 64.7276L31.1148 58.9488L14.0226 58.9488C7.75548 58.9488 5.6393 56.6699 5.6393 53.0887C5.6393 49.5481 7.75548 47.3913 14.0226 47.3913L31.1148 47.3913L31.1148 41.3683L14.5517 41.3683C4.54052 41.3683 0.430259 45.7634 0.430258 53.0887ZM0.999997 71.9733L0.999997 77.6707L13.0866 77.6707C16.5457 77.6707 20.3304 77.2231 23.5861 76.9382L23.5861 77.1417L17.1155 80.1939L0.999996 88.9027L0.999996 95.0071L31.1148 95.0071L31.1148 89.3097L19.1096 89.3097C15.6911 89.3097 11.703 89.7573 8.56939 90.0829L8.56939 89.8794L15.0807 86.868L31.1148 78.1184L31.1148 71.9733L0.999997 71.9733ZM0.430256 115.397C0.430256 119.588 2.05808 123.129 4.05217 125.164L17.6445 125.164L17.6445 114.461L12.7203 114.461L12.7203 119.792L6.77878 119.792C6.04626 118.937 5.6393 117.472 5.6393 116.007C5.6393 110.106 9.58678 107.095 16.1388 107.095C22.6094 107.095 26.5162 110.594 26.5162 115.6C26.5162 118.327 25.4174 120.036 23.993 121.501L27.8184 124.716C29.8125 122.762 31.6845 119.751 31.6845 115.397C31.6845 107.38 25.865 100.95 15.9353 100.95C5.88347 100.95 0.430256 107.176 0.430256 115.397Z" fill="#00FF63"/>
</svg>
