<svg width="400" height="60" viewBox="0 0 400 60" fill="none" xmlns="http://www.w3.org/2000/svg">
<g clip-path="url(#clip0_141_4040)">
<rect width="400" height="60" fill="white"/>
<path d="M107.616 33.998L107.107 33.7868L107.105 33.7917L107.616 33.998ZM110.01 30.302L109.62 29.9125L109.62 29.9125L110.01 30.302ZM113.37 28.076L113.169 27.563L113.165 27.5646L113.37 28.076ZM124.752 30.218L124.351 30.5957L124.354 30.5986L124.752 30.218ZM127.44 39.878L127.989 39.9146L127.99 39.9124L127.44 39.878ZM127.356 41.012V41.5628H127.863L127.905 41.0577L127.356 41.012ZM113.16 41.012V40.4612H112.546L112.612 41.0715L113.16 41.012ZM114.966 44.078L114.647 44.527L114.647 44.527L114.966 44.078ZM122.61 44.918L122.707 45.4603L122.718 45.4581L122.61 44.918ZM125.34 44.12L125.883 44.0302L125.767 43.33L125.118 43.6158L125.34 44.12ZM126.18 49.202L126.426 49.6947L126.789 49.513L126.723 49.1122L126.18 49.202ZM124.836 49.706L124.677 49.1784L124.677 49.1784L124.836 49.706ZM122.946 50.126L122.859 49.5821L122.846 49.5841L122.833 49.5867L122.946 50.126ZM120.762 50.462L120.82 51.0097L120.82 51.0097L120.762 50.462ZM113.202 49.706L112.995 50.2168L112.999 50.2181L113.202 49.706ZM109.548 47.312L109.142 47.6847L109.147 47.6904L109.153 47.696L109.548 47.312ZM107.406 43.658L106.881 43.8259L106.884 43.8353L107.406 43.658ZM121.434 36.728V37.2788H122.014L121.984 36.699L121.434 36.728ZM121.14 35.174L120.609 35.3214L120.613 35.3349L120.617 35.3482L121.14 35.174ZM120.426 33.83L119.993 34.1703L120 34.1796L120.008 34.1885L120.426 33.83ZM119.208 32.864L118.95 33.351L118.961 33.3567L119.208 32.864ZM115.596 32.864L115.819 33.3674L115.831 33.3623L115.842 33.3567L115.596 32.864ZM113.538 35.174L113.021 34.9836L113.018 34.9916L113.015 34.9998L113.538 35.174ZM113.16 36.728L112.616 36.6421L112.515 37.2788H113.16V36.728ZM107.285 39.122C107.285 37.2158 107.571 35.5807 108.127 34.2043L107.105 33.7917C106.485 35.3273 106.183 37.1082 106.183 39.122H107.285ZM108.124 34.2092C108.717 32.7814 109.478 31.613 110.399 30.6915L109.62 29.9125C108.582 30.951 107.746 32.2466 107.107 33.7868L108.124 34.2092ZM110.399 30.6915C111.328 29.7631 112.385 29.0631 113.574 28.5874L113.165 27.5646C111.834 28.0969 110.652 28.8809 109.62 29.9125L110.399 30.6915ZM113.57 28.589C114.796 28.1092 116.044 27.8708 117.318 27.8708V26.7692C115.903 26.7692 114.519 27.0348 113.169 27.563L113.57 28.589ZM117.318 27.8708C120.332 27.8708 122.654 28.7942 124.351 30.5957L125.153 29.8403C123.21 27.7778 120.576 26.7692 117.318 26.7692V27.8708ZM124.354 30.5986C126.041 32.3642 126.931 35.0189 126.931 38.66H128.033C128.033 34.8531 127.102 31.8798 125.15 29.8374L124.354 30.5986ZM126.931 38.66C126.931 39.0103 126.917 39.4046 126.89 39.8436L127.99 39.9124C128.018 39.4554 128.033 39.0377 128.033 38.66H126.931ZM126.89 39.8414C126.862 40.259 126.835 40.6339 126.807 40.9663L127.905 41.0577C127.933 40.7181 127.961 40.337 127.989 39.9146L126.89 39.8414ZM127.356 40.4612H113.16V41.5628H127.356V40.4612ZM112.612 41.0715C112.769 42.5174 113.455 43.6806 114.647 44.527L115.285 43.629C114.348 42.9634 113.83 42.0826 113.707 40.9525L112.612 41.0715ZM114.647 44.527C115.833 45.3699 117.385 45.7628 119.25 45.7628V44.6612C117.53 44.6612 116.227 44.2981 115.285 43.629L114.647 44.527ZM119.25 45.7628C120.429 45.7628 121.582 45.6621 122.707 45.4602L122.512 44.3758C121.454 44.5659 120.366 44.6612 119.25 44.6612V45.7628ZM122.718 45.4581C123.86 45.2297 124.812 44.954 125.562 44.6242L125.118 43.6158C124.468 43.902 123.6 44.1583 122.502 44.3779L122.718 45.4581ZM124.796 44.2098L125.636 49.2918L126.723 49.1122L125.883 44.0302L124.796 44.2098ZM125.933 48.7093C125.637 48.8577 125.222 49.0151 124.677 49.1784L124.994 50.2336C125.57 50.0609 126.051 49.8823 126.426 49.6947L125.933 48.7093ZM124.677 49.1784C124.145 49.3381 123.54 49.4732 122.859 49.5821L123.033 50.6699C123.752 50.5548 124.406 50.4099 124.994 50.2336L124.677 49.1784ZM122.833 49.5867C122.182 49.7226 121.472 49.832 120.703 49.9143L120.82 51.0097C121.62 50.924 122.366 50.8094 123.058 50.6653L122.833 49.5867ZM120.703 49.9143C119.938 49.9962 119.174 50.0372 118.41 50.0372V51.1388C119.213 51.1388 120.017 51.0958 120.82 51.0097L120.703 49.9143ZM118.41 50.0372C116.475 50.0372 114.81 49.7509 113.405 49.1939L112.999 50.2181C114.561 50.8371 116.369 51.1388 118.41 51.1388V50.0372ZM113.408 49.1952C112.015 48.6326 110.863 47.875 109.943 46.928L109.153 47.696C110.192 48.765 111.477 49.6034 112.995 50.2168L113.408 49.1952ZM109.953 46.9393C109.056 45.9625 108.38 44.812 107.927 43.4807L106.884 43.8353C107.384 45.304 108.136 46.5895 109.142 47.6847L109.953 46.9393ZM107.93 43.4901C107.501 42.1498 107.285 40.6949 107.285 39.122H106.183C106.183 40.7971 106.414 42.3662 106.881 43.8259L107.93 43.4901ZM121.984 36.699C121.953 36.1178 121.846 35.5509 121.662 34.9998L120.617 35.3482C120.769 35.8051 120.858 36.2742 120.884 36.757L121.984 36.699ZM121.67 35.0266C121.509 34.4459 121.233 33.9256 120.844 33.4715L120.008 34.1885C120.29 34.5184 120.49 34.8941 120.609 35.3214L121.67 35.0266ZM120.859 33.4897C120.494 33.0259 120.021 32.6549 119.454 32.3713L118.961 33.3567C119.402 33.5771 119.741 33.8501 119.993 34.1703L120.859 33.4897ZM119.465 32.3772C118.887 32.071 118.189 31.9352 117.402 31.9352V33.0368C118.07 33.0368 118.576 33.153 118.95 33.3508L119.465 32.3772ZM117.402 31.9352C116.637 31.9352 115.946 32.0729 115.349 32.3713L115.842 33.3567C116.253 33.1511 116.767 33.0368 117.402 33.0368V31.9352ZM115.372 32.3606C114.798 32.6156 114.31 32.9712 113.918 33.4295L114.754 34.1465C115.033 33.8208 115.385 33.5604 115.819 33.3674L115.372 32.3606ZM113.918 33.4295C113.535 33.8759 113.237 34.3962 113.021 34.9836L114.055 35.3644C114.23 34.8878 114.465 34.4841 114.754 34.1465L113.918 33.4295ZM113.015 34.9998C112.837 35.533 112.704 36.0805 112.616 36.6421L113.704 36.8139C113.783 36.3115 113.902 35.823 114.06 35.3482L113.015 34.9998ZM113.16 37.2788H121.434V36.1772H113.16V37.2788ZM142.517 45.59L142.545 46.1401L142.545 46.1401L142.517 45.59ZM143.861 45.464L143.952 46.0073L144.412 45.9306V45.464H143.861ZM143.861 40.718H144.412V40.2761L143.981 40.1803L143.861 40.718ZM139.661 40.592L139.722 41.1395L139.735 41.1381L139.747 41.1361L139.661 40.592ZM138.317 40.97L138.563 41.4627L138.563 41.4627L138.317 40.97ZM138.023 45.086L137.737 45.5565L137.749 45.5637L137.761 45.5703L138.023 45.086ZM147.809 29.756L147.405 30.1309L147.413 30.1384L147.809 29.756ZM149.405 32.612L149.936 32.4659L149.936 32.4659L149.405 32.612ZM149.867 49.37L149.985 49.9081L150.418 49.8134V49.37H149.867ZM146.129 50.042L146.043 49.4978L146.034 49.4995L146.129 50.042ZM136.427 50.084L136.309 50.622L136.312 50.6226L136.427 50.084ZM133.445 48.866L133.129 49.3174L133.14 49.3243L133.445 48.866ZM131.513 46.598L132.009 46.3577L131.513 46.598ZM131.597 39.92L131.123 39.6387L131.117 39.6499L131.597 39.92ZM133.697 37.778L133.985 38.2476L133.985 38.2476L133.697 37.778ZM136.679 36.644L136.787 37.1843L136.8 37.1814L136.679 36.644ZM142.307 36.392L142.233 36.9378L142.246 36.9396L142.259 36.9408L142.307 36.392ZM143.861 36.644L143.71 37.1736L144.412 37.3743V36.644H143.861ZM136.385 32.78L136.459 33.3259L136.466 33.3249L136.473 33.3237L136.385 32.78ZM133.697 33.41L133.153 33.4961L133.258 34.16L133.888 33.9265L133.697 33.41ZM132.899 28.37L132.737 27.8435L132.28 27.9841L132.355 28.4561L132.899 28.37ZM134.243 28.034L134.357 28.573L134.367 28.5709L134.377 28.5684L134.243 28.034ZM136.049 27.698L136.12 28.2442L136.132 28.2427L136.143 28.2407L136.049 27.698ZM138.065 27.446L138.109 27.9951L138.119 27.9943L138.128 27.9932L138.065 27.446ZM140.753 46.1828C141.377 46.1828 141.975 46.1686 142.545 46.1401L142.49 45.0399C141.94 45.0674 141.361 45.0812 140.753 45.0812V46.1828ZM142.545 46.1401C143.114 46.1117 143.586 46.0683 143.952 46.0073L143.771 44.9207C143.464 44.9717 143.04 45.0123 142.49 45.0399L142.545 46.1401ZM144.412 45.464V40.718H143.31V45.464H144.412ZM143.981 40.1803C143.699 40.1176 143.297 40.0591 142.788 40.0025L142.666 41.0975C143.165 41.1529 143.52 41.2064 143.742 41.2557L143.981 40.1803ZM142.788 40.0025C142.268 39.9447 141.785 39.9152 141.341 39.9152V41.0168C141.737 41.0168 142.178 41.0433 142.666 41.0975L142.788 40.0025ZM141.341 39.9152C140.727 39.9152 140.138 39.959 139.575 40.0479L139.747 41.1361C140.248 41.057 140.779 41.0168 141.341 41.0168V39.9152ZM139.6 40.0445C139.042 40.1066 138.529 40.2481 138.071 40.4773L138.563 41.4627C138.889 41.2999 139.273 41.1894 139.722 41.1395L139.6 40.0445ZM138.071 40.4773C137.601 40.7124 137.216 41.04 136.935 41.4625L137.851 42.0735C138.018 41.824 138.25 41.6196 138.563 41.4627L138.071 40.4773ZM136.935 41.4625C136.637 41.9091 136.506 42.4423 136.506 43.028H137.608C137.608 42.6057 137.701 42.2989 137.851 42.0735L136.935 41.4625ZM136.506 43.028C136.506 44.1347 136.879 45.0346 137.737 45.5565L138.309 44.6155C137.879 44.3534 137.608 43.8813 137.608 43.028H136.506ZM137.761 45.5703C138.544 45.9945 139.556 46.1828 140.753 46.1828V45.0812C139.654 45.0812 138.846 44.9055 138.285 44.6017L137.761 45.5703ZM140.249 27.8708C142.06 27.8708 143.535 28.0772 144.691 28.4714L145.047 27.4286C143.739 26.9828 142.134 26.7692 140.249 26.7692V27.8708ZM144.691 28.4714C145.856 28.8683 146.752 29.4266 147.405 30.1308L148.213 29.3812C147.411 28.5174 146.347 27.8717 145.047 27.4286L144.691 28.4714ZM147.413 30.1384C148.1 30.8517 148.589 31.7207 148.874 32.7581L149.936 32.4659C149.605 31.2633 149.03 30.2283 148.206 29.3736L147.413 30.1384ZM148.874 32.7581C149.167 33.8228 149.316 35.0187 149.316 36.35H150.418C150.418 34.9373 150.259 33.6412 149.936 32.4659L148.874 32.7581ZM149.316 36.35V49.37H150.418V36.35H149.316ZM149.749 48.8319C148.869 49.0245 147.635 49.2465 146.043 49.4979L146.215 50.5861C147.815 50.3335 149.073 50.1075 149.985 49.9081L149.749 48.8319ZM146.034 49.4995C144.479 49.7722 142.581 49.9112 140.333 49.9112V51.0128C142.621 51.0128 144.587 50.8718 146.224 50.5845L146.034 49.4995ZM140.333 49.9112C138.937 49.9112 137.674 49.7879 136.543 49.5454L136.312 50.6226C137.532 50.8841 138.873 51.0128 140.333 51.0128V49.9112ZM136.545 49.546C135.453 49.3063 134.525 48.924 133.751 48.4077L133.14 49.3243C134.045 49.928 135.105 50.3577 136.309 50.622L136.545 49.546ZM133.761 48.4147C132.998 47.8807 132.416 47.1973 132.009 46.3577L131.017 46.8383C131.506 47.8467 132.212 48.6753 133.129 49.3173L133.761 48.4147ZM132.009 46.3577C131.606 45.528 131.392 44.4814 131.392 43.196H130.29C130.29 44.5986 130.524 45.82 131.017 46.8383L132.009 46.3577ZM131.392 43.196C131.392 41.979 131.63 40.9852 132.077 40.1901L131.117 39.6499C130.556 40.6468 130.29 41.837 130.29 43.196H131.392ZM132.071 40.2012C132.558 39.3803 133.195 38.7317 133.985 38.2476L133.409 37.3084C132.463 37.8883 131.7 38.6677 131.123 39.6388L132.071 40.2012ZM133.985 38.2476C134.791 37.7534 135.723 37.397 136.787 37.1841L136.571 36.1039C135.395 36.339 134.339 36.7386 133.409 37.3084L133.985 38.2476ZM136.8 37.1814C137.878 36.9388 139 36.8168 140.165 36.8168V35.7152C138.922 35.7152 137.72 35.8452 136.558 36.1066L136.8 37.1814ZM140.165 36.8168C140.959 36.8168 141.647 36.858 142.233 36.9378L142.382 35.8462C141.735 35.758 140.995 35.7152 140.165 35.7152V36.8168ZM142.259 36.9408C142.886 36.9953 143.365 37.0752 143.71 37.1736L144.012 36.1144C143.573 35.9888 143.016 35.9007 142.355 35.8432L142.259 36.9408ZM144.412 36.644V36.056H143.31V36.644H144.412ZM144.412 36.056C144.412 34.8724 144.049 33.8692 143.285 33.1045L142.506 33.8835C143.029 34.4068 143.31 35.1116 143.31 36.056H144.412ZM143.285 33.1045C142.483 32.3026 141.176 31.9772 139.535 31.9772V33.0788C141.087 33.0788 142.02 33.3974 142.506 33.8835L143.285 33.1045ZM139.535 31.9772C138.442 31.9772 137.362 32.0635 136.297 32.2363L136.473 33.3237C137.48 33.1605 138.5 33.0788 139.535 33.0788V31.9772ZM136.311 32.2341C135.246 32.378 134.309 32.596 133.506 32.8935L133.888 33.9265C134.597 33.664 135.452 33.462 136.459 33.3259L136.311 32.2341ZM134.241 33.3239L133.443 28.2839L132.355 28.4561L133.153 33.4961L134.241 33.3239ZM133.061 28.8965C133.404 28.791 133.835 28.6829 134.357 28.573L134.13 27.495C133.588 27.6091 133.122 27.725 132.737 27.8435L133.061 28.8965ZM134.377 28.5684C134.914 28.4341 135.495 28.3258 136.12 28.2442L135.978 27.1518C135.315 27.2382 134.692 27.3539 134.109 27.4996L134.377 28.5684ZM136.143 28.2407C136.77 28.1318 137.425 28.0498 138.109 27.9951L138.021 26.8969C137.305 26.9542 136.617 27.0402 135.955 27.1553L136.143 28.2407ZM138.128 27.9932C138.835 27.9116 139.542 27.8708 140.249 27.8708V26.7692C139.5 26.7692 138.751 26.8124 138.002 26.8988L138.128 27.9932ZM168.84 33.452L168.706 33.9864L169.265 34.1261L169.38 33.5617L168.84 33.452ZM166.866 33.032L166.746 33.5697L166.756 33.5718L166.766 33.5736L166.866 33.032ZM163.002 32.906L163.06 33.4538L163.072 33.4525L163.084 33.4507L163.002 32.906ZM161.784 33.116L161.626 32.5884L161.233 32.7062V33.116H161.784ZM161.784 50V50.5508H162.335V50H161.784ZM155.526 50H154.975V50.5508H155.526V50ZM155.526 29.084L155.344 28.5641L154.975 28.6932V29.084H155.526ZM159.474 27.992L159.593 28.5298L159.601 28.5281L159.474 27.992ZM165.816 27.53L165.752 28.0771L165.768 28.0789L165.784 28.0799L165.816 27.53ZM167.244 27.698L167.148 28.2405L167.164 28.2432L167.18 28.2451L167.244 27.698ZM168.672 27.95L168.546 28.4862L168.561 28.4897L168.576 28.4925L168.672 27.95ZM169.89 28.286L170.43 28.3957L170.52 27.9518L170.102 27.7775L169.89 28.286ZM168.974 32.9176C168.4 32.7741 167.73 32.6318 166.966 32.4904L166.766 33.5736C167.514 33.7122 168.16 33.8499 168.706 33.9864L168.974 32.9176ZM166.985 32.4943C166.186 32.3166 165.333 32.2292 164.43 32.2292V33.3308C165.262 33.3308 166.034 33.4114 166.746 33.5697L166.985 32.4943ZM164.43 32.2292C164.002 32.2292 163.496 32.2748 162.92 32.3613L163.084 33.4507C163.627 33.3692 164.074 33.3308 164.43 33.3308V32.2292ZM162.944 32.3582C162.401 32.4154 161.955 32.4896 161.626 32.5884L161.942 33.6436C162.173 33.5744 162.539 33.5086 163.06 33.4538L162.944 32.3582ZM161.233 33.116V50H162.335V33.116H161.233ZM161.784 49.4492H155.526V50.5508H161.784V49.4492ZM156.077 50V29.084H154.975V50H156.077ZM155.708 29.6039C156.802 29.2208 158.097 28.8623 159.593 28.5297L159.354 27.4543C157.827 27.7937 156.489 28.1632 155.344 28.5641L155.708 29.6039ZM159.601 28.5281C161.092 28.1755 162.757 27.9968 164.598 27.9968V26.8952C162.687 26.8952 160.936 27.0805 159.347 27.4559L159.601 28.5281ZM164.598 27.9968C164.906 27.9968 165.289 28.0226 165.752 28.0771L165.88 26.9829C165.391 26.9254 164.962 26.8952 164.598 26.8952V27.9968ZM165.784 28.0799C166.238 28.1066 166.693 28.1601 167.148 28.2405L167.34 27.1555C166.843 27.0679 166.346 27.0094 165.848 26.9801L165.784 28.0799ZM167.18 28.2451C167.634 28.2986 168.09 28.3789 168.546 28.4862L168.798 27.4138C168.302 27.2971 167.806 27.2094 167.308 27.1509L167.18 28.2451ZM168.576 28.4925C169.024 28.5716 169.389 28.6741 169.678 28.7945L170.102 27.7775C169.719 27.6179 169.271 27.4964 168.768 27.4075L168.576 28.4925ZM169.35 28.1763L168.3 33.3423L169.38 33.5617L170.43 28.3957L169.35 28.1763ZM186.097 34.502L185.653 34.8291L185.657 34.8342L186.097 34.502ZM180.679 32.822L180.711 33.3719L180.727 33.3709L180.743 33.3691L180.679 32.822ZM179.503 32.948L179.404 32.4061L178.952 32.4883V32.948H179.503ZM179.503 44.246H178.952V44.5467L179.205 44.7093L179.503 44.246ZM181.015 44.876L180.87 45.4075L180.876 45.409L181.015 44.876ZM193.153 43.616L192.625 43.4577L192.625 43.4577L193.153 43.616ZM191.305 47.228L190.876 46.8824L190.876 46.8824L191.305 47.228ZM188.281 49.58L188.513 50.0795L188.513 50.0795L188.281 49.58ZM181.687 50.168L181.806 49.6303L181.806 49.6303L181.687 50.168ZM179.503 49.454L179.725 48.9498L178.952 48.6098V49.454H179.503ZM179.503 57.77V58.3208H180.054V57.77H179.503ZM173.245 57.77H172.694V58.3208H173.245V57.77ZM173.245 28.664L173.086 28.1364L172.694 28.2542V28.664H173.245ZM175.177 28.202L175.281 28.7429L175.291 28.741L175.301 28.7387L175.177 28.202ZM177.445 27.782L177.369 27.2363L177.367 27.2367L177.445 27.782ZM179.881 27.53L179.919 28.0795L179.927 28.0789L179.935 28.0781L179.881 27.53ZM187.147 28.244L186.946 28.7569L186.954 28.7602L187.147 28.244ZM190.759 30.554L190.364 30.938L190.369 30.9435L190.759 30.554ZM192.985 34.166L192.465 34.3494L192.469 34.3583L192.985 34.166ZM187.95 39.122C187.95 37.1108 187.498 35.4415 186.536 34.1698L185.657 34.8342C186.432 35.8585 186.848 37.2692 186.848 39.122H187.95ZM186.54 34.1749C185.55 32.8333 184.082 32.1872 182.233 32.1872V33.2888C183.799 33.2888 184.908 33.8187 185.654 34.8291L186.54 34.1749ZM182.233 32.1872C181.655 32.1872 181.115 32.216 180.614 32.2749L180.743 33.3691C181.194 33.3159 181.691 33.2888 182.233 33.2888V32.1872ZM180.646 32.2721C180.158 32.3008 179.742 32.3446 179.404 32.4061L179.601 33.4899C179.879 33.4394 180.247 33.3992 180.711 33.3719L180.646 32.2721ZM178.952 32.948V44.246H180.054V32.948H178.952ZM179.205 44.7093C179.658 45.0006 180.218 45.2297 180.87 45.4074L181.16 44.3446C180.579 44.1863 180.132 43.9954 179.801 43.7827L179.205 44.7093ZM180.876 45.409C181.564 45.5884 182.254 45.6788 182.947 45.6788V44.5772C182.351 44.5772 181.754 44.4996 181.154 44.343L180.876 45.409ZM182.947 45.6788C184.568 45.6788 185.862 45.1234 186.728 43.9545C187.572 42.8165 187.95 41.176 187.95 39.122H186.848C186.848 41.072 186.484 42.4345 185.843 43.2985C185.226 44.1316 184.294 44.5772 182.947 44.5772V45.6788ZM193.232 38.954C193.232 40.6172 193.027 42.1169 192.625 43.4577L193.68 43.7743C194.118 42.3151 194.334 40.7068 194.334 38.954H193.232ZM192.625 43.4577C192.223 44.7983 191.638 45.9366 190.876 46.8824L191.734 47.5736C192.596 46.5034 193.242 45.2337 193.68 43.7743L192.625 43.4577ZM190.876 46.8824C190.118 47.823 189.178 48.5552 188.048 49.0805L188.513 50.0795C189.791 49.4848 190.867 48.649 191.734 47.5736L190.876 46.8824ZM188.048 49.0805C186.929 49.6011 185.625 49.8692 184.123 49.8692V50.9708C185.757 50.9708 187.224 50.6789 188.513 50.0795L188.048 49.0805ZM184.123 49.8692C183.29 49.8692 182.519 49.7886 181.806 49.6303L181.567 50.7057C182.367 50.8834 183.219 50.9708 184.123 50.9708V49.8692ZM181.806 49.6303C181.085 49.47 180.391 49.2431 179.725 48.9498L179.281 49.9582C180.014 50.2809 180.777 50.53 181.567 50.7057L181.806 49.6303ZM178.952 49.454V57.77H180.054V49.454H178.952ZM179.503 57.2192H173.245V58.3208H179.503V57.2192ZM173.796 57.77V28.664H172.694V57.77H173.796ZM173.403 29.1916C173.941 29.0302 174.566 28.8803 175.281 28.7429L175.073 27.6611C174.331 27.8037 173.668 27.9618 173.086 28.1364L173.403 29.1916ZM175.301 28.7387C176.012 28.5744 176.753 28.4372 177.523 28.3273L177.367 27.2367C176.568 27.3508 175.797 27.4936 175.053 27.6653L175.301 28.7387ZM177.52 28.3277C178.32 28.2174 179.119 28.1347 179.919 28.0795L179.843 26.9805C179.018 27.0373 178.194 27.1226 177.369 27.2363L177.52 28.3277ZM179.935 28.0781C180.759 27.9957 181.539 27.9548 182.275 27.9548V26.8532C181.498 26.8532 180.682 26.8963 179.826 26.9819L179.935 28.0781ZM182.275 27.9548C184.038 27.9548 185.592 28.2261 186.946 28.7568L187.348 27.7312C185.845 27.1418 184.151 26.8532 182.275 26.8532V27.9548ZM186.954 28.7602C188.312 29.2661 189.445 29.9933 190.364 30.938L191.154 30.17C190.112 29.0987 188.837 28.2859 187.339 27.7278L186.954 28.7602ZM190.369 30.9435C191.286 31.8601 191.986 32.9916 192.465 34.3493L193.504 33.9827C192.975 32.4844 192.192 31.2079 191.148 30.1645L190.369 30.9435ZM192.469 34.3583C192.974 35.7159 193.232 37.2455 193.232 38.954H194.334C194.334 37.1345 194.059 35.4721 193.501 33.9737L192.469 34.3583ZM198.592 50H198.042V50.5508H198.592V50ZM198.592 18.416L198.505 17.8722L198.042 17.9468V18.416H198.592ZM204.85 17.408H205.401V16.7613L204.763 16.8642L204.85 17.408ZM204.85 27.992H204.3V28.7562L205.025 28.5146L204.85 27.992ZM206.446 27.614L206.541 28.1567L206.55 28.1551L206.559 28.1533L206.446 27.614ZM212.83 28.16L212.613 28.6663L212.621 28.6694L212.628 28.6723L212.83 28.16ZM215.686 30.218L215.252 30.5572L215.259 30.5654L215.686 30.218ZM217.198 33.41L216.661 33.5321L216.664 33.5436L217.198 33.41ZM217.66 50V50.5508H218.211V50H217.66ZM211.402 50H210.852V50.5508H211.402V50ZM210.604 33.998L210.132 34.2815L210.139 34.2927L210.604 33.998ZM206.152 32.906L206.248 33.4485L206.26 33.4463L206.272 33.4437L206.152 32.906ZM204.85 33.2L204.699 32.6704L204.3 32.7845V33.2H204.85ZM204.85 50V50.5508H205.401V50H204.85ZM199.143 50V18.416H198.042V50H199.143ZM198.68 18.9598L204.938 17.9518L204.763 16.8642L198.505 17.8722L198.68 18.9598ZM204.3 17.408V27.992H205.401V17.408H204.3ZM205.025 28.5146C205.409 28.3863 205.912 28.266 206.541 28.1567L206.352 27.0713C205.692 27.186 205.131 27.3177 204.676 27.4694L205.025 28.5146ZM206.559 28.1533C207.198 28.0201 207.804 27.9548 208.378 27.9548V26.8532C207.721 26.8532 207.039 26.9279 206.334 27.0747L206.559 28.1533ZM208.378 27.9548C210.124 27.9548 211.528 28.2009 212.613 28.6663L213.047 27.6537C211.781 27.111 210.217 26.8532 208.378 26.8532V27.9548ZM212.628 28.6723C213.753 29.1173 214.621 29.7486 215.252 30.5571L216.12 29.8789C215.352 28.8954 214.315 28.1547 213.033 27.6477L212.628 28.6723ZM215.259 30.5654C215.929 31.3897 216.398 32.3747 216.661 33.5321L217.735 33.2879C217.439 31.9813 216.9 30.8383 216.114 29.8706L215.259 30.5654ZM216.664 33.5436C216.959 34.7245 217.11 36.0508 217.11 37.526H218.211C218.211 35.9772 218.053 34.5595 217.733 33.2764L216.664 33.5436ZM217.11 37.526V50H218.211V37.526H217.11ZM217.66 49.4492H211.402V50.5508H217.66V49.4492ZM211.953 50V38.282H210.852V50H211.953ZM211.953 38.282C211.953 36.2492 211.691 34.684 211.07 33.7033L210.139 34.2927C210.582 34.992 210.852 36.2828 210.852 38.282H211.953ZM211.077 33.7146C210.434 32.643 209.25 32.1872 207.748 32.1872V33.2888C209.046 33.2888 209.767 33.673 210.132 34.2814L211.077 33.7146ZM207.748 32.1872C207.152 32.1872 206.579 32.2469 206.033 32.3683L206.272 33.4437C206.733 33.3411 207.225 33.2888 207.748 33.2888V32.1872ZM206.057 32.3635C205.565 32.4503 205.112 32.5523 204.699 32.6704L205.002 33.7296C205.372 33.6237 205.787 33.5297 206.248 33.4485L206.057 32.3635ZM204.3 33.2V50H205.401V33.2H204.3ZM204.85 49.4492H198.592V50.5508H204.85V49.4492ZM243.233 43.7L243.752 43.8833L243.753 43.8802L243.233 43.7ZM241.049 47.396L241.449 47.7743L241.454 47.7687L241.049 47.396ZM237.605 49.748L237.393 49.2395L237.389 49.2411L237.605 49.748ZM228.701 49.748L228.485 50.2549L228.489 50.2565L228.701 49.748ZM225.299 47.396L224.893 47.7687L224.898 47.7742L225.299 47.396ZM223.073 43.7L222.555 43.889L222.557 43.8923L223.073 43.7ZM223.073 34.166L222.56 33.9649L222.557 33.9737L223.073 34.166ZM225.341 30.512L224.946 30.128L224.94 30.1338L225.341 30.512ZM228.785 28.16L228.573 27.6515L228.569 27.6531L228.785 28.16ZM237.521 28.16L237.305 28.6669L237.309 28.6685L237.521 28.16ZM240.965 30.512L240.564 30.8902L240.564 30.8902L240.965 30.512ZM243.191 34.166L242.675 34.3583L242.675 34.3583L243.191 34.166ZM236.429 34.376L235.972 34.6842L235.977 34.6908L235.981 34.6972L236.429 34.376ZM229.835 34.376L230.282 34.6973L230.286 34.6919L229.835 34.376ZM229.835 43.532L229.38 43.8427L229.384 43.8479L229.835 43.532ZM236.429 43.532L235.974 43.2213L235.972 43.2238L236.429 43.532ZM243.438 38.912C243.438 40.5944 243.194 42.1286 242.712 43.5198L243.753 43.8802C244.28 42.3594 244.54 40.7016 244.54 38.912H243.438ZM242.713 43.5167C242.232 44.8799 241.541 46.0462 240.643 47.0233L241.454 47.7687C242.46 46.6738 243.225 45.3761 243.752 43.8833L242.713 43.5167ZM240.648 47.0178C239.752 47.9668 238.669 48.7077 237.393 49.2395L237.817 50.2565C239.228 49.6683 240.442 48.8412 241.449 47.7742L240.648 47.0178ZM237.389 49.2411C236.151 49.768 234.742 50.0372 233.153 50.0372V51.1388C234.867 51.1388 236.426 50.848 237.82 50.2549L237.389 49.2411ZM233.153 50.0372C231.593 50.0372 230.182 49.7685 228.913 49.2395L228.489 50.2565C229.907 50.8475 231.464 51.1388 233.153 51.1388V50.0372ZM228.916 49.2411C227.668 48.7099 226.597 47.9689 225.699 47.0178L224.898 47.7742C225.904 48.8391 227.102 49.6661 228.485 50.2549L228.916 49.2411ZM225.704 47.0233C224.804 46.0439 224.098 44.8746 223.589 43.5077L222.557 43.8923C223.111 45.3814 223.889 46.6761 224.893 47.7687L225.704 47.0233ZM223.59 43.511C223.083 42.1223 222.826 40.5912 222.826 38.912H221.724C221.724 40.7048 221.999 42.3657 222.555 43.889L223.59 43.511ZM222.826 38.912C222.826 37.2326 223.083 35.7168 223.589 34.3583L222.557 33.9737C221.999 35.4712 221.724 37.1194 221.724 38.912H222.826ZM223.586 34.3671C224.123 32.9978 224.843 31.8417 225.741 30.8902L224.94 30.1338C223.935 31.1983 223.143 32.4782 222.56 33.9649L223.586 34.3671ZM225.736 30.896C226.664 29.9414 227.751 29.1987 229 28.6669L228.569 27.6531C227.187 28.2413 225.978 29.0666 224.946 30.128L225.736 30.896ZM228.997 28.6685C230.268 28.1385 231.652 27.8708 233.153 27.8708V26.7692C231.518 26.7692 229.989 27.0615 228.573 27.6515L228.997 28.6685ZM233.153 27.8708C234.683 27.8708 236.065 28.1391 237.305 28.6669L237.736 27.6531C236.345 27.0609 234.814 26.7692 233.153 26.7692V27.8708ZM237.309 28.6685C238.585 29.2003 239.668 29.9412 240.564 30.8902L241.365 30.1338C240.358 29.0668 239.144 28.2397 237.733 27.6515L237.309 28.6685ZM240.564 30.8902C241.461 31.8395 242.166 32.9925 242.675 34.3583L243.707 33.9737C243.152 32.4835 242.373 31.2005 241.365 30.1338L240.564 30.8902ZM242.675 34.3583C243.181 35.7168 243.438 37.2326 243.438 38.912H244.54C244.54 37.1194 244.265 35.4712 243.707 33.9737L242.675 34.3583ZM238.156 38.912C238.156 36.9132 237.751 35.2733 236.876 34.0547L235.981 34.6972C236.674 35.6627 237.054 37.0468 237.054 38.912H238.156ZM236.885 34.0678C236.02 32.7861 234.751 32.1452 233.153 32.1452V33.2468C234.41 33.2468 235.325 33.7259 235.972 34.6842L236.885 34.0678ZM233.153 32.1452C231.555 32.1452 230.276 32.7853 229.384 34.0601L230.286 34.6919C230.962 33.7267 231.895 33.2468 233.153 33.2468V32.1452ZM229.387 34.0547C228.512 35.2733 228.108 36.9132 228.108 38.912H229.21C229.21 37.0468 229.589 35.6627 230.282 34.6972L229.387 34.0547ZM228.108 38.912C228.108 40.913 228.513 42.5738 229.38 43.8426L230.29 43.2214C229.588 42.1942 229.21 40.775 229.21 38.912H228.108ZM229.384 43.8479C230.276 45.1227 231.555 45.7628 233.153 45.7628V44.6612C231.895 44.6612 230.962 44.1813 230.286 43.2161L229.384 43.8479ZM233.153 45.7628C234.751 45.7628 236.02 45.1219 236.885 43.8402L235.972 43.2238C235.325 44.1821 234.41 44.6612 233.153 44.6612V45.7628ZM236.884 43.8426C237.75 42.5738 238.156 40.913 238.156 38.912H237.054C237.054 40.775 236.675 42.1942 235.974 43.2214L236.884 43.8426ZM248.836 28.664L248.683 28.1349L248.286 28.25V28.664H248.836ZM252.952 27.824L253.034 28.3688L253.043 28.3673L252.952 27.824ZM262.906 28.16L262.698 28.6698L262.705 28.6726L262.712 28.6753L262.906 28.16ZM265.888 30.218L265.461 30.5654L265.461 30.5654L265.888 30.218ZM267.442 33.41L266.908 33.5436L266.908 33.5436L267.442 33.41ZM267.904 50V50.5508H268.455V50H267.904ZM261.646 50H261.096V50.5508H261.646V50ZM260.848 33.998L260.383 34.2927L260.383 34.2927L260.848 33.998ZM256.438 32.822L256.469 33.372L256.484 33.3711L256.499 33.3695L256.438 32.822ZM255.094 32.948L255.017 32.4027L254.544 32.4703V32.948H255.094ZM255.094 50V50.5508H255.645V50H255.094ZM248.836 50H248.286V50.5508H248.836V50ZM248.99 29.1931C250.021 28.8945 251.367 28.6188 253.034 28.3687L252.871 27.2793C251.178 27.5332 249.78 27.8175 248.683 28.1349L248.99 29.1931ZM253.043 28.3673C254.691 28.0927 256.424 27.9548 258.244 27.9548V26.8532C256.369 26.8532 254.574 26.9953 252.862 27.2807L253.043 28.3673ZM258.244 27.9548C260.076 27.9548 261.553 28.2016 262.698 28.6698L263.115 27.6502C261.796 27.1104 260.165 26.8532 258.244 26.8532V27.9548ZM262.712 28.6753C263.896 29.1227 264.804 29.7567 265.461 30.5654L266.316 29.8706C265.517 28.8873 264.437 28.1493 263.101 27.6447L262.712 28.6753ZM265.461 30.5654C266.133 31.3927 266.618 32.3819 266.908 33.5436L267.977 33.2764C267.651 31.9741 267.1 30.8353 266.316 29.8706L265.461 30.5654ZM266.908 33.5436C267.203 34.7245 267.354 36.0508 267.354 37.526H268.455C268.455 35.9772 268.298 34.5595 267.977 33.2764L266.908 33.5436ZM267.354 37.526V50H268.455V37.526H267.354ZM267.904 49.4492H261.646V50.5508H267.904V49.4492ZM262.197 50V38.282H261.096V50H262.197ZM262.197 38.282C262.197 36.2492 261.935 34.684 261.314 33.7033L260.383 34.2927C260.826 34.992 261.096 36.2828 261.096 38.282H262.197ZM261.314 33.7033C260.639 32.6376 259.417 32.1872 257.866 32.1872V33.2888C259.228 33.2888 259.994 33.6784 260.383 34.2927L261.314 33.7033ZM257.866 32.1872C257.396 32.1872 256.899 32.2166 256.378 32.2745L256.499 33.3695C256.986 33.3154 257.441 33.2888 257.866 33.2888V32.1872ZM256.408 32.272C255.892 32.3007 255.428 32.3439 255.017 32.4027L255.172 33.4933C255.545 33.4401 255.977 33.3993 256.469 33.372L256.408 32.272ZM254.544 32.948V50H255.645V32.948H254.544ZM255.094 49.4492H248.836V50.5508H255.094V49.4492ZM249.387 50V28.664H248.286V50H249.387ZM273.401 33.998L272.892 33.7868L272.89 33.7917L273.401 33.998ZM275.795 30.302L275.405 29.9125L275.405 29.9125L275.795 30.302ZM279.155 28.076L278.954 27.563L278.95 27.5646L279.155 28.076ZM290.537 30.218L290.136 30.5957L290.139 30.5986L290.537 30.218ZM293.225 39.878L293.775 39.9146L293.775 39.9124L293.225 39.878ZM293.141 41.012V41.5628H293.648L293.69 41.0577L293.141 41.012ZM278.945 41.012V40.4612H278.331L278.397 41.0715L278.945 41.012ZM280.751 44.078L280.432 44.527L280.432 44.527L280.751 44.078ZM288.395 44.918L288.492 45.4603L288.503 45.4581L288.395 44.918ZM291.125 44.12L291.668 44.0302L291.553 43.33L290.903 43.6158L291.125 44.12ZM291.965 49.202L292.211 49.6947L292.575 49.513L292.508 49.1122L291.965 49.202ZM290.621 49.706L290.463 49.1784L290.463 49.1784L290.621 49.706ZM288.731 50.126L288.644 49.5821L288.631 49.5841L288.619 49.5867L288.731 50.126ZM286.547 50.462L286.606 51.0097L286.606 51.0097L286.547 50.462ZM278.987 49.706L278.781 50.2168L278.784 50.2181L278.987 49.706ZM275.333 47.312L274.927 47.6847L274.933 47.6904L274.938 47.696L275.333 47.312ZM273.191 43.658L272.666 43.8259L272.669 43.8353L273.191 43.658ZM287.219 36.728V37.2788H287.799L287.769 36.699L287.219 36.728ZM286.925 35.174L286.394 35.3214L286.398 35.3349L286.402 35.3482L286.925 35.174ZM286.211 33.83L285.778 34.1703L285.785 34.1796L285.793 34.1885L286.211 33.83ZM284.993 32.864L284.735 33.351L284.747 33.3567L284.993 32.864ZM281.381 32.864L281.605 33.3674L281.616 33.3623L281.627 33.3567L281.381 32.864ZM279.323 35.174L278.806 34.9836L278.803 34.9916L278.8 34.9998L279.323 35.174ZM278.945 36.728L278.401 36.6421L278.3 37.2788H278.945V36.728ZM273.07 39.122C273.07 37.2158 273.356 35.5807 273.912 34.2043L272.89 33.7917C272.27 35.3273 271.968 37.1082 271.968 39.122H273.07ZM273.91 34.2092C274.502 32.7814 275.263 31.613 276.184 30.6915L275.405 29.9125C274.367 30.951 273.531 32.2466 272.892 33.7868L273.91 34.2092ZM276.184 30.6915C277.113 29.7631 278.17 29.0631 279.359 28.5874L278.95 27.5646C277.62 28.0969 276.437 28.8809 275.405 29.9125L276.184 30.6915ZM279.356 28.589C280.582 28.1092 281.83 27.8708 283.103 27.8708V26.7692C281.688 26.7692 280.304 27.0348 278.954 27.563L279.356 28.589ZM283.103 27.8708C286.117 27.8708 288.439 28.7942 290.136 30.5957L290.938 29.8403C288.995 27.7778 286.361 26.7692 283.103 26.7692V27.8708ZM290.139 30.5986C291.826 32.3642 292.716 35.0189 292.716 38.66H293.818C293.818 34.8531 292.887 31.8798 290.935 29.8374L290.139 30.5986ZM292.716 38.66C292.716 39.0103 292.703 39.4046 292.675 39.8436L293.775 39.9124C293.803 39.4554 293.818 39.0377 293.818 38.66H292.716ZM292.675 39.8414C292.647 40.259 292.62 40.6339 292.592 40.9663L293.69 41.0577C293.718 40.7181 293.746 40.337 293.775 39.9146L292.675 39.8414ZM293.141 40.4612H278.945V41.5628H293.141V40.4612ZM278.397 41.0715C278.554 42.5174 279.241 43.6806 280.432 44.527L281.07 43.629C280.133 42.9634 279.615 42.0826 279.493 40.9525L278.397 41.0715ZM280.432 44.527C281.618 45.3699 283.17 45.7628 285.035 45.7628V44.6612C283.316 44.6612 282.012 44.2981 281.07 43.629L280.432 44.527ZM285.035 45.7628C286.214 45.7628 287.367 45.6621 288.492 45.4602L288.298 44.3758C287.239 44.5659 286.151 44.6612 285.035 44.6612V45.7628ZM288.503 45.4581C289.645 45.2297 290.597 44.954 291.347 44.6242L290.903 43.6158C290.253 43.902 289.385 44.1583 288.287 44.3779L288.503 45.4581ZM290.581 44.2098L291.421 49.2918L292.508 49.1122L291.668 44.0302L290.581 44.2098ZM291.719 48.7093C291.422 48.8577 291.007 49.0151 290.463 49.1784L290.779 50.2336C291.355 50.0609 291.836 49.8823 292.211 49.6947L291.719 48.7093ZM290.463 49.1784C289.93 49.3381 289.325 49.4732 288.644 49.5821L288.818 50.6699C289.537 50.5548 290.192 50.4099 290.779 50.2336L290.463 49.1784ZM288.619 49.5867C287.967 49.7226 287.257 49.832 286.488 49.9143L286.606 51.0097C287.405 50.924 288.151 50.8094 288.843 50.6653L288.619 49.5867ZM286.488 49.9143C285.724 49.9962 284.959 50.0372 284.195 50.0372V51.1388C284.999 51.1388 285.802 51.0958 286.606 51.0097L286.488 49.9143ZM284.195 50.0372C282.26 50.0372 280.596 49.7509 279.19 49.1939L278.784 50.2181C280.346 50.8371 282.154 51.1388 284.195 51.1388V50.0372ZM279.193 49.1952C277.8 48.6326 276.649 47.875 275.728 46.928L274.938 47.696C275.977 48.765 277.262 49.6034 278.781 50.2168L279.193 49.1952ZM275.739 46.9393C274.841 45.9625 274.165 44.812 273.712 43.4807L272.669 43.8353C273.169 45.304 273.921 46.5895 274.927 47.6847L275.739 46.9393ZM273.716 43.4901C273.287 42.1498 273.07 40.6949 273.07 39.122H271.968C271.968 40.7971 272.199 42.3662 272.666 43.8259L273.716 43.4901ZM287.769 36.699C287.738 36.1178 287.631 35.5509 287.447 34.9998L286.402 35.3482C286.555 35.8051 286.643 36.2742 286.669 36.757L287.769 36.699ZM287.456 35.0266C287.294 34.4459 287.018 33.9256 286.629 33.4715L285.793 34.1885C286.075 34.5184 286.275 34.8941 286.394 35.3214L287.456 35.0266ZM286.644 33.4897C286.28 33.0259 285.806 32.6549 285.239 32.3713L284.747 33.3567C285.187 33.5771 285.526 33.8501 285.778 34.1703L286.644 33.4897ZM285.251 32.3772C284.672 32.071 283.975 31.9352 283.187 31.9352V33.0368C283.855 33.0368 284.362 33.153 284.735 33.3508L285.251 32.3772ZM283.187 31.9352C282.422 31.9352 281.731 32.0729 281.135 32.3713L281.627 33.3567C282.038 33.1511 282.552 33.0368 283.187 33.0368V31.9352ZM281.157 32.3606C280.584 32.6156 280.096 32.9712 279.703 33.4295L280.539 34.1465C280.818 33.8208 281.17 33.5604 281.605 33.3674L281.157 32.3606ZM279.703 33.4295C279.32 33.8759 279.022 34.3962 278.806 34.9836L279.84 35.3644C280.015 34.8878 280.25 34.4841 280.539 34.1465L279.703 33.4295ZM278.8 34.9998C278.623 35.533 278.489 36.0805 278.401 36.6421L279.489 36.8139C279.568 36.3115 279.687 35.823 279.845 35.3482L278.8 34.9998ZM278.945 37.2788H287.219V36.1772H278.945V37.2788Z" fill="#BDBDBD"/>
</g>
<defs>
<clipPath id="clip0_141_4040">
<rect width="400" height="60" fill="white"/>
</clipPath>
</defs>
</svg>
