<svg width="55" height="55" viewBox="0 0 55 55" fill="none" xmlns="http://www.w3.org/2000/svg">
<path d="M35.5126 35.5252C31.7301 39.3112 29.1302 44.2129 27.4977 50.3408C25.8658 44.2007 23.2607 39.2969 19.4739 35.5127C15.6878 31.7291 10.7846 29.1288 4.65456 27.4964C10.7821 25.8644 15.6847 23.2597 19.4711 19.4742C23.2574 15.6887 25.8637 10.7862 27.4963 4.65646C29.1308 10.795 31.7375 15.699 35.5253 19.4834C39.3112 23.266 44.2131 25.866 50.3412 27.4963C44.2008 29.1309 39.2969 31.7375 35.5126 35.5252Z" fill="#2C2F31" stroke="#00FF63" stroke-width="2"/>
<path d="M27.3921 32.1918C30.0431 32.1918 32.1921 30.0428 32.1921 27.3918C32.1921 24.7408 30.0431 22.5918 27.3921 22.5918C24.7411 22.5918 22.5921 24.7408 22.5921 27.3918C22.5921 30.0428 24.7411 32.1918 27.3921 32.1918Z" fill="#00FF63"/>
</svg>
