<svg width="18" height="326" viewBox="0 0 18 326" fill="none" xmlns="http://www.w3.org/2000/svg">
<path fill-rule="evenodd" clip-rule="evenodd" d="M12.3375 324.196C12.3375 324.99 11.6939 325.634 10.9 325.634L9.20001 325.634C8.4061 325.634 7.76251 324.99 7.76251 324.196L7.76251 322.876C7.76251 322.082 8.4061 321.439 9.20001 321.439L10.9 321.439C11.6939 321.439 12.3375 322.082 12.3375 322.876L12.3375 324.196ZM9.20001 324.196L9.20001 322.876L10.9 322.876L10.9 324.196L9.20001 324.196ZM17.4375 303.551C17.4375 304.345 16.7939 304.988 16 304.988L2.00001 304.988C1.2061 304.988 0.562509 304.345 0.562509 303.551L0.562509 302.571C0.562509 302.094 0.798531 301.649 1.19271 301.381L7.72035 296.951L1.19271 292.52C0.798531 292.253 0.562508 291.807 0.562508 291.331L0.562508 290.351C0.562508 289.557 1.2061 288.913 2.00001 288.913L16 288.913C16.7939 288.913 17.4375 289.557 17.4375 290.351L17.4375 291.391C17.4375 292.185 16.7939 292.828 16 292.828L8.46916 292.828L12.7143 295.746C13.1044 296.014 13.3375 296.457 13.3375 296.931L13.3375 297.011C13.3375 297.484 13.1044 297.927 12.7143 298.195L8.46916 301.113L16 301.113C16.7939 301.113 17.4375 301.757 17.4375 302.551L17.4375 303.551ZM11.9 297.011L11.9 296.931L3.84001 291.391L16 291.391L16 290.351L2.00001 290.351L2.00001 291.331L10.28 296.951L2.00001 302.571L2.00001 303.551L16 303.551L16 302.551L3.84001 302.551L11.9 297.011ZM0.562507 270.128C0.562507 269.334 1.2061 268.69 2.00001 268.69L10.06 268.69C12.3482 268.69 14.2824 269.361 15.6502 270.693C17.0202 272.026 17.6575 273.863 17.6575 275.868C17.6575 277.852 17.0261 279.681 15.684 281.016C14.3396 282.354 12.4347 283.045 10.18 283.045L2.00001 283.045C1.2061 283.045 0.562508 282.401 0.562508 281.608L0.562508 280.568C0.562508 279.774 1.2061 279.13 2.00001 279.13L10.08 279.13C11.4816 279.13 12.3951 278.754 12.9452 278.249C13.4791 277.758 13.8425 276.99 13.8425 275.828C13.8425 274.7 13.5081 273.95 13.0073 273.475C12.4976 272.99 11.6209 272.605 10.18 272.605L2.00001 272.605C1.2061 272.605 0.562507 271.961 0.562507 271.168L0.562507 270.128ZM2.00001 271.168L10.18 271.168C13.56 271.168 15.28 272.988 15.28 275.828C15.28 275.841 15.28 275.854 15.2799 275.868C15.263 278.774 13.4036 280.531 10.18 280.567C10.1468 280.567 10.1135 280.568 10.08 280.568L2.00001 280.568L2.00001 281.608L10.18 281.608C14.1 281.608 16.22 279.228 16.22 275.868C16.22 275.854 16.22 275.841 16.2199 275.828C16.2033 272.483 14.1069 270.174 10.18 270.128C10.1402 270.128 10.1002 270.128 10.06 270.128L2.00001 270.128L2.00001 271.168ZM8.43928 256.807C7.77973 259.889 6.91196 260.657 5.52001 260.691C5.50672 260.691 5.49339 260.692 5.48001 260.692C5.46011 260.692 5.44011 260.692 5.42001 260.692L5.38001 260.692C3.92001 260.692 2.74001 259.332 2.74001 257.272C2.74001 257.259 2.74004 257.246 2.74011 257.232C2.74684 255.88 3.09609 254.697 3.96507 253.533C4.07495 253.386 4.19314 253.239 4.32001 253.092L3.50001 252.432C3.49958 252.433 3.49915 252.433 3.49871 252.434C3.18136 252.829 2.90899 253.219 2.68116 253.618C2.09123 254.654 1.80001 255.761 1.80001 257.232C1.80001 257.246 1.80005 257.259 1.80013 257.272C1.81619 259.81 3.35955 261.671 5.38001 261.731C5.39332 261.731 5.40665 261.731 5.42001 261.732C5.43996 261.732 5.45996 261.732 5.48001 261.732L5.52001 261.732C7.64001 261.732 8.78001 260.372 9.46001 257.012C9.47303 256.947 9.48615 256.884 9.49936 256.821C9.49944 256.821 9.49952 256.82 9.49959 256.82C10.1207 253.871 10.9507 253.088 12.34 253.053C12.3533 253.053 12.3666 253.053 12.38 253.053C12.3999 253.052 12.4199 253.052 12.44 253.052L12.48 253.052C14.08 253.052 15.26 254.492 15.26 256.592C15.26 256.612 15.2599 256.632 15.2598 256.652C15.2486 258.446 14.7302 259.754 13.6377 261.087C13.4974 261.258 13.3477 261.43 13.1883 261.603C13.1855 261.606 13.1828 261.609 13.18 261.612L13.96 262.292C13.96 262.292 13.96 262.292 13.96 262.292C14.0262 262.218 14.0911 262.144 14.1543 262.069C14.4098 261.769 14.6412 261.467 14.8485 261.16C15.7526 259.821 16.2 258.394 16.2 256.652C16.2 256.632 16.1999 256.612 16.1998 256.592C16.1772 253.963 14.6693 252.069 12.48 252.013C12.4667 252.013 12.4534 252.013 12.44 252.013C12.4201 252.012 12.4001 252.012 12.38 252.012L12.34 252.012C10.3 252.012 9.14001 253.372 8.48001 256.612C8.46659 256.678 8.4531 256.742 8.43951 256.806C8.43943 256.806 8.43936 256.806 8.43928 256.807ZM7.07152 256.325C6.73998 257.943 6.39875 258.668 6.13744 258.987C5.98703 259.171 5.85626 259.255 5.42001 259.255L5.38001 259.255C4.99789 259.255 4.17751 258.856 4.17751 257.272C4.17751 256.069 4.49902 255.084 5.40794 254.032C5.66278 253.737 5.78682 253.351 5.75164 252.963C5.71646 252.574 5.52506 252.217 5.22133 251.972L4.40133 251.312C4.10409 251.073 3.72393 250.962 3.34461 251.003C2.96528 251.044 2.61792 251.235 2.37905 251.532C1.05294 253.184 0.362507 254.836 0.362507 257.232C0.362507 260.355 2.35974 263.17 5.48001 263.17L5.52001 263.17C6.94343 263.17 8.18729 262.686 9.13313 261.554C10.0011 260.515 10.5146 259.048 10.8689 257.297L10.8692 257.296C11.1813 255.745 11.504 255.051 11.752 254.745C11.8899 254.574 12.0103 254.49 12.44 254.49L12.48 254.49C12.9963 254.49 13.8225 254.961 13.8225 256.592C13.8225 258.232 13.3416 259.316 12.1232 260.638C11.8601 260.923 11.7235 261.303 11.7446 261.69C11.7658 262.078 11.9428 262.441 12.2354 262.696L13.0154 263.376C13.6088 263.893 14.508 263.837 15.0323 263.25C16.739 261.338 17.6375 259.286 17.6375 256.652C17.6375 253.442 15.691 250.575 12.38 250.575L12.34 250.575C10.9434 250.575 9.72279 251.067 8.79304 252.171C7.93417 253.191 7.41824 254.623 7.07152 256.325ZM7.07152 256.325C7.07159 256.325 7.07167 256.324 7.07174 256.324L8.09106 256.533M17.4375 243.659C17.4375 244.453 16.7939 245.097 16 245.097L2.00001 245.097C1.2061 245.097 0.562506 244.453 0.562506 243.659L0.562506 242.619C0.562506 241.825 1.2061 241.182 2.00001 241.182L16 241.182C16.7939 241.182 17.4375 241.825 17.4375 242.619L17.4375 243.659ZM16 242.619L16 243.659L2.00001 243.659L2.00001 242.619L16 242.619ZM13.7945 220.173C14.181 220.172 14.5519 220.326 14.8234 220.601C16.4612 222.262 17.6775 224.205 17.6775 227.171C17.6775 232.026 13.7918 235.568 9.04001 235.568L9.00001 235.568C4.3212 235.568 0.322506 232.038 0.322505 227.131C0.322505 224.164 1.46119 222.333 2.94035 220.72C3.20304 220.433 3.5706 220.265 3.9592 220.254C4.3478 220.243 4.7243 220.39 5.00283 220.661L5.76283 221.401C6.3303 221.954 6.34391 222.861 5.79327 223.43C4.77423 224.484 4.1375 225.545 4.13751 227.151C4.13751 229.631 6.14553 231.613 8.96001 231.613L9.00001 231.613C11.8339 231.613 13.8625 229.592 13.8625 227.131C13.8625 225.597 13.3186 224.56 12.0964 223.32C11.5475 222.763 11.5442 221.87 12.0889 221.309L12.7689 220.609C13.0383 220.332 13.4079 220.175 13.7945 220.173ZM13.8148 221.626C14.1555 221.972 14.4698 222.325 14.7514 222.695C15.6633 223.891 16.2319 225.26 16.2399 227.131C16.24 227.144 16.24 227.158 16.24 227.171C16.24 231.171 13.06 234.131 9.04001 234.131L9.00001 234.131C8.98666 234.131 8.97333 234.131 8.96001 234.131C5.02447 234.111 1.7708 231.167 1.76003 227.151C1.76001 227.144 1.76001 227.138 1.76001 227.131C1.76001 225.262 2.27441 223.951 3.08582 222.807C3.35888 222.422 3.66557 222.056 3.99762 221.694C3.99841 221.693 3.99921 221.692 4.00001 221.691L4.76 222.431C4.75978 222.431 4.76023 222.431 4.76 222.431C3.5841 223.647 2.7056 225.042 2.70003 227.131C2.70001 227.138 2.70001 227.144 2.70001 227.151C2.70001 230.511 5.44001 233.051 8.96001 233.051L9.00001 233.051C9.01335 233.051 9.02668 233.051 9.04001 233.051C12.5467 233.032 15.278 230.479 15.2999 227.171C15.3 227.158 15.3 227.144 15.3 227.131C15.3 225.111 14.52 223.731 13.12 222.311L13.8 221.611C13.8 221.611 13.8 221.611 13.8 221.611C13.8049 221.616 13.8099 221.621 13.8148 221.626ZM17.4375 203.149C17.4375 203.943 16.7939 204.587 16 204.587L2 204.587C1.2061 204.587 0.562504 203.943 0.562504 203.149L0.562504 198.069C0.562504 196.3 1.01527 194.653 2.0053 193.416C3.02423 192.143 4.51575 191.432 6.28 191.432L6.32 191.432C8.2592 191.432 9.79468 192.293 10.8039 193.644C11.7807 194.95 12.2175 196.641 12.2175 198.329L12.2175 200.672L16 200.672C16.7939 200.672 17.4375 201.315 17.4375 202.109L17.4375 203.149ZM16 203.149L16 202.109L10.78 202.109L10.78 198.329C10.78 198.309 10.7799 198.289 10.7798 198.269C10.7592 195.394 9.26066 192.904 6.38 192.87C6.3667 192.869 6.35337 192.869 6.34 192.869C6.33335 192.869 6.32668 192.869 6.32 192.869L6.28 192.869C3.58 192.869 2 194.989 2 198.069L2 203.149L16 203.149ZM9.82 202.109L9.82 198.269C9.82 195.669 8.46 193.909 6.38 193.909L6.34 193.909C6.33333 193.909 6.32666 193.909 6.32 193.909C6.30663 193.909 6.2933 193.909 6.28 193.91C4.12248 193.94 2.98454 195.616 2.9604 198.069C2.96014 198.096 2.96 198.122 2.96 198.149L2.96001 202.109L9.82 202.109ZM4.3975 200.672L8.3825 200.672L8.3825 198.269C8.3825 197.206 8.10359 196.454 7.7489 196.001C7.41819 195.58 6.97328 195.347 6.38 195.347L6.34 195.347C5.6458 195.347 5.23731 195.593 4.96103 195.955C4.64526 196.37 4.3975 197.086 4.3975 198.149L4.3975 200.672ZM17.4375 184.99C17.4375 185.784 16.7939 186.427 16 186.427L2 186.427C1.20609 186.427 0.562503 185.784 0.562503 184.99L0.562503 179.11C0.562503 177.11 1.18979 175.327 2.36354 174.153C3.29535 173.222 4.60192 172.672 5.98 172.672L6.02 172.672C7.58373 172.672 8.89198 173.27 9.83837 174.305C10.2391 174.743 10.5604 175.243 10.8109 175.782L15.1212 172.452C15.555 172.117 16.1416 172.058 16.6337 172.3C17.1257 172.541 17.4375 173.042 17.4375 173.59L17.4375 174.91C17.4375 175.356 17.2301 175.777 16.8763 176.049L11.6375 180.078L11.6375 182.512L16 182.512C16.7939 182.512 17.4375 183.156 17.4375 183.95L17.4375 184.99ZM16 184.99L16 183.95L10.2 183.95L10.2 179.37L16 174.91L16 173.59L10.02 178.21C9.999 178.055 9.9736 177.903 9.94382 177.754C9.86896 177.378 9.76637 177.022 9.63616 176.69C9.03334 175.151 7.83832 174.125 6.06 174.11C6.0467 174.11 6.03337 174.11 6.02 174.11L5.98 174.11C4.98 174.11 4.04 174.51 3.38 175.17C2.54 176.01 2 177.39 2 179.11L2 184.99L16 184.99ZM9.26 183.95L9.26 179.23C9.26 178.921 9.23948 178.623 9.19921 178.338C9.19843 178.332 9.19765 178.327 9.19686 178.322C8.92757 176.454 7.80846 175.15 6.06 175.15L6.02 175.15C6.00664 175.15 5.9933 175.15 5.98 175.15C5.22231 175.159 4.5801 175.41 4.08529 175.875C3.37723 176.541 2.97102 177.647 2.96023 179.11C2.96008 179.13 2.96 179.15 2.96 179.17L2.96 183.95L9.26 183.95ZM4.3975 182.512L7.8225 182.512L7.8225 179.23C7.8225 178.283 7.58179 177.592 7.26893 177.177C6.98579 176.801 6.60652 176.587 6.06 176.587L6.02 176.587C5.49787 176.587 5.16472 176.772 4.92348 177.085C4.648 177.442 4.3975 178.101 4.3975 179.17L4.3975 182.512ZM9 150.839C13.5091 150.839 17.6775 154.202 17.6775 159.337C17.6775 164.472 13.5483 167.794 9.04 167.794L9 167.794C4.49091 167.794 0.322503 164.432 0.322502 159.297C0.322502 154.161 4.45174 150.839 8.96 150.839L9 150.839ZM9 163.839C11.7662 163.839 13.8625 161.866 13.8625 159.297C13.8625 156.728 11.8071 154.794 9.04 154.794L9 154.794C6.23385 154.794 4.1375 156.767 4.1375 159.337C4.1375 161.905 6.19292 163.839 8.96 163.839L9 163.839ZM17.4375 143.945C17.4375 144.738 16.7939 145.382 16 145.382L2 145.382C1.20609 145.382 0.562502 144.738 0.562502 143.945L0.562501 139.285C0.562501 134.158 4.16068 130.407 8.96 130.407L9 130.407C13.7888 130.407 17.4375 134.147 17.4375 139.285L17.4375 143.945ZM4.3975 141.467L4.3975 139.285C4.3975 136.169 6.48315 134.362 9 134.362L9.04 134.362C10.3496 134.362 11.4719 134.84 12.2668 135.649C13.0587 136.456 13.6025 137.671 13.6025 139.285L13.6025 141.467L4.3975 141.467ZM2.96 139.285C2.96 135.4 5.65818 132.944 8.96 132.925C8.97333 132.925 8.98666 132.925 9 132.925L9.04 132.925C12.38 132.925 15.04 135.385 15.04 139.285L15.04 142.905L2.96 142.905L2.96 139.285ZM2 143.945L2 139.285C2 134.885 5.02 131.845 8.96 131.845L9 131.845C9.01335 131.845 9.02668 131.845 9.04 131.845C12.9607 131.865 16 134.899 16 139.285L16 143.945L2 143.945ZM0.5625 112.24C0.5625 111.446 1.20609 110.803 2 110.803L10.06 110.803C12.3482 110.803 14.2824 111.473 15.6502 112.805C17.0202 114.139 17.6575 115.975 17.6575 117.98C17.6575 119.964 17.0261 121.793 15.684 123.129C14.3396 124.467 12.4347 125.158 10.18 125.158L2 125.158C1.20609 125.158 0.562501 124.514 0.562501 123.72L0.562501 122.68C0.562501 121.886 1.20609 121.243 2 121.243L10.08 121.243C11.4816 121.243 12.3951 120.866 12.9452 120.361C13.4791 119.871 13.8425 119.102 13.8425 117.94C13.8425 116.812 13.5081 116.063 13.0073 115.587C12.4976 115.103 11.6209 114.718 10.18 114.718L2 114.718C1.20609 114.718 0.5625 114.074 0.5625 113.28L0.5625 112.24ZM2 113.28L10.18 113.28C13.56 113.28 15.28 115.1 15.28 117.94C15.28 117.953 15.28 117.967 15.2799 117.98C15.263 120.886 13.4036 122.644 10.18 122.679C10.1468 122.68 10.1135 122.68 10.08 122.68L2 122.68L2 123.72L10.18 123.72C14.1 123.72 16.22 121.34 16.22 117.98C16.22 117.967 16.22 117.953 16.2199 117.94C16.2033 114.596 14.1069 112.287 10.18 112.241C10.1402 112.24 10.1002 112.24 10.06 112.24L2 112.24L2 113.28ZM13.7945 90.1672C14.181 90.1657 14.5519 90.32 14.8234 90.5952C16.4612 92.2555 17.6775 94.1983 17.6775 97.1647C17.6775 102.019 13.7918 105.562 9.04 105.562L9 105.562C4.32119 105.562 0.3225 102.032 0.3225 97.1247C0.3225 94.1577 1.46118 92.327 2.94034 90.7134C3.20303 90.4268 3.57059 90.2588 3.95919 90.2478C4.34779 90.2368 4.72429 90.3836 5.00282 90.6548L5.76282 91.3948C6.3303 91.9473 6.34391 92.8548 5.79326 93.4241C4.77422 94.4777 4.1375 95.5385 4.1375 97.1447C4.1375 99.6252 6.14552 101.607 8.96 101.607L9 101.607C11.8339 101.607 13.8625 99.5858 13.8625 97.1247C13.8625 95.5909 13.3186 94.5536 12.0964 93.3139C11.5475 92.7572 11.5441 91.8639 12.0889 91.3031L12.7689 90.6031C13.0383 90.3258 13.4079 90.1687 13.7945 90.1672ZM13.8 91.6047L13.12 92.3047C14.52 93.7247 15.3 95.1047 15.3 97.1247C15.3 97.1381 15.3 97.1514 15.2999 97.1647C15.278 100.473 12.5466 103.025 9.04 103.045C9.02668 103.045 9.01334 103.045 9 103.045L8.96 103.045C5.44 103.045 2.7 100.505 2.7 97.1447C2.7 97.138 2.70001 97.1314 2.70003 97.1247C2.7056 95.0359 3.58368 93.641 4.75986 92.4249C4.75981 92.4249 4.75991 92.4248 4.75986 92.4249L4 91.6847M13.8 91.6047C13.8049 91.6097 13.8099 91.6147 13.8148 91.6197C14.1554 91.966 14.4698 92.319 14.7513 92.6884C15.6633 93.8849 16.2319 95.2536 16.2399 97.1247C16.24 97.138 16.24 97.1514 16.24 97.1647C16.24 101.165 13.06 104.125 9.04 104.125L9 104.125C8.98666 104.125 8.97333 104.125 8.96 104.125C5.02447 104.105 1.7708 101.161 1.76003 97.1447C1.76001 97.138 1.76 97.1314 1.76 97.1247C1.76 95.2553 2.27441 93.9451 3.08581 92.8009C3.35887 92.4159 3.66549 92.0496 3.99754 91.6872M17.4375 80.0591C17.4375 80.853 16.7939 81.4966 16 81.4966L4.3975 81.4966L4.3975 84.9391C4.3975 85.733 3.75391 86.3766 2.96 86.3766L2 86.3766C1.20609 86.3766 0.562499 85.733 0.562499 84.9391L0.562499 74.1391C0.562499 73.3452 1.20609 72.7016 2 72.7016L2.96 72.7016C3.75391 72.7016 4.3975 73.3452 4.3975 74.1391L4.3975 77.5816L16 77.5816C16.7939 77.5816 17.4375 78.2252 17.4375 79.0191L17.4375 80.0591ZM2.96 74.1391L2 74.1391L2 84.9391L2.96 84.9391L2.96 80.0591L16 80.0591L16 79.0191L2.96 79.0191L2.96 74.1391ZM17.4375 66.0304C17.4375 66.8243 16.7939 67.4679 16 67.4679L2 67.4679C1.20609 67.4679 0.562498 66.8243 0.562498 66.0304L0.562498 64.9904C0.562498 64.1964 1.20609 63.5529 2 63.5529L16 63.5529C16.7939 63.5529 17.4375 64.1964 17.4375 64.9904L17.4375 66.0304ZM2 64.9904L2 66.0304L16 66.0304L16 64.9904L2 64.9904ZM9 40.9846C13.5091 40.9846 17.6775 44.3473 17.6775 49.4821C17.6775 54.6177 13.5483 57.9396 9.04 57.9396L9 57.9396C4.4909 57.9396 0.322498 54.5769 0.322498 49.4421C0.322497 44.3065 4.45174 40.9846 8.96 40.9846L9 40.9846ZM9 53.9846C11.7662 53.9846 13.8625 52.0117 13.8625 49.4421C13.8625 46.8734 11.8071 44.9396 9.04 44.9396L9 44.9396C6.23385 44.9396 4.1375 46.9125 4.1375 49.4821C4.1375 52.0508 6.19292 53.9846 8.96 53.9846L9 53.9846ZM17.4375 34.0899C17.4375 34.8838 16.7939 35.5274 16 35.5274L2 35.5274C1.20609 35.5274 0.562497 34.8838 0.562497 34.0899L0.562497 33.1099C0.562497 32.6711 0.76293 32.2563 1.10674 31.9836L10.0541 24.8874L2 24.8874C1.20609 24.8874 0.562496 24.2438 0.562496 23.4499L0.562496 22.4499C0.562496 21.656 1.20609 21.0124 2 21.0124L16 21.0124C16.7939 21.0124 17.4375 21.656 17.4375 22.4499L17.4375 23.2299C17.4375 23.6689 17.2369 24.0838 16.8929 24.3564L7.68785 31.6524L16 31.6524C16.7939 31.6524 17.4375 32.296 17.4375 33.0899L17.4375 34.0899ZM16 23.2299L16 22.4499L2 22.4499L2 23.4499L14.18 23.4499L2 33.1099L2 34.0899L16 34.0899L16 33.0899L3.56 33.0899L16 23.2299ZM12.3375 3.133C12.3375 3.92691 11.6939 4.5705 10.9 4.5705L9.2 4.5705C8.40609 4.5705 7.7625 3.92691 7.7625 3.133L7.7625 1.81302C7.7625 1.0191 8.40609 0.375518 9.2 0.375518L10.9 0.375518C11.6939 0.375518 12.3375 1.0191 12.3375 1.81302L12.3375 3.133ZM9.2 3.133L9.2 1.81302L10.9 1.81302L10.9 3.133L9.2 3.133ZM16.2399 159.297C16.24 159.31 16.24 159.323 16.24 159.337C16.24 163.577 12.86 166.357 9.04 166.357L9 166.357C8.98667 166.357 8.97333 166.357 8.96 166.357C5.16818 166.337 1.78147 163.54 1.76011 159.337C1.76004 159.323 1.76 159.31 1.76 159.297C1.76 155.057 5.14 152.277 8.96 152.277L9 152.277C9.01334 152.277 9.02667 152.277 9.04 152.277C12.8318 152.296 16.2185 155.094 16.2399 159.297ZM15.2999 159.337C15.3 159.323 15.3 159.31 15.3 159.297C15.3 155.837 12.5 153.357 9.04 153.357L9 153.357C8.98666 153.357 8.97333 153.357 8.96 153.357C5.53147 153.376 2.72184 155.871 2.70013 159.297C2.70004 159.31 2.7 159.323 2.7 159.337C2.7 162.797 5.5 165.277 8.96 165.277L9 165.277C9.01335 165.277 9.02668 165.277 9.04 165.277C12.4685 165.257 15.2782 162.763 15.2999 159.337ZM16.2399 49.4421C16.24 49.4554 16.24 49.4687 16.24 49.4821C16.24 53.7221 12.86 56.5021 9.04 56.5021L9 56.5021C8.98666 56.5021 8.97333 56.5021 8.96 56.502C5.16817 56.4825 1.78145 53.685 1.7601 49.4821C1.76003 49.4688 1.76 49.4554 1.76 49.4421C1.76 45.2021 5.14 42.4221 8.96 42.4221L9 42.4221C9.01334 42.4221 9.02667 42.4221 9.04 42.4222C12.8318 42.4417 16.2185 45.2392 16.2399 49.4421ZM15.2999 49.4821C15.3 49.4688 15.3 49.4554 15.3 49.4421C15.3 45.9821 12.5 43.5021 9.04 43.5021L9 43.5021C8.98665 43.5021 8.97332 43.5022 8.96 43.5022C5.53146 43.5215 2.72182 46.016 2.70013 49.4421C2.70004 49.4554 2.7 49.4687 2.7 49.4821C2.7 52.9421 5.5 55.4221 8.96 55.4221L9 55.4221C9.01334 55.4221 9.02667 55.422 9.04 55.422C12.4685 55.4027 15.2782 52.9082 15.2999 49.4821Z" fill="#00FF63"/>
</svg>
