<svg width="106" height="19" viewBox="0 0 106 19" fill="none" xmlns="http://www.w3.org/2000/svg">
<path d="M5.00116 0.905999H9.87916L9.35716 3.048H7.03516L3.88516 16.188H6.20716L5.68516 18.33H0.825156L5.00116 0.905999ZM19.1002 2.382C19.8562 2.382 20.5342 2.466 21.1342 2.634C21.7462 2.79 22.2622 3.024 22.6822 3.336C23.1022 3.636 23.4262 4.008 23.6542 4.452C23.8822 4.896 23.9962 5.394 23.9962 5.946C23.9962 6.846 23.8222 7.608 23.4742 8.232C23.1262 8.856 22.6462 9.36 22.0342 9.744C21.4222 10.128 20.7022 10.404 19.8742 10.572C19.0462 10.74 18.1462 10.824 17.1742 10.824H16.4722L15.4642 15H12.6742L15.6082 2.706C16.2562 2.586 16.8682 2.502 17.4442 2.454C18.0322 2.406 18.5842 2.382 19.1002 2.382ZM18.8662 4.74C18.6622 4.74 18.4882 4.746 18.3442 4.758C18.2002 4.77 18.0562 4.782 17.9122 4.794L17.0482 8.466H17.7502C18.2542 8.466 18.7102 8.43 19.1182 8.358C19.5382 8.274 19.8922 8.142 20.1802 7.962C20.4802 7.782 20.7082 7.554 20.8642 7.278C21.0322 6.99 21.1162 6.642 21.1162 6.234C21.1162 5.694 20.9182 5.31 20.5222 5.082C20.1382 4.854 19.5862 4.74 18.8662 4.74ZM33.0623 12.624L32.4863 15H24.1703L27.1583 2.526H29.9663L27.5363 12.624H33.0623ZM42.908 15C42.884 14.532 42.854 14.076 42.818 13.632C42.794 13.176 42.764 12.726 42.728 12.282H38.048C37.808 12.726 37.556 13.176 37.292 13.632C37.028 14.076 36.776 14.532 36.536 15H33.602C34.382 13.656 35.108 12.414 35.78 11.274C36.464 10.134 37.118 9.06 37.742 8.052C38.378 7.044 38.996 6.09 39.596 5.19C40.196 4.278 40.808 3.39 41.432 2.526H43.934C44.126 3.39 44.306 4.35 44.474 5.406C44.654 6.45 44.816 7.524 44.96 8.628C45.116 9.72 45.254 10.818 45.374 11.922C45.506 13.014 45.626 14.04 45.734 15H42.908ZM42.08 5.262C41.576 6.066 41.078 6.864 40.586 7.656C40.106 8.448 39.638 9.258 39.182 10.086H42.548C42.488 9.354 42.422 8.574 42.35 7.746C42.29 6.918 42.2 6.09 42.08 5.262ZM51.9985 7.656C52.3465 7.212 52.6765 6.786 52.9885 6.378C53.3125 5.958 53.6245 5.544 53.9245 5.136C54.2245 4.716 54.5185 4.296 54.8065 3.876C55.1065 3.444 55.4125 2.994 55.7245 2.526H58.8205C58.3165 3.234 57.8305 3.906 57.3625 4.542C56.8945 5.178 56.4265 5.802 55.9585 6.414C55.4905 7.014 55.0105 7.614 54.5185 8.214C54.0265 8.814 53.5045 9.432 52.9525 10.068L51.7645 15H48.9565L50.1445 10.068C49.6405 8.796 49.1845 7.554 48.7765 6.342C48.3685 5.13 47.9845 3.858 47.6245 2.526H50.6125C50.8045 3.39 51.0145 4.236 51.2425 5.064C51.4705 5.892 51.7225 6.756 51.9985 7.656ZM66.5486 12.624L65.9726 15H57.6566L60.6446 2.526H63.4526L61.0226 12.624H66.5486ZM70.6642 2.526H73.4722L70.4662 15H67.6762L70.6642 2.526ZM76.7756 12.912C77.0516 12.912 77.3276 12.894 77.6036 12.858C77.8796 12.81 78.1256 12.732 78.3416 12.624C78.5576 12.516 78.7316 12.366 78.8636 12.174C79.0076 11.97 79.0796 11.712 79.0796 11.4C79.0796 11.16 79.0136 10.956 78.8816 10.788C78.7496 10.608 78.5816 10.446 78.3776 10.302C78.1736 10.158 77.9456 10.026 77.6936 9.906C77.4416 9.786 77.1896 9.654 76.9376 9.51C76.6136 9.318 76.3076 9.114 76.0196 8.898C75.7316 8.682 75.4856 8.442 75.2816 8.178C75.0776 7.902 74.9156 7.602 74.7956 7.278C74.6756 6.942 74.6156 6.558 74.6156 6.126C74.6156 5.574 74.7176 5.064 74.9216 4.596C75.1376 4.116 75.4496 3.702 75.8576 3.354C76.2776 3.006 76.7996 2.736 77.4236 2.544C78.0476 2.34 78.7796 2.238 79.6196 2.238C80.0036 2.238 80.3756 2.274 80.7356 2.346C81.0956 2.406 81.4316 2.484 81.7436 2.58C82.0556 2.676 82.3376 2.79 82.5896 2.922C82.8536 3.042 83.0756 3.162 83.2556 3.282L82.0856 5.352C81.7856 5.124 81.4196 4.932 80.9876 4.776C80.5556 4.62 80.0876 4.542 79.5836 4.542C79.3076 4.542 79.0436 4.566 78.7916 4.614C78.5396 4.662 78.3176 4.746 78.1256 4.866C77.9336 4.974 77.7776 5.118 77.6576 5.298C77.5496 5.478 77.4956 5.7 77.4956 5.964C77.4956 6.204 77.5376 6.408 77.6216 6.576C77.7176 6.732 77.8376 6.87 77.9816 6.99C78.1256 7.11 78.2936 7.218 78.4856 7.314C78.6776 7.41 78.8816 7.512 79.0976 7.62C79.4696 7.812 79.8296 8.016 80.1776 8.232C80.5256 8.448 80.8316 8.7 81.0956 8.988C81.3596 9.264 81.5696 9.582 81.7256 9.942C81.8816 10.302 81.9596 10.728 81.9596 11.22C81.9596 11.904 81.8336 12.498 81.5816 13.002C81.3296 13.506 80.9756 13.926 80.5196 14.262C80.0636 14.598 79.5176 14.844 78.8816 15C78.2576 15.168 77.5616 15.252 76.7936 15.252C76.2896 15.252 75.8156 15.21 75.3716 15.126C74.9396 15.042 74.5436 14.946 74.1836 14.838C73.8356 14.718 73.5296 14.592 73.2656 14.46C73.0136 14.328 72.8096 14.208 72.6536 14.1L73.8416 11.958C73.9856 12.054 74.1596 12.156 74.3636 12.264C74.5676 12.372 74.7956 12.474 75.0476 12.57C75.3116 12.666 75.5876 12.75 75.8756 12.822C76.1636 12.882 76.4636 12.912 76.7756 12.912ZM95.2903 2.526L94.7143 4.884H91.0603L88.6303 15H85.8223L88.2523 4.884H84.5983L85.1743 2.526H95.2903ZM101.176 18.33H96.316L96.838 16.188H99.142L102.292 3.048H99.97L100.492 0.905999H105.37L101.176 18.33Z" fill="#00FF63"/>
</svg>
