<svg width="400" height="60" viewBox="0 0 400 60" fill="none" xmlns="http://www.w3.org/2000/svg">
<g clip-path="url(#clip0_141_4042)">
<rect width="400" height="60" fill="white"/>
<path d="M72.0916 43.448L72.5348 43.1209L72.5348 43.1209L72.0916 43.448ZM77.5096 45.17L77.542 45.7199L77.558 45.7189L77.574 45.7171L77.5096 45.17ZM78.6856 45.002L78.7842 45.5439L79.2365 45.4617V45.002H78.6856ZM78.6856 33.62H79.2365V33.3193L78.9835 33.1567L78.6856 33.62ZM77.1316 32.99L76.9867 33.5215L76.9926 33.523L77.1316 32.99ZM84.9436 49.286L85.1019 49.8136L85.4945 49.6958V49.286H84.9436ZM83.0116 49.79L83.1156 50.3309L83.1256 50.329L83.1355 50.3267L83.0116 49.79ZM80.7016 50.168L80.6264 49.6223L80.6237 49.6227L80.7016 50.168ZM78.2656 50.42L78.229 49.8704L78.219 49.8711L78.2089 49.8721L78.2656 50.42ZM67.4296 47.48L67.0346 47.864L67.0401 47.8695L67.4296 47.48ZM65.1616 43.868L64.642 44.0514L64.6467 44.0637L65.1616 43.868ZM65.0776 34.25L65.6032 34.4149L65.6041 34.412L65.0776 34.25ZM67.0096 30.554L66.5865 30.2014L66.5865 30.2014L67.0096 30.554ZM70.0756 28.244L69.8572 27.7383L69.853 27.7402L70.0756 28.244ZM76.5856 27.698L76.452 28.2324L76.4571 28.2336L76.5856 27.698ZM78.6856 28.412L78.4638 28.9162L79.2365 29.2562V28.412H78.6856ZM78.6856 18.416L78.598 17.8722L78.1348 17.9468V18.416H78.6856ZM84.9436 17.408H85.4945V16.7613L84.856 16.8642L84.9436 17.408ZM70.2388 38.786C70.2388 40.7981 70.691 42.478 71.6484 43.7751L72.5348 43.1209C71.7562 42.066 71.3405 40.6379 71.3405 38.786H70.2388ZM71.6484 43.7751C72.6387 45.1167 74.1063 45.7628 75.9556 45.7628V44.6612C74.389 44.6612 73.2806 44.1313 72.5348 43.1209L71.6484 43.7751ZM75.9556 45.7628C76.5246 45.7628 77.0535 45.7486 77.542 45.7199L77.4773 44.6201C77.0137 44.6474 76.5066 44.6612 75.9556 44.6612V45.7628ZM77.574 45.7171C78.0561 45.6603 78.4606 45.6028 78.7842 45.5439L78.5871 44.4601C78.2947 44.5132 77.9151 44.5677 77.4453 44.6229L77.574 45.7171ZM79.2365 45.002V33.62H78.1348V45.002H79.2365ZM78.9835 33.1567C78.5265 32.8629 77.949 32.6339 77.2707 32.457L76.9926 33.523C77.6023 33.6821 78.0607 33.8731 78.3878 34.0833L78.9835 33.1567ZM77.2766 32.4586C76.6129 32.2776 75.9342 32.1872 75.2416 32.1872V33.2888C75.8371 33.2888 76.4183 33.3664 76.9867 33.5214L77.2766 32.4586ZM75.2416 32.1872C73.6193 32.1872 72.3249 32.7472 71.459 33.9235C70.6164 35.0682 70.2388 36.7186 70.2388 38.786H71.3405C71.3405 36.8214 71.7049 35.4478 72.3462 34.5765C72.9644 33.7368 73.8959 33.2888 75.2416 33.2888V32.1872ZM84.7853 48.7584C84.2393 48.9222 83.6072 49.0873 82.8878 49.2533L83.1355 50.3267C83.8721 50.1567 84.5279 49.9858 85.1019 49.8136L84.7853 48.7584ZM82.9076 49.2491C82.1901 49.3871 81.4297 49.5115 80.6264 49.6223L80.7769 50.7137C81.5975 50.6005 82.3772 50.4729 83.1156 50.3309L82.9076 49.2491ZM80.6237 49.6227C79.8542 49.7326 79.056 49.8152 78.229 49.8704L78.3023 50.9696C79.1552 50.9128 79.981 50.8274 80.7795 50.7133L80.6237 49.6227ZM78.2089 49.8721C77.4143 49.9543 76.6493 49.9952 75.9136 49.9952V51.0968C76.69 51.0968 77.493 51.0537 78.3223 50.9679L78.2089 49.8721ZM75.9136 49.9952C74.1468 49.9952 72.5897 49.7369 71.2339 49.2318L70.8493 50.2642C72.3495 50.8231 74.0404 51.0968 75.9136 51.0968V49.9952ZM71.2339 49.2318C69.8725 48.7246 68.7379 48.0093 67.8191 47.0905L67.0401 47.8695C68.0814 48.9107 69.3547 49.7074 70.8493 50.2642L71.2339 49.2318ZM67.8246 47.096C66.9004 46.1454 66.1836 45.0067 65.6765 43.6723L64.6467 44.0637C65.2037 45.5293 65.9989 46.7986 67.0347 47.864L67.8246 47.096ZM65.6811 43.6847C65.201 42.3244 64.9565 40.7916 64.9565 39.08H63.8548C63.8548 40.8964 64.1143 42.5556 64.6422 44.0513L65.6811 43.6847ZM64.9565 39.08C64.9565 37.3332 65.1749 35.7802 65.6032 34.4149L64.552 34.0851C64.0844 35.5758 63.8548 37.2428 63.8548 39.08H64.9565ZM65.6041 34.412C66.0341 33.0147 66.6464 31.8503 67.4328 30.9066L66.5865 30.2014C65.6928 31.2737 65.0172 32.5733 64.5512 34.088L65.6041 34.412ZM67.4328 30.9066C68.2183 29.964 69.1716 29.2457 70.2983 28.7478L69.853 27.7402C68.5717 28.3063 67.481 29.128 66.5865 30.2014L67.4328 30.9066ZM70.294 28.7497C71.4464 28.2521 72.7702 27.9968 74.2756 27.9968V26.8952C72.645 26.8952 71.1688 27.1719 69.8573 27.7383L70.294 28.7497ZM74.2756 27.9968C75.1094 27.9968 75.8331 28.0777 76.452 28.2324L76.7192 27.1636C75.9942 26.9823 75.1779 26.8952 74.2756 26.8952V27.9968ZM76.4571 28.2336C77.1232 28.3935 77.792 28.6206 78.4638 28.9162L78.9075 27.9078C78.1792 27.5874 77.4481 27.3385 76.7142 27.1624L76.4571 28.2336ZM79.2365 28.412V18.416H78.1348V28.412H79.2365ZM78.7732 18.9598L85.0312 17.9518L84.856 16.8642L78.598 17.8722L78.7732 18.9598ZM84.3928 17.408V49.286H85.4945V17.408H84.3928ZM90.6353 33.998L90.1265 33.7868L90.1245 33.7917L90.6353 33.998ZM93.0293 30.302L92.6398 29.9125L92.6398 29.9125L93.0293 30.302ZM96.3893 28.076L96.1886 27.563L96.1847 27.5646L96.3893 28.076ZM107.771 30.218L107.37 30.5957L107.373 30.5986L107.771 30.218ZM110.459 39.878L111.009 39.9146L111.009 39.9124L110.459 39.878ZM110.375 41.012V41.5628H110.882L110.924 41.0577L110.375 41.012ZM96.1793 41.012V40.4612H95.5653L95.6317 41.0715L96.1793 41.012ZM97.9853 44.078L97.6662 44.527L97.6662 44.527L97.9853 44.078ZM105.629 44.918L105.727 45.4603L105.737 45.4581L105.629 44.918ZM108.359 44.12L108.903 44.0302L108.787 43.33L108.137 43.6158L108.359 44.12ZM109.199 49.202L109.446 49.6947L109.809 49.513L109.743 49.1122L109.199 49.202ZM107.855 49.706L107.697 49.1784L107.697 49.1784L107.855 49.706ZM105.965 50.126L105.878 49.5821L105.866 49.5841L105.853 49.5867L105.965 50.126ZM103.781 50.462L103.84 51.0097L103.84 51.0097L103.781 50.462ZM96.2213 49.706L96.015 50.2168L96.0184 50.2181L96.2213 49.706ZM92.5673 47.312L92.1617 47.6847L92.1669 47.6904L92.1723 47.696L92.5673 47.312ZM90.4253 43.658L89.9006 43.8259L89.9038 43.8353L90.4253 43.658ZM104.453 36.728V37.2788H105.034L105.003 36.699L104.453 36.728ZM104.159 35.174L103.629 35.3214L103.632 35.3349L103.637 35.3482L104.159 35.174ZM103.445 33.83L103.012 34.1703L103.019 34.1796L103.027 34.1885L103.445 33.83ZM102.227 32.864L101.969 33.351L101.981 33.3567L102.227 32.864ZM98.6153 32.864L98.839 33.3674L98.8504 33.3623L98.8616 33.3567L98.6153 32.864ZM96.5573 35.174L96.0404 34.9836L96.0374 34.9916L96.0347 34.9998L96.5573 35.174ZM96.1793 36.728L95.6352 36.6421L95.5347 37.2788H96.1793V36.728ZM90.3041 39.122C90.3041 37.2158 90.5902 35.5807 91.146 34.2043L90.1245 33.7917C89.5044 35.3273 89.2024 37.1082 89.2024 39.122H90.3041ZM91.144 34.2092C91.7367 32.7814 92.4973 31.613 93.4188 30.6915L92.6398 29.9125C91.6013 30.951 90.7659 32.2466 90.1265 33.7868L91.144 34.2092ZM93.4188 30.6915C94.3472 29.7631 95.4046 29.0631 96.5939 28.5874L96.1847 27.5646C94.8539 28.0969 93.6714 28.8809 92.6398 29.9125L93.4188 30.6915ZM96.59 28.589C97.8159 28.1092 99.064 27.8708 100.337 27.8708V26.7692C98.9226 26.7692 97.5386 27.0348 96.1886 27.563L96.59 28.589ZM100.337 27.8708C103.351 27.8708 105.673 28.7942 107.37 30.5957L108.172 29.8403C106.229 27.7778 103.595 26.7692 100.337 26.7692V27.8708ZM107.373 30.5986C109.061 32.3642 109.95 35.0189 109.95 38.66H111.052C111.052 34.8531 110.122 31.8798 108.169 29.8374L107.373 30.5986ZM109.95 38.66C109.95 39.0103 109.937 39.4046 109.91 39.8436L111.009 39.9124C111.038 39.4554 111.052 39.0377 111.052 38.66H109.95ZM109.91 39.8414C109.882 40.259 109.854 40.6339 109.826 40.9663L110.924 41.0577C110.953 40.7181 110.981 40.337 111.009 39.9146L109.91 39.8414ZM110.375 40.4612H96.1793V41.5628H110.375V40.4612ZM95.6317 41.0715C95.7888 42.5174 96.475 43.6806 97.6662 44.527L98.3043 43.629C97.3676 42.9634 96.8497 42.0826 96.7269 40.9525L95.6317 41.0715ZM97.6662 44.527C98.8524 45.3699 100.405 45.7628 102.269 45.7628V44.6612C100.55 44.6612 99.2461 44.2981 98.3043 43.629L97.6662 44.527ZM102.269 45.7628C103.449 45.7628 104.601 45.6621 105.727 45.4602L105.532 44.3758C104.473 44.5659 103.386 44.6612 102.269 44.6612V45.7628ZM105.737 45.4581C106.879 45.2297 107.831 44.954 108.581 44.6242L108.137 43.6158C107.487 43.902 106.619 44.1583 105.521 44.3779L105.737 45.4581ZM107.816 44.2098L108.656 49.2918L109.743 49.1122L108.903 44.0302L107.816 44.2098ZM108.953 48.7093C108.656 48.8577 108.241 49.0151 107.697 49.1784L108.014 50.2336C108.589 50.0609 109.07 49.8823 109.446 49.6947L108.953 48.7093ZM107.697 49.1784C107.165 49.3381 106.559 49.4732 105.878 49.5821L106.052 50.6699C106.772 50.5548 107.426 50.4099 108.014 50.2336L107.697 49.1784ZM105.853 49.5867C105.201 49.7226 104.491 49.832 103.723 49.9143L103.84 51.0097C104.639 50.924 105.386 50.8094 106.078 50.6653L105.853 49.5867ZM103.723 49.9143C102.958 49.9962 102.194 50.0372 101.429 50.0372V51.1388C102.233 51.1388 103.037 51.0958 103.84 51.0097L103.723 49.9143ZM101.429 50.0372C99.4943 50.0372 97.8299 49.7509 96.4242 49.1939L96.0184 50.2181C97.5807 50.8371 99.3883 51.1388 101.429 51.1388V50.0372ZM96.4275 49.1952C95.0342 48.6326 93.8829 47.875 92.9622 46.928L92.1723 47.696C93.2117 48.765 94.4963 49.6034 96.015 50.2168L96.4275 49.1952ZM92.9729 46.9393C92.0753 45.9625 91.3994 44.812 90.9468 43.4807L89.9038 43.8353C90.4031 45.304 91.1553 46.5895 92.1617 47.6847L92.9729 46.9393ZM90.9499 43.4901C90.521 42.1498 90.3041 40.6949 90.3041 39.122H89.2024C89.2024 40.7971 89.4336 42.3662 89.9007 43.8259L90.9499 43.4901ZM105.003 36.699C104.973 36.1178 104.866 35.5509 104.682 34.9998L103.637 35.3482C103.789 35.8051 103.878 36.2742 103.903 36.757L105.003 36.699ZM104.69 35.0266C104.529 34.4459 104.253 33.9256 103.864 33.4715L103.027 34.1885C103.31 34.5184 103.51 34.8941 103.629 35.3214L104.69 35.0266ZM103.878 33.4897C103.514 33.0259 103.041 32.6549 102.474 32.3713L101.981 33.3567C102.422 33.5771 102.761 33.8501 103.012 34.1703L103.878 33.4897ZM102.485 32.3772C101.907 32.071 101.209 31.9352 100.421 31.9352V33.0368C101.09 33.0368 101.596 33.153 101.97 33.3508L102.485 32.3772ZM100.421 31.9352C99.656 31.9352 98.9657 32.0729 98.3689 32.3713L98.8616 33.3567C99.2729 33.1511 99.7865 33.0368 100.421 33.0368V31.9352ZM98.3916 32.3606C97.818 32.6156 97.3299 32.9712 96.9371 33.4295L97.7735 34.1465C98.0526 33.8208 98.4046 33.5604 98.839 33.3674L98.3916 32.3606ZM96.9371 33.4295C96.5545 33.8759 96.2568 34.3962 96.0404 34.9836L97.0742 35.3644C97.2497 34.8878 97.4841 34.4841 97.7735 34.1465L96.9371 33.4295ZM96.0347 34.9998C95.857 35.533 95.7239 36.0805 95.6352 36.6421L96.7234 36.8139C96.8027 36.3115 96.9216 35.823 97.0798 35.3482L96.0347 34.9998ZM96.1793 37.2788H104.453V36.1772H96.1793V37.2788ZM124.109 45.17L124.343 45.6684L124.343 45.6684L124.109 45.17ZM123.899 42.566L123.603 43.0307L123.611 43.0356L123.618 43.0402L123.899 42.566ZM121.085 41.264L121.279 40.7487L121.276 40.7476L121.085 41.264ZM118.397 40.13L118.15 40.6227L118.157 40.6261L118.397 40.13ZM116.381 38.744L115.991 39.1336L116.001 39.1434L116.381 38.744ZM115.079 36.77L115.589 36.5622L115.589 36.5622L115.079 36.77ZM116.927 29.126L117.266 29.56L117.266 29.56L116.927 29.126ZM127.133 27.698L127.022 28.2378L127.034 28.2399L127.133 27.698ZM130.073 28.454L130.61 28.5745L130.714 28.1106L130.27 27.9399L130.073 28.454ZM128.981 33.326L128.8 33.8465L129.383 34.0483L129.518 33.4465L128.981 33.326ZM126.587 32.654L126.461 33.1904L126.465 33.1913L126.587 32.654ZM121.421 35.258L121.082 35.6928L121.098 35.7052L121.115 35.7163L121.421 35.258ZM122.429 35.846L122.169 36.332L122.188 36.3421L122.208 36.3506L122.429 35.846ZM124.109 36.518L123.915 37.0338L123.919 37.0351L124.109 36.518ZM127.511 38.03L127.24 38.5102L127.252 38.5164L127.511 38.03ZM129.611 39.626L129.192 39.9845L129.202 39.9952L129.211 40.0054L129.611 39.626ZM130.703 41.516L130.172 41.6645L130.175 41.6743L130.178 41.6839L130.703 41.516ZM128.561 48.908L128.252 48.4521L128.248 48.4545L128.561 48.908ZM116.717 50.084L116.578 50.617L116.58 50.6177L116.717 50.084ZM114.029 49.244L113.489 49.1325L113.399 49.5671L113.805 49.7474L114.029 49.244ZM115.079 44.162L115.281 43.6496L114.672 43.4092L114.539 44.0505L115.079 44.162ZM118.355 45.17L118.234 45.7076L118.247 45.7101L118.355 45.17ZM121.673 46.0568C122.828 46.0568 123.748 45.9485 124.343 45.6684L123.874 44.6716C123.517 44.8395 122.813 44.9552 121.673 44.9552V46.0568ZM124.343 45.6684C124.68 45.5101 124.948 45.2671 125.127 44.9414C125.302 44.6224 125.373 44.2555 125.373 43.868H124.272C124.272 44.1245 124.224 44.2966 124.161 44.4116C124.102 44.5199 124.014 44.6059 123.874 44.6716L124.343 45.6684ZM125.373 43.868C125.373 43.0931 124.885 42.5088 124.179 42.0918L123.618 43.0402C124.145 43.3512 124.272 43.6349 124.272 43.868H125.373ZM124.194 42.1013C123.53 41.6787 122.55 41.2289 121.279 40.7487L120.89 41.7793C122.139 42.2511 123.035 42.6693 123.603 43.0307L124.194 42.1013ZM121.276 40.7476C120.31 40.3887 119.43 40.0174 118.636 39.6339L118.157 40.6261C118.987 41.0266 119.899 41.4113 120.893 41.7804L121.276 40.7476ZM118.643 39.6373C117.901 39.2665 117.276 38.8345 116.76 38.3446L116.001 39.1434C116.606 39.7175 117.324 40.2095 118.15 40.6227L118.643 39.6373ZM116.77 38.3545C116.264 37.848 115.87 37.2523 115.589 36.5622L114.569 36.9778C114.903 37.7997 115.378 38.52 115.991 39.1335L116.77 38.3545ZM115.589 36.5622C115.314 35.8889 115.167 35.0533 115.167 34.04H114.066C114.066 35.1547 114.227 36.1391 114.569 36.9778L115.589 36.5622ZM115.167 34.04C115.167 32.1257 115.868 30.6525 117.266 29.56L116.587 28.692C114.905 30.0075 114.066 31.8103 114.066 34.04H115.167ZM117.266 29.56C118.678 28.4556 120.658 27.8708 123.269 27.8708V26.7692C120.503 26.7692 118.255 27.3884 116.587 28.692L117.266 29.56ZM123.269 27.8708C124.578 27.8708 125.829 27.9936 127.022 28.2377L127.243 27.1583C125.972 26.8984 124.647 26.7692 123.269 26.7692V27.8708ZM127.034 28.2399C128.25 28.461 129.192 28.7056 129.875 28.9681L130.27 27.9399C129.497 27.6424 128.479 27.383 127.231 27.1561L127.034 28.2399ZM129.535 28.3335L128.443 33.2055L129.518 33.4465L130.61 28.5745L129.535 28.3335ZM129.161 32.8055C128.411 32.5459 127.593 32.3165 126.708 32.1167L126.465 33.1913C127.316 33.3835 128.094 33.6021 128.8 33.8465L129.161 32.8055ZM126.712 32.1176C125.823 31.9101 124.827 31.8092 123.731 31.8092V32.9108C124.762 32.9108 125.671 33.0059 126.461 33.1904L126.712 32.1176ZM123.731 31.8092C122.718 31.8092 121.87 31.9471 121.258 32.2883C120.943 32.4635 120.682 32.6974 120.502 32.9986C120.321 33.3005 120.24 33.64 120.24 33.998H121.341C121.341 33.81 121.383 33.6717 121.447 33.5642C121.512 33.4559 121.618 33.3485 121.794 33.2507C122.161 33.0459 122.784 32.9108 123.731 32.9108V31.8092ZM120.24 33.998C120.24 34.3112 120.292 34.6111 120.41 34.887L121.423 34.453C121.373 34.3369 121.341 34.1888 121.341 33.998H120.24ZM120.41 34.887C120.545 35.2008 120.791 35.4658 121.082 35.6928L121.759 34.8232C121.547 34.6582 121.456 34.5312 121.423 34.453L120.41 34.887ZM121.115 35.7163C121.388 35.8983 121.741 36.1037 122.169 36.332L122.688 35.36C122.276 35.1402 121.957 34.9537 121.726 34.7997L121.115 35.7163ZM122.208 36.3506C122.668 36.552 123.238 36.7797 123.915 37.0338L124.302 36.0022C123.635 35.7523 123.085 35.532 122.649 35.3413L122.208 36.3506ZM123.919 37.0351C125.274 37.5328 126.378 38.0251 127.241 38.5101L127.781 37.5499C126.851 37.0269 125.688 36.5112 124.299 36.0009L123.919 37.0351ZM127.252 38.5164C128.105 38.9696 128.745 39.4622 129.192 39.9845L130.029 39.2675C129.469 38.6138 128.708 38.0424 127.769 37.5435L127.252 38.5164ZM129.211 40.0054C129.685 40.5045 130.002 41.0564 130.172 41.6645L131.233 41.3675C131.011 40.5756 130.6 39.8675 130.01 39.2466L129.211 40.0054ZM130.178 41.6839C130.381 42.3177 130.488 43.071 130.488 43.952H131.589C131.589 42.985 131.472 42.1143 131.227 41.3481L130.178 41.6839ZM130.488 43.952C130.488 45.9736 129.736 47.4454 128.252 48.4521L128.87 49.3639C130.689 48.1306 131.589 46.2984 131.589 43.952H130.488ZM128.248 48.4545C126.752 49.4861 124.569 50.0372 121.631 50.0372V51.1388C124.684 51.1388 127.121 50.5699 128.873 49.3615L128.248 48.4545ZM121.631 50.0372C119.698 50.0372 118.11 49.8711 116.853 49.5503L116.58 50.6177C117.956 50.9689 119.643 51.1388 121.631 51.1388V50.0372ZM116.856 49.551C115.568 49.215 114.711 48.9445 114.252 48.7406L113.805 49.7474C114.354 49.9915 115.29 50.281 116.578 50.617L116.856 49.551ZM114.568 49.3555L115.618 44.2735L114.539 44.0505L113.489 49.1325L114.568 49.3555ZM114.876 44.6744C115.967 45.1048 117.086 45.4492 118.234 45.7074L118.476 44.6326C117.383 44.3868 116.318 44.0592 115.281 43.6496L114.876 44.6744ZM118.247 45.7101C119.401 45.9409 120.543 46.0568 121.673 46.0568V44.9552C120.619 44.9552 119.549 44.8471 118.463 44.6299L118.247 45.7101ZM141.973 50V50.5508H142.524V50H141.973ZM135.715 50H135.165V50.5508H135.715V50ZM135.715 27.908V27.3572H135.165V27.908H135.715ZM141.973 27.908H142.524V27.3572H141.973V27.908ZM141.427 24.254L141.792 24.6666L141.793 24.6657L141.427 24.254ZM136.177 24.254L135.804 24.6588L135.812 24.6662L135.82 24.6733L136.177 24.254ZM136.177 18.836L136.542 19.2486L136.543 19.2477L136.177 18.836ZM141.427 18.836L141.054 19.2408L141.062 19.2482L141.07 19.2553L141.427 18.836ZM141.973 49.4492H135.715V50.5508H141.973V49.4492ZM136.266 50V27.908H135.165V50H136.266ZM135.715 28.4588H141.973V27.3572H135.715V28.4588ZM141.423 27.908V50H142.524V27.908H141.423ZM142.011 21.524C142.011 22.5382 141.683 23.2895 141.061 23.8423L141.793 24.6657C142.683 23.8745 143.112 22.8058 143.112 21.524H142.011ZM141.062 23.8414C140.439 24.3928 139.702 24.6692 138.823 24.6692V25.7708C139.96 25.7708 140.96 25.4032 141.792 24.6666L141.062 23.8414ZM138.823 24.6692C137.944 24.6692 137.189 24.3924 136.535 23.8347L135.82 24.6733C136.677 25.4036 137.687 25.7708 138.823 25.7708V24.6692ZM136.551 23.8492C135.954 23.2984 135.636 22.545 135.636 21.524H134.535C134.535 22.799 134.945 23.8656 135.804 24.6588L136.551 23.8492ZM135.636 21.524C135.636 20.5024 135.954 19.7689 136.542 19.2486L135.812 18.4234C134.945 19.1911 134.535 20.2496 134.535 21.524H135.636ZM136.543 19.2477C137.199 18.665 137.951 18.3788 138.823 18.3788V17.2772C137.68 17.2772 136.668 17.663 135.811 18.4243L136.543 19.2477ZM138.823 18.3788C139.696 18.3788 140.429 18.6645 141.054 19.2408L141.801 18.4312C140.969 17.6635 139.967 17.2772 138.823 17.2772V18.3788ZM141.07 19.2553C141.684 19.7778 142.011 20.5094 142.011 21.524H143.112C143.112 20.2426 142.683 19.1822 141.785 18.4167L141.07 19.2553ZM159.238 43.238L159.08 42.7104L159.08 42.7104L159.238 43.238ZM160.666 42.65L160.939 43.1283L161.217 42.9697V42.65H160.666ZM160.666 32.654H161.217V32.1943L160.765 32.1121L160.666 32.654ZM159.574 32.528L159.501 33.074L159.519 33.0764L159.537 33.0776L159.574 32.528ZM154.408 34.082L153.966 33.7533L153.966 33.7533L154.408 34.082ZM164.152 55.25L163.775 54.8485L163.769 54.8545L164.152 55.25ZM151.636 57.518L151.738 56.9765L151.727 56.9747L151.636 57.518ZM147.898 56.594L147.359 56.4818L147.26 56.9581L147.72 57.1153L147.898 56.594ZM148.99 51.344L149.195 50.8326L148.585 50.5885L148.451 51.2318L148.99 51.344ZM152.056 52.268L151.943 52.807L151.945 52.8076L152.056 52.268ZM159.532 51.428L159.135 51.0456L159.128 51.0532L159.532 51.428ZM160.666 47.606H161.217V46.7476L160.437 47.1053L160.666 47.606ZM158.566 48.32L158.674 48.8601L158.682 48.8585L158.69 48.8567L158.566 48.32ZM149.242 45.842L148.831 46.2087L148.834 46.2119L149.242 45.842ZM147.562 33.83L148.076 34.027L148.078 34.0234L147.562 33.83ZM149.746 30.386L149.362 29.9909L149.357 29.9965L149.746 30.386ZM153.316 28.202L153.503 28.7204L153.512 28.7169L153.316 28.202ZM160.372 27.53L160.313 28.0777L160.324 28.0788L160.334 28.0795L160.372 27.53ZM164.992 28.202L164.863 28.7376L164.876 28.7405L164.888 28.7429L164.992 28.202ZM166.924 28.664H167.475V28.2542L167.082 28.1364L166.924 28.664ZM152.639 38.24C152.639 40.0498 153.002 41.5093 153.822 42.5237C154.66 43.5605 155.898 44.0408 157.432 44.0408V42.9392C156.138 42.9392 155.255 42.5445 154.679 41.8313C154.085 41.0957 153.741 39.9302 153.741 38.24H152.639ZM157.432 44.0408C158.124 44.0408 158.78 43.9505 159.396 43.7656L159.08 42.7104C158.576 42.8615 158.028 42.9392 157.432 42.9392V44.0408ZM159.396 43.7656C159.985 43.5889 160.502 43.3781 160.939 43.1283L160.393 42.1717C160.046 42.3699 159.611 42.5511 159.08 42.7104L159.396 43.7656ZM161.217 42.65V32.654H160.115V42.65H161.217ZM160.765 32.1121C160.43 32.0513 160.045 32.0073 159.611 31.9784L159.537 33.0776C159.943 33.1047 160.286 33.1447 160.567 33.1959L160.765 32.1121ZM159.647 31.982C159.196 31.9219 158.681 31.8932 158.104 31.8932V32.9948C158.647 32.9948 159.112 33.0221 159.501 33.074L159.647 31.982ZM158.104 31.8932C156.32 31.8932 154.905 32.4911 153.966 33.7533L154.85 34.4107C155.535 33.4889 156.584 32.9948 158.104 32.9948V31.8932ZM153.966 33.7533C153.068 34.9608 152.639 36.4699 152.639 38.24H153.741C153.741 36.6501 154.124 35.3872 154.85 34.4107L153.966 33.7533ZM166.373 47.228C166.373 50.7537 165.472 53.2544 163.775 54.8485L164.529 55.6515C166.528 53.7736 167.475 50.9263 167.475 47.228H166.373ZM163.769 54.8545C162.094 56.478 159.433 57.3452 155.668 57.3452V58.4468C159.575 58.4468 162.57 57.55 164.535 55.6455L163.769 54.8545ZM155.668 57.3452C154.359 57.3452 153.049 57.2224 151.738 56.9766L151.535 58.0594C152.911 58.3176 154.289 58.4468 155.668 58.4468V57.3452ZM151.727 56.9747C150.409 56.755 149.192 56.4539 148.076 56.0727L147.72 57.1153C148.9 57.5181 150.175 57.833 151.545 58.0613L151.727 56.9747ZM148.437 56.7062L149.529 51.4562L148.451 51.2318L147.359 56.4818L148.437 56.7062ZM148.785 51.8554C149.796 52.2596 150.848 52.5767 151.943 52.807L152.169 51.729C151.136 51.5113 150.144 51.2124 149.195 50.8326L148.785 51.8554ZM151.945 52.8076C153.081 53.0405 154.351 53.1548 155.752 53.1548V52.0532C154.409 52.0532 153.215 51.9435 152.167 51.7284L151.945 52.8076ZM155.752 53.1548C157.599 53.1548 159.051 52.7552 159.936 51.8028L159.128 51.0532C158.557 51.6688 157.49 52.0532 155.752 52.0532V53.1548ZM159.929 51.8104C160.797 50.91 161.217 49.7583 161.217 48.404H160.115C160.115 49.5137 159.779 50.378 159.136 51.0456L159.929 51.8104ZM161.217 48.404V47.606H160.115V48.404H161.217ZM160.437 47.1053C159.799 47.3975 159.134 47.6236 158.442 47.7833L158.69 48.8567C159.454 48.6804 160.189 48.4304 160.896 48.1067L160.437 47.1053ZM158.458 47.7799C157.799 47.9116 157.066 47.9792 156.256 47.9792V49.0808C157.126 49.0808 157.933 49.0084 158.674 48.8601L158.458 47.7799ZM156.256 47.9792C153.316 47.9792 151.144 47.1201 149.65 45.4721L148.834 46.2119C150.588 48.1479 153.092 49.0808 156.256 49.0808V47.9792ZM149.653 45.4753C148.145 43.7857 147.357 41.3983 147.357 38.24H146.255C146.255 41.5777 147.091 44.2583 148.831 46.2087L149.653 45.4753ZM147.357 38.24C147.357 36.6732 147.6 35.2713 148.076 34.027L147.048 33.633C146.516 35.0207 146.255 36.5588 146.255 38.24H147.357ZM148.078 34.0234C148.556 32.7481 149.243 31.6683 150.136 30.7755L149.357 29.9965C148.345 31.0077 147.576 32.2239 147.046 33.6366L148.078 34.0234ZM150.13 30.7811C151.049 29.8884 152.17 29.2001 153.503 28.7203L153.129 27.6837C151.662 28.2119 150.403 28.9796 149.362 29.9909L150.13 30.7811ZM153.512 28.7169C154.839 28.2125 156.353 27.9548 158.062 27.9548V26.8532C156.243 26.8532 154.593 27.1275 153.12 27.6871L153.512 28.7169ZM158.062 27.9548C158.798 27.9548 159.548 27.9957 160.313 28.0777L160.431 26.9823C159.628 26.8963 158.838 26.8532 158.062 26.8532V27.9548ZM160.334 28.0795C161.133 28.1346 161.918 28.2172 162.688 28.3273L162.844 27.2367C162.046 27.1228 161.235 27.0374 160.41 26.9805L160.334 28.0795ZM162.688 28.3273C163.457 28.4371 164.182 28.574 164.863 28.7376L165.121 27.6664C164.402 27.494 163.643 27.3509 162.844 27.2367L162.688 28.3273ZM164.888 28.7429C165.602 28.8803 166.228 29.0302 166.766 29.1916L167.082 28.1364C166.5 27.9618 165.838 27.8037 165.096 27.6611L164.888 28.7429ZM166.373 28.664V47.228H167.475V28.664H166.373ZM172.794 28.664L172.64 28.1349L172.243 28.25V28.664H172.794ZM176.91 27.824L176.991 28.3688L177 28.3673L176.91 27.824ZM186.864 28.16L186.655 28.6698L186.662 28.6726L186.669 28.6753L186.864 28.16ZM189.846 30.218L189.418 30.5654L189.418 30.5654L189.846 30.218ZM191.4 33.41L190.865 33.5436L190.865 33.5436L191.4 33.41ZM191.862 50V50.5508H192.412V50H191.862ZM185.604 50H185.053V50.5508H185.604V50ZM184.806 33.998L184.34 34.2927L184.34 34.2927L184.806 33.998ZM180.396 32.822L180.426 33.372L180.441 33.3711L180.456 33.3695L180.396 32.822ZM179.052 32.948L178.974 32.4027L178.501 32.4703V32.948H179.052ZM179.052 50V50.5508H179.602V50H179.052ZM172.794 50H172.243V50.5508H172.794V50ZM172.947 29.1931C173.978 28.8945 175.324 28.6188 176.991 28.3687L176.828 27.2793C175.135 27.5332 173.737 27.8175 172.64 28.1349L172.947 29.1931ZM177 28.3673C178.648 28.0927 180.381 27.9548 182.202 27.9548V26.8532C180.326 26.8532 178.531 26.9953 176.819 27.2807L177 28.3673ZM182.202 27.9548C184.033 27.9548 185.51 28.2016 186.655 28.6698L187.072 27.6502C185.753 27.1104 184.122 26.8532 182.202 26.8532V27.9548ZM186.669 28.6753C187.853 29.1227 188.761 29.7567 189.418 30.5654L190.273 29.8706C189.474 28.8873 188.394 28.1493 187.058 27.6447L186.669 28.6753ZM189.418 30.5654C190.09 31.3927 190.575 32.3819 190.865 33.5436L191.934 33.2764C191.608 31.9741 191.057 30.8353 190.273 29.8706L189.418 30.5654ZM190.865 33.5436C191.16 34.7245 191.311 36.0508 191.311 37.526H192.412C192.412 35.9772 192.255 34.5595 191.934 33.2764L190.865 33.5436ZM191.311 37.526V50H192.412V37.526H191.311ZM191.862 49.4492H185.604V50.5508H191.862V49.4492ZM186.154 50V38.282H185.053V50H186.154ZM186.154 38.282C186.154 36.2492 185.892 34.684 185.271 33.7033L184.34 34.2927C184.783 34.992 185.053 36.2828 185.053 38.282H186.154ZM185.271 33.7033C184.596 32.6376 183.374 32.1872 181.824 32.1872V33.2888C183.185 33.2888 183.951 33.6784 184.34 34.2927L185.271 33.7033ZM181.824 32.1872C181.353 32.1872 180.856 32.2166 180.335 32.2745L180.456 33.3695C180.943 33.3154 181.398 33.2888 181.824 33.2888V32.1872ZM180.365 32.272C179.849 32.3007 179.385 32.3439 178.974 32.4027L179.129 33.4933C179.502 33.4401 179.934 33.3993 180.426 33.372L180.365 32.272ZM178.501 32.948V50H179.602V32.948H178.501ZM179.052 49.4492H172.794V50.5508H179.052V49.4492ZM173.344 50V28.664H172.243V50H173.344ZM207.322 34.46L206.806 34.2677L206.804 34.2734L207.322 34.46ZM209.59 30.764L209.99 31.1426L209.995 31.1372L209.59 30.764ZM213.16 28.244L213.382 28.7482L213.382 28.7482L213.16 28.244ZM221.182 27.656L221.059 28.193L221.066 28.1947L221.074 28.1961L221.182 27.656ZM224.038 28.538L224.571 28.6769L224.691 28.2166L224.253 28.0309L224.038 28.538ZM222.736 33.536L222.54 34.0507L223.114 34.2695L223.269 33.6749L222.736 33.536ZM220.804 32.948L220.675 33.4836L220.675 33.4836L220.804 32.948ZM214.294 34.418L213.865 34.0726L213.86 34.0791L214.294 34.418ZM214.21 43.574L213.773 43.9099L213.779 43.9168L214.21 43.574ZM221.14 45.002L221.227 45.5458L221.227 45.5458L221.14 45.002ZM223.534 44.33L224.077 44.2366L223.959 43.5521L223.319 43.8227L223.534 44.33ZM224.416 49.454L224.63 49.9613L225.033 49.7911L224.959 49.3606L224.416 49.454ZM221.686 50.252L221.575 49.7124L221.686 50.252ZM212.866 49.706L212.651 50.2134L212.66 50.2168L212.866 49.706ZM209.254 47.228L208.843 47.5947L208.848 47.6007L209.254 47.228ZM207.196 43.574L206.667 43.7295L206.671 43.7419L207.196 43.574ZM207.117 38.954C207.117 37.417 207.359 35.9825 207.84 34.6466L206.804 34.2734C206.276 35.7375 206.015 37.299 206.015 38.954H207.117ZM207.838 34.6523C208.346 33.2887 209.064 32.1213 209.99 31.1425L209.19 30.3855C208.155 31.4787 207.362 32.7753 206.806 34.2677L207.838 34.6523ZM209.995 31.1372C210.921 30.1322 212.047 29.3354 213.382 28.7482L212.938 27.7398C211.473 28.3846 210.219 29.2678 209.185 30.3908L209.995 31.1372ZM213.382 28.7482C214.701 28.1678 216.219 27.8708 217.948 27.8708V26.7692C216.092 26.7692 214.419 27.0882 212.938 27.7398L213.382 28.7482ZM217.948 27.8708C219.089 27.8708 220.125 27.9796 221.059 28.193L221.305 27.119C220.278 26.8844 219.158 26.7692 217.948 26.7692V27.8708ZM221.074 28.1961C222.017 28.3848 222.933 28.6677 223.823 29.0451L224.253 28.0309C223.295 27.6243 222.307 27.3192 221.29 27.1159L221.074 28.1961ZM223.505 28.3991L222.203 33.3971L223.269 33.6749L224.571 28.6769L223.505 28.3991ZM222.932 33.0213C222.319 32.7878 221.652 32.5851 220.932 32.4124L220.675 33.4836C221.355 33.6469 221.977 33.8362 222.54 34.0507L222.932 33.0213ZM220.932 32.4124C220.183 32.2325 219.355 32.1452 218.452 32.1452V33.2468C219.285 33.2468 220.025 33.3275 220.675 33.4836L220.932 32.4124ZM218.452 32.1452C216.483 32.1452 214.919 32.7625 213.865 34.0726L214.723 34.7634C215.516 33.7775 216.724 33.2468 218.452 33.2468V32.1452ZM213.86 34.0791C212.869 35.3487 212.399 36.9909 212.399 38.954H213.501C213.501 37.1651 213.927 35.7833 214.728 34.7569L213.86 34.0791ZM212.399 38.954C212.399 41.0114 212.833 42.6871 213.773 43.9098L214.646 43.2382C213.907 42.2769 213.501 40.8726 213.501 38.954H212.399ZM213.779 43.9168C214.797 45.1974 216.498 45.7628 218.704 45.7628V44.6612C216.654 44.6612 215.359 44.1346 214.641 43.2312L213.779 43.9168ZM218.704 45.7628C219.493 45.7628 220.335 45.6897 221.227 45.5458L221.052 44.4582C220.209 44.5943 219.426 44.6612 218.704 44.6612V45.7628ZM221.227 45.5458C222.134 45.3995 222.975 45.1643 223.748 44.8373L223.319 43.8227C222.636 44.1117 221.881 44.3245 221.052 44.4582L221.227 45.5458ZM222.991 44.4234L223.873 49.5474L224.959 49.3606L224.077 44.2366L222.991 44.4234ZM224.201 48.9467C223.517 49.2361 222.645 49.493 221.575 49.7124L221.796 50.7916C222.911 50.563 223.858 50.2879 224.63 49.9613L224.201 48.9467ZM221.575 49.7124C220.525 49.9277 219.359 50.0372 218.074 50.0372V51.1388C219.421 51.1388 220.662 51.0243 221.796 50.7916L221.575 49.7124ZM218.074 50.0372C216.109 50.0372 214.447 49.7504 213.072 49.1952L212.66 50.2168C214.197 50.8376 216.006 51.1388 218.074 51.1388V50.0372ZM213.08 49.1987C211.688 48.6096 210.552 47.8265 209.659 46.8553L208.848 47.6007C209.86 48.7015 211.132 49.5704 212.651 50.2133L213.08 49.1987ZM209.665 46.8614C208.795 45.8863 208.146 44.7371 207.72 43.4061L206.671 43.7419C207.141 45.2109 207.864 46.4977 208.843 47.5946L209.665 46.8614ZM207.724 43.4186C207.321 42.0462 207.117 40.5591 207.117 38.954H206.015C206.015 40.6529 206.231 42.2458 206.667 43.7294L207.724 43.4186ZM247.457 43.7L247.977 43.8833L247.978 43.8802L247.457 43.7ZM245.273 47.396L245.674 47.7743L245.679 47.7687L245.273 47.396ZM241.829 49.748L241.618 49.2395L241.614 49.2411L241.829 49.748ZM232.925 49.748L232.71 50.2549L232.714 50.2565L232.925 49.748ZM229.523 47.396L229.118 47.7687L229.123 47.7742L229.523 47.396ZM227.297 43.7L226.78 43.889L226.781 43.8923L227.297 43.7ZM227.297 34.166L226.784 33.9649L226.781 33.9737L227.297 34.166ZM229.565 30.512L229.17 30.128L229.165 30.1338L229.565 30.512ZM233.009 28.16L232.798 27.6515L232.794 27.6531L233.009 28.16ZM241.745 28.16L241.53 28.6669L241.534 28.6685L241.745 28.16ZM245.189 30.512L244.789 30.8902L244.789 30.8902L245.189 30.512ZM247.415 34.166L246.899 34.3583L246.899 34.3583L247.415 34.166ZM240.653 34.376L240.197 34.6842L240.201 34.6908L240.206 34.6972L240.653 34.376ZM234.059 34.376L234.507 34.6973L234.511 34.6919L234.059 34.376ZM234.059 43.532L233.604 43.8427L233.608 43.8479L234.059 43.532ZM240.653 43.532L240.198 43.2213L240.197 43.2238L240.653 43.532ZM247.663 38.912C247.663 40.5944 247.418 42.1286 246.937 43.5198L247.978 43.8802C248.504 42.3594 248.764 40.7016 248.764 38.912H247.663ZM246.938 43.5167C246.457 44.8799 245.766 46.0462 244.868 47.0233L245.679 47.7687C246.685 46.6738 247.45 45.3761 247.977 43.8833L246.938 43.5167ZM244.873 47.0178C243.977 47.9668 242.894 48.7077 241.618 49.2395L242.041 50.2565C243.453 49.6683 244.666 48.8412 245.674 47.7742L244.873 47.0178ZM241.614 49.2411C240.376 49.768 238.967 50.0372 237.377 50.0372V51.1388C239.092 51.1388 240.651 50.848 242.045 50.2549L241.614 49.2411ZM237.377 50.0372C235.818 50.0372 234.407 49.7685 233.137 49.2395L232.714 50.2565C234.132 50.8475 235.689 51.1388 237.377 51.1388V50.0372ZM233.141 49.2411C231.893 48.7099 230.822 47.9689 229.924 47.0178L229.123 47.7742C230.129 48.8391 231.326 49.6661 232.71 50.2549L233.141 49.2411ZM229.929 47.0233C229.029 46.0439 228.323 44.8746 227.814 43.5077L226.781 43.8923C227.336 45.3814 228.114 46.6761 229.118 47.7687L229.929 47.0233ZM227.815 43.511C227.307 42.1223 227.05 40.5912 227.05 38.912H225.949C225.949 40.7048 226.223 42.3657 226.78 43.889L227.815 43.511ZM227.05 38.912C227.05 37.2326 227.307 35.7168 227.814 34.3583L226.781 33.9737C226.223 35.4712 225.949 37.1194 225.949 38.912H227.05ZM227.81 34.3671C228.347 32.9978 229.067 31.8417 229.966 30.8902L229.165 30.1338C228.16 31.1983 227.368 32.4782 226.785 33.9649L227.81 34.3671ZM229.96 30.896C230.888 29.9414 231.975 29.1987 233.225 28.6669L232.794 27.6531C231.412 28.2413 230.202 29.0666 229.17 30.128L229.96 30.896ZM233.221 28.6685C234.493 28.1385 235.876 27.8708 237.377 27.8708V26.7692C235.742 26.7692 234.214 27.0615 232.798 27.6515L233.221 28.6685ZM237.377 27.8708C238.908 27.8708 240.289 28.1391 241.53 28.6669L241.961 27.6531C240.569 27.0609 239.039 26.7692 237.377 26.7692V27.8708ZM241.534 28.6685C242.81 29.2003 243.893 29.9412 244.789 30.8902L245.59 30.1338C244.582 29.0668 243.369 28.2397 241.957 27.6515L241.534 28.6685ZM244.789 30.8902C245.685 31.8395 246.39 32.9925 246.899 34.3583L247.932 33.9737C247.376 32.4835 246.597 31.2005 245.59 30.1338L244.789 30.8902ZM246.899 34.3583C247.405 35.7168 247.663 37.2326 247.663 38.912H248.764C248.764 37.1194 248.489 35.4712 247.932 33.9737L246.899 34.3583ZM242.38 38.912C242.38 36.9132 241.976 35.2733 241.101 34.0547L240.206 34.6972C240.899 35.6627 241.279 37.0468 241.279 38.912H242.38ZM241.11 34.0678C240.245 32.7861 238.976 32.1452 237.377 32.1452V33.2468C238.635 33.2468 239.55 33.7259 240.197 34.6842L241.11 34.0678ZM237.377 32.1452C235.779 32.1452 234.501 32.7853 233.608 34.0601L234.511 34.6919C235.186 33.7267 236.12 33.2468 237.377 33.2468V32.1452ZM233.612 34.0547C232.737 35.2733 232.333 36.9132 232.333 38.912H233.434C233.434 37.0468 233.814 35.6627 234.507 34.6972L233.612 34.0547ZM232.333 38.912C232.333 40.913 232.738 42.5738 233.604 43.8426L234.514 43.2214C233.813 42.1942 233.434 40.775 233.434 38.912H232.333ZM233.608 43.8479C234.501 45.1227 235.779 45.7628 237.377 45.7628V44.6612C236.12 44.6612 235.186 44.1813 234.511 43.2161L233.608 43.8479ZM237.377 45.7628C238.976 45.7628 240.245 45.1219 241.11 43.8402L240.197 43.2238C239.55 44.1821 238.635 44.6612 237.377 44.6612V45.7628ZM241.108 43.8426C241.975 42.5738 242.38 40.913 242.38 38.912H241.279C241.279 40.775 240.9 42.1942 240.198 43.2214L241.108 43.8426ZM271.919 49.244L272.072 49.7731L272.47 49.658V49.244H271.919ZM267.803 50.084L267.721 49.5392L267.713 49.5407L267.803 50.084ZM257.807 49.748L257.599 50.2578L257.603 50.2594L257.807 49.748ZM254.867 47.648L254.434 47.9889L254.44 47.9954L254.867 47.648ZM252.851 27.908V27.3572H252.3V27.908H252.851ZM259.109 27.908H259.66V27.3572H259.109V27.908ZM259.907 43.826L259.433 44.1072L259.433 44.1072L259.907 43.826ZM264.317 45.128L264.348 45.678L264.363 45.6771L264.378 45.6755L264.317 45.128ZM265.661 44.96L265.739 45.5053L266.212 45.4377V44.96H265.661ZM265.661 27.908V27.3572H265.11V27.908H265.661ZM271.919 27.908H272.47V27.3572H271.919V27.908ZM271.766 48.7149C270.734 49.0135 269.389 49.2892 267.721 49.5393L267.885 50.6287C269.578 50.3748 270.976 50.0905 272.072 49.7731L271.766 48.7149ZM267.713 49.5407C266.065 49.8153 264.331 49.9532 262.511 49.9532V51.0548C264.387 51.0548 266.181 50.9127 267.894 50.6273L267.713 49.5407ZM262.511 49.9532C260.68 49.9532 259.187 49.7066 258.012 49.2366L257.603 50.2594C258.947 50.7974 260.59 51.0548 262.511 51.0548V49.9532ZM258.016 49.2382C256.856 48.7637 255.956 48.1147 255.295 47.3006L254.44 47.9954C255.234 48.9733 256.294 49.7243 257.599 50.2578L258.016 49.2382ZM255.3 47.3071C254.625 46.4511 254.139 45.4326 253.848 44.2412L252.778 44.5028C253.103 45.8314 253.653 46.9969 254.434 47.9889L255.3 47.3071ZM253.848 44.2412C253.552 43.0304 253.402 41.689 253.402 40.214H252.3C252.3 41.763 252.458 43.1936 252.778 44.5028L253.848 44.2412ZM253.402 40.214V27.908H252.3V40.214H253.402ZM252.851 28.4588H259.109V27.3572H252.851V28.4588ZM258.558 27.908V39.458H259.66V27.908H258.558ZM258.558 39.458C258.558 41.4961 258.822 43.0781 259.433 44.1072L260.381 43.5448C259.928 42.7819 259.66 41.4519 259.66 39.458H258.558ZM259.433 44.1072C260.102 45.233 261.325 45.7208 262.889 45.7208V44.6192C261.542 44.6192 260.776 44.211 260.381 43.5448L259.433 44.1072ZM262.889 45.7208C263.348 45.7208 263.835 45.7065 264.348 45.678L264.287 44.578C263.791 44.6055 263.326 44.6192 262.889 44.6192V45.7208ZM264.378 45.6755C264.886 45.619 265.34 45.5623 265.739 45.5053L265.583 44.4147C265.198 44.4697 264.756 44.525 264.256 44.5805L264.378 45.6755ZM266.212 44.96V27.908H265.11V44.96H266.212ZM265.661 28.4588H271.919V27.3572H265.661V28.4588ZM271.368 27.908V49.244H272.47V27.908H271.368ZM291.108 33.452L290.974 33.9864L291.533 34.1261L291.647 33.5617L291.108 33.452ZM289.134 33.032L289.014 33.5697L289.024 33.5718L289.033 33.5736L289.134 33.032ZM285.27 32.906L285.327 33.4538L285.339 33.4525L285.351 33.4507L285.27 32.906ZM284.052 33.116L283.893 32.5884L283.501 32.7062V33.116H284.052ZM284.052 50V50.5508H284.602V50H284.052ZM277.794 50H277.243V50.5508H277.794V50ZM277.794 29.084L277.612 28.5641L277.243 28.6932V29.084H277.794ZM281.742 27.992L281.861 28.5298L281.868 28.5281L281.742 27.992ZM288.084 27.53L288.019 28.0771L288.035 28.0789L288.051 28.0799L288.084 27.53ZM289.512 27.698L289.416 28.2405L289.431 28.2432L289.447 28.2451L289.512 27.698ZM290.94 27.95L290.813 28.4862L290.828 28.4897L290.844 28.4925L290.94 27.95ZM292.158 28.286L292.697 28.3957L292.788 27.9518L292.369 27.7775L292.158 28.286ZM291.241 32.9176C290.667 32.7741 289.998 32.6318 289.234 32.4904L289.033 33.5736C289.781 33.7122 290.428 33.8499 290.974 33.9864L291.241 32.9176ZM289.253 32.4943C288.453 32.3166 287.601 32.2292 286.698 32.2292V33.3308C287.53 33.3308 288.302 33.4114 289.014 33.5697L289.253 32.4943ZM286.698 32.2292C286.269 32.2292 285.764 32.2748 285.188 32.3613L285.351 33.4507C285.895 33.3692 286.342 33.3308 286.698 33.3308V32.2292ZM285.212 32.3582C284.669 32.4154 284.223 32.4896 283.893 32.5884L284.21 33.6436C284.44 33.5744 284.806 33.5086 285.327 33.4538L285.212 32.3582ZM283.501 33.116V50H284.602V33.116H283.501ZM284.052 49.4492H277.794V50.5508H284.052V49.4492ZM278.344 50V29.084H277.243V50H278.344ZM277.975 29.6039C279.07 29.2208 280.364 28.8623 281.861 28.5297L281.622 27.4543C280.095 27.7937 278.757 28.1632 277.612 28.5641L277.975 29.6039ZM281.868 28.5281C283.36 28.1755 285.025 27.9968 286.866 27.9968V26.8952C284.954 26.8952 283.203 27.0805 281.615 27.4559L281.868 28.5281ZM286.866 27.9968C287.173 27.9968 287.556 28.0226 288.019 28.0771L288.148 26.9829C287.659 26.9254 287.23 26.8952 286.866 26.8952V27.9968ZM288.051 28.0799C288.506 28.1066 288.96 28.1601 289.416 28.2405L289.607 27.1555C289.111 27.0679 288.613 27.0094 288.116 26.9801L288.051 28.0799ZM289.447 28.2451C289.902 28.2986 290.357 28.3789 290.813 28.4862L291.066 27.4138C290.57 27.2971 290.073 27.2094 289.576 27.1509L289.447 28.2451ZM290.844 28.4925C291.292 28.5716 291.657 28.6741 291.946 28.7945L292.369 27.7775C291.986 27.6179 291.539 27.4964 291.035 27.4075L290.844 28.4925ZM291.618 28.1763L290.568 33.3423L291.647 33.5617L292.697 28.3957L291.618 28.1763ZM304.29 45.17L304.525 45.6684L304.525 45.6684L304.29 45.17ZM304.08 42.566L303.785 43.0307L303.792 43.0356L303.8 43.0402L304.08 42.566ZM301.266 41.264L301.461 40.7487L301.458 40.7476L301.266 41.264ZM298.578 40.13L298.332 40.6227L298.339 40.6261L298.578 40.13ZM296.562 38.744L296.173 39.1336L296.183 39.1434L296.562 38.744ZM295.26 36.77L295.77 36.5622L295.77 36.5622L295.26 36.77ZM297.108 29.126L297.448 29.56L297.448 29.56L297.108 29.126ZM307.314 27.698L307.204 28.2378L307.216 28.2399L307.314 27.698ZM310.254 28.454L310.792 28.5745L310.896 28.1106L310.452 27.9399L310.254 28.454ZM309.162 33.326L308.982 33.8465L309.565 34.0483L309.7 33.4465L309.162 33.326ZM306.768 32.654L306.643 33.1904L306.647 33.1913L306.768 32.654ZM301.602 35.258L301.264 35.6928L301.28 35.7052L301.297 35.7163L301.602 35.258ZM302.61 35.846L302.351 36.332L302.37 36.3421L302.389 36.3506L302.61 35.846ZM304.29 36.518L304.097 37.0338L304.1 37.0351L304.29 36.518ZM307.692 38.03L307.422 38.5102L307.434 38.5164L307.692 38.03ZM309.792 39.626L309.374 39.9845L309.383 39.9952L309.393 40.0054L309.792 39.626ZM310.884 41.516L310.354 41.6645L310.357 41.6743L310.36 41.6839L310.884 41.516ZM308.742 48.908L308.433 48.4521L308.43 48.4545L308.742 48.908ZM296.898 50.084L296.759 50.617L296.762 50.6177L296.898 50.084ZM294.21 49.244L293.671 49.1325L293.581 49.5671L293.987 49.7474L294.21 49.244ZM295.26 44.162L295.463 43.6496L294.853 43.4092L294.721 44.0505L295.26 44.162ZM298.536 45.17L298.415 45.7076L298.428 45.7101L298.536 45.17ZM301.854 46.0568C303.01 46.0568 303.93 45.9485 304.525 45.6684L304.056 44.6716C303.699 44.8395 302.995 44.9552 301.854 44.9552V46.0568ZM304.525 45.6684C304.861 45.5101 305.13 45.2671 305.309 44.9414C305.484 44.6224 305.555 44.2555 305.555 43.868H304.453C304.453 44.1245 304.406 44.2966 304.343 44.4116C304.283 44.5199 304.195 44.6059 304.056 44.6716L304.525 45.6684ZM305.555 43.868C305.555 43.0931 305.066 42.5088 304.36 42.0918L303.8 43.0402C304.326 43.3512 304.453 43.6349 304.453 43.868H305.555ZM304.376 42.1013C303.712 41.6787 302.732 41.2289 301.461 40.7487L301.072 41.7793C302.321 42.2511 303.217 42.6693 303.785 43.0307L304.376 42.1013ZM301.458 40.7476C300.492 40.3887 299.612 40.0174 298.818 39.6339L298.339 40.6261C299.169 41.0266 300.081 41.4113 301.074 41.7804L301.458 40.7476ZM298.825 39.6373C298.083 39.2665 297.457 38.8345 296.942 38.3446L296.183 39.1434C296.787 39.7175 297.506 40.2095 298.332 40.6227L298.825 39.6373ZM296.952 38.3545C296.445 37.848 296.052 37.2523 295.77 36.5622L294.75 36.9778C295.085 37.7997 295.559 38.52 296.173 39.1335L296.952 38.3545ZM295.77 36.5622C295.496 35.8889 295.349 35.0533 295.349 34.04H294.247C294.247 35.1547 294.408 36.1391 294.75 36.9778L295.77 36.5622ZM295.349 34.04C295.349 32.1257 296.05 30.6525 297.448 29.56L296.769 28.692C295.086 30.0075 294.247 31.8103 294.247 34.04H295.349ZM297.448 29.56C298.86 28.4556 300.84 27.8708 303.45 27.8708V26.7692C300.685 26.7692 298.436 27.3884 296.769 28.692L297.448 29.56ZM303.45 27.8708C304.76 27.8708 306.011 27.9936 307.204 28.2377L307.425 27.1583C306.154 26.8984 304.829 26.7692 303.45 26.7692V27.8708ZM307.216 28.2399C308.432 28.461 309.374 28.7056 310.057 28.9681L310.452 27.9399C309.679 27.6424 308.661 27.383 307.413 27.1561L307.216 28.2399ZM309.717 28.3335L308.625 33.2055L309.7 33.4465L310.792 28.5745L309.717 28.3335ZM309.342 32.8055C308.592 32.5459 307.775 32.3165 306.89 32.1167L306.647 33.1913C307.498 33.3835 308.276 33.6021 308.982 33.8465L309.342 32.8055ZM306.893 32.1176C306.004 31.9101 305.009 31.8092 303.912 31.8092V32.9108C304.943 32.9108 305.852 33.0059 306.643 33.1904L306.893 32.1176ZM303.912 31.8092C302.899 31.8092 302.052 31.9471 301.439 32.2883C301.125 32.4635 300.864 32.6974 300.683 32.9986C300.503 33.3005 300.421 33.64 300.421 33.998H301.523C301.523 33.81 301.564 33.6717 301.629 33.5642C301.694 33.4559 301.8 33.3485 301.975 33.2507C302.343 33.0459 302.965 32.9108 303.912 32.9108V31.8092ZM300.421 33.998C300.421 34.3112 300.474 34.6111 300.592 34.887L301.605 34.453C301.555 34.3369 301.523 34.1888 301.523 33.998H300.421ZM300.592 34.887C300.726 35.2008 300.972 35.4658 301.264 35.6928L301.94 34.8232C301.728 34.6582 301.638 34.5312 301.605 34.453L300.592 34.887ZM301.297 35.7163C301.57 35.8983 301.923 36.1037 302.351 36.332L302.869 35.36C302.458 35.1402 302.139 34.9537 301.908 34.7997L301.297 35.7163ZM302.389 36.3506C302.85 36.552 303.419 36.7797 304.097 37.0338L304.484 36.0022C303.817 35.7523 303.267 35.532 302.831 35.3413L302.389 36.3506ZM304.1 37.0351C305.455 37.5328 306.56 38.0251 307.422 38.5101L307.962 37.5499C307.032 37.0269 305.869 36.5112 304.48 36.0009L304.1 37.0351ZM307.434 38.5164C308.287 38.9696 308.926 39.4622 309.374 39.9845L310.21 39.2675C309.65 38.6138 308.89 38.0424 307.951 37.5435L307.434 38.5164ZM309.393 40.0054C309.867 40.5045 310.184 41.0564 310.354 41.6645L311.415 41.3675C311.193 40.5756 310.781 39.8675 310.192 39.2466L309.393 40.0054ZM310.36 41.6839C310.562 42.3177 310.669 43.071 310.669 43.952H311.771C311.771 42.985 311.654 42.1143 311.409 41.3481L310.36 41.6839ZM310.669 43.952C310.669 45.9736 309.918 47.4454 308.433 48.4521L309.051 49.3639C310.871 48.1306 311.771 46.2984 311.771 43.952H310.669ZM308.43 48.4545C306.934 49.4861 304.751 50.0372 301.812 50.0372V51.1388C304.866 51.1388 307.303 50.5699 309.055 49.3615L308.43 48.4545ZM301.812 50.0372C299.88 50.0372 298.291 49.8711 297.035 49.5503L296.762 50.6177C298.137 50.9689 299.825 51.1388 301.812 51.1388V50.0372ZM297.037 49.551C295.749 49.215 294.893 48.9445 294.434 48.7406L293.987 49.7474C294.536 49.9915 295.471 50.281 296.759 50.617L297.037 49.551ZM294.75 49.3555L295.8 44.2735L294.721 44.0505L293.671 49.1325L294.75 49.3555ZM295.058 44.6744C296.149 45.1048 297.268 45.4492 298.415 45.7074L298.657 44.6326C297.565 44.3868 296.5 44.0592 295.463 43.6496L295.058 44.6744ZM298.428 45.7101C299.582 45.9409 300.724 46.0568 301.854 46.0568V44.9552C300.8 44.9552 299.73 44.8471 298.644 44.6299L298.428 45.7101ZM315.729 33.998L315.22 33.7868L315.218 33.7917L315.729 33.998ZM318.123 30.302L317.734 29.9125L317.734 29.9125L318.123 30.302ZM321.483 28.076L321.282 27.563L321.278 27.5646L321.483 28.076ZM332.865 30.218L332.464 30.5957L332.467 30.5986L332.865 30.218ZM335.553 39.878L336.103 39.9146L336.103 39.9124L335.553 39.878ZM335.469 41.012V41.5628H335.976L336.018 41.0577L335.469 41.012ZM321.273 41.012V40.4612H320.659L320.725 41.0715L321.273 41.012ZM323.079 44.078L322.76 44.527L322.76 44.527L323.079 44.078ZM330.723 44.918L330.82 45.4603L330.831 45.4581L330.723 44.918ZM333.453 44.12L333.996 44.0302L333.881 43.33L333.231 43.6158L333.453 44.12ZM334.293 49.202L334.539 49.6947L334.903 49.513L334.836 49.1122L334.293 49.202ZM332.949 49.706L332.791 49.1784L332.791 49.1784L332.949 49.706ZM331.059 50.126L330.972 49.5821L330.959 49.5841L330.947 49.5867L331.059 50.126ZM328.875 50.462L328.934 51.0097L328.934 51.0097L328.875 50.462ZM321.315 49.706L321.109 50.2168L321.112 50.2181L321.315 49.706ZM317.661 47.312L317.255 47.6847L317.261 47.6904L317.266 47.696L317.661 47.312ZM315.519 43.658L314.994 43.8259L314.998 43.8353L315.519 43.658ZM329.547 36.728V37.2788H330.128L330.097 36.699L329.547 36.728ZM329.253 35.174L328.722 35.3214L328.726 35.3349L328.73 35.3482L329.253 35.174ZM328.539 33.83L328.106 34.1703L328.113 34.1796L328.121 34.1885L328.539 33.83ZM327.321 32.864L327.063 33.351L327.075 33.3567L327.321 32.864ZM323.709 32.864L323.933 33.3674L323.944 33.3623L323.955 33.3567L323.709 32.864ZM321.651 35.174L321.134 34.9836L321.131 34.9916L321.128 34.9998L321.651 35.174ZM321.273 36.728L320.729 36.6421L320.628 37.2788H321.273V36.728ZM315.398 39.122C315.398 37.2158 315.684 35.5807 316.24 34.2043L315.218 33.7917C314.598 35.3273 314.296 37.1082 314.296 39.122H315.398ZM316.238 34.2092C316.83 32.7814 317.591 31.613 318.513 30.6915L317.734 29.9125C316.695 30.951 315.86 32.2466 315.22 33.7868L316.238 34.2092ZM318.513 30.6915C319.441 29.7631 320.498 29.0631 321.688 28.5874L321.278 27.5646C319.948 28.0969 318.765 28.8809 317.734 29.9125L318.513 30.6915ZM321.684 28.589C322.91 28.1092 324.158 27.8708 325.431 27.8708V26.7692C324.016 26.7692 322.632 27.0348 321.282 27.563L321.684 28.589ZM325.431 27.8708C328.445 27.8708 330.767 28.7942 332.464 30.5957L333.266 29.8403C331.323 27.7778 328.689 26.7692 325.431 26.7692V27.8708ZM332.467 30.5986C334.155 32.3642 335.044 35.0189 335.044 38.66H336.146C336.146 34.8531 335.215 31.8798 333.263 29.8374L332.467 30.5986ZM335.044 38.66C335.044 39.0103 335.031 39.4046 335.003 39.8436L336.103 39.9124C336.131 39.4554 336.146 39.0377 336.146 38.66H335.044ZM335.003 39.8414C334.976 40.259 334.948 40.6339 334.92 40.9663L336.018 41.0577C336.046 40.7181 336.074 40.337 336.103 39.9146L335.003 39.8414ZM335.469 40.4612H321.273V41.5628H335.469V40.4612ZM320.725 41.0715C320.883 42.5174 321.569 43.6806 322.76 44.527L323.398 43.629C322.461 42.9634 321.943 42.0826 321.821 40.9525L320.725 41.0715ZM322.76 44.527C323.946 45.3699 325.498 45.7628 327.363 45.7628V44.6612C325.644 44.6612 324.34 44.2981 323.398 43.629L322.76 44.527ZM327.363 45.7628C328.543 45.7628 329.695 45.6621 330.82 45.4602L330.626 44.3758C329.567 44.5659 328.48 44.6612 327.363 44.6612V45.7628ZM330.831 45.4581C331.973 45.2297 332.925 44.954 333.675 44.6242L333.231 43.6158C332.581 43.902 331.713 44.1583 330.615 44.3779L330.831 45.4581ZM332.91 44.2098L333.75 49.2918L334.836 49.1122L333.996 44.0302L332.91 44.2098ZM334.047 48.7093C333.75 48.8577 333.335 49.0151 332.791 49.1784L333.107 50.2336C333.683 50.0609 334.164 49.8823 334.539 49.6947L334.047 48.7093ZM332.791 49.1784C332.258 49.3381 331.653 49.4732 330.972 49.5821L331.146 50.6699C331.865 50.5548 332.52 50.4099 333.107 50.2336L332.791 49.1784ZM330.947 49.5867C330.295 49.7226 329.585 49.832 328.816 49.9143L328.934 51.0097C329.733 50.924 330.479 50.8094 331.171 50.6653L330.947 49.5867ZM328.816 49.9143C328.052 49.9962 327.287 50.0372 326.523 50.0372V51.1388C327.327 51.1388 328.13 51.0958 328.934 51.0097L328.816 49.9143ZM326.523 50.0372C324.588 50.0372 322.924 49.7509 321.518 49.1939L321.112 50.2181C322.674 50.8371 324.482 51.1388 326.523 51.1388V50.0372ZM321.521 49.1952C320.128 48.6326 318.977 47.875 318.056 46.928L317.266 47.696C318.305 48.765 319.59 49.6034 321.109 50.2168L321.521 49.1952ZM318.067 46.9393C317.169 45.9625 316.493 44.812 316.041 43.4807L314.998 43.8353C315.497 45.304 316.249 46.5895 317.255 47.6847L318.067 46.9393ZM316.044 43.4901C315.615 42.1498 315.398 40.6949 315.398 39.122H314.296C314.296 40.7971 314.527 42.3662 314.994 43.8259L316.044 43.4901ZM330.097 36.699C330.067 36.1178 329.959 35.5509 329.776 34.9998L328.73 35.3482C328.883 35.8051 328.972 36.2742 328.997 36.757L330.097 36.699ZM329.784 35.0266C329.622 34.4459 329.346 33.9256 328.957 33.4715L328.121 34.1885C328.404 34.5184 328.604 34.8941 328.722 35.3214L329.784 35.0266ZM328.972 33.4897C328.608 33.0259 328.135 32.6549 327.567 32.3713L327.075 33.3567C327.515 33.5771 327.854 33.8501 328.106 34.1703L328.972 33.4897ZM327.579 32.3772C327 32.071 326.303 31.9352 325.515 31.9352V33.0368C326.183 33.0368 326.69 33.153 327.063 33.3508L327.579 32.3772ZM325.515 31.9352C324.75 31.9352 324.059 32.0729 323.463 32.3713L323.955 33.3567C324.367 33.1511 324.88 33.0368 325.515 33.0368V31.9352ZM323.485 32.3606C322.912 32.6156 322.424 32.9712 322.031 33.4295L322.867 34.1465C323.146 33.8208 323.498 33.5604 323.933 33.3674L323.485 32.3606ZM322.031 33.4295C321.648 33.8759 321.351 34.3962 321.134 34.9836L322.168 35.3644C322.343 34.8878 322.578 34.4841 322.867 34.1465L322.031 33.4295ZM321.128 34.9998C320.951 35.533 320.818 36.0805 320.729 36.6421L321.817 36.8139C321.896 36.3115 322.015 35.823 322.174 35.3482L321.128 34.9998ZM321.273 37.2788H329.547V36.1772H321.273V37.2788Z" fill="#BDBDBD"/>
</g>
<defs>
<clipPath id="clip0_141_4042">
<rect width="400" height="60" fill="white"/>
</clipPath>
</defs>
</svg>
