<svg width="30" height="228" viewBox="0 0 30 228" fill="none" xmlns="http://www.w3.org/2000/svg">
<path d="M28.9033 5.36938L28.9033 13.354L18.2105 19.9379L28.9033 26.475L28.9033 34.5531L1.35403 34.5531L1.35403 26.9887L17.1366 26.9887L6.39678 19.9379L17.0899 12.9805L1.35403 12.9805L1.35403 5.46272L28.9033 5.36938Z" fill="#00FF63"/>
<path d="M13.4476 62.7572L28.9033 62.7572L28.9033 70.5085L13.5878 70.5084C9.61885 70.5084 7.70435 72.5163 7.70435 75.5981C7.70435 78.6799 9.52528 80.6878 13.4009 80.6878L28.9033 80.6878L28.9033 88.4389L13.6346 88.4389C11.8925 88.6452 10.126 88.4514 8.47014 87.8722C6.81422 87.293 5.31231 86.3437 4.07861 85.0965C2.84491 83.8493 1.91206 82.337 1.3509 80.6749C0.789735 79.0128 0.615224 77.2445 0.840467 75.5047C0.623851 73.7913 0.79948 72.0511 1.35432 70.4155C1.90916 68.78 2.82853 67.292 4.04298 66.0641C5.25744 64.8361 6.73511 63.9004 8.3644 63.3275C9.99369 62.7546 11.7319 62.5596 13.4476 62.7572Z" fill="#00FF63"/>
<path d="M5.46296 114.447L10.5057 118.696C8.41417 121.203 7.24435 124.35 7.19061 127.615C7.19061 129.669 7.93759 130.79 9.10494 130.79C10.2723 130.79 10.8793 129.856 11.7665 126.121C13.1207 120.284 14.7548 115.754 20.4048 115.754C25.4945 115.754 29.23 119.817 29.23 126.401C29.3869 130.501 28.0793 134.523 25.5413 137.747L20.1714 133.918C21.8193 131.676 22.7622 128.994 22.8797 126.214C22.8797 124.346 22.0859 123.459 21.1053 123.459C19.8446 123.459 19.3309 124.393 18.4437 128.128C17.0896 134.432 15.035 138.401 9.89866 138.401C4.24868 138.401 0.93349 133.965 0.93349 127.241C0.834503 122.567 2.44522 118.018 5.46296 114.447Z" fill="#00FF63"/>
<path d="M28.9033 165.951L28.9033 173.609L1.35403 173.609L1.35403 165.951L28.9033 165.951Z" fill="#00FF63"/>
<path d="M15.0353 201.298C16.9423 201.258 18.8373 201.609 20.6041 202.328C22.3709 203.047 23.9725 204.119 25.3103 205.478C26.6481 206.838 27.6941 208.457 28.3843 210.235C29.0744 212.013 29.394 213.914 29.3236 215.82C29.4364 218.093 28.9684 220.358 27.9636 222.4C26.9587 224.443 25.4502 226.195 23.5803 227.493L19.1443 221.75C20.1244 221.077 20.9284 220.179 21.489 219.131C22.0497 218.082 22.3507 216.915 22.3662 215.726C22.337 214.81 22.1234 213.909 21.7381 213.078C21.3528 212.246 20.8036 211.501 20.1236 210.886C19.4436 210.271 18.6466 209.8 17.7804 209.501C16.9141 209.201 15.9964 209.079 15.082 209.142C14.1601 209.066 13.2321 209.178 12.3549 209.472C11.4776 209.765 10.6693 210.234 9.97911 210.85C9.28892 211.466 8.73148 212.216 8.34038 213.054C7.94928 213.893 7.73278 214.802 7.70426 215.726C7.71319 216.958 8.02434 218.168 8.61055 219.251C9.19677 220.334 10.04 221.256 11.0661 221.937L6.95728 227.68C4.43237 225.935 2.52743 223.433 1.51754 220.535C0.507642 217.636 0.445018 214.492 1.33884 211.556C2.23267 208.62 4.03666 206.044 6.49017 204.2C8.94369 202.356 11.9197 201.34 14.9885 201.298L15.0353 201.298Z" fill="#00FF63"/>
<path d="M21.572 39.9233L21.572 23.4871L19.9844 23.4871L19.9844 39.9233L21.572 39.9233Z" fill="#00FF63"/>
<path d="M1.58764 203.212L1.58765 49.6819L4.98295e-05 49.6819L4.31185e-05 203.212L1.58764 203.212Z" fill="#00FF63"/>
<path d="M8.73145 198.263L8.73145 191.959L7.14385 191.959L7.14385 198.263L8.73145 198.263Z" fill="#00FF63"/>
<path d="M4.10889 37.635L4.10889 28.8098L1.35394 28.8098L1.35394 37.635L4.10889 37.635Z" fill="#00FF63"/>
<path d="M14.2881 104.921L14.2881 100.999L10.3658 100.999L10.3658 104.921L14.2881 104.921Z" fill="#00FF63"/>
<path d="M8.77808 15.9693L8.77808 0L5.64958 -1.36751e-07L5.64958 15.9693L8.77808 15.9693Z" fill="#00FF63"/>
</svg>
