<svg width="401" height="102" viewBox="0 0 401 102" fill="none" xmlns="http://www.w3.org/2000/svg">
<path d="M335.2 20.31H12.18V67.53H335.2V20.31Z" fill="#00FF63"/>
<path d="M334.76 20.79V67.05H12.66V20.79H334.76ZM335.76 19.79H11.76V67.97H335.76V19.83V19.79Z" fill="black"/>
<path d="M350.76 19.61H334.84V67.04H350.76V19.61Z" fill="black"/>
<path d="M350.17 20.21V66.47H335.43V20.21H350.17ZM351.35 19.03H334.26V67.64H351.35V19.03Z" fill="#00FF63"/>
<path d="M330.66 43.72L344.23 30.15L357.8 43.72L364.25 37.28L350.68 23.7L364.25 10.13L357.8 3.67999L344.23 17.26L330.66 3.67999L324.21 10.13L337.79 23.7L324.21 37.27L330.66 43.72Z" fill="#00FF63" stroke="black" stroke-width="1.1" stroke-miterlimit="10"/>
<path d="M327.97 41.03L341.54 27.46L355.12 41.03L361.56 34.59L347.99 21.02L361.56 7.44L355.12 1L341.54 14.57L327.97 1L321.53 7.44L335.1 21.02L321.53 34.59L327.97 41.03Z" fill="#00FF63" stroke="black" stroke-width="1.1" stroke-miterlimit="10"/>
<path d="M12.66 67.23H1V78.89H12.66V67.23Z" fill="black" stroke="black" stroke-width="0.59" stroke-miterlimit="10"/>
<path d="M24.32 55.5699H12.66V67.2299H24.32V55.5699Z" fill="black" stroke="black" stroke-width="0.59" stroke-miterlimit="10"/>
<path d="M12.66 43.92H1V55.58H12.66V43.92Z" fill="black" stroke="black" stroke-width="0.59" stroke-miterlimit="10"/>
<path d="M24.32 32.2599H12.66V43.9199H24.32V32.2599Z" fill="black" stroke="black" stroke-width="0.59" stroke-miterlimit="10"/>
<path d="M12.66 20.61H1V32.27H12.66V20.61Z" fill="black" stroke="black" stroke-width="0.59" stroke-miterlimit="10"/>
<path d="M24.32 8.94995H12.66V20.61H24.32V8.94995Z" fill="black" stroke="black" stroke-width="0.59" stroke-miterlimit="10"/>
<path d="M399.7 66.37H11.98V101.37H399.7V66.37Z" fill="black"/>
<path d="M398.72 67.35V100H12.36V67.35H398.72ZM400.08 66H11V101.36H400.08V66Z" fill="#00FF63"/>
<path d="M48.02 57.46H52.6V55.86H50.22V39.5H52.6V37.94H48.02V57.46ZM62.8498 54H65.8098V41.66H70.0098V39.2H58.6898V41.66H62.8498V54ZM77.6648 54.28C81.5848 54.28 84.2848 51.34 84.2848 46.54C84.2848 41.74 81.5848 38.92 77.6648 38.92C73.7448 38.92 71.0448 41.72 71.0448 46.54C71.0448 51.34 73.7448 54.28 77.6648 54.28ZM77.6648 51.72C75.4648 51.72 74.0648 49.7 74.0648 46.54C74.0648 43.36 75.4648 41.46 77.6648 41.46C79.8648 41.46 81.2648 43.36 81.2648 46.54C81.2648 49.7 79.8648 51.72 77.6648 51.72ZM87.1755 54H90.1355V48.74H92.1155C95.2955 48.74 97.8355 47.22 97.8355 43.84C97.8355 40.34 95.3155 39.2 92.0355 39.2H87.1755V54ZM90.1355 46.4V41.54H91.8155C93.8555 41.54 94.9355 42.12 94.9355 43.84C94.9355 45.54 93.9555 46.4 91.9155 46.4H90.1355ZM100.335 54H109.235V51.62H106.455V39.2H104.275C103.335 39.78 102.315 40.16 100.835 40.44V42.26H103.515V51.62H100.335V54ZM130.384 39.84H128.064V38.98H130.384V39.84ZM132.604 37.76H126.004V41.06H132.604V37.76ZM122.424 39.84H120.164V38.98H122.424V39.84ZM124.624 37.76H118.084V41.06H124.624V37.76ZM119.204 43.62H133.924V41.68H117.024V46.28C117.024 48.72 116.904 52.08 115.444 54.46C115.944 54.68 116.884 55.4 117.244 55.8C118.904 53.18 119.204 49.08 119.204 46.3V43.62ZM126.004 49.14C126.444 49.44 127.204 50.14 127.524 50.5C127.724 50.26 127.924 50 128.104 49.72C128.404 50.48 128.744 51.18 129.124 51.86C128.324 52.82 127.284 53.56 126.004 54.14V49.14ZM121.964 52.94V51.9H124.064V52.74L121.964 52.94ZM124.064 47.92V48.74H121.964V47.92H124.064ZM121.964 49.88H124.064V50.74H121.964V49.88ZM131.144 47.24C130.944 48.28 130.664 49.2 130.264 50.02C129.824 49.26 129.484 48.4 129.204 47.52L129.324 47.24H131.144ZM133.944 47.24V45.42H129.864C129.984 45.02 130.064 44.6 130.144 44.18L128.144 43.82C127.824 45.86 127.104 47.84 126.004 49.1V47.92H126.664V46.42H124.044V45.68H126.424V44.24H119.844V45.68H122.044V46.42H119.424V47.92H120.064V53.1L118.724 53.2L118.984 54.92C120.424 54.78 122.224 54.56 124.064 54.34V55.74H126.004V54.16C126.424 54.54 127.124 55.36 127.364 55.78C128.524 55.18 129.504 54.46 130.324 53.58C131.104 54.5 132.044 55.26 133.124 55.82C133.444 55.24 134.084 54.42 134.564 53.98C133.424 53.5 132.424 52.78 131.604 51.86C132.364 50.58 132.924 49.04 133.284 47.24H133.944ZM146.324 47.1H148.564V48.32H146.324V47.1ZM154.024 48.32H150.784V47.1H153.244V45.36H150.784V44.3H148.564V45.36H146.324V44.3H144.164V45.36H141.744V47.1H144.164V48.32H141.044V50.06H144.604C143.744 50.66 142.464 51.2 141.224 51.58C141.744 51.9 142.584 52.62 143.004 53.02C144.324 52.46 145.944 51.52 146.944 50.6L145.404 50.06H149.324L148.144 50.84C149.364 51.44 150.644 52.32 151.364 52.92L153.484 51.94C152.704 51.38 151.424 50.66 150.224 50.06H154.024V48.32ZM151.584 39.2V40.1H149.744V39.2H151.584ZM152.364 44.02C152.904 44.02 153.504 43.98 153.824 43.88C153.764 43.44 153.704 42.78 153.664 42.28C153.344 42.38 152.684 42.4 152.304 42.4H150.244C149.824 42.4 149.744 42.2 149.744 41.66V41.54H153.584V37.74H147.884V41.62C147.884 43.34 148.304 44.02 150.124 44.02H152.364ZM145.224 39.18V40.08H143.404V39.18H145.224ZM143.404 42.48V41.52H147.204V37.72H141.564V41.54C141.564 42.34 141.224 42.68 140.904 42.84C141.204 43.26 141.584 44.12 141.684 44.6C142.064 44.4 142.724 44.26 146.704 43.64C146.744 43.22 146.904 42.46 147.084 41.98L143.404 42.48ZM140.244 40.48C139.944 39.58 139.424 38.2 139.044 37.12L136.884 37.7C137.244 38.8 137.764 40.26 138.024 41.18L140.244 40.48ZM139.664 46.06L139.324 46.12H139.104C139.564 44.72 140.044 43.12 140.444 41.72H135.824V43.84H137.564C137.104 45.4 136.604 47 136.164 48.18H138.584C138.244 49.6 137.664 51.04 136.884 52.1C136.424 52.48 135.924 52.98 135.444 53.56L137.024 55.82C137.524 54.68 138.244 53.32 138.684 53.32C139.104 53.32 139.824 53.98 140.644 54.44C142.104 55.28 143.784 55.5 146.424 55.5C148.764 55.5 152.304 55.36 153.944 55.26C153.984 54.62 154.364 53.46 154.624 52.82C152.404 53.14 148.844 53.34 146.544 53.34C144.224 53.34 142.344 53.22 140.964 52.4C140.364 52.04 139.944 51.72 139.584 51.5C140.284 50.06 140.744 48.34 141.024 46.62L139.664 46.06ZM160.064 44.26C161.884 42.98 163.664 41.42 164.984 39.88C166.284 41.42 167.944 42.96 169.784 44.26H160.064ZM166.184 50.7H171.424V48.64H166.184V46.36H170.464V44.72C171.284 45.26 172.124 45.74 172.984 46.14C173.344 45.46 174.084 44.48 174.584 43.96C171.184 42.72 167.984 40.2 166.264 37.68H159.424V39.88H162.084C160.204 41.66 157.724 43.32 155.504 44.22C156.044 44.74 156.624 45.56 156.964 46.14C157.784 45.72 158.644 45.22 159.504 44.64V46.36H163.704V48.64H158.524V50.7H163.704V53.12H156.564V55.24H173.584V53.12H166.184V50.7ZM192.024 45.88C192.784 45.88 193.624 45.84 194.044 45.7C193.964 45.16 193.864 44.3 193.824 43.68C193.384 43.78 192.544 43.84 191.984 43.84H189.064C188.424 43.84 188.304 43.56 188.304 42.82V41.5H193.224V39.46H188.304V37.1H185.944V42.78C185.944 45 186.584 45.88 188.984 45.88H192.024ZM179.104 48.02C179.864 48.64 180.784 49.42 181.284 49.94L182.244 49V49.66C181.044 50.3 179.864 50.9 178.964 51.3C179.064 50.4 179.104 49.5 179.104 48.74V48.02ZM182.244 46.22V48.48C181.644 47.96 180.784 47.26 180.104 46.78L179.104 47.64V46.22H182.244ZM184.484 44.22H176.904V48.72C176.904 50.46 176.824 52.66 175.764 54.22C176.184 54.5 177.084 55.36 177.424 55.82C178.184 54.78 178.624 53.42 178.844 52.06L179.344 53.46C180.244 52.88 181.244 52.2 182.244 51.48V53.52C182.244 53.78 182.164 53.86 181.904 53.86C181.664 53.86 180.884 53.86 180.164 53.82C180.464 54.34 180.784 55.12 180.884 55.68C182.104 55.68 183.004 55.64 183.644 55.34C184.304 55.02 184.484 54.52 184.484 53.54V44.22ZM181.444 39.24C181.704 39.72 181.984 40.28 182.284 40.86L179.364 41.08C180.244 40.08 181.144 38.92 181.824 37.76L179.424 37.08C178.684 38.66 177.464 40.2 177.064 40.64C176.664 41.08 176.324 41.36 175.964 41.44C176.204 42.04 176.584 43.12 176.704 43.58C177.284 43.34 178.104 43.22 183.164 42.72C183.364 43.2 183.544 43.62 183.664 43.98L185.744 43.14C185.264 41.94 184.204 39.98 183.364 38.54L181.444 39.24ZM189.224 53.52C188.444 53.52 188.304 53.42 188.304 52.72V50.54H193.364V48.44H188.304V46.44H185.944V52.72C185.944 54.9 186.524 55.6 188.884 55.6H191.724C193.624 55.6 194.244 54.82 194.484 52.2C193.864 52.06 192.904 51.7 192.424 51.34C192.324 53.18 192.184 53.52 191.504 53.52H189.224ZM209.204 48.56V49.88H200.904V48.56H209.204ZM200.904 53.12V51.68H209.204V53.12H200.904ZM198.524 55.78H200.904V55.08H209.204V55.76H211.704V46.58H198.524V55.78ZM208.044 40.78C207.824 41.56 207.464 42.5 207.144 43.24H203.024C202.884 42.52 202.484 41.54 202.004 40.78H208.044ZM209.744 43.24C210.064 42.62 210.404 41.92 210.744 41.18L208.904 40.78H213.044V38.68H206.604C206.404 38.08 206.104 37.4 205.764 36.84L203.284 37.24C203.504 37.66 203.744 38.18 203.904 38.68H197.164V40.78H201.564L199.624 41.16C199.944 41.78 200.244 42.56 200.424 43.24H196.044V45.36H213.984V43.24H209.744ZM222.104 46.94C221.984 45.96 221.704 44.52 221.384 43.38L219.884 43.72C219.984 44.12 220.084 44.56 220.164 45.02L218.584 45.18C219.844 43.78 221.104 42.12 222.044 40.48L220.364 39.56C220.104 40.14 219.764 40.72 219.444 41.28L218.404 41.36C219.104 40.34 219.784 39.1 220.284 37.94L218.444 37.3C218.004 38.82 217.124 40.38 216.844 40.8C216.564 41.22 216.304 41.52 216.004 41.58C216.224 42.06 216.524 42.92 216.624 43.3C216.844 43.18 217.204 43.08 218.384 42.92C217.884 43.62 217.444 44.16 217.244 44.4C216.744 44.98 216.364 45.36 215.944 45.46C216.164 45.92 216.464 46.84 216.564 47.18C216.904 47.02 217.464 46.88 220.424 46.48C220.464 46.78 220.504 47.06 220.524 47.3L222.104 46.94ZM221.204 50.6C219.984 51.76 217.664 52.76 215.444 53.2C215.944 53.66 216.644 54.58 217.004 55.16C219.384 54.5 221.724 53.04 223.124 51.32L221.204 50.6ZM234.004 50V48.04H226.264V47.08H223.884V48.04H215.964V50H223.884V55.68H226.264V50H234.004ZM227.284 51.84C229.064 52.82 231.424 54.32 232.524 55.3L234.044 53.6C232.844 52.64 230.424 51.24 228.684 50.36L227.284 51.84ZM225.744 41.88H224.244V40.54H225.744V41.88ZM225.744 44.9H224.244V43.5H225.744V44.9ZM225.684 38.8L226.324 37.28L224.164 36.92C224.124 37.46 223.984 38.16 223.824 38.8H222.224V46.64H227.844V38.8H225.684ZM231.884 43.98C231.984 44.36 232.084 44.78 232.184 45.22L230.624 45.36C231.924 43.98 233.204 42.28 234.204 40.64L232.484 39.66C232.224 40.2 231.924 40.74 231.644 41.24L230.304 41.36C231.004 40.32 231.724 39.06 232.204 37.82L230.284 37.28C229.844 38.82 228.944 40.42 228.664 40.84C228.404 41.26 228.124 41.56 227.844 41.64C228.064 42.12 228.364 43 228.464 43.4C228.704 43.26 229.104 43.16 230.484 42.96C229.964 43.7 229.504 44.26 229.284 44.5C228.784 45.06 228.404 45.44 227.984 45.54C228.204 46.02 228.504 46.96 228.604 47.34C228.944 47.16 229.524 47.04 232.504 46.72C232.544 47 232.584 47.26 232.604 47.5L234.204 47.08C234.044 46.14 233.704 44.7 233.364 43.6L231.884 43.98ZM253.164 37.22H251.004V45.14C251.004 45.4 250.904 45.48 250.624 45.48C250.344 45.5 249.384 45.5 248.484 45.46C248.744 45.98 249.064 46.76 249.184 47.34C250.544 47.34 251.544 47.32 252.244 47.02C252.964 46.7 253.164 46.22 253.164 45.2V37.22ZM249.244 38.04H247.124V44.64H249.244V38.04ZM251.264 49.7C250.524 50.24 249.524 50.84 248.604 51.32C248.064 50.84 247.564 50.32 247.164 49.7H251.264ZM237.684 40.66C237.864 40.42 238.044 40.14 238.204 39.86H240.124V40.66H237.684ZM251.984 49.7H254.004V47.82H246.664C246.464 47.28 246.184 46.66 245.884 46.18L245.424 46.3C245.624 46.08 245.684 45.74 245.684 45.24V42.96H242.144V42.26H245.984V40.66H242.144V39.86H245.444V38.34H242.144V37.06H240.124V38.34H238.964C239.084 38.06 239.184 37.82 239.284 37.54L237.544 37.1C237.204 38.12 236.644 39.2 235.964 39.96C236.304 40.12 236.824 40.42 237.224 40.66H235.984V42.26H240.124V42.96H236.784V46.88H238.584V44.4H240.124V47.34H242.144V44.4H243.784V45.24C243.784 45.4 243.724 45.46 243.544 45.46C243.404 45.46 242.944 45.46 242.484 45.44C242.664 45.82 242.944 46.34 243.044 46.8C243.264 46.8 243.484 46.8 243.684 46.8H243.664C243.824 47.12 243.984 47.46 244.124 47.82H236.024V49.7H241.864C240.144 50.52 237.884 51.08 235.704 51.38C236.124 51.82 236.684 52.6 236.964 53.1C237.984 52.92 239.024 52.68 240.004 52.36V52.42C240.004 53.44 239.484 53.94 239.124 54.22C239.344 54.5 239.704 55.2 239.824 55.68L239.844 55.86C240.244 55.6 240.944 55.4 245.704 54.32C245.704 53.9 245.764 53.06 245.864 52.54L242.144 53.3V51.52C243.224 51.04 244.224 50.48 245.024 49.82C246.524 52.9 249.024 54.7 253.064 55.48C253.344 54.92 253.904 54.06 254.344 53.6C252.764 53.38 251.424 52.98 250.264 52.42C251.284 51.94 252.384 51.32 253.324 50.7L251.984 49.7ZM260.044 37.14C259.044 39.98 257.304 42.82 255.484 44.62C255.904 45.22 256.584 46.58 256.804 47.16C257.204 46.72 257.624 46.22 258.044 45.72V55.72H260.444V42.02C261.184 40.68 261.844 39.26 262.364 37.86L260.044 37.14ZM274.384 42.58V40.32H266.624C267.004 39.5 267.324 38.68 267.604 37.84L265.304 37.26C264.404 40.12 262.824 43 261.064 44.8C261.564 45.18 262.504 46.02 262.884 46.46C263.784 45.42 264.704 44.06 265.504 42.58H266.264V55.74H268.704V51.3H274.144V49.1H268.704V46.84H273.884V44.68H268.704V42.58H274.384ZM283.444 37.08C283.364 40.46 283.744 49.42 275.624 53.76C276.424 54.3 277.184 55.06 277.604 55.7C281.764 53.26 283.864 49.64 284.964 46.12C286.124 49.56 288.344 53.46 292.784 55.58C293.104 54.9 293.784 54.1 294.524 53.52C287.544 50.44 286.324 42.9 286.044 40.2C286.124 39 286.164 37.92 286.184 37.08H283.444ZM300.495 57.46H305.075V37.94H300.495V39.5H302.875V55.86H300.495V57.46Z" fill="#202020"/>
<path d="M34 81.912C33.616 81.48 32.864 80.808 32.192 80.28C32.48 79.512 32.72 78.68 32.896 77.8L31.856 77.64C31.392 80.072 30.432 82.136 28.928 83.432C29.168 83.592 29.568 83.976 29.728 84.168C30.576 83.368 31.28 82.344 31.84 81.144C32.464 81.672 33.12 82.312 33.488 82.744L34 81.912ZM28 77.64C27.296 78.776 25.856 80.152 24.592 81.016C24.768 81.176 25.056 81.56 25.2 81.768C26.56 80.824 28.048 79.352 28.96 78.008L28 77.64ZM28.4 80.84C27.44 82.536 25.888 84.216 24.4 85.336C24.576 85.56 24.912 86.04 25.024 86.264C25.648 85.752 26.304 85.128 26.928 84.456V92.264H27.92V83.288C28.448 82.6 28.944 81.896 29.344 81.176L28.4 80.84ZM34.88 87.512H38.512V86.584H34.88V83.832H34.208C35.008 83.16 35.648 82.296 36.144 81.272C37.104 82.152 38.112 83.224 38.64 83.944L39.392 83.208C38.8 82.44 37.584 81.24 36.528 80.376C36.816 79.592 37.024 78.728 37.168 77.784L36.144 77.656C35.792 80.136 34.896 82.056 33.264 83.24C33.472 83.384 33.84 83.64 34.032 83.832H33.904V90.68C32.832 90.216 32.032 89.256 31.536 87.448C31.664 86.728 31.76 85.944 31.808 85.08L30.784 85C30.64 87.96 30.048 90.136 28.4 91.48C28.64 91.64 29.072 91.992 29.232 92.152C30.144 91.32 30.752 90.28 31.168 89C32.192 91.448 33.856 92.04 36.272 92.04H38.976C39.008 91.784 39.168 91.304 39.328 91.08C38.832 91.08 36.672 91.096 36.336 91.08C35.824 91.08 35.328 91.048 34.88 90.968V87.512ZM46.064 79.624C45.84 79.048 45.344 78.216 44.912 77.576L44.144 78.008C44.544 78.648 45.04 79.544 45.264 80.12L46.064 79.624ZM46.576 87.528V90.328H44V87.528H46.576ZM47.52 86.632H43.072V91.992H44V91.224H47.52V86.632ZM43.088 85.368H47.504V84.504H43.088V85.368ZM43.088 82.44V83.288H47.488V82.44H43.088ZM42.448 81.24H48.064V80.36H42.448V81.24ZM52.688 84.296V87.496H50.048V84.296H52.688ZM53.632 88.424V83.368H49.12V89.512H50.048V88.424H53.632ZM54.416 80.984H48.512V81.912H54.416V80.984ZM56.32 78.456H48.128V79.448H55.344V90.792C55.344 91.064 55.248 91.144 54.976 91.16C54.704 91.16 53.776 91.176 52.768 91.144C52.928 91.432 53.088 91.912 53.136 92.216C54.4 92.216 55.248 92.2 55.712 92.008C56.16 91.832 56.32 91.496 56.32 90.808V78.456ZM69.584 90.136V86.472H72.576V90.136H69.584ZM61.856 86.472H64.688V90.136H61.856V86.472ZM64.688 81.864V85.448H61.856V81.864H64.688ZM68.544 86.472V90.136H65.728V86.472H68.544ZM68.544 81.864V85.448H65.728V81.864H68.544ZM72.576 81.864V85.448H69.584V81.864H72.576ZM69.584 80.824V77.8H68.544V80.824H65.728V77.8H64.688V80.824H60.848V92.232H61.856V91.176H72.576V92.152H73.616V80.824H69.584ZM84.288 83.352V84.44H79.84V83.352H84.288ZM79.776 86.344C79.808 85.944 79.824 85.544 79.84 85.176H84.288V86.344H79.776ZM85.28 87.16V82.536H78.848V84.76C78.848 86.552 78.672 89.128 77.424 91.048C77.664 91.144 78.112 91.368 78.32 91.528C79.136 90.264 79.52 88.664 79.696 87.16H85.28ZM80.512 80.968V81.688H83.888V80.968H80.512ZM84.688 88.76V90.552H80.656V88.76H84.688ZM79.744 92.088H80.656V91.4H84.688V92.056H85.648V87.944H79.744V92.088ZM81.872 77.784C80.944 79.4 79.2 80.76 77.44 81.624C77.632 81.848 77.936 82.344 78.048 82.584C79.488 81.784 80.976 80.632 82.064 79.288C83.344 80.088 84.832 81.112 85.616 81.768L86.192 80.904C85.392 80.264 83.872 79.288 82.624 78.536C82.704 78.392 82.784 78.264 82.864 78.136L81.872 77.784ZM88.192 79.432H87.184V88.184H88.192V79.432ZM90.208 77.72V90.76C90.208 91.048 90.096 91.128 89.824 91.128C89.584 91.144 88.704 91.144 87.712 91.128C87.872 91.432 88.016 91.896 88.08 92.184C89.392 92.184 90.16 92.152 90.624 91.976C91.056 91.784 91.248 91.464 91.248 90.744V77.72H90.208ZM99.072 77.688C98.16 80.152 96.656 82.552 95.056 84.104C95.264 84.344 95.568 84.904 95.68 85.144C96.256 84.552 96.848 83.864 97.376 83.096V92.184H98.448V81.448C99.072 80.344 99.632 79.176 100.096 78.008L99.072 77.688ZM109.712 81.336V80.312H102.944C103.264 79.592 103.584 78.856 103.856 78.104L102.832 77.848C102.048 80.184 100.752 82.504 99.296 83.992C99.552 84.168 99.952 84.536 100.128 84.712C100.944 83.8 101.744 82.632 102.432 81.336H103.616V92.2H104.688V88.264H109.568V87.256H104.688V84.728H109.36V83.736H104.688V81.336H109.712ZM117.808 86.92H121.056V85.96H117.808V84.184H116.784V85.96H113.632V86.92H116.784V89.704C115.36 89.96 114.064 90.184 113.072 90.36L113.296 91.352C115.392 90.968 118.432 90.376 121.264 89.816L121.2 88.888C120.08 89.112 118.928 89.304 117.808 89.512V86.92ZM113.2 79.656H115.84C115.312 80.84 114.608 81.896 114.352 82.232C114.08 82.6 113.84 82.888 113.584 82.936C113.728 83.208 113.888 83.72 113.952 83.944C114.304 83.784 114.88 83.72 119.952 83.208C120.208 83.592 120.416 83.944 120.56 84.232L121.36 83.704C120.896 82.808 119.824 81.352 118.928 80.28L118.16 80.744C118.56 81.24 118.992 81.816 119.408 82.392L115.088 82.776C115.776 81.88 116.448 80.776 117.024 79.656H121.36V78.712H113.2V79.656ZM123.296 79H122.304V88.616H123.296V79ZM125.456 77.912V90.456C125.456 90.712 125.392 90.776 125.12 90.792C124.848 90.808 123.968 90.808 123.008 90.776C123.184 91.08 123.36 91.56 123.424 91.848C124.56 91.848 125.392 91.816 125.872 91.64C126.32 91.464 126.496 91.144 126.496 90.44V77.912H125.456ZM144.688 84.488C144.048 83.608 142.8 82.12 141.84 81.048L141.024 81.512C141.424 81.96 141.84 82.488 142.272 82.984L136.56 83.336C137.264 82.552 137.984 81.672 138.64 80.712H144.608V79.736H139.328C139.68 79.208 140.032 78.648 140.352 78.104L139.312 77.688C138.944 78.376 138.528 79.08 138.096 79.736H134.624V80.712H137.44C136.832 81.56 136.304 82.232 136.048 82.504C135.584 83.064 135.2 83.448 134.896 83.512C134.992 83.8 135.168 84.312 135.232 84.536C135.68 84.344 136.384 84.296 142.944 83.864C143.28 84.312 143.6 84.728 143.824 85.064L144.688 84.488ZM134.352 79.832C133.808 79.208 132.624 78.376 131.68 77.832L131.04 78.568C132.016 79.144 133.168 80.024 133.696 80.648L134.352 79.832ZM133.792 83.848C133.168 83.304 131.888 82.6 130.896 82.168L130.32 82.952C131.344 83.416 132.576 84.184 133.2 84.728L133.792 83.848ZM133.76 86.12C132.848 87.928 131.6 90.04 130.736 91.272L131.632 91.992C132.56 90.52 133.696 88.504 134.528 86.824L133.76 86.12ZM136.08 86.792C136.08 88.28 135.888 90.072 134.032 91.448C134.272 91.592 134.64 91.928 134.8 92.152C136.816 90.616 137.056 88.568 137.056 86.824V85.128H136.08V86.792ZM138.928 91.512H139.872V85.208H138.928V91.512ZM143.056 91.032C142.832 91.032 142.8 90.904 142.8 90.456V85.112H141.808V90.44C141.808 91.464 142 91.848 142.976 91.848H144.064C144.352 91.848 144.64 91.848 144.8 91.8C144.768 91.56 144.768 91.208 144.736 90.968C144.56 91.016 144.24 91.032 144.048 91.032H143.056ZM161.952 78.616H154.128V79.608H161.952V78.616ZM151.52 77.624C150.72 78.776 149.168 80.216 147.84 81.096C148.032 81.304 148.32 81.72 148.464 81.944C149.888 80.936 151.504 79.416 152.544 78.024L151.52 77.624ZM152.176 81.032C151.072 82.84 149.312 84.696 147.68 85.864C147.888 86.072 148.272 86.536 148.432 86.744C149.056 86.248 149.696 85.656 150.336 85V92.248H151.392V83.832C152.048 83.048 152.672 82.232 153.184 81.4L152.176 81.032ZM162.416 82.984H153.44V84.008H158.896V90.792C158.896 91.064 158.784 91.144 158.496 91.144C158.192 91.176 157.136 91.176 155.952 91.128C156.112 91.432 156.256 91.864 156.304 92.152C157.904 92.152 158.768 92.152 159.296 91.992C159.792 91.816 159.968 91.48 159.968 90.808V84.008H162.416V82.984ZM178.88 81.192C178.688 82.264 178.432 83.448 178.176 84.216L179.024 84.472C179.408 83.448 179.776 81.8 180.032 80.408L179.328 80.184L179.168 80.232H175.44C175.648 79.448 175.824 78.632 175.968 77.8L174.928 77.624C174.576 80.008 173.904 82.312 172.832 83.8C173.104 83.912 173.552 84.184 173.744 84.328C174.304 83.48 174.784 82.408 175.168 81.192H178.88ZM169.392 87.56V89.32H167.296V87.56H169.392ZM170.272 90.12V86.76H166.4V90.84H167.296V90.12H170.272ZM173.856 85.688V84.744H172.32V79.384H173.552V78.456H165.696V79.384H171.36V84.744H165.52V85.688H171.456V91.096C171.456 91.272 171.408 91.336 171.2 91.336C170.992 91.352 170.32 91.352 169.568 91.336C169.696 91.576 169.824 91.896 169.888 92.152C170.896 92.152 171.536 92.136 171.92 91.992C172.304 91.864 172.416 91.64 172.416 91.112V85.688H173.856ZM169.376 82.856H167.376V81.176H169.376V82.856ZM166.56 80.392V83.64H170.24V80.392H166.56ZM176.992 82.2H176V83.256C176 85.56 175.76 88.936 172.688 91.528C172.896 91.704 173.248 92.056 173.408 92.296C175.232 90.728 176.144 88.872 176.576 87.096C177.216 89.272 178.144 90.824 179.728 92.248C179.856 91.96 180.16 91.624 180.432 91.432C178.448 89.768 177.52 87.848 176.96 84.616C176.976 84.152 176.992 83.704 176.992 83.272V82.2ZM195.44 80.776H190.208V79.176H195.44V80.776ZM195.44 83.224H190.208V81.592H195.44V83.224ZM196.512 78.296H189.184V84.088H196.512V78.296ZM186.736 80.152V86.984H184.72V80.152H186.736ZM187.728 79.176H183.744V89.512H184.72V87.976H187.728V79.176ZM189.712 90.632V88.808H196.016V90.632H189.712ZM196.016 86.184V87.896H189.712V86.184H196.016ZM188.672 85.256V92.2H189.712V91.56H196.016V92.12H197.104V85.256H188.672ZM203.344 89.304C204.304 89.896 205.44 90.76 206.016 91.384L206.768 90.664C206.192 90.056 205.024 89.224 204.064 88.68L203.344 89.304ZM208.48 85.032H210.768L210.384 85.384C210.8 85.512 211.264 85.688 211.696 85.896C210.624 85.912 209.536 85.928 208.48 85.944V85.032ZM203.504 84.28V83.224H207.456V84.28H203.504ZM203.504 81.48H207.456V82.52H203.504V81.48ZM212.544 81.48V82.52H208.48V81.48H212.544ZM212.544 84.28H208.48V83.224H212.544V84.28ZM215.216 87.72H211.36V86.68H210.4L213.04 86.6C213.408 86.824 213.728 87.048 213.968 87.256L214.608 86.616C213.92 86.104 212.688 85.464 211.536 85.032H213.584V80.728H208.48V79.768H214.56V78.904H208.48V77.656H207.456V78.904H201.264V79.768H207.456V80.728H202.496V85.032H207.456V85.96C205.152 85.992 203.024 86.008 201.424 86.008L201.472 86.872C203.792 86.84 207.024 86.776 210.336 86.68V87.72H200.8V88.616H210.336V91.016C210.336 91.208 210.256 91.272 210 91.288C209.744 91.288 208.864 91.288 207.856 91.256C208 91.544 208.144 91.928 208.192 92.2C209.488 92.2 210.272 92.2 210.752 92.04C211.232 91.896 211.36 91.608 211.36 91.032V88.616H215.216V87.72ZM223.408 89.24C222.336 89.944 220.256 90.584 218.592 90.872C218.816 91.064 219.12 91.416 219.248 91.672C220.912 91.288 223.072 90.488 224.208 89.624L223.408 89.24ZM227.2 89.752C228.768 90.312 230.848 91.128 231.92 91.64L232.56 90.936C231.44 90.424 229.376 89.656 227.824 89.16L227.2 89.752ZM228.224 81.416C228 81.896 227.584 82.616 227.232 83.08L227.808 83.256H223.36L223.984 83.08C223.84 82.632 223.456 81.928 223.088 81.416H228.224ZM226.112 87.48V86.2H231.152V85.352H226.112V84.12H231.936V83.256H228.192C228.56 82.824 228.944 82.248 229.328 81.688L228.352 81.416H232.512V80.52H229.968C230.4 79.896 230.944 78.984 231.392 78.152L230.32 77.848C230.032 78.568 229.488 79.64 229.04 80.312L229.664 80.52H227.632V77.64H226.624V80.52H224.576V77.64H223.584V80.52H221.536L222.368 80.2C222.112 79.544 221.536 78.552 220.96 77.816L220.064 78.136C220.592 78.872 221.152 79.864 221.392 80.52H218.736V81.416H222.928L222.08 81.64C222.416 82.136 222.784 82.776 222.928 83.256H219.376V84.12H225.056V85.352H220.192V86.2H225.056V87.48H218.688V88.392H225.056V92.216H226.112V88.392H232.576V87.48H226.112ZM240.4 80.776H242.976V79.784H238.336C238.544 79.16 238.72 78.504 238.864 77.816L237.84 77.624C237.44 79.576 236.768 81.496 235.824 82.76C236.064 82.888 236.512 83.192 236.688 83.368C237.2 82.664 237.632 81.768 238.016 80.776H239.344V83.496C239.344 83.672 239.344 83.88 239.328 84.088H235.984V85.096H239.28C239.072 87.24 238.304 89.608 235.824 91.384C236.048 91.544 236.432 91.944 236.544 92.168C238.432 90.84 239.424 89.096 239.904 87.336C240.784 88.328 242.128 89.912 242.656 90.664L243.36 89.768C242.896 89.192 240.896 86.968 240.16 86.248C240.24 85.864 240.288 85.464 240.336 85.096H243.456V84.088H240.384C240.4 83.88 240.4 83.688 240.4 83.512V80.776ZM245.024 89.464V80.024H248.576V89.464H245.024ZM243.984 79.016V91.752H245.024V90.472H248.576V91.592H249.648V79.016H243.984ZM267.552 81.272C267.344 80.568 266.8 79.432 266.272 78.584L265.44 78.92C265.968 79.768 266.48 80.92 266.688 81.64L267.552 81.272ZM263.408 79.384H261.744C261.568 78.904 261.248 78.248 260.944 77.752L260.096 78.008C260.336 78.424 260.592 78.936 260.736 79.384H258.528V80.248H263.408V79.384ZM256.768 79.688C256.544 79.16 256.032 78.296 255.568 77.672L254.816 77.992C255.264 78.632 255.76 79.512 255.984 80.056L256.768 79.688ZM256.896 87.576V90.408H255.04V87.576H256.896ZM257.728 86.696H254.208V92.04H255.04V91.272H257.728V86.696ZM254.224 85.416H257.728V84.552H254.224V85.416ZM254.224 83.288H257.728V82.424H254.224V83.288ZM253.696 81.24H258.112V80.36H253.696V81.24ZM262.192 85.176V86.728H259.808V85.176H262.192ZM259.808 89.112V87.512H262.192V89.112H259.808ZM262.192 89.912V90.344H263.104V84.376H258.912V91.032H259.808V89.912H262.192ZM266.768 84.36C266.416 85.464 265.952 86.504 265.408 87.448C265.232 86.328 265.104 84.952 265.008 83.432H267.856V82.504H264.944C264.88 81 264.832 79.352 264.816 77.656H263.856C263.888 79.352 263.936 80.984 264.016 82.504H262.32C262.496 81.944 262.704 81.224 262.912 80.568L262.016 80.408C261.904 81 261.696 81.896 261.504 82.504H260.448C260.384 81.944 260.192 81.08 260 80.424L259.2 80.536C259.36 81.16 259.536 81.928 259.6 82.504H258.224V83.432H264.064C264.192 85.448 264.384 87.192 264.64 88.616C263.808 89.768 262.864 90.744 261.856 91.48C262.08 91.64 262.368 91.88 262.496 92.056C263.344 91.432 264.16 90.632 264.896 89.72C265.328 91.256 265.904 92.136 266.72 92.152C267.232 92.168 267.712 91.56 268.016 89.4C267.824 89.304 267.456 89.064 267.28 88.856C267.168 90.184 266.976 90.952 266.736 90.952C266.288 90.936 265.92 90.12 265.632 88.76C266.432 87.56 267.12 86.232 267.616 84.76L266.768 84.36ZM281.493 84.184V85.336H296.021V84.184H281.493ZM311.797 81.464C311.477 82.568 310.981 83.8 310.565 84.584C310.821 84.696 311.237 84.904 311.461 85.032C312.021 83.96 312.725 82.296 313.125 80.76L312.357 80.344L312.149 80.408H306.149C306.405 79.592 306.629 78.728 306.821 77.848L305.669 77.656C305.189 80.168 304.325 82.648 303.109 84.216C303.397 84.344 303.925 84.632 304.149 84.808C304.773 83.912 305.333 82.76 305.813 81.464H311.797ZM303.701 80.184H299.541V81.208H303.701V80.184ZM304.213 86.76H299.189V87.816H304.213V86.76ZM308.357 82.152H307.237V83.336C307.237 85.672 306.901 89.016 302.245 91.416C302.485 91.608 302.869 92.008 303.029 92.248C306.197 90.584 307.509 88.456 308.021 86.424C308.949 89.128 310.485 91.112 312.965 92.104C313.125 91.8 313.445 91.384 313.669 91.176C310.725 90.152 309.093 87.56 308.341 84.152C308.357 83.864 308.357 83.608 308.357 83.352V82.152ZM322.549 84.456L320.261 85.112V81.896H322.533V80.888H320.261V77.64H319.205V80.888H316.757V81.896H319.205V85.4C318.229 85.688 317.333 85.944 316.613 86.104L316.949 87.176C317.621 86.968 318.389 86.76 319.205 86.504V90.728C319.205 90.968 319.109 91.048 318.885 91.048C318.693 91.048 318.005 91.048 317.221 91.032C317.365 91.32 317.525 91.752 317.557 92.04C318.661 92.04 319.301 92.008 319.717 91.832C320.101 91.672 320.261 91.384 320.261 90.728V86.168L322.693 85.416L322.549 84.456ZM331.237 79H322.597V80.056H327.237V90.584C327.237 90.888 327.109 90.984 326.805 90.984C326.469 91.016 325.301 91.016 324.101 90.968C324.293 91.288 324.485 91.8 324.533 92.12C326.069 92.12 327.045 92.12 327.605 91.912C328.149 91.72 328.357 91.368 328.357 90.6V80.056H331.237V79ZM346.325 80.808C346.181 85.4 346.005 87.032 345.685 87.432C345.541 87.608 345.397 87.64 345.141 87.64C344.885 87.64 344.213 87.64 343.493 87.576C343.653 87.848 343.749 88.28 343.781 88.584C344.517 88.632 345.221 88.632 345.637 88.6C346.053 88.552 346.357 88.44 346.629 88.104C347.061 87.528 347.237 85.688 347.413 80.312C347.429 80.168 347.429 79.784 347.429 79.784H338.485C338.853 79.16 339.189 78.52 339.493 77.848L338.421 77.544C337.493 79.736 335.909 81.8 334.165 83.096C334.421 83.288 334.853 83.688 335.045 83.864C336.021 83.064 336.981 82.024 337.829 80.808H346.325ZM342.133 83.512V86.232H337.749V83.512H342.133ZM339.765 90.856C338.053 90.856 337.749 90.632 337.749 89.768V87.208H343.157V82.552H336.693V89.768C336.693 91.448 337.429 91.864 339.845 91.864H346.037C348.165 91.864 348.613 91.272 348.821 89.192C348.533 89.144 348.069 88.984 347.813 88.808C347.653 90.488 347.413 90.856 346.037 90.856H339.765ZM352.565 87.816C352.405 89.144 352.149 90.584 351.765 91.576C352.005 91.656 352.453 91.8 352.661 91.912C352.997 90.904 353.317 89.368 353.509 87.976L352.565 87.816ZM354.293 87.928C354.485 89.032 354.661 90.488 354.709 91.448L355.589 91.272C355.541 90.312 355.349 88.888 355.141 87.784L354.293 87.928ZM355.941 87.64C356.293 88.568 356.661 89.832 356.805 90.632L357.653 90.344C357.477 89.544 357.093 88.328 356.725 87.384L355.941 87.64ZM355.813 83.864C355.989 84.36 356.197 84.904 356.357 85.448L353.557 85.832C354.869 84.376 356.149 82.504 357.205 80.648L356.277 80.104C355.925 80.808 355.509 81.544 355.093 82.2L353.285 82.36C354.213 81.128 355.141 79.544 355.877 78.008L354.885 77.592C354.197 79.32 353.029 81.176 352.677 81.656C352.341 82.152 352.053 82.472 351.797 82.536C351.909 82.808 352.053 83.32 352.117 83.528C352.341 83.416 352.709 83.336 354.469 83.144C353.861 84.04 353.317 84.744 353.045 85.032C352.581 85.608 352.197 86.008 351.877 86.088C351.989 86.344 352.165 86.872 352.229 87.08C352.517 86.936 352.997 86.824 356.597 86.28C356.693 86.648 356.773 86.968 356.821 87.224L357.717 86.936C357.541 86.104 357.093 84.696 356.629 83.624L355.813 83.864ZM364.325 86.696V90.424H359.653V86.696H364.325ZM358.613 92.264H359.653V91.384H364.325V92.216H365.397V85.736H358.613V92.264ZM361.621 77.688C360.821 79.864 359.157 82.04 357.093 83.464C357.333 83.64 357.701 83.992 357.861 84.216C358.373 83.832 358.885 83.4 359.333 82.952V83.832H364.565V82.84H359.445C360.469 81.832 361.317 80.664 361.973 79.4C363.029 81.24 364.581 83.032 365.989 84.024C366.165 83.752 366.533 83.352 366.805 83.16C365.205 82.2 363.461 80.248 362.453 78.408C362.517 78.264 362.581 78.104 362.645 77.96L361.621 77.688ZM373.061 77.688C372.149 80.152 370.645 82.552 369.045 84.104C369.253 84.344 369.557 84.888 369.669 85.144C370.245 84.52 370.837 83.8 371.381 83.016V92.184H372.405V81.432C373.045 80.344 373.605 79.16 374.069 77.992L373.061 77.688ZM375.989 84.392C375.525 86.312 374.757 88.232 373.749 89.464C374.005 89.608 374.453 89.912 374.661 90.056C375.637 88.712 376.501 86.712 377.013 84.6L375.989 84.392ZM382.805 81.736C382.661 82.568 382.501 83.448 382.373 84.04L383.269 84.216C383.493 83.384 383.781 82.024 383.973 80.872L383.269 80.696L383.093 80.744H376.405C376.741 79.848 377.013 78.888 377.253 77.944L376.213 77.704C375.685 80.072 374.805 82.376 373.605 83.88C373.861 84.04 374.277 84.392 374.469 84.552C375.029 83.768 375.557 82.824 376.021 81.736H378.565V90.888C378.565 91.096 378.501 91.16 378.293 91.16C378.085 91.16 377.381 91.176 376.613 91.144C376.773 91.464 376.933 91.912 376.997 92.232C377.989 92.232 378.645 92.2 379.077 92.008C379.477 91.832 379.605 91.512 379.605 90.888V81.736H382.805ZM380.869 84.584C381.765 86.28 382.581 88.536 382.853 89.992L383.861 89.656C383.589 88.184 382.741 85.976 381.813 84.28L380.869 84.584Z" fill="white"/>
</svg>
