<svg width="400" height="60" viewBox="0 0 400 60" fill="none" xmlns="http://www.w3.org/2000/svg">
<g clip-path="url(#clip0_141_4041)">
<rect width="400" height="60" fill="white"/>
<path d="M115.682 35.888H115.132V37.3041L116.088 36.2602L115.682 35.888ZM117.572 33.788L117.168 33.4143L117.16 33.423L117.572 33.788ZM119.504 31.646L119.918 32.01L119.925 32.0018L119.504 31.646ZM121.226 29.588L120.811 29.2264L120.802 29.2372L121.226 29.588ZM122.654 27.908V27.3572H122.394L122.229 27.5578L122.654 27.908ZM130.088 27.908L130.504 28.2693L131.297 27.3572H130.088V27.908ZM125.72 32.822L125.313 32.4511L125.313 32.4515L125.72 32.822ZM121.1 37.61L120.714 37.2172L120.297 37.6278L120.732 38.0194L121.1 37.61ZM123.704 40.34L123.283 40.6948L123.288 40.7003L123.704 40.34ZM126.308 43.574L126.749 43.2435L126.749 43.2435L126.308 43.574ZM128.618 46.934L128.151 47.2259L128.151 47.2259L128.618 46.934ZM130.382 50V50.5508H131.286L130.872 49.7477L130.382 50ZM123.2 50L122.731 50.2887L122.893 50.5508H123.2V50ZM121.646 47.606L121.179 47.8979L121.185 47.9065L121.19 47.9149L121.646 47.606ZM119.84 44.96L119.393 45.2815L119.398 45.2882L119.84 44.96ZM117.782 42.398L117.365 42.7577L117.372 42.7657L117.782 42.398ZM115.682 40.34L116.026 39.9099L115.132 39.1939V40.34H115.682ZM115.682 50V50.5508H116.233V50H115.682ZM109.424 50H108.874V50.5508H109.424V50ZM109.424 18.416L109.337 17.8722L108.874 17.9468V18.416H109.424ZM115.682 17.408H116.233V16.7613L115.595 16.8642L115.682 17.408ZM116.088 36.2602C116.707 35.5857 117.339 34.8832 117.985 34.153L117.16 33.423C116.518 34.1488 115.89 34.8463 115.276 35.5158L116.088 36.2602ZM117.977 34.1616C118.652 33.4306 119.299 32.7134 119.918 32.0099L119.091 31.2821C118.478 31.9786 117.837 32.6894 117.168 33.4144L117.977 34.1616ZM119.925 32.0018C120.542 31.2724 121.117 30.5847 121.651 29.9388L120.802 29.2372C120.271 29.8793 119.699 30.5636 119.084 31.2902L119.925 32.0018ZM121.642 29.9494C122.204 29.303 122.684 28.7391 123.08 28.2582L122.229 27.5578C121.841 28.0289 121.369 28.585 120.811 29.2266L121.642 29.9494ZM122.654 28.4588H130.088V27.3572H122.654V28.4588ZM129.673 27.5467C128.191 29.2517 126.738 30.8865 125.313 32.4511L126.128 33.1929C127.559 31.6215 129.018 29.9803 130.504 28.2693L129.673 27.5467ZM125.313 32.4515C123.921 33.9829 122.388 35.5715 120.714 37.2172L121.487 38.0028C123.173 36.3445 124.72 34.7411 126.128 33.1925L125.313 32.4515ZM120.732 38.0194C121.549 38.7551 122.4 39.646 123.283 40.6948L124.126 39.9852C123.217 38.906 122.331 37.9769 121.469 37.2006L120.732 38.0194ZM123.288 40.7003C124.175 41.7265 125.035 42.7945 125.868 43.9045L126.749 43.2435C125.902 42.1135 125.026 41.0255 124.121 39.9797L123.288 40.7003ZM125.868 43.9045C126.699 45.0128 127.46 46.1199 128.151 47.2259L129.085 46.6421C128.377 45.5081 127.598 44.3752 126.749 43.2435L125.868 43.9045ZM128.151 47.2259C128.845 48.3363 129.425 49.3448 129.893 50.2523L130.872 49.7477C130.388 48.8072 129.792 47.7717 129.085 46.6421L128.151 47.2259ZM130.382 49.4492H123.2V50.5508H130.382V49.4492ZM123.669 49.7113C123.216 48.9751 122.694 48.1703 122.102 47.2971L121.19 47.9149C121.775 48.7777 122.288 49.5689 122.731 50.2887L123.669 49.7113ZM122.113 47.3141C121.546 46.4054 120.935 45.5113 120.283 44.6318L119.398 45.2882C120.033 46.1447 120.627 47.0146 121.179 47.8979L122.113 47.3141ZM120.288 44.6385C119.632 43.7266 118.934 42.8572 118.193 42.0303L117.372 42.7657C118.087 43.5628 118.76 44.4014 119.393 45.2815L120.288 44.6385ZM118.2 42.0383C117.482 41.2055 116.758 40.4947 116.026 39.9099L115.338 40.7701C116.007 41.3053 116.683 41.9665 117.365 42.7577L118.2 42.0383ZM115.132 40.34V50H116.233V40.34H115.132ZM115.682 49.4492H109.424V50.5508H115.682V49.4492ZM109.975 50V18.416H108.874V50H109.975ZM109.512 18.9598L115.77 17.9518L115.595 16.8642L109.337 17.8722L109.512 18.9598ZM115.132 17.408V35.888H116.233V17.408H115.132ZM132.061 33.998L131.552 33.7868L131.55 33.7917L132.061 33.998ZM134.455 30.302L134.066 29.9125L134.066 29.9125L134.455 30.302ZM137.815 28.076L137.614 27.563L137.61 27.5646L137.815 28.076ZM149.197 30.218L148.796 30.5957L148.799 30.5986L149.197 30.218ZM151.885 39.878L152.435 39.9146L152.435 39.9124L151.885 39.878ZM151.801 41.012V41.5628H152.308L152.35 41.0577L151.801 41.012ZM137.605 41.012V40.4612H136.991L137.057 41.0715L137.605 41.012ZM139.411 44.078L139.092 44.527L139.092 44.527L139.411 44.078ZM147.055 44.918L147.152 45.4603L147.163 45.4581L147.055 44.918ZM149.785 44.12L150.329 44.0302L150.213 43.33L149.563 43.6158L149.785 44.12ZM150.625 49.202L150.871 49.6947L151.235 49.513L151.169 49.1122L150.625 49.202ZM149.281 49.706L149.123 49.1784L149.123 49.1784L149.281 49.706ZM147.391 50.126L147.304 49.5821L147.291 49.5841L147.279 49.5867L147.391 50.126ZM145.207 50.462L145.266 51.0097L145.266 51.0097L145.207 50.462ZM137.647 49.706L137.441 50.2168L137.444 50.2181L137.647 49.706ZM133.993 47.312L133.587 47.6847L133.593 47.6904L133.598 47.696L133.993 47.312ZM131.851 43.658L131.326 43.8259L131.33 43.8353L131.851 43.658ZM145.879 36.728V37.2788H146.46L146.429 36.699L145.879 36.728ZM145.585 35.174L145.054 35.3214L145.058 35.3349L145.062 35.3482L145.585 35.174ZM144.871 33.83L144.438 34.1703L144.445 34.1796L144.453 34.1885L144.871 33.83ZM143.653 32.864L143.395 33.351L143.407 33.3567L143.653 32.864ZM140.041 32.864L140.265 33.3674L140.276 33.3623L140.287 33.3567L140.041 32.864ZM137.983 35.174L137.466 34.9836L137.463 34.9916L137.46 34.9998L137.983 35.174ZM137.605 36.728L137.061 36.6421L136.96 37.2788H137.605V36.728ZM131.73 39.122C131.73 37.2158 132.016 35.5807 132.572 34.2043L131.55 33.7917C130.93 35.3273 130.628 37.1082 130.628 39.122H131.73ZM132.57 34.2092C133.162 32.7814 133.923 31.613 134.845 30.6915L134.066 29.9125C133.027 30.951 132.192 32.2466 131.552 33.7868L132.57 34.2092ZM134.845 30.6915C135.773 29.7631 136.83 29.0631 138.02 28.5874L137.61 27.5646C136.28 28.0969 135.097 28.8809 134.066 29.9125L134.845 30.6915ZM138.016 28.589C139.242 28.1092 140.49 27.8708 141.763 27.8708V26.7692C140.348 26.7692 138.964 27.0348 137.614 27.563L138.016 28.589ZM141.763 27.8708C144.777 27.8708 147.099 28.7942 148.796 30.5957L149.598 29.8403C147.655 27.7778 145.021 26.7692 141.763 26.7692V27.8708ZM148.799 30.5986C150.487 32.3642 151.376 35.0189 151.376 38.66H152.478C152.478 34.8531 151.548 31.8798 149.595 29.8374L148.799 30.5986ZM151.376 38.66C151.376 39.0103 151.363 39.4046 151.335 39.8436L152.435 39.9124C152.463 39.4554 152.478 39.0377 152.478 38.66H151.376ZM151.335 39.8414C151.308 40.259 151.28 40.6339 151.252 40.9663L152.35 41.0577C152.378 40.7181 152.407 40.337 152.435 39.9146L151.335 39.8414ZM151.801 40.4612H137.605V41.5628H151.801V40.4612ZM137.057 41.0715C137.215 42.5174 137.901 43.6806 139.092 44.527L139.73 43.629C138.793 42.9634 138.276 42.0826 138.153 40.9525L137.057 41.0715ZM139.092 44.527C140.278 45.3699 141.83 45.7628 143.695 45.7628V44.6612C141.976 44.6612 140.672 44.2981 139.73 43.629L139.092 44.527ZM143.695 45.7628C144.875 45.7628 146.027 45.6621 147.152 45.4602L146.958 44.3758C145.899 44.5659 144.812 44.6612 143.695 44.6612V45.7628ZM147.163 45.4581C148.305 45.2297 149.257 44.954 150.007 44.6242L149.563 43.6158C148.913 43.902 148.045 44.1583 146.947 44.3779L147.163 45.4581ZM149.242 44.2098L150.082 49.2918L151.169 49.1122L150.329 44.0302L149.242 44.2098ZM150.379 48.7093C150.082 48.8577 149.667 49.0151 149.123 49.1784L149.439 50.2336C150.015 50.0609 150.496 49.8823 150.871 49.6947L150.379 48.7093ZM149.123 49.1784C148.59 49.3381 147.985 49.4732 147.304 49.5821L147.478 50.6699C148.197 50.5548 148.852 50.4099 149.439 50.2336L149.123 49.1784ZM147.279 49.5867C146.627 49.7226 145.917 49.832 145.148 49.9143L145.266 51.0097C146.065 50.924 146.811 50.8094 147.503 50.6653L147.279 49.5867ZM145.148 49.9143C144.384 49.9962 143.619 50.0372 142.855 50.0372V51.1388C143.659 51.1388 144.462 51.0958 145.266 51.0097L145.148 49.9143ZM142.855 50.0372C140.92 50.0372 139.256 49.7509 137.85 49.1939L137.444 50.2181C139.006 50.8371 140.814 51.1388 142.855 51.1388V50.0372ZM137.853 49.1952C136.46 48.6326 135.309 47.875 134.388 46.928L133.598 47.696C134.637 48.765 135.922 49.6034 137.441 50.2168L137.853 49.1952ZM134.399 46.9393C133.501 45.9625 132.825 44.812 132.373 43.4807L131.33 43.8353C131.829 45.304 132.581 46.5895 133.587 47.6847L134.399 46.9393ZM132.376 43.4901C131.947 42.1498 131.73 40.6949 131.73 39.122H130.628C130.628 40.7971 130.859 42.3662 131.326 43.8259L132.376 43.4901ZM146.429 36.699C146.399 36.1178 146.291 35.5509 146.108 34.9998L145.062 35.3482C145.215 35.8051 145.304 36.2742 145.329 36.757L146.429 36.699ZM146.116 35.0266C145.954 34.4459 145.679 33.9256 145.289 33.4715L144.453 34.1885C144.736 34.5184 144.936 34.8941 145.054 35.3214L146.116 35.0266ZM145.304 33.4897C144.94 33.0259 144.467 32.6549 143.899 32.3713L143.407 33.3567C143.847 33.5771 144.186 33.8501 144.438 34.1703L145.304 33.4897ZM143.911 32.3772C143.332 32.071 142.635 31.9352 141.847 31.9352V33.0368C142.515 33.0368 143.022 33.153 143.395 33.3508L143.911 32.3772ZM141.847 31.9352C141.082 31.9352 140.391 32.0729 139.795 32.3713L140.287 33.3567C140.699 33.1511 141.212 33.0368 141.847 33.0368V31.9352ZM139.817 32.3606C139.244 32.6156 138.756 32.9712 138.363 33.4295L139.199 34.1465C139.478 33.8208 139.83 33.5604 140.265 33.3674L139.817 32.3606ZM138.363 33.4295C137.98 33.8759 137.683 34.3962 137.466 34.9836L138.5 35.3644C138.676 34.8878 138.91 34.4841 139.199 34.1465L138.363 33.4295ZM137.46 34.9998C137.283 35.533 137.15 36.0805 137.061 36.6421L138.149 36.8139C138.228 36.3115 138.347 35.823 138.506 35.3482L137.46 34.9998ZM137.605 37.2788H145.879V36.1772H137.605V37.2788ZM176.37 27.908L176.899 28.0644L177.108 27.3572H176.37V27.908ZM172.422 39.878L171.906 39.6876L171.906 39.6876L172.422 39.878ZM167.928 50.714L168.428 50.9469L168.428 50.9458L167.928 50.714ZM166.164 53.906L165.708 53.597L165.704 53.6038L166.164 53.906ZM164.232 56.09L163.888 55.6597L163.878 55.6682L164.232 56.09ZM161.838 57.35L161.689 56.8197L161.679 56.8226L161.669 56.8258L161.838 57.35ZM156.042 57.476L156.168 56.9394L156.154 56.9366L156.042 57.476ZM154.026 56.888L153.488 56.7704L153.39 57.2179L153.813 57.3957L154.026 56.888ZM155.118 51.89L155.299 51.3697L154.713 51.1657L154.58 51.7724L155.118 51.89ZM156.84 52.352L156.931 51.8087L156.931 51.8087L156.84 52.352ZM160.998 51.554L160.618 51.1556L160.609 51.1644L160.6 51.1737L160.998 51.554ZM162.552 49.076L163.065 49.2782L163.156 49.0471L163.043 48.8257L162.552 49.076ZM158.268 39.668L157.758 39.8761L157.759 39.8775L158.268 39.668ZM154.236 27.908V27.3572H153.503L153.707 28.0616L154.236 27.908ZM160.872 27.908L161.406 27.7712L161.3 27.3572H160.872V27.908ZM161.838 31.478L161.308 31.6278L161.31 31.6347L161.312 31.6416L161.838 31.478ZM163.056 35.342L162.532 35.5095L162.533 35.5128L163.056 35.342ZM164.316 39.122L163.795 39.2998L163.799 39.3102L164.316 39.122ZM165.576 42.482L165.063 42.6816L165.596 44.0509L166.094 42.6691L165.576 42.482ZM167.844 35.342L167.316 35.1847L167.314 35.1922L167.844 35.342ZM168.936 31.478L168.406 31.3282L168.404 31.3361L168.936 31.478ZM169.902 27.908V27.3572H169.475L169.369 27.7712L169.902 27.908ZM175.842 27.7516C174.585 31.9975 173.273 35.976 171.906 39.6876L172.939 40.0684C174.316 36.332 175.636 32.3305 176.899 28.0644L175.842 27.7516ZM171.906 39.6876C170.539 43.3979 169.046 46.9961 167.429 50.4822L168.428 50.9458C170.059 47.4319 171.562 43.8061 172.939 40.0684L171.906 39.6876ZM167.429 50.4811C166.85 51.7226 166.276 52.7595 165.708 53.5971L166.62 54.2149C167.229 53.3165 167.831 52.2254 168.428 50.9469L167.429 50.4811ZM165.704 53.6038C165.142 54.4605 164.535 55.1424 163.888 55.6599L164.577 56.5201C165.33 55.9176 166.011 55.1435 166.625 54.2082L165.704 53.6038ZM163.878 55.6682C163.239 56.205 162.511 56.5885 161.689 56.8197L161.988 57.8803C162.957 57.6075 163.826 57.151 164.587 56.5118L163.878 55.6682ZM161.669 56.8258C160.869 57.0839 159.907 57.2192 158.772 57.2192V58.3208C159.99 58.3208 161.072 58.1761 162.008 57.8742L161.669 56.8258ZM158.772 57.2192C157.829 57.2192 156.961 57.1248 156.168 56.9396L155.917 58.0124C156.803 58.2192 157.756 58.3208 158.772 58.3208V57.2192ZM156.154 56.9366C155.363 56.773 154.728 56.5859 154.24 56.3803L153.813 57.3957C154.388 57.6381 155.098 57.843 155.931 58.0154L156.154 56.9366ZM154.565 57.0056L155.657 52.0076L154.58 51.7724L153.488 56.7704L154.565 57.0056ZM154.937 52.4103C155.602 52.6413 156.207 52.8048 156.75 52.8953L156.931 51.8087C156.466 51.7312 155.923 51.5867 155.299 51.3697L154.937 52.4103ZM156.75 52.8953C157.286 52.9848 157.849 53.0288 158.436 53.0288V51.9272C157.904 51.9272 157.402 51.8872 156.931 51.8087L156.75 52.8953ZM158.436 53.0288C159.657 53.0288 160.675 52.6905 161.397 51.9343L160.6 51.1737C160.146 51.6495 159.455 51.9272 158.436 51.9272V53.0288ZM161.379 51.9524C162.069 51.2939 162.625 50.3923 163.065 49.2782L162.04 48.8738C161.64 49.8877 161.16 50.6381 160.618 51.1556L161.379 51.9524ZM163.043 48.8257C161.623 46.0413 160.201 42.9192 158.778 39.4585L157.759 39.8775C159.192 43.3608 160.626 46.5107 162.062 49.3263L163.043 48.8257ZM158.778 39.4599C157.359 35.9808 156.021 32.0794 154.765 27.7544L153.707 28.0616C154.972 32.4166 156.322 36.3552 157.758 39.8761L158.778 39.4599ZM154.236 28.4588H160.872V27.3572H154.236V28.4588ZM160.339 28.0448C160.62 29.1419 160.943 30.3363 161.308 31.6278L162.368 31.3282C162.005 30.0437 161.685 28.8581 161.406 27.7712L160.339 28.0448ZM161.312 31.6416C161.705 32.903 162.111 34.1923 162.532 35.5095L163.581 35.1745C163.162 33.8597 162.756 32.573 162.364 31.3144L161.312 31.6416ZM162.533 35.5128C162.953 36.803 163.374 38.0653 163.795 39.2997L164.838 38.9443C164.419 37.7147 163.999 36.457 163.58 35.1712L162.533 35.5128ZM163.799 39.3102C164.248 40.5453 164.669 41.6692 165.063 42.6816L166.09 42.2824C165.7 41.2788 165.281 40.1627 164.834 38.9338L163.799 39.3102ZM166.094 42.6691C166.461 41.6533 166.842 40.5264 167.235 39.289L166.186 38.955C165.795 40.1816 165.419 41.2947 165.058 42.2949L166.094 42.6691ZM167.235 39.289C167.629 38.0511 168.009 36.7854 168.374 35.4918L167.314 35.1922C166.952 36.4746 166.576 37.7289 166.186 38.955L167.235 39.289ZM168.372 35.4992C168.766 34.1784 169.131 32.8853 169.469 31.6199L168.404 31.3361C168.07 32.5907 167.707 33.8736 167.316 35.1847L168.372 35.4992ZM169.466 31.6278C169.831 30.3363 170.155 29.1419 170.436 28.0448L169.369 27.7712C169.09 28.8581 168.769 30.0437 168.406 31.3282L169.466 31.6278ZM169.902 28.4588H176.37V27.3572H169.902V28.4588ZM187.495 32.99L187.356 32.457L187.35 32.4586L187.495 32.99ZM185.983 33.62L185.685 33.1567L185.432 33.3193V33.62H185.983ZM185.983 45.002H185.432V45.4617L185.885 45.5439L185.983 45.002ZM187.159 45.17L187.095 45.7171L187.111 45.7189L187.127 45.7199L187.159 45.17ZM192.577 43.448L193.02 43.7751L193.02 43.7751L192.577 43.448ZM199.465 43.742L198.949 43.5497L198.946 43.5587L199.465 43.742ZM193.627 49.748L193.819 50.2643L193.828 50.2608L193.627 49.748ZM186.361 50.42L186.416 49.8719L186.408 49.8711L186.399 49.8705L186.361 50.42ZM183.925 50.168L183.847 50.7133L183.85 50.7137L183.925 50.168ZM181.657 49.79L181.533 50.3267L181.543 50.329L181.553 50.3309L181.657 49.79ZM179.725 49.286H179.174V49.6958L179.567 49.8136L179.725 49.286ZM179.725 18.416L179.638 17.8722L179.174 17.9468V18.416H179.725ZM185.983 17.408H186.534V16.7613L185.896 16.8642L185.983 17.408ZM185.983 28.412H185.432V29.2562L186.205 28.9162L185.983 28.412ZM188.167 27.698L188.287 28.2357L188.287 28.2357L188.167 27.698ZM194.761 28.286L194.529 28.7855L194.539 28.7898L194.761 28.286ZM197.785 30.596L197.356 30.9416L197.356 30.9416L197.785 30.596ZM199.633 34.25L199.105 34.4054L199.106 34.4083L199.633 34.25ZM194.43 38.786C194.43 36.7186 194.052 35.0682 193.21 33.9235C192.344 32.7472 191.049 32.1872 189.427 32.1872V33.2888C190.773 33.2888 191.704 33.7368 192.323 34.5765C192.964 35.4478 193.328 36.8214 193.328 38.786H194.43ZM189.427 32.1872C188.735 32.1872 188.044 32.2776 187.356 32.457L187.634 33.523C188.234 33.3664 188.832 33.2888 189.427 33.2888V32.1872ZM187.35 32.4586C186.699 32.6363 186.138 32.8654 185.685 33.1567L186.281 34.0833C186.612 33.8706 187.06 33.6797 187.64 33.5214L187.35 32.4586ZM185.432 33.62V45.002H186.534V33.62H185.432ZM185.885 45.5439C186.208 45.6028 186.613 45.6603 187.095 45.7171L187.224 44.6229C186.754 44.5677 186.374 44.5132 186.082 44.4601L185.885 45.5439ZM187.127 45.7199C187.615 45.7486 188.144 45.7628 188.713 45.7628V44.6612C188.162 44.6612 187.655 44.6474 187.192 44.6201L187.127 45.7199ZM188.713 45.7628C190.563 45.7628 192.03 45.1167 193.02 43.7751L192.134 43.1209C191.388 44.1313 190.28 44.6612 188.713 44.6612V45.7628ZM193.02 43.7751C193.978 42.478 194.43 40.7981 194.43 38.786H193.328C193.328 40.6379 192.913 42.066 192.134 43.1209L193.02 43.7751ZM199.712 38.954C199.712 40.6625 199.455 42.1921 198.949 43.5497L199.981 43.9343C200.54 42.4359 200.814 40.7735 200.814 38.954H199.712ZM198.946 43.5587C198.466 44.9175 197.765 46.0654 196.844 47.012L197.634 47.78C198.674 46.7106 199.456 45.4225 199.985 43.9253L198.946 43.5587ZM196.844 47.012C195.924 47.9588 194.788 48.7012 193.426 49.2352L193.828 50.2608C195.323 49.6748 196.595 48.8492 197.634 47.78L196.844 47.012ZM193.435 49.2318C192.079 49.7369 190.522 49.9952 188.755 49.9952V51.0968C190.628 51.0968 192.319 50.8231 193.819 50.2642L193.435 49.2318ZM188.755 49.9952C188.019 49.9952 187.24 49.9543 186.416 49.8719L186.306 50.9681C187.162 51.0537 187.979 51.0968 188.755 51.0968V49.9952ZM186.399 49.8705C185.6 49.8153 184.8 49.7326 184 49.6223L183.85 50.7137C184.674 50.8274 185.499 50.9127 186.323 50.9695L186.399 49.8705ZM184.003 49.6227C183.227 49.5119 182.48 49.3873 181.761 49.2491L181.553 50.3309C182.29 50.4727 183.055 50.6001 183.847 50.7133L184.003 49.6227ZM181.781 49.2533C181.062 49.0873 180.429 48.9222 179.883 48.7584L179.567 49.8136C180.141 49.9858 180.797 50.1567 181.533 50.3267L181.781 49.2533ZM180.276 49.286V18.416H179.174V49.286H180.276ZM179.813 18.9598L186.071 17.9518L185.896 16.8642L179.638 17.8722L179.813 18.9598ZM185.432 17.408V28.412H186.534V17.408H185.432ZM186.205 28.9162C186.872 28.6229 187.565 28.396 188.287 28.2357L188.048 27.1603C187.257 27.336 186.495 27.5851 185.761 27.9078L186.205 28.9162ZM188.287 28.2357C188.999 28.0774 189.771 27.9968 190.603 27.9968V26.8952C189.7 26.8952 188.847 26.9826 188.048 27.1603L188.287 28.2357ZM190.603 27.9968C192.105 27.9968 193.41 28.2649 194.529 28.7855L194.993 27.7865C193.705 27.1871 192.237 26.8952 190.603 26.8952V27.9968ZM194.539 28.7898C195.664 29.2869 196.6 30.0032 197.356 30.9416L198.214 30.2504C197.346 29.1728 196.267 28.3491 194.984 27.7822L194.539 28.7898ZM197.356 30.9416C198.117 31.8855 198.702 33.0364 199.105 34.4054L200.162 34.0946C199.724 32.6076 199.078 31.3225 198.214 30.2504L197.356 30.9416ZM199.106 34.4083C199.508 35.7484 199.712 37.2619 199.712 38.954H200.814C200.814 37.1741 200.599 35.5516 200.161 34.0917L199.106 34.4083ZM224.981 43.7L225.5 43.8833L225.501 43.8802L224.981 43.7ZM222.797 47.396L223.197 47.7743L223.202 47.7687L222.797 47.396ZM219.353 49.748L219.141 49.2395L219.137 49.2411L219.353 49.748ZM210.449 49.748L210.233 50.2549L210.237 50.2565L210.449 49.748ZM207.047 47.396L206.641 47.7687L206.646 47.7742L207.047 47.396ZM204.821 43.7L204.303 43.889L204.305 43.8923L204.821 43.7ZM204.821 34.166L204.308 33.9649L204.305 33.9737L204.821 34.166ZM207.089 30.512L206.694 30.128L206.688 30.1338L207.089 30.512ZM210.533 28.16L210.321 27.6515L210.317 27.6531L210.533 28.16ZM219.269 28.16L219.053 28.6669L219.057 28.6685L219.269 28.16ZM222.713 30.512L222.312 30.8902L222.312 30.8902L222.713 30.512ZM224.939 34.166L224.423 34.3583L224.423 34.3583L224.939 34.166ZM218.177 34.376L217.72 34.6842L217.725 34.6908L217.729 34.6972L218.177 34.376ZM211.583 34.376L212.03 34.6973L212.034 34.6919L211.583 34.376ZM211.583 43.532L211.128 43.8427L211.132 43.8479L211.583 43.532ZM218.177 43.532L217.722 43.2213L217.72 43.2238L218.177 43.532ZM225.186 38.912C225.186 40.5944 224.942 42.1286 224.46 43.5198L225.501 43.8802C226.028 42.3594 226.288 40.7016 226.288 38.912H225.186ZM224.461 43.5167C223.98 44.8799 223.289 46.0462 222.391 47.0233L223.202 47.7687C224.209 46.6738 224.973 45.3761 225.5 43.8833L224.461 43.5167ZM222.396 47.0178C221.5 47.9668 220.417 48.7077 219.141 49.2395L219.565 50.2565C220.976 49.6683 222.19 48.8412 223.197 47.7742L222.396 47.0178ZM219.137 49.2411C217.899 49.768 216.49 50.0372 214.901 50.0372V51.1388C216.616 51.1388 218.175 50.848 219.568 50.2549L219.137 49.2411ZM214.901 50.0372C213.341 50.0372 211.93 49.7685 210.661 49.2395L210.237 50.2565C211.655 50.8475 213.212 51.1388 214.901 51.1388V50.0372ZM210.664 49.2411C209.416 48.7099 208.346 47.9689 207.447 47.0178L206.646 47.7742C207.652 48.8391 208.85 49.6661 210.233 50.2549L210.664 49.2411ZM207.452 47.0233C206.552 46.0439 205.846 44.8746 205.337 43.5077L204.305 43.8923C204.859 45.3814 205.637 46.6761 206.641 47.7687L207.452 47.0233ZM205.338 43.511C204.831 42.1223 204.574 40.5912 204.574 38.912H203.472C203.472 40.7048 203.747 42.3657 204.303 43.889L205.338 43.511ZM204.574 38.912C204.574 37.2326 204.831 35.7168 205.337 34.3583L204.305 33.9737C203.747 35.4712 203.472 37.1194 203.472 38.912H204.574ZM205.334 34.3671C205.871 32.9978 206.591 31.8417 207.489 30.8902L206.688 30.1338C205.683 31.1983 204.891 32.4782 204.308 33.9649L205.334 34.3671ZM207.484 30.896C208.412 29.9414 209.499 29.1987 210.748 28.6669L210.317 27.6531C208.935 28.2413 207.726 29.0666 206.694 30.128L207.484 30.896ZM210.745 28.6685C212.017 28.1385 213.4 27.8708 214.901 27.8708V26.7692C213.266 26.7692 211.737 27.0615 210.321 27.6515L210.745 28.6685ZM214.901 27.8708C216.431 27.8708 217.813 28.1391 219.053 28.6669L219.484 27.6531C218.093 27.0609 216.562 26.7692 214.901 26.7692V27.8708ZM219.057 28.6685C220.333 29.2003 221.416 29.9412 222.312 30.8902L223.113 30.1338C222.106 29.0668 220.892 28.2397 219.481 27.6515L219.057 28.6685ZM222.312 30.8902C223.209 31.8395 223.914 32.9925 224.423 34.3583L225.455 33.9737C224.9 32.4835 224.121 31.2005 223.113 30.1338L222.312 30.8902ZM224.423 34.3583C224.929 35.7168 225.186 37.2326 225.186 38.912H226.288C226.288 37.1194 226.013 35.4712 225.455 33.9737L224.423 34.3583ZM219.904 38.912C219.904 36.9132 219.499 35.2733 218.624 34.0547L217.729 34.6972C218.423 35.6627 218.802 37.0468 218.802 38.912H219.904ZM218.633 34.0678C217.768 32.7861 216.499 32.1452 214.901 32.1452V33.2468C216.158 33.2468 217.073 33.7259 217.72 34.6842L218.633 34.0678ZM214.901 32.1452C213.303 32.1452 212.024 32.7853 211.132 34.0601L212.034 34.6919C212.71 33.7267 213.643 33.2468 214.901 33.2468V32.1452ZM211.135 34.0547C210.261 35.2733 209.856 36.9132 209.856 38.912H210.958C210.958 37.0468 211.337 35.6627 212.03 34.6972L211.135 34.0547ZM209.856 38.912C209.856 40.913 210.261 42.5738 211.128 43.8426L212.038 43.2214C211.336 42.1942 210.958 40.775 210.958 38.912H209.856ZM211.132 43.8479C212.024 45.1227 213.303 45.7628 214.901 45.7628V44.6612C213.643 44.6612 212.71 44.1813 212.034 43.2161L211.132 43.8479ZM214.901 45.7628C216.499 45.7628 217.768 45.1219 218.633 43.8402L217.72 43.2238C217.073 44.1821 216.158 44.6612 214.901 44.6612V45.7628ZM218.632 43.8426C219.498 42.5738 219.904 40.913 219.904 38.912H218.802C218.802 40.775 218.423 42.1942 217.722 43.2214L218.632 43.8426ZM240.791 45.59L240.818 46.1401L240.818 46.1401L240.791 45.59ZM242.135 45.464L242.225 46.0073L242.685 45.9306V45.464H242.135ZM242.135 40.718H242.685V40.2761L242.254 40.1803L242.135 40.718ZM237.935 40.592L237.995 41.1395L238.008 41.1381L238.02 41.1361L237.935 40.592ZM236.591 40.97L236.837 41.4627L236.837 41.4627L236.591 40.97ZM236.297 45.086L236.01 45.5565L236.022 45.5637L236.034 45.5703L236.297 45.086ZM246.083 29.756L245.679 30.1309L245.686 30.1384L246.083 29.756ZM247.679 32.612L248.21 32.4659L248.21 32.4659L247.679 32.612ZM248.141 49.37L248.258 49.9081L248.691 49.8134V49.37H248.141ZM244.403 50.042L244.317 49.4978L244.307 49.4995L244.403 50.042ZM234.701 50.084L234.582 50.622L234.585 50.6226L234.701 50.084ZM231.719 48.866L231.403 49.3174L231.413 49.3243L231.719 48.866ZM229.787 46.598L230.282 46.3577L229.787 46.598ZM229.871 39.92L229.397 39.6387L229.39 39.6499L229.871 39.92ZM231.971 37.778L232.258 38.2476L232.258 38.2476L231.971 37.778ZM234.953 36.644L235.061 37.1843L235.073 37.1814L234.953 36.644ZM240.581 36.392L240.506 36.9378L240.519 36.9396L240.533 36.9408L240.581 36.392ZM242.135 36.644L241.983 37.1736L242.685 37.3743V36.644H242.135ZM234.659 32.78L234.732 33.3259L234.74 33.3249L234.747 33.3237L234.659 32.78ZM231.971 33.41L231.426 33.4961L231.532 34.16L232.162 33.9265L231.971 33.41ZM231.173 28.37L231.011 27.8435L230.554 27.9841L230.628 28.4561L231.173 28.37ZM232.517 28.034L232.63 28.573L232.64 28.5709L232.65 28.5684L232.517 28.034ZM234.323 27.698L234.394 28.2442L234.405 28.2427L234.417 28.2407L234.323 27.698ZM236.339 27.446L236.382 27.9951L236.392 27.9943L236.402 27.9932L236.339 27.446ZM239.027 46.1828C239.651 46.1828 240.248 46.1686 240.818 46.1401L240.763 45.0399C240.213 45.0674 239.634 45.0812 239.027 45.0812V46.1828ZM240.818 46.1401C241.388 46.1117 241.859 46.0683 242.225 46.0073L242.044 44.9207C241.738 44.9717 241.313 45.0123 240.763 45.0399L240.818 46.1401ZM242.685 45.464V40.718H241.584V45.464H242.685ZM242.254 40.1803C241.972 40.1176 241.57 40.0591 241.061 40.0025L240.94 41.0975C241.439 41.1529 241.793 41.2064 242.015 41.2557L242.254 40.1803ZM241.061 40.0025C240.541 39.9447 240.059 39.9152 239.615 39.9152V41.0168C240.011 41.0168 240.452 41.0433 240.94 41.0975L241.061 40.0025ZM239.615 39.9152C239 39.9152 238.411 39.959 237.849 40.0479L238.02 41.1361C238.522 41.057 239.053 41.0168 239.615 41.0168V39.9152ZM237.874 40.0445C237.315 40.1066 236.803 40.2481 236.344 40.4773L236.837 41.4627C237.162 41.2999 237.546 41.1894 237.995 41.1395L237.874 40.0445ZM236.344 40.4773C235.874 40.7124 235.49 41.04 235.208 41.4625L236.125 42.0735C236.291 41.824 236.523 41.6196 236.837 41.4627L236.344 40.4773ZM235.208 41.4625C234.91 41.9091 234.78 42.4423 234.78 43.028H235.881C235.881 42.6057 235.975 42.2989 236.125 42.0735L235.208 41.4625ZM234.78 43.028C234.78 44.1347 235.153 45.0346 236.01 45.5565L236.583 44.6155C236.152 44.3534 235.881 43.8813 235.881 43.028H234.78ZM236.034 45.5703C236.817 45.9945 237.829 46.1828 239.027 46.1828V45.0812C237.928 45.0812 237.12 44.9055 236.559 44.6017L236.034 45.5703ZM238.523 27.8708C240.333 27.8708 241.809 28.0772 242.965 28.4714L243.32 27.4286C242.013 26.9828 240.408 26.7692 238.523 26.7692V27.8708ZM242.965 28.4714C244.129 28.8683 245.025 29.4266 245.679 30.1308L246.486 29.3812C245.684 28.5174 244.62 27.8717 243.32 27.4286L242.965 28.4714ZM245.686 30.1384C246.374 30.8517 246.862 31.7207 247.147 32.7581L248.21 32.4659C247.879 31.2633 247.303 30.2283 246.479 29.3736L245.686 30.1384ZM247.147 32.7581C247.44 33.8228 247.59 35.0187 247.59 36.35H248.691C248.691 34.9373 248.533 33.6412 248.21 32.4659L247.147 32.7581ZM247.59 36.35V49.37H248.691V36.35H247.59ZM248.023 48.8319C247.142 49.0245 245.909 49.2465 244.317 49.4979L244.488 50.5861C246.088 50.3335 247.347 50.1075 248.258 49.9081L248.023 48.8319ZM244.307 49.4995C242.752 49.7722 240.854 49.9112 238.607 49.9112V51.0128C240.895 51.0128 242.861 50.8718 244.498 50.5845L244.307 49.4995ZM238.607 49.9112C237.21 49.9112 235.948 49.7879 234.816 49.5454L234.585 50.6226C235.805 50.8841 237.147 51.0128 238.607 51.0128V49.9112ZM234.819 49.546C233.727 49.3063 232.799 48.924 232.024 48.4077L231.413 49.3243C232.319 49.928 233.378 50.3577 234.582 50.622L234.819 49.546ZM232.034 48.4147C231.271 47.8807 230.689 47.1973 230.282 46.3577L229.291 46.8383C229.78 47.8467 230.486 48.6753 231.403 49.3173L232.034 48.4147ZM230.282 46.3577C229.88 45.528 229.665 44.4814 229.665 43.196H228.564C228.564 44.5986 228.797 45.82 229.291 46.8383L230.282 46.3577ZM229.665 43.196C229.665 41.979 229.903 40.9852 230.351 40.1901L229.39 39.6499C228.83 40.6468 228.564 41.837 228.564 43.196H229.665ZM230.344 40.2012C230.832 39.3803 231.469 38.7317 232.258 38.2476L231.683 37.3084C230.737 37.8883 229.973 38.6677 229.397 39.6388L230.344 40.2012ZM232.258 38.2476C233.065 37.7534 233.996 37.397 235.061 37.1841L234.845 36.1039C233.669 36.339 232.612 36.7386 231.683 37.3084L232.258 38.2476ZM235.073 37.1814C236.152 36.9388 237.273 36.8168 238.439 36.8168V35.7152C237.196 35.7152 235.993 35.8452 234.832 36.1066L235.073 37.1814ZM238.439 36.8168C239.233 36.8168 239.921 36.858 240.506 36.9378L240.655 35.8462C240.008 35.758 239.268 35.7152 238.439 35.7152V36.8168ZM240.533 36.9408C241.16 36.9953 241.639 37.0752 241.983 37.1736L242.286 36.1144C241.846 35.9888 241.29 35.9007 240.628 35.8432L240.533 36.9408ZM242.685 36.644V36.056H241.584V36.644H242.685ZM242.685 36.056C242.685 34.8724 242.323 33.8692 241.558 33.1045L240.779 33.8835C241.302 34.4068 241.584 35.1116 241.584 36.056H242.685ZM241.558 33.1045C240.756 32.3026 239.449 31.9772 237.809 31.9772V33.0788C239.36 33.0788 240.293 33.3974 240.779 33.8835L241.558 33.1045ZM237.809 31.9772C236.715 31.9772 235.636 32.0635 234.57 32.2363L234.747 33.3237C235.753 33.1605 236.774 33.0788 237.809 33.0788V31.9772ZM234.585 32.2341C233.52 32.378 232.582 32.596 231.779 32.8935L232.162 33.9265C232.871 33.664 233.725 33.462 234.732 33.3259L234.585 32.2341ZM232.515 33.3239L231.717 28.2839L230.628 28.4561L231.426 33.4961L232.515 33.3239ZM231.335 28.8965C231.677 28.791 232.108 28.6829 232.63 28.573L232.403 27.495C231.861 27.6091 231.396 27.725 231.011 27.8435L231.335 28.8965ZM232.65 28.5684C233.187 28.4341 233.768 28.3258 234.394 28.2442L234.251 27.1518C233.589 27.2382 232.966 27.3539 232.383 27.4996L232.65 28.5684ZM234.417 28.2407C235.043 28.1318 235.698 28.0498 236.382 27.9951L236.295 26.8969C235.579 26.9542 234.89 27.0402 234.228 27.1553L234.417 28.2407ZM236.402 27.9932C237.109 27.9116 237.816 27.8708 238.523 27.8708V26.7692C237.773 26.7692 237.024 26.8124 236.275 26.8988L236.402 27.9932ZM267.113 33.452L266.98 33.9864L267.538 34.1261L267.653 33.5617L267.113 33.452ZM265.139 33.032L265.02 33.5697L265.029 33.5718L265.039 33.5736L265.139 33.032ZM261.275 32.906L261.333 33.4538L261.345 33.4525L261.357 33.4507L261.275 32.906ZM260.057 33.116L259.899 32.5884L259.507 32.7062V33.116H260.057ZM260.057 50V50.5508H260.608V50H260.057ZM253.799 50H253.249V50.5508H253.799V50ZM253.799 29.084L253.617 28.5641L253.249 28.6932V29.084H253.799ZM257.747 27.992L257.867 28.5298L257.874 28.5281L257.747 27.992ZM264.089 27.53L264.025 28.0771L264.041 28.0789L264.057 28.0799L264.089 27.53ZM265.517 27.698L265.422 28.2405L265.437 28.2432L265.453 28.2451L265.517 27.698ZM266.945 27.95L266.819 28.4862L266.834 28.4897L266.85 28.4925L266.945 27.95ZM268.163 28.286L268.703 28.3957L268.793 27.9518L268.375 27.7775L268.163 28.286ZM267.247 32.9176C266.673 32.7741 266.003 32.6318 265.24 32.4904L265.039 33.5736C265.787 33.7122 266.434 33.8499 266.98 33.9864L267.247 32.9176ZM265.259 32.4943C264.459 32.3166 263.607 32.2292 262.703 32.2292V33.3308C263.536 33.3308 264.307 33.4114 265.02 33.5697L265.259 32.4943ZM262.703 32.2292C262.275 32.2292 261.77 32.2748 261.194 32.3613L261.357 33.4507C261.901 33.3692 262.348 33.3308 262.703 33.3308V32.2292ZM261.218 32.3582C260.675 32.4154 260.228 32.4896 259.899 32.5884L260.216 33.6436C260.446 33.5744 260.812 33.5086 261.333 33.4538L261.218 32.3582ZM259.507 33.116V50H260.608V33.116H259.507ZM260.057 49.4492H253.799V50.5508H260.057V49.4492ZM254.35 50V29.084H253.249V50H254.35ZM253.981 29.6039C255.076 29.2208 256.37 28.8623 257.867 28.5297L257.628 27.4543C256.101 27.7937 254.763 28.1632 253.617 28.5641L253.981 29.6039ZM257.874 28.5281C259.366 28.1755 261.03 27.9968 262.871 27.9968V26.8952C260.96 26.8952 259.209 27.0805 257.621 27.4559L257.874 28.5281ZM262.871 27.9968C263.179 27.9968 263.562 28.0226 264.025 28.0771L264.154 26.9829C263.665 26.9254 263.236 26.8952 262.871 26.8952V27.9968ZM264.057 28.0799C264.511 28.1066 264.966 28.1601 265.422 28.2405L265.613 27.1555C265.116 27.0679 264.619 27.0094 264.122 26.9801L264.057 28.0799ZM265.453 28.2451C265.908 28.2986 266.363 28.3789 266.819 28.4862L267.072 27.4138C266.576 27.2971 266.079 27.2094 265.582 27.1509L265.453 28.2451ZM266.85 28.4925C267.298 28.5716 267.663 28.6741 267.952 28.7945L268.375 27.7775C267.992 27.6179 267.545 27.4964 267.041 27.4075L266.85 28.4925ZM267.624 28.1763L266.574 33.3423L267.653 33.5617L268.703 28.3957L267.624 28.1763ZM277.744 43.448L278.187 43.1209L278.187 43.1209L277.744 43.448ZM283.162 45.17L283.194 45.7199L283.21 45.7189L283.226 45.7171L283.162 45.17ZM284.338 45.002L284.437 45.5439L284.889 45.4617V45.002H284.338ZM284.338 33.62H284.889V33.3193L284.636 33.1567L284.338 33.62ZM282.784 32.99L282.639 33.5215L282.645 33.523L282.784 32.99ZM290.596 49.286L290.754 49.8136L291.147 49.6958V49.286H290.596ZM288.664 49.79L288.768 50.3309L288.778 50.329L288.788 50.3267L288.664 49.79ZM286.354 50.168L286.279 49.6223L286.276 49.6227L286.354 50.168ZM283.918 50.42L283.881 49.8704L283.871 49.8711L283.861 49.8721L283.918 50.42ZM273.082 47.48L272.687 47.864L272.692 47.8695L273.082 47.48ZM270.814 43.868L270.294 44.0514L270.299 44.0637L270.814 43.868ZM270.73 34.25L271.256 34.4149L271.256 34.412L270.73 34.25ZM272.662 30.554L272.239 30.2014L272.239 30.2014L272.662 30.554ZM275.728 28.244L275.51 27.7383L275.505 27.7402L275.728 28.244ZM282.238 27.698L282.104 28.2324L282.109 28.2336L282.238 27.698ZM284.338 28.412L284.116 28.9162L284.889 29.2562V28.412H284.338ZM284.338 18.416L284.25 17.8722L283.787 17.9468V18.416H284.338ZM290.596 17.408H291.147V16.7613L290.508 16.8642L290.596 17.408ZM275.891 38.786C275.891 40.7981 276.343 42.478 277.301 43.7751L278.187 43.1209C277.409 42.066 276.993 40.6379 276.993 38.786H275.891ZM277.301 43.7751C278.291 45.1167 279.759 45.7628 281.608 45.7628V44.6612C280.041 44.6612 278.933 44.1313 278.187 43.1209L277.301 43.7751ZM281.608 45.7628C282.177 45.7628 282.706 45.7486 283.194 45.7199L283.13 44.6201C282.666 44.6474 282.159 44.6612 281.608 44.6612V45.7628ZM283.226 45.7171C283.708 45.6603 284.113 45.6028 284.437 45.5439L284.239 44.4601C283.947 44.5132 283.567 44.5677 283.098 44.6229L283.226 45.7171ZM284.889 45.002V33.62H283.787V45.002H284.889ZM284.636 33.1567C284.179 32.8629 283.601 32.6339 282.923 32.457L282.645 33.523C283.255 33.6821 283.713 33.8731 284.04 34.0833L284.636 33.1567ZM282.929 32.4586C282.265 32.2776 281.587 32.1872 280.894 32.1872V33.2888C281.489 33.2888 282.071 33.3664 282.639 33.5214L282.929 32.4586ZM280.894 32.1872C279.272 32.1872 277.977 32.7472 277.111 33.9235C276.269 35.0682 275.891 36.7186 275.891 38.786H276.993C276.993 36.8214 277.357 35.4478 277.999 34.5765C278.617 33.7368 279.548 33.2888 280.894 33.2888V32.1872ZM290.438 48.7584C289.892 48.9222 289.26 49.0873 288.54 49.2533L288.788 50.3267C289.524 50.1567 290.18 49.9858 290.754 49.8136L290.438 48.7584ZM288.56 49.2491C287.842 49.3871 287.082 49.5115 286.279 49.6223L286.429 50.7137C287.25 50.6005 288.03 50.4729 288.768 50.3309L288.56 49.2491ZM286.276 49.6227C285.507 49.7326 284.708 49.8152 283.881 49.8704L283.955 50.9696C284.808 50.9128 285.633 50.8274 286.432 50.7133L286.276 49.6227ZM283.861 49.8721C283.067 49.9543 282.302 49.9952 281.566 49.9952V51.0968C282.342 51.0968 283.145 51.0537 283.975 50.9679L283.861 49.8721ZM281.566 49.9952C279.799 49.9952 278.242 49.7369 276.886 49.2318L276.502 50.2642C278.002 50.8231 279.693 51.0968 281.566 51.0968V49.9952ZM276.886 49.2318C275.525 48.7246 274.39 48.0093 273.471 47.0905L272.692 47.8695C273.734 48.9107 275.007 49.7074 276.502 50.2642L276.886 49.2318ZM273.477 47.096C272.553 46.1454 271.836 45.0067 271.329 43.6723L270.299 44.0637C270.856 45.5293 271.651 46.7986 272.687 47.864L273.477 47.096ZM271.333 43.6847C270.853 42.3244 270.609 40.7916 270.609 39.08H269.507C269.507 40.8964 269.767 42.5556 270.295 44.0513L271.333 43.6847ZM270.609 39.08C270.609 37.3332 270.827 35.7802 271.256 34.4149L270.204 34.0851C269.737 35.5758 269.507 37.2428 269.507 39.08H270.609ZM271.256 34.412C271.686 33.0147 272.299 31.8503 273.085 30.9066L272.239 30.2014C271.345 31.2737 270.67 32.5733 270.203 34.088L271.256 34.412ZM273.085 30.9066C273.871 29.964 274.824 29.2457 275.951 28.7478L275.505 27.7402C274.224 28.3063 273.133 29.128 272.239 30.2014L273.085 30.9066ZM275.946 28.7497C277.099 28.2521 278.423 27.9968 279.928 27.9968V26.8952C278.297 26.8952 276.821 27.1719 275.51 27.7383L275.946 28.7497ZM279.928 27.9968C280.762 27.9968 281.485 28.0777 282.104 28.2324L282.372 27.1636C281.647 26.9823 280.83 26.8952 279.928 26.8952V27.9968ZM282.109 28.2336C282.776 28.3935 283.444 28.6206 284.116 28.9162L284.56 27.9078C283.832 27.5874 283.1 27.3385 282.367 27.1624L282.109 28.2336ZM284.889 28.412V18.416H283.787V28.412H284.889ZM284.426 18.9598L290.684 17.9518L290.508 16.8642L284.25 17.8722L284.426 18.9598ZM290.045 17.408V49.286H291.147V17.408H290.045Z" fill="#BDBDBD"/>
</g>
<defs>
<clipPath id="clip0_141_4041">
<rect width="400" height="60" fill="white"/>
</clipPath>
</defs>
</svg>
