<svg width="471" height="102" viewBox="0 0 471 102" fill="none" xmlns="http://www.w3.org/2000/svg">
<path d="M230.2 20.3101H12.1799V67.5301H230.2V20.3101Z" fill="#00FF63"/>
<path d="M214.76 20.79V67.05H12.66V20.79H214.76ZM215.76 19.79H11.76V67.97H215.76V19.83V19.79Z" fill="black"/>
<path d="M230.76 19.6099H214.84V67.0399H230.76V19.6099Z" fill="black"/>
<path d="M230.17 20.2103V66.4703H215.43V20.2103H230.17ZM231.35 19.0303H214.26V67.6403H231.35V19.0303Z" fill="#00FF63"/>
<path d="M210.66 43.7197L224.23 30.1497L237.8 43.7197L244.25 37.2797L230.68 23.6997L244.25 10.1297L237.8 3.67969L224.23 17.2597L210.66 3.67969L204.21 10.1297L217.79 23.6997L204.21 37.2697L210.66 43.7197Z" fill="#00FF63" stroke="black" stroke-width="1.1" stroke-miterlimit="10"/>
<path d="M207.97 41.03L221.54 27.46L235.12 41.03L241.56 34.59L227.99 21.02L241.56 7.44L235.12 1L221.54 14.57L207.97 1L201.53 7.44L215.1 21.02L201.53 34.59L207.97 41.03Z" fill="#00FF63" stroke="black" stroke-width="1.1" stroke-miterlimit="10"/>
<path d="M12.66 67.23H1V78.89H12.66V67.23Z" fill="black" stroke="black" stroke-width="0.59" stroke-miterlimit="10"/>
<path d="M24.32 55.5698H12.66V67.2298H24.32V55.5698Z" fill="black" stroke="black" stroke-width="0.59" stroke-miterlimit="10"/>
<path d="M12.66 43.9199H1V55.5799H12.66V43.9199Z" fill="black" stroke="black" stroke-width="0.59" stroke-miterlimit="10"/>
<path d="M24.32 32.2598H12.66V43.9198H24.32V32.2598Z" fill="black" stroke="black" stroke-width="0.59" stroke-miterlimit="10"/>
<path d="M12.66 20.6099H1V32.2699H12.66V20.6099Z" fill="black" stroke="black" stroke-width="0.59" stroke-miterlimit="10"/>
<path d="M24.32 8.9502H12.66V20.6102H24.32V8.9502Z" fill="black" stroke="black" stroke-width="0.59" stroke-miterlimit="10"/>
<path d="M469.7 66.3701H11.98V101.37H469.7V66.3701Z" fill="black"/>
<path d="M468.72 67.35V100H12.36V67.35H468.72ZM470.08 66H11V101.36H470.08V66Z" fill="#00FF63"/>
<path d="M37.02 57.46H41.6V55.86H39.22V39.5H41.6V37.94H37.02V57.46ZM48.1786 41.28C48.6186 40.9 49.0586 40.48 49.4786 40.08C50.0786 40.46 50.7386 40.88 51.3786 41.28H48.1786ZM51.5386 44.98V45.76H46.9986V45.64V44.98H51.5386ZM46.9186 47.98C46.9386 47.7 46.9586 47.42 46.9586 47.16H51.5386V47.98H46.9186ZM52.0986 51.86V53.28H48.3986V51.86H52.0986ZM51.5186 42.68V41.38C52.3786 41.94 53.1586 42.46 53.6986 42.9L54.9186 40.9C53.9986 40.24 52.3386 39.26 50.8586 38.4C50.9786 38.24 51.0986 38.08 51.2186 37.9L49.0386 37.04C47.7586 38.96 45.4186 40.6 43.0986 41.58C43.4986 42.1 44.1186 43.3 44.3386 43.86L44.7986 43.62V45.64C44.7986 47.98 44.6386 51.56 43.0586 54.1C43.6386 54.28 44.6786 54.72 45.1386 55.02C45.7186 54 46.1386 52.78 46.4186 51.52V55.66H48.3986V55.04H52.0986V55.58H54.1786V50.24H46.6586C46.6986 50.04 46.7186 49.82 46.7586 49.62H53.6986V43.34H45.2586C45.9986 42.92 46.6986 42.42 47.3986 41.9V42.68H51.5186ZM57.5386 39.12H55.2986V50.28H57.5386V39.12ZM58.9186 37.12V52.86C58.9186 53.2 58.7786 53.3 58.4586 53.3C58.1386 53.3 57.0986 53.3 56.0786 53.28C56.3986 53.94 56.6786 55 56.7786 55.66C58.3786 55.66 59.5186 55.58 60.2186 55.18C60.9586 54.8 61.1986 54.16 61.1986 52.88V37.12H58.9186ZM67.5986 37.14C66.5986 39.98 64.8586 42.82 63.0386 44.62C63.4586 45.22 64.1386 46.58 64.3586 47.16C64.7586 46.72 65.1786 46.22 65.5986 45.72V55.72H67.9986V42.02C68.7386 40.68 69.3986 39.26 69.9186 37.86L67.5986 37.14ZM81.9386 42.58V40.32H74.1786C74.5586 39.5 74.8786 38.68 75.1586 37.84L72.8586 37.26C71.9586 40.12 70.3786 43 68.6186 44.8C69.1186 45.18 70.0586 46.02 70.4386 46.46C71.3386 45.42 72.2586 44.06 73.0586 42.58H73.8186V55.74H76.2586V51.3H81.6986V49.1H76.2586V46.84H81.4386V44.68H76.2586V42.58H81.9386ZM89.8986 45.56L88.0586 46.02V43.06H90.0186V40.86H88.0586V37.06H85.6986V40.86H83.3986V43.06H85.6986V46.6C84.7386 46.84 83.8786 47.04 83.1386 47.18L83.7586 49.44L85.6986 48.96V53.08C85.6986 53.38 85.6186 53.48 85.3186 53.48C85.0586 53.48 84.2386 53.48 83.4586 53.46C83.7386 54.08 84.0386 55.02 84.1386 55.62C85.5386 55.62 86.4986 55.56 87.1586 55.2C87.8386 54.82 88.0586 54.26 88.0586 53.1V48.32C88.7786 48.14 89.4986 47.94 90.1986 47.74L89.8986 45.56ZM98.2586 46.64C97.6586 48 96.7986 49.18 95.7586 50.18C94.7586 49.16 93.9586 47.96 93.3986 46.64H98.2586ZM99.7586 44.4L99.3386 44.5H96.9386V42.1H101.419V39.9H96.9386V37.04H94.5786V39.9H90.2786V42.1H94.5786V44.5H90.6386V46.64H91.6786L91.0786 46.82C91.7986 48.66 92.7386 50.24 93.9186 51.58C92.5186 52.48 90.8986 53.12 89.1386 53.54C89.5786 54.06 90.1586 55.06 90.4186 55.7C92.3586 55.12 94.1186 54.32 95.6786 53.24C97.0586 54.36 98.7186 55.18 100.659 55.76C100.999 55.14 101.679 54.18 102.179 53.7C100.399 53.26 98.8586 52.6 97.5586 51.68C99.2386 50 100.519 47.82 101.279 45.04L99.7586 44.4ZM108.339 41.94H110.599V39.58H103.279V41.94H105.919V49.56C104.839 49.76 103.839 49.92 103.019 50.06L103.539 52.5C105.679 52.06 108.499 51.48 111.139 50.86L110.919 48.6C110.059 48.76 109.199 48.94 108.339 49.1V41.94ZM121.859 40.62V38.22H110.879V40.62H113.339C112.919 42.88 112.359 45.3 111.879 47H118.799C118.559 50.62 118.279 52.44 117.759 52.88C117.479 53.1 117.179 53.12 116.719 53.12C116.039 53.12 114.459 53.1 112.879 52.98C113.419 53.68 113.819 54.7 113.859 55.44C115.299 55.48 116.759 55.52 117.599 55.44C118.579 55.34 119.259 55.14 119.879 54.42C120.679 53.54 121.039 51.28 121.339 45.76L121.399 44.7H114.999C115.279 43.44 115.579 42 115.819 40.62H121.859ZM141.439 44.88V42.42H133.579C133.779 40.56 133.799 38.72 133.819 37.08H131.219C131.199 38.72 131.219 40.54 131.019 42.42H123.739V44.88H130.619C129.839 48.32 127.939 51.64 123.359 53.68C124.059 54.18 124.759 55.04 125.139 55.7C129.379 53.66 131.539 50.54 132.619 47.2C134.179 51.06 136.499 53.98 140.119 55.68C140.499 55 141.279 53.94 141.879 53.44C138.139 51.92 135.719 48.78 134.399 44.88H141.439ZM155.099 48.14C154.799 49.36 153.939 50.58 152.659 51.26C152.999 51.52 153.519 52.12 153.759 52.48C154.499 52.06 155.139 51.48 155.639 50.8C156.319 51.38 156.999 52 157.379 52.44L158.539 51.28C158.059 50.8 157.199 50.06 156.419 49.48C156.579 49.16 156.719 48.8 156.819 48.46L155.099 48.14ZM157.979 53.64C157.939 53.24 157.899 52.76 157.859 52.4C157.459 52.5 156.719 52.54 156.239 52.54H153.279C152.739 52.54 152.639 52.34 152.639 51.76V48.6H152.079C152.219 48.44 152.359 48.26 152.499 48.1H159.359C159.179 51.6 158.979 53 158.659 53.4C158.519 53.58 158.339 53.64 158.059 53.64H157.979ZM152.999 42.34H158.259V43.38H152.999V42.34ZM152.999 39.68H158.259V40.7H152.999V39.68ZM153.919 46.1C154.139 45.76 154.319 45.46 154.499 45.12H160.439V37.96H150.919V45.12H151.959C151.459 45.9 150.839 46.66 150.159 47.32L149.959 45.78C149.359 45.94 148.719 46.12 148.079 46.28V43.06H150.019V40.86H148.079V37.06H145.799V40.86H143.239V43.06H145.799V46.84C144.799 47.08 143.839 47.28 143.059 47.44L143.379 49.78C144.119 49.58 144.939 49.36 145.799 49.14V53.04C145.799 53.34 145.699 53.44 145.399 53.44C145.119 53.44 144.239 53.44 143.399 53.4C143.679 54.02 143.999 54.96 144.079 55.58C145.519 55.58 146.499 55.52 147.159 55.16C147.839 54.8 148.079 54.22 148.079 53.04V48.56L149.139 48.26C148.919 48.44 148.699 48.6 148.479 48.76C148.919 49.22 149.599 50.32 149.859 50.78C150.139 50.58 150.419 50.34 150.699 50.06V51.74C150.699 53.74 151.259 54.42 153.319 54.42H156.279H156.739C156.859 54.86 156.939 55.32 156.959 55.68C157.839 55.72 158.659 55.7 159.159 55.62C159.739 55.54 160.159 55.38 160.519 54.84C161.079 54.14 161.339 52.1 161.579 47.02C161.599 46.74 161.619 46.1 161.619 46.1H153.919ZM166.599 45.36L170.899 44.42L170.819 43.18L170.119 43.28L170.619 42.26C169.819 41.94 168.339 41.56 167.259 41.38L166.679 42.46C167.679 42.68 168.959 43.02 169.779 43.34C168.379 43.54 167.099 43.72 166.099 43.86V41.36H171.339V45.26H173.679V41.36H177.759C176.879 41.7 175.419 42.22 174.459 42.44L174.899 43.14L174.479 43.08L174.079 44.26C175.599 44.5 177.639 44.98 178.699 45.36L179.079 44.06C178.279 43.8 176.959 43.48 175.739 43.26C176.659 43.06 177.779 42.8 178.619 42.44L177.839 41.36H179.019V43.96H181.439V39.98H173.679V39.16H180.419V37.72H164.779V39.16H171.339V39.98H163.799V43.96H166.079L166.599 45.36ZM174.579 51.32C175.279 51.04 175.959 50.72 176.599 50.34C177.299 50.72 178.059 51.06 178.859 51.32H174.579ZM175.259 53.9V52.7H177.979V53.9H175.259ZM171.459 50.46H169.179V49.54H171.399V48.02C171.779 48.28 172.259 48.76 172.499 49.08C172.999 48.82 173.459 48.5 173.879 48.18C174.219 48.58 174.579 48.92 174.999 49.26C173.899 49.8 172.659 50.22 171.459 50.5V50.46ZM166.599 47.02H169.419V48.08H166.599V47.02ZM177.999 47.16C177.579 47.6 177.099 48 176.539 48.36C175.979 48.02 175.459 47.6 175.039 47.16H177.999ZM179.499 45.68L179.179 45.76H176.219C176.359 45.58 176.459 45.38 176.579 45.18L174.819 44.88C174.199 45.94 173.039 47.02 171.399 47.86V45.56H164.699V49.54H167.199V53.52L166.219 53.6V50.06H164.479V53.72L163.579 53.78L163.779 55.6C165.979 55.42 169.059 55.14 171.979 54.86L171.959 53.16C171.039 53.24 170.099 53.32 169.179 53.38V52.04H171.459V50.98C171.739 51.34 172.019 51.78 172.159 52.1C172.519 52 172.899 51.9 173.279 51.76V55.74H175.259V55.34H177.979V55.7H180.059V51.64C180.359 51.72 180.659 51.78 180.979 51.84C181.219 51.32 181.759 50.56 182.159 50.2C180.759 50 179.419 49.68 178.279 49.22C179.279 48.4 180.139 47.46 180.739 46.36L179.499 45.68ZM188.05 57.46H192.63V37.94H188.05V39.5H190.43V55.86H188.05V57.46Z" fill="#202020"/>
<path d="M38.776 78.032V79.104H51.336V78.032H38.776ZM37.864 81.776V82.864H52.136V81.776H37.864ZM40.808 86.96V87.92H49.288V86.96H40.808ZM40.824 89.68V90.704H49.304V89.68H40.824ZM44.344 76.56V78.624H45.592V76.56H44.344ZM40.216 84.256V91.296H41.416V85.28H48.744V91.264H49.992V84.256H40.216ZM47.944 79.056C47.704 79.808 47.224 80.88 46.824 81.568L47.944 81.872C48.344 81.232 48.824 80.256 49.24 79.376L47.944 79.056ZM40.984 79.376C41.432 80.128 41.832 81.168 41.944 81.872L43.176 81.552C43.048 80.88 42.632 79.872 42.136 79.12L40.984 79.376ZM58.216 85.712V86.784H72.424V85.712H58.216ZM64.664 84.224V91.248H65.88V84.224H64.664ZM64.12 86.128C62.808 87.824 60.232 89.344 57.896 90.064C58.168 90.304 58.52 90.768 58.712 91.072C61.048 90.224 63.656 88.512 65.112 86.576L64.12 86.128ZM66.44 86.16L65.432 86.64C66.888 88.528 69.496 90.16 71.928 90.96C72.104 90.64 72.472 90.176 72.728 89.936C70.296 89.28 67.736 87.824 66.44 86.16ZM64.04 81.728H66.552V83.488H64.04V81.728ZM64.04 79.088H66.552V80.816H64.04V79.088ZM63 78.144V84.432H67.608V78.144H63ZM64.872 76.56C64.776 77.136 64.552 77.984 64.36 78.544L65.304 78.752C65.544 78.24 65.816 77.472 66.072 76.752L64.872 76.56ZM58.328 79.68C59.128 80.336 60.072 81.264 60.488 81.904L61.048 81.024C60.632 80.416 59.672 79.52 58.856 78.912L58.328 79.68ZM61.24 82.032C61.704 82.944 62.152 84.176 62.28 84.944L63.128 84.608C62.984 83.872 62.52 82.672 62.04 81.776L61.24 82.032ZM61.64 78.896C60.984 80.352 59.816 82.4 58.888 83.648L59.672 84.016C60.6 82.784 61.736 80.848 62.584 79.264L61.64 78.896ZM60.392 76.672C60.072 77.6 59.464 78.912 59 79.728L59.8 80.08C60.296 79.28 60.872 78.064 61.352 77.024L60.392 76.672ZM58.184 83.552L58.312 84.592C59.48 84.4 60.904 84.208 62.376 83.968L62.36 83.104C60.776 83.28 59.272 83.456 58.184 83.552ZM67.512 79.552C68.36 80.288 69.32 81.328 69.736 82.032L70.36 81.2C69.928 80.528 68.952 79.52 68.12 78.816L67.512 79.552ZM70.488 81.904C71.032 82.912 71.56 84.224 71.72 85.072L72.616 84.704C72.44 83.888 71.88 82.576 71.32 81.6L70.488 81.904ZM70.888 78.88C70.232 80.352 69.016 82.416 68.072 83.68L68.856 84.048C69.816 82.8 70.984 80.848 71.832 79.264L70.888 78.88ZM69.72 76.624C69.4 77.552 68.776 78.864 68.296 79.68L69.096 80.032C69.608 79.232 70.2 78.032 70.696 76.976L69.72 76.624ZM67.576 83.552L67.72 84.592C68.888 84.432 70.344 84.24 71.816 84.048L71.8 83.168C70.216 83.312 68.696 83.456 67.576 83.552ZM84.808 77.056C84.696 79.184 84.696 86.88 78.168 90.208C78.536 90.48 78.936 90.848 79.144 91.152C85.768 87.552 86.008 79.568 86.136 77.056H84.808ZM86.088 77.376L84.936 77.488C85.048 78.96 85.496 87.904 92.28 91.152C92.472 90.816 92.84 90.416 93.192 90.144C86.6 87.12 86.136 78.624 86.088 77.376ZM102.872 80.448V89.024C102.872 90.704 103.368 91.152 105.112 91.152C105.512 91.152 107.96 91.152 108.376 91.152C110.12 91.152 110.488 90.288 110.68 87.408C110.328 87.328 109.816 87.104 109.512 86.88C109.384 89.424 109.24 89.952 108.312 89.952C107.736 89.952 105.656 89.952 105.208 89.952C104.312 89.952 104.12 89.808 104.12 89.056V80.448H102.872ZM102.904 77.456C104.248 78.384 106.008 79.728 106.936 80.544L107.736 79.568C106.808 78.816 105.064 77.504 103.688 76.608L102.904 77.456ZM100.312 81.408C99.992 83.152 99.368 85.328 98.456 86.72L99.592 87.184C100.488 85.776 101.08 83.472 101.432 81.696L100.312 81.408ZM109.768 82.448C110.84 84.048 111.928 86.208 112.328 87.632L113.48 87.056C113.032 85.648 111.96 83.552 110.84 81.952L109.768 82.448ZM110.616 77.52C108.296 82.256 103.992 86.88 98.472 89.392C98.728 89.632 99.08 90.064 99.256 90.336C104.952 87.616 109.176 83.008 111.8 78.016L110.616 77.52ZM122.424 83.68V91.328H123.576V84.64H130.552V91.328H131.752V83.68H122.424ZM119.208 81.568V82.56H133.336V81.568H119.208ZM120.376 79.424V80.384H132.408V79.424H120.376ZM123.208 85.728V86.576H131.064V85.728H123.208ZM123.208 87.712V88.544H131.064V87.712H123.208ZM123.096 89.728V90.688H131.064V89.728H123.096ZM131.48 76.688C128.936 77.216 124.056 77.44 120.152 77.472C120.264 77.728 120.376 78.144 120.408 78.416C124.36 78.4 129.272 78.16 132.248 77.568L131.48 76.688ZM124.92 77.792C124.072 81.328 122.2 84.832 118.808 86.784C119.048 87.008 119.4 87.456 119.56 87.712C123.144 85.584 125.096 81.92 126.168 78.048L124.92 77.792ZM146.072 86.144H147.112L147.432 79.936L147.48 78.032H145.704L145.752 79.936L146.072 86.144ZM146.6 90.08C147.16 90.08 147.624 89.68 147.624 89.04C147.624 88.4 147.16 87.968 146.6 87.968C146.024 87.968 145.56 88.4 145.56 89.04C145.56 89.68 146.024 90.08 146.6 90.08ZM159.8 82.544V83.776H174.152V82.544H159.8ZM166.296 76.576V91.28H167.576V76.576H166.296ZM182.232 82.624V83.792H191.384V82.624H182.232ZM190.984 82.624V82.848C190.776 87.6 190.536 89.424 190.104 89.856C189.944 90.032 189.752 90.064 189.432 90.064C189.048 90.064 188.056 90.048 187 89.952C187.224 90.304 187.384 90.8 187.4 91.168C188.408 91.216 189.416 91.232 189.944 91.184C190.504 91.136 190.856 91.024 191.176 90.624C191.752 90.016 191.976 88.16 192.2 83.2C192.216 83.04 192.232 82.624 192.232 82.624H190.984ZM184.424 76.896C183.416 79.36 181.64 81.568 179.592 82.944C179.896 83.168 180.408 83.632 180.632 83.888C182.648 82.352 184.536 79.968 185.688 77.264L184.424 76.896ZM190.008 76.864L188.856 77.328C190.056 79.712 192.072 82.304 193.848 83.744C194.088 83.408 194.536 82.928 194.856 82.672C193.112 81.44 191.048 79.008 190.008 76.864ZM185.608 82.944C185.288 85.968 184.648 88.928 180.456 90.32C180.728 90.576 181.08 91.056 181.224 91.36C185.688 89.76 186.52 86.448 186.888 82.944H185.608ZM209.88 76.608V78.352H211.016V76.608H209.88ZM206.552 77.696V78.624H214.504V77.696H206.552ZM206.104 80.336V81.28H214.888V80.336H206.104ZM207.768 78.768C208.04 79.312 208.328 80.032 208.424 80.512L209.448 80.24C209.352 79.792 209.048 79.088 208.744 78.56L207.768 78.768ZM212.28 78.48C212.104 79.008 211.736 79.776 211.464 80.272L212.36 80.528C212.648 80.08 212.984 79.424 213.304 78.784L212.28 78.48ZM207.88 84.784H213.208V85.952H207.88V84.784ZM207.88 82.848H213.208V83.984H207.88V82.848ZM206.888 82.048V86.752H214.232V82.048H206.888ZM209.896 82.592V90.48H211.016V82.592H209.896ZM206.76 87.76V88.704H214.296V87.76H206.76ZM205.864 89.952V90.912H214.904V89.952H205.864ZM201.288 80.528V81.568H205.784V80.528H201.288ZM200.424 83.264V84.32H206.28V83.264H200.424ZM200.792 85.376C201.096 86.352 201.352 87.6 201.368 88.432L202.264 88.208C202.2 87.376 201.944 86.144 201.624 85.168L200.792 85.376ZM200.28 89.68L200.52 90.8C202.184 90.448 204.392 89.968 206.504 89.504L206.424 88.496C204.168 88.96 201.832 89.424 200.28 89.68ZM205.24 85.024C205.096 85.872 204.808 87.136 204.568 87.92L205.352 88.144C205.624 87.392 205.896 86.24 206.168 85.264L205.24 85.024ZM202.936 80.912V89.808L203.992 89.632V80.912H202.936ZM202.888 76.576C202.344 77.856 201.32 79.488 199.864 80.704C200.088 80.864 200.44 81.216 200.616 81.456C202.2 80.064 203.24 78.368 203.864 77.136V76.832H203.512V76.576H202.888ZM203.08 76.576V77.424H203.304C204.248 78.208 205.352 79.536 205.912 80.32L206.712 79.408C206.136 78.608 204.936 77.408 203.976 76.576H203.08ZM224.584 81.52H231.224V82.816H224.584V81.52ZM223.448 80.704V83.616H232.408V80.704H223.448ZM221.736 86.24V87.12H234.136V86.24H221.736ZM220.808 88.176V89.056H234.968V88.176H220.808ZM227.24 84.896V90.048C227.24 90.288 227.144 90.352 226.872 90.368C226.584 90.384 225.528 90.384 224.424 90.352C224.584 90.624 224.776 91.008 224.84 91.296C226.296 91.296 227.176 91.296 227.72 91.152C228.248 90.992 228.44 90.72 228.44 90.064V84.896H227.24ZM232.376 83.936C230.088 84.336 225.768 84.544 222.248 84.576C222.344 84.8 222.456 85.152 222.472 85.392C226.056 85.392 230.44 85.168 233.144 84.688L232.376 83.936ZM227.224 76.56V79.312H228.44V76.56H227.224ZM221.144 78.704V81.904H222.28V79.728H233.496V81.904H234.68V78.704H221.144ZM222.712 77.072C223.192 77.616 223.688 78.384 223.912 78.864L225.016 78.352C224.76 77.888 224.248 77.168 223.768 76.64L222.712 77.072ZM232.04 76.656C231.736 77.168 231.128 77.936 230.68 78.416L231.64 78.8C232.12 78.368 232.712 77.728 233.256 77.072L232.04 76.656ZM246.952 77.296V78.304H253.88V80H246.952V81.008H255.048V77.296H246.952ZM246.312 77.296V82C246.312 84.544 246.184 88.032 244.68 90.528C244.92 90.656 245.4 90.992 245.592 91.2C247.192 88.576 247.416 84.672 247.416 82V77.296H246.312ZM247.096 82.096V83.072H255.32V82.096H247.096ZM249.848 82.352C249.56 83.2 249.048 84.448 248.616 85.232L249.448 85.504C249.928 84.768 250.504 83.6 250.984 82.64L249.848 82.352ZM247.432 84.976L247.544 85.968C249.352 85.888 251.88 85.776 254.312 85.632L254.328 84.752C251.784 84.848 249.16 84.944 247.432 84.976ZM252.264 83.728C253.16 84.528 254.2 85.68 254.68 86.416L255.496 85.904C255 85.168 253.928 84.08 253.016 83.296L252.264 83.728ZM247.624 87.28V88.208H254.728V87.28H247.624ZM246.792 89.856V90.816H255.576V89.856H246.792ZM250.584 85.728V90.32H251.656V85.728H250.584ZM240.632 84.864L240.952 86.032C242.312 85.6 244.072 85.024 245.736 84.448L245.576 83.344C243.752 83.936 241.88 84.512 240.632 84.864ZM240.856 79.792V80.912H245.72V79.792H240.856ZM242.872 76.576V89.888C242.872 90.128 242.776 90.176 242.584 90.176C242.392 90.192 241.784 90.192 241.08 90.176C241.24 90.512 241.384 91.008 241.432 91.296C242.44 91.296 243.064 91.264 243.432 91.072C243.832 90.88 243.992 90.56 243.992 89.888V76.576H242.872ZM267.528 85.904V86.768H270.776V85.904H267.528ZM266.632 78.16V79.104H271.672V78.16H266.632ZM266.168 81.664V82.656H275.896V81.664H266.168ZM267.736 83.616V84.512H270.344V88.208H267.736V89.104H271.32V83.616H267.736ZM267.032 83.616V90.112H267.992V83.616H267.032ZM268.568 76.592V78.832H269.624V76.592H268.568ZM274.44 83.472C273.656 86.576 272.104 89.024 269.768 90.48C270.008 90.672 270.376 91.088 270.52 91.28C272.872 89.632 274.552 87.056 275.448 83.68L274.44 83.472ZM267.112 79.392C267.384 80.112 267.592 81.056 267.608 81.664L268.488 81.456C268.456 80.832 268.248 79.904 267.944 79.2L267.112 79.392ZM273.384 77.6C274.056 78.4 274.744 79.52 275.032 80.256L275.912 79.776C275.608 79.04 274.92 77.952 274.216 77.168L273.384 77.6ZM270.168 79.168C270.072 79.824 269.816 80.8 269.608 81.44L270.408 81.632C270.632 81.056 270.888 80.16 271.144 79.392L270.168 79.168ZM261.32 77.264V78.336H266.664V77.264H261.32ZM262.568 80.624V81.632H265.448V80.624H262.568ZM262.568 83.92V84.944H265.448V83.92H262.568ZM262.072 77.808V88.048H263.08V77.808H262.072ZM264.84 77.792V91.296H265.88V77.792H264.84ZM261.048 87.888L261.256 89.008C262.456 88.752 263.96 88.416 265.464 88.096L265.384 87.04C263.752 87.376 262.152 87.696 261.048 87.888ZM272.04 76.592C272.168 84.832 272.536 91.216 274.632 91.248C275.144 91.264 275.72 90.608 276.024 88.096C275.832 88 275.4 87.712 275.208 87.472C275.112 88.976 274.92 89.872 274.68 89.872C273.64 89.824 273.128 83.728 273.128 76.592H272.04ZM281.848 86.448V87.456H295.864V86.448H281.848ZM281.912 79.424V80.448H295.8V79.424H281.912ZM282.552 82.16V83.152H295.224V82.16H282.552ZM283.368 84.32V85.248H294.44V84.32H283.368ZM288.216 82.624V91.296H289.4V82.624H288.216ZM286.744 76.56V79.904H287.88V76.56H286.744ZM289.768 76.56V79.856H290.92V76.56H289.768ZM287.832 86.848C286.472 88.24 283.8 89.472 281.432 90C281.688 90.256 282.04 90.72 282.216 91.024C284.6 90.352 287.304 88.96 288.792 87.296L287.832 86.848ZM289.784 86.816L288.84 87.216C290.344 88.944 293.016 90.4 295.448 91.072C295.624 90.736 295.992 90.256 296.264 90C293.832 89.488 291.144 88.256 289.784 86.816ZM293.48 76.752C293.208 77.488 292.68 78.544 292.248 79.216L293.224 79.536C293.672 78.912 294.248 77.968 294.712 77.088L293.48 76.752ZM291.336 80.144C291.144 80.72 290.728 81.552 290.408 82.112L291.416 82.416C291.768 81.904 292.184 81.168 292.584 80.448L291.336 80.144ZM283.208 77.088C283.72 77.84 284.296 78.864 284.52 79.504L285.592 79.104C285.368 78.448 284.776 77.44 284.232 76.72L283.208 77.088ZM285.288 80.56C285.64 81.088 285.992 81.84 286.12 82.32L287.304 82.064C287.16 81.584 286.792 80.864 286.424 80.336L285.288 80.56ZM302.936 78.032V79.104H315.496V78.032H302.936ZM302.024 81.776V82.864H316.296V81.776H302.024ZM304.968 86.96V87.92H313.448V86.96H304.968ZM304.984 89.68V90.704H313.464V89.68H304.984ZM308.504 76.56V78.624H309.752V76.56H308.504ZM304.376 84.256V91.296H305.576V85.28H312.904V91.264H314.152V84.256H304.376ZM312.104 79.056C311.864 79.808 311.384 80.88 310.984 81.568L312.104 81.872C312.504 81.232 312.984 80.256 313.4 79.376L312.104 79.056ZM305.144 79.376C305.592 80.128 305.992 81.168 306.104 81.872L307.336 81.552C307.208 80.88 306.792 79.872 306.296 79.12L305.144 79.376ZM322.376 85.712V86.784H336.584V85.712H322.376ZM328.824 84.224V91.248H330.04V84.224H328.824ZM328.28 86.128C326.968 87.824 324.392 89.344 322.056 90.064C322.328 90.304 322.68 90.768 322.872 91.072C325.208 90.224 327.816 88.512 329.272 86.576L328.28 86.128ZM330.6 86.16L329.592 86.64C331.048 88.528 333.656 90.16 336.088 90.96C336.264 90.64 336.632 90.176 336.888 89.936C334.456 89.28 331.896 87.824 330.6 86.16ZM328.2 81.728H330.712V83.488H328.2V81.728ZM328.2 79.088H330.712V80.816H328.2V79.088ZM327.16 78.144V84.432H331.768V78.144H327.16ZM329.032 76.56C328.936 77.136 328.712 77.984 328.52 78.544L329.464 78.752C329.704 78.24 329.976 77.472 330.232 76.752L329.032 76.56ZM322.488 79.68C323.288 80.336 324.232 81.264 324.648 81.904L325.208 81.024C324.792 80.416 323.832 79.52 323.016 78.912L322.488 79.68ZM325.4 82.032C325.864 82.944 326.312 84.176 326.44 84.944L327.288 84.608C327.144 83.872 326.68 82.672 326.2 81.776L325.4 82.032ZM325.8 78.896C325.144 80.352 323.976 82.4 323.048 83.648L323.832 84.016C324.76 82.784 325.896 80.848 326.744 79.264L325.8 78.896ZM324.552 76.672C324.232 77.6 323.624 78.912 323.16 79.728L323.96 80.08C324.456 79.28 325.032 78.064 325.512 77.024L324.552 76.672ZM322.344 83.552L322.472 84.592C323.64 84.4 325.064 84.208 326.536 83.968L326.52 83.104C324.936 83.28 323.432 83.456 322.344 83.552ZM331.672 79.552C332.52 80.288 333.48 81.328 333.896 82.032L334.52 81.2C334.088 80.528 333.112 79.52 332.28 78.816L331.672 79.552ZM334.648 81.904C335.192 82.912 335.72 84.224 335.88 85.072L336.776 84.704C336.6 83.888 336.04 82.576 335.48 81.6L334.648 81.904ZM335.048 78.88C334.392 80.352 333.176 82.416 332.232 83.68L333.016 84.048C333.976 82.8 335.144 80.848 335.992 79.264L335.048 78.88ZM333.88 76.624C333.56 77.552 332.936 78.864 332.456 79.68L333.256 80.032C333.768 79.232 334.36 78.032 334.856 76.976L333.88 76.624ZM331.736 83.552L331.88 84.592C333.048 84.432 334.504 84.24 335.976 84.048L335.96 83.168C334.376 83.312 332.856 83.456 331.736 83.552ZM348.968 77.056C348.856 79.184 348.856 86.88 342.328 90.208C342.696 90.48 343.096 90.848 343.304 91.152C349.928 87.552 350.168 79.568 350.296 77.056H348.968ZM350.248 77.376L349.096 77.488C349.208 78.96 349.656 87.904 356.44 91.152C356.632 90.816 357 90.416 357.352 90.144C350.76 87.12 350.296 78.624 350.248 77.376ZM365.736 79.632V80.512H369.64V79.632H365.736ZM365.576 89.68V90.592H370.568V89.68H365.576ZM364.856 83.216V84.016H370.2V83.216H364.856ZM364.344 81.392V84C364.344 85.84 364.136 88.352 362.648 90.176C362.872 90.32 363.304 90.704 363.464 90.928C365.096 88.944 365.4 86.048 365.4 84.032V81.392H364.344ZM364.936 81.392V82.288H369.624V84.96H364.904V85.856H370.712V81.392H364.936ZM365.144 86.848V91.264H366.184V87.76H369.88V91.152H370.952V86.848H365.144ZM372.024 78.496V87.36H373.176V78.496H372.024ZM375.624 76.864V89.712C375.624 90 375.512 90.096 375.208 90.096C374.92 90.112 373.96 90.128 372.872 90.08C373.048 90.432 373.24 90.976 373.288 91.28C374.728 91.296 375.592 91.264 376.088 91.056C376.584 90.864 376.792 90.512 376.792 89.696V76.864H375.624ZM366.872 76.72C366.088 78.032 364.632 79.664 362.648 80.848C362.888 81.024 363.256 81.408 363.416 81.68C365.528 80.304 367 78.624 367.912 77.328V76.976H367.528V76.72H366.872ZM367.096 76.72V77.568H367.336C368.504 78.416 369.96 79.824 370.712 80.656L371.512 79.76C370.696 78.912 369.176 77.616 367.96 76.72H367.096ZM390.232 79.248L389.672 80.4H397.816V79.248H390.232ZM392.232 82.72V83.824H397.448V82.72H392.232ZM392.216 86.24V87.376H397.672V86.24H392.216ZM391.624 79.616V91.28H392.856V79.616H391.624ZM390.84 76.752C390.056 79.104 388.76 81.44 387.304 82.928C387.576 83.12 388.056 83.552 388.232 83.76C389.704 82.112 391.096 79.6 392.008 77.056L390.84 76.752ZM387 76.624C386.088 79.056 384.6 81.456 383 83.008C383.224 83.296 383.592 83.936 383.704 84.224C385.448 82.432 387.096 79.696 388.152 76.992L387 76.624ZM385.288 80.752V91.264H386.504V79.568L386.472 79.552L385.288 80.752ZM411.944 80.08V89.36C411.944 90.784 412.28 91.168 413.576 91.168C413.848 91.168 415.336 91.168 415.624 91.168C416.824 91.168 417.112 90.432 417.24 88.016C416.92 87.936 416.472 87.76 416.216 87.552C416.152 89.664 416.072 90.112 415.528 90.112C415.192 90.112 413.96 90.112 413.72 90.112C413.16 90.112 413.064 90 413.064 89.376V80.08H411.944ZM410.392 82.4C410.28 84.064 410.008 85.936 409.32 87.056L410.216 87.472C410.936 86.288 411.192 84.32 411.32 82.592L410.392 82.4ZM411.512 77.456C412.68 78.08 414.056 79.056 414.712 79.76L415.464 78.928C414.792 78.208 413.384 77.28 412.216 76.704L411.512 77.456ZM415.896 82.464C416.552 83.968 417.064 85.936 417.16 87.232L418.232 86.96C418.12 85.648 417.592 83.696 416.904 82.192L415.896 82.464ZM416.52 77.648C415.048 83.04 412.632 87.344 408.712 89.936C408.968 90.112 409.448 90.528 409.624 90.72C413.512 87.92 416.008 83.52 417.608 77.872L416.52 77.648ZM403.544 80.832V81.92H409.256V80.832H403.544ZM403.992 77.616V78.688H408.968V77.616H403.992ZM408.12 83.04V88.784H408.984V83.04H408.12ZM405.944 81.312V91.296H406.984V81.312H405.944ZM403.912 83.056V84.944C403.912 86.4 403.848 88.096 403.336 89.424C403.56 89.552 403.928 89.808 404.104 90C404.712 88.496 404.808 86.624 404.808 84.976V83.056H403.912ZM429.112 79.088V80.208H437.928V79.088H429.112ZM429.448 82.608V83.712H436.504V82.608H429.448ZM432.888 76.56V83.232H434.072V76.56H432.888ZM431 83.424L429.912 83.744C431.304 87.504 433.896 90.16 437.736 91.296C437.912 90.992 438.248 90.512 438.52 90.272C434.776 89.28 432.2 86.784 431 83.424ZM436.408 82.608V82.816C435.24 86.768 431.864 89.248 428.2 90.192C428.424 90.448 428.728 90.96 428.84 91.28C432.76 90.096 436.248 87.488 437.608 82.896L436.856 82.56L436.632 82.608H436.408ZM423.656 85.04L424.008 86.192C425.432 85.776 427.288 85.232 429.032 84.704L428.888 83.616C426.984 84.16 425 84.704 423.656 85.04ZM423.864 79.792V80.928H428.888V79.792H423.864ZM425.928 76.576V89.84C425.928 90.064 425.832 90.144 425.624 90.144C425.416 90.16 424.712 90.16 423.96 90.144C424.12 90.464 424.296 90.944 424.328 91.248C425.432 91.248 426.104 91.216 426.52 91.024C426.952 90.848 427.112 90.512 427.112 89.84V76.576H425.928Z" fill="white"/>
</svg>
