<svg width="29" height="348" viewBox="0 0 29 348" fill="none" xmlns="http://www.w3.org/2000/svg">
<g clip-path="url(#clip0_72_2888)">
<path d="M21.8989 11.7281L21.8989 3.61914L28.4503 3.61914L28.4503 27.3505L21.8989 27.3505L21.8989 19.2416L1.42013 19.2416L1.42013 11.7281L21.8989 11.7281Z" fill="#00FF63"/>
<path d="M28.6334 52.6856L28.6334 59.8783L1.42014 71.3774L1.42014 63.3601L6.27637 61.3901L6.27637 50.9905L1.42014 49.0662L1.42014 41.0947L28.6334 52.6856ZM12.0948 59.2369L19.7456 56.2132L12.0948 53.1896L12.0948 59.2369Z" fill="#00FF63"/>
<path d="M28.4503 90.207L28.4503 97.7204L7.97144 97.7204L7.97144 110.777L1.42013 110.777L1.42013 90.207L28.4503 90.207Z" fill="#00FF63"/>
<path d="M28.4503 130.202L28.4503 137.67L17.5007 137.67L28.4503 146.832L28.4503 155.674L16.8134 145.458L1.42013 156.041L1.42013 146.878L11.4533 140.052L8.42974 137.303L1.42013 137.303L1.42013 129.835L28.4503 130.202Z" fill="#00FF63"/>
<path d="M5.45188 172.167L10.4457 176.337C8.37371 178.785 7.22294 181.88 7.19282 185.087C7.19282 187.103 7.88014 188.156 9.02548 188.156C10.125 188.156 10.7664 187.286 11.591 183.575C12.9196 177.803 14.523 173.359 20.1123 173.359C25.1518 173.359 28.7711 177.344 28.7711 183.85C28.9191 187.851 27.6539 191.776 25.1975 194.937L19.8833 191.226C21.5087 189.013 22.434 186.364 22.5403 183.621C22.5403 181.834 21.8075 180.964 20.7996 180.964C19.5626 180.964 19.0128 181.88 18.1882 185.545C16.8138 191.776 14.7979 195.624 9.75837 195.624C4.26074 195.624 0.962241 191.043 0.962241 184.72C0.869339 180.127 2.46704 175.66 5.45188 172.167V172.167Z" fill="#00FF63"/>
<path d="M28.4503 215.553L28.4503 223.066L18.0963 223.066L18.0963 232.642L28.2212 232.642L28.2212 240.155L1.19112 240.155L1.19112 232.642L11.6823 232.642L11.6823 223.066L1.42013 223.066L1.42013 215.553L28.4503 215.553Z" fill="#00FF63"/>
<path d="M14.8435 260.221C18.5602 260.43 22.0559 262.053 24.6133 264.758C27.1707 267.463 28.5957 271.045 28.5957 274.767C28.5957 278.49 27.1707 282.071 24.6133 284.776C22.0559 287.481 18.5602 289.104 14.8435 289.313C12.9569 289.296 11.0927 288.901 9.36065 288.153C7.62857 287.405 6.06356 286.319 4.75748 284.957C3.45141 283.595 2.43083 281.987 1.75544 280.225C1.08005 278.463 0.763434 276.584 0.824572 274.698C0.723247 272.809 1.01313 270.92 1.67575 269.148C2.33837 267.376 3.35959 265.76 4.67555 264.401C5.99151 263.042 7.57382 261.97 9.32346 261.25C11.0731 260.531 12.9523 260.181 14.8435 260.221ZM14.8435 281.662C15.7867 281.712 16.7303 281.57 17.6174 281.246C18.5045 280.921 19.3167 280.421 20.0057 279.775C20.6946 279.129 21.2459 278.35 21.6264 277.486C22.0068 276.621 22.2087 275.689 22.2197 274.744C22.2146 273.818 22.022 272.902 21.654 272.052C21.2861 271.202 20.7502 270.436 20.0784 269.798C19.4065 269.16 18.6127 268.665 17.7446 268.342C16.8766 268.019 15.9522 267.875 15.027 267.918C14.0912 267.881 13.1577 268.032 12.2813 268.362C11.405 268.692 10.6037 269.195 9.92465 269.839C9.24564 270.484 8.70249 271.259 8.32772 272.117C7.95295 272.975 7.75399 273.9 7.74247 274.836C7.74808 275.754 7.93772 276.662 8.30004 277.506C8.66235 278.349 9.19 279.112 9.85195 279.748C10.5139 280.384 11.2968 280.882 12.1541 281.21C13.0114 281.539 13.9258 281.693 14.8435 281.662Z" fill="#00FF63"/>
<path d="M28.4503 306.035L28.4503 313.96L12.8277 318.542L28.542 323.719L28.542 330.178L12.8277 335.401L28.4503 339.982L28.4503 348.046L1.23699 338.883L1.23699 332.332L16.8134 326.926L1.23699 321.52L1.23699 315.06L28.4503 306.035Z" fill="#00FF63"/>
<path d="M19.3333 131.119L19.3333 122.368L17.7757 122.368L17.7756 131.119L19.3333 131.119Z" fill="#00FF63"/>
<path d="M1.55767 258.388L1.55768 107.753L1.56164e-05 107.753L9.03195e-06 258.388L1.55767 258.388Z" fill="#00FF63"/>
<path d="M7.74249 264.573L7.74249 258.389L6.18483 258.389L6.18483 264.573L7.74249 264.573Z" fill="#00FF63"/>
<path d="M20.2038 309.471L20.2038 303.286L18.6461 303.286L18.6461 309.471L20.2038 309.471Z" fill="#00FF63"/>
<path d="M16.951 105.005L16.951 92.6353L13.1027 92.6353L13.1027 105.005L16.951 105.005Z" fill="#00FF63"/>
<path d="M16.951 248.493L16.951 236.123L13.1026 236.123L13.1026 248.493L16.951 248.493Z" fill="#00FF63"/>
<path d="M16.218 166.441L16.218 162.592L12.3697 162.592L12.3697 166.441L16.218 166.441Z" fill="#00FF63"/>
<path d="M9.98736 17.8215L9.98737 0L6.91785 -1.34173e-07L6.91785 17.8215L9.98736 17.8215Z" fill="#00FF63"/>
</g>
<defs>
<clipPath id="clip0_72_2888">
<rect width="348" height="29" fill="white" transform="translate(29) rotate(90)"/>
</clipPath>
</defs>
</svg>
