<svg width="238" height="80" viewBox="0 0 238 80" fill="none" xmlns="http://www.w3.org/2000/svg">
<path d="M237.36 6.53C237.36 7.82151 236.977 9.08401 236.259 10.1579C235.542 11.2317 234.522 12.0687 233.329 12.5629C232.136 13.0572 230.823 13.1865 229.556 12.9345C228.289 12.6826 227.126 12.0606 226.213 11.1474C225.299 10.2342 224.677 9.07062 224.425 7.80392C224.174 6.53723 224.303 5.22427 224.797 4.03107C225.291 2.83787 226.128 1.81802 227.202 1.10049C228.276 0.382969 229.538 0 230.83 0C232.562 0 234.223 0.687985 235.447 1.9126C236.672 3.13721 237.36 4.79814 237.36 6.53V6.53Z" fill="white"/>
<path d="M63.2 51.7701V15.2001C63.188 15.1251 63.194 15.0484 63.2174 14.9762C63.2407 14.9039 63.2809 14.8383 63.3345 14.7846C63.3882 14.7309 63.4538 14.6907 63.5261 14.6673C63.5983 14.644 63.6751 14.638 63.7501 14.6501H71.95C72.1453 14.6264 72.3429 14.6674 72.5126 14.7668C72.6824 14.8661 72.8149 15.0183 72.89 15.2001L81.59 34.8701H81.81L90.29 15.2001C90.3651 15.0183 90.4977 14.8661 90.6674 14.7668C90.8372 14.6674 91.0348 14.6264 91.2301 14.6501H99.32C99.395 14.638 99.4717 14.644 99.5439 14.6673C99.6161 14.6907 99.6819 14.7309 99.7355 14.7846C99.7892 14.8383 99.8293 14.9039 99.8527 14.9762C99.8761 15.0484 99.8821 15.1251 99.8701 15.2001V51.7701C99.8821 51.845 99.8761 51.9218 99.8527 51.994C99.8293 52.0662 99.7892 52.1319 99.7355 52.1856C99.6819 52.2392 99.6161 52.2794 99.5439 52.3028C99.4717 52.3262 99.395 52.3321 99.32 52.3201H91.6201C91.5448 52.3317 91.4677 52.3255 91.3952 52.3021C91.3227 52.2787 91.2566 52.2387 91.2022 52.1854C91.1479 52.132 91.1067 52.0666 91.082 51.9945C91.0573 51.9224 91.0498 51.8456 91.06 51.7701V32.3801H90.79L84.79 46.4501C84.7142 46.6562 84.5786 46.8349 84.4003 46.9632C84.2221 47.0916 84.0095 47.1636 83.79 47.1701H79.46C79.2371 47.1531 79.0227 47.0776 78.8383 46.9512C78.654 46.8247 78.5062 46.6519 78.41 46.4501L72.41 32.3801H72.14V51.7701C72.1502 51.8456 72.1427 51.9224 72.118 51.9945C72.0933 52.0666 72.0521 52.132 71.9978 52.1854C71.9434 52.2387 71.8774 52.2787 71.8049 52.3021C71.7324 52.3255 71.6553 52.3317 71.58 52.3201H63.8801C63.7976 52.3615 63.7049 52.3783 63.6131 52.3684C63.5213 52.3586 63.4344 52.3224 63.3626 52.2644C63.2909 52.2064 63.2374 52.1289 63.2086 52.0412C63.1797 51.9535 63.1767 51.8594 63.2 51.7701V51.7701Z" fill="white"/>
<path d="M120.84 53.0001C116.173 53.0001 112.507 51.6868 109.84 49.0601C107.173 46.4334 105.84 42.6668 105.84 37.7601V15.2001C105.828 15.1252 105.834 15.0484 105.857 14.9762C105.881 14.904 105.921 14.8383 105.975 14.7846C106.028 14.7309 106.094 14.6908 106.166 14.6674C106.238 14.644 106.315 14.6381 106.39 14.6501H115.03C115.105 14.6385 115.182 14.6447 115.255 14.6681C115.327 14.6915 115.393 14.7315 115.448 14.7848C115.502 14.8382 115.543 14.9036 115.568 14.9757C115.593 15.0478 115.6 15.1246 115.59 15.2001V38.3601C115.498 39.9406 116.013 41.4967 117.03 42.7101C117.514 43.2343 118.107 43.6471 118.766 43.9199C119.426 44.1926 120.137 44.319 120.85 44.2901C121.561 44.3268 122.272 44.2071 122.932 43.9393C123.592 43.6715 124.185 43.2621 124.67 42.7401C125.66 41.503 126.156 39.942 126.06 38.3601V15.2001C126.048 15.1252 126.054 15.0484 126.077 14.9762C126.101 14.904 126.141 14.8383 126.194 14.7846C126.248 14.7309 126.314 14.6908 126.386 14.6674C126.458 14.644 126.535 14.6381 126.61 14.6501H135.2C135.275 14.6385 135.352 14.6447 135.425 14.6681C135.497 14.6915 135.563 14.7315 135.618 14.7848C135.672 14.8382 135.713 14.9036 135.738 14.9757C135.763 15.0478 135.77 15.1246 135.76 15.2001V37.7501C135.76 42.6634 134.427 46.4301 131.76 49.0501C129.093 51.6701 125.453 52.9868 120.84 53.0001Z" fill="white"/>
<path d="M155.35 52.9999C152.382 52.9952 149.439 52.4602 146.66 51.4199C144.252 50.6268 142.04 49.3316 140.17 47.6198C140.098 47.5714 140.039 47.5059 139.998 47.4291C139.957 47.3524 139.935 47.2668 139.935 47.1798C139.935 47.0929 139.957 47.0073 139.998 46.9305C140.039 46.8538 140.098 46.7883 140.17 46.7398L145.17 40.8598C145.209 40.7929 145.263 40.7367 145.329 40.696C145.395 40.6552 145.47 40.6313 145.547 40.6264C145.624 40.6214 145.701 40.6356 145.771 40.6676C145.842 40.6996 145.903 40.7485 145.95 40.8098C148.555 43.2282 151.976 44.5746 155.53 44.5798C156.914 44.6503 158.287 44.3018 159.47 43.5798C159.901 43.3034 160.254 42.9211 160.496 42.4695C160.737 42.0179 160.859 41.5119 160.85 40.9998C160.856 40.6108 160.768 40.226 160.594 39.878C160.42 39.53 160.165 39.2288 159.85 38.9998C158.719 38.3407 157.447 37.9603 156.14 37.8899L154.14 37.6198C145.76 36.4265 141.57 32.4732 141.57 25.7599C141.51 24.1403 141.824 22.5288 142.486 21.0497C143.148 19.5706 144.142 18.2637 145.39 17.2299C147.943 15.0899 151.34 14.0165 155.58 14.0099C160.408 13.8572 165.149 15.3213 169.05 18.1699C169.117 18.2131 169.174 18.2703 169.216 18.3376C169.259 18.4048 169.286 18.4805 169.297 18.5595C169.307 18.6384 169.3 18.7186 169.277 18.7946C169.253 18.8707 169.213 18.9407 169.16 18.9998L165 24.9999C164.963 25.0646 164.914 25.1209 164.854 25.1651C164.794 25.2094 164.726 25.2405 164.653 25.2565C164.58 25.2726 164.505 25.2731 164.432 25.2582C164.359 25.2433 164.291 25.2132 164.23 25.1699C161.754 23.3917 158.798 22.405 155.75 22.3398C154.659 22.2716 153.577 22.5747 152.68 23.1999C152.331 23.4704 152.051 23.8199 151.863 24.2198C151.675 24.6196 151.585 25.0584 151.6 25.4999C151.593 25.9071 151.69 26.3095 151.883 26.6684C152.075 27.0274 152.357 27.3308 152.7 27.5498C153.842 28.1931 155.113 28.5724 156.42 28.6599L158.42 28.9298C162.593 29.5165 165.713 30.7832 167.78 32.7299C169.847 34.6765 170.88 37.3998 170.88 40.8998C170.936 42.5685 170.604 44.2274 169.91 45.7459C169.216 47.2643 168.179 48.6007 166.88 49.6498C164.107 51.8832 160.263 52.9999 155.35 52.9999Z" fill="white"/>
<path d="M175.3 51.7701V15.2001C175.288 15.1252 175.294 15.0484 175.317 14.9762C175.341 14.904 175.381 14.8383 175.434 14.7846C175.488 14.7309 175.554 14.6908 175.626 14.6674C175.698 14.644 175.775 14.6381 175.85 14.6501H184.49C184.565 14.6385 184.642 14.6447 184.715 14.6681C184.787 14.6915 184.853 14.7315 184.908 14.7848C184.962 14.8382 185.003 14.9036 185.028 14.9757C185.053 15.0478 185.06 15.1246 185.05 15.2001V51.7701C185.06 51.8456 185.053 51.9225 185.028 51.9946C185.003 52.0666 184.962 52.132 184.908 52.1854C184.853 52.2388 184.787 52.2788 184.715 52.3021C184.642 52.3255 184.565 52.3317 184.49 52.3201H175.85C175.775 52.3322 175.698 52.3262 175.626 52.3028C175.554 52.2795 175.488 52.2393 175.434 52.1856C175.381 52.1319 175.341 52.0663 175.317 51.994C175.294 51.9218 175.288 51.8451 175.3 51.7701Z" fill="white"/>
<path d="M191.36 43.6802C189.88 36.9641 189.88 30.0063 191.36 23.2902C192.17 20.4503 193.936 17.9774 196.36 16.2902C198.945 14.7646 201.888 13.9508 204.89 13.9315C207.892 13.9122 210.845 14.688 213.45 16.1802C215.785 17.6934 217.572 19.9156 218.55 22.5202C218.59 22.5884 218.614 22.6645 218.622 22.7432C218.629 22.8219 218.619 22.9013 218.592 22.9757C218.566 23.0501 218.523 23.1177 218.467 23.1738C218.412 23.2298 218.344 23.273 218.27 23.3002L210.9 26.5102C210.829 26.5514 210.749 26.5755 210.667 26.5806C210.585 26.5858 210.503 26.5718 210.428 26.5398C210.352 26.5078 210.285 26.4587 210.231 26.3963C210.178 26.3339 210.14 26.2599 210.12 26.1802C209.02 23.8102 207.37 22.6302 205.19 22.6302C204.169 22.5542 203.155 22.8404 202.325 23.4385C201.494 24.0365 200.901 24.9082 200.65 25.9002C200.277 27.0135 200.093 29.5269 200.1 33.4402C200.107 37.3535 200.29 39.8635 200.65 40.9702C200.901 41.9622 201.494 42.8339 202.325 43.432C203.155 44.03 204.169 44.3162 205.19 44.2402C207.37 44.2402 209.02 43.0602 210.12 40.6902C210.14 40.6105 210.178 40.5366 210.231 40.4742C210.285 40.4118 210.352 40.3626 210.428 40.3306C210.503 40.2986 210.585 40.2846 210.667 40.2898C210.749 40.2949 210.829 40.319 210.9 40.3602L218.27 43.5702C218.344 43.5974 218.412 43.6406 218.467 43.6966C218.523 43.7527 218.566 43.8203 218.592 43.8947C218.619 43.9691 218.629 44.0485 218.622 44.1272C218.614 44.2059 218.59 44.282 218.55 44.3502C217.572 46.9548 215.785 49.177 213.45 50.6902C210.845 52.1824 207.892 52.9582 204.89 52.9389C201.888 52.9196 198.945 52.1057 196.36 50.5802C193.953 48.9205 192.188 46.4848 191.36 43.6802V43.6802Z" fill="white"/>
<path d="M69.2 72.6199H65.78V78.5299H63.5001V63.5299H69.2C69.8175 63.501 70.4343 63.5977 71.0134 63.814C71.5924 64.0304 72.1216 64.362 72.5688 64.7887C73.016 65.2155 73.372 65.7285 73.6152 66.2968C73.8584 66.8651 73.9837 67.4768 73.9837 68.0949C73.9837 68.713 73.8584 69.3248 73.6152 69.893C73.372 70.4613 73.016 70.9743 72.5688 71.4011C72.1216 71.8278 71.5924 72.1594 71.0134 72.3758C70.4343 72.5922 69.8175 72.6888 69.2 72.6599V72.6199ZM69.08 65.5399H65.78V70.5399H69.08C69.4271 70.571 69.7768 70.5294 70.107 70.4179C70.4372 70.3064 70.7406 70.1274 70.9977 69.8922C71.2549 69.657 71.4603 69.3709 71.6008 69.052C71.7413 68.7331 71.8138 68.3884 71.8138 68.0399C71.8138 67.6914 71.7413 67.3468 71.6008 67.0279C71.4603 66.709 71.2549 66.4228 70.9977 66.1876C70.7406 65.9524 70.4372 65.7734 70.107 65.6619C69.7768 65.5504 69.4271 65.5088 69.08 65.5399V65.5399Z" fill="white"/>
<path d="M85.09 78.5299L81.92 72.1999H79.07V78.5299H76.79V63.5299H82.6201C83.2228 63.479 83.8295 63.5559 84.4005 63.7555C84.9714 63.9551 85.4939 64.2728 85.9337 64.6881C86.3735 65.1034 86.7207 65.6068 86.9527 66.1654C87.1847 66.724 87.2962 67.3252 87.28 67.9299C87.3087 68.8382 87.0273 69.7293 86.482 70.4564C85.9367 71.1834 85.16 71.7031 84.28 71.9299L87.7501 78.5799L85.09 78.5299ZM82.45 65.5299H79.07V70.2399H82.45C82.7722 70.2609 83.0953 70.2156 83.3992 70.1067C83.7032 69.9979 83.9815 69.8278 84.2171 69.6071C84.4527 69.3863 84.6406 69.1196 84.769 68.8234C84.8974 68.5271 84.9636 68.2077 84.9636 67.8849C84.9636 67.562 84.8974 67.2426 84.769 66.9464C84.6406 66.6502 84.4527 66.3834 84.2171 66.1627C83.9815 65.9419 83.7032 65.7719 83.3992 65.663C83.0953 65.5542 82.7722 65.5089 82.45 65.5299V65.5299Z" fill="white"/>
<path d="M99.45 77.0499C98.3897 78.081 96.9691 78.658 95.4901 78.658C94.011 78.658 92.5903 78.081 91.53 77.0499C90.05 75.5699 90.07 73.9099 90.07 71.0499C90.07 68.1899 90.07 66.4899 91.53 65.0499C92.5927 64.0234 94.0126 63.4497 95.4901 63.4497C96.9676 63.4497 98.3873 64.0234 99.45 65.0499C100.93 66.5299 100.89 68.1999 100.89 71.0499C100.89 73.8999 100.93 75.5699 99.45 77.0499ZM97.72 66.3399C97.1231 65.7512 96.3184 65.4211 95.4801 65.4211C94.6417 65.4211 93.837 65.7512 93.2401 66.3399C92.5001 67.1499 92.3501 67.9899 92.3501 71.0099C92.3501 74.0299 92.5001 74.8799 93.2401 75.6799C93.5337 75.975 93.8828 76.2092 94.2672 76.369C94.6516 76.5287 95.0638 76.611 95.4801 76.611C95.8964 76.611 96.3085 76.5287 96.6929 76.369C97.0774 76.2092 97.4264 75.975 97.72 75.6799C98.46 74.8799 98.6101 74.0299 98.6101 71.0099C98.6101 67.9899 98.46 67.1499 97.72 66.3399V66.3399Z" fill="white"/>
<path d="M113.43 77.1198C112.909 77.5996 112.297 77.9713 111.631 78.2133C110.965 78.4554 110.258 78.5629 109.55 78.5298H104.27V63.5298H109.55C110.259 63.498 110.966 63.6072 111.632 63.8509C112.298 64.0947 112.909 64.4682 113.43 64.9498C115.06 66.5798 114.95 68.7698 114.95 70.9498C114.95 73.1298 115.06 75.4898 113.43 77.1198ZM111.87 66.5598C111.544 66.217 111.146 65.9498 110.706 65.7771C110.265 65.6043 109.792 65.5301 109.32 65.5598H106.55V76.4998H109.32C109.792 76.5301 110.266 76.4563 110.706 76.2835C111.147 76.1107 111.544 75.8431 111.87 75.4998C112.65 74.6298 112.67 73.0098 112.67 70.9398C112.67 68.8698 112.65 67.4198 111.87 66.5598Z" fill="white"/>
<path d="M123.49 78.66C122.788 78.7001 122.085 78.5946 121.425 78.35C120.766 78.1054 120.164 77.727 119.658 77.2386C119.152 76.7503 118.752 76.1625 118.484 75.5122C118.216 74.8619 118.085 74.1632 118.1 73.46V63.46H120.38V73.33C120.356 73.7539 120.419 74.1782 120.564 74.5771C120.71 74.9759 120.936 75.3408 121.227 75.6494C121.519 75.958 121.87 76.2038 122.26 76.3719C122.65 76.5399 123.071 76.6265 123.495 76.6265C123.92 76.6265 124.34 76.5399 124.73 76.3719C125.12 76.2038 125.471 75.958 125.763 75.6494C126.054 75.3408 126.28 74.9759 126.426 74.5771C126.571 74.1782 126.634 73.7539 126.61 73.33V63.46H128.89V73.46C128.904 74.1637 128.772 74.8626 128.502 75.5129C128.233 76.1632 127.833 76.7509 127.326 77.2391C126.819 77.7273 126.216 78.1055 125.556 78.35C124.896 78.5945 124.193 78.7 123.49 78.66Z" fill="white"/>
<path d="M137.45 78.66C136.709 78.6778 135.972 78.5442 135.284 78.2674C134.596 77.9906 133.972 77.5763 133.45 77.05C131.97 75.57 131.99 73.91 131.99 71.05C131.99 68.19 131.99 66.49 133.45 65.05C134.554 63.9932 136.032 63.4176 137.56 63.4495C139.088 63.4814 140.541 64.1181 141.6 65.22L140.08 66.76C139.757 66.3615 139.349 66.0411 138.884 65.8229C138.42 65.6047 137.913 65.4943 137.4 65.5C136.988 65.4895 136.578 65.564 136.196 65.7188C135.814 65.8737 135.468 66.1055 135.18 66.4C134.44 67.21 134.3 68.07 134.3 71.09C134.3 74.11 134.44 74.98 135.18 75.78C135.468 76.0763 135.813 76.31 136.195 76.4666C136.577 76.6232 136.987 76.6992 137.4 76.69C137.914 76.6945 138.422 76.5826 138.886 76.3626C139.35 76.1427 139.758 75.8204 140.08 75.42L141.6 76.96C141.065 77.5175 140.42 77.9568 139.705 78.2496C138.99 78.5424 138.222 78.6822 137.45 78.66V78.66Z" fill="white"/>
<path d="M149.38 65.5403V78.5403H147.1V65.5403H142.96V63.4902H153.52V65.5403H149.38Z" fill="white"/>
<path d="M156.12 78.5298V63.5298H158.41V78.5298H156.12Z" fill="white"/>
<path d="M171.2 77.0499C170.14 78.081 168.719 78.658 167.24 78.658C165.761 78.658 164.34 78.081 163.28 77.0499C161.8 75.5699 161.82 73.9099 161.82 71.0499C161.82 68.1899 161.82 66.4899 163.28 65.0499C164.343 64.0234 165.763 63.4497 167.24 63.4497C168.718 63.4497 170.137 64.0234 171.2 65.0499C172.68 66.5299 172.64 68.1999 172.64 71.0499C172.64 73.8999 172.64 75.5699 171.2 77.0499ZM169.47 66.3399C168.873 65.7512 168.068 65.4211 167.23 65.4211C166.392 65.4211 165.587 65.7512 164.99 66.3399C164.25 67.1499 164.11 67.9899 164.11 71.0099C164.11 74.0299 164.25 74.8799 164.99 75.6799C165.284 75.975 165.633 76.2092 166.017 76.369C166.402 76.5287 166.814 76.611 167.23 76.611C167.646 76.611 168.059 76.5287 168.443 76.369C168.827 76.2092 169.176 75.975 169.47 75.6799C170.21 74.8799 170.36 74.0299 170.36 71.0099C170.36 67.9899 170.2 67.1499 169.43 66.3399H169.47Z" fill="white"/>
<path d="M185.2 78.5302L178.2 67.9503V78.5302H175.92V63.5302H178.01L185.01 74.0902V63.4902H187.29V78.4902L185.2 78.5302Z" fill="white"/>
<path d="M1.00007 43.5802V39.3002C0.998922 39.1049 1.07012 38.9161 1.20002 38.7702L10.33 28.5202C11.1967 27.6714 11.7049 26.5225 11.7501 25.3102C11.7811 24.644 11.5597 23.9905 11.1301 23.4803C10.9121 23.2454 10.6447 23.0617 10.3474 22.9424C10.05 22.8231 9.72983 22.7711 9.40998 22.7903C7.85998 22.7903 6.99001 23.7902 6.82001 25.6902C6.82001 25.9702 6.66997 26.0903 6.39997 26.0403L1.39997 25.2702C1.34567 25.2689 1.29247 25.2547 1.24482 25.2286C1.19717 25.2025 1.15652 25.1654 1.12617 25.1204C1.09581 25.0753 1.07667 25.0236 1.07038 24.9697C1.06409 24.9157 1.07085 24.8611 1.09003 24.8102C1.13207 23.8089 1.38122 22.8271 1.82184 21.9269C2.26247 21.0268 2.88494 20.2277 3.64997 19.5802C5.34882 18.1584 7.51652 17.4204 9.73005 17.5103C11.9509 17.4126 14.123 18.1797 15.79 19.6502C16.5424 20.3364 17.1382 21.1765 17.5368 22.1135C17.9354 23.0505 18.1275 24.0623 18.1 25.0802C18.0551 27.5576 17.0429 29.9192 15.28 31.6602L9.08002 38.5403V38.6102H17.72C17.98 38.6102 18.1 38.7402 18.1 39.0002V43.5802C18.1 43.8402 17.98 43.9702 17.72 43.9702H1.44001C1.38349 43.9889 1.32302 43.9924 1.26472 43.9804C1.20641 43.9684 1.15228 43.9413 1.10773 43.9019C1.06319 43.8624 1.02984 43.8119 1.01093 43.7555C0.992018 43.699 0.988306 43.6386 1.00007 43.5802V43.5802Z" fill="white"/>
<path d="M22.7201 38.8399C22.3067 37.6199 22.1034 34.9966 22.1101 30.9699C22.1101 26.9699 22.3101 24.3199 22.7201 23.0899C23.2212 21.4148 24.2797 19.9612 25.7201 18.9699C27.3247 18.0146 29.1575 17.5103 31.025 17.5103C32.8925 17.5103 34.7254 18.0146 36.3301 18.9699C37.7525 19.9795 38.8059 21.4263 39.3301 23.0899C40.0901 28.3124 40.0901 33.6174 39.3301 38.8399C38.8079 40.5073 37.7542 41.9578 36.3301 42.9699C34.7254 43.9253 32.8925 44.4296 31.025 44.4296C29.1575 44.4296 27.3247 43.9253 25.7201 42.9699C24.279 41.975 23.2207 40.518 22.7201 38.8399V38.8399ZM28.91 37.7399C29.0856 38.1572 29.3804 38.5134 29.7575 38.7639C30.1347 39.0144 30.5773 39.148 31.03 39.148C31.4827 39.148 31.9255 39.0144 32.3026 38.7639C32.6797 38.5134 32.9744 38.1572 33.15 37.7399C33.51 33.2338 33.51 28.7061 33.15 24.2C32.9744 23.7827 32.6797 23.4265 32.3026 23.176C31.9255 22.9255 31.4827 22.7919 31.03 22.7919C30.5773 22.7919 30.1347 22.9255 29.7575 23.176C29.3804 23.4265 29.0856 23.7827 28.91 24.2C28.4967 28.7038 28.4967 33.2361 28.91 37.7399V37.7399Z" fill="white"/>
<path d="M1.00006 78.64V74.36C1.00102 74.1621 1.0718 73.9708 1.20001 73.82L10.33 63.58C11.1967 62.7311 11.7049 61.5823 11.7501 60.37C11.7826 59.7005 11.5612 59.0433 11.1301 58.53C10.9103 58.2981 10.6424 58.117 10.3453 57.9995C10.0481 57.8821 9.72892 57.831 9.40997 57.85C7.85997 57.85 6.99001 58.85 6.82001 60.75C6.82001 61.03 6.66996 61.15 6.39996 61.1L1.39996 60.33C1.34566 60.3287 1.29246 60.3145 1.24481 60.2884C1.19716 60.2623 1.15652 60.2252 1.12616 60.1801C1.0958 60.1351 1.07666 60.0834 1.07037 60.0295C1.06409 59.9755 1.07084 59.9208 1.09003 59.87C1.1331 58.8674 1.38268 57.8845 1.82318 56.9829C2.26369 56.0812 2.88557 55.2802 3.64996 54.63C5.35451 53.2193 7.51906 52.486 9.73004 52.57C11.9515 52.4681 14.1251 53.2357 15.79 54.71C16.5424 55.3961 17.1382 56.2363 17.5368 57.1733C17.9354 58.1103 18.1275 59.1221 18.1 60.14C18.0551 62.6174 17.0429 64.9789 15.28 66.72L9.08002 73.6V73.67H17.72C17.7719 73.6613 17.825 73.6651 17.8751 73.6812C17.9251 73.6972 17.9707 73.725 18.0079 73.7621C18.0451 73.7993 18.0728 73.8448 18.0888 73.8949C18.1048 73.945 18.1087 73.9981 18.1 74.05V78.64C18.1087 78.6919 18.1048 78.745 18.0888 78.7951C18.0728 78.8452 18.0451 78.8907 18.0079 78.9279C17.9707 78.9651 17.9251 78.9928 17.8751 79.0089C17.825 79.0249 17.7719 79.0287 17.72 79.02H1.44C1.13 79 1.00006 78.9 1.00006 78.64Z" fill="white"/>
<path d="M22.49 78.6399V74.3598C22.4873 74.163 22.5546 73.9716 22.68 73.8199L31.82 63.5798C32.6796 62.727 33.1836 61.5798 33.23 60.3698C33.2664 59.7015 33.0485 59.0441 32.62 58.5298C32.3995 58.299 32.1314 58.1186 31.8345 58.0013C31.5376 57.8839 31.2188 57.8322 30.9 57.8499C29.34 57.8499 28.48 58.8498 28.3 60.7498C28.3 61.0298 28.1601 61.1499 27.8801 61.0999L22.8801 60.3298C22.8266 60.327 22.7746 60.3116 22.7282 60.2849C22.6818 60.2582 22.6424 60.2209 22.6132 60.1761C22.584 60.1312 22.5656 60.0801 22.5599 60.0269C22.5541 59.9737 22.561 59.9199 22.58 59.8698C22.6207 58.8668 22.8692 57.8831 23.3099 56.9811C23.7505 56.0791 24.3737 55.2784 25.1399 54.6299C26.8417 53.2141 29.0082 52.4801 31.22 52.5699C33.4212 52.4826 35.5709 53.2494 37.22 54.7098C37.9758 55.3938 38.5744 56.2333 38.9749 57.1707C39.3754 58.108 39.5682 59.1209 39.54 60.1399C39.4913 62.6184 38.4757 64.9798 36.71 66.7199L30.5199 73.5999V73.6699H39.2C39.2515 73.6634 39.3038 73.6687 39.3528 73.6855C39.4019 73.7023 39.4464 73.7301 39.4831 73.7668C39.5198 73.8034 39.5476 73.848 39.5644 73.8971C39.5812 73.9461 39.5865 73.9984 39.58 74.0498V78.6399C39.5887 78.6917 39.5849 78.7449 39.5689 78.795C39.5529 78.845 39.525 78.8906 39.4878 78.9277C39.4507 78.9649 39.4052 78.9927 39.3552 79.0087C39.3051 79.0247 39.2519 79.0285 39.2 79.0198H22.91C22.8554 79.0365 22.7974 79.0387 22.7417 79.0263C22.6861 79.0139 22.6345 78.9872 22.5922 78.9489C22.5499 78.9107 22.5183 78.8621 22.5004 78.8079C22.4825 78.7537 22.4789 78.6958 22.49 78.6399Z" fill="white"/>
<path d="M38.13 9.27979H44.82V15.9698" stroke="white" stroke-width="2.95" stroke-miterlimit="10"/>
<path d="M44.82 48.77V57.59" stroke="white" stroke-width="2.95" stroke-miterlimit="10"/>
</svg>
